<?xml version="1.0" encoding="utf-8"?>
<!-- Generator: Adobe Illustrator 21.0.2, SVG Export Plug-In . SVG Version: 6.00 Build 0)  -->
<svg version="1.1" id="Layer_1" xmlns="http://www.w3.org/2000/svg" xmlns:xlink="http://www.w3.org/1999/xlink" x="0px" y="0px"
	 viewBox="0 0 864 864" style="enable-background:new 0 0 864 864;" xml:space="preserve">
<style type="text/css">
	.st0{stroke:#000000;stroke-width:0.5;stroke-linecap:round;stroke-linejoin:round;stroke-miterlimit:10;}
</style>
<g>
	<path class="st0" d="M658.9,396.3c0,0,9.2,2.6,16.4,0.2c0,0-0.7-3.2-4.6-8.7c-3.8-5.4-7.5-21.2-2.5-30c5.1-8.8,16.1-22.7,24.8-20.1
		c1.4,0.4-0.2,3.4-0.8,6.3c-0.6,2.8-1.3,8.9,4.1,19.1c5.5,10.1,16.5,17.4,15.7,25.6c0,0,12.3-0.4,19.6,4.8
		c7.3,5.2,25.3,20.6,35.4,23.6c3.4,1,5.4,2.4,2.4,5.2c-3.1,2.8-11.8,12.7-59.1,4.1c-6.8-1.2-20.3,0-27.3,3c0,0-28.1,7.5-73.8,10.8
		c-45.7,3.3-55.5-8.1-120.1,10.9c-8.3,2.4-42.3,21.1-165.3,45.3c0,0-8.1,0.2-2.7,5.2c5.4,5,35.3,24.6,35.4,32.7
		c0.1,4.5-22.3,3.5-34.3,2c-12-1.5-35.1-15.1-40-21.4c-4.9-6.3-9.4-5.7-16.2-5.4c-6.8,0.3-36.6-3.1-46.8,0.1
		c-15.8,4.9-72.6,15.4-114.3,11.9c-7.1-0.6-14.6-8-11.2-32c3.4-24,16.6-47.1,19.7-52.3c3.1-5.1,8.7-18.1,25.7-27
		c16.9-8.9,27.7-30,86.4-43c58.7-13,123.6-16,182.9-15c59.3,1,129.4,16.4,148.2,18.4c18.7,2,29-2.9,37-6.7c8-3.8,5.8,5.9,7.7,9.6
		c1.9,3.8-0.2,8.1,10.7,11.3C623.2,387.9,648.2,394.1,658.9,396.3z"/>
</g>
</svg>
