<?xml version="1.0" encoding="utf-8"?>
<!-- Generator: Adobe Illustrator 21.0.2, SVG Export Plug-In . SVG Version: 6.00 Build 0)  -->
<svg version="1.1" id="Layer_1" xmlns="http://www.w3.org/2000/svg" xmlns:xlink="http://www.w3.org/1999/xlink" x="0px" y="0px"
	 viewBox="0 0 864 864" style="enable-background:new 0 0 864 864;" xml:space="preserve">
<style type="text/css">
	.st0{stroke:#000000;stroke-width:0.5;stroke-linecap:round;stroke-linejoin:round;stroke-miterlimit:10;}
</style>
<path class="st0" d="M371.7,433c0,0-7.6-11.2-8.1-17.8c0,0-2-1.3-2.9-2.4c0,0-9.5-2.4-13.5-6.7c-3.9-4.3-7.1-6.9-11.9-11.2
	c-4.8-4.2-6.9-2.2-6.4-8c0,0-11.5-17.9,3.5-27.2c2.3-1.4,5.1-6.4,7-7.3c0,0,11.5-14.5,18.5-15.7c0,0-1.3-1.3-0.4-1.8
	c1-0.6,4-3.8,9.1-3.4c0,0,32.4-8.8,48.6,7.3c2.2,2.2,4,5.9,2,5.5c-2-0.4-5.3-3.9-9.4-4.8c-4.1-0.9-2.9,0.3-4.1,0.4
	c-1.3,0.1-2.1-1.2-4.3-1.1c-2.2,0.1-1.5,1.9-2.9,1.9c-1.3,0-2.7-1-3.9-0.9c-1.3,0.1-1.2,1-3.7,0.7c-2.5-0.3-1,0.9-4.3,0.5
	c-3.4-0.4-5.3,2.4-5.4,3.2c-0.1,0.8,0.7,5.7,1.9,6.1c1.3,0.4,1.8,0.5,3.1,0.2c1.3-0.3,3.5-0.4,4.1,0.1c0.5,0.4,1.2-0.4,1.4-0.6
	c0.2-0.2,1.5-0.9,2.1-0.3c0.6,0.6,1-0.4,1.3-0.7c0.2-0.2,0.8,0,1.3,0.4c0.6,0.4,0.8-1,1.8-1c1,0,1.2,1.1,1.8,1
	c0.7-0.1,0.9-1.3,1.8-1.3c0.9-0.1,1.2,1.3,1.8,1.2c0.6,0,1-0.9,1.9-0.9c0.9,0,0.9,0.9,1.5,1c0.6,0,0.7-0.6,1.3-0.6
	c0.7,0,1,0.7,1.5,0.8c0.5,0.1,0.2-0.6,1.3-0.6c1.2,0,0.9,0.7,2,0.9c1.1,0.2,4.1,0.1,4.9,0.5c0.7,0.4-2.9,6-15.1,5.6
	c-1.3,0-9.6,0.8-17,5.5c-7.4,4.7-15,13-23.6,16.4c-0.2,0.1-4,0.7-3.8,1.6c0.1,1,3.7,4.5,3.8,3c0.1-1.5,0.6-2.7,1.3-0.8
	c0.7,1.9,1.1,1.1,1.7,1.2s1.5,1.6,1.8,0.6c0.3-1,2.1,0.9,2.9,3c0,0,0.4,0.8,1.5-0.4c1.1-1.2,8.9-11.4,30.8-15c0,0-2.5-1.6-1.3-3.6
	c1.2-2,2.7-2.9,3.8-2.7c1.1,0.1,3.3,2.1,3.6,3.3c0.3,1.2,1.3,2,3.1,2.4c1.8,0.3,2.2,0.1,3.7,0.5c1.5,0.4,9.4,1.7,12.1,0.6
	c2.6-1.2,2.8-2.5,4.2-2.1c1.3,0.4,2,1.2,2.5,0.5c0.5-0.6,2.9-5,3.8-5.1c1-0.1,1.9,0,2.6-0.3c0.7-0.3,1.4-0.2,2.1,0.6
	c0.7,0.8,1.5,2.8,1.3,3.5c-0.2,0.6-1.2,2.1-0.1,1.8c1-0.2,4.8,0,6.6,0.7c1.9,0.7,16.4,3.4,24.7,10.4c0,0,2.5-2.4,3.4-2.1
	c0.8,0.3,0.5-0.1,0.9-0.6c0.4-0.5,0.9-1.6,1.6-1.2c0.7,0.4,1.4,0.5,1.9-0.1c0.4-0.6,1.7-1.8,2.4-1.4c0.7,0.4,0.7,1.3,1.5,1.2
	c0.8-0.1,3.5-1.3,4.1-2.1c0.7-0.8,0.9-0.5-0.8-1c-1.6-0.5-17.2-6-26.8-13.4c-0.9-0.7-2.5-2.5-6.9-3.7c-4.4-1.2-10-2.1-13.1-2.3
	c-3.1-0.2-12.4-1.3-16.4-5.5c0,0-1.6-1.1,1-1.1c2.6,0,10-1,12-0.4c2,0.6,2.3,0.7,3.1,0.3c0.8-0.3,0.4-0.7,1.5-0.1
	c1.1,0.6,1.4-0.3,2.4-0.7c1-0.3,1.5,0.3,2.3,0.7c0.8,0.3,2.1-0.2,2.6-0.9c0.5-0.7,1,0.3,1.9,0.6c0.9,0.3,1.3-1.2,3-0.9
	c1.6,0.3,1.3,1.2,2.2,0.2c0.9-0.9,1.7-0.9,2.2-0.6c0.4,0.2,1.2,0,1.5-0.7c0.3-0.7,0.9,0.2,1.4,0.1c0.6-0.1,1.8-1.4,0.9-2.1
	c-0.9-0.7-1.7-1.6-1.5-2.3c0.2-0.7,0.5-0.9-0.9-1.4c-1.4-0.6-4.6-1.7-5.3-1.4c-0.7,0.3-1,0.8-2.2,0.5c-1.2-0.3-0.4-1.7-2.4-0.7
	c-1.9,1-1.7,0.1-2-0.5c-0.3-0.6,0.5-2.1-2.4-0.4c-0.2,0.1-0.8,0.7-1.8,0.2c-1-0.4-1-1.2-2.3,0c-1.3,1.2-1.8,0.2-2-0.5
	c-0.2-0.7-1,0.3-1.4,0.6c-0.4,0.3-1.1,0.8-1.4,0.3c-0.4-0.4-1.1,0.1-1.6,0.7c-0.5,0.6-2.1-0.7-3.6,0.8c-1.5,1.4-3.6,2.2-5,3.2
	c-0.7,0.5-3.2,1.8-1.9-0.6c0.5-1,4.3-6.6,11.4-10.2c10.1-5.2,23.7-8.9,39.4-3.6c0,0,2.2-1,3.1-0.5c0.9,0.5,18.4,12.5,20.5,14.3
	c2.1,1.8,3.9,3.3,5,6.3c0,0,1.3,0.1,1.8,0.6c0.5,0.5,3.8,5.4,5.6,6.9c1.8,1.4,4,3.3,4,4.4c0,1.1,0.3,1.1,0.9,1.8
	c0.6,0.7,1.5,1.5,1.7,2.6c0.2,1.1,0.4,1.4,0.6,2.3c0.2,0.8,0.6,5.2,0,7.4c-0.6,2.2-1.8,6.3-5.4,7.9c0,0,0.7,2.5-0.3,3.9
	c-1,1.4-8.7,7.8-9.2,8.3c-0.5,0.5-15.3,12-18,13c-2.6,1-2.7-0.1-3.2,1.8c-0.5,1.9-2.7,12.8-9.3,20.9c0,0,0.5,1.6,2.6,0.2
	c0.5-0.4,5.5-4.8,7.5-6.6c2.1-1.7,4.6-4.4,6.4-5.3c1.8-0.8,15.3-10.5,17.4-12.6c2.1-2.1,5.8-5.4,7.1-5.4c1.2,0,3.3,0.3,3.3,0.3
	s2.6-5.5,3.7-6.1c1.2-0.6,5.7-3.5,6.7-4.3c1-0.8,8.1-5.8,9.5-8.1c1.3-2.3,2.5-2.3,2.4-1.8c-0.1,0.5,2.1-2.8,2.5-2.4
	c0.4,0.4,1.1-2,1.7-1.8c0.6,0.2,1.3-1.5,1.7-1.5c0.4,0,0.8-1.3,1.9-1.5c1-0.1,1.5-2.6,1.9-2.3c0.4,0.3,0.7,0.3,0.7,0.3
	s2.1-5.3,2.6-4.2c0.5,1.1,1.7-0.6,1.8-1c0.1-0.6,0.4-3.5,1.4-3c1,0.4,1.2-1.1,1.3-1.9c0.1-0.9,0.8-1.2,1.3-0.9
	c0.5,0.3,1.2-1.7,1.3-2.2c0.1-0.5,0.9-1.7,1.2-1.7c0.3,0,0.6-3.4,1.3-3.3c0.7,0,1.3-0.8,1.3-1.5c0-0.7,1.1-3.1,1.7-2.5
	c0.6,0.6-0.2-3.2,0.9-3.2c1.2,0,1.3,0,1.5-1.3c0.2-1.3,0.4-2.6,1.1-2.3c0.7,0.3,1.5,2.7,1.1,3.6c-0.4,0.8,0.5,1,0.4,1.8
	c-0.1,0.9-1.2,1.3-0.6,2.3c0.6,1,0,1.9-0.4,2.7c-0.4,0.8-0.3,2.9-1.3,3.4c-1,0.5,0.6,0.9,0.1,1.7c-0.5,0.9-1,1.8-1.3,2.7
	c-0.3,0.9-4,8.3-4.5,9c-0.5,0.7,0.2,1.3-0.4,2.1c-0.6,0.7-1,1.4-1.2,2.1c-0.2,0.6-1.2,1.3-2.1,1.9c-0.9,0.5,1.3,0.7,0,1.5
	c-1.2,0.8-2.3,0.8-2,1.3c0.3,0.5,0.4,1.1-0.2,1.6c-0.6,0.5-1.4,1.2-1,1.7c0.4,0.5,0.2,1-0.5,1.6c-0.7,0.6-1.6,1.1-1.3,1.4
	c0.2,0.4,0.3,0.7-0.4,1.2c-0.7,0.5-2.3,1.5-1.8,2.1c0.4,0.6,0.4,0.6-0.1,1.2c-0.5,0.6-3.5,1.4-3,2.1c0.5,0.7,0.5,1-0.2,1.3
	c-0.8,0.3-3,1.1-2.4,1.5c0.6,0.5,0.2,0.6-0.2,0.9c-0.4,0.3-4.5,2.3-5,2.9c-0.6,0.7-2,0.1-2.2,1.5c-0.2,1.3-2.4,7.1-9.4,10.9
	c-0.8,0.4-4.1,1.2-3.6,1.9c0.5,0.8,0.4,1.3,0.2,1.7c-0.2,0.4-2,2.4-4,2.7c-2,0.4-1.8,1.4-0.5,0.9c1.3-0.5,3.5-0.8,4.4-0.5
	c0.9,0.3,0.9,1.2,2.5,0.7c1.6-0.5,6.2-2,7.8-2c0.4,0,0.4,0.3,0.4,0.3s6.8-0.7,7.5-0.2c0.7,0.5-0.2,0.9-0.2,0.9s3.7-0.2,3.9,0
	c0.2,0.2,0.5,0.8,0,1.2c0,0,3-0.3,3.1,0.2c0,0.5-0.2,1-0.2,1s3.1-0.3,3.3,0c0.2,0.3-2,1.5-1.3,1.5c0.1,0,1.7,0.5,2.9,0.3
	c1.2-0.2,5.2-0.5,5.9,0.1c0.6,0.6-0.9,1.3-0.9,1.3s4.5-0.4,4.6-0.1c0.1,0.2-1.2,1.1-1.2,1.1s4.4-0.2,4.8,0.1c0.3,0.3,0.2,1-0.5,1.2
	c0,0,4.4,0,5.1,0.4c0.7,0.4,0,1,0,1s2.7-0.1,2.9,0.3c0.2,0.4-1.1,0.8-1.1,0.8s4.1,0.4,4.5,1c0.4,0.6-0.3,0.6-0.3,0.6s3.5-0.1,4,0.7
	c0,0-0.1,0.6-0.5,0.6c0,0,4.6,1.3,5.1,2.1c0.5,0.7-0.2,0.9-0.2,0.9s11.4,5.9,12.2,7.1c0.8,1.2-0.6,0.9-0.6,0.9s4.5,4.7,4.6,5.4
	c0,0.7-0.2,0.8-0.5,0.9c0,0,2,3.4,2,5.5c0,2.1,0.9,5.9-1.6,2.1c-2.5-3.8-6.4-5.1-7.5-5.9c-1.1-0.8-2.5-1.8-2.8-2.2
	c-0.4-0.4-2-0.8-2.5-1.3c-0.4-0.5-1.5-0.8-2.2-1.2c-0.6-0.4-1.9,0-3.5-1.9c0,0-4.5-1.6-6-2.9c0,0,0.5,0.5-0.1,0.7
	c-0.6,0.2-2.9,0.8-3.7,0.7c-0.8,0-1.8-0.4-1.7,0c0.1,0.5,0.2,0.2-1.3,0.2s-2.8-0.4-2.8-0.4s0,0.5-0.8,0.6c-0.8,0.1-3.3-1.7-3.3-1.7
	s0,1.3-1.1,0.9c-1.1-0.3-3.9-1.7-3.9-1.7s-0.1,0.7-2.1,0.4c-2-0.3-2.5-1.4-2.5-1.4s-2-0.8-2.9-1.5c-0.9-0.8-4.3-2.8-4.3-2.8
	s-5.3-0.3-8.2-0.9c-2.9-0.5-8.4-4.3-9.8-4.7c-1.4-0.4-2.4-0.5-2.4,0.3c0,0.9,0.3,1.7-0.3,2.1c-0.6,0.3-0.8,0.8-0.8,1.1
	c0,0.3-0.2,0.6-0.7,0.9c-0.5,0.2-12.6,5.3-10.6,5.5c2,0.2,3.1-0.2,3.5,0.3c0.4,0.5,0.2,0.7,1.7,0.9c1.5,0.1,4.8-0.1,10.7,1.4
	c0.8,0.2,2.4,0.5,2.8,0.4c0.4,0,1.9,0,2.6,0.4c0.7,0.3,0.3,0.8,0,1.2c-0.3,0.3-0.8,1.3-0.3,1.3c0.5,0.1,2.5,0,2.8,0.4
	c0.3,0.4-1.1,1.7-0.1,1.7c1,0,1.9,0.4,1.7,0.8c-0.2,0.4-1.5,1.2-0.5,1.3c1.1,0,2.5,0.1,2.5,0.6s-1.5,1.3-0.4,1.3
	c1.2,0,4.1,0.1,4.6,0.8c0,0,3.3-0.3,3.2,0.6c0,0,3.8,0.1,3.4,1.4c0,0,3.8,0.7,3.1,1.5c0,0,3.8,0.7,2.5,1.5c0,0,4.1,1.1,2.3,1.7
	c0,0,3.7,1.1,2.6,1.8c0,0,3.1,1.6,1.3,2.2c0,0,1.4,1.3,0.9,1.5c-0.5,0.2-0.9,1.2-0.4,1.5c0.5,0.3,3.2,2.4,2.6,2.6
	c-0.6,0.2-0.4,0.6-0.4,0.6s2.1,1.8,1.6,2c-0.5,0.2-0.9,0.5-0.6,0.5c0.2,0,2.3,2.8,2.3,3.4c0,0.5,0.1,0.9,0.3,1.2
	c0.2,0.3,1.2,1.6,1,2c-0.1,0.4,0,0.8,0.3,1.3c0.3,0.5,0.8,2.5,0.4,2.6c-0.3,0,0.2,0.4,0.5,1.3c0.3,0.9,0,2.4,0.4,3.6
	c0.4,1.2,0.8,1.6,0.4,2c-0.4,0.3-0.4,0.7-0.2,1c0.1,0.3,0.5,2,0.1,2.2c-0.4,0.1-0.5,0.8-0.2,1.1c0.2,0.3,0.5,2.5,0.1,2.6
	c-0.3,0.1-0.4,0.6-0.4,1c0,0.3-0.1,5.6-0.4,5.8c-0.3,0.2-0.9-0.1-1.2-1.5c-0.3-1.4-1-2.8-1.1-3.3c-0.1-0.5-0.9-1-1-1.7
	c0-0.7-0.6-1.8-0.7-2.6c-0.1-0.9-0.1-1.7-0.4-1.7c-0.3,0-0.5-0.5-0.7-1.3c-0.2-0.8-0.3-1.8-0.8-2.1c-0.5-0.3-0.5-0.4-0.6-1.6
	c-0.1-1.2-0.5-1.4-0.8-1.5c-0.3-0.1-0.6-0.6-0.7-1.7c0-1.1-0.4-1.5-0.6-1.5c-0.2,0-1.2,0.4-1.4-1.1c-0.2-1.5-0.1-1.4-0.7-1.6
	c-0.6-0.2-0.8-1-0.7-1.6c0.1-0.6-0.5-0.7-0.9-1.1c-0.4-0.4-2.4-3-2.8-3.8c-0.2-0.3-0.6-0.6-1.9-0.6c-1.2,0-2-0.7-2.5-1.1
	c-0.5-0.3-1-1.5-0.8,0.1c0.1,1.6-2.1-0.5-2.5-0.7c-0.4-0.2-1-1-1.1,0c-0.1,1-1.3-0.4-2-1c-0.8-0.5-1.1-0.2-1.3,0.1
	c-0.2,0.3-1.4-0.4-1.9-0.8c-0.5-0.3-0.4-0.8-1.1-0.6c-0.7,0.2-0.8-0.4-1.9-1.2c-1.2-0.8-0.3,0-1.4,0.2c-1.1,0.2-2.1-1.6-2.6-2.1
	c-0.5-0.5-0.8,0-1.5,0c-0.7,0-1.5-1.6-2.2-2c-0.7-0.4-0.7,0.2-1.3,0.1c-0.5-0.1-3.4-4.3-3.7-4.8c-0.2-0.5-0.6-0.8-0.9-0.4
	c-0.3,0.3-0.4,0.4-1.1-0.1c-0.7-0.5-2.2-2.5-2.7-3.5c-0.6-1.1-2.5-3.5-2.8-3.8c-0.3-0.2-0.9-1-0.9-0.2c0,0.8,0,1.4-1.2,2.1
	s-9.7,3.7-12.1,4.4c-2.4,0.7-5.7,1.4-6.7,1.8c-1.1,0.4,0.1,0.8,0.1,0.8s9.9-0.5,15.9,4.4c0,0,2.1,0,2.6,0c0.4,0.1-1.4,1.1-0.4,1.3
	c1,0.3,4.4,1.1,3.6,1.4c-0.8,0.4-1.4,0.8-0.3,1.2c1.1,0.4,3.8,1.3,3.1,1.8c-0.7,0.5-0.2,1.3,0.3,1.5c0.5,0.3,3.6,1.9,2.5,2.3
	c-1.1,0.4,0.9,1.4,1.5,1.5c0.6,0.1,3.3,0.8,2.8,1.6c-0.5,0.8,3.1,1.7,1.9,2.4c-1.2,0.6,1.1,1.2,1.1,1.2s1.3,0.8,0.9,1.9
	c0,0,3.6,1.8,2,3c0,0,3.8,2.1,2.2,2.4c-1.6,0.3,2.4,2,1.3,2.4c-1.1,0.4,4,3.5,2.1,3.9c-1.9,0.4,2.4,2.7,1.2,3c-1.2,0.3,2,3,1.4,3.3
	c-0.6,0.2,1.5,2.5,0.7,2.5c-0.8,0,2.3,3.1,1.5,3.1c-0.8,0-0.3,1-0.1,1.5c0.2,0.5,0.8,2.2,0.3,2.3c-0.5,0.1,1,3.3,0.4,3.3
	c-0.6,0,0.3,3,0.1,3c-0.2,0-0.1,2.8-0.3,3.5c-0.2,0.7-0.7,2.7-3.3-2.3c-0.6-1.2-1-2.2-1.8-3.7c-0.8-1.5-1.8-2.9-2-4.3
	c-0.1-1.4-0.9-2.5-1.6-3.6c-0.7-1.1-2.3-5.2-3.1-6.6c-0.9-1.4-2.5-4.4-3.6-4.8c-1-0.4-2.3-1.8-2.8-1.4c-0.5,0.4-2.2-0.3-2.7-1.1
	c-0.5-0.8-1-0.3-1.5-0.3c-0.5,0-2.2-2.2-2.7-2.2c-0.5,0-0.5,1-2.2-0.8c-1.7-1.8-1.6,0.1-2.5-0.8c-0.9-0.9-2.3-2.5-3.3-2.5
	c-1,0-1.8-1.6-2.1-2.2c-0.3-0.6-4-6-4.5-7.5c-0.4-1.5-2.2-0.9-3-1.9c-0.9-1-2.2-2.4-3.7-2.9c-1.5-0.5-3.2-1-4.4-0.3
	c-1.2,0.7-0.8,1.2-3.3,1.3c-2.5,0.2-15.6,0.7-20.1,0.5c-4.4-0.2-11.3-3.7-11.3-3.7s-3.3-0.1-4.9-1.5c0,0-0.9,0.3-2.1,0.1
	c-1.2-0.1-4.7-2.7-5-3.7c0,0-2.1-0.5-2.6-2.3c0,0-3,0.2-4.1-0.6c-1.1-0.8-2-0.2-2.7,0.3c-0.8,0.5-2.2,1.7-5.8,1.3
	c-3.6-0.4-9.7-0.8-21-0.1c-0.9,0-8.3,0-11.5-0.8c-0.6-0.1-2-0.2-4.9,0.2c-2.9,0.5-4.1,0.1-5.2,1.2c-1.2,1.1-3.4,4.7-6.2,5.4
	c-2.8,0.8-4.6,1.7-6.6,2.8c-2,1.1-7.5,5.2-28.6,3.4c-1.2-0.1-2,0.2-3.6,0.4c-1.5,0.2-3.3-1.3-4.9-0.4c-1.6,0.9-3.6,4.8-3.9,5.5
	c-0.4,0.7-1.4,2.4-2.6,2.4c-1.2,0-1.3,0.6-1.3,0.6s-1,3.6-2.1,3.9c0,0,0.4,0.7-0.2,1.2c-0.6,0.4-0.8,0.5-1.3,1.3
	c-0.5,0.8-2.6,2.5-3,1.7c-0.4-0.7-1.3,0.9-1.3,0.9s-1.4,1.8-1.9,1c-0.5-0.8-1.5,1.3-1.5,1.3s-0.7,0.6-1,0.2
	c-0.2-0.4-1.8,2.5-2.2,1.8c-0.4-0.7-0.8,0.5-0.8,0.5s-2.8,2-3.2,3c-0.3,1-0.8,0-0.8-0.6c0-0.6-0.7,1-1.4,1.1c-0.7,0-1.5-0.1-2.2,1.4
	c-0.7,1.5-1.3,2.8-1.3,3.1c0,0.3-0.9,0.2-1,0.1c0-0.1-1.1,2.3-1,2.6c0.1,0.3-0.9,0-0.9-0.3c0-0.3-0.8,1.6-0.8,2.3
	c0,0.6-0.3,2.1-0.9,1.2c-0.5-0.9-0.6,0.3-0.8,1c-0.2,0.6-2.7,3.3-3.5,3.9c-0.8,0.6-4.5,4.9-3.6,0c0.2-1.1,0.3-2.2,0.3-2.2
	s-0.5,0,0.3-1.4c0.9-1.4,0.4-1.8,0.4-1.8s-1.2,0.5,0-1c1.2-1.5,0.6-1.6,0.6-1.6s-0.8,0.4,0.2-1.9c1.1-2.3,1.4-2.1,1.4-2.1
	s-1.6,0.9-0.3-1.3c1.3-2.1,0.8-1.9,2.1-3.6c1.3-1.6-2,0.1,0.1-1.8c2.1-1.9,1.3-1.4,0.8-1.4c-0.5,0-0.4-0.3,1.1-1.5
	c1.5-1.3,1.3-1.6,0.8-1.6c-0.5,0-0.7-0.3,0.8-1.5c1.5-1.2,1.9-1.7,1.4-1.7c-0.5,0-0.3-1,0.8-1.8c1.2-0.8,1.8-1.7,1.5-1.6
	c-0.3,0-0.5-0.8,1.1-1.3c1.5-0.5,1.8-1.2,1.3-1.2c-0.5,0-0.3-0.7,1-1c1.3-0.3,2.7-1.5,2.2-1.5c-0.5,0-1.1-0.3,0.4-0.8
	c1.4-0.5,5.4-3,4.5-3.2c-1-0.2-0.4-0.8,0.3-1.3c0.7-0.5,4.4-2,2.9-2.3c-1.5-0.3-0.3-1.1,0.1-1.1c0.4,0,2.8-1,1.8-1.2
	c-1-0.2,0.2-0.7,1-1c0.8-0.3,2.2-1.1,1.6-1.2c-0.5-0.1,0.4-0.9,1.1-1.1c0.7-0.2,3.6-0.9,4.6-1.5c1-0.7,5.4-2.6,9.9-1.8
	c0,0,0.5-0.8-0.7-1c-1.2-0.2-14.6-3.2-16.8-4.9c-2.2-1.7-1.5-2-1.5-2s-5.1,4-6.6,6c-1.5,2-2.9,2.5-3.6,2.6c-0.7,0.2-2.1,3.8-4.4,4.8
	c-0.4,0.2-0.8,0.6-0.6-1.1c0-0.5-0.9,0.5-1.3,1c0,0-3.3,3.1-3.3,1.8c0.1-1.4-0.3-0.9-1.6,0.3c-1.3,1.3-1.7,1.3-1.5,0.4
	c0.2-0.9-1.6,0.8-2.1,1.3c-0.5,0.5-1.7,1.6-1.7,0.5c-0.1-1-1.1,1.2-1.9,1.6c-0.8,0.4-1.3,0.2-1-0.5c0.3-0.7-1,1.1-1.9,1.6
	c-0.8,0.5-1.3,0.1-1.1-0.6c0.2-0.7-4.6,2.7-5.5,3.7c-0.9,1-1.9,2.1-2.4,2.1c-0.5,0-0.4,1-0.7,1.5c-0.4,0.5-0.7,1.3-1.1,2.1
	c-0.3,0.8-0.9,1-1,1.6c-0.1,0.6-1,2.1-1.3,2.9c-0.3,0.9-3,5.8-3.4,7c-0.4,1.2-2.3,6-3,8.1c-0.7,2.1-4.2,7.4-3.4,1.7
	c0.1-0.5,0.7-2.5,0.7-2.5s-1.9,1.8-1.3,0c0.1-0.4,1.1-2.5,0.3-1.8c-0.9,0.7-1.1,0.3-0.7-0.9c0.4-1.2,1.2-2.4,0.3-2
	c-0.9,0.4-1.1-0.1-0.5-1.4c0.6-1.3,2.3-3.4,1.2-3.1c-1.1,0.3-0.2-1.5,0.2-1.8c0.4-0.4,1.7-2.6,0.7-2.2c-1,0.3,0.1-1.2,0.5-1.8
	c0.4-0.6,1.8-2.2,0.9-2c-1,0.2-0.8-0.4-0.3-1.1c0.5-0.7,1.9-2.1,1-2.1c-0.9-0.1-0.4-0.3,0.4-1.5c0.8-1.2,2.8-2.9,0.8-2.4
	c-1.9,0.4,0.2-0.8,0.8-1.2c0.6-0.4,6.2-4.1,1.8-2.9c-0.6,0.2-1.1-0.4,0.1-1.3c1.2-1,2.8-2.3,1.4-2c-1.3,0.3-0.4-0.8,0.1-1
	c0.4-0.2,2.8-2.2,1.3-1.8c-1.4,0.4-0.9-0.3,0.2-0.8c0.8-0.4,4.9-2.4,2.3-2c-0.4,0.1-1.5,0.1,0.2-0.9c0.2-0.1,3.4-1.4,2.2-1.7
	c-1.1-0.3-0.1-1,0.5-1c0.6-0.1,2.9-0.4,3.5-0.3c0.6,0.1-0.2-0.6-0.6-0.7c-0.5-0.1-1.8-0.7,0.5-0.8c2.3-0.1,3-0.1,1.9-0.6
	c-1.1-0.5,0.1-0.9,0.7-0.8c0.6,0.1,4.2-0.2,2.6-0.7c-1.6-0.5,0.4-0.6,0.9-0.7c0.4,0,2.3-0.2,1.6-0.6c-0.7-0.4-0.5-0.4,0.6-0.4
	c1.1,0,3.8-0.3,2.7-1c-1-0.7,1.9-1.3,1.9-1.3s-3.4-0.2-1.9-0.9c1.4-0.7,4.4-1.5,4.4-1.5s1.4-0.6-1-0.5c-2.4,0-1.2-0.6-0.2-0.9
	c0.8-0.2,3.8-1,4.9-1.1c0,0,0.2-0.1-0.6-0.6c-0.8-0.5-1.6-1,0.8-1.3c2.4-0.3,2.7-0.3,1.8-0.9c-1-0.6,0.1-0.7,1.5-0.9
	c1.4-0.2,5.2-0.1,5.2-0.1s5.9-1.7,8.2-1.9c0,0,1.2-1.4,2.9-1.4c1.7,0,1.1-0.5,0.2-0.8c-0.9-0.3-9.4-1.7-12.3-4.4
	c-0.4-0.4-0.9-2.2-0.9-4.6c0-0.2-0.2-0.4-1-0.2c-0.8,0.3-2.4,0.5-5.6,3.4c-3.2,2.9-8.9,3.8-11.2,3.3c0,0-5.8,4-12.3,5.5
	c-0.4,0.1-2,0.8-3.2,1.9c-1.2,1.1-3.5,1.8-2.4,0.3c1.1-1.5-2.4,0.3-2.6,0.4c-0.2,0.1-2.8,1.5-1.2-0.5c1.6-2.1-1.6-0.4-2.1-0.1
	c-0.5,0.3-3.8,2.3-2.3,0.2c1.5-2.1-1.2-0.6-1.7-0.3c-0.5,0.3-4.1,2-2.9,0.2c1.3-1.8-1.6-0.8-2.8,0.6c-1.2,1.5-2.6,1.8-2.2,0.5
	c0.4-1.2-1.4,0.2-2,1c-0.5,0.8-2.6,2.4-2.3,1.2c0.3-1.2-1.2,0-1.5,0.8c-0.3,0.7-1.9,2-1.9,1.2c0-0.7-0.9,0.2-1.3,1.1
	c-0.4,0.9-1.6,1.7-1.3,0.6c0.2-1-1.6,0.8-1.8,1.5c-0.2,0.7-1,1.3-0.9,0.7c0.1-0.6-1.5,1.3-1.5,1.7c0,0.4-0.9,1-0.9,0.9
	c-0.1-0.1-2,1.6-2.6,2.7c-0.6,1.1-2,3.1-2.3,4.4c-0.4,1.3-1.6,1.2-1.6-1.1c0-2.3,0.1-3.4,0.1-3.4s-0.9-1.4-0.4-2.3
	c0.5-0.9,2-2.2,2-2.2s-1.3-1.1-0.1-2.1c1.2-1.1,1.4-1.2,1.4-1.2s-1.2-0.1,0-1.6c1.2-1.5,2.2-2.1,2.2-2.1s-1.8,0-0.7-1.4
	c1.1-1.4,3.1-2.4,3.1-2.4s-1.3-0.4,0.7-1.6c0,0-1-0.4,1.3-1.6c0,0,0-1,0.9-1.3c0.9-0.3,4.8-1.5,4.8-1.5s-3.2-0.3-0.9-1.3
	c2.3-1,4.7-1.3,6.2-1.3c0,0,0.8-0.8-1.7-1c-2.4-0.1-0.3-0.9,0.8-1.1c1.1-0.2,2.6-0.3,2.6-0.3s-2.4-1.6-0.4-1.6c2,0,4.3-0.1,4.3-0.1
	s-2.7-1.6-0.1-2c2.5-0.4,4.1,0.2,4.1,0.2s1-0.1-0.2-1.1c-1.1-1-0.5-1.1,0.7-1c1.2,0.1,2,0.9,3.1,1c1.2,0.1,1.7-0.8,0.6-1.4
	c-1.1-0.6-1-1.5,0.4-1c1.4,0.5,5.9,2.9,4.1,0.8c-1.8-2.1,0.1-1.5,0.4-1.5c1.1,0.3,3.4,1.4,3.7,1.7c0.3,0.3,1.3-0.1,0.5-1
	c-0.9-0.9-0.1-1.3,0.6-1.2c0.7,0.1,2.2,0.6,3.1,1.4c0.9,0.7,3.2,0.3,2.7-0.2c-0.5-0.5-1.7-2.1-0.3-1.8c1.4,0.3,3.8,0.8,1.2-0.6
	c-2.5-1.4,3.1,0,3.3,0.1c0.2,0.1,0.5-0.3-0.2-0.9c-0.7-0.6,0.1-0.9,1.3-0.6c1.1,0.3,3.8,1.2,1.6-0.4c-2.3-1.5-0.4-1.3,0.4-0.9
	c0.9,0.4,3.9,1.9,2.6,0.4c-1.4-1.5-1.3-1.7,0.1-1.3c1.4,0.4,4.3,2.4,3,0.6c-1.3-1.9,0.3-1.2,0.8-0.9c0.5,0.3,4.2,3.2,2.7,0.6
	c-1.4-2.6-0.1-1.7,0.4-1.4c0.5,0.3,4.3,3.1,2.6,0.4c-1.8-2.7,1.9,0.3,1.9,0.3s2.4,2,1.3-0.4c-1.1-2.3,0.5-0.4,1.3-0.2
	c0.7,0.3,3.4,2.7,4.1,2.5c0.7-0.2,2.1-1.6,1.9-1.9c-0.2-0.3-2.5-1.7-2.2-3.7c0.1-0.7,0-1-0.6-1.5c-0.5-0.5-7.5-3.5-10.2-5.5
	c-2.7-2-4.9-2.6-4.9-6.3c0-0.5,0.2-1.3-0.9-1.8c-1.1-0.4-4.6-1.6-5.4-2.7c-0.9-1.1-1.2-0.5-2-2c-0.8-1.4-1.6-1.9-2.1-2.6
	c-0.4-0.7-4.4-3.7-5.2-4.5c-0.7-0.8,0.5-0.4,0.5-0.4s-3.2-2.4-2.8-3c0.1-0.2-0.2-1-0.3-1c-0.2-0.1-1.6-1.7-1.3-2.3
	c0.4-0.6-1.6-1.9-1.7-3.4c0,0-3.1-4.2-3.4-5.6c0,0-1.7-2.8-2.2-4.1c-0.5-1.3-2.9-5.1-3.5-6.9c-0.6-1.8-2-5.8-2-7.7
	c0-1.9-1-7.1,0.8-9.4c0.9-1.1,1.7-0.4,2.1,0.9c0.4,1.3,0.4,1.5,0.7,1.9c0.3,0.4,0.8,1.1,0.9,1.9c0.1,0.8,1,0.6,1.1,1.5
	c0.1,0.9,0.2,1,0.7,1.6c0.5,0.6,0.8,0.8,0.8,1.6c0.1,0.9,0.4,1.3,0.9,1.7c0.5,0.4,0.6,0.2,0.8,1c0.2,0.8,0.5,1.2,0.9,1.5
	c0.4,0.3,0.7,0.6,1.1,1.3c0.4,0.7,1.4,2.8,1.9,3.4c0.4,0.6,0.8,0.2,1.2,1.3c0.4,1.1,0.5,0.2,1,1.3c0.4,1.1,0.3,1,1,1.6
	c0.7,0.6,1,0.9,1.3,1.5c0.3,0.6,0.5,1,1.2,1.6c0.8,0.6,1.3,1,1.4,1.8c0.1,0.8,2,4.7,2.5,4.4c0.5-0.4,0.8-1.1,1.2-0.6
	c0.4,0.4,1.8,2,1.9,2.7c0.2,0.7,0.6,1.1,0.9,0.5c0.2-0.6,1.7,0.6,2.1,1.2c0.4,0.6,0.8,0.8,1.3,1.2c0.5,0.4,1.9,0.6,2.7,2
	c0.8,1.3,1.5,2.6,2.1,3.5c0.6,0.9,2.4,3.7,4.4,5.1c2,1.4,6.9,4.7,8.2,5.9c1.3,1.2,3.6,3.8,4.7,5.1c1.1,1.3,2.4,3.5,3,3.6
	c0.6,0,0.6-1.1,0.7-1.2c0.1,0,0.8-2.7,2.7-2c1.8,0.7,5.7,5.2,6.1,6c0.4,0.8,0.8,1.2,1.8,1.8c13,7.9,26.8,17.1,28.8,18.4
	c0,0,1,0.3,1.2-0.1c0.2-0.3,0.6-0.4,1.1-0.2C369.8,431.8,371.7,433,371.7,433z M352.7,437.6c0,0,9.3,8.4,19.7,10c0,0,1.8-1.8,4.1-2
	c0,0,0.1-1.6,0.7-1.9c0.5-0.3-2.1-0.3-3.3-1c0,0-4.6,2-8.5-1C365.3,441.6,358.6,441.1,352.7,437.6z M470.2,443.9
	c0.1,0.9,0.7,0.5,1.2,0.2c0.5-0.3,0.6-0.4,1.8,0.1c1.2,0.5,1.5-0.4,1.8-0.7c0.3-0.3,1.2-0.8,1.9-0.6c0.8,0.1,2-0.4,2-0.4
	s6.4-4.7,7.4-5.6c0.9-0.9-2.6-0.1-4.2,0.5c-1.6,0.6-1.6,1.2-3.1,2.2c-1.5,1-3.8-0.1-4.2-0.2c-0.4-0.2-0.4-0.6-0.8,0.7
	c-0.4,1.2-2.5,1.4-3.5,1.4c-1,0.1-0.6,1-0.6,1S470.1,443,470.2,443.9z"/>
</svg>
