<?xml version="1.0" encoding="utf-8"?>
<!-- Generator: Adobe Illustrator 21.0.2, SVG Export Plug-In . SVG Version: 6.00 Build 0)  -->
<svg version="1.1" id="Layer_1" xmlns="http://www.w3.org/2000/svg" xmlns:xlink="http://www.w3.org/1999/xlink" x="0px" y="0px"
	 viewBox="0 0 864 864" style="enable-background:new 0 0 864 864;" xml:space="preserve">
<style type="text/css">
	.st0{stroke:#000000;stroke-width:0.5;stroke-linecap:round;stroke-linejoin:round;stroke-miterlimit:10;}
</style>
<path class="st0" d="M558.5,196.1c0,0,0.3-0.6-0.4-0.5l-0.6,0.1c-27.2,7.7-69.2,49.3-97.2,81.5c-12.2,14-17.6,23.2-19.9,28
	c-0.9-0.2-1.6-0.3-1.6,0c-0.2,0.7-0.6,1.5-1.3,1.2c0.5-10.9,3.9-22.7,3.9-22.7c-2.9,5.2-4.2,13.4-4.8,19.3
	c-0.9-11.1,2.6-21.1,2.6-21.1c-3.5,5.9-3.9,17.7-3.9,23.2c-0.4-0.1-0.7-0.1-0.9,0.3c-0.1,0.3-0.2,0.5-0.4,0.7
	c-0.9-9.1,1.2-21.3,1.2-21.3c-2.4,11-2.6,18-2.4,21.8c-0.1,0-0.1,0-0.2,0c-2.5-9.4-2.8-20.9-2.8-20.9s0.8-10.1-0.2,0.3
	c-0.7,7.7,1,16,1.9,19.8c-1-0.9-1.4-1.2-1.8,0c-0.1,0.3-0.2,0.5-0.5,0.6c-2.7-5.4-7.6-13.7-16.4-25.1c-13.4-17.3-30.3-37.3-47.2-54
	c-0.6-2.8-1.5-5.2-3.1-6.9c-4.9-5.5-4.2-2.1-4.1-1c0,0.3,0.1,0.8,0.3,1.4c-13.7-12.7-27.1-22.6-38.2-26.5l-0.6-0.2
	c-0.8-0.1-0.5,0.5-0.5,0.5c11.7,4.1,25.5,15,39.6,28.8c0,0.9,0,1.9-0.3,2.9c-0.8,3-1,9.4-1.3,12.2c-0.2,2.8-2.6,12.7-2.1,18.3
	c0.5,5.6,1.9,24.1,1.4,25.3c-0.5,1.2-3.3,1.4-4.1-1.5c-0.8-2.9-1-11.3-4.3-14.1c-3.3-2.8-4.3-12.9-4.7-17.2c-0.3-4.3-1.2-8-3-12.6
	c-1.9-4.5-1.7-11.6-1.3-15.9c0.1-1.2-6.6,3.7-6.5,10.1c0.1,6.4-0.1,14.5,0.6,18.5c0.7,4.1,2.7,26.5,2.7,30.4c0,4,1.9,21.1,4.7,31
	c2.8,9.9,7.1,22,10.4,23.4c3.3,1.4,4.4,1.3,4.4,1.3s-1.9,2.7-1.3,4c0.6,1.3,2.7,4.7,3.7,6.3c1.1,1.6,2.2,2.3,4,2.4
	c1.7,0.1,2.2,2.3,1.7,2.7c-0.5,0.3-2.7-0.1-1.6,1.7c1,1.9,2.6,4.2,5.2,6.4c2.7,2.2,12.9,11,12.9,11s-8.6,8.4-10.1,11.4
	c0,0-3.6,1-6.6,4.5c-3,3.5-4.1,7.2-3.6,8.5c0.5,1.3,0.8,1.7,0.5,2.8c-0.3,1,0.8,0.6,2.1,1.9c1.3,1.3,17.1,14.9,34.5,16.5
	c0,0,0.2,5.4,2,10.6c0,0-8.4-2.4-9.9-1.7c-1.5,0.7-6.3-0.6-11.3-2.2c-5-1.6-21.4-7.3-23.8-8.6c-2.3-1.3-4.5-0.6-4.5-0.6
	s-8.3-4.7-13.1-3.6c-4.8,1-16,3.7-20.2,9c-4.2,5.2-1.3,13.6-0.6,14.2c0.7,0.6,2.4-0.6,3.8-3.3c1.4-2.7,2.1-8.3,11-10.6
	c8.9-2.3,6.6,0.1,8.5,0.5c1.9,0.3,5.7,1,6.2,1.9c0.5,0.8,1.6,2.4,4.3,2.9c2.7,0.5,16.2,2.8,19.6,3.6c3.4,0.8,16.2,3.8,18.5,3.7
	c2.3-0.1,3,1,5.7,1.4c2.7,0.3,7.2,0.3,7.2,0.7s2.3,7.6,3.1,8.6c0,0-2.3,2-4.4,2.4c-2.1,0.5-4.4,0.5-5.4,0.1
	c-0.9-0.3-2.2,0.7-2.2,0.7s-24.6,0.6-34.5-0.5c-2.1-0.2-3.8,0.9-3.8,0.9s-3.7-1.5-9.2,1.5c-5.5,3-6.5,6.5-6.5,6.5
	s-16.3,17.8-17.2,19.6c-0.9,1.7,0.2,1.7,0.2,1.7s-3.5,1.9-1.7,14c0,0,1.4,0.9,1.4-1.5c0-2.4-0.2-5.9,2.4-9.2c0,0,1.6,3.5,2.3,2.6
	c0.7-0.9,0.8-0.3,2.6-2.1c1.7-1.7,2.3-3.8,2.7-2.9c0.3,0.9,2.1,6.8,4.2,9.1c0,0-0.7,1,1.9,1.5c2.6,0.5,27.2,0.5,30.4-0.3
	c3.3-0.8,10.3-6.6,11.1-7.6c0.8-0.9,1.6-0.1,4-1.3c2.3-1.2,10.3-7.7,14.3-10c4.1-2.3,4.7-2.8,7.6-3.8c2.9-1,6.4-2.6,5.5-0.8
	c-0.9,1.7-2.9,3.7-3.8,8.3c-0.9,4.5-1.6,7.2-0.3,8c1.3,0.8,3.8,2.4,3.8,2.4s-1.5,3.5-1.7,5.4c-0.2,1.9-0.5,7.7,0.6,7.8
	c1,0.1,4.9,0.6,4.1,1.6c-0.8,1-3.1,4.2-3.5,6.2c-0.3,2-1.4,6.2-0.7,7c0.7,0.8,3.5,2.4,5.4,2.7c0,0-3.3,5.4-2.6,7.9
	c0.7,2.6,3.5,2.4,3.5,2.4s-2.8,2.6-2.7,4.2c0.1,1.6,1,3.1,2.4,3.4c0,0-0.3,1.9-3.1,2.1c-2.8,0.2-13.6,3.3-21.4,12.9
	c-7.8,9.7,4.5,29.7,20.7,23.8c0,0,9.2,7.6,17.5-1.5c0,0,7.9,8,17.6,1c0,0,11.5,6.6,16.4,0.1c0,0,11.3,4,18.3-3.9
	c7-7.9,3.8-19.4-1.9-24c-5.8-4.6-9.8-5.8-16.2-6.9c0,0-0.7-2.1-3.5-3.4c0,0,2.6-0.8,2-3.3c-0.6-2.5-5.1-5.2-5.1-5.2s6.5-0.1,6.9-2.9
	c0.4-2.9-1.7-5.5-5.1-8.4c0,0,6.7-0.5,6.4-4.3c-0.4-3.8-1.4-6.3-4.1-9.4c0,0,5.9,0.1,6.2-3.7c0.3-3.8-2.2-7.6-4-9.4
	c0,0,5.9-2.9,5.7-4.9c-0.2-2-0.5-7.1-3.6-12.8c0,0-1.3-1.8,0.5-2c1.9-0.2,4.8-0.5,5.8,0.1c1.1,0.6,14,8.2,15.6,9.3
	c1.7,1.1,4.2,2.8,4.7,2.3c0.5-0.5,1.3-1.1,2.2-0.3c0.8,0.8,6.6,6.3,8.1,7.5c1.5,1.1,2.7,0.3,3.4,0.8c0.7,0.5,4.3,2.3,6.6,2.6
	c2.3,0.4,18.2,4.1,22.3,5c4.1,0.8,7.6,1.9,9.3,0.9c0.6-0.4,0.5-1.3,0.5-1.3s5.7-4.6,4.3-10.3c0,0-0.2-0.5-0.7,0.2
	c-0.5,0.7-4.3,5.2-5.5,5.7c0,0-0.4-2.2-2-2.3c-1.6-0.1-3.2,0.2-9.1-0.5c-5.9-0.7-18.3-3.8-21.4-4.3c-3.1-0.5-2.8-2.3-4.9-4
	c-2.1-1.7-5.5-4.3-8.2-5.7c0,0-0.1-0.4-1-1.3c-0.9-0.8-2.6-0.9-3.7-1.3c-1.1-0.4-13.7-5.1-17.9-7.1c-4.3-2-3.8-1.2-3.8-1.2
	s-2.6-1-4.5-0.4c-1.9,0.6-3.1-0.5-3.5-1.1c-0.4-0.7,6-6.8,5.7-10c0,0,6.9-0.4,9.4-2.1c0,0,1.2,0.7,5.4,0.8
	c4.2,0.1,15.8-0.4,18.4-0.2c2.6,0.2,3.4-0.2,3.4-1.6c0,0,12.5,0.5,14,1.1c1.5,0.5,2.2,1.4,2.8,0.8c0.6-0.6,12.7,4.4,15.4,5.2
	c2.7,0.8,10.5,4.4,11.6,5.2c1.1,0.8,1.8,0.5,2.3-0.4c0.5-1,3.2,0.4,4,1c0.8,0.5,2,2.2,2,2.6c0,0.4,1.3-0.5,0.7-2.3
	c-0.6-1.8-1.9-5.5-4.5-7.3c0,0-0.1-1-1.2-1.5c-1.1-0.5-16.5-5.6-18.5-6.8c-2-1.2-7.8-3.1-7.8-3.1s-0.7-1.4-1.5-1.7
	c-0.8-0.3-16.1-1.5-19.5-1c-0.7,0.1-1.4,0.3-2.1,0c-0.7-0.3-2.2-0.6-4.5-0.2c-2.3,0.4-15.8,2.8-18.6,2.8c0,0-0.8-1.4-1.4-1.5
	c-0.7-0.1-5.2,0.7-6.4,1.7c0,0,3.8-10.3,3.8-14.9c0,0,2.9-0.8,3.7-1.1c0.7-0.3,1.3-0.8,1.3-1c0.1-0.2,5.5-0.5,19.8-7
	c14.3-6.4,19.6-10.7,20.4-11.6c0.8-0.9-0.4-2.1-0.4-2.1s1.6-0.7,2-2.4c0.4-1.7,0.8-9.6-2.3-14.2c0,0-4.9-9.9-12.9-14.3
	c0,0-3.1-5.8-6.7-10.5c0,0,2.9-1.6,3.7-2.6c0,0,5.7-2,5.8-6.3c0,0,0.5-0.7-2.4-0.7c0,0-1.4,0.1,0.1-1c1.4-1.1,6.6-6.7,9.2-9.7
	c2.6-3.1,1-5.9-1.1-7.2c0,0,1.9,0.9,7.3-2c5.5-2.9,8.2-12.8,10.6-19c2.5-6.2,7.4-27.7,7.7-33c0.3-5.6,6.3-39.7,3-52.2
	c-0.9-3.4-3.1-6.1-4.6-6.9c-1.6-0.8-1.1,0.7-1,1.3c0.2,0.6-1,3.1-0.8,3.7c0.3,0.6-0.7,3.6-0.5,4.3c0.2,0.7-2.5,9.4-2.1,11
	c0.4,1.7,0.1,5.4-0.3,6.6c-0.4,1.1-1.5,7.3-2.2,9.3c-0.7,1.9-1.1,2.5-1.4,3.8c-0.3,1.3-0.6,3.1-1.4,3.6c-0.8,0.4-1.3,1.6-1.2,2.3
	c0.1,0.7-1.8,2.5-1.6,3.5c0.2,1-0.1,2.6-0.5,3.2c-0.4,0.6-3.5,7.7-4.3,8.2c-0.8,0.5-0.4-0.3,0.1-1.6c0.4-1.2,3.1-6.8,3.4-8.2
	c0.3-1.4,0.4-3.2,1.2-5.1c0.8-1.8,2.9-6.5,3.5-9.1c0.6-2.6,3.1-14.6,3-17.1c-0.1-2.5,1.1-9.4,1.3-11.5c0.2-2.2,0.6-5.3,1.8-7.2
	c1.2-1.8-2.3-0.9-4.3,0.4c-2,1.3-3.1,2.1-4.8,6.6c-1.7,4.5-5.1,17.1-5.9,19.8c-0.9,2.6-6.4,16.9-7.3,18.6c-1,1.7-4.4,9.4-4.5,10.9
	c-0.1,1.5-0.9,2.5-0.3,3.3c0.6,0.8,0.4,1.2,0.1,1.8c-0.3,0.6-1,1.6-0.7,2.4c0.3,0.9-1,1.7-1.8,2.1c-0.8,0.4-4.4-0.9-5.5,0.6
	c-1.1,1.5-7.1,11.3-6.7,18.8c0.3,7.5,0.9,9.8,2.7,10.1c1.8,0.3,2.7,1,3.1,1.7c0.4,0.8,1.7,3.4,0.6,3.7s-1.1-1-3-1.1
	c-1.8-0.1-2.7-0.2-3.1,1.1c-0.3,1.3-1.6,6.3-2.5,6.9c-1,0.6-1.3,0.7-1.4,1.9c-0.1,1.2-2.7,7.3-2.8,8.6c-0.1,1.2-1.9,2.1-2,3.8
	c-0.1,1.7-0.9-1.1-0.9-2.4c0-1.3-0.4-2.5-1.7-0.4c-1.3,2.2-3.8,6.3-4,6.7c-0.3,0.4-3.8-0.9-5.2-0.2c-1.4,0.7-3,2.5,0.7,6.4
	c0,0,0.3,2.6-0.5,2.8c-0.8,0.2-1,0.1-0.8,0.9c0.2,0.8-0.4,1.5-1,1.2c-0.6-0.3-0.7,0.6-0.5,1.3c0.2,0.7-0.4,4.5-1.3,0.8
	c-0.9-3.8-0.6-3.4-1.1-5.1c-0.5-1.7-5.3-16.6-8.8-20.2c0,0-1-0.4,0.3-2.5c1.2-2.1-0.7-2.2-1.1-2c-0.4,0.2,0.7-2.1-0.2-3.6
	c-0.9-1.5-1-2.3-1.1-4.3c-0.1-2-2.1-2.9-2.4-4.5c-0.3-1.7-2.7-3.1-2.4-4.2c0.3-1-1.4-6.1-3-7.4c0,0-2.6,6.6-3.5,7.6
	c-0.9,1,0.3-6.7-0.5-8.3c0,0-0.7,1.8-1.5,1.5c-0.1-0.1-0.4-0.2-0.7-0.3c2.4-4.8,7.9-13.9,19.8-27.6
	C491,246.3,531.3,203.8,558.5,196.1z M424.3,307.3c-0.2,0.9-1.7-3.9-2.4-1.8c-0.6,2.1-4.5,17-6.2,18.2c-1.7,1.1-4-0.3-4.4,2.5
	c-0.4,2.8,2.2,4.9,2.2,4.9l-2.6-0.3c0,0-0.5,0.2,0.2,1.5c0.7,1.3,2.1,2.4,0.5,3.4c-1.6,1-1.4,2-2,3.4c-0.6,1.4-4.2,13.1-4.9,15.4
	c-0.7,2.3-1.5,3.6-1.4,8.5c0,0-11.5-14.9-14.1-22.4c-2.6-7.5-2.1-0.6-2.1-0.6s-0.9,5.2-2.7-0.2c-1.7-5.5-3.1-12-4.2-12.8
	c-1-0.8-0.7,1.7-1.6,1.5c-0.9-0.2-3.1-3-3.8-2.3c-0.7,0.7-4.3,0.1-2.6-2.2c1.7-2.3,4.9-1.7,6.9-4.3c2-2.6,1-1.3,1.6-5.2
	c0.6-4-2.7-16.5-5.9-22.3c-3.3-5.7-4.3-2.6-4.3-2.6s-1.9,0.2-1.4-2c0.5-2.2,1.7-4,1.3-9.1c-0.5-5.1-2.7-20.3-3.4-30.3
	c-0.4-5.7-0.2-12.2-0.9-17.8c15.6,16.3,31.1,35.4,43.8,51.8c8.6,11.1,13.5,19.3,16.2,24.7C425.5,306.8,424.5,306.5,424.3,307.3z
	 M371,392c0,0,2.3-2.2,2.9-3.4c0.6-1.2,8.7-7.3,12.1-11.7c0,0,8.5,6.2,11.3,7.6c0,0-2.8,13.2-1.8,22.1c0,0-10-1.5-15.3-5.9
	C374.7,396.2,371.9,392.6,371,392z M332,473.9c0,0,10.8-14.2,14.8-16.9c3.9-2.7,5.9-2.8,6.6-2.4c0.6,0.3,1.4,0.2,3.6,0.2
	c2.2,0,9-1.7,14.2-1.4c5.2,0.4,17.9-1.1,19.6-1.6c1.7-0.4,2.7,0.5,4.5,0.6c1.8,0.1,11.3-1.8,11.9-1.5c0.6,0.4,1.6,2.4,2.4,3.1
	c0,0-4.9,1.9-6.9,2.4c-2,0.5-5.4,0.8-6.7,2c-1.3,1.2-4.7,4.3-7.8,5.7c-3.1,1.4-9.4,5.2-12.4,6c-3.1,0.8-1.6,2.4-1.6,2.4
	s-6.8,3.6-10.1,8.2c0,0-12.5-0.5-17.1-0.2c-4.6,0.3-9.4-0.3-10.8-0.7c-1.3-0.4-0.7,0.4-0.7,0.4S332.3,475.7,332,473.9z M473.8,382.6
	c0,0,10.9-7.3,14.4-12.1c0,0,1.6,2.7,7.5,3.3c0,0-0.7,2.1-1.1,2.5c-0.4,0.4-1.8,1-3.2,2.8c-1.4,1.8-3.9,7.9-16.6,15.3
	C474.9,394.5,474.4,384.9,473.8,382.6z M474.3,404.2c0,0,13-7.2,20.6-15.2c1.4-1.5,3.6-4.5,5.6-5.6c2-1.1,1.5-2.7,0.8-3.5
	c0,0,2.1-1.7,2.1-3c0,0,6.3,6.9,7.5,9.6c1.2,2.7,0.8,2.9,1.4,3.9c0.7,1,2.2,5.2,1.4,6c-0.8,0.8-10,7-12.7,8.3
	c-2.7,1.3-7.6,4-16.7,6.7c-0.6,0.2-8.1,2.8-8.1,2.8s-1.1-1.5-1.9-0.7C473.6,414.3,474.5,409.4,474.3,404.2z"/>
</svg>
