<?xml version="1.0" encoding="utf-8"?>
<!-- Generator: Adobe Illustrator 21.0.2, SVG Export Plug-In . SVG Version: 6.00 Build 0)  -->
<svg version="1.1" id="Layer_1" xmlns="http://www.w3.org/2000/svg" xmlns:xlink="http://www.w3.org/1999/xlink" x="0px" y="0px"
	 viewBox="0 0 864 864" style="enable-background:new 0 0 864 864;" xml:space="preserve">
<style type="text/css">
	.st0{stroke:#000000;stroke-width:0.5;stroke-linecap:round;stroke-linejoin:round;stroke-miterlimit:10;}
</style>
<path class="st0" d="M341.8,404.3c0,0-9.2-6.6,1.6-16.2c10.9-9.6,28.7-32.6,28.7-38.9c0-6.3-1-17.5-2.6-18.5
	c-1.6-1-6.6-8.6,4.3-14.5c10.9-5.9,21.1-14.8,21.4-24.1c0.3-9.2-4-16.1,4-22.4c7.9-6.3,14.5-12.2,14.2-19.1
	c-0.3-6.9-4.6-7.3,1.7-12.9c6.3-5.6,9.9-8.9,8.9-14.5c-1-5.6,3.6-6.9,7.9-11.9c0,0-2.3-5.3,3.3-8.6c0,0,4.5-2.7,3.7-5.7
	c-0.7-3-0.2-2.7,2.2-4.2c2.5-1.5,0.5-3.7,2-5.2c1.5-1.5,1.7-6.2,3.7-9.1c2-3,3.2,4.4,4.5,5.7c1.2,1.2,3,4.7,2.2,6.2
	c-0.8,1.5,3.7,2.2,3.2,5.9c-0.5,3.7-0.5,4.9,1.5,6.9c2,2,1.2,4.2,0.7,6.2c-0.5,2-0.2,4.5,2.5,5.4c2.7,1,3.2,2,2,6.7
	c-1.2,4.7-1.7,9.9,2,11.1c3.7,1.2,7.4,3.7,6.2,8.4c-1.2,4.7-3.5,11.4,0.3,16.3c3.7,4.9,11.4,6.2,9.4,12.6c-2,6.4-4.2,11.9-4.4,17.3
	c-0.3,5.4-0.7,16.6,5.9,18.5c6.7,2,10.6,3,10.9,7.4c0.2,4.4-5.4,5.9-4.7,12.6c0.7,6.7,4.2,28.2,11.4,37.1c0,0,9.1-0.2,11.1,4.7
	c2,4.9,1,11.9-2.5,14.1c-3.5,2.2-1,2.7,0,4c1,1.2,0.7,3.2-0.7,5.2c-1.5,2-2.5,1.2-1.5,4.9c1,3.7,0.5,4.5-0.5,6.7c-1,2.2-1.2,3,0,5.2
	c1.2,2.2-0.2,10.6-1.7,14.3c-1.5,3.7,6.4,14.8,10.4,17.1c4,2.2,11.4,9.9,11.1,13.1c-0.3,3.2-4.9,11.6-3.7,14.6
	c1.2,3-1.2,3.7-2.2,6.7c-1,3,2.2,4.7,1.7,8.9c-0.5,4.2-5.2,5.7-3.7,9.6c1.5,4-5.7,7.7-5.7,9.4c0,1.7-0.7,5.2-3.5,7.9
	c-2.7,2.7-7.4,7.9-7.9,10.9c-0.5,3-6.4,5.7-5.7,8.7c0.7,3-6.4,5.9-5.9,8.4c0.5,2.5-8.9,7.4-7.7,9.1c1.2,1.7-8.9,6.7-8.2,8.7
	c0.7,2-7.4,5.7-7.2,9.1c0.2,3.5-9.9,5.4-8.2,9.6c1.7,4.2-7.2,6.7-4.9,8.9c2.2,2.2-5.9,5.2-4,6.9c2,1.7-2.7,5.9-2.2,8.4
	c0.5,2.5-3.9,15.8-5.2,25.7c-1.2,9.9-10.9,13.6-14.8,14.1c-4,0.5-18-10.6-21-17.3c-3-6.7-6.4-11.9-10.1-18.5
	c-3.7-6.7-7.9-11.1-9.9-18.3c-2-7.2-2.5-7.7-3-13.8c-0.5-6.2-1.2-4.7-3.5-9.4c-2.2-4.7-1.5-13.3-1.5-13.3s-2.5,0.2-1.5-10.9
	c0,0-5.9-2-2.5-11.9c0,0-4.2-4.7-1-10.1c0,0-2.5-6.9-1-9.9c0,0-5.4-4.7-2-9.6c0,0-4.7-6.9-4-9.9c0,0-2.5-1.2-2.7-6.2
	c0,0-6.9-0.7-7.7-11.6c0,0-8.4-7.4-4-13.1c0,0-11.9-3.5-4.7-12.9c0,0-11.4-3.7-5.2-11.6c0,0-6.7-6.2-0.5-10.1c0,0-5.9-4.7-3.9-9.9
	C339.4,404.4,341.8,404.3,341.8,404.3z"/>
</svg>
