<?xml version="1.0" encoding="utf-8"?>
<!-- Generator: Adobe Illustrator 21.0.2, SVG Export Plug-In . SVG Version: 6.00 Build 0)  -->
<svg version="1.1" id="Layer_1" xmlns="http://www.w3.org/2000/svg" xmlns:xlink="http://www.w3.org/1999/xlink" x="0px" y="0px"
	 viewBox="0 0 864 864" style="enable-background:new 0 0 864 864;" xml:space="preserve">
<path d="M347.3,207.2c1.7-4.2,22.3-29.6,23.5-26.5c0,0,3.9,7.4,2.2,15.7c-1.7,8.3-8.8,18.9-16.2,23.7c-7.3,4.9-6.6,5.4-3.7,8.1
	c2.9,2.7,2.2,7.7,8.6,4.9c5.3-2.3,31.8-10.2,57.8-2c4.7,1.5,7.6-1.2,7.6-1.2s5.9-4.9,3.4-7.1c-2.4-2.2-22.7-15.1-20.6-29.9
	c2.2-14.9,1.7-16.7,7.1-10.8c0,0,6.4,5.1,10.8,11.5c5.3,7.5,9.1,16.6,11.9,17.9c5.1,2.4,16.9,4.9,17.6,11.5
	c0.7,6.6-1.2,11.8,6.1,18.4c7.3,6.6,9.8,27.2,33,37c23.3,9.8,38.2,11.8,64.1,39.4c26,27.7,51.2,47.5,63.4,53.9
	c12.2,6.4-8.1,2.2-15.7-0.5c-7.6-2.7-58.8-15.9-104.3,11.5c-25.8,15.5-54.3,42-79.6,58.2c-19.3,12.4-39.2,17-39.2,17
	s-0.6,6.8-0.8,16.2c-0.7,31.1-1.6,97.5-1.6,97.5s-0.5-73.9-1-102.6c-0.1-6.9-0.9-11.3-0.9-11.3s-17.9,0.5-56.8-36.3
	c-38.9-36.7-88.3-66.2-133.4-53.4c-57.4,16.2-19.3-0.7-7.3-10.5c12-9.8,33.8-30.9,44.1-41.9c10.3-11,26.2-22.5,47.7-30.6
	c21.5-8.1,29.6-16.4,34.8-25.7c5.1-9.3,7.3-14,12-18.9c4.6-4.9,4.6-14.4,6.1-18.1c1.5-3.7,6.1-5.6,12.7-8.3
	C345.1,212.3,345.6,211.3,347.3,207.2L347.3,207.2z"/>
</svg>
