<?xml version="1.0" encoding="utf-8"?>
<!-- Generator: Adobe Illustrator 21.0.2, SVG Export Plug-In . SVG Version: 6.00 Build 0)  -->
<svg version="1.1" id="Layer_1" xmlns="http://www.w3.org/2000/svg" xmlns:xlink="http://www.w3.org/1999/xlink" x="0px" y="0px"
	 viewBox="0 0 864 864" style="enable-background:new 0 0 864 864;" xml:space="preserve">
<path d="M542.2,689.7c3.1-10.7,0.4-15.6-11.8-45.7c-12.3-30.1-19.2-76-23.9-93.2c-4.7-17.2-11.4-80.7-29.4-118.9
	c-18.1-38.1-33-37.7-28.3-43.3c4.7-5.6,7.9-13.6-1.5-24.8c0,0-8.7,2-4.4-16.2c4.4-18.2,46-43.3,30.1-103.5
	c-15.9-60.2-71.2-106.8-109-30.1c-29.3,59.4,7.5,97.5,20.2,120.1c17.3,30.7,18.2,25.4,11.9,27.3c-6.3,2-13.1,8.7-8.3,18.6
	c4.8,9.9,5.9,8.7,1.2,14.3c-4.7,5.5-46,69.7-44,89.1c2,19.4-8.3,72.5-15.1,90.3c-6.7,17.8-11.1,51.5-14.7,57.4
	c-3.6,5.9-21.8,22.6-26.2,23.8s4.8,2.4,12.3-2c7.5-4.4,23.8-28.1,24.6-42.8c0.8-14.7,26.2-65.8,29.7-89.5
	c3.6-23.8,6.7-30.5,6.7-30.5S351,573.8,345,587.7c-5.9,13.9-12.3,34.5-16.7,46c-4.4,11.5-7.5,24.2-12.3,26.9
	c-4.8,2.8,7.5,4,13.9-12.7c6.3-16.6,9.5-29.7,15.9-41.2c6.3-11.5,14.7-45.6,18.2-56.6c3.6-11.1,16.5-75.1,20.5-93.3
	c4-18.2-3,58.8-5.8,78.2c-2.8,19.4-2.4,43.6-2.8,55.1c-0.4,11.5-1.2,21.4-2.8,28.1c-1.6,6.7-12.7,41.6-32.1,57.4
	c-19.4,15.9-38,22.6-51.1,27.3c-13.1,4.8,2,3.6,15.5-1.6c13.5-5.1,43.6-21.8,48-28.5c4.4-6.7,17.4-28.9,17.4-28.9s4,13.5-2.8,21.8
	c-6.7,8.3-12.1,15.9,3.2,6.3c6.3-4,7.1-23.8,8.3-32.5c1.2-8.7-1.6-18.2,2.4-25.3c4-7.1,21.4-70.9,24.6-103.4
	c3.2-32.5,4.7-34.9,4.7-34.9s1.4,18.8,1.8,52.1c0.4,33.2-7.1,86.7-3.6,99.9c3.6,13.2-0.2,29.4,1.8,37c2,7.6,1.1,19.6-6.2,22.8
	c-7.4,3.1-17.4,9.6-19,8.7c-1.6-0.9-4.5,6,9.4,1.6c13.8-4.5,22.1-9.1,22.1-24.8c0-15.6-1.8-25,0.5-37.5c2.2-12.5,5.6-62.9,8.5-87.4
	c2.9-24.5,8.7-81.4,9.1-89.7c0.4-8.2,5.3-2.4,5.6,7.6c0.2,10-2.7,10.3-1.5,26.1c1.1,15.8,4,78.1,8.9,99c4.9,21,2.2,26.3,6,39.5
	c8.4,29.2,16.5,49.7,16.5,49.7s-1.3,13-2,17.7c-1.1,7.4-4.2,30.1,0.2,28.8c4.5-1.3,0.4-17.4,3.6-27c3.1-9.6,3.6-10.7,3.6-10.7
	s22.1,33.8,29.7,30.8c2.2-0.9-18.5-22.5-21.4-29c-2.9-6.5-6-8.5-6-18.1s4-13.2,2.2-32.8c-1.8-19.6-3.3-61.8-3.3-70
	c0-8.2-6-39.5-8.5-50.6c-2.4-11.2-4-35.2-4.5-42.2c-0.4-6.9,0-19.4,3.1-5.6c3.1,13.8,1.1,19.2,10.3,44.6
	c9.1,25.4,16.7,46.4,28.3,83.4c11.6,37,31,68,29.7,78.3c-1.3,10.3,4,26.3,13.8,29C559.6,709.8,539.1,700.4,542.2,689.7z
	 M470.8,594.1c3.4,20.4,4.3,51.6,4.3,56.4s-1.4,15.6-1.4,15.6s-8.9-14.6-10.3-39.1c-1.4-24.5-7.2-50.7-2.9-68.2
	C460.5,558.9,467.5,573.7,470.8,594.1z"/>
</svg>
