<?xml version="1.0" encoding="utf-8"?>
<!-- Generator: Adobe Illustrator 21.0.2, SVG Export Plug-In . SVG Version: 6.00 Build 0)  -->
<svg version="1.1" id="Layer_1" xmlns="http://www.w3.org/2000/svg" xmlns:xlink="http://www.w3.org/1999/xlink" x="0px" y="0px"
	 viewBox="0 0 864 864" style="enable-background:new 0 0 864 864;" xml:space="preserve">
<path d="M408.9,375.2c0,0,26.6,8.8,46.5,3.5c19.9-5.3,95.2-12.4,113.1-3.8c17.9,8.6,16.7,9.5,27.7,5.1c11-4.4,21.7-6.1,17.7-1.8
	c-3.9,4.3-4.4,4.3,0.7,9.9c5.2,5.7,1.7,10.6,9.2,15.5c7.5,4.9,15.1,8.7,1.6,7.9c-13.5-0.9-27.9-11.1-38.2-15.4
	c-10.3-4.2-19.2,4.3-36.3,9.5c-17.1,5.2-55.5,24.7-105.5,41.4c-50,16.8-122.3,10.6-122.3,10.6s9.6,9,4.7,16.5
	c-4.9,7.5-3,9.4-23.2,1.5c0,0,7.6,38.2-14,28.5c-9.1-4.1-19.5-12.8-25.2-26.8c-7.8-19.2-9.2-37.6-9.2-37.6s-42.8-21.5-54.2-37.3
	c-11.4-15.8-14.9-18-2.1-23.2c12.8-5.2,2.2-15.5,40.5-15.4c38.2,0.1,34.8,5,54.4,1.9c19.6-3.2,51.2,5.2,57.5,2.9
	c6.4-2.3,14.6-21.3,16.4-37.4c1.8-16.1,20.6-40.6,17.5-22.6c-3.2,18.1,7.1,34.3,11.6,44.2C402.5,362.9,405.7,374.8,408.9,375.2
	L408.9,375.2z"/>
</svg>
