<?xml version="1.0" encoding="utf-8"?>
<!-- Generator: Adobe Illustrator 21.0.2, SVG Export Plug-In . SVG Version: 6.00 Build 0)  -->
<svg version="1.1" id="Layer_1" xmlns="http://www.w3.org/2000/svg" xmlns:xlink="http://www.w3.org/1999/xlink" x="0px" y="0px"
	 viewBox="0 0 864 864" style="enable-background:new 0 0 864 864;" xml:space="preserve">
<path d="M369.7,391.2c0,0,3.8-36.9,10.9-54.2c7.1-17.3,19.9-39.5,17.3-28.6c-2.6,10.9-4.8,16.7-0.3,25s4.2,24.7,8.7,33.7
	c4.5,9,18.6,18.6,26.6,23.4c8,4.8,16.7,7.4,26.6,9.3c9.9,1.9,84.4,9.6,110.4,9.6c26,0,38.5,8.7,48.4,3.8c9.9-4.8,9.9,1.3,12.2,4.2
	c2.2,2.9,14.4,8,21.2,2.6c6.7-5.5,53.3-55.8,71.9-63.5c18.6-7.7,22.1-4.8,15.1-0.3c-7.1,4.5-40.1,26.6-41.1,62.2
	c-1,35.6,9,64.5,21.2,78.3c12.2,13.8,29.5,21.2,15.4,18.9c-14.1-2.3-53.3-45.6-61.9-54.2c-8.7-8.7-16.4-15.4-26.6-14.1
	c-10.3,1.3-23.7,2.9-22.1,4.5c1.6,1.6,10.9,2.9,0,6.7c-10.9,3.8-6.7,4.8-6.7,8c0,3.2-7.7-9-23.1-5.1c-15.4,3.9-40.1,14.4-39.1,25.4
	c1,10.9,22.1,27.3,23.1,29.2c1,1.9-16.4,3.5-27.6-8.3c-11.2-11.9-19.9-27-32.7-26.6c-12.8,0.3-98.2,9.3-111,8.7
	c-12.8-0.6-4.3,10.1,5.1,26c9.9,16.7,23.1,34.3,18.3,33.7c-10.2-1.4-14.4-4.8-20.5-10.6c-6.1-5.8-1.3,0.3,2.6,7.4
	c3.9,7.1-4.8,1.3-15.7-9.3c-10.9-10.6-17-30.2-20.9-36.3c-3.8-6.1,1.3-12.8-4.2-13.5c-5.5-0.6-9.9-3.2-18.9,1
	c-9,4.2-27.9-3.5-48.4-10.9c-20.5-7.4-24.7-14.4-43.6-16l14.1-3.5L87,441.9c0,0,146.3,6.4,175.2-0.6c28.9-7.1,37.2-10.9,64.2-24.1
	c26.9-13.2,38.6-21.4,40.7-23.3C369.2,392,369.7,391.2,369.7,391.2L369.7,391.2z"/>
</svg>
