<?xml version="1.0" encoding="utf-8"?>
<!-- Generator: Adobe Illustrator 21.0.2, SVG Export Plug-In . SVG Version: 6.00 Build 0)  -->
<svg version="1.1" id="Layer_1" xmlns="http://www.w3.org/2000/svg" xmlns:xlink="http://www.w3.org/1999/xlink" x="0px" y="0px"
	 viewBox="0 0 864 864" style="enable-background:new 0 0 864 864;" xml:space="preserve">
<style type="text/css">
	.st0{stroke:#000000;stroke-width:0.5;stroke-linecap:round;stroke-linejoin:round;stroke-miterlimit:10;}
</style>
<path class="st0" d="M127,312.8c0,0-8.3-3.9,1.6-5.8c9.9-1.9,36.9,2.1,54.8,10.1c17.9,8,74.7,46.2,84.7,51.8
	c10,5.5,32,13.6,73.1,16.7c0,0-9.2-3.5-11.2-5.8c-2-2.3-2.4-9.4-11-15.3c-8.6-5.9,3-5.2,6.5-4.7c3.5,0.5,13.9-1.3,68.2,31.7
	c0,0,77.7,5.4,135.9,25c0,0,7.6-0.4,4.8-10.6c-2.8-10.2-8.1-18.2-17.7-30.1c-3.3-4-1.9-5.8,2.7-4.5c4.7,1.3,39.9,12.3,63.9,66.1
	c0,0,71.7,38.7,119.8,106.4c0,0,7.2,2.7,5.4-2.4c-1.8-5.1-5.3-17.7-1.8-19.6c3.5-1.9,33.8,5.9,38.1,11c4.4,5.1,16.2,21.9,13.5,25.7
	c-2.7,3.8-8,1.8-8.3,9.3c-0.3,7.6-2.7,17.4-6.1,20.5c-3.3,3.1-3.8,9.5-3.1,12.8c0.7,3.4-0.4,11.6-5,15.8c-4.6,4.2-10.4,8.7-20.8,8.4
	c-10.4-0.3-21-1.3-30.7-2.8c-9.6-1.4-14-0.6-15.5,3.3c-1.5,3.9-3.7,4.7-11.5-4.4c-7.9-9.1-14.5-9.4-17.1-18.4
	c-2.6-9-1.1-17.2-3.9-23.3c-2.9-6.2-0.2-10,4.5-6.8c4.7,3.2,23.2,10.5,17.7,1.3c-5.5-9.2-20.6-23.7-33.4-26.5
	c-3.3-0.7-24.9,2.2-37.4,0.7c-12.5-1.4-60.3-2.2-89-17.2c-3.2-1.7-4.8-3,1-6.3c5.7-3.4,17.9-4.6,28.2-5.7c10.3-1.1,13.5-5.6,18.3-6
	c0,0-46.4-24.2-49.1-26.5c0,0-22.8,0.2-32.8-3.2c-10-3.4-5.5-2.8-11.3-8c-5.8-5.2-31-21.1-21.5-20.4c2.1,0.2,5,0.1,5,0.1
	s-36.9-18.5-41.4-20.9c0,0-28.5-0.5-35.7-2.5c-7.2-2-9-6.6-22.3-13.3c0,0-2.9-2.4,8.5-2.2c0,0-43.8-11.9-72-12.3
	c-28.2-0.5-43.8,4.7-66.6-1.7c-3.5-1-12.2-2.6-4.3-8.9c7.8-6.3,15.9-3.3,10.1-16.8C207.1,363,173.3,331.3,127,312.8z"/>
</svg>
