<?xml version="1.0" encoding="utf-8"?>
<!-- Generator: Adobe Illustrator 21.0.2, SVG Export Plug-In . SVG Version: 6.00 Build 0)  -->
<svg version="1.1" id="Layer_1" xmlns="http://www.w3.org/2000/svg" xmlns:xlink="http://www.w3.org/1999/xlink" x="0px" y="0px"
	 viewBox="0 0 864 864" style="enable-background:new 0 0 864 864;" xml:space="preserve">
<path d="M393,276.7c-6.1-12.8-2.9-21.4,13.1-10.7c16,10.7,37.9,44.2,58.8,51c20.9,6.8,97,19.5,121.9,86.9
	c3.4,9.2,7.8,13.3,23.8,24.3c9.2,6.3,4.9,9.7,0.5,10.2c0,0,1.9,7.8-4.9,5.3c-6.8-2.4-57.3-17-79.1-20.4c-21.8-3.4-18-8.3-35-1.5
	c-17,6.8-50.5,34.5-36.9,7.8c13.6-26.7-3.4-23.3-18-24.3c-14.6-1-35-9.2-103.4,18.9c-68.5,28.2-100.5,50.5-110.2,66
	c-9.7,15.5-32,68-36.9,49.5c-4.9-18.5,5.3-16.5-3.4-23.8c-8.7-7.3-11.2-6.8,1.5-18c12.6-11.2,23.3-19.4,30.1-27.2
	c6.8-7.8,31.1-30.6,41.8-68c10.7-37.4,81.9-74.7,130.1-85.5C404.2,313.6,398.4,287.8,393,276.7L393,276.7z"/>
</svg>
