<?xml version="1.0" encoding="utf-8"?>
<!-- Generator: Adobe Illustrator 21.0.2, SVG Export Plug-In . SVG Version: 6.00 Build 0)  -->
<svg version="1.1" id="Layer_1" xmlns="http://www.w3.org/2000/svg" xmlns:xlink="http://www.w3.org/1999/xlink" x="0px" y="0px"
	 viewBox="0 0 864 864" style="enable-background:new 0 0 864 864;" xml:space="preserve">
<style type="text/css">
	.st0{stroke:#000000;stroke-width:0.5;stroke-linecap:round;stroke-linejoin:round;stroke-miterlimit:10;}
</style>
<path class="st0" d="M608.9,553.6c0,0-12.8,6.6-36.8,7.9c0,0-21.5,48.6-58.6,70.7c0,0-4,1.8,0.6-3.5c4.6-5.3,19.1-21.2,25.6-54.7
	c1.5-7.7,5.5-19.7-6.4-44.5c-11.9-24.8-43.8-47.2-43.8-47.2s-5.6-3.7,1.4-2.3c7,1.4,40.1,14.1,69.6,42.6c4,3.8,8.9,6.6,15.3,4.6
	c6.3-2,17.9-2.8,29.9-12.2c0,0-5.8-2.4-13.3-3.2c0,0-1.9-0.6,1.2-2.6c3.1-2.1,5.5-5.5,8.4-5.4c2.9,0.1,5.6,1.9,7.2-2.4
	c1.6-4.3,3.9-7.4,1.4-13.3c-2.5-5.9-10.8-26.1-57-33.2c-8.3-1.3-100.1-5.6-115-6.6c-14.9-1-43.7-2.7-54.3-6.1c0,0-25.2,1.8-38.7-3.3
	c0,0-18.9-0.7-35.8-7.7c0,0-3.4-1.9,1.2-2.8c4.6-0.9,26.4-4.5,29.7-6.6c0,0-15.6-0.8-31-0.7c-15.4,0.1-135.3,7.8-144.9,8.1
	c0,0-14.7,1.1-6.7-1.8c8.1-2.9,77.9-10.2,107.4-15.7c29.6-5.5,64.1-12.8,98.6-31.6c29.6-16.1,38.5-15.1,38.5-15.1
	s38.7-47.3,94.3-60.9c11.5-2.8,42.1-7.3,36-4.4c-6.1,2.9-35.2,7.8-46.1,22c-10.9,14.2-8.9,20.2-6.1,23c2.8,2.8,5.6,8.4,10.6,9.4
	c5,1,16.1,3.8,21.1,5.8c5.1,1.9,8.3,5.4,21.1,7.6c12.9,2.1,39.7,9.4,78,33c38.3,23.6,46.2,64,46.1,84.7c0,20.6-6,41.8-32,58.6
	c-2.9,1.9-4.1,5.2-4.8,6.9c-0.8,1.7-4.3,15-7.6,16.4c-3.3,1.4-13.7,4.3-10.8,0.4C605.4,563.1,608.9,553.6,608.9,553.6z"/>
</svg>
