<?xml version="1.0" encoding="utf-8"?>
<!-- Generator: Adobe Illustrator 21.0.2, SVG Export Plug-In . SVG Version: 6.00 Build 0)  -->
<svg version="1.1" id="Layer_1" xmlns="http://www.w3.org/2000/svg" xmlns:xlink="http://www.w3.org/1999/xlink" x="0px" y="0px"
	 viewBox="0 0 864 864" style="enable-background:new 0 0 864 864;" xml:space="preserve">
<style type="text/css">
	.st0{stroke:#000000;stroke-width:0.5;stroke-linecap:round;stroke-linejoin:round;stroke-miterlimit:10;}
</style>
<path class="st0" d="M571.8,438.9c0,0,49.6-9.2,62.6-8.2c15.4,1.2,31,12.2,42,23c10.9,10.8,35.1,17.5,46.6,21.2
	c11.5,3.6,10.5-5.3,9.5-7.5c-6.6-14.2-20.8-23.5-24.3-27.6c-3.6-4.1-7-6-0.7-12.8c33.4-36.2,79.2-47.5,99.2-50.7
	c20-3.2-0.4-12.1-3-13c-46.4-16.8-90.7,7.6-105.8,14.8c-15.1,7.1-38.9,28.2-65.1,31.6c-26.2,3.4-55.7-0.2-55.7-0.2
	c16.4-2.9,4.9-7.6,3.9-8.8c-1-1.3,3.9-7.8,5.4-12.1c1.5-4.3-24.4,7.3-26.7,8.2c-2.3,1-10.7,6.6-18.2,6.5c-7.5,0-125.4-8.7-125.4-8.7
	c-8.4-1.4-8.6-8.9-10.5-15.5c-2.4-8.5-0.3-15.2,1.4-20.3c1.7-5,20.5-21.5,22.3-24.1c1.8-2.6-4.2-4.8-18.8-2.9
	c-17.9,2.3-40.9,18.6-48.1,24.5c-7.2,5.9-19.3,14.9-29.6,21.3c-10.3,6.4-15.9,10.4-83.5,13.4c-67.7,3-94.9,14.4-103.9,16.6
	c-9,2.2-86.5,27.9-91.7,29.3c-5.1,1.4-6,3.2-3.7,6.9c2.4,3.7,16.3,7.9,23.7,10.9c7.5,3,14.1,8.9,18.6,11.7c4.5,2.7,9.9,2.7,9.9,2.7
	c0.9,0.4,6.9,3.9,6.9,3.9l-0.8-3.6l4.5,2.9l-2.1-5.2l5.4,3.3l-1.3-4.4l5.8,2.4l-1.2-3.6l5.3,3.3c0,0-1.2-4.1-0.8-4
	c0.4,0.1,5.8,3.8,5.8,3.8l-1-3.8l5.6,2.9l0.1-2.5l2.6,1.2l0.6-2.5c5,1,8.5,2.6,7.7,3.1c-0.8,0.5-6.1,1.5-6.1,1.5l-2.6-0.3l-1.1,1.4
	l-3.4-0.4l-0.3,2l-3.8-1l-0.7,2.1l-3.5-0.6l0.5,2.6l-4-1.3l0.9,2.6l-3.5-1.3l0.2,3.7l-5.6-0.9l4.5,3.1c0,0-1.6,1.7,0.1,2.8
	c1.7,1.1,11.3,5.5,23,4.7c11.7-0.9,15.5-4.1,30.8-3.1c15.3,0.9,45.5,4.6,69.3,3.1c0,0,33.6,32.2,87.9,44.3c6,1.3,37.3,3.5,60.1-2.1
	c2.9-0.7,2.9-2.3-2.5-3.9c-5.5-1.6-61.2-16.4-73.2-40.8c0,0,60.1-3,103.3-13.2c0,0,7.5,0.5,12,3.3c4.5,2.9,26.4,15,34.4,16
	c0,0,0.6,0.2,0.1-9.2c-0.1-1.7,1.4-4.2,2-5.2c0.6-1,4-9.8,19-17.4c1.7-0.9,5.2-2.5-10.3-2.5c0,0,38.3-8.7,47.2-10.9
	c8.9-2.1,13.8,1.4,17.3,2.9c3.5,1.5,26,14.3,39,15.8c2.9,0.3,6.5,1.2,2.6-3.3c-4-4.6-2-9.4,0.4-13.9c1.8-3.4,8-6.2,1.5-7.2
	C575,439.2,571.8,438.9,571.8,438.9z"/>
</svg>
