<?xml version="1.0" encoding="utf-8"?>
<!-- Generator: Adobe Illustrator 21.0.2, SVG Export Plug-In . SVG Version: 6.00 Build 0)  -->
<svg version="1.1" id="Layer_1" xmlns="http://www.w3.org/2000/svg" xmlns:xlink="http://www.w3.org/1999/xlink" x="0px" y="0px"
	 viewBox="0 0 864 864" style="enable-background:new 0 0 864 864;" xml:space="preserve">
<style type="text/css">
	.st0{stroke:#000000;stroke-width:0.5;stroke-linecap:round;stroke-linejoin:round;stroke-miterlimit:10;}
</style>
<path class="st0" d="M594.3,352.1c-2.9-3.5-29.6-37.3-60.8-51c-31.1-13.7-73.6-19.3-98.1-13.5c-24.5,5.8-45.2,23-53.3,29.4
	c-8.2,6.4-36.9,25.4-51.7,36.6c-14.7,11.2-15.6,18.9-15.6,18.9c-22.2-1.7-50.7-24.2-53.4-25.5c-2.8-1.3-6.8-4.2-9.4,0.9
	c-9.9,19.3-8.5,50.5-6.6,58.8c1.9,8.3,5.3,12.4,6.6,12c1.3-0.4,29.5-13.3,41.3-18.1c11.8-4.8,22-2.1,22-2.1
	c-2.4,7.9,6.9,10.7,6.9,10.7c9.7,3.8,23.2,22,31.9,32.5c8.7,10.5,38,43.9,71.9,53.7c33.8,9.8,79.4-5.5,90.3-15
	c11-9.4,20.7-15.5,21.8-17c1-1.5,1.1-7.5,1-9.1c0-1.6,5.6-6,5.6-6c5.7-2.1,12.6-5.4,19.1-8.7c2.6,6,6.2,14.2,9.8,14
	c5-0.3,10.1-3.9,6.6-9c-1.9-2.8-5.5-5.1-9.5-8.6c8.5-4.6,15.1-8.5,15.1-8.5c19.1-6,30.1-13.4,33-16.2c3-2.8,0.5-5.7-1.3-5.9
	c-1.8-0.2-1.4-2.1-1.4-2.1c5.5-1.3,3.5-4.9,3.4-5.8c-0.1-0.9-8.7-10.9-8.7-10.9c0.9-12-10.2-12.3-10.2-12.3
	C603.3,365,597.2,355.6,594.3,352.1z"/>
</svg>
