<?xml version="1.0" encoding="utf-8"?>
<!-- Generator: Adobe Illustrator 21.0.2, SVG Export Plug-In . SVG Version: 6.00 Build 0)  -->
<svg version="1.1" id="Layer_1" xmlns="http://www.w3.org/2000/svg" xmlns:xlink="http://www.w3.org/1999/xlink" x="0px" y="0px"
	 viewBox="0 0 864 864" style="enable-background:new 0 0 864 864;" xml:space="preserve">
<style type="text/css">
	.st0{stroke:#000000;stroke-width:0.5;stroke-linecap:round;stroke-linejoin:round;stroke-miterlimit:10;}
</style>
<path class="st0" d="M402.9,384.7c0,0,10,9.5,17.6,12.4c0,0,3.9,28.4,37.1,48.2c0,0-24.5,2.6-25.3,4.2c-0.8,1.6-5.5,9.5-4.5,15
	c1.1,5.5,4.2,25.3,11.3,24.2c7.1-1.1,11.3-5.5,11.3-5.5s2.6,10,7.9,6.8c5.3-3.2,27.1-26.9,30.8-32.9c0,0,25.5,2.6,51.6-11.3
	c0,0,10.3,10.3,14.2,5c4-5.3,4.7-10.5,4.7-10.5s6.3,11.3,10.8,7.9c0,0,3.2-4.7,3.2-17.1c0,0,28.4-18.4,42.7-35.5
	c0,0,4.7-2.4,6.8-7.6c0.7-1.6,1.6-4.1,2.6-5.9c1.1-1.8,2.5-5.7-1.8-6.6c0,0,2.2-7,1.2-8.3c-1.1-1.3-2.4-2.1-4.6-1.8
	c0,0-2.4-3.8-4.3-4.1c-2-0.3-0.8-4.2-5.5-2c-4.7,2.2-61.5-33.3-98.1-39c0,0-21.8-42.6-64.9-64.1c-3.7-1.8-6.8-0.9-8.7-0.3
	c-1.8,0.7-3.6,2.8-6.1,3.3s-3.7,3.7-5,4.7c-1.3,1.1-4,2.5-4.7,3.9c-0.8,1.4-2.5,3.3-3.6,3.6c-1.1,0.3-4.7,1.6-5,3.3
	c-0.3,1.7-2.1,4.6-3.8,4.9c-1.7,0.3-4.7,2.6-4.5,5.3c0.3,2.6-2,3-3,3.4c-1.1,0.4-3.4,1.3-3.6,3.7c-0.1,2.4-2.1,3.9-4.9,5
	c-2.8,1.1-3.6,1.4-4.1,4.1c-0.5,2.6-4,0.9-4,3.8c0,2.9-5.7,3.6-6.3,6.3c-0.7,2.8-5.4,3.7-5,6.2c0.4,2.5-6.3,5.3-7,6.2
	c-0.7,0.9-8.6,3.7-8.2,5.3c0.4,1.6-3.8,2.9-5,3s-0.5,2.1,1.1,2.8c1.6,0.7,17.5,7.2,21.6,9.7c0,0,1.1,1.2-18.4-1.3
	c-19.5-2.5-46.5-8.8-72.2,2.2c-25.7,11.1-61.2,42.3-66.2,48.6c-5,6.3-20.8,26.5-25.5,54.2c-1.5,8.8-6.8,26-9.2,29.8
	c-2.4,3.8-7.1,21.1-10.9,58.5c-3.8,37.3-5.5,47.4-2.6,49.6c3,2.2,3.9-0.2,5.1-4.9c1.2-4.7,4.5-10.7,4.5-10.7s0,12,1.2,11.8
	c1.2-0.2,6.1-9.3,8.9-23.3c2.8-14,16.2-32.4,18.6-35.7c2.4-3.4,21.7-36.1,25.1-46c0,0,12.2-7.3,14.4-8.7c0,0-6.9,8.3-8.5,19.4
	c-1.6,11.1-1.6,21.3-1,24.5c0.6,3.2-5.1,13.8-4.3,24.3c0.8,10.5-8.7,35.9-7.1,37.7c1.6,1.8,15.4-16,18.8-26.5
	c3.4-10.5,11.3-17.8,14.8-24.3c3.6-6.5,17.6-30.4,23.3-39.7c5.7-9.3,10.5-16.4,15.6-28c5.1-11.7,6.3-8.7,5.3-4.5
	c-1,4.1-3,20.7-10.7,30.6c-7.7,9.9-16.4,39.1-19.6,53.9c-3.2,14.8-6.7,50.8,1.8,52.1c8.5,1.4,41.7-44.8,41.7-44.8
	s-12.6,59.6-5.3,57.1c7.3-2.6,17.8-27.7,24.7-53.9c6.9-26.3,16.4-38.1,22.1-46.6c5.7-8.5,9.7-31.4,29-58.5
	c7.9-11.1,16.2-24.1,13.6-42.1C402.6,381,402.9,384.7,402.9,384.7z"/>
</svg>
