<?xml version="1.0" encoding="utf-8"?>
<!-- Generator: Adobe Illustrator 21.0.2, SVG Export Plug-In . SVG Version: 6.00 Build 0)  -->
<svg version="1.1" id="Layer_1" xmlns="http://www.w3.org/2000/svg" xmlns:xlink="http://www.w3.org/1999/xlink" x="0px" y="0px"
	 viewBox="0 0 864 864" style="enable-background:new 0 0 864 864;" xml:space="preserve">
<style type="text/css">
	.st0{stroke:#000000;stroke-width:0.5;stroke-linecap:round;stroke-linejoin:round;stroke-miterlimit:10;}
</style>
<path class="st0" d="M290.1,316.3c1.9-2.9,2.7-6.4,11-4c8.3,2.4,27.7,11.7,40.2,13.8c12.5,2,21.2,0.1,21.2,0.1
	c-9.4-2.1-28.6-10.4-30.4-11.1c-1.8-0.7,25-12.1,34.6-14c9.6-1.9,14.6-0.7,17.5-1c2.9-0.3,2.2-1.7,3.9-1.9c1.7-0.1,3.8,0.2,5.3-0.8
	c1.5-1,2.4-1.1,4-0.9c1.6,0.2,5.4,0.2,6.6-0.2c1.2-0.5-1.9-2.6-0.8-2.8c1.1-0.2,3.9,2.1,4.6,2.3c0.7,0.3,3.5-0.5,4.2-0.7
	c0.7-0.2-1.8-2.7-0.9-2.3c0.9,0.4,2.6,1.3,3.3,1.7c0.7,0.5,3.9,0.5,4.9,0.3c1-0.1-2.8-3.1-0.9-2.6c1.9,0.5,2.9,1.5,3.9,1.9
	c1,0.5,3.5,0.1,4.9-0.4c1.4-0.4-3.2-4-1.5-3.4c1.8,0.7,1.8,1.4,4,2.3c2.2,0.9,3.6-0.4,4.6-0.7c1-0.3-1.7-2.9-0.9-2.9
	c0.8,0.1,2.3,1.5,2.8,1.9c0.5,0.3,4.5,0.1,5.4-0.1c1-0.1-1.8-2.5-0.7-2.2c1.1,0.4,2,1.1,3.4,1.8c1.4,0.7,2.4,0,3.9-0.2
	c1.6-0.2-1.4-4.1,1.1-1.8c2.5,2.3,5.8,1.9,6.5,1.9c0.7,0-1.7-3.4-1.2-3.1c0.5,0.3,2.5,1.9,3.7,3.1c1.2,1.2,4.9,0.8,5.6,0.5
	c0.6-0.3-1.5-3.7-0.6-3.1c1,0.6,1.2,1.3,2.6,2.6c1.4,1.3,6.3,1.4,6.9,1.3c0.6-0.1-1.9-3.3-1.5-3.1c0.4,0.3,1.9,1.6,3.2,2.7
	c1.3,1.1,4.3,1.3,5.6,1.4c1.3,0.1-0.3-2.8-0.3-2.8c5.1,4.3,4.7,7.5,6.3,9.5c1.6,2,12.7,3.5,30,7.7c17.3,4.2,26.7,9.1,37.7,16.8
	c11,7.7,16.5,17.5,26.3,24.3c9.8,6.9,14.7,5.3,17.3,6.7c2.6,1.4,1.8,2.1,0.6,3.7c-1.1,1.6-2.1,2.7-2.1,2.7c3.7-1.8,5.1-2.5,5.7-1.5
	c0.7,1-0.8,2.3-0.8,2.3c-2.7,3.8-8.6,4.4-15.6,13.5c-7,9.1-23.3,20.6-23.3,20.6C552,404.9,521,425,521,425s-19.6,16.1-42.1,26.9
	c-22.5,10.8-50.3,16.2-66.6,18.5c-16.3,2.3-43.1,6.6-72.6,16.9c-29.4,10.3-55.7,11.8-61.2,11.8c0,0-0.8-0.1-0.6-0.7
	c0.2-0.4,0.7-0.3,0.7-0.3c5.4,0,37.5-4.5,60.1-14c28.8-12,56.3-14.5,72.6-16.9c16.3-2.3,44.1-7.7,66.6-18.5c4.2-2,8.4-4.2,12.3-6.5
	c13.1-14.6,7.1-12.4,7.1-12.4c-1.2,0.7-2.4,1.3-3.5,1.9c-2.5,3.6-8.7,10-23.7,14.8c-21.8,7-63.4,12.4-78.7,12.6
	c-15.3,0.2-38.4,2.8-82.9,14.9c0,0-2.6,0.7-2.3-0.5c0.2-0.9,1.8-1.2,1.8-1.2c38.2-10.7,66.1-15.7,81.3-15.9
	c15.3-0.2,56.9-5.7,78.7-12.6c7.4-2.4,12.7-5.1,16.4-7.8c-1.5,0.6-2.5,0.9-2.5,0.9c-2.3,0.6-22.9,8.1-50.7,9.5
	c-27.8,1.4-44.4-7.6-44.4-7.6c-47.6,7.2-85-38.6-85.7-39.8c-0.7-1.2-1.3-2.7,2.8-3.2c11-1.5,40.4-15.1,40.4-15.1
	c-22.4,0.2-43.5,9-48.1,9.8c-4.6,0.8-6-0.7-6.9-2.6c-0.9-1.9-9.2-19.2-8.9-37.3C280.8,332.7,288.2,319.3,290.1,316.3z"/>
</svg>
