<?xml version="1.0" encoding="utf-8"?>
<!-- Generator: Adobe Illustrator 21.0.2, SVG Export Plug-In . SVG Version: 6.00 Build 0)  -->
<svg version="1.1" id="Layer_1" xmlns="http://www.w3.org/2000/svg" xmlns:xlink="http://www.w3.org/1999/xlink" x="0px" y="0px"
	 viewBox="0 0 864 864" style="enable-background:new 0 0 864 864;" xml:space="preserve">
<style type="text/css">
	.st0{stroke:#000000;stroke-width:0.5;stroke-linecap:round;stroke-linejoin:round;stroke-miterlimit:10;}
</style>
<path class="st0" d="M310.7,449.5c0,0-32-16.4-51.9-15.7c-18.2,0.6-110.2,26.8-110.2,26.8s-2.9,1.3,1-6.2
	c3.9-7.5,16.9-38.2,18.1-43.7c1.2-5.5-2-10.6-3.9-14.6c-2-3.9-18.1-37-18.9-40.1c-0.8-3.1-3.5-10.6,7.1-8.3
	c10.6,2.4,81.1,28.7,105.1,35.4c24,6.7,33.1-4.7,33.1-4.7s-21.6-4.7-35.4-6.7c0,0-6.3-2.4-2.4-13.4c2.7-7.6,15.3-56.7,92.5-79.9
	c0,0,1.4-0.4,4.5-0.4c3.1,0,14.2-0.4,9.1-4.1c-5.1-3.7,6.9-0.8,7.5-0.8c0.6,0,13.8-2,11.8-7.9c-0.2-0.6-0.8-2.4,4.7-1.6
	c5.5,0.8,18.1-2.8,12.6-6.7c-5.5-3.9,5.1-1.2,6.5-0.8c1.4,0.4,8.9-0.6,7.9-3.3c-1-2.8,0.6-3.3,3.9-2.4c3.3,1,12.8,0.2,13.2-3.7
	c0.4-3.9,5.3-0.4,5.3-0.4s9.8,3.7,10.8-3.3c0,0,1.2-3,6.9,0.6c5.7,3.5,12.8,2.2,14.4-0.8c1.6-3,5.5-0.4,6.7,0.4
	c1.2,0.8,3.5,10.2,13.8,13.4c10.2,3.1,8.1-1.8,7.9-5.1c-0.2-3.3,4.1,2.2,5.9,5.3c1.8,3.1,6.3,18.1,9.2,21.4c3,3.3,9.2,6.1,9.2-5.3
	c0-1.2,3-2.2,3.5,5.3c0.6,7.5-3.1,16.5,2.6,20.1c1.6,1,27.3,11.4,45.4,24c18.1,12.6,21.4,15,30.5,17.9c9,3,18.3,7.3,21.6,9.6
	c3.3,2.4,6.9,2.2,14.6,5.3c7.7,3.1,28.1,12.4,33.4,15c5.3,2.6,9.3,5.9,9.5,15.7c0.3,9.8-20.3,25.4-21.1,36.4
	c-0.8,11,24,19.1,27.7,20.1c3.7,1,3.7,4.7,3.5,5.5c-0.2,0.8,0.6,5.1-10.2,6.3c-10.8,1.2-33.8-8.3-92.1,15
	c-46.8,18.7-80.3,18.3-80.3,18.3s-9.2,50.4-16.3,57.5c-7.1,7.1-23.5,25.6-40.7,27.5c-3.5,0.4-11.8,3.1-13.6-6.3
	c-1.8-9.4-2.4-27-3.3-31.7c-1-4.7-2.5-19.8,5.5-26c2.6-2,3.1-4.5,41.9-18.7c0,0-55.9,6.1-92.3-7.9c0,0,0.2,16.3-8.1,26.4
	c0,0-1.4-0.4-0.4-4.3c1-3.9,1-9.2-6.7-1.6c-7.7,7.7-13.9,19.5-18.9,22.8c-1.2,0.8-2.8,0.8-0.8-3c2-3.7,9.6-14.4-4.5-15.3
	c0,0-12.8,8.5-20.3,12c0,0-3-0.4-0.6-2.8c2.4-2.4,12.8-7.7,5.5-8.7c-5.7-0.8-11.4,3.7-17.1,2.8c-5.7-1-32.6-12.4-43.1-31.3
	c-3-5.3-11.6-20.1-4.1-28.5c1.6-1.8,4.9-2.2,9.8-2.4C282.2,447.8,305.1,449.2,310.7,449.5z"/>
</svg>
