  0
SECTION
  2
HEADER
  9
$ACADVER
  1
AC1024
  9
$ACADMAINTVER
 70
     6
  9
$DWGCODEPAGE
  3
ANSI_1252
  9
$INSBASE
 10
0.0
 20
0.0
 30
0.0
  9
$EXTMIN
 10
1.000000000000000E+20
 20
1.000000000000000E+20
 30
1.000000000000000E+20
  9
$EXTMAX
 10
-1.000000000000000E+20
 20
-1.000000000000000E+20
 30
-1.000000000000000E+20
  9
$LIMMIN
 10
0.0
 20
0.0
  9
$LIMMAX
 10
12.0
 20
9.0
  9
$ORTHOMODE
 70
     0
  9
$REGENMODE
 70
     1
  9
$FILLMODE
 70
     1
  9
$QTEXTMODE
 70
     0
  9
$MIRRTEXT
 70
     1
  9
$LTSCALE
 40
1.0
  9
$ATTMODE
 70
     1
  9
$TEXTSIZE
 40
0.2
  9
$TRACEWID
 40
0.05
  9
$TEXTSTYLE
  7
Standard
  9
$CLAYER
  8
0
  9
$CELTYPE
  6
ByLayer
  9
$CECOLOR
 62
   256
  9
$CELTSCALE
 40
1.0
  9
$DISPSILH
 70
     0
  9
$DIMSCALE
 40
1.0
  9
$DIMASZ
 40
0.18
  9
$DIMEXO
 40
0.0625
  9
$DIMDLI
 40
0.38
  9
$DIMRND
 40
0.0
  9
$DIMDLE
 40
0.0
  9
$DIMEXE
 40
0.18
  9
$DIMTP
 40
0.0
  9
$DIMTM
 40
0.0
  9
$DIMTXT
 40
0.18
  9
$DIMCEN
 40
0.09
  9
$DIMTSZ
 40
0.0
  9
$DIMTOL
 70
     0
  9
$DIMLIM
 70
     0
  9
$DIMTIH
 70
     1
  9
$DIMTOH
 70
     1
  9
$DIMSE1
 70
     0
  9
$DIMSE2
 70
     0
  9
$DIMTAD
 70
     0
  9
$DIMZIN
 70
     0
  9
$DIMBLK
  1

  9
$DIMASO
 70
     1
  9
$DIMSHO
 70
     1
  9
$DIMPOST
  1

  9
$DIMAPOST
  1

  9
$DIMALT
 70
     0
  9
$DIMALTD
 70
     2
  9
$DIMALTF
 40
25.4
  9
$DIMLFAC
 40
1.0
  9
$DIMTOFL
 70
     0
  9
$DIMTVP
 40
0.0
  9
$DIMTIX
 70
     0
  9
$DIMSOXD
 70
     0
  9
$DIMSAH
 70
     0
  9
$DIMBLK1
  1

  9
$DIMBLK2
  1

  9
$DIMSTYLE
  2
Standard
  9
$DIMCLRD
 70
     0
  9
$DIMCLRE
 70
     0
  9
$DIMCLRT
 70
     0
  9
$DIMTFAC
 40
1.0
  9
$DIMGAP
 40
0.09
  9
$DIMJUST
 70
     0
  9
$DIMSD1
 70
     0
  9
$DIMSD2
 70
     0
  9
$DIMTOLJ
 70
     1
  9
$DIMTZIN
 70
     0
  9
$DIMALTZ
 70
     0
  9
$DIMALTTZ
 70
     0
  9
$DIMUPT
 70
     0
  9
$DIMDEC
 70
     4
  9
$DIMTDEC
 70
     4
  9
$DIMALTU
 70
     2
  9
$DIMALTTD
 70
     2
  9
$DIMTXSTY
  7
Standard
  9
$DIMAUNIT
 70
     0
  9
$DIMADEC
 70
     0
  9
$DIMALTRND
 40
0.0
  9
$DIMAZIN
 70
     0
  9
$DIMDSEP
 70
    46
  9
$DIMATFIT
 70
     3
  9
$DIMFRAC
 70
     0
  9
$DIMLDRBLK
  1

  9
$DIMLUNIT
 70
     2
  9
$DIMLWD
 70
    -2
  9
$DIMLWE
 70
    -2
  9
$DIMTMOVE
 70
     0
  9
$DIMFXL
 40
1.0
  9
$DIMFXLON
 70
     0
  9
$DIMJOGANG
 40
0.7853981633974483
  9
$DIMTFILL
 70
     0
  9
$DIMTFILLCLR
 70
     0
  9
$DIMARCSYM
 70
     0
  9
$DIMLTYPE
  6

  9
$DIMLTEX1
  6

  9
$DIMLTEX2
  6

  9
$DIMTXTDIRECTION
 70
     0
  9
$LUNITS
 70
     2
  9
$LUPREC
 70
     4
  9
$SKETCHINC
 40
0.1
  9
$FILLETRAD
 40
0.5
  9
$AUNITS
 70
     0
  9
$AUPREC
 70
     0
  9
$MENU
  1
.
  9
$ELEVATION
 40
0.0
  9
$PELEVATION
 40
0.0
  9
$THICKNESS
 40
0.0
  9
$LIMCHECK
 70
     0
  9
$CHAMFERA
 40
0.5
  9
$CHAMFERB
 40
0.5
  9
$CHAMFERC
 40
1.0
  9
$CHAMFERD
 40
0.0
  9
$SKPOLY
 70
     0
  9
$TDCREATE
 40
2458164.582205023
  9
$TDUCREATE
 40
2458164.540538357
  9
$TDUPDATE
 40
2458164.582205058
  9
$TDUUPDATE
 40
2458164.540538391
  9
$TDINDWG
 40
0.0000000116
  9
$TDUSRTIMER
 40
0.0000000116
  9
$USRTIMER
 70
     1
  9
$ANGBASE
 50
0.0
  9
$ANGDIR
 70
     0
  9
$PDMODE
 70
     0
  9
$PDSIZE
 40
0.0
  9
$PLINEWID
 40
0.0
  9
$SPLFRAME
 70
     0
  9
$SPLINETYPE
 70
     6
  9
$SPLINESEGS
 70
     8
  9
$HANDSEED
  5
49
  9
$SURFTAB1
 70
     6
  9
$SURFTAB2
 70
     6
  9
$SURFTYPE
 70
     6
  9
$SURFU
 70
     6
  9
$SURFV
 70
     6
  9
$UCSBASE
  2

  9
$UCSNAME
  2

  9
$UCSORG
 10
0.0
 20
0.0
 30
0.0
  9
$UCSXDIR
 10
1.0
 20
0.0
 30
0.0
  9
$UCSYDIR
 10
0.0
 20
1.0
 30
0.0
  9
$UCSORTHOREF
  2

  9
$UCSORTHOVIEW
 70
     0
  9
$UCSORGTOP
 10
0.0
 20
0.0
 30
0.0
  9
$UCSORGBOTTOM
 10
0.0
 20
0.0
 30
0.0
  9
$UCSORGLEFT
 10
0.0
 20
0.0
 30
0.0
  9
$UCSORGRIGHT
 10
0.0
 20
0.0
 30
0.0
  9
$UCSORGFRONT
 10
0.0
 20
0.0
 30
0.0
  9
$UCSORGBACK
 10
0.0
 20
0.0
 30
0.0
  9
$PUCSBASE
  2

  9
$PUCSNAME
  2

  9
$PUCSORG
 10
0.0
 20
0.0
 30
0.0
  9
$PUCSXDIR
 10
1.0
 20
0.0
 30
0.0
  9
$PUCSYDIR
 10
0.0
 20
1.0
 30
0.0
  9
$PUCSORTHOREF
  2

  9
$PUCSORTHOVIEW
 70
     0
  9
$PUCSORGTOP
 10
0.0
 20
0.0
 30
0.0
  9
$PUCSORGBOTTOM
 10
0.0
 20
0.0
 30
0.0
  9
$PUCSORGLEFT
 10
0.0
 20
0.0
 30
0.0
  9
$PUCSORGRIGHT
 10
0.0
 20
0.0
 30
0.0
  9
$PUCSORGFRONT
 10
0.0
 20
0.0
 30
0.0
  9
$PUCSORGBACK
 10
0.0
 20
0.0
 30
0.0
  9
$USERI1
 70
     0
  9
$USERI2
 70
     0
  9
$USERI3
 70
     0
  9
$USERI4
 70
     0
  9
$USERI5
 70
     0
  9
$USERR1
 40
0.0
  9
$USERR2
 40
0.0
  9
$USERR3
 40
0.0
  9
$USERR4
 40
0.0
  9
$USERR5
 40
0.0
  9
$WORLDVIEW
 70
     1
  9
$SHADEDGE
 70
     3
  9
$SHADEDIF
 70
    70
  9
$TILEMODE
 70
     1
  9
$MAXACTVP
 70
    64
  9
$PINSBASE
 10
0.0
 20
0.0
 30
0.0
  9
$PLIMCHECK
 70
     0
  9
$PEXTMIN
 10
1.000000000000000E+20
 20
1.000000000000000E+20
 30
1.000000000000000E+20
  9
$PEXTMAX
 10
-1.000000000000000E+20
 20
-1.000000000000000E+20
 30
-1.000000000000000E+20
  9
$PLIMMIN
 10
0.0
 20
0.0
  9
$PLIMMAX
 10
12.0
 20
9.0
  9
$UNITMODE
 70
     0
  9
$VISRETAIN
 70
     1
  9
$PLINEGEN
 70
     0
  9
$PSLTSCALE
 70
     1
  9
$TREEDEPTH
 70
  3020
  9
$CMLSTYLE
  2
Standard
  9
$CMLJUST
 70
     0
  9
$CMLSCALE
 40
1.0
  9
$PROXYGRAPHICS
 70
     1
  9
$MEASUREMENT
 70
     0
  9
$CELWEIGHT
370
    -1
  9
$ENDCAPS
280
     0
  9
$JOINSTYLE
280
     0
  9
$LWDISPLAY
290
     1
  9
$INSUNITS
 70
     1
  9
$HYPERLINKBASE
  1

  9
$STYLESHEET
  1

  9
$XEDIT
290
     1
  9
$CEPSNTYPE
380
     0
  9
$PSTYLEMODE
290
     1
  9
$FINGERPRINTGUID
  2
{CEF21CED-EB36-4C08-9279-610E614A3E4D}
  9
$VERSIONGUID
  2
{FAEB1C32-E019-11D5-929B-00C0DF256EC4}
  9
$EXTNAMES
290
     1
  9
$PSVPSCALE
 40
0.0
  9
$OLESTARTUP
290
     0
  9
$SORTENTS
280
   127
  9
$INDEXCTL
280
     0
  9
$HIDETEXT
280
     1
  9
$XCLIPFRAME
280
     2
  9
$HALOGAP
280
     0
  9
$OBSCOLOR
 70
   257
  9
$OBSLTYPE
280
     0
  9
$INTERSECTIONDISPLAY
280
     0
  9
$INTERSECTIONCOLOR
 70
   257
  9
$DIMASSOC
280
     2
  9
$PROJECTNAME
  1

  9
$CAMERADISPLAY
290
     0
  9
$LENSLENGTH
 40
50.0
  9
$CAMERAHEIGHT
 40
0.0
  9
$STEPSPERSEC
 40
2.0
  9
$STEPSIZE
 40
6.0
  9
$3DDWFPREC
 40
2.0
  9
$PSOLWIDTH
 40
0.25
  9
$PSOLHEIGHT
 40
4.0
  9
$LOFTANG1
 40
1.570796326794897
  9
$LOFTANG2
 40
1.570796326794897
  9
$LOFTMAG1
 40
0.0
  9
$LOFTMAG2
 40
0.0
  9
$LOFTPARAM
 70
     7
  9
$LOFTNORMALS
280
     1
  9
$LATITUDE
 40
37.795
  9
$LONGITUDE
 40
-122.394
  9
$NORTHDIRECTION
 40
0.0
  9
$TIMEZONE
 70
 -8000
  9
$LIGHTGLYPHDISPLAY
280
     1
  9
$TILEMODELIGHTSYNCH
280
     1
  9
$CMATERIAL
347
3C
  9
$SOLIDHIST
280
     1
  9
$SHOWHIST
280
     1
  9
$DWFFRAME
280
     2
  9
$DGNFRAME
280
     2
  9
$REALWORLDSCALE
290
     1
  9
$INTERFERECOLOR
 62
   256
  9
$CSHADOW
280
     0
  9
$SHADOWPLANELOCATION
 40
0.0
  0
ENDSEC
  0
SECTION
  2
CLASSES
  0
CLASS
  1
ACDBDICTIONARYWDFLT
  2
AcDbDictionaryWithDefault
  3
ObjectDBX Classes
 90
        0
 91
        4
280
     0
281
     0
  0
CLASS
  1
VISUALSTYLE
  2
AcDbVisualStyle
  3
ObjectDBX Classes
 90
     4095
 91
        4
280
     0
281
     0
  0
CLASS
  1
MATERIAL
  2
AcDbMaterial
  3
ObjectDBX Classes
 90
     1153
 91
        4
280
     0
281
     0
  0
CLASS
  1
SUN
  2
AcDbSun
  3
SCENEOE
 90
     1024
 91
        4
280
     0
281
     0
  0
ENDSEC
  0
SECTION
  2
TABLES
  0
TABLE
  2
VPORT
  5
8
330
0
100
AcDbSymbolTable
 70
     1
  0
VPORT
  5
29
330
8
100
AcDbSymbolTableRecord
100
AcDbViewportTableRecord
  2
*Active
 70
     0
 10
0.0
 20
0.0
 11
1.0
 21
1.0
 12
0.0
 22
0.0
 13
0.0
 23
0.0
 14
0.5
 24
0.5
 15
0.5
 25
0.5
 16
0.0
 26
0.0
 36
1.0
 17
6.0
 27
-6.0
 37
0.0
 40
12.0
 41
1.0
 42
50.0
 43
0.0
 44
0.0
 50
0.0
 51
0.0
 71
     0
 72
   100
 73
     1
 74
     3
 75
     0
 76
     0
 77
     0
 78
     0
281
     0
 65
     1
110
0.0
120
0.0
130
0.0
111
1.0
121
0.0
131
0.0
112
0.0
122
1.0
132
0.0
 79
     0
146
0.0
 60
     3
 61
     5
292
     1
282
     1
141
0.0
142
0.0
 63
   250
361
3F
  0
ENDTAB
  0
TABLE
  2
LTYPE
  5
5
330
0
100
AcDbSymbolTable
 70
     1
  0
LTYPE
  5
14
330
5
100
AcDbSymbolTableRecord
100
AcDbLinetypeTableRecord
  2
ByBlock
 70
     0
  3

 72
    65
 73
     0
 40
0.0
  0
LTYPE
  5
15
330
5
100
AcDbSymbolTableRecord
100
AcDbLinetypeTableRecord
  2
ByLayer
 70
     0
  3

 72
    65
 73
     0
 40
0.0
  0
LTYPE
  5
16
330
5
100
AcDbSymbolTableRecord
100
AcDbLinetypeTableRecord
  2
Continuous
 70
     0
  3
Solid line
 72
    65
 73
     0
 40
0.0
  0
ENDTAB
  0
TABLE
  2
LAYER
  5
2
330
0
100
AcDbSymbolTable
 70
     2
  0
LAYER
  5
10
330
2
100
AcDbSymbolTableRecord
100
AcDbLayerTableRecord
  2
0
 70
     0
 62
     7
  6
Continuous
370
    -3
390
F
347
3E
  0
LAYER
  5
40
330
2
100
AcDbSymbolTableRecord
100
AcDbLayerTableRecord
  2
Layer 1
 70
     0
 62
     7
  6
Continuous
370
    -3
390
F
347
3E
  0
ENDTAB
  0
TABLE
  2
STYLE
  5
3
330
0
100
AcDbSymbolTable
 70
     1
  0
STYLE
  5
11
330
3
100
AcDbSymbolTableRecord
100
AcDbTextStyleTableRecord
  2
Standard
 70
     0
 40
0.0
 41
1.0
 50
0.0
 71
     0
 42
0.2
  3
txt
  4

  0
ENDTAB
  0
TABLE
  2
VIEW
  5
6
330
0
100
AcDbSymbolTable
 70
     0
  0
ENDTAB
  0
TABLE
  2
UCS
  5
7
330
0
100
AcDbSymbolTable
 70
     0
  0
ENDTAB
  0
TABLE
  2
APPID
  5
9
330
0
100
AcDbSymbolTable
 70
     1
  0
APPID
  5
12
330
9
100
AcDbSymbolTableRecord
100
AcDbRegAppTableRecord
  2
ACAD
 70
     0
  0
ENDTAB
  0
TABLE
  2
DIMSTYLE
  5
A
330
0
100
AcDbSymbolTable
 70
     1
100
AcDbDimStyleTable
  0
DIMSTYLE
105
27
330
A
100
AcDbSymbolTableRecord
100
AcDbDimStyleTableRecord
  2
Standard
 70
     0
178
     0
340
11
  0
ENDTAB
  0
TABLE
  2
BLOCK_RECORD
  5
1
330
0
100
AcDbSymbolTable
 70
     2
  0
BLOCK_RECORD
  5
1F
330
1
100
AcDbSymbolTableRecord
100
AcDbBlockTableRecord
  2
*Model_Space
340
22
 70
     0
280
     1
281
     0
  0
BLOCK_RECORD
  5
1B
330
1
100
AcDbSymbolTableRecord
100
AcDbBlockTableRecord
  2
*Paper_Space
340
1E
 70
     0
280
     1
281
     0
  0
BLOCK_RECORD
  5
23
330
1
100
AcDbSymbolTableRecord
100
AcDbBlockTableRecord
  2
*Paper_Space0
340
26
 70
     0
280
     1
281
     0
  0
BLOCK_RECORD
  5
41
330
1
100
AcDbSymbolTableRecord
100
AcDbBlockTableRecord
  2
block 2
340
0
102
{BLKREFS
331
42
102
}
 70
     0
280
     1
281
     0
  0
ENDTAB
  0
ENDSEC
  0
SECTION
  2
BLOCKS
  0
BLOCK
  5
20
330
1F
100
AcDbEntity
  8
0
100
AcDbBlockBegin
  2
*Model_Space
 70
     0
 10
0.0
 20
0.0
 30
0.0
  3
*Model_Space
  1

  0
ENDBLK
  5
21
330
1F
100
AcDbEntity
  8
0
100
AcDbBlockEnd
  0
BLOCK
  5
1C
330
1B
100
AcDbEntity
 67
     1
  8
0
100
AcDbBlockBegin
  2
*Paper_Space
 70
     0
 10
0.0
 20
0.0
 30
0.0
  3
*Paper_Space
  1

  0
ENDBLK
  5
1D
330
1B
100
AcDbEntity
 67
     1
  8
0
100
AcDbBlockEnd
  0
BLOCK
  5
24
330
23
100
AcDbEntity
  8
0
100
AcDbBlockBegin
  2
*Paper_Space0
 70
     0
 10
0.0
 20
0.0
 30
0.0
  3
*Paper_Space0
  1

  0
ENDBLK
  5
25
330
23
100
AcDbEntity
  8
0
100
AcDbBlockEnd
  0
BLOCK
  5
43
330
41
100
AcDbEntity
  8
0
100
AcDbBlockBegin
  2
block 2
 70
     0
 10
0.0
 20
0.0
 30
0.0
  3
block 2
  1

  0
SPLINE
  5
45
330
41
100
AcDbEntity
  8
Layer 1
 62
     7
420
 16777215
370
    18
100
AcDbSpline
210
0.0
220
0.0
230
1.0
 70
    11
 71
     3
 72
   716
 73
   712
 74
     0
 42
0.0000000001
 43
0.0000000001
 12
1.0
 22
0.0
 32
0.0
 13
1.0
 23
0.0
 33
0.0
 40
0.0
 40
0.0
 40
0.0
 40
0.0
 40
1.0
 40
1.0
 40
1.0
 40
2.0
 40
2.0
 40
2.0
 40
3.0
 40
3.0
 40
3.0
 40
4.0
 40
4.0
 40
4.0
 40
5.0
 40
5.0
 40
5.0
 40
6.0
 40
6.0
 40
6.0
 40
7.0
 40
7.0
 40
7.0
 40
8.0
 40
8.0
 40
8.0
 40
9.0
 40
9.0
 40
9.0
 40
10.0
 40
10.0
 40
10.0
 40
11.0
 40
11.0
 40
11.0
 40
12.0
 40
12.0
 40
12.0
 40
13.0
 40
13.0
 40
13.0
 40
14.0
 40
14.0
 40
14.0
 40
15.0
 40
15.0
 40
15.0
 40
16.0
 40
16.0
 40
16.0
 40
17.0
 40
17.0
 40
17.0
 40
18.0
 40
18.0
 40
18.0
 40
19.0
 40
19.0
 40
19.0
 40
20.0
 40
20.0
 40
20.0
 40
21.0
 40
21.0
 40
21.0
 40
22.0
 40
22.0
 40
22.0
 40
23.0
 40
23.0
 40
23.0
 40
24.0
 40
24.0
 40
24.0
 40
25.0
 40
25.0
 40
25.0
 40
26.0
 40
26.0
 40
26.0
 40
27.0
 40
27.0
 40
27.0
 40
28.0
 40
28.0
 40
28.0
 40
29.0
 40
29.0
 40
29.0
 40
30.0
 40
30.0
 40
30.0
 40
31.0
 40
31.0
 40
31.0
 40
32.0
 40
32.0
 40
32.0
 40
33.0
 40
33.0
 40
33.0
 40
34.0
 40
34.0
 40
34.0
 40
35.0
 40
35.0
 40
35.0
 40
36.0
 40
36.0
 40
36.0
 40
37.0
 40
37.0
 40
37.0
 40
38.0
 40
38.0
 40
38.0
 40
39.0
 40
39.0
 40
39.0
 40
40.0
 40
40.0
 40
40.0
 40
41.0
 40
41.0
 40
41.0
 40
42.0
 40
42.0
 40
42.0
 40
43.0
 40
43.0
 40
43.0
 40
44.0
 40
44.0
 40
44.0
 40
45.0
 40
45.0
 40
45.0
 40
46.0
 40
46.0
 40
46.0
 40
47.0
 40
47.0
 40
47.0
 40
48.0
 40
48.0
 40
48.0
 40
49.0
 40
49.0
 40
49.0
 40
50.0
 40
50.0
 40
50.0
 40
51.0
 40
51.0
 40
51.0
 40
52.0
 40
52.0
 40
52.0
 40
53.0
 40
53.0
 40
53.0
 40
54.0
 40
54.0
 40
54.0
 40
55.0
 40
55.0
 40
55.0
 40
56.0
 40
56.0
 40
56.0
 40
57.0
 40
57.0
 40
57.0
 40
58.0
 40
58.0
 40
58.0
 40
59.0
 40
59.0
 40
59.0
 40
60.0
 40
60.0
 40
60.0
 40
61.0
 40
61.0
 40
61.0
 40
62.0
 40
62.0
 40
62.0
 40
63.0
 40
63.0
 40
63.0
 40
64.0
 40
64.0
 40
64.0
 40
65.0
 40
65.0
 40
65.0
 40
66.0
 40
66.0
 40
66.0
 40
67.0
 40
67.0
 40
67.0
 40
68.0
 40
68.0
 40
68.0
 40
69.0
 40
69.0
 40
69.0
 40
70.0
 40
70.0
 40
70.0
 40
71.0
 40
71.0
 40
71.0
 40
72.0
 40
72.0
 40
72.0
 40
73.0
 40
73.0
 40
73.0
 40
74.0
 40
74.0
 40
74.0
 40
75.0
 40
75.0
 40
75.0
 40
76.0
 40
76.0
 40
76.0
 40
77.0
 40
77.0
 40
77.0
 40
78.0
 40
78.0
 40
78.0
 40
79.0
 40
79.0
 40
79.0
 40
80.0
 40
80.0
 40
80.0
 40
81.0
 40
81.0
 40
81.0
 40
82.0
 40
82.0
 40
82.0
 40
83.0
 40
83.0
 40
83.0
 40
84.0
 40
84.0
 40
84.0
 40
85.0
 40
85.0
 40
85.0
 40
86.0
 40
86.0
 40
86.0
 40
87.0
 40
87.0
 40
87.0
 40
88.0
 40
88.0
 40
88.0
 40
89.0
 40
89.0
 40
89.0
 40
90.0
 40
90.0
 40
90.0
 40
91.0
 40
91.0
 40
91.0
 40
92.0
 40
92.0
 40
92.0
 40
93.0
 40
93.0
 40
93.0
 40
94.0
 40
94.0
 40
94.0
 40
95.0
 40
95.0
 40
95.0
 40
96.0
 40
96.0
 40
96.0
 40
97.0
 40
97.0
 40
97.0
 40
98.0
 40
98.0
 40
98.0
 40
99.0
 40
99.0
 40
99.0
 40
100.0
 40
100.0
 40
100.0
 40
101.0
 40
101.0
 40
101.0
 40
102.0
 40
102.0
 40
102.0
 40
103.0
 40
103.0
 40
103.0
 40
104.0
 40
104.0
 40
104.0
 40
105.0
 40
105.0
 40
105.0
 40
106.0
 40
106.0
 40
106.0
 40
107.0
 40
107.0
 40
107.0
 40
108.0
 40
108.0
 40
108.0
 40
109.0
 40
109.0
 40
109.0
 40
110.0
 40
110.0
 40
110.0
 40
111.0
 40
111.0
 40
111.0
 40
112.0
 40
112.0
 40
112.0
 40
113.0
 40
113.0
 40
113.0
 40
114.0
 40
114.0
 40
114.0
 40
115.0
 40
115.0
 40
115.0
 40
116.0
 40
116.0
 40
116.0
 40
117.0
 40
117.0
 40
117.0
 40
118.0
 40
118.0
 40
118.0
 40
119.0
 40
119.0
 40
119.0
 40
120.0
 40
120.0
 40
120.0
 40
121.0
 40
121.0
 40
121.0
 40
122.0
 40
122.0
 40
122.0
 40
123.0
 40
123.0
 40
123.0
 40
124.0
 40
124.0
 40
124.0
 40
125.0
 40
125.0
 40
125.0
 40
126.0
 40
126.0
 40
126.0
 40
127.0
 40
127.0
 40
127.0
 40
128.0
 40
128.0
 40
128.0
 40
129.0
 40
129.0
 40
129.0
 40
130.0
 40
130.0
 40
130.0
 40
131.0
 40
131.0
 40
131.0
 40
132.0
 40
132.0
 40
132.0
 40
133.0
 40
133.0
 40
133.0
 40
134.0
 40
134.0
 40
134.0
 40
135.0
 40
135.0
 40
135.0
 40
136.0
 40
136.0
 40
136.0
 40
137.0
 40
137.0
 40
137.0
 40
138.0
 40
138.0
 40
138.0
 40
139.0
 40
139.0
 40
139.0
 40
140.0
 40
140.0
 40
140.0
 40
141.0
 40
141.0
 40
141.0
 40
142.0
 40
142.0
 40
142.0
 40
143.0
 40
143.0
 40
143.0
 40
144.0
 40
144.0
 40
144.0
 40
145.0
 40
145.0
 40
145.0
 40
146.0
 40
146.0
 40
146.0
 40
147.0
 40
147.0
 40
147.0
 40
148.0
 40
148.0
 40
148.0
 40
149.0
 40
149.0
 40
149.0
 40
150.0
 40
150.0
 40
150.0
 40
151.0
 40
151.0
 40
151.0
 40
152.0
 40
152.0
 40
152.0
 40
153.0
 40
153.0
 40
153.0
 40
154.0
 40
154.0
 40
154.0
 40
155.0
 40
155.0
 40
155.0
 40
156.0
 40
156.0
 40
156.0
 40
157.0
 40
157.0
 40
157.0
 40
158.0
 40
158.0
 40
158.0
 40
159.0
 40
159.0
 40
159.0
 40
160.0
 40
160.0
 40
160.0
 40
161.0
 40
161.0
 40
161.0
 40
162.0
 40
162.0
 40
162.0
 40
163.0
 40
163.0
 40
163.0
 40
164.0
 40
164.0
 40
164.0
 40
165.0
 40
165.0
 40
165.0
 40
166.0
 40
166.0
 40
166.0
 40
167.0
 40
167.0
 40
167.0
 40
168.0
 40
168.0
 40
168.0
 40
169.0
 40
169.0
 40
169.0
 40
170.0
 40
170.0
 40
170.0
 40
171.0
 40
171.0
 40
171.0
 40
172.0
 40
172.0
 40
172.0
 40
173.0
 40
173.0
 40
173.0
 40
174.0
 40
174.0
 40
174.0
 40
175.0
 40
175.0
 40
175.0
 40
176.0
 40
176.0
 40
176.0
 40
177.0
 40
177.0
 40
177.0
 40
178.0
 40
178.0
 40
178.0
 40
179.0
 40
179.0
 40
179.0
 40
180.0
 40
180.0
 40
180.0
 40
181.0
 40
181.0
 40
181.0
 40
182.0
 40
182.0
 40
182.0
 40
183.0
 40
183.0
 40
183.0
 40
184.0
 40
184.0
 40
184.0
 40
185.0
 40
185.0
 40
185.0
 40
186.0
 40
186.0
 40
186.0
 40
187.0
 40
187.0
 40
187.0
 40
188.0
 40
188.0
 40
188.0
 40
189.0
 40
189.0
 40
189.0
 40
190.0
 40
190.0
 40
190.0
 40
191.0
 40
191.0
 40
191.0
 40
192.0
 40
192.0
 40
192.0
 40
193.0
 40
193.0
 40
193.0
 40
194.0
 40
194.0
 40
194.0
 40
195.0
 40
195.0
 40
195.0
 40
196.0
 40
196.0
 40
196.0
 40
197.0
 40
197.0
 40
197.0
 40
198.0
 40
198.0
 40
198.0
 40
199.0
 40
199.0
 40
199.0
 40
200.0
 40
200.0
 40
200.0
 40
201.0
 40
201.0
 40
201.0
 40
202.0
 40
202.0
 40
202.0
 40
203.0
 40
203.0
 40
203.0
 40
204.0
 40
204.0
 40
204.0
 40
205.0
 40
205.0
 40
205.0
 40
206.0
 40
206.0
 40
206.0
 40
207.0
 40
207.0
 40
207.0
 40
208.0
 40
208.0
 40
208.0
 40
209.0
 40
209.0
 40
209.0
 40
210.0
 40
210.0
 40
210.0
 40
211.0
 40
211.0
 40
211.0
 40
212.0
 40
212.0
 40
212.0
 40
213.0
 40
213.0
 40
213.0
 40
214.0
 40
214.0
 40
214.0
 40
215.0
 40
215.0
 40
215.0
 40
216.0
 40
216.0
 40
216.0
 40
217.0
 40
217.0
 40
217.0
 40
218.0
 40
218.0
 40
218.0
 40
219.0
 40
219.0
 40
219.0
 40
220.0
 40
220.0
 40
220.0
 40
221.0
 40
221.0
 40
221.0
 40
222.0
 40
222.0
 40
222.0
 40
223.0
 40
223.0
 40
223.0
 40
224.0
 40
224.0
 40
224.0
 40
225.0
 40
225.0
 40
225.0
 40
226.0
 40
226.0
 40
226.0
 40
227.0
 40
227.0
 40
227.0
 40
228.0
 40
228.0
 40
228.0
 40
229.0
 40
229.0
 40
229.0
 40
230.0
 40
230.0
 40
230.0
 40
231.0
 40
231.0
 40
231.0
 40
232.0
 40
232.0
 40
232.0
 40
233.0
 40
233.0
 40
233.0
 40
234.0
 40
234.0
 40
234.0
 40
235.0
 40
235.0
 40
235.0
 40
236.0
 40
236.0
 40
236.0
 40
237.0
 40
237.0
 40
237.0
 40
237.0
 10
5.186255513318669
 20
-5.288430294034305
 30
0.0
 10
5.186255513318669
 20
-5.288430294034305
 30
0.0
 10
5.110458907025746
 20
-5.251186353285712
 30
0.0
 10
5.090796297627245
 20
-5.296960078916286
 30
0.0
 10
5.071119498656016
 20
-5.342635794176456
 30
0.0
 10
5.016913776166537
 20
-5.271243887320439
 30
0.0
 10
4.997052263374345
 20
-5.308657904888238
 30
0.0
 10
4.977219577160932
 20
-5.346239116617299
 30
0.0
 10
4.912797938861925
 20
-5.298957760877493
 30
0.0
 10
4.897018269627589
 20
-5.332232281625238
 30
0.0
 10
4.88122706976176
 20
-5.365423205292371
 30
0.0
 10
4.849555307635783
 20
-5.309248849768563
 30
0.0
 10
4.819013547398703
 20
-5.34608345308786
 30
0.0
 10
4.788396838056756
 20
-5.383059306646853
 30
0.0
 10
4.731069420800079
 20
-5.321592391121903
 30
0.0
 10
4.71868263989034
 20
-5.361370188210887
 30
0.0
 10
4.706339098848793
 20
-5.401133572010154
 30
0.0
 10
4.660859618830955
 20
-5.310586403058576
 30
0.0
 10
4.618337319092575
 20
-5.368337572482536
 30
0.0
 10
4.57581523270681
 20
-5.426074328616689
 30
0.0
 10
4.552704964484014
 20
-5.342451304067493
 30
0.0
 10
4.509831193836931
 20
-5.383707904686199
 30
0.0
 10
4.467012193689558
 20
-5.424935678725395
 30
0.0
 10
4.429304145963164
 20
-5.353235327468458
 30
0.0
 10
4.387191396996362
 20
-5.392027255537616
 30
0.0
 10
4.345104591950467
 20
-5.430804770317043
 30
0.0
 10
4.293940297240915
 20
-5.384791784076406
 30
0.0
 10
4.278907440101181
 20
-5.415673698723443
 30
0.0
 10
4.263833818343705
 20
-5.446443189710331
 30
0.0
 10
4.213260468499521
 20
-5.389816256887936
 30
0.0
 10
4.195878041483979
 20
-5.427988413497284
 30
0.0
 10
4.178521558389371
 20
-5.466272993766792
 30
0.0
 10
4.164318703015334
 20
-5.41548920861448
 30
0.0
 10
4.116126428579896
 20
-5.438657130580155
 30
0.0
 10
4.068014868565115
 20
-5.461839465835561
 30
0.0
 10
4.07275972343536
 20
-5.411450604822776
 30
0.0
 10
4.029715875973352
 20
-5.444583875330838
 30
0.0
 10
3.986729681668951
 20
-5.477561482309473
 30
0.0
 10
3.963308086395121
 20
-5.421191106044867
 30
0.0
 10
3.924346082490994
 20
-5.449974445702335
 30
0.0
 10
3.88538696124475
 20
-5.478815438518887
 30
0.0
 10
3.84832482170974
 20
-5.440023510449704
 30
0.0
 10
3.822369177333232
 20
-5.46193747620599
 30
0.0
 10
3.79647137894061
 20
-5.483923508411029
 30
0.0
 10
3.732510965902381
 20
-5.461306174114321
 30
0.0
 10
3.717183873955188
 20
-5.475647397428916
 30
0.0
 10
3.701799317975112
 20
-5.489933850242386
 30
0.0
 10
3.631802430211741
 20
-5.451790520212525
 30
0.0
 10
3.610407343427457
 20
-5.494214597302086
 30
0.0
 10
3.589041083221963
 20
-5.536664618313213
 30
0.0
 10
3.52030987139258
 20
-5.520830178179166
 30
0.0
 10
3.492792019271469
 20
-5.547713846245844
 30
0.0
 10
3.465274167150369
 20
-5.574712820630629
 30
0.0
 10
3.404568456474546
 20
-5.585802405774555
 30
0.0
 10
3.402314036396445
 20
-5.636952288486882
 30
0.0
 10
3.400048267302875
 20
-5.688047400698097
 30
0.0
 10
3.333248436252991
 20
-5.727361089856711
 30
0.0
 10
3.48039082507234
 20
-5.789516960632327
 30
0.0
 10
3.627550509838961
 20
-5.851632474196637
 30
0.0
 10
3.599822223692627
 20
-5.826662891010553
 30
0.0
 10
3.719253622312913
 20
-5.863794408098998
 30
0.0
 10
3.719253622312913
 20
-5.863794408098998
 30
0.0
 10
3.746898311380733
 20
-5.873730930061861
 30
0.0
 10
3.764661249236408
 20
-5.895590125317022
 30
0.0
 10
3.782366533934477
 20
-5.917518504363039
 30
0.0
 10
3.777918592825851
 20
-5.879262750673042
 30
0.0
 10
3.847537663282246
 20
-5.89891094727851
 30
0.0
 10
3.91715385108076
 20
-5.918518786672608
 30
0.0
 10
3.845312251398998
 20
-5.950568177790475
 30
0.0
 10
3.96872748320925
 20
-5.930427046675125
 30
0.0
 10
3.998877201974665
 20
-5.925500584233999
 30
0.0
 10
4.020848820334916
 20
-5.940475992298161
 30
0.0
 10
4.03862617147998
 20
-5.962421667291904
 30
0.0
 10
4.056331456178062
 20
-5.984252035967516
 30
0.0
 10
4.07275972343536
 20
-5.938239049726866
 30
0.0
 10
4.119277173642596
 20
-5.946543987288552
 30
0.0
 10
4.165783093218301
 20
-5.954889282061546
 30
0.0
 10
4.136224319318254
 20
-5.990668832570173
 30
0.0
 10
4.201352208797831
 20
-5.972075688775413
 30
0.0
 10
4.266520455487731
 20
-5.953496958270395
 30
0.0
 10
4.243493784343451
 20
-6.00765921854328
 30
0.0
 10
4.306635522543792
 20
-5.982366777666471
 30
0.0
 10
4.369834913901753
 20
-5.956846606811419
 30
0.0
 10
4.337701926515011
 20
-6.020622531356442
 30
0.0
 10
4.400169122771457
 20
-5.990882149258684
 30
0.0
 10
4.462650732317343
 20
-5.961196537662001
 30
0.0
 10
4.395101410218684
 20
-6.046690407222513
 30
0.0
 10
4.483904568865518
 20
-6.004718907431525
 30
0.0
 10
4.572704844854456
 20
-5.9627012851133
 30
0.0
 10
4.47310613244757
 20
-6.052490315023306
 30
0.0
 10
4.579856930360696
 20
-6.012009149393862
 30
0.0
 10
4.68661883629271
 20
-5.971455917315603
 30
0.0
 10
4.640675035003571
 20
-6.086243356991215
 30
0.0
 10
4.687307791526008
 20
-6.035093474278887
 30
0.0
 10
4.733856950969892
 20
-5.984110785727832
 30
0.0
 10
4.71868263989034
 20
-6.059258795896211
 30
0.0
 10
4.788863828633301
 20
-6.044214204041155
 30
0.0
 10
4.859001777508056
 20
-6.029209969397495
 30
0.0
 10
4.818266939007836
 20
-6.094334977864365
 30
0.0
 10
4.892527088650783
 20
-6.066226180167809
 30
0.0
 10
4.966761294372835
 20
-6.038160622340532
 30
0.0
 10
4.928447888491657
 20
-6.101994200044651
 30
0.0
 10
5.008778915629604
 20
-6.067549320168104
 30
0.0
 10
5.089034993662659
 20
-6.033234159899393
 30
0.0
 10
5.059450275841704
 20
-6.128356107021873
 30
0.0
 10
5.1204963217634
 20
-6.090028286883075
 30
0.0
 10
5.181525298243565
 20
-6.051686053454508
 30
0.0
 10
5.172882863414012
 20
-6.112452483096957
 30
0.0
 10
5.221233684032819
 20
-6.088621549802156
 30
0.0
 10
5.269581621993766
 20
-6.064750259296034
 30
0.0
 10
5.284882770020039
 20
-6.120768951290428
 30
0.0
 10
5.315891520833639
 20
-6.093478828452413
 30
0.0
 10
5.346842618489656
 20
-6.066298246616598
 30
0.0
 10
5.339099799424363
 20
-6.110988092856991
 30
0.0
 10
5.360117258026384
 20
-6.109241202137658
 30
0.0
 10
5.381045354234137
 20
-6.107664388237557
 30
0.0
 10
5.421471748341231
 20
-6.116026978958264
 30
0.0
 10
5.396317675681618
 20
-6.157378707289429
 30
0.0
 10
5.371192429600783
 20
-6.198664134487672
 30
0.0
 10
5.449102024119636
 20
-6.17180641034257
 30
0.0
 10
5.414305460851905
 20
-6.191624683767233
 30
0.0
 10
5.379482953663253
 20
-6.211500610350943
 30
0.0
 10
5.353175817851693
 20
-6.25657096744107
 30
0.0
 10
5.390883865578076
 20
-6.253867034281433
 30
0.0
 10
5.428479489647164
 20
-6.25136200452059
 30
0.0
 10
5.425637188977626
 20
-6.293376744180856
 30
0.0
 10
5.395008949004149
 20
-6.306438067364423
 30
0.0
 10
5.364337469162491
 20
-6.319361022966278
 30
0.0
 10
5.367914847591401
 20
-6.373678946768601
 30
0.0
 10
5.409422238403421
 20
-6.378435332390508
 30
0.0
 10
5.450972869083671
 20
-6.383122534221557
 30
0.0
 10
5.340270158523581
 20
-6.410078268737051
 30
0.0
 10
5.403708810485555
 20
-6.429824475712898
 30
0.0
 10
5.467173406368462
 20
-6.44954473876717
 30
0.0
 10
5.305375584887934
 20
-6.489351362435703
 30
0.0
 10
5.359497486582224
 20
-6.506171671589577
 30
0.0
 10
5.413587679039816
 20
-6.522991980743427
 30
0.0
 10
5.318889485028699
 20
-6.577491511996741
 30
0.0
 10
5.371039648733168
 20
-6.587511631040242
 30
0.0
 10
5.423175399148223
 20
-6.597603816532581
 30
0.0
 10
5.308471559450898
 20
-6.643856063383282
 30
0.0
 10
5.357496922013588
 20
-6.650866687524184
 30
0.0
 10
5.406409860918997
 20
-6.657917668876431
 30
0.0
 10
5.339143039292556
 20
-6.722933136341149
 30
0.0
 10
5.367940791512309
 20
-6.742160464885526
 30
0.0
 10
5.39682502346846
 20
-6.761301313691269
 30
0.0
 10
5.330696851704576
 20
-6.855368208003028
 30
0.0
 10
5.369785692555423
 20
-6.861407376413909
 30
0.0
 10
5.408802466959261
 20
-6.867472488746342
 30
0.0
 10
5.291538827064616
 20
-6.935333139610343
 30
0.0
 10
5.325265924258929
 20
-6.951997785234728
 30
0.0
 10
5.358932485637764
 20
-6.968564420488796
 30
0.0
 10
5.267076592296158
 20
-7.040250358455952
 30
0.0
 10
5.323406609926425
 20
-7.043458756757318
 30
0.0
 10
5.379708032490157
 20
-7.046670037716644
 30
0.0
 10
5.299339528769514
 20
-7.107672845311147
 30
0.0
 10
5.327966974692357
 20
-7.114426912894285
 30
0.0
 10
5.356525466308085
 20
-7.121281873505772
 30
0.0
 10
5.29762123519111
 20
-7.205314235484214
 30
0.0
 10
5.322547577878228
 20
-7.217208082197001
 30
0.0
 10
5.347560400301732
 20
-7.229058689040458
 30
0.0
 10
5.28807675495092
 20
-7.341450639957404
 30
0.0
 10
5.30672755143357
 20
-7.347250547758171
 30
0.0
 10
5.325407174495037
 20
-7.353064868848756
 30
0.0
 10
5.280083373645614
 20
-7.43943218376896
 30
0.0
 10
5.308108344558036
 20
-7.448157989391701
 30
0.0
 10
5.33603265144019
 20
-7.456843437803096
 30
0.0
 10
5.298324603713809
 20
-7.512568098686264
 30
0.0
 10
5.323844773924153
 20
-7.522559391150253
 30
0.0
 10
5.349405301344846
 20
-7.532527622350598
 30
0.0
 10
5.303124229083752
 20
-7.628690208994031
 30
0.0
 10
5.324617326235953
 20
-7.651676523508664
 30
0.0
 10
5.346067414182395
 20
-7.674743552445989
 30
0.0
 10
5.298860778079466
 20
-7.754255906754653
 30
0.0
 10
5.319212342711239
 20
-7.781015620529362
 30
0.0
 10
5.339494954050324
 20
-7.807815691515442
 30
0.0
 10
5.291117959014159
 20
-7.891043791925161
 30
0.0
 10
5.314597207445583
 20
-7.920798587312674
 30
0.0
 10
5.338059159929736
 20
-7.95065139307063
 30
0.0
 10
5.340284571812971
 20
-8.029137521148161
 30
0.0
 10
5.389647205347627
 20
-8.054614452133894
 30
0.0
 10
5.439009838882257
 20
-8.080244163991186
 30
0.0
 10
5.498969122783263
 20
-8.111169318507539
 30
0.0
 10
5.547642801084635
 20
-8.07312399884808
 30
0.0
 10
5.596316479385993
 20
-8.034992199450091
 30
0.0
 10
5.613347459554689
 20
-7.993314730770256
 30
0.0
 10
5.644131125639142
 20
-7.953609000130048
 30
0.0
 10
5.674842962691122
 20
-7.914113703520418
 30
0.0
 10
5.702432881259218
 20
-7.930818706356149
 30
0.0
 10
5.696013202160783
 20
-7.892098844735806
 30
0.0
 10
5.689720360009068
 20
-7.853194493006513
 30
0.0
 10
5.72527506229921
 20
-7.870395313010148
 30
0.0
 10
5.704205715855348
 20
-7.806604975175307
 30
0.0
 10
5.683133486753591
 20
-7.742702213680356
 30
0.0
 10
5.766926586005234
 20
-7.822044491169891
 30
0.0
 10
5.733398392204637
 20
-7.752174627712874
 30
0.0
 10
5.699812545246446
 20
-7.682417187915992
 30
0.0
 10
5.783801665233896
 20
-7.708525420993383
 30
0.0
 10
5.760648157142908
 20
-7.664469759502658
 30
0.0
 10
5.737480235762505
 20
-7.620483281802763
 30
0.0
 10
5.794920076676513
 20
-7.64642432071893
 30
0.0
 10
5.784211002652847
 20
-7.575681011902209
 30
0.0
 10
5.773499045971309
 20
-7.504741682344779
 30
0.0
 10
5.836346753067915
 20
-7.526361616989864
 30
0.0
 10
5.826026837858042
 20
-7.473957778068122
 30
0.0
 10
5.815698274674509
 20
-7.421695189386077
 30
0.0
 10
5.871209617466875
 20
-7.447117349870773
 30
0.0
 10
5.860091206024284
 20
-7.384353238267117
 30
0.0
 10
5.848915141424072
 20
-7.321491116293069
 30
0.0
 10
5.887312144383764
 20
-7.355907169590106
 30
0.0
 10
5.886046901877951
 20
-7.294226937376656
 30
0.0
 10
5.884836185537842
 20
-7.232339153790589
 30
0.0
 10
5.932861267029453
 20
-7.255521489046082
 30
0.0
 10
5.929511373086951
 20
-7.180751107069455
 30
0.0
 10
5.92613289805177
 20
-7.106012434330422
 30
0.0
 10
5.986417922293198
 20
-7.122760677035481
 30
0.0
 10
5.960716144636408
 20
-7.073821792972845
 30
0.0
 10
5.934985540400803
 20
-7.024880026252352
 30
0.0
 10
6.018764474019235
 20
-7.071426304214178
 30
0.0
 10
5.983800468938271
 20
-6.993012242585437
 30
0.0
 10
5.94880788493472
 20
-6.914543410455634
 30
0.0
 10
6.040989766834374
 20
-6.980135409510821
 30
0.0
 10
6.020859918641715
 20
-6.932966477431212
 30
0.0
 10
6.000787971824277
 20
-6.885688004349326
 30
0.0
 10
6.059499064863277
 20
-6.914177312895667
 30
0.0
 10
6.044593089275218
 20
-6.850202484951877
 30
0.0
 10
6.029686617069804
 20
-6.786201713086534
 30
0.0
 10
6.098262165373701
 20
-6.815746074443521
 30
0.0
 10
6.070435868859451
 20
-6.753913061358591
 30
0.0
 10
6.042592276397929
 20
-6.692022395114564
 30
0.0
 10
6.109409403395122
 20
-6.75365938745876
 30
0.0
 10
6.086100231778598
 20
-6.670612894500082
 30
0.0
 10
6.062791060162074
 20
-6.58775089165033
 30
0.0
 10
6.13874332998052
 20
-6.678932245351486
 30
0.0
 10
6.120037762998132
 20
-6.607569165074993
 30
0.0
 10
6.101303369436967
 20
-6.536263737957547
 30
0.0
 10
6.146990614174784
 20
-6.534067152597622
 30
0.0
 10
6.134998757394593
 20
-6.49357157367841
 30
0.0
 10
6.123090497692904
 20
-6.452977984388806
 30
0.0
 10
6.166739703309657
 20
-6.503424498560662
 30
0.0
 10
6.162447425726567
 20
-6.412047124118746
 30
0.0
 10
6.158083332872163
 20
-6.320626509807526
 30
0.0
 10
6.216145576712506
 20
-6.469559032932592
 30
0.0
 10
6.220071756744876
 20
-6.358236548116085
 30
0.0
 10
6.223983523487832
 20
-6.246928476589371
 30
0.0
 10
6.2742887861492
 20
-6.381222862630743
 30
0.0
 10
6.285761764511031
 20
-6.305031330283529
 30
0.0
 10
6.297191503004645
 20
-6.228785027435201
 30
0.0
 10
6.326228771251837
 20
-6.411738679717776
 30
0.0
 10
6.353169836373556
 20
-6.305538678083192
 30
0.0
 10
6.380067917050509
 20
-6.199226252788447
 30
0.0
 10
6.395014498157555
 20
-6.388077823242232
 30
0.0
 10
6.405247933631042
 20
-6.315616450285738
 30
0.0
 10
6.415564966183031
 20
-6.243002296457815
 30
0.0
 10
6.439142483258264
 20
-6.430501900331769
 30
0.0
 10
6.458144705726378
 20
-6.362684489337071
 30
0.0
 10
6.477132773180983
 20
-6.294982384660493
 30
0.0
 10
6.556391451587615
 20
-6.421972115449812
 30
0.0
 10
6.568325655210224
 20
-6.370384068728677
 30
0.0
 10
6.580248590041769
 20
-6.318824848587105
 30
0.0
 10
6.642153406171196
 20
-6.475217690493714
 30
0.0
 10
6.668797812954684
 20
-6.415947360328724
 30
0.0
 10
6.695398979870005
 20
-6.356659734215984
 30
0.0
 10
6.713107147225956
 20
-6.470714978771613
 30
0.0
 10
6.72698426225957
 20
-6.452459105957334
 30
0.0
 10
6.740849846661704
 20
-6.434356014014484
 30
0.0
 10
6.754052419751436
 20
-6.477258612324173
 30
0.0
 10
6.788707732783045
 20
-6.477823613282933
 30
0.0
 10
6.823316923288606
 20
-6.478385731583709
 30
0.0
 10
6.862953469136603
 20
-6.541824385148275
 30
0.0
 10
6.897902813271988
 20
-6.528183647716231
 30
0.0
 10
6.932866570696761
 20
-6.514418955992166
 30
0.0
 10
6.944564396373202
 20
-6.601953747383176
 30
0.0
 10
6.955008265871911
 20
-6.568439966025355
 30
0.0
 10
6.96546654866001
 20
-6.534799347717605
 30
0.0
 10
6.980710043528688
 20
-6.617283722375507
 30
0.0
 10
7.008496255491536
 20
-6.587076349689394
 30
0.0
 10
7.036336692636269
 20
-6.556843033081703
 30
0.0
 10
7.067737484921558
 20
-6.640267154232206
 30
0.0
 10
7.090314461436567
 20
-6.626839733488623
 30
0.0
 10
7.112879907320095
 20
-6.613438256666641
 30
0.0
 10
7.153121811322888
 20
-6.707744411588439
 30
0.0
 10
7.174952179447018
 20
-6.683818350581279
 30
0.0
 10
7.196670123913817
 20
-6.659918233495621
 30
0.0
 10
7.241429152814362
 20
-6.733235755864042
 30
0.0
 10
7.259024896512983
 20
-6.716147359520543
 30
0.0
 10
7.276617757553746
 20
-6.699087789756605
 30
0.0
 10
7.33385004710039
 20
-6.778291699664325
 30
0.0
 10
7.350670355829354
 20
-6.756968678788426
 30
0.0
 10
7.367617783236128
 20
-6.735559178173869
 30
0.0
 10
7.427591198695431
 20
-6.799263036270077
 30
0.0
 10
7.447648732223469
 20
-6.780937979664941
 30
0.0
 10
7.467651495251781
 20
-6.762598509769987
 30
0.0
 10
7.48311983743507
 20
-6.824699610044515
 30
0.0
 10
7.508415160330817
 20
-6.822390601024381
 30
0.0
 10
7.533678773989878
 20
-6.820052765424811
 30
0.0
 10
7.575116981012798
 20
-6.910614347666119
 30
0.0
 10
7.588333967391943
 20
-6.861577453233141
 30
0.0
 10
7.601550953771063
 20
-6.812439665771763
 30
0.0
 10
7.630210338412603
 20
-6.944185782183013
 30
0.0
 10
7.645015958022289
 20
-6.883280984958825
 30
0.0
 10
7.659878653312084
 20
-6.822361774444844
 30
0.0
 10
7.711241851415328
 20
-6.946832062183577
 30
0.0
 10
7.713072339169027
 20
-6.914670247405537
 30
0.0
 10
7.714888413633363
 20
-6.882407539599196
 30
0.0
 10
7.774031905354327
 20
-6.994955154045556
 30
0.0
 10
7.79369451475284
 20
-6.958134964016002
 30
0.0
 10
7.813360006809211
 20
-6.9212571208274
 30
0.0
 10
7.84809603426144
 20
-7.020094814050859
 30
0.0
 10
7.856683472085554
 20
-6.985877664152591
 30
0.0
 10
7.865227670041476
 20
-6.951772937914458
 30
0.0
 10
7.895461280950914
 20
-7.038858034664852
 30
0.0
 10
7.91278864240121
 20
-7.009509694048599
 30
0.0
 10
7.930142242837923
 20
-6.980077756351748
 30
0.0
 10
7.987668563488316
 20
-7.045064397236956
 30
0.0
 10
7.998072075776715
 20
-7.038082599675564
 30
0.0
 10
8.0084038195368
 20
-7.031060444902853
 30
0.0
 10
8.066745634448504
 20
-7.073778553103592
 30
0.0
 10
8.100317068117294
 20
-7.05145524991806
 30
0.0
 10
8.133914746796385
 20
-7.029103120152993
 30
0.0
 10
8.179576048766824
 20
-7.026920948082786
 30
0.0
 10
8.200137745180957
 20
-6.973969404150061
 30
0.0
 10
8.220676682574902
 20
-6.921058217428658
 30
0.0
 10
8.230077029921125
 20
-6.897440600822392
 30
0.0
 10
8.219140225924926
 20
-6.814128903332024
 30
0.0
 10
8.208177478007858
 20
-6.730900802922355
 30
0.0
 10
8.191850103776334
 20
-6.717611749760484
 30
0.0
 10
8.17369224179116
 20
-6.677257421080943
 30
0.0
 10
8.155574737016245
 20
-6.636761842161755
 30
0.0
 10
8.109746242042295
 20
-6.632737651659808
 30
0.0
 10
8.135125463136546
 20
-6.603867832263732
 30
0.0
 10
8.160530025911738
 20
-6.574859645285945
 30
0.0
 10
8.075093811668593
 20
-6.599391064463235
 30
0.0
 10
8.07517740874707
 20
-6.572887907246341
 30
0.0
 10
8.075261005825622
 20
-6.546298270290814
 30
0.0
 10
8.025350667293777
 20
-6.555393056131505
 30
0.0
 10
8.033739201724176
 20
-6.54159953782798
 30
0.0
 10
8.042113322865134
 20
-6.527817550156215
 30
0.0
 10
7.98558728449906
 20
-6.545047196739384
 30
0.0
 10
8.002661267121438
 20
-6.503326488190269
 30
0.0
 10
8.019761491870364
 20
-6.46148182534921
 30
0.0
 10
7.918487657029648
 20
-6.497555406969013
 30
0.0
 10
7.936971555469476
 20
-6.464367365959813
 30
0.0
 10
7.955466392312448
 20
-6.431274452663072
 30
0.0
 10
7.859597839202074
 20
-6.489478199385606
 30
0.0
 10
7.881736651719367
 20
-6.42474523240028
 30
0.0
 10
7.903947530683657
 20
-6.360038209336532
 30
0.0
 10
7.827519622315044
 20
-6.401715678016343
 30
0.0
 10
7.846576873558787
 20
-6.366725975786721
 30
0.0
 10
7.865648538091919
 20
-6.331704564319655
 30
0.0
 10
7.779817399719199
 20
-6.364290129816709
 30
0.0
 10
7.790808974215097
 20
-6.328945860658955
 30
0.0
 10
7.801858201868576
 20
-6.293419984050135
 30
0.0
 10
7.7152516285262
 20
-6.321782455646548
 30
0.0
 10
7.713311599773053
 20
-6.288493521609022
 30
0.0
 10
7.711423458861746
 20
-6.2550633373318
 30
0.0
 10
7.650493008132369
 20
-6.266830347094633
 30
0.0
 10
7.646832032532479
 20
-6.239102060247811
 30
0.0
 10
7.643144824319506
 20
-6.211428543902153
 30
0.0
 10
7.594949667226198
 20
-6.241425482557688
 30
0.0
 10
7.586448709138494
 20
-6.189598175226516
 30
0.0
 10
7.578045761418707
 20
-6.137915000792948
 30
0.0
 10
7.527599248521256
 20
-6.181561324854429
 30
0.0
 10
7.517365813047743
 20
-6.135381144452544
 30
0.0
 10
7.507204444021276
 20
-6.089212494682467
 30
0.0
 10
7.451367360888475
 20
-6.143599602275647
 30
0.0
 10
7.432194803329568
 20
-6.080261841739381
 30
0.0
 10
7.412981888560327
 20
-6.016935611834975
 30
0.0
 10
7.375582285227058
 20
-6.064790616507404
 30
0.0
 10
7.374965396440782
 20
-6.033882757938752
 30
0.0
 10
7.374414808785736
 20
-6.002888419631593
 30
0.0
 10
7.303417827862782
 20
-6.040201544171041
 30
0.0
 10
7.297534323129967
 20
-5.993441949520641
 30
0.0
 10
7.291650818397202
 20
-5.946515160709029
 30
0.0
 10
7.248932711275605
 20
-6.004857275013263
 30
0.0
 10
7.247425081204457
 20
-5.96340465365376
 30
0.0
 10
7.245989517580306
 20
-5.922093282533928
 30
0.0
 10
7.164874407499028
 20
-5.946007812909341
 30
0.0
 10
7.171051943335568
 20
-5.91314262959088
 30
0.0
 10
7.177174708672358
 20
-5.880162139954286
 30
0.0
 10
7.090314461436567
 20
-5.896238723356368
 30
0.0
 10
7.090259690936868
 20
-5.863497494329875
 30
0.0
 10
7.090216451068651
 20
-5.830675550880667
 30
0.0
 10
7.040136035721944
 20
-5.860104605919572
 30
0.0
 10
7.042375860894581
 20
-5.819877114189934
 30
0.0
 10
7.044670456566942
 20
-5.779678449039844
 30
0.0
 10
6.970574618423143
 20
-5.873252408841709
 30
0.0
 10
6.978726774907373
 20
-5.787772952570966
 30
0.0
 10
6.986876320846451
 20
-5.702279083010467
 30
0.0
 10
6.916524783175848
 20
-5.770459708907197
 30
0.0
 10
6.933740016034335
 20
-5.734905005718878
 30
0.0
 10
6.950969662182236
 20
-5.699379129110071
 30
0.0
 10
6.859407799944393
 20
-5.756833384764882
 30
0.0
 10
6.888586063004292
 20
-5.702503930330787
 30
0.0
 10
6.917779009720814
 20
-5.648142766659185
 30
0.0
 10
6.784865149829228
 20
-5.7397882282907
 30
0.0
 10
6.815548160302392
 20
-5.667482518863696
 30
0.0
 10
6.846219640144025
 20
-5.595147982857143
 30
0.0
 10
6.764075687684024
 20
-5.688243421438882
 30
0.0
 10
6.789270118190416
 20
-5.620414479812376
 30
0.0
 10
6.814449867650157
 20
-5.552487527815489
 30
0.0
 10
6.703170625514101
 20
-5.581426531002421
 30
0.0
 10
6.764314681803701
 20
-5.549250302934612
 30
0.0
 10
6.825470268724858
 20
-5.517030834997538
 30
0.0
 10
6.712092451652248
 20
-5.473620888888162
 30
0.0
 10
6.791408783216487
 20
-5.481871055948747
 30
0.0
 10
6.870710701491311
 20
-5.49016158022064
 30
0.0
 10
6.74453676609005
 20
-5.395699761769353
 30
0.0
 10
6.799333209728198
 20
-5.416855588484041
 30
0.0
 10
6.854158748705205
 20
-5.437982588619219
 30
0.0
 10
6.818603777655021
 20
-5.361453785291524
 30
0.0
 10
6.849750896046897
 20
-5.373177555185053
 30
0.0
 10
6.880886483807191
 20
-5.384832141287752
 30
0.0
 10
6.848992757024462
 20
-5.303350931597379
 30
0.0
 10
6.879534517261542
 20
-5.316974373081721
 30
0.0
 10
6.910093573445894
 20
-5.330517100143399
 30
0.0
 10
6.91335962482377
 20
-5.247640684003916
 30
0.0
 10
6.94510057073886
 20
-5.257508022175911
 30
0.0
 10
6.976783863496317
 20
-5.267372477689984
 30
0.0
 10
6.969704055743401
 20
-5.191449032532369
 30
0.0
 10
7.018222070519262
 20
-5.206539746914649
 30
0.0
 10
7.066725946135648
 20
-5.221627578638959
 30
0.0
 10
7.009409785380537
 20
-5.136289372607899
 30
0.0
 10
7.068288072576605
 20
-5.144355049559484
 30
0.0
 10
7.127180773062037
 20
-5.152406313221314
 30
0.0
 10
7.073087697946574
 20
-5.076200367584343
 30
0.0
 10
7.123465027054912
 20
-5.091879144188939
 30
0.0
 10
7.173853886794783
 20
-5.107560803451494
 30
0.0
 10
7.09048453825148
 20
-5.020265272670561
 30
0.0
 10
7.166451221359314
 20
-5.045938224397105
 30
0.0
 10
7.242415021809266
 20
-5.071570818912329
 30
0.0
 10
7.179258870319497
 20
-4.978305303511383
 30
0.0
 10
7.220570240395747
 20
-5.003401723647395
 30
0.0
 10
7.261910716111414
 20
-5.028555796942454
 30
0.0
 10
7.248595440303689
 20
-4.952759188734768
 30
0.0
 10
7.28348713128144
 20
-4.965638904467318
 30
0.0
 10
7.318367291627687
 20
-4.978544564121472
 30
0.0
 10
7.314608305752371
 20
-4.885267518088729
 30
0.0
 10
7.353244569316075
 20
-4.899340654213688
 30
0.0
 10
7.391826062380055
 20
-4.913445499576128
 30
0.0
 10
7.389897564258439
 20
-4.814550153193636
 30
0.0
 10
7.42283481319368
 20
-4.826882163915204
 30
0.0
 10
7.455855943167585
 20
-4.839156521477699
 30
0.0
 10
7.429026762319609
 20
-4.767369690482155
 30
0.0
 10
7.506697096234397
 20
-4.754645638279056
 30
0.0
 10
7.584309776991631
 20
-4.741979239234992
 30
0.0
 10
7.528204606676026
 20
-4.718401979840033
 30
0.0
 10
7.571752919267005
 20
-4.70327090824642
 30
0.0
 10
7.61537329830498
 20
-4.688183076522098
 30
0.0
 10
7.587209730818762
 20
-4.640506796642777
 30
0.0
 10
7.620441010857752
 20
-4.63242958905937
 30
0.0
 10
7.653643464317939
 20
-4.62437832539754
 30
0.0
 10
7.647422688613207
 20
-4.532395592785583
 30
0.0
 10
7.707160007857434
 20
-4.518178323762968
 30
0.0
 10
7.766782020786523
 20
-4.503946641450574
 30
0.0
 10
7.738266769038975
 20
-4.437835763963865
 30
0.0
 10
7.792570278179684
 20
-4.434261268102558
 30
0.0
 10
7.846899731241339
 20
-4.430657945661728
 30
0.0
 10
7.797145056235043
 20
-4.353777458063809
 30
0.0
 10
7.854614017761504
 20
-4.353226870394843
 30
0.0
 10
7.912085273878498
 20
-4.352707991963358
 30
0.0
 10
7.877937308633742
 20
-4.284763744018745
 30
0.0
 10
7.914506706497579
 20
-4.259286813032986
 30
0.0
 10
7.951102048282337
 20
-4.233783938125649
 30
0.0
 10
8.022606376992169
 20
-4.194680682997588
 30
0.0
 10
8.003658666747848
 20
-4.143770060895311
 30
0.0
 10
7.984699425872046
 20
-4.092816198923818
 30
0.0
 10
7.968063607247409
 20
-4.093787654653877
 30
0.0
 10
7.988175911275144
 20
-4.048858547803434
 30
0.0
 10
8.008247858092595
 20
-4.003972680822281
 30
0.0
 10
7.915195661730851
 20
-4.020060794856186
 30
0.0
 10
7.918095615558008
 20
-4.010715217773597
 30
0.0
 10
7.920995569385139
 20
-4.001384053980776
 30
0.0
 10
7.843564496074324
 20
-3.960943245562678
 30
0.0
 10
7.847631926342804
 20
-3.94789633566884
 30
0.0
 10
7.851699356611308
 20
-3.934820599195505
 30
0.0
 10
7.696857388594859
 20
-3.978749423736354
 30
0.0
 10
7.719630385845701
 20
-3.944898371398077
 30
0.0
 10
7.742417796385957
 20
-3.911073262981328
 30
0.0
 10
7.596540894375872
 20
-3.972090483865663
 30
0.0
 10
7.597552707291698
 20
-3.962197201772091
 30
0.0
 10
7.598581816154794
 20
-3.952301037020561
 30
0.0
 10
7.537858627915663
 20
-4.035728040828985
 30
0.0
 10
7.544800068090353
 20
-4.01339032435366
 30
0.0
 10
7.551778982817495
 20
-3.99095171485006
 30
0.0
 10
7.488553647538638
 20
-4.042905859131135
 30
0.0
 10
7.487371757807876
 20
-4.01389478949539
 30
0.0
 10
7.486103388340754
 20
-3.984843362648323
 30
0.0
 10
7.433673606821912
 20
-4.140420412354337
 30
0.0
 10
7.427931352325231
 20
-4.073196828897872
 30
0.0
 10
7.422298638828023
 20
-4.005944418861923
 30
0.0
 10
7.357314882242437
 20
-4.155609137106972
 30
0.0
 10
7.353639493445623
 20
-4.127877967602242
 30
0.0
 10
7.349992931227588
 20
-4.100149680755433
 30
0.0
 10
7.310526462194477
 20
-4.227081758385667
 30
0.0
 10
7.299814505512964
 20
-4.156185668697528
 30
0.0
 10
7.28914578869962
 20
-4.085286696351432
 30
0.0
 10
7.236560343655279
 20
-4.267464913644718
 30
0.0
 10
7.221132358682275
 20
-4.20536381337019
 30
0.0
 10
7.205609245999262
 20
-4.143248299805906
 30
0.0
 10
7.170432171891384
 20
-4.328779048298176
 30
0.0
 10
7.151810201987523
 20
-4.263607917304057
 30
0.0
 10
7.133217058662467
 20
-4.198468495547382
 30
0.0
 10
7.088218769157922
 20
-4.329819687819104
 30
0.0
 10
7.08273018855468
 20
-4.301471629512472
 30
0.0
 10
7.077183954793806
 20
-4.273181224364874
 30
0.0
 10
7.045569845825437
 20
-4.388161802123325
 30
0.0
 10
7.030706861796918
 20
-4.356971443075369
 30
0.0
 10
7.015855408399905
 20
-4.325752257447852
 30
0.0
 10
6.993532105778286
 20
-4.443606845185147
 30
0.0
 10
6.981384585472597
 20
-4.39689049040405
 30
0.0
 10
6.969337958192682
 20
-4.350200079544518
 30
0.0
 10
6.915752230864048
 20
-4.482891707764225
 30
0.0
 10
6.898903095556281
 20
-4.444944398475197
 30
0.0
 10
6.882111613406121
 20
-4.406968262606597
 30
0.0
 10
6.853792382394431
 20
-4.563894396234446
 30
0.0
 10
6.832578903056603
 20
-4.526610098274532
 30
0.0
 10
6.811480730033913
 20
-4.489380570815708
 30
0.0
 10
6.756684286395739
 20
-4.593072660031465
 30
0.0
 10
6.747704807099985
 20
-4.575972733056195
 30
0.0
 10
6.738725327804231
 20
-4.558855510133185
 30
0.0
 10
6.679535713557167
 20
-4.689829074213068
 30
0.0
 10
6.661380734229826
 20
-4.649417092374493
 30
0.0
 10
6.643263492887298
 20
-4.608935926745036
 30
0.0
 10
6.592283424849685
 20
-4.746608787906994
 30
0.0
 10
6.575267095384914
 20
-4.702481059967391
 30
0.0
 10
6.55831994970923
 20
-4.658327388106234
 30
0.0
 10
6.491024301504012
 20
-4.782685252184756
 30
0.0
 10
6.488182000834462
 20
-4.765426779022063
 30
0.0
 10
6.485351490239635
 20
-4.748142361937817
 30
0.0
 10
6.412117307358736
 20
-4.825685860864824
 30
0.0
 10
6.403319435509426
 20
-4.788145006347109
 30
0.0
 10
6.394535976949505
 20
-4.750635861066876
 30
0.0
 10
6.339880783547439
 20
-4.827781553196435
 30
0.0
 10
6.339938436705021
 20
-4.801235156110224
 30
0.0
 10
6.339952849994435
 20
-4.77460516194339
 30
0.0
 10
6.252585254971765
 20
-4.884564149548257
 30
0.0
 10
6.258906923702297
 20
-4.831272451977118
 30
0.0
 10
6.265294893564057
 20
-4.777998050353694
 30
0.0
 10
6.206771425692876
 20
-4.788427506826489
 30
0.0
 10
6.210374748133694
 20
-4.783431860594495
 30
0.0
 10
6.213978070574563
 20
-4.778447744994296
 30
0.0
 10
6.155944149549618
 20
-4.780825937805262
 30
0.0
 10
6.1651917160282
 20
-4.718191545809481
 30
0.0
 10
6.174396042638565
 20
-4.655568684445521
 30
0.0
 10
6.112098923197006
 20
-4.691446245324553
 30
0.0
 10
6.121473576873137
 20
-4.66777097555919
 30
0.0
 10
6.13090250054731
 20
-4.644110119083633
 30
0.0
 10
6.072687224663619
 20
-4.607529189664155
 30
0.0
 10
6.079640195469842
 20
-4.585177059899075
 30
0.0
 10
6.086622242225277
 20
-4.562784572922687
 30
0.0
 10
6.053869234023927
 20
-4.562839343423787
 30
0.0
 10
6.05284012516083
 20
-4.51336428498199
 30
0.0
 10
6.051813898955591
 20
-4.463958410331062
 30
0.0
 10
5.984475010882167
 20
-4.496247062058993
 30
0.0
 10
5.981632710212643
 20
-4.446238711895944
 30
0.0
 10
5.978775996253691
 20
-4.396213065785168
 30
0.0
 10
5.92932688298265
 20
-4.39719893480497
 30
0.0
 10
5.931635891944425
 20
-4.357000269654906
 30
0.0
 10
5.933887247748594
 20
-4.316743951345744
 30
0.0
 10
5.901754260361827
 20
-4.314927876835554
 30
0.0
 10
5.890338935157615
 20
-4.272489386456262
 30
0.0
 10
5.878966849821571
 20
-4.230068192024646
 30
0.0
 10
5.836303513199722
 20
-4.261849495952927
 30
0.0
 10
5.834121341184654
 20
-4.183406607744637
 30
0.0
 10
5.831898811959288
 20
-4.10494930624663
 30
0.0
 10
5.760985428114862
 20
-4.082865263671149
 30
0.0
 10
5.761043081272444
 20
-4.05629004000544
 30
0.0
 10
5.761141332788447
 20
-4.029732112287421
 30
0.0
 10
5.699068819513437
 20
-4.045186041571709
 30
0.0
 10
5.689509925983834
 20
-3.970600149704144
 30
0.0
 10
5.679953915112113
 20
-3.896028671126323
 30
0.0
 10
5.618118020931332
 20
-3.956593314712058
 30
0.0
 10
5.642075790570806
 20
-3.919012102983022
 30
0.0
 10
5.666059504131213
 20
-3.881402064674426
 30
0.0
 10
5.590770245625158
 20
-3.886668680753966
 30
0.0
 10
5.607913412036648
 20
-3.851113977565647
 30
0.0
 10
5.625143058184549
 20
-3.81551603450805
 30
0.0
 10
5.567348650351315
 20
-3.830266595251891
 30
0.0
 10
5.570205364310267
 20
-3.788208615722308
 30
0.0
 10
5.573021721058871
 20
-3.746139105560941
 30
0.0
 10
5.516706116718006
 20
-3.742927824601666
 30
0.0
 10
5.519392753862045
 20
-3.721224292875945
 30
0.0
 10
5.522067860374553
 20
-3.699549587729785
 30
0.0
 10
5.467285830025781
 20
-3.71118976054269
 30
0.0
 10
5.47849072120477
 20
-3.655295022840265
 30
0.0
 10
5.489695612383772
 20
-3.599443525007132
 30
0.0
 10
5.444723266800148
 20
-3.665245958092909
 30
0.0
 10
5.425934102739246
 20
-3.593911704395964
 30
0.0
 10
5.407170882599277
 20
-3.522606277278517
 30
0.0
 10
5.347883488692572
 20
-3.555330210357308
 30
0.0
 10
5.346320857413401
 20
-3.507754823506338
 30
0.0
 10
5.344703686342806
 20
-3.460193849945098
 30
0.0
 10
5.292622935739764
 20
-3.450144904322049
 30
0.0
 10
5.289399894917765
 20
-3.414350940523668
 30
0.0
 10
5.286220323276287
 20
-3.378542563435505
 30
0.0
 10
5.233885669467516
 20
-3.421670009065501
 30
0.0
 10
5.219486793357646
 20
-3.34963238682811
 30
0.0
 10
5.205004320169248
 20
-3.277580351300925
 30
0.0
 10
5.161594375156495
 20
-3.331615774623868
 30
0.0
 10
5.149406497640471
 20
-3.278664230691119
 30
0.0
 10
5.137190018931404
 20
-3.22578187054925
 30
0.0
 10
5.112923579513019
 20
-3.277635121802025
 30
0.0
 10
5.100438788235364
 20
-3.238926790813467
 30
0.0
 10
5.087838914781539
 20
-3.200221342482855
 30
0.0
 10
5.011283945327187
 20
-3.203020403354913
 30
0.0
 10
4.998966570100505
 20
-3.176644083087909
 30
0.0
 10
4.986680460322632
 20
-3.150322533322019
 30
0.0
 10
4.938373099935208
 20
-3.174237063697433
 30
0.0
 10
4.912319417653874
 20
-3.139472208788144
 30
0.0
 10
4.886291899656663
 20
-3.104773655011766
 30
0.0
 10
4.862703328677425
 20
-3.193634469060991
 30
0.0
 10
4.840532588471837
 20
-3.166269397116227
 30
0.0
 10
4.81833612279695
 20
-3.138921621119203
 30
0.0
 10
4.768719815368879
 20
-3.193083881392037
 30
0.0
 10
4.773591507185819
 20
-3.217110835427598
 30
0.0
 10
4.778405545845177
 20
-3.241123376173416
 30
0.0
 10
4.76017561741297
 20
-3.319370243640896
 30
0.0
 10
4.778996490710559
 20
-3.331347687434269
 30
0.0
 10
4.797759710850528
 20
-3.343310717937887
 30
0.0
 10
4.810088838602685
 20
-3.402413853941627
 30
0.0
 10
4.832481325013393
 20
-3.409381238213225
 30
0.0
 10
4.854862499046147
 20
-3.416348622484874
 30
0.0
 10
4.773493496817915
 20
-3.427876371637606
 30
0.0
 10
4.820953576151851
 20
-3.45291802127253
 30
0.0
 10
4.868488604590665
 20
-3.477873191168871
 30
0.0
 10
4.811636825884155
 20
-3.509374877275743
 30
0.0
 10
4.841406033809423
 20
-3.518622443987902
 30
0.0
 10
4.871359731838993
 20
-3.527939194490955
 30
0.0
 10
4.822319955986914
 20
-3.547405783645407
 30
0.0
 10
4.8479929070649
 20
-3.563620734629227
 30
0.0
 10
4.873625500932576
 20
-3.579780915111933
 30
0.0
 10
4.835594595523641
 20
-3.623162034641761
 30
0.0
 10
4.87163956833073
 20
-3.632308708325606
 30
0.0
 10
4.907701619318724
 20
-3.641530331116238
 30
0.0
 10
4.877370073518515
 20
-3.732371531178956
 30
0.0
 10
4.914219089196687
 20
-3.752022610442357
 30
0.0
 10
4.951111344743077
 20
-3.771714046917105
 30
0.0
 10
4.924354514302283
 20
-3.824821254379294
 30
0.0
 10
4.951857953133968
 20
-3.841555083794573
 30
0.0
 10
4.979430575754791
 20
-3.85829179586781
 30
0.0
 10
4.964680015383565
 20
-3.89256659892515
 30
0.0
 10
5.019023881734597
 20
-3.921770806643735
 30
0.0
 10
5.073413870611716
 20
-3.950923126519178
 30
0.0
 10
4.968635021994739
 20
-3.965420013363162
 30
0.0
 10
5.033324747476576
 20
-3.987602066309023
 30
0.0
 10
5.098101177093073
 20
-4.009758175333319
 30
0.0
 10
5.026331419460044
 20
-4.036558246319361
 30
0.0
 10
5.06243382674735
 20
-4.051942991812792
 30
0.0
 10
5.098608300481652
 20
-4.067298910726688
 30
0.0
 10
5.036069037778184
 20
-4.090818516962612
 30
0.0
 10
5.079718243394963
 20
-4.108440205027313
 30
0.0
 10
5.123309795854134
 20
-4.126105132961306
 30
0.0
 10
5.084108531345982
 20
-4.173285595672787
 30
0.0
 10
5.112767915987496
 20
-4.186263321775742
 30
0.0
 10
5.141510897707538
 20
-4.19932752761728
 30
0.0
 10
5.10612338957445
 20
-4.253798232291097
 30
0.0
 10
5.127942227067061
 20
-4.262624930942201
 30
0.0
 10
5.149743768612425
 20
-4.271448746935334
 30
0.0
 10
5.128193018302619
 20
-4.334282042329834
 30
0.0
 10
5.151842343548954
 20
-4.343725629782827
 30
0.0
 10
5.175543556637118
 20
-4.353114446734669
 30
0.0
 10
5.14107273370981
 20
-4.391583517113152
 30
0.0
 10
5.179230476065464
 20
-4.413653146398866
 30
0.0
 10
5.217391101078988
 20
-4.435766015553869
 30
0.0
 10
5.111473602599454
 20
-4.427406307491095
 30
0.0
 10
5.174615340799808
 20
-4.461355370199777
 30
0.0
 10
5.237702308500439
 20
-4.49529001961869
 30
0.0
 10
5.172842506203702
 20
-4.526272827294077
 30
0.0
 10
5.202977811679703
 20
-4.547892761939162
 30
0.0
 10
5.233069877287511
 20
-4.569553053795567
 30
0.0
 10
5.183678417174065
 20
-4.603320509053244
 30
0.0
 10
5.222992105339535
 20
-4.621703218817452
 30
0.0
 10
5.262320206794407
 20
-4.640057102002149
 30
0.0
 10
5.217405514368377
 20
-4.679272780790395
 30
0.0
 10
5.247976101184248
 20
-4.692925048854287
 30
0.0
 10
5.278491917500395
 20
-4.706493719837517
 30
0.0
 10
5.243865431047563
 20
-4.738698774484823
 30
0.0
 10
5.279365362837994
 20
-4.749762415707222
 30
0.0
 10
5.314836468049621
 20
-4.760797230350059
 30
0.0
 10
5.243753007390258
 20
-4.791903992317404
 30
0.0
 10
5.304770226733151
 20
-4.812918568792421
 30
0.0
 10
5.365801859365471
 20
-4.833889905398147
 30
0.0
 10
5.250368707224525
 20
-4.843025048450183
 30
0.0
 10
5.300858459990195
 20
-4.86491307028488
 30
0.0
 10
5.351374156676784
 20
-4.886729025670724
 30
0.0
 10
5.282758251162591
 20
-4.916599127376381
 30
0.0
 10
5.318200529795414
 20
-4.927619528729476
 30
0.0
 10
5.353639925770342
 20
-4.938654343372314
 30
0.0
 10
5.287148539113597
 20
-4.981415691442331
 30
0.0
 10
5.327517280063097
 20
-4.989861879243689
 30
0.0
 10
5.367857194433794
 20
-4.998334010966598
 30
0.0
 10
5.286557594248229
 20
-5.042602989145873
 30
0.0
 10
5.327586463852223
 20
-5.055381811850098
 30
0.0
 10
5.368647042692879
 20
-5.068134690632746
 30
0.0
 10
5.256379048904035
 20
-5.08033986440436
 30
0.0
 10
5.346672772352475
 20
-5.112530505761937
 30
0.0
 10
5.436954503813947
 20
-5.144605840801369
 30
0.0
 10
5.336623596305558
 20
-5.164579777755471
 30
0.0
 10
5.370220973895281
 20
-5.175023647518009
 30
0.0
 10
5.403821234142874
 20
-5.18546751728056
 30
0.0
 10
5.339255462949874
 20
-5.202258999854911
 30
0.0
 10
5.359552257081936
 20
-5.229059070840941
 30
0.0
 10
5.379906704371605
 20
-5.255818784615674
 30
0.0
 10
5.279941894413974
 20
-5.175686658847123
 30
0.0
 10
5.290175329887461
 20
-5.221852425959241
 30
0.0
 10
5.300394352071546
 20
-5.267908652069195
 30
0.0
 10
5.225174277354578
 20
-5.246571217903465
 30
0.0
 10
5.22297791960308
 20
-5.260237899257112
 30
0.0
 10
5.219348425779395
 20
-5.28270245268234
 30
0.0
 10
5.202049822866633
 20
-5.284798145013938
 30
0.0
 10
5.186255513318669
 20
-5.288430294034305
 30
0.0
  0
HATCH
  5
46
330
41
100
AcDbEntity
  8
Layer 1
 62
     7
420
 16777215
100
AcDbHatch
 10
0.0
 20
0.0
 30
0.0
210
0.0
220
0.0
230
1.0
  2
SOLID
 70
     1
 71
     0
 91
        1
 92
        1
 93
        1
 72
     4
 94
        3
 73
     0
 74
     1
 95
      716
 96
      712
 40
0.0
 40
0.0
 40
0.0
 40
0.0
 40
1.0
 40
1.0
 40
1.0
 40
2.0
 40
2.0
 40
2.0
 40
3.0
 40
3.0
 40
3.0
 40
4.0
 40
4.0
 40
4.0
 40
5.0
 40
5.0
 40
5.0
 40
6.0
 40
6.0
 40
6.0
 40
7.0
 40
7.0
 40
7.0
 40
8.0
 40
8.0
 40
8.0
 40
9.0
 40
9.0
 40
9.0
 40
10.0
 40
10.0
 40
10.0
 40
11.0
 40
11.0
 40
11.0
 40
12.0
 40
12.0
 40
12.0
 40
13.0
 40
13.0
 40
13.0
 40
14.0
 40
14.0
 40
14.0
 40
15.0
 40
15.0
 40
15.0
 40
16.0
 40
16.0
 40
16.0
 40
17.0
 40
17.0
 40
17.0
 40
18.0
 40
18.0
 40
18.0
 40
19.0
 40
19.0
 40
19.0
 40
20.0
 40
20.0
 40
20.0
 40
21.0
 40
21.0
 40
21.0
 40
22.0
 40
22.0
 40
22.0
 40
23.0
 40
23.0
 40
23.0
 40
24.0
 40
24.0
 40
24.0
 40
25.0
 40
25.0
 40
25.0
 40
26.0
 40
26.0
 40
26.0
 40
27.0
 40
27.0
 40
27.0
 40
28.0
 40
28.0
 40
28.0
 40
29.0
 40
29.0
 40
29.0
 40
30.0
 40
30.0
 40
30.0
 40
31.0
 40
31.0
 40
31.0
 40
32.0
 40
32.0
 40
32.0
 40
33.0
 40
33.0
 40
33.0
 40
34.0
 40
34.0
 40
34.0
 40
35.0
 40
35.0
 40
35.0
 40
36.0
 40
36.0
 40
36.0
 40
37.0
 40
37.0
 40
37.0
 40
38.0
 40
38.0
 40
38.0
 40
39.0
 40
39.0
 40
39.0
 40
40.0
 40
40.0
 40
40.0
 40
41.0
 40
41.0
 40
41.0
 40
42.0
 40
42.0
 40
42.0
 40
43.0
 40
43.0
 40
43.0
 40
44.0
 40
44.0
 40
44.0
 40
45.0
 40
45.0
 40
45.0
 40
46.0
 40
46.0
 40
46.0
 40
47.0
 40
47.0
 40
47.0
 40
48.0
 40
48.0
 40
48.0
 40
49.0
 40
49.0
 40
49.0
 40
50.0
 40
50.0
 40
50.0
 40
51.0
 40
51.0
 40
51.0
 40
52.0
 40
52.0
 40
52.0
 40
53.0
 40
53.0
 40
53.0
 40
54.0
 40
54.0
 40
54.0
 40
55.0
 40
55.0
 40
55.0
 40
56.0
 40
56.0
 40
56.0
 40
57.0
 40
57.0
 40
57.0
 40
58.0
 40
58.0
 40
58.0
 40
59.0
 40
59.0
 40
59.0
 40
60.0
 40
60.0
 40
60.0
 40
61.0
 40
61.0
 40
61.0
 40
62.0
 40
62.0
 40
62.0
 40
63.0
 40
63.0
 40
63.0
 40
64.0
 40
64.0
 40
64.0
 40
65.0
 40
65.0
 40
65.0
 40
66.0
 40
66.0
 40
66.0
 40
67.0
 40
67.0
 40
67.0
 40
68.0
 40
68.0
 40
68.0
 40
69.0
 40
69.0
 40
69.0
 40
70.0
 40
70.0
 40
70.0
 40
71.0
 40
71.0
 40
71.0
 40
72.0
 40
72.0
 40
72.0
 40
73.0
 40
73.0
 40
73.0
 40
74.0
 40
74.0
 40
74.0
 40
75.0
 40
75.0
 40
75.0
 40
76.0
 40
76.0
 40
76.0
 40
77.0
 40
77.0
 40
77.0
 40
78.0
 40
78.0
 40
78.0
 40
79.0
 40
79.0
 40
79.0
 40
80.0
 40
80.0
 40
80.0
 40
81.0
 40
81.0
 40
81.0
 40
82.0
 40
82.0
 40
82.0
 40
83.0
 40
83.0
 40
83.0
 40
84.0
 40
84.0
 40
84.0
 40
85.0
 40
85.0
 40
85.0
 40
86.0
 40
86.0
 40
86.0
 40
87.0
 40
87.0
 40
87.0
 40
88.0
 40
88.0
 40
88.0
 40
89.0
 40
89.0
 40
89.0
 40
90.0
 40
90.0
 40
90.0
 40
91.0
 40
91.0
 40
91.0
 40
92.0
 40
92.0
 40
92.0
 40
93.0
 40
93.0
 40
93.0
 40
94.0
 40
94.0
 40
94.0
 40
95.0
 40
95.0
 40
95.0
 40
96.0
 40
96.0
 40
96.0
 40
97.0
 40
97.0
 40
97.0
 40
98.0
 40
98.0
 40
98.0
 40
99.0
 40
99.0
 40
99.0
 40
100.0
 40
100.0
 40
100.0
 40
101.0
 40
101.0
 40
101.0
 40
102.0
 40
102.0
 40
102.0
 40
103.0
 40
103.0
 40
103.0
 40
104.0
 40
104.0
 40
104.0
 40
105.0
 40
105.0
 40
105.0
 40
106.0
 40
106.0
 40
106.0
 40
107.0
 40
107.0
 40
107.0
 40
108.0
 40
108.0
 40
108.0
 40
109.0
 40
109.0
 40
109.0
 40
110.0
 40
110.0
 40
110.0
 40
111.0
 40
111.0
 40
111.0
 40
112.0
 40
112.0
 40
112.0
 40
113.0
 40
113.0
 40
113.0
 40
114.0
 40
114.0
 40
114.0
 40
115.0
 40
115.0
 40
115.0
 40
116.0
 40
116.0
 40
116.0
 40
117.0
 40
117.0
 40
117.0
 40
118.0
 40
118.0
 40
118.0
 40
119.0
 40
119.0
 40
119.0
 40
120.0
 40
120.0
 40
120.0
 40
121.0
 40
121.0
 40
121.0
 40
122.0
 40
122.0
 40
122.0
 40
123.0
 40
123.0
 40
123.0
 40
124.0
 40
124.0
 40
124.0
 40
125.0
 40
125.0
 40
125.0
 40
126.0
 40
126.0
 40
126.0
 40
127.0
 40
127.0
 40
127.0
 40
128.0
 40
128.0
 40
128.0
 40
129.0
 40
129.0
 40
129.0
 40
130.0
 40
130.0
 40
130.0
 40
131.0
 40
131.0
 40
131.0
 40
132.0
 40
132.0
 40
132.0
 40
133.0
 40
133.0
 40
133.0
 40
134.0
 40
134.0
 40
134.0
 40
135.0
 40
135.0
 40
135.0
 40
136.0
 40
136.0
 40
136.0
 40
137.0
 40
137.0
 40
137.0
 40
138.0
 40
138.0
 40
138.0
 40
139.0
 40
139.0
 40
139.0
 40
140.0
 40
140.0
 40
140.0
 40
141.0
 40
141.0
 40
141.0
 40
142.0
 40
142.0
 40
142.0
 40
143.0
 40
143.0
 40
143.0
 40
144.0
 40
144.0
 40
144.0
 40
145.0
 40
145.0
 40
145.0
 40
146.0
 40
146.0
 40
146.0
 40
147.0
 40
147.0
 40
147.0
 40
148.0
 40
148.0
 40
148.0
 40
149.0
 40
149.0
 40
149.0
 40
150.0
 40
150.0
 40
150.0
 40
151.0
 40
151.0
 40
151.0
 40
152.0
 40
152.0
 40
152.0
 40
153.0
 40
153.0
 40
153.0
 40
154.0
 40
154.0
 40
154.0
 40
155.0
 40
155.0
 40
155.0
 40
156.0
 40
156.0
 40
156.0
 40
157.0
 40
157.0
 40
157.0
 40
158.0
 40
158.0
 40
158.0
 40
159.0
 40
159.0
 40
159.0
 40
160.0
 40
160.0
 40
160.0
 40
161.0
 40
161.0
 40
161.0
 40
162.0
 40
162.0
 40
162.0
 40
163.0
 40
163.0
 40
163.0
 40
164.0
 40
164.0
 40
164.0
 40
165.0
 40
165.0
 40
165.0
 40
166.0
 40
166.0
 40
166.0
 40
167.0
 40
167.0
 40
167.0
 40
168.0
 40
168.0
 40
168.0
 40
169.0
 40
169.0
 40
169.0
 40
170.0
 40
170.0
 40
170.0
 40
171.0
 40
171.0
 40
171.0
 40
172.0
 40
172.0
 40
172.0
 40
173.0
 40
173.0
 40
173.0
 40
174.0
 40
174.0
 40
174.0
 40
175.0
 40
175.0
 40
175.0
 40
176.0
 40
176.0
 40
176.0
 40
177.0
 40
177.0
 40
177.0
 40
178.0
 40
178.0
 40
178.0
 40
179.0
 40
179.0
 40
179.0
 40
180.0
 40
180.0
 40
180.0
 40
181.0
 40
181.0
 40
181.0
 40
182.0
 40
182.0
 40
182.0
 40
183.0
 40
183.0
 40
183.0
 40
184.0
 40
184.0
 40
184.0
 40
185.0
 40
185.0
 40
185.0
 40
186.0
 40
186.0
 40
186.0
 40
187.0
 40
187.0
 40
187.0
 40
188.0
 40
188.0
 40
188.0
 40
189.0
 40
189.0
 40
189.0
 40
190.0
 40
190.0
 40
190.0
 40
191.0
 40
191.0
 40
191.0
 40
192.0
 40
192.0
 40
192.0
 40
193.0
 40
193.0
 40
193.0
 40
194.0
 40
194.0
 40
194.0
 40
195.0
 40
195.0
 40
195.0
 40
196.0
 40
196.0
 40
196.0
 40
197.0
 40
197.0
 40
197.0
 40
198.0
 40
198.0
 40
198.0
 40
199.0
 40
199.0
 40
199.0
 40
200.0
 40
200.0
 40
200.0
 40
201.0
 40
201.0
 40
201.0
 40
202.0
 40
202.0
 40
202.0
 40
203.0
 40
203.0
 40
203.0
 40
204.0
 40
204.0
 40
204.0
 40
205.0
 40
205.0
 40
205.0
 40
206.0
 40
206.0
 40
206.0
 40
207.0
 40
207.0
 40
207.0
 40
208.0
 40
208.0
 40
208.0
 40
209.0
 40
209.0
 40
209.0
 40
210.0
 40
210.0
 40
210.0
 40
211.0
 40
211.0
 40
211.0
 40
212.0
 40
212.0
 40
212.0
 40
213.0
 40
213.0
 40
213.0
 40
214.0
 40
214.0
 40
214.0
 40
215.0
 40
215.0
 40
215.0
 40
216.0
 40
216.0
 40
216.0
 40
217.0
 40
217.0
 40
217.0
 40
218.0
 40
218.0
 40
218.0
 40
219.0
 40
219.0
 40
219.0
 40
220.0
 40
220.0
 40
220.0
 40
221.0
 40
221.0
 40
221.0
 40
222.0
 40
222.0
 40
222.0
 40
223.0
 40
223.0
 40
223.0
 40
224.0
 40
224.0
 40
224.0
 40
225.0
 40
225.0
 40
225.0
 40
226.0
 40
226.0
 40
226.0
 40
227.0
 40
227.0
 40
227.0
 40
228.0
 40
228.0
 40
228.0
 40
229.0
 40
229.0
 40
229.0
 40
230.0
 40
230.0
 40
230.0
 40
231.0
 40
231.0
 40
231.0
 40
232.0
 40
232.0
 40
232.0
 40
233.0
 40
233.0
 40
233.0
 40
234.0
 40
234.0
 40
234.0
 40
235.0
 40
235.0
 40
235.0
 40
236.0
 40
236.0
 40
236.0
 40
237.0
 40
237.0
 40
237.0
 40
237.0
 10
5.186255513318669
 20
-5.288430294034305
 10
5.186255513318669
 20
-5.288430294034305
 10
5.110458907025746
 20
-5.251186353285712
 10
5.090796297627245
 20
-5.296960078916286
 10
5.071119498656016
 20
-5.342635794176456
 10
5.016913776166537
 20
-5.271243887320439
 10
4.997052263374345
 20
-5.308657904888238
 10
4.977219577160932
 20
-5.346239116617299
 10
4.912797938861925
 20
-5.298957760877493
 10
4.897018269627589
 20
-5.332232281625238
 10
4.88122706976176
 20
-5.365423205292371
 10
4.849555307635783
 20
-5.309248849768563
 10
4.819013547398703
 20
-5.34608345308786
 10
4.788396838056756
 20
-5.383059306646853
 10
4.731069420800079
 20
-5.321592391121903
 10
4.71868263989034
 20
-5.361370188210887
 10
4.706339098848793
 20
-5.401133572010154
 10
4.660859618830955
 20
-5.310586403058576
 10
4.618337319092575
 20
-5.368337572482536
 10
4.57581523270681
 20
-5.426074328616689
 10
4.552704964484014
 20
-5.342451304067493
 10
4.509831193836931
 20
-5.383707904686199
 10
4.467012193689558
 20
-5.424935678725395
 10
4.429304145963164
 20
-5.353235327468458
 10
4.387191396996362
 20
-5.392027255537616
 10
4.345104591950467
 20
-5.430804770317043
 10
4.293940297240915
 20
-5.384791784076406
 10
4.278907440101181
 20
-5.415673698723443
 10
4.263833818343705
 20
-5.446443189710331
 10
4.213260468499521
 20
-5.389816256887936
 10
4.195878041483979
 20
-5.427988413497284
 10
4.178521558389371
 20
-5.466272993766792
 10
4.164318703015334
 20
-5.41548920861448
 10
4.116126428579896
 20
-5.438657130580155
 10
4.068014868565115
 20
-5.461839465835561
 10
4.07275972343536
 20
-5.411450604822776
 10
4.029715875973352
 20
-5.444583875330838
 10
3.986729681668951
 20
-5.477561482309473
 10
3.963308086395121
 20
-5.421191106044867
 10
3.924346082490994
 20
-5.449974445702335
 10
3.88538696124475
 20
-5.478815438518887
 10
3.84832482170974
 20
-5.440023510449704
 10
3.822369177333232
 20
-5.46193747620599
 10
3.79647137894061
 20
-5.483923508411029
 10
3.732510965902381
 20
-5.461306174114321
 10
3.717183873955188
 20
-5.475647397428916
 10
3.701799317975112
 20
-5.489933850242386
 10
3.631802430211741
 20
-5.451790520212525
 10
3.610407343427457
 20
-5.494214597302086
 10
3.589041083221963
 20
-5.536664618313213
 10
3.52030987139258
 20
-5.520830178179166
 10
3.492792019271469
 20
-5.547713846245844
 10
3.465274167150369
 20
-5.574712820630629
 10
3.404568456474546
 20
-5.585802405774555
 10
3.402314036396445
 20
-5.636952288486882
 10
3.400048267302875
 20
-5.688047400698097
 10
3.333248436252991
 20
-5.727361089856711
 10
3.48039082507234
 20
-5.789516960632327
 10
3.627550509838961
 20
-5.851632474196637
 10
3.599822223692627
 20
-5.826662891010553
 10
3.719253622312913
 20
-5.863794408098998
 10
3.719253622312913
 20
-5.863794408098998
 10
3.746898311380733
 20
-5.873730930061861
 10
3.764661249236408
 20
-5.895590125317022
 10
3.782366533934477
 20
-5.917518504363039
 10
3.777918592825851
 20
-5.879262750673042
 10
3.847537663282246
 20
-5.89891094727851
 10
3.91715385108076
 20
-5.918518786672608
 10
3.845312251398998
 20
-5.950568177790475
 10
3.96872748320925
 20
-5.930427046675125
 10
3.998877201974665
 20
-5.925500584233999
 10
4.020848820334916
 20
-5.940475992298161
 10
4.03862617147998
 20
-5.962421667291904
 10
4.056331456178062
 20
-5.984252035967516
 10
4.07275972343536
 20
-5.938239049726866
 10
4.119277173642596
 20
-5.946543987288552
 10
4.165783093218301
 20
-5.954889282061546
 10
4.136224319318254
 20
-5.990668832570173
 10
4.201352208797831
 20
-5.972075688775413
 10
4.266520455487731
 20
-5.953496958270395
 10
4.243493784343451
 20
-6.00765921854328
 10
4.306635522543792
 20
-5.982366777666471
 10
4.369834913901753
 20
-5.956846606811419
 10
4.337701926515011
 20
-6.020622531356442
 10
4.400169122771457
 20
-5.990882149258684
 10
4.462650732317343
 20
-5.961196537662001
 10
4.395101410218684
 20
-6.046690407222513
 10
4.483904568865518
 20
-6.004718907431525
 10
4.572704844854456
 20
-5.9627012851133
 10
4.47310613244757
 20
-6.052490315023306
 10
4.579856930360696
 20
-6.012009149393862
 10
4.68661883629271
 20
-5.971455917315603
 10
4.640675035003571
 20
-6.086243356991215
 10
4.687307791526008
 20
-6.035093474278887
 10
4.733856950969892
 20
-5.984110785727832
 10
4.71868263989034
 20
-6.059258795896211
 10
4.788863828633301
 20
-6.044214204041155
 10
4.859001777508056
 20
-6.029209969397495
 10
4.818266939007836
 20
-6.094334977864365
 10
4.892527088650783
 20
-6.066226180167809
 10
4.966761294372835
 20
-6.038160622340532
 10
4.928447888491657
 20
-6.101994200044651
 10
5.008778915629604
 20
-6.067549320168104
 10
5.089034993662659
 20
-6.033234159899393
 10
5.059450275841704
 20
-6.128356107021873
 10
5.1204963217634
 20
-6.090028286883075
 10
5.181525298243565
 20
-6.051686053454508
 10
5.172882863414012
 20
-6.112452483096957
 10
5.221233684032819
 20
-6.088621549802156
 10
5.269581621993766
 20
-6.064750259296034
 10
5.284882770020039
 20
-6.120768951290428
 10
5.315891520833639
 20
-6.093478828452413
 10
5.346842618489656
 20
-6.066298246616598
 10
5.339099799424363
 20
-6.110988092856991
 10
5.360117258026384
 20
-6.109241202137658
 10
5.381045354234137
 20
-6.107664388237557
 10
5.421471748341231
 20
-6.116026978958264
 10
5.396317675681618
 20
-6.157378707289429
 10
5.371192429600783
 20
-6.198664134487672
 10
5.449102024119636
 20
-6.17180641034257
 10
5.414305460851905
 20
-6.191624683767233
 10
5.379482953663253
 20
-6.211500610350943
 10
5.353175817851693
 20
-6.25657096744107
 10
5.390883865578076
 20
-6.253867034281433
 10
5.428479489647164
 20
-6.25136200452059
 10
5.425637188977626
 20
-6.293376744180856
 10
5.395008949004149
 20
-6.306438067364423
 10
5.364337469162491
 20
-6.319361022966278
 10
5.367914847591401
 20
-6.373678946768601
 10
5.409422238403421
 20
-6.378435332390508
 10
5.450972869083671
 20
-6.383122534221557
 10
5.340270158523581
 20
-6.410078268737051
 10
5.403708810485555
 20
-6.429824475712898
 10
5.467173406368462
 20
-6.44954473876717
 10
5.305375584887934
 20
-6.489351362435703
 10
5.359497486582224
 20
-6.506171671589577
 10
5.413587679039816
 20
-6.522991980743427
 10
5.318889485028699
 20
-6.577491511996741
 10
5.371039648733168
 20
-6.587511631040242
 10
5.423175399148223
 20
-6.597603816532581
 10
5.308471559450898
 20
-6.643856063383282
 10
5.357496922013588
 20
-6.650866687524184
 10
5.406409860918997
 20
-6.657917668876431
 10
5.339143039292556
 20
-6.722933136341149
 10
5.367940791512309
 20
-6.742160464885526
 10
5.39682502346846
 20
-6.761301313691269
 10
5.330696851704576
 20
-6.855368208003028
 10
5.369785692555423
 20
-6.861407376413909
 10
5.408802466959261
 20
-6.867472488746342
 10
5.291538827064616
 20
-6.935333139610343
 10
5.325265924258929
 20
-6.951997785234728
 10
5.358932485637764
 20
-6.968564420488796
 10
5.267076592296158
 20
-7.040250358455952
 10
5.323406609926425
 20
-7.043458756757318
 10
5.379708032490157
 20
-7.046670037716644
 10
5.299339528769514
 20
-7.107672845311147
 10
5.327966974692357
 20
-7.114426912894285
 10
5.356525466308085
 20
-7.121281873505772
 10
5.29762123519111
 20
-7.205314235484214
 10
5.322547577878228
 20
-7.217208082197001
 10
5.347560400301732
 20
-7.229058689040458
 10
5.28807675495092
 20
-7.341450639957404
 10
5.30672755143357
 20
-7.347250547758171
 10
5.325407174495037
 20
-7.353064868848756
 10
5.280083373645614
 20
-7.43943218376896
 10
5.308108344558036
 20
-7.448157989391701
 10
5.33603265144019
 20
-7.456843437803096
 10
5.298324603713809
 20
-7.512568098686264
 10
5.323844773924153
 20
-7.522559391150253
 10
5.349405301344846
 20
-7.532527622350598
 10
5.303124229083752
 20
-7.628690208994031
 10
5.324617326235953
 20
-7.651676523508664
 10
5.346067414182395
 20
-7.674743552445989
 10
5.298860778079466
 20
-7.754255906754653
 10
5.319212342711239
 20
-7.781015620529362
 10
5.339494954050324
 20
-7.807815691515442
 10
5.291117959014159
 20
-7.891043791925161
 10
5.314597207445583
 20
-7.920798587312674
 10
5.338059159929736
 20
-7.95065139307063
 10
5.340284571812971
 20
-8.029137521148161
 10
5.389647205347627
 20
-8.054614452133894
 10
5.439009838882257
 20
-8.080244163991186
 10
5.498969122783263
 20
-8.111169318507539
 10
5.547642801084635
 20
-8.07312399884808
 10
5.596316479385993
 20
-8.034992199450091
 10
5.613347459554689
 20
-7.993314730770256
 10
5.644131125639142
 20
-7.953609000130048
 10
5.674842962691122
 20
-7.914113703520418
 10
5.702432881259218
 20
-7.930818706356149
 10
5.696013202160783
 20
-7.892098844735806
 10
5.689720360009068
 20
-7.853194493006513
 10
5.72527506229921
 20
-7.870395313010148
 10
5.704205715855348
 20
-7.806604975175307
 10
5.683133486753591
 20
-7.742702213680356
 10
5.766926586005234
 20
-7.822044491169891
 10
5.733398392204637
 20
-7.752174627712874
 10
5.699812545246446
 20
-7.682417187915992
 10
5.783801665233896
 20
-7.708525420993383
 10
5.760648157142908
 20
-7.664469759502658
 10
5.737480235762505
 20
-7.620483281802763
 10
5.794920076676513
 20
-7.64642432071893
 10
5.784211002652847
 20
-7.575681011902209
 10
5.773499045971309
 20
-7.504741682344779
 10
5.836346753067915
 20
-7.526361616989864
 10
5.826026837858042
 20
-7.473957778068122
 10
5.815698274674509
 20
-7.421695189386077
 10
5.871209617466875
 20
-7.447117349870773
 10
5.860091206024284
 20
-7.384353238267117
 10
5.848915141424072
 20
-7.321491116293069
 10
5.887312144383764
 20
-7.355907169590106
 10
5.886046901877951
 20
-7.294226937376656
 10
5.884836185537842
 20
-7.232339153790589
 10
5.932861267029453
 20
-7.255521489046082
 10
5.929511373086951
 20
-7.180751107069455
 10
5.92613289805177
 20
-7.106012434330422
 10
5.986417922293198
 20
-7.122760677035481
 10
5.960716144636408
 20
-7.073821792972845
 10
5.934985540400803
 20
-7.024880026252352
 10
6.018764474019235
 20
-7.071426304214178
 10
5.983800468938271
 20
-6.993012242585437
 10
5.94880788493472
 20
-6.914543410455634
 10
6.040989766834374
 20
-6.980135409510821
 10
6.020859918641715
 20
-6.932966477431212
 10
6.000787971824277
 20
-6.885688004349326
 10
6.059499064863277
 20
-6.914177312895667
 10
6.044593089275218
 20
-6.850202484951877
 10
6.029686617069804
 20
-6.786201713086534
 10
6.098262165373701
 20
-6.815746074443521
 10
6.070435868859451
 20
-6.753913061358591
 10
6.042592276397929
 20
-6.692022395114564
 10
6.109409403395122
 20
-6.75365938745876
 10
6.086100231778598
 20
-6.670612894500082
 10
6.062791060162074
 20
-6.58775089165033
 10
6.13874332998052
 20
-6.678932245351486
 10
6.120037762998132
 20
-6.607569165074993
 10
6.101303369436967
 20
-6.536263737957547
 10
6.146990614174784
 20
-6.534067152597622
 10
6.134998757394593
 20
-6.49357157367841
 10
6.123090497692904
 20
-6.452977984388806
 10
6.166739703309657
 20
-6.503424498560662
 10
6.162447425726567
 20
-6.412047124118746
 10
6.158083332872163
 20
-6.320626509807526
 10
6.216145576712506
 20
-6.469559032932592
 10
6.220071756744876
 20
-6.358236548116085
 10
6.223983523487832
 20
-6.246928476589371
 10
6.2742887861492
 20
-6.381222862630743
 10
6.285761764511031
 20
-6.305031330283529
 10
6.297191503004645
 20
-6.228785027435201
 10
6.326228771251837
 20
-6.411738679717776
 10
6.353169836373556
 20
-6.305538678083192
 10
6.380067917050509
 20
-6.199226252788447
 10
6.395014498157555
 20
-6.388077823242232
 10
6.405247933631042
 20
-6.315616450285738
 10
6.415564966183031
 20
-6.243002296457815
 10
6.439142483258264
 20
-6.430501900331769
 10
6.458144705726378
 20
-6.362684489337071
 10
6.477132773180983
 20
-6.294982384660493
 10
6.556391451587615
 20
-6.421972115449812
 10
6.568325655210224
 20
-6.370384068728677
 10
6.580248590041769
 20
-6.318824848587105
 10
6.642153406171196
 20
-6.475217690493714
 10
6.668797812954684
 20
-6.415947360328724
 10
6.695398979870005
 20
-6.356659734215984
 10
6.713107147225956
 20
-6.470714978771613
 10
6.72698426225957
 20
-6.452459105957334
 10
6.740849846661704
 20
-6.434356014014484
 10
6.754052419751436
 20
-6.477258612324173
 10
6.788707732783045
 20
-6.477823613282933
 10
6.823316923288606
 20
-6.478385731583709
 10
6.862953469136603
 20
-6.541824385148275
 10
6.897902813271988
 20
-6.528183647716231
 10
6.932866570696761
 20
-6.514418955992166
 10
6.944564396373202
 20
-6.601953747383176
 10
6.955008265871911
 20
-6.568439966025355
 10
6.96546654866001
 20
-6.534799347717605
 10
6.980710043528688
 20
-6.617283722375507
 10
7.008496255491536
 20
-6.587076349689394
 10
7.036336692636269
 20
-6.556843033081703
 10
7.067737484921558
 20
-6.640267154232206
 10
7.090314461436567
 20
-6.626839733488623
 10
7.112879907320095
 20
-6.613438256666641
 10
7.153121811322888
 20
-6.707744411588439
 10
7.174952179447018
 20
-6.683818350581279
 10
7.196670123913817
 20
-6.659918233495621
 10
7.241429152814362
 20
-6.733235755864042
 10
7.259024896512983
 20
-6.716147359520543
 10
7.276617757553746
 20
-6.699087789756605
 10
7.33385004710039
 20
-6.778291699664325
 10
7.350670355829354
 20
-6.756968678788426
 10
7.367617783236128
 20
-6.735559178173869
 10
7.427591198695431
 20
-6.799263036270077
 10
7.447648732223469
 20
-6.780937979664941
 10
7.467651495251781
 20
-6.762598509769987
 10
7.48311983743507
 20
-6.824699610044515
 10
7.508415160330817
 20
-6.822390601024381
 10
7.533678773989878
 20
-6.820052765424811
 10
7.575116981012798
 20
-6.910614347666119
 10
7.588333967391943
 20
-6.861577453233141
 10
7.601550953771063
 20
-6.812439665771763
 10
7.630210338412603
 20
-6.944185782183013
 10
7.645015958022289
 20
-6.883280984958825
 10
7.659878653312084
 20
-6.822361774444844
 10
7.711241851415328
 20
-6.946832062183577
 10
7.713072339169027
 20
-6.914670247405537
 10
7.714888413633363
 20
-6.882407539599196
 10
7.774031905354327
 20
-6.994955154045556
 10
7.79369451475284
 20
-6.958134964016002
 10
7.813360006809211
 20
-6.9212571208274
 10
7.84809603426144
 20
-7.020094814050859
 10
7.856683472085554
 20
-6.985877664152591
 10
7.865227670041476
 20
-6.951772937914458
 10
7.895461280950914
 20
-7.038858034664852
 10
7.91278864240121
 20
-7.009509694048599
 10
7.930142242837923
 20
-6.980077756351748
 10
7.987668563488316
 20
-7.045064397236956
 10
7.998072075776715
 20
-7.038082599675564
 10
8.0084038195368
 20
-7.031060444902853
 10
8.066745634448504
 20
-7.073778553103592
 10
8.100317068117294
 20
-7.05145524991806
 10
8.133914746796385
 20
-7.029103120152993
 10
8.179576048766824
 20
-7.026920948082786
 10
8.200137745180957
 20
-6.973969404150061
 10
8.220676682574902
 20
-6.921058217428658
 10
8.230077029921125
 20
-6.897440600822392
 10
8.219140225924926
 20
-6.814128903332024
 10
8.208177478007858
 20
-6.730900802922355
 10
8.191850103776334
 20
-6.717611749760484
 10
8.17369224179116
 20
-6.677257421080943
 10
8.155574737016245
 20
-6.636761842161755
 10
8.109746242042295
 20
-6.632737651659808
 10
8.135125463136546
 20
-6.603867832263732
 10
8.160530025911738
 20
-6.574859645285945
 10
8.075093811668593
 20
-6.599391064463235
 10
8.07517740874707
 20
-6.572887907246341
 10
8.075261005825622
 20
-6.546298270290814
 10
8.025350667293777
 20
-6.555393056131505
 10
8.033739201724176
 20
-6.54159953782798
 10
8.042113322865134
 20
-6.527817550156215
 10
7.98558728449906
 20
-6.545047196739384
 10
8.002661267121438
 20
-6.503326488190269
 10
8.019761491870364
 20
-6.46148182534921
 10
7.918487657029648
 20
-6.497555406969013
 10
7.936971555469476
 20
-6.464367365959813
 10
7.955466392312448
 20
-6.431274452663072
 10
7.859597839202074
 20
-6.489478199385606
 10
7.881736651719367
 20
-6.42474523240028
 10
7.903947530683657
 20
-6.360038209336532
 10
7.827519622315044
 20
-6.401715678016343
 10
7.846576873558787
 20
-6.366725975786721
 10
7.865648538091919
 20
-6.331704564319655
 10
7.779817399719199
 20
-6.364290129816709
 10
7.790808974215097
 20
-6.328945860658955
 10
7.801858201868576
 20
-6.293419984050135
 10
7.7152516285262
 20
-6.321782455646548
 10
7.713311599773053
 20
-6.288493521609022
 10
7.711423458861746
 20
-6.2550633373318
 10
7.650493008132369
 20
-6.266830347094633
 10
7.646832032532479
 20
-6.239102060247811
 10
7.643144824319506
 20
-6.211428543902153
 10
7.594949667226198
 20
-6.241425482557688
 10
7.586448709138494
 20
-6.189598175226516
 10
7.578045761418707
 20
-6.137915000792948
 10
7.527599248521256
 20
-6.181561324854429
 10
7.517365813047743
 20
-6.135381144452544
 10
7.507204444021276
 20
-6.089212494682467
 10
7.451367360888475
 20
-6.143599602275647
 10
7.432194803329568
 20
-6.080261841739381
 10
7.412981888560327
 20
-6.016935611834975
 10
7.375582285227058
 20
-6.064790616507404
 10
7.374965396440782
 20
-6.033882757938752
 10
7.374414808785736
 20
-6.002888419631593
 10
7.303417827862782
 20
-6.040201544171041
 10
7.297534323129967
 20
-5.993441949520641
 10
7.291650818397202
 20
-5.946515160709029
 10
7.248932711275605
 20
-6.004857275013263
 10
7.247425081204457
 20
-5.96340465365376
 10
7.245989517580306
 20
-5.922093282533928
 10
7.164874407499028
 20
-5.946007812909341
 10
7.171051943335568
 20
-5.91314262959088
 10
7.177174708672358
 20
-5.880162139954286
 10
7.090314461436567
 20
-5.896238723356368
 10
7.090259690936868
 20
-5.863497494329875
 10
7.090216451068651
 20
-5.830675550880667
 10
7.040136035721944
 20
-5.860104605919572
 10
7.042375860894581
 20
-5.819877114189934
 10
7.044670456566942
 20
-5.779678449039844
 10
6.970574618423143
 20
-5.873252408841709
 10
6.978726774907373
 20
-5.787772952570966
 10
6.986876320846451
 20
-5.702279083010467
 10
6.916524783175848
 20
-5.770459708907197
 10
6.933740016034335
 20
-5.734905005718878
 10
6.950969662182236
 20
-5.699379129110071
 10
6.859407799944393
 20
-5.756833384764882
 10
6.888586063004292
 20
-5.702503930330787
 10
6.917779009720814
 20
-5.648142766659185
 10
6.784865149829228
 20
-5.7397882282907
 10
6.815548160302392
 20
-5.667482518863696
 10
6.846219640144025
 20
-5.595147982857143
 10
6.764075687684024
 20
-5.688243421438882
 10
6.789270118190416
 20
-5.620414479812376
 10
6.814449867650157
 20
-5.552487527815489
 10
6.703170625514101
 20
-5.581426531002421
 10
6.764314681803701
 20
-5.549250302934612
 10
6.825470268724858
 20
-5.517030834997538
 10
6.712092451652248
 20
-5.473620888888162
 10
6.791408783216487
 20
-5.481871055948747
 10
6.870710701491311
 20
-5.49016158022064
 10
6.74453676609005
 20
-5.395699761769353
 10
6.799333209728198
 20
-5.416855588484041
 10
6.854158748705205
 20
-5.437982588619219
 10
6.818603777655021
 20
-5.361453785291524
 10
6.849750896046897
 20
-5.373177555185053
 10
6.880886483807191
 20
-5.384832141287752
 10
6.848992757024462
 20
-5.303350931597379
 10
6.879534517261542
 20
-5.316974373081721
 10
6.910093573445894
 20
-5.330517100143399
 10
6.91335962482377
 20
-5.247640684003916
 10
6.94510057073886
 20
-5.257508022175911
 10
6.976783863496317
 20
-5.267372477689984
 10
6.969704055743401
 20
-5.191449032532369
 10
7.018222070519262
 20
-5.206539746914649
 10
7.066725946135648
 20
-5.221627578638959
 10
7.009409785380537
 20
-5.136289372607899
 10
7.068288072576605
 20
-5.144355049559484
 10
7.127180773062037
 20
-5.152406313221314
 10
7.073087697946574
 20
-5.076200367584343
 10
7.123465027054912
 20
-5.091879144188939
 10
7.173853886794783
 20
-5.107560803451494
 10
7.09048453825148
 20
-5.020265272670561
 10
7.166451221359314
 20
-5.045938224397105
 10
7.242415021809266
 20
-5.071570818912329
 10
7.179258870319497
 20
-4.978305303511383
 10
7.220570240395747
 20
-5.003401723647395
 10
7.261910716111414
 20
-5.028555796942454
 10
7.248595440303689
 20
-4.952759188734768
 10
7.28348713128144
 20
-4.965638904467318
 10
7.318367291627687
 20
-4.978544564121472
 10
7.314608305752371
 20
-4.885267518088729
 10
7.353244569316075
 20
-4.899340654213688
 10
7.391826062380055
 20
-4.913445499576128
 10
7.389897564258439
 20
-4.814550153193636
 10
7.42283481319368
 20
-4.826882163915204
 10
7.455855943167585
 20
-4.839156521477699
 10
7.429026762319609
 20
-4.767369690482155
 10
7.506697096234397
 20
-4.754645638279056
 10
7.584309776991631
 20
-4.741979239234992
 10
7.528204606676026
 20
-4.718401979840033
 10
7.571752919267005
 20
-4.70327090824642
 10
7.61537329830498
 20
-4.688183076522098
 10
7.587209730818762
 20
-4.640506796642777
 10
7.620441010857752
 20
-4.63242958905937
 10
7.653643464317939
 20
-4.62437832539754
 10
7.647422688613207
 20
-4.532395592785583
 10
7.707160007857434
 20
-4.518178323762968
 10
7.766782020786523
 20
-4.503946641450574
 10
7.738266769038975
 20
-4.437835763963865
 10
7.792570278179684
 20
-4.434261268102558
 10
7.846899731241339
 20
-4.430657945661728
 10
7.797145056235043
 20
-4.353777458063809
 10
7.854614017761504
 20
-4.353226870394843
 10
7.912085273878498
 20
-4.352707991963358
 10
7.877937308633742
 20
-4.284763744018745
 10
7.914506706497579
 20
-4.259286813032986
 10
7.951102048282337
 20
-4.233783938125649
 10
8.022606376992169
 20
-4.194680682997588
 10
8.003658666747848
 20
-4.143770060895311
 10
7.984699425872046
 20
-4.092816198923818
 10
7.968063607247409
 20
-4.093787654653877
 10
7.988175911275144
 20
-4.048858547803434
 10
8.008247858092595
 20
-4.003972680822281
 10
7.915195661730851
 20
-4.020060794856186
 10
7.918095615558008
 20
-4.010715217773597
 10
7.920995569385139
 20
-4.001384053980776
 10
7.843564496074324
 20
-3.960943245562678
 10
7.847631926342804
 20
-3.94789633566884
 10
7.851699356611308
 20
-3.934820599195505
 10
7.696857388594859
 20
-3.978749423736354
 10
7.719630385845701
 20
-3.944898371398077
 10
7.742417796385957
 20
-3.911073262981328
 10
7.596540894375872
 20
-3.972090483865663
 10
7.597552707291698
 20
-3.962197201772091
 10
7.598581816154794
 20
-3.952301037020561
 10
7.537858627915663
 20
-4.035728040828985
 10
7.544800068090353
 20
-4.01339032435366
 10
7.551778982817495
 20
-3.99095171485006
 10
7.488553647538638
 20
-4.042905859131135
 10
7.487371757807876
 20
-4.01389478949539
 10
7.486103388340754
 20
-3.984843362648323
 10
7.433673606821912
 20
-4.140420412354337
 10
7.427931352325231
 20
-4.073196828897872
 10
7.422298638828023
 20
-4.005944418861923
 10
7.357314882242437
 20
-4.155609137106972
 10
7.353639493445623
 20
-4.127877967602242
 10
7.349992931227588
 20
-4.100149680755433
 10
7.310526462194477
 20
-4.227081758385667
 10
7.299814505512964
 20
-4.156185668697528
 10
7.28914578869962
 20
-4.085286696351432
 10
7.236560343655279
 20
-4.267464913644718
 10
7.221132358682275
 20
-4.20536381337019
 10
7.205609245999262
 20
-4.143248299805906
 10
7.170432171891384
 20
-4.328779048298176
 10
7.151810201987523
 20
-4.263607917304057
 10
7.133217058662467
 20
-4.198468495547382
 10
7.088218769157922
 20
-4.329819687819104
 10
7.08273018855468
 20
-4.301471629512472
 10
7.077183954793806
 20
-4.273181224364874
 10
7.045569845825437
 20
-4.388161802123325
 10
7.030706861796918
 20
-4.356971443075369
 10
7.015855408399905
 20
-4.325752257447852
 10
6.993532105778286
 20
-4.443606845185147
 10
6.981384585472597
 20
-4.39689049040405
 10
6.969337958192682
 20
-4.350200079544518
 10
6.915752230864048
 20
-4.482891707764225
 10
6.898903095556281
 20
-4.444944398475197
 10
6.882111613406121
 20
-4.406968262606597
 10
6.853792382394431
 20
-4.563894396234446
 10
6.832578903056603
 20
-4.526610098274532
 10
6.811480730033913
 20
-4.489380570815708
 10
6.756684286395739
 20
-4.593072660031465
 10
6.747704807099985
 20
-4.575972733056195
 10
6.738725327804231
 20
-4.558855510133185
 10
6.679535713557167
 20
-4.689829074213068
 10
6.661380734229826
 20
-4.649417092374493
 10
6.643263492887298
 20
-4.608935926745036
 10
6.592283424849685
 20
-4.746608787906994
 10
6.575267095384914
 20
-4.702481059967391
 10
6.55831994970923
 20
-4.658327388106234
 10
6.491024301504012
 20
-4.782685252184756
 10
6.488182000834462
 20
-4.765426779022063
 10
6.485351490239635
 20
-4.748142361937817
 10
6.412117307358736
 20
-4.825685860864824
 10
6.403319435509426
 20
-4.788145006347109
 10
6.394535976949505
 20
-4.750635861066876
 10
6.339880783547439
 20
-4.827781553196435
 10
6.339938436705021
 20
-4.801235156110224
 10
6.339952849994435
 20
-4.77460516194339
 10
6.252585254971765
 20
-4.884564149548257
 10
6.258906923702297
 20
-4.831272451977118
 10
6.265294893564057
 20
-4.777998050353694
 10
6.206771425692876
 20
-4.788427506826489
 10
6.210374748133694
 20
-4.783431860594495
 10
6.213978070574563
 20
-4.778447744994296
 10
6.155944149549618
 20
-4.780825937805262
 10
6.1651917160282
 20
-4.718191545809481
 10
6.174396042638565
 20
-4.655568684445521
 10
6.112098923197006
 20
-4.691446245324553
 10
6.121473576873137
 20
-4.66777097555919
 10
6.13090250054731
 20
-4.644110119083633
 10
6.072687224663619
 20
-4.607529189664155
 10
6.079640195469842
 20
-4.585177059899075
 10
6.086622242225277
 20
-4.562784572922687
 10
6.053869234023927
 20
-4.562839343423787
 10
6.05284012516083
 20
-4.51336428498199
 10
6.051813898955591
 20
-4.463958410331062
 10
5.984475010882167
 20
-4.496247062058993
 10
5.981632710212643
 20
-4.446238711895944
 10
5.978775996253691
 20
-4.396213065785168
 10
5.92932688298265
 20
-4.39719893480497
 10
5.931635891944425
 20
-4.357000269654906
 10
5.933887247748594
 20
-4.316743951345744
 10
5.901754260361827
 20
-4.314927876835554
 10
5.890338935157615
 20
-4.272489386456262
 10
5.878966849821571
 20
-4.230068192024646
 10
5.836303513199722
 20
-4.261849495952927
 10
5.834121341184654
 20
-4.183406607744637
 10
5.831898811959288
 20
-4.10494930624663
 10
5.760985428114862
 20
-4.082865263671149
 10
5.761043081272444
 20
-4.05629004000544
 10
5.761141332788447
 20
-4.029732112287421
 10
5.699068819513437
 20
-4.045186041571709
 10
5.689509925983834
 20
-3.970600149704144
 10
5.679953915112113
 20
-3.896028671126323
 10
5.618118020931332
 20
-3.956593314712058
 10
5.642075790570806
 20
-3.919012102983022
 10
5.666059504131213
 20
-3.881402064674426
 10
5.590770245625158
 20
-3.886668680753966
 10
5.607913412036648
 20
-3.851113977565647
 10
5.625143058184549
 20
-3.81551603450805
 10
5.567348650351315
 20
-3.830266595251891
 10
5.570205364310267
 20
-3.788208615722308
 10
5.573021721058871
 20
-3.746139105560941
 10
5.516706116718006
 20
-3.742927824601666
 10
5.519392753862045
 20
-3.721224292875945
 10
5.522067860374553
 20
-3.699549587729785
 10
5.467285830025781
 20
-3.71118976054269
 10
5.47849072120477
 20
-3.655295022840265
 10
5.489695612383772
 20
-3.599443525007132
 10
5.444723266800148
 20
-3.665245958092909
 10
5.425934102739246
 20
-3.593911704395964
 10
5.407170882599277
 20
-3.522606277278517
 10
5.347883488692572
 20
-3.555330210357308
 10
5.346320857413401
 20
-3.507754823506338
 10
5.344703686342806
 20
-3.460193849945098
 10
5.292622935739764
 20
-3.450144904322049
 10
5.289399894917765
 20
-3.414350940523668
 10
5.286220323276287
 20
-3.378542563435505
 10
5.233885669467516
 20
-3.421670009065501
 10
5.219486793357646
 20
-3.34963238682811
 10
5.205004320169248
 20
-3.277580351300925
 10
5.161594375156495
 20
-3.331615774623868
 10
5.149406497640471
 20
-3.278664230691119
 10
5.137190018931404
 20
-3.22578187054925
 10
5.112923579513019
 20
-3.277635121802025
 10
5.100438788235364
 20
-3.238926790813467
 10
5.087838914781539
 20
-3.200221342482855
 10
5.011283945327187
 20
-3.203020403354913
 10
4.998966570100505
 20
-3.176644083087909
 10
4.986680460322632
 20
-3.150322533322019
 10
4.938373099935208
 20
-3.174237063697433
 10
4.912319417653874
 20
-3.139472208788144
 10
4.886291899656663
 20
-3.104773655011766
 10
4.862703328677425
 20
-3.193634469060991
 10
4.840532588471837
 20
-3.166269397116227
 10
4.81833612279695
 20
-3.138921621119203
 10
4.768719815368879
 20
-3.193083881392037
 10
4.773591507185819
 20
-3.217110835427598
 10
4.778405545845177
 20
-3.241123376173416
 10
4.76017561741297
 20
-3.319370243640896
 10
4.778996490710559
 20
-3.331347687434269
 10
4.797759710850528
 20
-3.343310717937887
 10
4.810088838602685
 20
-3.402413853941627
 10
4.832481325013393
 20
-3.409381238213225
 10
4.854862499046147
 20
-3.416348622484874
 10
4.773493496817915
 20
-3.427876371637606
 10
4.820953576151851
 20
-3.45291802127253
 10
4.868488604590665
 20
-3.477873191168871
 10
4.811636825884155
 20
-3.509374877275743
 10
4.841406033809423
 20
-3.518622443987902
 10
4.871359731838993
 20
-3.527939194490955
 10
4.822319955986914
 20
-3.547405783645407
 10
4.8479929070649
 20
-3.563620734629227
 10
4.873625500932576
 20
-3.579780915111933
 10
4.835594595523641
 20
-3.623162034641761
 10
4.87163956833073
 20
-3.632308708325606
 10
4.907701619318724
 20
-3.641530331116238
 10
4.877370073518515
 20
-3.732371531178956
 10
4.914219089196687
 20
-3.752022610442357
 10
4.951111344743077
 20
-3.771714046917105
 10
4.924354514302283
 20
-3.824821254379294
 10
4.951857953133968
 20
-3.841555083794573
 10
4.979430575754791
 20
-3.85829179586781
 10
4.964680015383565
 20
-3.89256659892515
 10
5.019023881734597
 20
-3.921770806643735
 10
5.073413870611716
 20
-3.950923126519178
 10
4.968635021994739
 20
-3.965420013363162
 10
5.033324747476576
 20
-3.987602066309023
 10
5.098101177093073
 20
-4.009758175333319
 10
5.026331419460044
 20
-4.036558246319361
 10
5.06243382674735
 20
-4.051942991812792
 10
5.098608300481652
 20
-4.067298910726688
 10
5.036069037778184
 20
-4.090818516962612
 10
5.079718243394963
 20
-4.108440205027313
 10
5.123309795854134
 20
-4.126105132961306
 10
5.084108531345982
 20
-4.173285595672787
 10
5.112767915987496
 20
-4.186263321775742
 10
5.141510897707538
 20
-4.19932752761728
 10
5.10612338957445
 20
-4.253798232291097
 10
5.127942227067061
 20
-4.262624930942201
 10
5.149743768612425
 20
-4.271448746935334
 10
5.128193018302619
 20
-4.334282042329834
 10
5.151842343548954
 20
-4.343725629782827
 10
5.175543556637118
 20
-4.353114446734669
 10
5.14107273370981
 20
-4.391583517113152
 10
5.179230476065464
 20
-4.413653146398866
 10
5.217391101078988
 20
-4.435766015553869
 10
5.111473602599454
 20
-4.427406307491095
 10
5.174615340799808
 20
-4.461355370199777
 10
5.237702308500439
 20
-4.49529001961869
 10
5.172842506203702
 20
-4.526272827294077
 10
5.202977811679703
 20
-4.547892761939162
 10
5.233069877287511
 20
-4.569553053795567
 10
5.183678417174065
 20
-4.603320509053244
 10
5.222992105339535
 20
-4.621703218817452
 10
5.262320206794407
 20
-4.640057102002149
 10
5.217405514368377
 20
-4.679272780790395
 10
5.247976101184248
 20
-4.692925048854287
 10
5.278491917500395
 20
-4.706493719837517
 10
5.243865431047563
 20
-4.738698774484823
 10
5.279365362837994
 20
-4.749762415707222
 10
5.314836468049621
 20
-4.760797230350059
 10
5.243753007390258
 20
-4.791903992317404
 10
5.304770226733151
 20
-4.812918568792421
 10
5.365801859365471
 20
-4.833889905398147
 10
5.250368707224525
 20
-4.843025048450183
 10
5.300858459990195
 20
-4.86491307028488
 10
5.351374156676784
 20
-4.886729025670724
 10
5.282758251162591
 20
-4.916599127376381
 10
5.318200529795414
 20
-4.927619528729476
 10
5.353639925770342
 20
-4.938654343372314
 10
5.287148539113597
 20
-4.981415691442331
 10
5.327517280063097
 20
-4.989861879243689
 10
5.367857194433794
 20
-4.998334010966598
 10
5.286557594248229
 20
-5.042602989145873
 10
5.327586463852223
 20
-5.055381811850098
 10
5.368647042692879
 20
-5.068134690632746
 10
5.256379048904035
 20
-5.08033986440436
 10
5.346672772352475
 20
-5.112530505761937
 10
5.436954503813947
 20
-5.144605840801369
 10
5.336623596305558
 20
-5.164579777755471
 10
5.370220973895281
 20
-5.175023647518009
 10
5.403821234142874
 20
-5.18546751728056
 10
5.339255462949874
 20
-5.202258999854911
 10
5.359552257081936
 20
-5.229059070840941
 10
5.379906704371605
 20
-5.255818784615674
 10
5.279941894413974
 20
-5.175686658847123
 10
5.290175329887461
 20
-5.221852425959241
 10
5.300394352071546
 20
-5.267908652069195
 10
5.225174277354578
 20
-5.246571217903465
 10
5.22297791960308
 20
-5.260237899257112
 10
5.219348425779395
 20
-5.28270245268234
 10
5.202049822866633
 20
-5.284798145013938
 10
5.186255513318669
 20
-5.288430294034305
 97
        0
 97
        0
 75
     2
 76
     1
 98
        0
  0
ENDBLK
  5
44
330
41
100
AcDbEntity
  8
0
100
AcDbBlockEnd
  0
ENDSEC
  0
SECTION
  2
ENTITIES
  0
INSERT
  5
42
330
1F
100
AcDbEntity
  8
Layer 1
100
AcDbBlockReference
  2
block 2
 10
0.0
 20
0.0
 30
0.0
  0
ENDSEC
  0
SECTION
  2
OBJECTS
  0
DICTIONARY
  5
C
330
0
100
AcDbDictionary
281
     1
  3
ACAD_GROUP
350
D
  3
ACAD_LAYOUT
350
1A
  3
ACAD_MATERIAL
350
3B
  3
ACAD_MLEADERSTYLE
350
48
  3
ACAD_MLINESTYLE
350
17
  3
ACAD_PLOTSETTINGS
350
19
  3
ACAD_PLOTSTYLENAME
350
E
  3
ACAD_TABLESTYLE
350
47
  3
ACAD_VISUALSTYLE
350
2A
  0
SUN
  5
3F
330
29
100
AcDbSun
 90
        1
290
     0
 63
     7
421
 16777215
 40
1.0
291
     1
 91
  2455826
 92
 54000000
292
     0
 70
     2
 71
   256
280
     1
  0
DICTIONARY
  5
D
102
{ACAD_REACTORS
330
C
102
}
330
C
100
AcDbDictionary
281
     1
  0
DICTIONARY
  5
1A
102
{ACAD_REACTORS
330
C
102
}
330
C
100
AcDbDictionary
281
     1
  3
Layout1
350
1E
  3
Layout2
350
26
  3
Model
350
22
  0
DICTIONARY
  5
3B
102
{ACAD_REACTORS
330
C
102
}
330
C
100
AcDbDictionary
281
     1
  3
ByBlock
350
3D
  3
ByLayer
350
3C
  3
Global
350
3E
  0
DICTIONARY
  5
48
102
{ACAD_REACTORS
330
C
102
}
330
C
100
AcDbDictionary
281
     1
  0
DICTIONARY
  5
17
102
{ACAD_REACTORS
330
C
102
}
330
C
100
AcDbDictionary
281
     1
  3
Standard
350
18
  0
DICTIONARY
  5
19
102
{ACAD_REACTORS
330
C
102
}
330
C
100
AcDbDictionary
281
     1
  0
ACDBDICTIONARYWDFLT
  5
E
102
{ACAD_REACTORS
330
C
102
}
330
C
100
AcDbDictionary
281
     1
  3
Normal
350
F
100
AcDbDictionaryWithDefault
340
F
  0
DICTIONARY
  5
47
102
{ACAD_REACTORS
330
C
102
}
330
C
100
AcDbDictionary
281
     1
  0
DICTIONARY
  5
2A
102
{ACAD_REACTORS
330
C
102
}
330
C
100
AcDbDictionary
281
     1
  3
2dWireframe
350
2F
  3
3D Hidden
350
31
  3
3dWireframe
350
30
  3
Basic
350
32
  3
Brighten
350
36
  3
ColorChange
350
3A
  3
Conceptual
350
34
  3
Dim
350
35
  3
Facepattern
350
39
  3
Flat
350
2B
  3
FlatWithEdges
350
2C
  3
Gouraud
350
2D
  3
GouraudWithEdges
350
2E
  3
Linepattern
350
38
  3
Realistic
350
33
  3
Thicken
350
37
  0
LAYOUT
  5
1E
102
{ACAD_REACTORS
330
1A
102
}
330
1A
100
AcDbPlotSettings
  1

  2
none_device
  4

  6

 40
0.0
 41
0.0
 42
0.0
 43
0.0
 44
0.0
 45
0.0
 46
0.0
 47
0.0
 48
0.0
 49
0.0
140
0.0
141
0.0
142
1.0
143
1.0
 70
   688
 72
     0
 73
     0
 74
     5
  7

 75
    16
 76
     0
 77
     2
 78
   300
147
1.0
148
0.0
149
0.0
100
AcDbLayout
  1
Layout1
 70
     1
 71
     1
 10
0.0
 20
0.0
 11
12.0
 21
9.0
 12
0.0
 22
0.0
 32
0.0
 14
1.000000000000000E+20
 24
1.000000000000000E+20
 34
1.000000000000000E+20
 15
-1.000000000000000E+20
 25
-1.000000000000000E+20
 35
-1.000000000000000E+20
146
0.0
 13
0.0
 23
0.0
 33
0.0
 16
1.0
 26
0.0
 36
0.0
 17
0.0
 27
1.0
 37
0.0
 76
     0
330
1B
  0
LAYOUT
  5
26
102
{ACAD_REACTORS
330
1A
102
}
330
1A
100
AcDbPlotSettings
  1

  2
none_device
  4

  6

 40
0.0
 41
0.0
 42
0.0
 43
0.0
 44
0.0
 45
0.0
 46
0.0
 47
0.0
 48
0.0
 49
0.0
140
0.0
141
0.0
142
1.0
143
1.0
 70
   688
 72
     0
 73
     0
 74
     5
  7

 75
    16
 76
     0
 77
     2
 78
   300
147
1.0
148
0.0
149
0.0
100
AcDbLayout
  1
Layout2
 70
     1
 71
     2
 10
0.0
 20
0.0
 11
0.0
 21
0.0
 12
0.0
 22
0.0
 32
0.0
 14
0.0
 24
0.0
 34
0.0
 15
0.0
 25
0.0
 35
0.0
146
0.0
 13
0.0
 23
0.0
 33
0.0
 16
1.0
 26
0.0
 36
0.0
 17
0.0
 27
1.0
 37
0.0
 76
     0
330
23
  0
LAYOUT
  5
22
102
{ACAD_REACTORS
330
1A
102
}
330
1A
100
AcDbPlotSettings
  1

  2
none_device
  4

  6

 40
0.0
 41
0.0
 42
0.0
 43
0.0
 44
0.0
 45
0.0
 46
0.0
 47
0.0
 48
0.0
 49
0.0
140
0.0
141
0.0
142
1.0
143
1.0
 70
  1712
 72
     0
 73
     0
 74
     0
  7

 75
     0
 76
     0
 77
     2
 78
   300
147
1.0
148
0.0
149
0.0
100
AcDbLayout
  1
Model
 70
     1
 71
     0
 10
0.0
 20
0.0
 11
12.0
 21
9.0
 12
0.0
 22
0.0
 32
0.0
 14
1.000000000000000E+20
 24
1.000000000000000E+20
 34
1.000000000000000E+20
 15
-1.000000000000000E+20
 25
-1.000000000000000E+20
 35
-1.000000000000000E+20
146
0.0
 13
0.0
 23
0.0
 33
0.0
 16
1.0
 26
0.0
 36
0.0
 17
0.0
 27
1.0
 37
0.0
 76
     0
330
1F
331
29
  0
MATERIAL
  5
3D
102
{ACAD_REACTORS
330
3B
102
}
330
3B
100
AcDbMaterial
  1
ByBlock
 72
     1
 94
      127
  0
MATERIAL
  5
3C
102
{ACAD_REACTORS
330
3B
102
}
330
3B
100
AcDbMaterial
  1
ByLayer
 72
     1
 94
      127
  0
MATERIAL
  5
3E
102
{ACAD_REACTORS
330
3B
102
}
330
3B
100
AcDbMaterial
  1
Global
 72
     1
 94
      127
  0
MLINESTYLE
  5
18
102
{ACAD_REACTORS
330
17
102
}
330
17
100
AcDbMlineStyle
  2
Standard
 70
     0
  3

 62
   256
 51
90.0
 52
90.0
 71
     2
 49
0.5
 62
   256
  6
BYLAYER
 49
-0.5
 62
   256
  6
BYLAYER
  0
ACDBPLACEHOLDER
  5
F
102
{ACAD_REACTORS
330
E
102
}
330
E
  0
VISUALSTYLE
  5
2F
102
{ACAD_REACTORS
330
2A
102
}
330
2A
100
AcDbVisualStyle
  2
2dWireframe
 70
     4
177
     2
291
     0
 71
     0
176
     1
 72
     2
176
     1
 73
     0
176
     1
 90
        0
176
     1
 40
-0.6
176
     1
 41
-30.0
176
     1
 62
     5
 63
     7
421
 16777215
176
     1
 74
     1
176
     1
 91
        4
176
     1
 64
     7
176
     1
 65
   257
176
     1
 75
     1
176
     1
175
     1
176
     1
 42
1.0
176
     1
 92
        0
176
     1
 66
   257
176
     1
 43
1.0
176
     1
 76
     1
176
     1
 77
     6
176
     1
 78
     2
176
     1
 67
     7
176
     1
 79
     5
176
     1
170
     0
176
     1
171
     0
176
     1
290
     0
176
     1
 93
        1
176
     1
 44
0.0
176
     1
173
     0
176
     1
  0
VISUALSTYLE
  5
31
102
{ACAD_REACTORS
330
2A
102
}
330
2A
100
AcDbVisualStyle
  2
3D Hidden
 70
     6
177
     2
291
     0
 71
     1
176
     1
 72
     2
176
     1
 73
     2
176
     1
 90
        0
176
     1
 40
-0.6
176
     1
 41
-30.0
176
     1
 62
     5
 63
     7
421
 16777215
176
     1
 74
     2
176
     1
 91
        2
176
     1
 64
     7
176
     1
 65
   257
176
     1
 75
     2
176
     1
175
     1
176
     1
 42
40.0
176
     1
 92
        0
176
     1
 66
   257
176
     1
 43
1.0
176
     1
 76
     1
176
     1
 77
     6
176
     1
 78
     2
176
     1
 67
     7
176
     1
 79
     3
176
     1
170
     0
176
     1
171
     0
176
     1
290
     0
176
     1
 93
        1
176
     1
 44
0.0
176
     1
173
     0
176
     1
  0
VISUALSTYLE
  5
30
102
{ACAD_REACTORS
330
2A
102
}
330
2A
100
AcDbVisualStyle
  2
3dWireframe
 70
     5
177
     2
291
     0
 71
     0
176
     1
 72
     2
176
     1
 73
     0
176
     1
 90
        0
176
     1
 40
-0.6
176
     1
 41
-30.0
176
     1
 62
     5
 63
     7
421
 16777215
176
     1
 74
     1
176
     1
 91
        4
176
     1
 64
     7
176
     1
 65
   257
176
     1
 75
     1
176
     1
175
     1
176
     1
 42
1.0
176
     1
 92
        0
176
     1
 66
   257
176
     1
 43
1.0
176
     1
 76
     1
176
     1
 77
     6
176
     1
 78
     2
176
     1
 67
     7
176
     1
 79
     5
176
     1
170
     0
176
     1
171
     0
176
     1
290
     0
176
     1
 93
        1
176
     1
 44
0.0
176
     1
173
     0
176
     1
  0
VISUALSTYLE
  5
32
102
{ACAD_REACTORS
330
2A
102
}
330
2A
100
AcDbVisualStyle
  2
Basic
 70
     7
177
     2
291
     1
 71
     1
176
     1
 72
     0
176
     1
 73
     1
176
     1
 90
        0
176
     1
 40
-0.6
176
     1
 41
-30.0
176
     1
 62
     5
 63
     7
421
 16777215
176
     1
 74
     0
176
     1
 91
        4
176
     1
 64
     7
176
     1
 65
   257
176
     1
 75
     1
176
     1
175
     1
176
     1
 42
1.0
176
     1
 92
        8
176
     1
 66
     7
176
     1
 43
1.0
176
     1
 76
     1
176
     1
 77
     6
176
     1
 78
     2
176
     1
 67
     7
176
     1
 79
     5
176
     1
170
     0
176
     1
171
     0
176
     1
290
     0
176
     1
 93
        1
176
     1
 44
0.0
176
     1
173
     0
176
     1
  0
VISUALSTYLE
  5
36
102
{ACAD_REACTORS
330
2A
102
}
330
2A
100
AcDbVisualStyle
  2
Brighten
 70
    12
177
     2
291
     1
 71
     2
176
     1
 72
     2
176
     1
 73
     0
176
     1
 90
        0
176
     1
 40
-0.6
176
     1
 41
-30.0
176
     1
 62
     5
 63
     7
421
 16777215
176
     1
 74
     1
176
     1
 91
        4
176
     1
 64
     7
176
     1
 65
   257
176
     1
 75
     1
176
     1
175
     1
176
     1
 42
1.0
176
     1
 92
        8
176
     1
 66
     7
176
     1
 43
1.0
176
     1
 76
     1
176
     1
 77
     6
176
     1
 78
     2
176
     1
 67
     7
176
     1
 79
     5
176
     1
170
     0
176
     1
171
     0
176
     1
290
     0
176
     1
 93
        1
176
     1
 44
50.0
176
     1
173
     0
176
     1
  0
VISUALSTYLE
  5
3A
102
{ACAD_REACTORS
330
2A
102
}
330
2A
100
AcDbVisualStyle
  2
ColorChange
 70
    16
177
     2
291
     1
 71
     2
176
     1
 72
     2
176
     1
 73
     3
176
     1
 90
        0
176
     1
 40
-0.6
176
     1
 41
-30.0
176
     1
 62
     5
 63
     8
421
  8421504
176
     1
 74
     1
176
     1
 91
        4
176
     1
 64
     7
176
     1
 65
   257
176
     1
 75
     1
176
     1
175
     1
176
     1
 42
1.0
176
     1
 92
        8
176
     1
 66
     8
424
  8421504
176
     1
 43
1.0
176
     1
 76
     1
176
     1
 77
     6
176
     1
 78
     2
176
     1
 67
     7
176
     1
 79
     5
176
     1
170
     0
176
     1
171
     0
176
     1
290
     0
176
     1
 93
        1
176
     1
 44
0.0
176
     1
173
     0
176
     1
  0
VISUALSTYLE
  5
34
102
{ACAD_REACTORS
330
2A
102
}
330
2A
100
AcDbVisualStyle
  2
Conceptual
 70
     9
177
     2
291
     0
 71
     3
176
     1
 72
     2
176
     1
 73
     0
176
     1
 90
        0
176
     1
 40
-0.6
176
     1
 41
-30.0
176
     1
 62
     5
 63
     7
421
 16777215
176
     1
 74
     2
176
     1
 91
        2
176
     1
 64
     7
176
     1
 65
   257
176
     1
 75
     1
176
     1
175
     1
176
     1
 42
40.0
176
     1
 92
        8
176
     1
 66
     7
176
     1
 43
1.0
176
     1
 76
     1
176
     1
 77
     6
176
     1
 78
     2
176
     1
 67
     7
176
     1
 79
     3
176
     1
170
     0
176
     1
171
     0
176
     1
290
     0
176
     1
 93
        1
176
     1
 44
0.0
176
     1
173
     0
176
     1
  0
VISUALSTYLE
  5
35
102
{ACAD_REACTORS
330
2A
102
}
330
2A
100
AcDbVisualStyle
  2
Dim
 70
    11
177
     2
291
     1
 71
     2
176
     1
 72
     2
176
     1
 73
     0
176
     1
 90
        0
176
     1
 40
-0.6
176
     1
 41
-30.0
176
     1
 62
     5
 63
     7
421
 16777215
176
     1
 74
     1
176
     1
 91
        4
176
     1
 64
     7
176
     1
 65
   257
176
     1
 75
     1
176
     1
175
     1
176
     1
 42
1.0
176
     1
 92
        8
176
     1
 66
     7
176
     1
 43
1.0
176
     1
 76
     1
176
     1
 77
     6
176
     1
 78
     2
176
     1
 67
     7
176
     1
 79
     5
176
     1
170
     0
176
     1
171
     0
176
     1
290
     0
176
     1
 93
        1
176
     1
 44
-50.0
176
     1
173
     0
176
     1
  0
VISUALSTYLE
  5
39
102
{ACAD_REACTORS
330
2A
102
}
330
2A
100
AcDbVisualStyle
  2
Facepattern
 70
    15
177
     2
291
     1
 71
     2
176
     1
 72
     2
176
     1
 73
     0
176
     1
 90
        0
176
     1
 40
-0.6
176
     1
 41
-30.0
176
     1
 62
     5
 63
     7
421
 16777215
176
     1
 74
     1
176
     1
 91
        4
176
     1
 64
     7
176
     1
 65
   257
176
     1
 75
     1
176
     1
175
     1
176
     1
 42
1.0
176
     1
 92
        8
176
     1
 66
     7
176
     1
 43
1.0
176
     1
 76
     1
176
     1
 77
     6
176
     1
 78
     2
176
     1
 67
     7
176
     1
 79
     5
176
     1
170
     0
176
     1
171
     0
176
     1
290
     0
176
     1
 93
        1
176
     1
 44
0.0
176
     1
173
     0
176
     1
  0
VISUALSTYLE
  5
2B
102
{ACAD_REACTORS
330
2A
102
}
330
2A
100
AcDbVisualStyle
  2
Flat
 70
     0
177
     2
291
     1
 71
     2
176
     1
 72
     1
176
     1
 73
     1
176
     1
 90
        2
176
     1
 40
-0.6
176
     1
 41
30.0
176
     1
 62
     5
 63
     7
421
 16777215
176
     1
 74
     0
176
     1
 91
        4
176
     1
 64
     7
176
     1
 65
   257
176
     1
 75
     1
176
     1
175
     1
176
     1
 42
1.0
176
     1
 92
        8
176
     1
 66
     7
176
     1
 43
1.0
176
     1
 76
     1
176
     1
 77
     6
176
     1
 78
     2
176
     1
 67
     7
176
     1
 79
     5
176
     1
170
     0
176
     1
171
     0
176
     1
290
     0
176
     1
 93
       13
176
     1
 44
0.0
176
     1
173
     0
176
     1
  0
VISUALSTYLE
  5
2C
102
{ACAD_REACTORS
330
2A
102
}
330
2A
100
AcDbVisualStyle
  2
FlatWithEdges
 70
     1
177
     2
291
     1
 71
     2
176
     1
 72
     1
176
     1
 73
     1
176
     1
 90
        2
176
     1
 40
-0.6
176
     1
 41
30.0
176
     1
 62
     5
 63
     7
421
 16777215
176
     1
 74
     1
176
     1
 91
        4
176
     1
 64
     7
176
     1
 65
   257
176
     1
 75
     1
176
     1
175
     1
176
     1
 42
1.0
176
     1
 92
        0
176
     1
 66
   257
176
     1
 43
1.0
176
     1
 76
     1
176
     1
 77
     6
176
     1
 78
     2
176
     1
 67
     7
176
     1
 79
     5
176
     1
170
     0
176
     1
171
     0
176
     1
290
     0
176
     1
 93
       13
176
     1
 44
0.0
176
     1
173
     0
176
     1
  0
VISUALSTYLE
  5
2D
102
{ACAD_REACTORS
330
2A
102
}
330
2A
100
AcDbVisualStyle
  2
Gouraud
 70
     2
177
     2
291
     1
 71
     2
176
     1
 72
     2
176
     1
 73
     1
176
     1
 90
        2
176
     1
 40
-0.6
176
     1
 41
30.0
176
     1
 62
     5
 63
     7
421
 16777215
176
     1
 74
     0
176
     1
 91
        4
176
     1
 64
     7
176
     1
 65
   257
176
     1
 75
     1
176
     1
175
     1
176
     1
 42
1.0
176
     1
 92
        0
176
     1
 66
     7
176
     1
 43
1.0
176
     1
 76
     1
176
     1
 77
     6
176
     1
 78
     2
176
     1
 67
     7
176
     1
 79
     5
176
     1
170
     0
176
     1
171
     0
176
     1
290
     0
176
     1
 93
       13
176
     1
 44
0.0
176
     1
173
     0
176
     1
  0
VISUALSTYLE
  5
2E
102
{ACAD_REACTORS
330
2A
102
}
330
2A
100
AcDbVisualStyle
  2
GouraudWithEdges
 70
     3
177
     2
291
     1
 71
     2
176
     1
 72
     2
176
     1
 73
     1
176
     1
 90
        2
176
     1
 40
-0.6
176
     1
 41
30.0
176
     1
 62
     5
 63
     7
421
 16777215
176
     1
 74
     1
176
     1
 91
        4
176
     1
 64
     7
176
     1
 65
   257
176
     1
 75
     1
176
     1
175
     1
176
     1
 42
1.0
176
     1
 92
        0
176
     1
 66
   257
176
     1
 43
1.0
176
     1
 76
     1
176
     1
 77
     6
176
     1
 78
     2
176
     1
 67
     7
176
     1
 79
     5
176
     1
170
     0
176
     1
171
     0
176
     1
290
     0
176
     1
 93
       13
176
     1
 44
0.0
176
     1
173
     0
176
     1
  0
VISUALSTYLE
  5
38
102
{ACAD_REACTORS
330
2A
102
}
330
2A
100
AcDbVisualStyle
  2
Linepattern
 70
    14
177
     2
291
     1
 71
     2
176
     1
 72
     2
176
     1
 73
     0
176
     1
 90
        0
176
     1
 40
-0.6
176
     1
 41
-30.0
176
     1
 62
     5
 63
     7
421
 16777215
176
     1
 74
     1
176
     1
 91
        4
176
     1
 64
     7
176
     1
 65
   257
176
     1
 75
     7
176
     1
175
     7
176
     1
 42
1.0
176
     1
 92
        8
176
     1
 66
     7
176
     1
 43
1.0
176
     1
 76
     1
176
     1
 77
     6
176
     1
 78
     2
176
     1
 67
     7
176
     1
 79
     5
176
     1
170
     0
176
     1
171
     0
176
     1
290
     0
176
     1
 93
        1
176
     1
 44
0.0
176
     1
173
     0
176
     1
  0
VISUALSTYLE
  5
33
102
{ACAD_REACTORS
330
2A
102
}
330
2A
100
AcDbVisualStyle
  2
Realistic
 70
     8
177
     2
291
     0
 71
     2
176
     1
 72
     2
176
     1
 73
     0
176
     1
 90
        0
176
     1
 40
-0.6
176
     1
 41
-30.0
176
     1
 62
     5
 63
     7
421
 16777215
176
     1
 74
     1
176
     1
 91
        0
176
     1
 64
     7
176
     1
 65
   257
176
     1
 75
     1
176
     1
175
     1
176
     1
 42
1.0
176
     1
 92
        8
176
     1
 66
     8
424
  7895160
176
     1
 43
1.0
176
     1
 76
     1
176
     1
 77
     6
176
     1
 78
     2
176
     1
 67
     7
176
     1
 79
     5
176
     1
170
     0
176
     1
171
     0
176
     1
290
     0
176
     1
 93
       13
176
     1
 44
0.0
176
     1
173
     0
176
     1
  0
VISUALSTYLE
  5
37
102
{ACAD_REACTORS
330
2A
102
}
330
2A
100
AcDbVisualStyle
  2
Thicken
 70
    13
177
     2
291
     1
 71
     2
176
     1
 72
     2
176
     1
 73
     0
176
     1
 90
        0
176
     1
 40
-0.6
176
     1
 41
-30.0
176
     1
 62
     5
 63
     7
421
 16777215
176
     1
 74
     1
176
     1
 91
        4
176
     1
 64
     7
176
     1
 65
   257
176
     1
 75
     1
176
     1
175
     1
176
     1
 42
1.0
176
     1
 92
       12
176
     1
 66
     7
176
     1
 43
1.0
176
     1
 76
     1
176
     1
 77
     6
176
     1
 78
     2
176
     1
 67
     7
176
     1
 79
     5
176
     1
170
     0
176
     1
171
     0
176
     1
290
     0
176
     1
 93
        1
176
     1
 44
0.0
176
     1
173
     0
176
     1
  0
ENDSEC
  0
EOF
