  0
SECTION
  2
HEADER
  9
$ACADVER
  1
AC1024
  9
$ACADMAINTVER
 70
     6
  9
$DWGCODEPAGE
  3
ANSI_1252
  9
$INSBASE
 10
0.0
 20
0.0
 30
0.0
  9
$EXTMIN
 10
1.000000000000000E+20
 20
1.000000000000000E+20
 30
1.000000000000000E+20
  9
$EXTMAX
 10
-1.000000000000000E+20
 20
-1.000000000000000E+20
 30
-1.000000000000000E+20
  9
$LIMMIN
 10
0.0
 20
0.0
  9
$LIMMAX
 10
12.0
 20
9.0
  9
$ORTHOMODE
 70
     0
  9
$REGENMODE
 70
     1
  9
$FILLMODE
 70
     1
  9
$QTEXTMODE
 70
     0
  9
$MIRRTEXT
 70
     1
  9
$LTSCALE
 40
1.0
  9
$ATTMODE
 70
     1
  9
$TEXTSIZE
 40
0.2
  9
$TRACEWID
 40
0.05
  9
$TEXTSTYLE
  7
Standard
  9
$CLAYER
  8
0
  9
$CELTYPE
  6
ByLayer
  9
$CECOLOR
 62
   256
  9
$CELTSCALE
 40
1.0
  9
$DISPSILH
 70
     0
  9
$DIMSCALE
 40
1.0
  9
$DIMASZ
 40
0.18
  9
$DIMEXO
 40
0.0625
  9
$DIMDLI
 40
0.38
  9
$DIMRND
 40
0.0
  9
$DIMDLE
 40
0.0
  9
$DIMEXE
 40
0.18
  9
$DIMTP
 40
0.0
  9
$DIMTM
 40
0.0
  9
$DIMTXT
 40
0.18
  9
$DIMCEN
 40
0.09
  9
$DIMTSZ
 40
0.0
  9
$DIMTOL
 70
     0
  9
$DIMLIM
 70
     0
  9
$DIMTIH
 70
     1
  9
$DIMTOH
 70
     1
  9
$DIMSE1
 70
     0
  9
$DIMSE2
 70
     0
  9
$DIMTAD
 70
     0
  9
$DIMZIN
 70
     0
  9
$DIMBLK
  1

  9
$DIMASO
 70
     1
  9
$DIMSHO
 70
     1
  9
$DIMPOST
  1

  9
$DIMAPOST
  1

  9
$DIMALT
 70
     0
  9
$DIMALTD
 70
     2
  9
$DIMALTF
 40
25.4
  9
$DIMLFAC
 40
1.0
  9
$DIMTOFL
 70
     0
  9
$DIMTVP
 40
0.0
  9
$DIMTIX
 70
     0
  9
$DIMSOXD
 70
     0
  9
$DIMSAH
 70
     0
  9
$DIMBLK1
  1

  9
$DIMBLK2
  1

  9
$DIMSTYLE
  2
Standard
  9
$DIMCLRD
 70
     0
  9
$DIMCLRE
 70
     0
  9
$DIMCLRT
 70
     0
  9
$DIMTFAC
 40
1.0
  9
$DIMGAP
 40
0.09
  9
$DIMJUST
 70
     0
  9
$DIMSD1
 70
     0
  9
$DIMSD2
 70
     0
  9
$DIMTOLJ
 70
     1
  9
$DIMTZIN
 70
     0
  9
$DIMALTZ
 70
     0
  9
$DIMALTTZ
 70
     0
  9
$DIMUPT
 70
     0
  9
$DIMDEC
 70
     4
  9
$DIMTDEC
 70
     4
  9
$DIMALTU
 70
     2
  9
$DIMALTTD
 70
     2
  9
$DIMTXSTY
  7
Standard
  9
$DIMAUNIT
 70
     0
  9
$DIMADEC
 70
     0
  9
$DIMALTRND
 40
0.0
  9
$DIMAZIN
 70
     0
  9
$DIMDSEP
 70
    46
  9
$DIMATFIT
 70
     3
  9
$DIMFRAC
 70
     0
  9
$DIMLDRBLK
  1

  9
$DIMLUNIT
 70
     2
  9
$DIMLWD
 70
    -2
  9
$DIMLWE
 70
    -2
  9
$DIMTMOVE
 70
     0
  9
$DIMFXL
 40
1.0
  9
$DIMFXLON
 70
     0
  9
$DIMJOGANG
 40
0.7853981633974483
  9
$DIMTFILL
 70
     0
  9
$DIMTFILLCLR
 70
     0
  9
$DIMARCSYM
 70
     0
  9
$DIMLTYPE
  6

  9
$DIMLTEX1
  6

  9
$DIMLTEX2
  6

  9
$DIMTXTDIRECTION
 70
     0
  9
$LUNITS
 70
     2
  9
$LUPREC
 70
     4
  9
$SKETCHINC
 40
0.1
  9
$FILLETRAD
 40
0.5
  9
$AUNITS
 70
     0
  9
$AUPREC
 70
     0
  9
$MENU
  1
.
  9
$ELEVATION
 40
0.0
  9
$PELEVATION
 40
0.0
  9
$THICKNESS
 40
0.0
  9
$LIMCHECK
 70
     0
  9
$CHAMFERA
 40
0.5
  9
$CHAMFERB
 40
0.5
  9
$CHAMFERC
 40
1.0
  9
$CHAMFERD
 40
0.0
  9
$SKPOLY
 70
     0
  9
$TDCREATE
 40
2458164.582584201
  9
$TDUCREATE
 40
2458164.540917535
  9
$TDUPDATE
 40
2458164.582584225
  9
$TDUUPDATE
 40
2458164.540917558
  9
$TDINDWG
 40
0.0000000116
  9
$TDUSRTIMER
 40
0.0000000116
  9
$USRTIMER
 70
     1
  9
$ANGBASE
 50
0.0
  9
$ANGDIR
 70
     0
  9
$PDMODE
 70
     0
  9
$PDSIZE
 40
0.0
  9
$PLINEWID
 40
0.0
  9
$SPLFRAME
 70
     0
  9
$SPLINETYPE
 70
     6
  9
$SPLINESEGS
 70
     8
  9
$HANDSEED
  5
45
  9
$SURFTAB1
 70
     6
  9
$SURFTAB2
 70
     6
  9
$SURFTYPE
 70
     6
  9
$SURFU
 70
     6
  9
$SURFV
 70
     6
  9
$UCSBASE
  2

  9
$UCSNAME
  2

  9
$UCSORG
 10
0.0
 20
0.0
 30
0.0
  9
$UCSXDIR
 10
1.0
 20
0.0
 30
0.0
  9
$UCSYDIR
 10
0.0
 20
1.0
 30
0.0
  9
$UCSORTHOREF
  2

  9
$UCSORTHOVIEW
 70
     0
  9
$UCSORGTOP
 10
0.0
 20
0.0
 30
0.0
  9
$UCSORGBOTTOM
 10
0.0
 20
0.0
 30
0.0
  9
$UCSORGLEFT
 10
0.0
 20
0.0
 30
0.0
  9
$UCSORGRIGHT
 10
0.0
 20
0.0
 30
0.0
  9
$UCSORGFRONT
 10
0.0
 20
0.0
 30
0.0
  9
$UCSORGBACK
 10
0.0
 20
0.0
 30
0.0
  9
$PUCSBASE
  2

  9
$PUCSNAME
  2

  9
$PUCSORG
 10
0.0
 20
0.0
 30
0.0
  9
$PUCSXDIR
 10
1.0
 20
0.0
 30
0.0
  9
$PUCSYDIR
 10
0.0
 20
1.0
 30
0.0
  9
$PUCSORTHOREF
  2

  9
$PUCSORTHOVIEW
 70
     0
  9
$PUCSORGTOP
 10
0.0
 20
0.0
 30
0.0
  9
$PUCSORGBOTTOM
 10
0.0
 20
0.0
 30
0.0
  9
$PUCSORGLEFT
 10
0.0
 20
0.0
 30
0.0
  9
$PUCSORGRIGHT
 10
0.0
 20
0.0
 30
0.0
  9
$PUCSORGFRONT
 10
0.0
 20
0.0
 30
0.0
  9
$PUCSORGBACK
 10
0.0
 20
0.0
 30
0.0
  9
$USERI1
 70
     0
  9
$USERI2
 70
     0
  9
$USERI3
 70
     0
  9
$USERI4
 70
     0
  9
$USERI5
 70
     0
  9
$USERR1
 40
0.0
  9
$USERR2
 40
0.0
  9
$USERR3
 40
0.0
  9
$USERR4
 40
0.0
  9
$USERR5
 40
0.0
  9
$WORLDVIEW
 70
     1
  9
$SHADEDGE
 70
     3
  9
$SHADEDIF
 70
    70
  9
$TILEMODE
 70
     1
  9
$MAXACTVP
 70
    64
  9
$PINSBASE
 10
0.0
 20
0.0
 30
0.0
  9
$PLIMCHECK
 70
     0
  9
$PEXTMIN
 10
1.000000000000000E+20
 20
1.000000000000000E+20
 30
1.000000000000000E+20
  9
$PEXTMAX
 10
-1.000000000000000E+20
 20
-1.000000000000000E+20
 30
-1.000000000000000E+20
  9
$PLIMMIN
 10
0.0
 20
0.0
  9
$PLIMMAX
 10
12.0
 20
9.0
  9
$UNITMODE
 70
     0
  9
$VISRETAIN
 70
     1
  9
$PLINEGEN
 70
     0
  9
$PSLTSCALE
 70
     1
  9
$TREEDEPTH
 70
  3020
  9
$CMLSTYLE
  2
Standard
  9
$CMLJUST
 70
     0
  9
$CMLSCALE
 40
1.0
  9
$PROXYGRAPHICS
 70
     1
  9
$MEASUREMENT
 70
     0
  9
$CELWEIGHT
370
    -1
  9
$ENDCAPS
280
     0
  9
$JOINSTYLE
280
     0
  9
$LWDISPLAY
290
     1
  9
$INSUNITS
 70
     1
  9
$HYPERLINKBASE
  1

  9
$STYLESHEET
  1

  9
$XEDIT
290
     1
  9
$CEPSNTYPE
380
     0
  9
$PSTYLEMODE
290
     1
  9
$FINGERPRINTGUID
  2
{366052B0-4D9C-4AE2-8E86-41311C8EE64B}
  9
$VERSIONGUID
  2
{FAEB1C32-E019-11D5-929B-00C0DF256EC4}
  9
$EXTNAMES
290
     1
  9
$PSVPSCALE
 40
0.0
  9
$OLESTARTUP
290
     0
  9
$SORTENTS
280
   127
  9
$INDEXCTL
280
     0
  9
$HIDETEXT
280
     1
  9
$XCLIPFRAME
280
     2
  9
$HALOGAP
280
     0
  9
$OBSCOLOR
 70
   257
  9
$OBSLTYPE
280
     0
  9
$INTERSECTIONDISPLAY
280
     0
  9
$INTERSECTIONCOLOR
 70
   257
  9
$DIMASSOC
280
     2
  9
$PROJECTNAME
  1

  9
$CAMERADISPLAY
290
     0
  9
$LENSLENGTH
 40
50.0
  9
$CAMERAHEIGHT
 40
0.0
  9
$STEPSPERSEC
 40
2.0
  9
$STEPSIZE
 40
6.0
  9
$3DDWFPREC
 40
2.0
  9
$PSOLWIDTH
 40
0.25
  9
$PSOLHEIGHT
 40
4.0
  9
$LOFTANG1
 40
1.570796326794897
  9
$LOFTANG2
 40
1.570796326794897
  9
$LOFTMAG1
 40
0.0
  9
$LOFTMAG2
 40
0.0
  9
$LOFTPARAM
 70
     7
  9
$LOFTNORMALS
280
     1
  9
$LATITUDE
 40
37.795
  9
$LONGITUDE
 40
-122.394
  9
$NORTHDIRECTION
 40
0.0
  9
$TIMEZONE
 70
 -8000
  9
$LIGHTGLYPHDISPLAY
280
     1
  9
$TILEMODELIGHTSYNCH
280
     1
  9
$CMATERIAL
347
3C
  9
$SOLIDHIST
280
     1
  9
$SHOWHIST
280
     1
  9
$DWFFRAME
280
     2
  9
$DGNFRAME
280
     2
  9
$REALWORLDSCALE
290
     1
  9
$INTERFERECOLOR
 62
   256
  9
$CSHADOW
280
     0
  9
$SHADOWPLANELOCATION
 40
0.0
  0
ENDSEC
  0
SECTION
  2
CLASSES
  0
CLASS
  1
ACDBDICTIONARYWDFLT
  2
AcDbDictionaryWithDefault
  3
ObjectDBX Classes
 90
        0
 91
        4
280
     0
281
     0
  0
CLASS
  1
VISUALSTYLE
  2
AcDbVisualStyle
  3
ObjectDBX Classes
 90
     4095
 91
        4
280
     0
281
     0
  0
CLASS
  1
MATERIAL
  2
AcDbMaterial
  3
ObjectDBX Classes
 90
     1153
 91
        4
280
     0
281
     0
  0
CLASS
  1
SUN
  2
AcDbSun
  3
SCENEOE
 90
     1024
 91
        4
280
     0
281
     0
  0
ENDSEC
  0
SECTION
  2
TABLES
  0
TABLE
  2
VPORT
  5
8
330
0
100
AcDbSymbolTable
 70
     1
  0
VPORT
  5
29
330
8
100
AcDbSymbolTableRecord
100
AcDbViewportTableRecord
  2
*Active
 70
     0
 10
0.0
 20
0.0
 11
1.0
 21
1.0
 12
0.0
 22
0.0
 13
0.0
 23
0.0
 14
0.5
 24
0.5
 15
0.5
 25
0.5
 16
0.0
 26
0.0
 36
1.0
 17
6.0
 27
-6.0
 37
0.0
 40
12.0
 41
1.0
 42
50.0
 43
0.0
 44
0.0
 50
0.0
 51
0.0
 71
     0
 72
   100
 73
     1
 74
     3
 75
     0
 76
     0
 77
     0
 78
     0
281
     0
 65
     1
110
0.0
120
0.0
130
0.0
111
1.0
121
0.0
131
0.0
112
0.0
122
1.0
132
0.0
 79
     0
146
0.0
 60
     3
 61
     5
292
     1
282
     1
141
0.0
142
0.0
 63
   250
361
3F
  0
ENDTAB
  0
TABLE
  2
LTYPE
  5
5
330
0
100
AcDbSymbolTable
 70
     1
  0
LTYPE
  5
14
330
5
100
AcDbSymbolTableRecord
100
AcDbLinetypeTableRecord
  2
ByBlock
 70
     0
  3

 72
    65
 73
     0
 40
0.0
  0
LTYPE
  5
15
330
5
100
AcDbSymbolTableRecord
100
AcDbLinetypeTableRecord
  2
ByLayer
 70
     0
  3

 72
    65
 73
     0
 40
0.0
  0
LTYPE
  5
16
330
5
100
AcDbSymbolTableRecord
100
AcDbLinetypeTableRecord
  2
Continuous
 70
     0
  3
Solid line
 72
    65
 73
     0
 40
0.0
  0
ENDTAB
  0
TABLE
  2
LAYER
  5
2
330
0
100
AcDbSymbolTable
 70
     2
  0
LAYER
  5
10
330
2
100
AcDbSymbolTableRecord
100
AcDbLayerTableRecord
  2
0
 70
     0
 62
     7
  6
Continuous
370
    -3
390
F
347
3E
  0
LAYER
  5
40
330
2
100
AcDbSymbolTableRecord
100
AcDbLayerTableRecord
  2
Layer 1
 70
     0
 62
     7
  6
Continuous
370
    -3
390
F
347
3E
  0
ENDTAB
  0
TABLE
  2
STYLE
  5
3
330
0
100
AcDbSymbolTable
 70
     1
  0
STYLE
  5
11
330
3
100
AcDbSymbolTableRecord
100
AcDbTextStyleTableRecord
  2
Standard
 70
     0
 40
0.0
 41
1.0
 50
0.0
 71
     0
 42
0.2
  3
txt
  4

  0
ENDTAB
  0
TABLE
  2
VIEW
  5
6
330
0
100
AcDbSymbolTable
 70
     0
  0
ENDTAB
  0
TABLE
  2
UCS
  5
7
330
0
100
AcDbSymbolTable
 70
     0
  0
ENDTAB
  0
TABLE
  2
APPID
  5
9
330
0
100
AcDbSymbolTable
 70
     1
  0
APPID
  5
12
330
9
100
AcDbSymbolTableRecord
100
AcDbRegAppTableRecord
  2
ACAD
 70
     0
  0
ENDTAB
  0
TABLE
  2
DIMSTYLE
  5
A
330
0
100
AcDbSymbolTable
 70
     1
100
AcDbDimStyleTable
  0
DIMSTYLE
105
27
330
A
100
AcDbSymbolTableRecord
100
AcDbDimStyleTableRecord
  2
Standard
 70
     0
178
     0
340
11
  0
ENDTAB
  0
TABLE
  2
BLOCK_RECORD
  5
1
330
0
100
AcDbSymbolTable
 70
     1
  0
BLOCK_RECORD
  5
1F
330
1
100
AcDbSymbolTableRecord
100
AcDbBlockTableRecord
  2
*Model_Space
340
22
 70
     0
280
     1
281
     0
  0
BLOCK_RECORD
  5
1B
330
1
100
AcDbSymbolTableRecord
100
AcDbBlockTableRecord
  2
*Paper_Space
340
1E
 70
     0
280
     1
281
     0
  0
BLOCK_RECORD
  5
23
330
1
100
AcDbSymbolTableRecord
100
AcDbBlockTableRecord
  2
*Paper_Space0
340
26
 70
     0
280
     1
281
     0
  0
ENDTAB
  0
ENDSEC
  0
SECTION
  2
BLOCKS
  0
BLOCK
  5
20
330
1F
100
AcDbEntity
  8
0
100
AcDbBlockBegin
  2
*Model_Space
 70
     0
 10
0.0
 20
0.0
 30
0.0
  3
*Model_Space
  1

  0
ENDBLK
  5
21
330
1F
100
AcDbEntity
  8
0
100
AcDbBlockEnd
  0
BLOCK
  5
1C
330
1B
100
AcDbEntity
 67
     1
  8
0
100
AcDbBlockBegin
  2
*Paper_Space
 70
     0
 10
0.0
 20
0.0
 30
0.0
  3
*Paper_Space
  1

  0
ENDBLK
  5
1D
330
1B
100
AcDbEntity
 67
     1
  8
0
100
AcDbBlockEnd
  0
BLOCK
  5
24
330
23
100
AcDbEntity
  8
0
100
AcDbBlockBegin
  2
*Paper_Space0
 70
     0
 10
0.0
 20
0.0
 30
0.0
  3
*Paper_Space0
  1

  0
ENDBLK
  5
25
330
23
100
AcDbEntity
  8
0
100
AcDbBlockEnd
  0
ENDSEC
  0
SECTION
  2
ENTITIES
  0
SPLINE
  5
41
330
1F
100
AcDbEntity
  8
Layer 1
 62
     7
420
 16777215
370
    18
100
AcDbSpline
210
0.0
220
0.0
230
1.0
 70
    11
 71
     3
 72
   947
 73
   943
 74
     0
 42
0.0000000001
 43
0.0000000001
 12
1.0
 22
0.0
 32
0.0
 13
1.0
 23
0.0
 33
0.0
 40
0.0
 40
0.0
 40
0.0
 40
0.0
 40
1.0
 40
1.0
 40
1.0
 40
2.0
 40
2.0
 40
2.0
 40
3.0
 40
3.0
 40
3.0
 40
4.0
 40
4.0
 40
4.0
 40
5.0
 40
5.0
 40
5.0
 40
6.0
 40
6.0
 40
6.0
 40
7.0
 40
7.0
 40
7.0
 40
8.0
 40
8.0
 40
8.0
 40
9.0
 40
9.0
 40
9.0
 40
10.0
 40
10.0
 40
10.0
 40
11.0
 40
11.0
 40
11.0
 40
12.0
 40
12.0
 40
12.0
 40
13.0
 40
13.0
 40
13.0
 40
14.0
 40
14.0
 40
14.0
 40
15.0
 40
15.0
 40
15.0
 40
16.0
 40
16.0
 40
16.0
 40
17.0
 40
17.0
 40
17.0
 40
18.0
 40
18.0
 40
18.0
 40
19.0
 40
19.0
 40
19.0
 40
20.0
 40
20.0
 40
20.0
 40
21.0
 40
21.0
 40
21.0
 40
22.0
 40
22.0
 40
22.0
 40
23.0
 40
23.0
 40
23.0
 40
24.0
 40
24.0
 40
24.0
 40
25.0
 40
25.0
 40
25.0
 40
26.0
 40
26.0
 40
26.0
 40
27.0
 40
27.0
 40
27.0
 40
28.0
 40
28.0
 40
28.0
 40
29.0
 40
29.0
 40
29.0
 40
30.0
 40
30.0
 40
30.0
 40
31.0
 40
31.0
 40
31.0
 40
32.0
 40
32.0
 40
32.0
 40
33.0
 40
33.0
 40
33.0
 40
34.0
 40
34.0
 40
34.0
 40
35.0
 40
35.0
 40
35.0
 40
36.0
 40
36.0
 40
36.0
 40
37.0
 40
37.0
 40
37.0
 40
38.0
 40
38.0
 40
38.0
 40
39.0
 40
39.0
 40
39.0
 40
40.0
 40
40.0
 40
40.0
 40
41.0
 40
41.0
 40
41.0
 40
42.0
 40
42.0
 40
42.0
 40
43.0
 40
43.0
 40
43.0
 40
44.0
 40
44.0
 40
44.0
 40
45.0
 40
45.0
 40
45.0
 40
46.0
 40
46.0
 40
46.0
 40
47.0
 40
47.0
 40
47.0
 40
48.0
 40
48.0
 40
48.0
 40
49.0
 40
49.0
 40
49.0
 40
50.0
 40
50.0
 40
50.0
 40
51.0
 40
51.0
 40
51.0
 40
52.0
 40
52.0
 40
52.0
 40
53.0
 40
53.0
 40
53.0
 40
54.0
 40
54.0
 40
54.0
 40
55.0
 40
55.0
 40
55.0
 40
56.0
 40
56.0
 40
56.0
 40
57.0
 40
57.0
 40
57.0
 40
58.0
 40
58.0
 40
58.0
 40
59.0
 40
59.0
 40
59.0
 40
60.0
 40
60.0
 40
60.0
 40
61.0
 40
61.0
 40
61.0
 40
62.0
 40
62.0
 40
62.0
 40
63.0
 40
63.0
 40
63.0
 40
64.0
 40
64.0
 40
64.0
 40
65.0
 40
65.0
 40
65.0
 40
66.0
 40
66.0
 40
66.0
 40
67.0
 40
67.0
 40
67.0
 40
68.0
 40
68.0
 40
68.0
 40
69.0
 40
69.0
 40
69.0
 40
70.0
 40
70.0
 40
70.0
 40
71.0
 40
71.0
 40
71.0
 40
72.0
 40
72.0
 40
72.0
 40
73.0
 40
73.0
 40
73.0
 40
74.0
 40
74.0
 40
74.0
 40
75.0
 40
75.0
 40
75.0
 40
76.0
 40
76.0
 40
76.0
 40
77.0
 40
77.0
 40
77.0
 40
78.0
 40
78.0
 40
78.0
 40
79.0
 40
79.0
 40
79.0
 40
80.0
 40
80.0
 40
80.0
 40
81.0
 40
81.0
 40
81.0
 40
82.0
 40
82.0
 40
82.0
 40
83.0
 40
83.0
 40
83.0
 40
84.0
 40
84.0
 40
84.0
 40
85.0
 40
85.0
 40
85.0
 40
86.0
 40
86.0
 40
86.0
 40
87.0
 40
87.0
 40
87.0
 40
88.0
 40
88.0
 40
88.0
 40
89.0
 40
89.0
 40
89.0
 40
90.0
 40
90.0
 40
90.0
 40
91.0
 40
91.0
 40
91.0
 40
92.0
 40
92.0
 40
92.0
 40
93.0
 40
93.0
 40
93.0
 40
94.0
 40
94.0
 40
94.0
 40
95.0
 40
95.0
 40
95.0
 40
96.0
 40
96.0
 40
96.0
 40
97.0
 40
97.0
 40
97.0
 40
98.0
 40
98.0
 40
98.0
 40
99.0
 40
99.0
 40
99.0
 40
100.0
 40
100.0
 40
100.0
 40
101.0
 40
101.0
 40
101.0
 40
102.0
 40
102.0
 40
102.0
 40
103.0
 40
103.0
 40
103.0
 40
104.0
 40
104.0
 40
104.0
 40
105.0
 40
105.0
 40
105.0
 40
106.0
 40
106.0
 40
106.0
 40
107.0
 40
107.0
 40
107.0
 40
108.0
 40
108.0
 40
108.0
 40
109.0
 40
109.0
 40
109.0
 40
110.0
 40
110.0
 40
110.0
 40
111.0
 40
111.0
 40
111.0
 40
112.0
 40
112.0
 40
112.0
 40
113.0
 40
113.0
 40
113.0
 40
114.0
 40
114.0
 40
114.0
 40
115.0
 40
115.0
 40
115.0
 40
116.0
 40
116.0
 40
116.0
 40
117.0
 40
117.0
 40
117.0
 40
118.0
 40
118.0
 40
118.0
 40
119.0
 40
119.0
 40
119.0
 40
120.0
 40
120.0
 40
120.0
 40
121.0
 40
121.0
 40
121.0
 40
122.0
 40
122.0
 40
122.0
 40
123.0
 40
123.0
 40
123.0
 40
124.0
 40
124.0
 40
124.0
 40
125.0
 40
125.0
 40
125.0
 40
126.0
 40
126.0
 40
126.0
 40
127.0
 40
127.0
 40
127.0
 40
128.0
 40
128.0
 40
128.0
 40
129.0
 40
129.0
 40
129.0
 40
130.0
 40
130.0
 40
130.0
 40
131.0
 40
131.0
 40
131.0
 40
132.0
 40
132.0
 40
132.0
 40
133.0
 40
133.0
 40
133.0
 40
134.0
 40
134.0
 40
134.0
 40
135.0
 40
135.0
 40
135.0
 40
136.0
 40
136.0
 40
136.0
 40
137.0
 40
137.0
 40
137.0
 40
138.0
 40
138.0
 40
138.0
 40
139.0
 40
139.0
 40
139.0
 40
140.0
 40
140.0
 40
140.0
 40
141.0
 40
141.0
 40
141.0
 40
142.0
 40
142.0
 40
142.0
 40
143.0
 40
143.0
 40
143.0
 40
144.0
 40
144.0
 40
144.0
 40
145.0
 40
145.0
 40
145.0
 40
146.0
 40
146.0
 40
146.0
 40
147.0
 40
147.0
 40
147.0
 40
148.0
 40
148.0
 40
148.0
 40
149.0
 40
149.0
 40
149.0
 40
150.0
 40
150.0
 40
150.0
 40
151.0
 40
151.0
 40
151.0
 40
152.0
 40
152.0
 40
152.0
 40
153.0
 40
153.0
 40
153.0
 40
154.0
 40
154.0
 40
154.0
 40
155.0
 40
155.0
 40
155.0
 40
156.0
 40
156.0
 40
156.0
 40
157.0
 40
157.0
 40
157.0
 40
158.0
 40
158.0
 40
158.0
 40
159.0
 40
159.0
 40
159.0
 40
160.0
 40
160.0
 40
160.0
 40
161.0
 40
161.0
 40
161.0
 40
162.0
 40
162.0
 40
162.0
 40
163.0
 40
163.0
 40
163.0
 40
164.0
 40
164.0
 40
164.0
 40
165.0
 40
165.0
 40
165.0
 40
166.0
 40
166.0
 40
166.0
 40
167.0
 40
167.0
 40
167.0
 40
168.0
 40
168.0
 40
168.0
 40
169.0
 40
169.0
 40
169.0
 40
170.0
 40
170.0
 40
170.0
 40
171.0
 40
171.0
 40
171.0
 40
172.0
 40
172.0
 40
172.0
 40
173.0
 40
173.0
 40
173.0
 40
174.0
 40
174.0
 40
174.0
 40
175.0
 40
175.0
 40
175.0
 40
176.0
 40
176.0
 40
176.0
 40
177.0
 40
177.0
 40
177.0
 40
178.0
 40
178.0
 40
178.0
 40
179.0
 40
179.0
 40
179.0
 40
180.0
 40
180.0
 40
180.0
 40
181.0
 40
181.0
 40
181.0
 40
182.0
 40
182.0
 40
182.0
 40
183.0
 40
183.0
 40
183.0
 40
184.0
 40
184.0
 40
184.0
 40
185.0
 40
185.0
 40
185.0
 40
186.0
 40
186.0
 40
186.0
 40
187.0
 40
187.0
 40
187.0
 40
188.0
 40
188.0
 40
188.0
 40
189.0
 40
189.0
 40
189.0
 40
190.0
 40
190.0
 40
190.0
 40
191.0
 40
191.0
 40
191.0
 40
192.0
 40
192.0
 40
192.0
 40
193.0
 40
193.0
 40
193.0
 40
194.0
 40
194.0
 40
194.0
 40
195.0
 40
195.0
 40
195.0
 40
196.0
 40
196.0
 40
196.0
 40
197.0
 40
197.0
 40
197.0
 40
198.0
 40
198.0
 40
198.0
 40
199.0
 40
199.0
 40
199.0
 40
200.0
 40
200.0
 40
200.0
 40
201.0
 40
201.0
 40
201.0
 40
202.0
 40
202.0
 40
202.0
 40
203.0
 40
203.0
 40
203.0
 40
204.0
 40
204.0
 40
204.0
 40
205.0
 40
205.0
 40
205.0
 40
206.0
 40
206.0
 40
206.0
 40
207.0
 40
207.0
 40
207.0
 40
208.0
 40
208.0
 40
208.0
 40
209.0
 40
209.0
 40
209.0
 40
210.0
 40
210.0
 40
210.0
 40
211.0
 40
211.0
 40
211.0
 40
212.0
 40
212.0
 40
212.0
 40
213.0
 40
213.0
 40
213.0
 40
214.0
 40
214.0
 40
214.0
 40
215.0
 40
215.0
 40
215.0
 40
216.0
 40
216.0
 40
216.0
 40
217.0
 40
217.0
 40
217.0
 40
218.0
 40
218.0
 40
218.0
 40
219.0
 40
219.0
 40
219.0
 40
220.0
 40
220.0
 40
220.0
 40
221.0
 40
221.0
 40
221.0
 40
222.0
 40
222.0
 40
222.0
 40
223.0
 40
223.0
 40
223.0
 40
224.0
 40
224.0
 40
224.0
 40
225.0
 40
225.0
 40
225.0
 40
226.0
 40
226.0
 40
226.0
 40
227.0
 40
227.0
 40
227.0
 40
228.0
 40
228.0
 40
228.0
 40
229.0
 40
229.0
 40
229.0
 40
230.0
 40
230.0
 40
230.0
 40
231.0
 40
231.0
 40
231.0
 40
232.0
 40
232.0
 40
232.0
 40
233.0
 40
233.0
 40
233.0
 40
234.0
 40
234.0
 40
234.0
 40
235.0
 40
235.0
 40
235.0
 40
236.0
 40
236.0
 40
236.0
 40
237.0
 40
237.0
 40
237.0
 40
238.0
 40
238.0
 40
238.0
 40
239.0
 40
239.0
 40
239.0
 40
240.0
 40
240.0
 40
240.0
 40
241.0
 40
241.0
 40
241.0
 40
242.0
 40
242.0
 40
242.0
 40
243.0
 40
243.0
 40
243.0
 40
244.0
 40
244.0
 40
244.0
 40
245.0
 40
245.0
 40
245.0
 40
246.0
 40
246.0
 40
246.0
 40
247.0
 40
247.0
 40
247.0
 40
248.0
 40
248.0
 40
248.0
 40
249.0
 40
249.0
 40
249.0
 40
250.0
 40
250.0
 40
250.0
 40
251.0
 40
251.0
 40
251.0
 40
252.0
 40
252.0
 40
252.0
 40
253.0
 40
253.0
 40
253.0
 40
254.0
 40
254.0
 40
254.0
 40
255.0
 40
255.0
 40
255.0
 40
256.0
 40
256.0
 40
256.0
 40
257.0
 40
257.0
 40
257.0
 40
258.0
 40
258.0
 40
258.0
 40
259.0
 40
259.0
 40
259.0
 40
260.0
 40
260.0
 40
260.0
 40
261.0
 40
261.0
 40
261.0
 40
262.0
 40
262.0
 40
262.0
 40
263.0
 40
263.0
 40
263.0
 40
264.0
 40
264.0
 40
264.0
 40
265.0
 40
265.0
 40
265.0
 40
266.0
 40
266.0
 40
266.0
 40
267.0
 40
267.0
 40
267.0
 40
268.0
 40
268.0
 40
268.0
 40
269.0
 40
269.0
 40
269.0
 40
270.0
 40
270.0
 40
270.0
 40
271.0
 40
271.0
 40
271.0
 40
272.0
 40
272.0
 40
272.0
 40
273.0
 40
273.0
 40
273.0
 40
274.0
 40
274.0
 40
274.0
 40
275.0
 40
275.0
 40
275.0
 40
276.0
 40
276.0
 40
276.0
 40
277.0
 40
277.0
 40
277.0
 40
278.0
 40
278.0
 40
278.0
 40
279.0
 40
279.0
 40
279.0
 40
280.0
 40
280.0
 40
280.0
 40
281.0
 40
281.0
 40
281.0
 40
282.0
 40
282.0
 40
282.0
 40
283.0
 40
283.0
 40
283.0
 40
284.0
 40
284.0
 40
284.0
 40
285.0
 40
285.0
 40
285.0
 40
286.0
 40
286.0
 40
286.0
 40
287.0
 40
287.0
 40
287.0
 40
288.0
 40
288.0
 40
288.0
 40
289.0
 40
289.0
 40
289.0
 40
290.0
 40
290.0
 40
290.0
 40
291.0
 40
291.0
 40
291.0
 40
292.0
 40
292.0
 40
292.0
 40
293.0
 40
293.0
 40
293.0
 40
294.0
 40
294.0
 40
294.0
 40
295.0
 40
295.0
 40
295.0
 40
296.0
 40
296.0
 40
296.0
 40
297.0
 40
297.0
 40
297.0
 40
298.0
 40
298.0
 40
298.0
 40
299.0
 40
299.0
 40
299.0
 40
300.0
 40
300.0
 40
300.0
 40
301.0
 40
301.0
 40
301.0
 40
302.0
 40
302.0
 40
302.0
 40
303.0
 40
303.0
 40
303.0
 40
304.0
 40
304.0
 40
304.0
 40
305.0
 40
305.0
 40
305.0
 40
306.0
 40
306.0
 40
306.0
 40
307.0
 40
307.0
 40
307.0
 40
308.0
 40
308.0
 40
308.0
 40
309.0
 40
309.0
 40
309.0
 40
310.0
 40
310.0
 40
310.0
 40
311.0
 40
311.0
 40
311.0
 40
312.0
 40
312.0
 40
312.0
 40
313.0
 40
313.0
 40
313.0
 40
314.0
 40
314.0
 40
314.0
 40
314.0
 10
5.992797111697225
 20
-8.066524745774661
 30
0.0
 10
5.992797111697225
 20
-8.066524745774661
 30
0.0
 10
5.988389409003363
 20
-8.041989736115585
 30
0.0
 10
6.021810463799157
 20
-8.033516079732559
 30
0.0
 10
6.067276212913131
 20
-8.021959769781308
 30
0.0
 10
6.171904134055593
 20
-8.037414301488802
 30
0.0
 10
6.186696016236586
 20
-8.144795018970802
 30
0.0
 10
6.201439352693291
 20
-8.252173309166462
 30
0.0
 10
6.12663039161392
 20
-8.324967624528123
 30
0.0
 10
6.016453443127451
 20
-8.335657393279487
 30
0.0
 10
6.016453443127451
 20
-8.335657393279487
 30
0.0
 10
5.997870139882037
 20
-8.362775035534241
 30
0.0
 10
6.008727391112012
 20
-8.376916405367435
 30
0.0
 10
6.008727391112012
 20
-8.376916405367435
 30
0.0
 10
5.974876457587912
 20
-8.39050920850266
 30
0.0
 10
5.959470471995094
 20
-8.34349267337244
 30
0.0
 10
5.959470471995094
 20
-8.34349267337244
 30
0.0
 10
5.91860492862165
 20
-8.322324309775594
 30
0.0
 10
5.893950735252221
 20
-8.30560273463301
 30
0.0
 10
5.893950735252221
 20
-8.30560273463301
 30
0.0
 10
5.861713947059646
 20
-8.314515729831657
 30
0.0
 10
5.847776715142055
 20
-8.294116815983745
 30
0.0
 10
5.83379044646727
 20
-8.27369605655935
 30
0.0
 10
5.823741481546159
 20
-8.217043194920759
 30
0.0
 10
5.811318875304361
 20
-8.207610760459449
 30
0.0
 10
5.798803542995566
 20
-8.1981394894177
 30
0.0
 10
5.74589598541455
 20
-8.154074534396841
 30
0.0
 10
5.761588390780477
 20
-8.138513202093286
 30
0.0
 10
5.761588390780477
 20
-8.138513202093286
 30
0.0
 10
5.775715196539143
 20
-8.127655950589036
 30
0.0
 10
5.763343318712359
 20
-8.102552955941821
 30
0.0
 10
5.750969013599362
 20
-8.077452388580872
 30
0.0
 10
5.760877195920127
 20
-8.035897247567465
 30
0.0
 10
5.727074808120278
 20
-8.033860754383467
 30
0.0
 10
5.693320966044691
 20
-8.031797561050452
 30
0.0
 10
5.715508789316155
 20
-7.981853718673594
 30
0.0
 10
5.73214783630509
 20
-7.972892177749448
 30
0.0
 10
5.73214783630509
 20
-7.972892177749448
 30
0.0
 10
5.738927246697522
 20
-7.925057647144841
 30
0.0
 10
5.757559095667185
 20
-7.897930295745001
 30
0.0
 10
5.757559095667185
 20
-7.897930295745001
 30
0.0
 10
5.768557129497518
 20
-7.880791227363235
 30
0.0
 10
5.752439949044325
 20
-7.860690869727023
 30
0.0
 10
5.73627179558068
 20
-7.840600221235895
 30
0.0
 10
5.717783156497565
 20
-7.825276762987237
 30
0.0
 10
5.747840241671029
 20
-7.816659896713999
 30
0.0
 10
5.777943689034853
 20
-7.808079439734885
 30
0.0
 10
5.815539681433013
 20
-7.79992618514004
 30
0.0
 10
5.83142141512355
 20
-7.785821224600972
 30
0.0
 10
5.847349267252134
 20
-7.771716264061903
 30
0.0
 10
5.899308002742183
 20
-7.727330907252862
 30
0.0
 10
5.891154501535033
 20
-7.689785643164365
 30
0.0
 10
5.883001247146151
 20
-7.652237951789579
 30
0.0
 10
5.866124326108357
 20
-7.605410744988754
 30
0.0
 10
5.890110768463526
 20
-7.606583124259158
 30
0.0
 10
5.914148183829158
 20
-7.607757930815851
 30
0.0
 10
5.968997570380439
 20
-7.638904868285711
 30
0.0
 10
5.992134462561125
 20
-7.634222633062866
 30
0.0
 10
6.015363591617895
 20
-7.629552534271422
 30
0.0
 10
6.041199626067232
 20
-7.633441046882606
 30
0.0
 10
6.067416744451975
 20
-7.597065734778223
 30
0.0
 10
6.093682408561007
 20
-7.560717122822906
 30
0.0
 10
6.125919449296488
 20
-7.53544907270902
 30
0.0
 10
6.136871112145855
 20
-7.560729259254256
 30
0.0
 10
6.147774481813889
 20
-7.586021582230867
 30
0.0
 10
6.164272746202465
 20
-7.619491432665073
 30
0.0
 10
6.189540795678012
 20
-7.618993838978869
 30
0.0
 10
6.214760299429296
 20
-7.618484108861316
 30
0.0
 10
6.264493222687532
 20
-7.601201830589363
 30
0.0
 10
6.273689954104333
 20
-7.592514573014189
 30
0.0
 10
6.282933060002783
 20
-7.583815179007665
 30
0.0
 10
6.305072337549998
 20
-7.571821957527113
 30
0.0
 10
6.32119194528938
 20
-7.602364500714707
 30
0.0
 10
6.337311810911943
 20
-7.632882771039552
 30
0.0
 10
6.35508899725154
 20
-7.664670512085776
 30
0.0
 10
6.36798274161409
 20
-7.671852852170963
 30
0.0
 10
6.380878913262828
 20
-7.678998782962051
 30
0.0
 10
6.407331478410242
 20
-7.676843352750615
 30
0.0
 10
6.43013583237977
 20
-7.669233810281159
 30
0.0
 10
6.452891640625037
 20
-7.661636404243078
 30
0.0
 10
6.473086661915759
 20
-7.667811420524508
 30
0.0
 10
6.473798118107197
 20
-7.694501860395045
 30
0.0
 10
6.474462933198437
 20
-7.721180163834156
 30
0.0
 10
6.481383126191202
 20
-7.793192893015556
 30
0.0
 10
6.504804010858783
 20
-7.822691703105242
 30
0.0
 10
6.528222468240149
 20
-7.852226922489081
 30
0.0
 10
6.576340990123248
 20
-7.823274251811047
 30
0.0
 10
6.569656243893127
 20
-7.861414201036723
 30
0.0
 10
6.563020043387243
 20
-7.899542013831024
 30
0.0
 10
6.553157979504526
 20
-7.914297487091567
 30
0.0
 10
6.558612091624759
 20
-7.9433229763578
 30
0.0
 10
6.564109894896824
 20
-7.972312056329933
 30
0.0
 10
6.570843186851207
 20
-8.032401955332716
 30
0.0
 10
6.587720107889001
 20
-8.036040457457652
 30
0.0
 10
6.604643147364842
 20
-8.03967895958259
 30
0.0
 10
6.646931327764731
 20
-8.044278667072097
 30
0.0
 10
6.648259053323145
 20
-8.064947009696475
 30
0.0
 10
6.649635324605823
 20
-8.085593506744367
 30
0.0
 10
6.597912282696647
 20
-8.13140125331006
 30
0.0
 10
6.597106423673999
 20
-8.158305294372692
 30
0.0
 10
6.596346683089374
 20
-8.185197199004
 30
0.0
 10
6.569750908055438
 20
-8.251343177260752
 30
0.0
 10
6.599902657391188
 20
-8.265067053854763
 30
0.0
 10
6.630102952451175
 20
-8.278781221303664
 30
0.0
 10
6.678459348383158
 20
-8.32723228262191
 30
0.0
 10
6.649538233157298
 20
-8.344594661340881
 30
0.0
 10
6.620668090941914
 20
-8.36194733091477
 30
0.0
 10
6.578001517856314
 20
-8.35443245261005
 30
0.0
 10
6.557519812828988
 20
-8.390011614816432
 30
0.0
 10
6.537135463213644
 20
-8.425520385720953
 30
0.0
 10
6.51433110924414
 20
-8.476330769297672
 30
0.0
 10
6.528460605000999
 20
-8.492246485397219
 30
0.0
 10
6.542538865391028
 20
-8.50815249235173
 30
0.0
 10
6.561075787130776
 20
-8.556224897011184
 30
0.0
 10
6.531967770866534
 20
-8.572140613110808
 30
0.0
 10
6.50290587304034
 20
-8.588034483633919
 30
0.0
 10
6.470101099873975
 20
-8.555300100940737
 30
0.0
 10
6.434165127493062
 20
-8.575140738945619
 30
0.0
 10
6.398183036674102
 20
-8.59499108609561
 30
0.0
 10
6.353428991772236
 20
-8.626458425353626
 30
0.0
 10
6.359686277338621
 20
-8.661316683536622
 30
0.0
 10
6.365992366919549
 20
-8.69618465086478
 30
0.0
 10
6.385335410749601
 20
-8.739669484466098
 30
0.0
 10
6.332095314957415
 20
-8.709743471992118
 30
0.0
 10
6.278903764889492
 20
-8.679863577957374
 30
0.0
 10
6.268379051870674
 20
-8.69022323577547
 30
0.0
 10
6.241261410300947
 20
-8.698425036095765
 30
0.0
 10
6.214097650293196
 20
-8.706636545561246
 30
0.0
 10
6.191531170372526
 20
-8.715704887081477
 30
0.0
 10
6.182096308863265
 20
-8.722957618468627
 30
0.0
 10
6.172709993078266
 20
-8.730188504279264
 30
0.0
 10
6.170765736821775
 20
-8.81382793471385
 30
0.0
 10
6.157634118410392
 20
-8.815628981129242
 30
0.0
 10
6.144502499998983
 20
-8.817430027544686
 30
0.0
 10
6.123120535750179
 20
-8.802497362386122
 30
0.0
 10
6.108566527618071
 20
-8.783651911753623
 30
0.0
 10
6.094107183648248
 20
-8.764818597552523
 30
0.0
 10
6.059263490063105
 20
-8.760682501741384
 30
0.0
 10
6.027546141120082
 20
-8.768008051716782
 30
0.0
 10
5.99583121946326
 20
-8.775367583699966
 30
0.0
 10
5.98013881409732
 20
-8.78048673045214
 30
0.0
 10
5.975255114237117
 20
-8.799023915727831
 30
0.0
 10
5.970373841663116
 20
-8.817573237434797
 30
0.0
 10
5.945200456349867
 20
-8.883527460075937
 30
0.0
 10
5.920405727685837
 20
-8.833357880075608
 30
0.0
 10
5.895705663184091
 20
-8.78318830007528
 30
0.0
 10
5.874134370610691
 20
-8.799545782276759
 30
0.0
 10
5.865932816472663
 20
-8.805138249852385
 30
0.0
 10
5.857827861832902
 20
-8.810708871851551
 30
0.0
 10
5.836445897584099
 20
-8.828571271543018
 30
0.0
 10
5.819663640708616
 20
-8.804060534746643
 30
0.0
 10
5.802927502271157
 20
-8.779598343675818
 30
0.0
 10
5.781358636983971
 20
-8.795941262159658
 30
0.0
 10
5.779652254776352
 20
-8.805104267844525
 30
0.0
 10
5.777897326844468
 20
-8.814276982674528
 30
0.0
 10
5.736936872002994
 20
-8.830314063087826
 30
0.0
 10
5.727456134532606
 20
-8.804820275350469
 30
0.0
 10
5.718067148984472
 20
-8.779326487613137
 30
0.0
 10
5.695692424674626
 20
-8.746684341798401
 30
0.0
 10
5.670613703523675
 20
-8.74866500739808
 30
0.0
 10
5.645581100810785
 20
-8.750597127272334
 30
0.0
 10
5.635389166154229
 20
-8.784753899722116
 30
0.0
 10
5.622492754354362
 20
-8.744849313375147
 30
0.0
 10
5.609550464267563
 20
-8.704942299741914
 30
0.0
 10
5.597273250603077
 20
-8.734916857941318
 30
0.0
 10
5.59177302004481
 20
-8.749067936919573
 30
0.0
 10
5.586321335210792
 20
-8.763206879466477
 30
0.0
 10
5.554652531992019
 20
-8.760148498761055
 30
0.0
 10
5.558968246878432
 20
-8.726797585354284
 30
0.0
 10
5.563327652916668
 20
-8.693446671947514
 30
0.0
 10
5.541664123467184
 20
-8.687485256858256
 30
0.0
 10
5.530428215587992
 20
-8.681594233070882
 30
0.0
 10
5.519192307708813
 20
-8.675715345714883
 30
0.0
 10
5.491696009489892
 20
-8.67057192609996
 30
0.0
 10
5.480933422422216
 20
-8.689902833987237
 30
0.0
 10
5.47021938107879
 20
-8.709233741874565
 30
0.0
 10
5.44798543936929
 20
-8.698910493350619
 30
0.0
 10
5.451065665573373
 20
-8.66720528003773
 30
0.0
 10
5.454148319063657
 20
-8.635536476018917
 30
0.0
 10
5.432861018977152
 20
-8.642932417296278
 30
0.0
 10
5.424423772101363
 20
-8.657498562227424
 30
0.0
 10
5.415984097939359
 20
-8.672040434295821
 30
0.0
 10
5.379528919996409
 20
-8.666637295049592
 30
0.0
 10
5.385737684441311
 20
-8.63602436056006
 30
0.0
 10
5.391949109859929
 20
-8.60536288034503
 30
0.0
 10
5.38166227088997
 20
-8.574060596553611
 30
0.0
 10
5.38166227088997
 20
-8.574060596553611
 30
0.0
 10
5.38166227088997
 20
-8.574060596553611
 30
0.0
 10
5.338092483369703
 20
-8.538362497319742
 30
0.0
 10
5.316144961433312
 20
-8.551814517851072
 30
0.0
 10
5.294146466486445
 20
-8.565232556374566
 30
0.0
 10
5.266839496592133
 20
-8.561569781386904
 30
0.0
 10
5.267028824916729
 20
-8.530291770458259
 30
0.0
 10
5.26717203480329
 20
-8.499001623098188
 30
0.0
 10
5.270490135056219
 20
-8.501526000823281
 30
0.0
 10
5.240149057395873
 20
-8.519080135157916
 30
0.0
 10
5.209795843304454
 20
-8.536631842206285
 30
0.0
 10
5.1964263508442
 20
-8.504276116171898
 30
0.0
 10
5.2057180024669
 20
-8.485124827468882
 30
0.0
 10
5.215009654089613
 20
-8.46598324791095
 30
0.0
 10
5.217334994281499
 20
-8.418054053141658
 30
0.0
 10
5.206477743051512
 20
-8.415066063738221
 30
0.0
 10
5.195669037545788
 20
-8.412104774483725
 30
0.0
 10
5.154092052006263
 20
-8.42375332131337
 30
0.0
 10
5.165327959885442
 20
-8.38647991328758
 30
0.0
 10
5.17660998620267
 20
-8.349206505261765
 30
0.0
 10
5.154519482383017
 20
-8.340351764933706
 30
0.0
 10
5.138020989991118
 20
-8.350058482743963
 30
0.0
 10
5.121474179878279
 20
-8.359777336985719
 30
0.0
 10
5.076863086572707
 20
-8.359978801746466
 30
0.0
 10
5.094548293919362
 20
-8.326271077257337
 30
0.0
 10
5.112231073979829
 20
-8.29257548919966
 30
0.0
 10
5.099810650428783
 20
-8.277926816535203
 30
0.0
 10
5.096349340289294
 20
-8.263503881494241
 30
0.0
 10
5.09283948442554
 20
-8.24909065559834
 30
0.0
 10
5.026659525832782
 20
-8.265671448137027
 30
0.0
 10
5.037041028965038
 20
-8.232973474737996
 30
0.0
 10
5.047471077821569
 20
-8.20028521048405
 30
0.0
 10
5.037373567176195
 20
-8.180813519992853
 30
0.0
 10
5.01020737988223
 20
-8.189003183881823
 30
0.0
 10
4.983043619874466
 20
-8.197226829778629
 30
0.0
 10
4.959338742719991
 20
-8.176687133326798
 30
0.0
 10
4.984798547806336
 20
-8.144901819566863
 30
0.0
 10
5.010161261444182
 20
-8.113114078520614
 30
0.0
 10
5.007411146165055
 20
-8.082251133544862
 30
0.0
 10
5.001010392421827
 20
-8.06824326445677
 30
0.0
 10
4.994612065964803
 20
-8.054232968082387
 30
0.0
 10
4.98697825082546
 20
-8.0418950719509
 30
0.0
 10
4.969628008976163
 20
-8.04577144813071
 30
0.0
 10
4.952323885564915
 20
-8.049623551447793
 30
0.0
 10
4.914397538489475
 20
-8.044443722538745
 30
0.0
 10
4.938527190731191
 20
-8.014340518166794
 30
0.0
 10
4.962659270259135
 20
-7.984222750077176
 30
0.0
 10
4.957537696350073
 20
-7.968542480746186
 30
0.0
 10
4.919565230836585
 20
-7.963340806260677
 30
0.0
 10
4.881685002199181
 20
-7.958124568057529
 30
0.0
 10
4.853193516633003
 20
-7.945692007761383
 30
0.0
 10
4.887042022870901
 20
-7.921669155506152
 30
0.0
 10
4.920987620557298
 20
-7.897643875964629
 30
0.0
 10
4.949573770285775
 20
-7.889252747314913
 30
0.0
 10
4.942842905617605
 20
-7.861911794722927
 30
0.0
 10
4.936109613663221
 20
-7.83453200555055
 30
0.0
 10
4.948294590451622
 20
-7.782253113777996
 30
0.0
 10
4.898610690499746
 20
-7.789093206498515
 30
0.0
 10
4.848926347470852
 20
-7.795906599070071
 30
0.0
 10
4.815315715281827
 20
-7.767818042305635
 30
0.0
 10
4.857601468395501
 20
-7.739680939815722
 30
0.0
 10
4.899843530357353
 20
-7.711534128180725
 30
0.0
 10
4.950284965146137
 20
-7.677802130828897
 30
0.0
 10
4.946207124308582
 20
-7.658993089490523
 30
0.0
 10
4.942131933395191
 20
-7.640196184583551
 30
0.0
 10
4.97493648392362
 20
-7.586589567219006
 30
0.0
 10
4.922977995251813
 20
-7.587774082920809
 30
0.0
 10
4.871114170742317
 20
-7.588970735053963
 30
0.0
 10
4.83024838006314
 20
-7.540983285414086
 30
0.0
 10
4.87158749155382
 20
-7.527863803102314
 30
0.0
 10
4.91297514876875
 20
-7.514707911496442
 30
0.0
 10
4.938527190731191
 20
-7.494855137060186
 30
0.0
 10
4.967967745206591
 20
-7.481854591775876
 30
0.0
 10
4.997456845406242
 20
-7.468875892068
 30
0.0
 10
4.966877893697036
 20
-7.419500034679307
 30
0.0
 10
4.955831314142452
 20
-7.415055673511359
 30
0.0
 10
4.94478473458787
 20
-7.410635585206137
 30
0.0
 10
4.814507428972951
 20
-7.394314512298756
 30
0.0
 10
4.872677343063375
 20
-7.362514634821157
 30
0.0
 10
4.930847257153813
 20
-7.330680775335749
 30
0.0
 10
5.000631735772623
 20
-7.264522660647597
 30
0.0
 10
4.949241232074617
 20
-7.237358899953632
 30
0.0
 10
4.897850728376625
 20
-7.210183002828266
 30
0.0
 10
4.901549912564974
 20
-7.193293944932773
 30
0.0
 10
4.951850564753411
 20
-7.180434182252333
 30
0.0
 10
5.002148789655633
 20
-7.167574419571919
 30
0.0
 10
5.01641880530086
 20
-7.15221455202911
 30
0.0
 10
5.015850820327058
 20
-7.137410533043091
 30
0.0
 10
5.015328953791292
 20
-7.122584668480613
 30
0.0
 10
5.022487020832929
 20
-7.06652406469291
 30
0.0
 10
4.992478481383728
 20
-7.064710881846117
 30
0.0
 10
4.962469941934538
 20
-7.062885562567973
 30
0.0
 10
4.93980879785157
 20
-7.092777593034093
 30
0.0
 10
4.931796326063022
 20
-7.099840996091845
 30
0.0
 10
4.923832399998736
 20
-7.106880126286872
 30
0.0
 10
4.874764809206416
 20
-7.161292602694427
 30
0.0
 10
4.867225878975028
 20
-7.171261467422331
 30
0.0
 10
4.859640388814278
 20
-7.181215768432619
 30
0.0
 10
4.835416072410251
 20
-7.189026775662821
 30
0.0
 10
4.791042853153536
 20
-7.147486198367055
 30
0.0
 10
4.74657254244831
 20
-7.1059553302164
 30
0.0
 10
4.701726002380105
 20
-7.07195147680189
 30
0.0
 10
4.672807314440458
 20
-7.013402904583194
 30
0.0
 10
4.643934744938873
 20
-6.954842195933148
 30
0.0
 10
4.61032189971935
 20
-6.883589207355574
 30
0.0
 10
4.585242964312682
 20
-6.852784517250383
 30
0.0
 10
4.560164243161744
 20
-6.821982254431456
 30
0.0
 10
4.508062544603389
 20
-6.57317327490005
 30
0.0
 10
4.500193282701401
 20
-6.440276924104258
 30
0.0
 10
4.492372566523664
 20
-6.307380573308465
 30
0.0
 10
4.537930301452244
 20
-6.249021329419141
 30
0.0
 10
4.550350725003278
 20
-6.144594619332818
 30
0.0
 10
4.562773575840538
 20
-6.040189754822929
 30
0.0
 10
4.61136563281722
 20
-6.003756187847986
 30
0.0
 10
4.6294268552448
 20
-6.016154766136323
 30
0.0
 10
4.647536837678709
 20
-6.028538780707044
 30
0.0
 10
4.748611462867087
 20
-6.081623531522634
 30
0.0
 10
4.785115420221814
 20
-6.076599048935147
 30
0.0
 10
4.82161937757654
 20
-6.071574566347635
 30
0.0
 10
4.836789916406714
 20
-6.041197078626712
 30
0.0
 10
4.816735677716324
 20
-6.014186236968018
 30
0.0
 10
4.7966353205879
 20
-5.987199668172037
 30
0.0
 10
4.765536929629143
 20
-5.955756601776746
 30
0.0
 10
4.717513071908343
 20
-5.963875874363768
 30
0.0
 10
4.669486786901315
 20
-5.971922328362565
 30
0.0
 10
4.667923614580255
 20
-5.949819459550175
 30
0.0
 10
4.693048454169242
 20
-5.937433017693214
 30
0.0
 10
4.71812717532018
 20
-5.925058712267615
 30
0.0
 10
4.759704160859719
 20
-5.913385892575231
 30
0.0
 10
4.78620527173137
 20
-5.911215898646156
 30
0.0
 10
4.812660483532214
 20
-5.90908231401118
 30
0.0
 10
4.867796070489387
 20
-5.898511482287264
 30
0.0
 10
4.873672530410633
 20
-5.854553327862479
 30
0.0
 10
4.87950529918007
 20
-5.810580609720041
 30
0.0
 10
4.860730240323846
 20
-5.771469745984708
 30
0.0
 10
4.860019045463483
 20
-5.744767169682821
 30
0.0
 10
4.860019045463483
 20
-5.744767169682821
 30
0.0
 10
4.728605769900961
 20
-5.762865016142869
 30
0.0
 10
4.715379487327255
 20
-5.775108248109657
 30
0.0
 10
4.702150777467346
 20
-5.787351480076445
 30
0.0
 10
4.632460963010835
 20
-5.832649496524582
 30
0.0
 10
4.661049540025525
 20
-5.79149971231896
 30
0.0
 10
4.689635689754001
 20
-5.750349928113375
 30
0.0
 10
4.715614934089899
 20
-5.733390478915908
 30
0.0
 10
4.755485537421817
 20
-5.720470034078605
 30
0.0
 10
4.795402478123024
 20
-5.70756415295898
 30
0.0
 10
4.839302157636994
 20
-5.647925729203191
 30
0.0
 10
4.846508770402882
 20
-5.624611644540007
 30
0.0
 10
4.853666837444507
 20
-5.601299987163101
 30
0.0
 10
4.872204022251885
 20
-5.573422604304546
 30
0.0
 10
4.872204022251885
 20
-5.573422604304546
 30
0.0
 10
4.872204022251885
 20
-5.573422604304546
 30
0.0
 10
4.854805234678325
 20
-5.554982510479842
 30
0.0
 10
4.820813518553879
 20
-5.546258843610556
 30
0.0
 10
4.786870348153684
 20
-5.537547313172657
 30
0.0
 10
4.703005182214256
 20
-5.468699765292765
 30
0.0
 10
4.582825387244712
 20
-5.601321832739573
 30
0.0
 10
4.582825387244712
 20
-5.601321832739573
 30
0.0
 10
4.569788432995614
 20
-5.582289481063993
 30
0.0
 10
4.605391867165369
 20
-5.54910362312387
 30
0.0
 10
4.640995301335137
 20
-5.51590562875237
 30
0.0
 10
4.694803382101112
 20
-5.484734418419773
 30
0.0
 10
4.752451429655783
 20
-5.470833349927728
 30
0.0
 10
4.810053358772418
 20
-5.456954127012168
 30
0.0
 10
4.846224777915975
 20
-5.428166511800795
 30
0.0
 10
4.848690900708207
 20
-5.402505241310513
 30
0.0
 10
4.851154596214226
 20
-5.376858534537872
 30
0.0
 10
4.860540911999237
 20
-5.326463216914034
 30
0.0
 10
4.810099477210454
 20
-5.327436558709969
 30
0.0
 10
4.75960949669742
 20
-5.328465728090211
 30
0.0
 10
4.609943028814428
 20
-5.441319976120377
 30
0.0
 10
4.69589323361068
 20
-5.352075941678827
 30
0.0
 10
4.69589323361068
 20
-5.352075941678827
 30
0.0
 10
4.776251189420009
 20
-5.297877066463406
 30
0.0
 10
4.786064489131036
 20
-5.293561351467992
 30
0.0
 10
4.795878007289489
 20
-5.289211654464705
 30
0.0
 10
4.730596144595475
 20
-5.290740844817416
 30
0.0
 10
4.712250715398921
 20
-5.287303807453226
 30
0.0
 10
4.693902858916153
 20
-5.283891042951786
 30
0.0
 10
4.667639622093348
 20
-5.28751740864536
 30
0.0
 10
4.609185715516029
 20
-5.338718585312196
 30
0.0
 10
4.55073202168905
 20
-5.389907625547683
 30
0.0
 10
4.621322146580168
 20
-5.296869742659648
 30
0.0
 10
4.636398021248042
 20
-5.287352353178727
 30
0.0
 10
4.651425350191655
 20
-5.27781069083504
 30
0.0
 10
4.656733825139112
 20
-5.251785327403657
 30
0.0
 10
4.717226652135221
 20
-5.258372982351678
 30
0.0
 10
4.777673360693282
 20
-5.26490480971539
 30
0.0
 10
4.769139240636756
 20
-5.257176330218536
 30
0.0
 10
4.789904455919719
 20
-5.234978797241435
 30
0.0
 10
4.810667462184256
 20
-5.212766700546745
 30
0.0
 10
4.83697924473131
 20
-5.209140334853158
 30
0.0
 10
4.83697924473131
 20
-5.209140334853158
 30
0.0
 10
4.83697924473131
 20
-5.209140334853158
 30
0.0
 10
4.855754303587546
 20
-5.161898062099453
 30
0.0
 10
4.850681275402735
 20
-5.135812016511206
 30
0.0
 10
4.845608247217923
 20
-5.109701698060197
 30
0.0
 10
4.821524713414242
 20
-5.053476038805873
 30
0.0
 10
4.776962165832919
 20
-5.043247454446613
 30
0.0
 10
4.732351072527359
 20
-5.033009160942255
 30
0.0
 10
4.665552155950321
 20
-5.045167437889455
 30
0.0
 10
4.599323651633299
 20
-5.104902953096219
 30
0.0
 10
4.599323651633299
 20
-5.104902953096219
 30
0.0
 10
4.569077238135251
 20
-5.112036747455932
 30
0.0
 10
4.610608105236742
 20
-5.06762711778414
 30
0.0
 10
4.652136545052017
 20
-5.023195642535888
 30
0.0
 10
4.702531861402753
 20
-4.999893694304078
 30
0.0
 10
4.737564883312504
 20
-4.995058540045975
 30
0.0
 10
4.772646450946518
 20
-4.990247658650623
 30
0.0
 10
4.831670769783866
 20
-4.986606729239409
 30
0.0
 10
4.850397282915828
 20
-4.960202709149232
 30
0.0
 10
4.869075250323539
 20
-4.933830243780625
 30
0.0
 10
4.908945853655458
 20
-4.888165707105107
 30
0.0
 10
4.883913250942568
 20
-4.879679914290691
 30
0.0
 10
4.858977739678178
 20
-4.871206257907639
 30
0.0
 10
4.839018165150088
 20
-4.823347454440295
 30
0.0
 10
4.701155590120089
 20
-4.860159678073993
 30
0.0
 10
4.701155590120089
 20
-4.860159678073993
 30
0.0
 10
4.651092811980511
 20
-4.8640943091244
 30
0.0
 10
4.710447458527899
 20
-4.841018098516088
 30
0.0
 10
4.769755553067044
 20
-4.818002570064626
 30
0.0
 10
4.84247947528959
 20
-4.794605957668131
 30
0.0
 10
4.881544219598835
 20
-4.818985621005658
 30
0.0
 10
4.881544219598835
 20
-4.818985621005658
 30
0.0
 10
4.874621599319855
 20
-4.746985028255645
 30
0.0
 10
4.755723411470677
 20
-4.715731290189725
 30
0.0
 10
4.636822796335283
 20
-4.684453279261068
 30
0.0
 10
4.583490463667027
 20
-4.751310452396183
 30
0.0
 10
4.583490463667027
 20
-4.751310452396183
 30
0.0
 10
4.583490463667027
 20
-4.751310452396183
 30
0.0
 10
4.564336748161597
 20
-4.742043073401482
 30
0.0
 10
4.612076613395502
 20
-4.710197077484685
 30
0.0
 10
4.659767932905146
 20
-4.678338945136513
 30
0.0
 10
4.711774967301204
 20
-4.666709816597063
 30
0.0
 10
4.773833393904586
 20
-4.684963009378659
 30
0.0
 10
4.835843274783707
 20
-4.703204065728856
 30
0.0
 10
4.851533252863431
 20
-4.730841147246287
 30
0.0
 10
4.904821894379867
 20
-4.707138696779262
 30
0.0
 10
4.958154227048125
 20
-4.683433819025936
 30
0.0
 10
4.959719826655398
 20
-4.629601464037907
 30
0.0
 10
4.939903462013868
 20
-4.626390164297214
 30
0.0
 10
4.920087097372339
 20
-4.623178864556532
 30
0.0
 10
4.849780752217776
 20
-4.588191960200965
 30
0.0
 10
4.800807825587754
 20
-4.545809114568101
 30
0.0
 10
4.751834898957731
 20
-4.503426268935224
 30
0.0
 10
4.680154925826551
 20
-4.490923317337105
 30
0.0
 10
4.648058704214463
 20
-4.48494976581642
 30
0.0
 10
4.615965125908448
 20
-4.478951941432986
 30
0.0
 10
4.620894944206712
 20
-4.460390483294595
 30
0.0
 10
4.65379680882159
 20
-4.461825009482633
 30
0.0
 10
4.686744791874528
 20
-4.463259535670633
 30
0.0
 10
4.802562972631764
 20
-4.493469540638671
 30
0.0
 10
4.823136431459552
 20
-4.512967931278896
 30
0.0
 10
4.843663990961444
 20
-4.532476031064207
 30
0.0
 10
4.894486509685647
 20
-4.577548309888824
 30
0.0
 10
4.948911121149674
 20
-4.573057830281666
 30
0.0
 10
4.948911121149674
 20
-4.573057830281666
 30
0.0
 10
4.975647678783982
 20
-4.529191912735288
 30
0.0
 10
4.958202772772387
 20
-4.521191577175689
 30
0.0
 10
4.94066077531228
 20
-4.513181532471018
 30
0.0
 10
4.963275800957186
 20
-4.504088918088061
 30
0.0
 10
5.025664338485512
 20
-4.492547171854501
 30
0.0
 10
5.088098994451886
 20
-4.480990861903289
 30
0.0
 10
5.087863547689241
 20
-4.446761270865269
 30
0.0
 10
5.063826132323609
 20
-4.412888490909546
 30
0.0
 10
5.039839689968428
 20
-4.378979301659708
 30
0.0
 10
4.938811183218099
 20
-4.272275797048236
 30
0.0
 10
4.874242942670649
 20
-4.257355268321058
 30
0.0
 10
4.809672274836998
 20
-4.242422603162494
 30
0.0
 10
4.797916927708266
 20
-4.221715423957764
 30
0.0
 10
4.84148428794232
 20
-4.224654867635751
 30
0.0
 10
4.885003102452123
 20
-4.22759431131375
 30
0.0
 10
4.975837007108579
 20
-4.292507228143247
 30
0.0
 10
5.00935540242152
 20
-4.298315724197272
 30
0.0
 10
5.042919916172511
 20
-4.30412422025131
 30
0.0
 10
5.086441157968529
 20
-4.360621735568341
 30
0.0
 10
5.144135323961235
 20
-4.336336736395499
 30
0.0
 10
5.201783371515906
 20
-4.312039600791309
 30
0.0
 10
5.172629236813628
 20
-4.305629137741284
 30
0.0
 10
5.191353322659388
 20
-4.27924696322758
 30
0.0
 10
5.210033717353313
 20
-4.252862361427611
 30
0.0
 10
5.230607395293242
 20
-4.229172047391936
 30
0.0
 10
5.212640622745893
 20
-4.195937643726337
 30
0.0
 10
5.194625304474281
 20
-4.162669258052877
 30
0.0
 10
5.195479709221192
 20
-4.158084114281008
 30
0.0
 10
5.159116534466812
 20
-4.142272771491232
 30
0.0
 10
5.122661122836348
 20
-4.126437155838693
 30
0.0
 10
5.098388260708058
 20
-4.101477371081627
 30
0.0
 10
5.078001483806525
 20
-4.06115771878179
 30
0.0
 10
5.05756858846693
 20
-4.020765247893715
 30
0.0
 10
5.090281124757212
 20
-4.053477785010374
 30
0.0
 10
5.106920398547004
 20
-4.066087537204579
 30
0.0
 10
5.123607764459343
 20
-4.078663307390936
 30
0.0
 10
5.137831661666521
 20
-4.096062095404022
 30
0.0
 10
5.166561021281558
 20
-4.109963163896055
 30
0.0
 10
5.195241835172333
 20
-4.123890932537102
 30
0.0
 10
5.22762183325147
 20
-4.164103784240877
 30
0.0
 10
5.241287454629691
 20
-4.14435781040072
 30
0.0
 10
5.254940939576841
 20
-4.124614263846815
 30
0.0
 10
5.192729593942052
 20
-4.051307791081298
 30
0.0
 10
5.172580691089378
 20
-4.034739134973961
 30
0.0
 10
5.152432016187251
 20
-4.018146206003911
 30
0.0
 10
5.10858043551573
 20
-3.991419356839288
 30
0.0
 10
5.053255300866732
 20
-3.967775161242823
 30
0.0
 10
4.997881620493482
 20
-3.944130965646347
 30
0.0
 10
5.004804464993665
 20
-3.94020847102734
 30
0.0
 10
5.048942013266545
 20
-3.947531593716437
 30
0.0
 10
5.09312590419865
 20
-3.954857143691823
 30
0.0
 10
5.177369726787282
 20
-3.99386120683107
 30
0.0
 10
5.191685860870544
 20
-4.011238149267696
 30
0.0
 10
5.206004422240022
 20
-4.028636937280756
 30
0.0
 10
5.281060966513096
 20
-4.119541235533827
 30
0.0
 10
5.307183420735555
 20
-4.136796813656739
 30
0.0
 10
5.333400539120299
 20
-4.154018409771803
 30
0.0
 10
5.343071080158729
 20
-4.137804137460509
 30
0.0
 10
5.333116546633404
 20
-4.119825228027897
 30
0.0
 10
5.323208364312639
 20
-4.101834182163935
 30
0.0
 10
5.30486050782987
 20
-4.065660334820324
 30
0.0
 10
5.28779425846748
 20
-4.027840787382843
 30
0.0
 10
5.27063334494278
 20
-3.989987257937539
 30
0.0
 10
5.20069352000635
 20
-3.925169005272727
 30
0.0
 10
5.235253221104598
 20
-3.938276351153111
 30
0.0
 10
5.269778940195869
 20
-3.951383697033508
 30
0.0
 10
5.296753371879023
 20
-3.984889956761827
 30
0.0
 10
5.307656973418943
 20
-4.0101944161698
 30
0.0
 10
5.318562538501283
 20
-4.035486739146411
 30
0.0
 10
5.321548100543067
 20
-4.05741241606078
 30
0.0
 10
5.355396606780952
 20
-4.086971908307342
 30
0.0
 10
5.3892936587431
 20
-4.116577518993103
 30
0.0
 10
5.412238795312962
 20
-4.143161158267554
 30
0.0
 10
5.434142861164698
 20
-4.107392667731725
 30
0.0
 10
5.455997911157838
 20
-4.07168243206647
 30
0.0
 10
5.486479771418531
 20
-4.065980736608518
 30
0.0
 10
5.451303775122924
 20
-4.015740765306228
 30
0.0
 10
5.41612730782592
 20
-3.965525066866677
 30
0.0
 10
5.419256079754253
 20
-3.923389804433782
 30
0.0
 10
5.378106296588182
 20
-3.894827926845892
 30
0.0
 10
5.337002864473371
 20
-3.866239349108986
 30
0.0
 10
5.288457138990439
 20
-3.84910270801351
 30
0.0
 10
5.25764250913173
 20
-3.841422774242119
 30
0.0
 10
5.226767428504545
 20
-3.833764686047187
 30
0.0
 10
5.227099966715703
 20
-3.814375523289287
 30
0.0
 10
5.280871638188487
 20
-3.826334762762005
 30
0.0
 10
5.334633600516427
 20
-3.838315847811208
 30
0.0
 10
5.374360993961785
 20
-3.856639431894741
 30
0.0
 10
5.408731366735436
 20
-3.890594739583788
 30
0.0
 10
5.443245184692753
 20
-3.924552474559075
 30
0.0
 10
5.507434533293879
 20
-4.002050870720028
 30
0.0
 10
5.529051944305327
 20
-4.018430198497994
 30
0.0
 10
5.55067178260299
 20
-4.034809526275922
 30
0.0
 10
5.571104677942571
 20
-3.999291046226328
 30
0.0
 10
5.546450731878874
 20
-3.960973905102656
 30
0.0
 10
5.521847758825654
 20
-3.922678609555444
 30
0.0
 10
5.445851854788215
 20
-3.857219553314267
 30
0.0
 10
5.42816907472776
 20
-3.804549868451545
 30
0.0
 10
5.410580958829605
 20
-3.751926302028045
 30
0.0
 10
5.410627077267653
 20
-3.698356093957626
 30
0.0
 10
5.382989996448385
 20
-3.670871931475479
 30
0.0
 10
5.355445152505214
 20
-3.64343388743253
 30
0.0
 10
5.391237914999579
 20
-3.622100468369037
 30
0.0
 10
5.408779912459686
 20
-3.652453683227249
 30
0.0
 10
5.426368028357842
 20
-3.682794761654072
 30
0.0
 10
5.441349238863419
 20
-3.770026575774371
 30
0.0
 10
5.455949365433576
 20
-3.800758447291337
 30
0.0
 10
5.470598037727996
 20
-3.831502455239678
 30
0.0
 10
5.55109655769023
 20
-3.918661450771727
 30
0.0
 10
5.568306016939181
 20
-3.935657309263307
 30
0.0
 10
5.585515476188132
 20
-3.952604622029399
 30
0.0
 10
5.613106678157528
 20
-3.980091211797824
 30
0.0
 10
5.594285261275078
 20
-3.908255674514458
 30
0.0
 10
5.575512629705068
 20
-3.836420137231092
 30
0.0
 10
5.548300323973055
 20
-3.811863281995544
 30
0.0
 10
5.543227295788243
 20
-3.785789372838659
 30
0.0
 10
5.538154267603431
 20
-3.759703327250425
 30
0.0
 10
5.579114722444905
 20
-3.776390920385186
 30
0.0
 10
5.582576032584395
 20
-3.801195358820678
 30
0.0
 10
5.585942678561588
 20
-3.826050770267936
 30
0.0
 10
5.628230858961488
 20
-3.916967204952369
 30
0.0
 10
5.639418461369297
 20
-3.93331012343621
 30
0.0
 10
5.650605583271335
 20
-3.94961905991219
 30
0.0
 10
5.638566243655709
 20
-3.981049989876131
 30
0.0
 10
5.658287944134941
 20
-3.994727748030932
 30
0.0
 10
5.678009644614172
 20
-4.008369096891657
 30
0.0
 10
5.735703810606879
 20
-4.027236393100591
 30
0.0
 10
5.756942564969133
 20
-3.987081796267375
 30
0.0
 10
5.778229865055638
 20
-3.946963608728285
 30
0.0
 10
5.789985212184357
 20
-3.891757409709094
 30
0.0
 10
5.77609628047455
 20
-3.834121497129483
 30
0.0
 10
5.762253467202791
 20
-3.776497720981246
 30
0.0
 10
5.745328000440749
 20
-3.740122408876889
 30
0.0
 10
5.682891158539241
 20
-3.708514287014951
 30
0.0
 10
5.620502379659834
 20
-3.676928010729474
 30
0.0
 10
5.546783270090032
 20
-3.617100258644314
 30
0.0
 10
5.614718156614672
 20
-3.634569437959335
 30
0.0
 10
5.682606924701266
 20
-3.65200463526652
 30
0.0
 10
5.689480999255996
 20
-3.691234436029289
 30
0.0
 10
5.729446509277409
 20
-3.700620752051413
 30
0.0
 10
5.769506198406727
 20
-3.710007068073537
 30
0.0
 10
5.814401528872546
 20
-3.809503959737096
 30
0.0
 10
5.815112479059558
 20
-3.836194399607595
 30
0.0
 10
5.815775128195658
 20
-3.862896975909482
 30
0.0
 10
5.822887076799248
 20
-3.97952079952342
 30
0.0
 10
5.843841838674595
 20
-4.001922224547507
 30
0.0
 10
5.864748054825681
 20
-4.02438190444218
 30
0.0
 10
5.899878168183944
 20
-3.965949841964655
 30
0.0
 10
5.896560067931002
 20
-3.930691081546406
 30
0.0
 10
5.893193421953811
 20
-3.895432321128144
 30
0.0
 10
5.85611905233908
 20
-3.733806609991537
 30
0.0
 10
5.855077746553775
 20
-3.683340901065763
 30
0.0
 10
5.854128677644553
 20
-3.632887328571352
 30
0.0
 10
5.768935786146711
 20
-3.576139802768087
 30
0.0
 10
5.76139906245588
 20
-3.542953944827938
 30
0.0
 10
5.753813793040788
 20
-3.509719541162326
 30
0.0
 10
5.787900173327544
 20
-3.53034176534748
 30
0.0
 10
5.808427732829424
 20
-3.560258068676351
 30
0.0
 10
5.828860628169019
 20
-3.590196217581668
 30
0.0
 10
5.850715913229325
 20
-3.608031917124082
 30
0.0
 10
5.867308841780211
 20
-3.663796391986339
 30
0.0
 10
5.88390177033111
 20
-3.719570575993682
 30
0.0
 10
5.903053058550325
 20
-3.772004814087786
 30
0.0
 10
5.906230376202921
 20
-3.719488048260347
 30
0.0
 10
5.909407693855504
 20
-3.666937300425072
 30
0.0
 10
5.895183796648338
 20
-3.55278930881079
 30
0.0
 10
5.87204957788352
 20
-3.514319248651848
 30
0.0
 10
5.848866321135144
 20
-3.475812779198779
 30
0.0
 10
5.891960360557694
 20
-3.49668258658389
 30
0.0
 10
5.903623470810341
 20
-3.538235300310993
 30
0.0
 10
5.915284153776762
 20
-3.579812286900859
 30
0.0
 10
5.946528181908294
 20
-3.676738682400077
 30
0.0
 10
5.934248540957595
 20
-3.706713240599533
 30
0.0
 10
5.921968900006896
 20
-3.736661098649948
 30
0.0
 10
5.914383630591803
 20
-3.789818668053751
 30
0.0
 10
5.931403761516157
 20
-3.848498313731259
 30
0.0
 10
5.948423892440511
 20
-3.907165822977365
 30
0.0
 10
5.954348898086019
 20
-3.928688570370228
 30
0.0
 10
5.975636198172524
 20
-3.964481333768807
 30
0.0
 10
5.996921070972816
 20
-4.00023768787326
 30
0.0
 10
6.008868173712358
 20
-4.032831287962495
 30
0.0
 10
6.025317892376683
 20
-4.03354248284082
 30
0.0
 10
6.041770038327235
 20
-4.03424154128777
 30
0.0
 10
6.057224569644328
 20
-3.994917076360328
 30
0.0
 10
6.054285126040591
 20
-3.9625953323338
 30
0.0
 10
6.051299563998807
 20
-3.930251742730787
 30
0.0
 10
6.051204899836496
 20
-3.907923136294913
 30
0.0
 10
6.064715174897097
 20
-3.876315014432976
 30
0.0
 10
6.078225449957699
 20
-3.844670483276913
 30
0.0
 10
6.097947150436943
 20
-3.73925829496328
 30
0.0
 10
6.077373723813555
 20
-3.687025521629923
 30
0.0
 10
6.056797367270873
 20
-3.634770902720081
 30
0.0
 10
6.009958025221914
 20
-3.499789513014788
 30
0.0
 10
6.040063656119628
 20
-3.523931302297456
 30
0.0
 10
6.070215405455378
 20
-3.548085228011486
 30
0.0
 10
6.128669312032697
 20
-3.724619331443894
 30
0.0
 10
6.125254120331268
 20
-3.742942915527427
 30
0.0
 10
6.121841608355933
 20
-3.761290772473709
 30
0.0
 10
6.129047968681915
 20
-3.575712600383831
 30
0.0
 10
6.105580965576286
 20
-3.480694051896092
 30
0.0
 10
6.082065416746395
 20
-3.385690067125981
 30
0.0
 10
6.032951707516026
 20
-3.331442646185085
 30
0.0
 10
6.014225194384077
 20
-3.314648252454263
 30
0.0
 10
5.995593345414401
 20
-3.29784172229208
 30
0.0
 10
5.977959111078209
 20
-3.234790534034851
 30
0.0
 10
6.016312660527092
 20
-3.275668462177741
 30
0.0
 10
6.054712328414047
 20
-3.316522117457907
 30
0.0
 10
6.131181553262977
 20
-3.407212814518832
 30
0.0
 10
6.136822566421592
 20
-3.448102879093123
 30
0.0
 10
6.142417461142157
 20
-3.489014789243849
 30
0.0
 10
6.166073792572383
 20
-3.639084190429243
 30
0.0
 10
6.157966656621536
 20
-3.710150277963723
 30
0.0
 10
6.149859520670689
 20
-3.781213938211913
 30
0.0
 10
6.164224200478202
 20
-3.788194813536355
 30
0.0
 10
6.166168456734693
 20
-3.813224989595356
 30
0.0
 10
6.168158831429208
 20
-3.838245456509248
 30
0.0
 10
6.150476051368766
 20
-3.904675427260094
 30
0.0
 10
6.168680697964974
 20
-3.93940261198433
 30
0.0
 10
6.18683679883692
 20
-3.974117660277165
 30
0.0
 10
6.190582355639789
 20
-3.893216208759845
 30
0.0
 10
6.190963185398737
 20
-3.863394569595685
 30
0.0
 10
6.191293296323667
 20
-3.833551084855053
 30
0.0
 10
6.225760760545831
 20
-3.705312696419342
 30
0.0
 10
6.226612738006527
 20
-3.667968897091605
 30
0.0
 10
6.2274185970292
 20
-3.630646943340303
 30
0.0
 10
6.234909202281996
 20
-3.555197176794738
 30
0.0
 10
6.219787209176072
 20
-3.53196561986489
 30
0.0
 10
6.204662788783935
 20
-3.508748626652669
 30
0.0
 10
6.223246092029335
 20
-3.384136603910532
 30
0.0
 10
6.235620397142333
 20
-3.409215325695009
 30
0.0
 10
6.248040820693379
 20
-3.434306183910874
 30
0.0
 10
6.236520920327292
 20
-3.523705564673971
 30
0.0
 10
6.252118661530933
 20
-3.572193035286318
 30
0.0
 10
6.267716402734575
 20
-3.620644096604565
 30
0.0
 10
6.252640528066699
 20
-3.74922473240493
 30
0.0
 10
6.24107208197635
 20
-3.773143211350366
 30
0.0
 10
6.229457517447978
 20
-3.797059263009537
 30
0.0
 10
6.200111627134876
 20
-3.984166625452126
 30
0.0
 10
6.213432573870882
 20
-4.027000946331984
 30
0.0
 10
6.226802066331149
 20
-4.069808567062839
 30
0.0
 10
6.243443540606298
 20
-4.115167265667815
 30
0.0
 10
6.261315648991335
 20
-4.05020580311283
 30
0.0
 10
6.27914163893835
 20
-3.985246767844122
 30
0.0
 10
6.281085895194842
 20
-3.934353856534092
 30
0.0
 10
6.307065139530727
 20
-3.874239684668573
 30
0.0
 10
6.333044383866636
 20
-3.814067257932467
 30
0.0
 10
6.331621994145912
 20
-3.674379360141605
 30
0.0
 10
6.307822452829138
 20
-3.641916833511181
 30
0.0
 10
6.284025338798553
 20
-3.609466443312107
 30
0.0
 10
6.310383239783656
 20
-3.595422164929901
 30
0.0
 10
6.322141271698531
 20
-3.616114780417004
 30
0.0
 10
6.333944907051595
 20
-3.636834096053108
 30
0.0
 10
6.35684392518341
 20
-3.760200920936616
 30
0.0
 10
6.348450369459442
 20
-3.807501448560919
 30
0.0
 10
6.340107786745951
 20
-3.854789839753835
 30
0.0
 10
6.30687581120613
 20
-3.948669990978992
 30
0.0
 10
6.311332308692878
 20
-3.980812115821247
 30
0.0
 10
6.315740260455388
 20
-4.012932395087028
 30
0.0
 10
6.308154991040283
 20
-4.066087537204579
 30
0.0
 10
6.295069491066922
 20
-4.090207480910774
 30
0.0
 10
6.282032536817824
 20
-4.114349270193429
 30
0.0
 10
6.260082587595232
 20
-4.12777701786202
 30
0.0
 10
6.269328120779896
 20
-4.151802297403504
 30
0.0
 10
6.278571483077585
 20
-4.175825149658737
 30
0.0
 10
6.328398558055268
 20
-4.299975988008795
 30
0.0
 10
6.356035638874547
 20
-4.316993692076847
 30
0.0
 10
6.383675146980017
 20
-4.334013823431152
 30
0.0
 10
6.444073309813827
 20
-4.307845250109582
 30
0.0
 10
6.460523028478165
 20
-4.275831771439849
 30
0.0
 10
6.476975174428717
 20
-4.243820720056407
 30
0.0
 10
6.536424268353307
 20
-4.113567684013169
 30
0.0
 10
6.520353468845315
 20
-4.039882554588884
 30
0.0
 10
6.504282144323017
 20
-3.966163443156789
 30
0.0
 10
6.508595431923216
 20
-3.813758992575673
 30
0.0
 10
6.513619914383778
 20
-3.77438598192273
 30
0.0
 10
6.518598278406292
 20
-3.734966852830591
 30
0.0
 10
6.551594807183467
 20
-3.769147898143122
 30
0.0
 10
6.542681812209972
 20
-3.801646834067658
 30
0.0
 10
6.533722698798404
 20
-3.834121497129483
 30
0.0
 10
6.543344461346073
 20
-3.947390811112541
 30
0.0
 10
6.551356933134608
 20
-3.973110336473383
 30
0.0
 10
6.559369404923169
 20
-3.998781316108762
 30
0.0
 10
6.557852351040133
 20
-4.085323780927196
 30
0.0
 10
6.551784135508064
 20
-4.127825563587495
 30
0.0
 10
6.545764465700257
 20
-4.170337055392894
 30
0.0
 10
6.558753137702322
 20
-4.232572675462026
 30
0.0
 10
6.537324791538266
 20
-4.260816578547987
 30
0.0
 10
6.537324791538266
 20
-4.260816578547987
 30
0.0
 10
6.547089763972457
 20
-4.277326979784726
 30
0.0
 10
6.573306882357226
 20
-4.2082294214186
 30
0.0
 10
6.59952400074197
 20
-4.139107590189736
 30
0.0
 10
6.637261019492826
 20
-4.099700597528959
 30
0.0
 10
6.64342389918718
 20
-4.069097372184514
 30
0.0
 10
6.649635324605823
 20
-4.038448028400883
 30
0.0
 10
6.648496927372005
 20
-3.943373652328824
 30
0.0
 10
6.635270644798311
 20
-3.912428179619724
 30
0.0
 10
6.622136599100688
 20
-3.881492416055734
 30
0.0
 10
6.634794896700592
 20
-3.844017543269173
 30
0.0
 10
6.655465666089033
 20
-3.918591059469766
 30
0.0
 10
6.676182553915522
 20
-3.99313787552137
 30
0.0
 10
6.67765106207427
 20
-4.025673220740032
 30
0.0
 10
6.672675125337971
 20
-4.065080213400797
 30
0.0
 10
6.66764821559122
 20
-4.104453224053739
 30
0.0
 10
6.63891885597617
 20
-4.176856746325257
 30
0.0
 10
6.642144719353028
 20
-4.200229085859013
 30
0.0
 10
6.645368155443672
 20
-4.223613561824146
 30
0.0
 10
6.607060724432813
 20
-4.248240808361629
 30
0.0
 10
6.600235460127502
 20
-4.284934094967904
 30
0.0
 10
6.593361121047614
 20
-4.321593399566344
 30
0.0
 10
6.540502109190836
 20
-4.380935694396688
 30
0.0
 10
6.535759191930993
 20
-4.411347164125472
 30
0.0
 10
6.530972583519289
 20
-4.441795043148368
 30
0.0
 10
6.52831713240246
 20
-4.475561022508018
 30
0.0
 10
6.557900896764395
 20
-4.518465734689837
 30
0.0
 10
6.562736050900361
 20
-4.525483019308391
 30
0.0
 10
6.600378405488906
 20
-4.630004393559412
 30
0.0
 10
6.595256831579818
 20
-4.689431643409344
 30
0.0
 10
6.595256831579818
 20
-4.689431643409344
 30
0.0
 10
6.667696761315483
 20
-4.789178545559139
 30
0.0
 10
6.691731749394901
 20
-4.77035736778939
 30
0.0
 10
6.71572061903627
 20
-4.751524053588292
 30
0.0
 10
6.741794795635719
 20
-4.723564142996401
 30
0.0
 10
6.7736065406398
 20
-4.729159037858304
 30
0.0
 10
6.805370008020873
 20
-4.734766069151584
 30
0.0
 10
6.788493086983079
 20
-4.764798882221612
 30
0.0
 10
6.78242487145101
 20
-4.768959250895477
 30
0.0
 10
6.776308110194678
 20
-4.77311719228309
 30
0.0
 10
6.727573057613527
 20
-4.829675389756984
 30
0.0
 10
6.737859896583485
 20
-4.880342563443529
 30
0.0
 10
6.748195281277705
 20
-4.931021873561424
 30
0.0
 10
6.910376836874042
 20
-5.079384892496111
 30
0.0
 10
6.931520927073986
 20
-5.096405023850417
 30
0.0
 10
6.931520927073986
 20
-5.096405023850417
 30
0.0
 10
7.009128549156735
 20
-5.072452562897145
 30
0.0
 10
7.031030228063046
 20
-5.102674704296545
 30
0.0
 10
7.05293378343966
 20
-5.132908982127319
 30
0.0
 10
7.046627693858731
 20
-5.151516558704921
 30
0.0
 10
7.061608904364296
 20
-5.163842318405032
 30
0.0
 10
7.076590391428781
 20
-5.176192350967893
 30
0.0
 10
7.086830835401795
 20
-5.193637257420177
 30
0.0
 10
7.079862096684766
 20
-5.207885427849432
 30
0.0
 10
7.072988022130049
 20
-5.222119034561033
 30
0.0
 10
7.054450837322671
 20
-5.224679821580239
 30
0.0
 10
7.057436399364455
 20
-5.246404033733875
 30
0.0
 10
7.060424664842937
 20
-5.268174364326683
 30
0.0
 10
7.014106913179249
 20
-5.31777595933886
 30
0.0
 10
6.970207014734038
 20
-5.337119003657549
 30
0.0
 10
6.926307116288828
 20
-5.356425638682102
 30
0.0
 10
6.858277565601888
 20
-5.336987930198739
 30
0.0
 10
6.856663420270352
 20
-5.309491631285204
 30
0.0
 10
6.855100518912902
 20
-5.282007468803031
 30
0.0
 10
6.870933435915579
 20
-5.284269699610541
 30
0.0
 10
6.838033998586903
 20
-5.254438351301297
 30
0.0
 10
6.805132133972013
 20
-5.224582730129277
 30
0.0
 10
6.762416751198669
 20
-5.19615192600021
 30
0.0
 10
6.708562551994646
 20
-5.166983226843791
 30
0.0
 10
6.654659807066359
 20
-5.137804818542261
 30
0.0
 10
6.490959032065423
 20
-5.067248461125372
 30
0.0
 10
6.462751277221539
 20
-5.055621759872211
 30
0.0
 10
6.434543784142256
 20
-5.043982922187663
 30
0.0
 10
6.443646107440372
 20
-5.06155890209877
 30
0.0
 10
6.441087747772043
 20
-5.067449925886118
 30
0.0
 10
6.43862162497981
 20
-5.073328813242116
 30
0.0
 10
6.429662511568267
 20
-5.088972673278982
 30
0.0
 10
6.395195047346103
 20
-5.063799287329819
 30
0.0
 10
6.360683891972106
 20
-5.038638037812007
 30
0.0
 10
6.175792646568551
 20
-4.966542780897308
 30
0.0
 10
6.100602853457151
 20
-4.975776177884161
 30
0.0
 10
6.025414983825208
 20
-4.985007147584737
 30
0.0
 10
5.936950110512472
 20
-5.021037785038175
 30
0.0
 10
5.791218273580474
 20
-4.909737000223458
 30
0.0
 10
5.780125575587855
 20
-4.90127305298549
 30
0.0
 10
5.730963320633223
 20
-4.858157166897841
 30
0.0
 10
5.691614583837072
 20
-4.78159327595242
 30
0.0
 10
5.652265847040907
 20
-4.704980839281524
 30
0.0
 10
5.599217506859556
 20
-4.762179840331807
 30
0.0
 10
5.58940398870109
 20
-4.771270027428486
 30
0.0
 10
5.579590470542623
 20
-4.780360214525166
 30
0.0
 10
5.54450890290861
 20
-4.86386857150089
 30
0.0
 10
5.553846672969358
 20
-4.883648527348921
 30
0.0
 10
5.563232988754369
 20
-4.903406637620479
 30
0.0
 10
5.588076263142662
 20
-4.931021873561424
 30
0.0
 10
5.579636588980671
 20
-4.949901306201759
 30
0.0
 10
5.571104677942571
 20
-4.968817148136168
 30
0.0
 10
5.556074921712744
 20
-4.996374129206578
 30
0.0
 10
5.577029683588092
 20
-5.027853604895969
 30
0.0
 10
5.597984684669604
 20
-5.059308807722636
 30
0.0
 10
5.678009644614172
 20
-5.13364444986837
 30
0.0
 10
5.682750134587827
 20
-5.151824824061729
 30
0.0
 10
5.687490624561481
 20
-5.170017334686476
 30
0.0
 10
5.679050950399465
 20
-5.205501832728209
 30
0.0
 10
5.704035007388105
 20
-5.234206920206272
 30
0.0
 10
5.729067610101007
 20
-5.262912007684336
 30
0.0
 10
5.790650288606671
 20
-5.299879577639583
 30
0.0
 10
5.795674771067234
 20
-5.320229945762017
 30
0.0
 10
5.800699253527783
 20
-5.340614295892325
 30
0.0
 10
5.80278671967081
 20
-5.355821244399837
 30
0.0
 10
5.820707373780124
 20
-5.381077158082335
 30
0.0
 10
5.838579482165187
 20
-5.406323362619736
 30
0.0
 10
5.879729265331258
 20
-5.431710349761033
 30
0.0
 10
5.889637447652022
 20
-5.463568482109218
 30
0.0
 10
5.899594175697049
 20
-5.495414478026015
 30
0.0
 10
5.891154501535033
 20
-5.530932958075608
 30
0.0
 10
5.902579737738821
 20
-5.549339069892451
 30
0.0
 10
5.913958855504561
 20
-5.567711199701471
 30
0.0
 10
5.951409454482283
 20
-5.639037006867284
 30
0.0
 10
5.967861600432835
 20
-5.677778923088933
 30
0.0
 10
5.984216654934875
 20
-5.716501421020388
 30
0.0
 10
5.998865327229295
 20
-5.742206382663603
 30
0.0
 10
6.0344202156748
 20
-5.774989311082221
 30
0.0
 10
6.069882867244208
 20
-5.80779651236359
 30
0.0
 10
6.07732517808808
 20
-5.813401116370604
 30
0.0
 10
6.067843946825456
 20
-5.849089506459387
 30
0.0
 10
6.058362966878146
 20
-5.884739059967766
 30
0.0
 10
6.052200087183766
 20
-5.904414642505988
 30
0.0
 10
6.074196154844407
 20
-5.943489096947208
 30
0.0
 10
6.096146104067025
 20
-5.982590251537443
 30
0.0
 10
6.104347904180157
 20
-5.993670813378912
 30
0.0
 10
6.112122501919859
 20
-6.025825074652529
 30
0.0
 10
6.119851233611118
 20
-6.058015745220271
 30
0.0
 10
6.145165149135082
 20
-6.081113801405031
 30
0.0
 10
6.155976281927021
 20
-6.095160507073539
 30
0.0
 10
6.166784987432745
 20
-6.109192649024382
 30
0.0
 10
6.179916605844154
 20
-6.123994240724111
 30
0.0
 10
6.189256803191104
 20
-6.175894475837922
 30
0.0
 10
6.198643118976128
 20
-6.227818983814485
 30
0.0
 10
6.199164985511869
 20
-6.264274396365888
 30
0.0
 10
6.2057528948532
 20
-6.287789945789831
 30
0.0
 10
6.212296603923278
 20
-6.311269085919624
 30
0.0
 10
6.210398466104834
 20
-6.321497670278884
 30
0.0
 10
6.22391116845165
 20
-6.355096166885636
 30
0.0
 10
6.237375325074228
 20
-6.388709227210003
 30
0.0
 10
6.241261410300947
 20
-6.417011385166561
 30
0.0
 10
6.229646845772574
 20
-6.437432144590957
 30
0.0
 10
6.21808082696844
 20
-6.457865040446727
 30
0.0
 10
6.201866555066746
 20
-6.468960166005849
 30
0.0
 10
6.208456637134582
 20
-6.509041944250839
 30
0.0
 10
6.215141383364704
 20
-6.549138286213469
 30
0.0
 10
6.186933890285445
 20
-6.569629436939799
 30
0.0
 10
6.180389926655658
 20
-6.594909623485036
 30
0.0
 10
6.173894508750132
 20
-6.620167964453811
 30
0.0
 10
6.074718021380173
 20
-6.752374965947738
 30
0.0
 10
6.061537857244527
 20
-6.777490097026353
 30
0.0
 10
6.048360120395071
 20
-6.802556682379468
 30
0.0
 10
5.997110399297412
 20
-6.865027749217157
 30
0.0
 10
5.878355421334795
 20
-6.920163556934413
 30
0.0
 10
5.878355421334795
 20
-6.920163556934413
 30
0.0
 10
5.887220117096945
 20
-6.964420267570908
 30
0.0
 10
5.973786606078344
 20
-7.042192947080871
 30
0.0
 10
5.987724083512413
 20
-7.054683762247627
 30
0.0
 10
5.992653901810664
 20
-7.08283300116889
 30
0.0
 10
5.997064280859377
 20
-7.106608270224164
 30
0.0
 10
6.001426114183825
 20
-7.130395675710815
 30
0.0
 10
5.987818747674711
 20
-7.152202415597735
 30
0.0
 10
5.97222100647107
 20
-7.167669083736604
 30
0.0
 10
5.956625692553656
 20
-7.183111479012723
 30
0.0
 10
5.887030542259443
 20
-7.20928247962057
 30
0.0
 10
5.85441267013146
 20
-7.165037905415424
 30
0.0
 10
5.821702561127381
 20
-7.120771485633819
 30
0.0
 10
5.798898207157865
 20
-7.003103928921998
 30
0.0
 10
5.79998805866742
 20
-6.970818594189571
 30
0.0
 10
5.79998805866742
 20
-6.970818594189571
 30
0.0
 10
5.676681919055757
 20
-7.097481673833372
 30
0.0
 10
5.589260778814529
 20
-7.283487048307506
 30
0.0
 10
5.501839875350671
 20
-7.46949242278164
 30
0.0
 10
5.462490901777149
 20
-7.585725453305409
 30
0.0
 10
5.471831099124111
 20
-7.83930890493808
 30
0.0
 10
5.481265960633373
 20
-8.092906920288366
 30
0.0
 10
5.531280193048701
 20
-8.191301823983444
 30
0.0
 10
5.549674167969518
 20
-8.212042985196048
 30
0.0
 10
5.568070570176537
 20
-8.232784146408624
 30
0.0
 10
5.660516192878314
 20
-8.404565623316254
 30
0.0
 10
5.947853728225115
 20
-8.448691260493938
 30
0.0
 10
6.210541675991408
 20
-8.489035185656551
 30
0.0
 10
6.321713811825147
 20
-8.306420730107396
 30
0.0
 10
6.321713811825147
 20
-8.306420730107396
 30
0.0
 10
6.321713811825147
 20
-8.306420730107396
 30
0.0
 10
6.423640414474221
 20
-8.177162881436516
 30
0.0
 10
6.339396591885613
 20
-7.983761565685072
 30
0.0
 10
6.331621994145912
 20
-7.965899165993632
 30
0.0
 10
6.283265598213953
 20
-7.873999680368165
 30
0.0
 10
6.179632613357247
 20
-7.837282120899165
 30
0.0
 10
6.075951082776302
 20
-7.80056456143014
 30
0.0
 10
5.988578488259324
 20
-7.850260820607016
 30
0.0
 10
5.95795341811207
 20
-7.885519581025265
 30
0.0
 10
5.927374466402865
 20
-7.920744359435679
 30
0.0
 10
5.892576891255758
 20
-8.00639843747778
 30
0.0
 10
5.904334665670691
 20
-8.05135420656125
 30
0.0
 10
5.916043894361374
 20
-8.096271139064331
 30
0.0
 10
5.9267579357048
 20
-8.167431890763485
 30
0.0
 10
5.969614101078504
 20
-8.187520111968297
 30
0.0
 10
6.013419335361403
 20
-8.208096217714303
 30
0.0
 10
6.088038968116178
 20
-8.211970166607797
 30
0.0
 10
6.093065877862955
 20
-8.150588951307174
 30
0.0
 10
6.093917855323651
 20
-8.14052784970085
 30
0.0
 10
6.103114842784053
 20
-8.101001920012624
 30
0.0
 10
6.04044231276882
 20
-8.090227196241687
 30
0.0
 10
5.993886963206781
 20
-8.082251133544862
 30
0.0
 10
5.992797111697225
 20
-8.066524745774661
 30
0.0
 10
5.992797111697225
 20
-8.066524745774661
 30
0.0
  0
HATCH
  5
42
330
1F
100
AcDbEntity
  8
Layer 1
 62
     7
420
 16777215
100
AcDbHatch
 10
0.0
 20
0.0
 30
0.0
210
0.0
220
0.0
230
1.0
  2
SOLID
 70
     1
 71
     0
 91
        1
 92
        1
 93
        1
 72
     4
 94
        3
 73
     0
 74
     1
 95
      947
 96
      943
 40
0.0
 40
0.0
 40
0.0
 40
0.0
 40
1.0
 40
1.0
 40
1.0
 40
2.0
 40
2.0
 40
2.0
 40
3.0
 40
3.0
 40
3.0
 40
4.0
 40
4.0
 40
4.0
 40
5.0
 40
5.0
 40
5.0
 40
6.0
 40
6.0
 40
6.0
 40
7.0
 40
7.0
 40
7.0
 40
8.0
 40
8.0
 40
8.0
 40
9.0
 40
9.0
 40
9.0
 40
10.0
 40
10.0
 40
10.0
 40
11.0
 40
11.0
 40
11.0
 40
12.0
 40
12.0
 40
12.0
 40
13.0
 40
13.0
 40
13.0
 40
14.0
 40
14.0
 40
14.0
 40
15.0
 40
15.0
 40
15.0
 40
16.0
 40
16.0
 40
16.0
 40
17.0
 40
17.0
 40
17.0
 40
18.0
 40
18.0
 40
18.0
 40
19.0
 40
19.0
 40
19.0
 40
20.0
 40
20.0
 40
20.0
 40
21.0
 40
21.0
 40
21.0
 40
22.0
 40
22.0
 40
22.0
 40
23.0
 40
23.0
 40
23.0
 40
24.0
 40
24.0
 40
24.0
 40
25.0
 40
25.0
 40
25.0
 40
26.0
 40
26.0
 40
26.0
 40
27.0
 40
27.0
 40
27.0
 40
28.0
 40
28.0
 40
28.0
 40
29.0
 40
29.0
 40
29.0
 40
30.0
 40
30.0
 40
30.0
 40
31.0
 40
31.0
 40
31.0
 40
32.0
 40
32.0
 40
32.0
 40
33.0
 40
33.0
 40
33.0
 40
34.0
 40
34.0
 40
34.0
 40
35.0
 40
35.0
 40
35.0
 40
36.0
 40
36.0
 40
36.0
 40
37.0
 40
37.0
 40
37.0
 40
38.0
 40
38.0
 40
38.0
 40
39.0
 40
39.0
 40
39.0
 40
40.0
 40
40.0
 40
40.0
 40
41.0
 40
41.0
 40
41.0
 40
42.0
 40
42.0
 40
42.0
 40
43.0
 40
43.0
 40
43.0
 40
44.0
 40
44.0
 40
44.0
 40
45.0
 40
45.0
 40
45.0
 40
46.0
 40
46.0
 40
46.0
 40
47.0
 40
47.0
 40
47.0
 40
48.0
 40
48.0
 40
48.0
 40
49.0
 40
49.0
 40
49.0
 40
50.0
 40
50.0
 40
50.0
 40
51.0
 40
51.0
 40
51.0
 40
52.0
 40
52.0
 40
52.0
 40
53.0
 40
53.0
 40
53.0
 40
54.0
 40
54.0
 40
54.0
 40
55.0
 40
55.0
 40
55.0
 40
56.0
 40
56.0
 40
56.0
 40
57.0
 40
57.0
 40
57.0
 40
58.0
 40
58.0
 40
58.0
 40
59.0
 40
59.0
 40
59.0
 40
60.0
 40
60.0
 40
60.0
 40
61.0
 40
61.0
 40
61.0
 40
62.0
 40
62.0
 40
62.0
 40
63.0
 40
63.0
 40
63.0
 40
64.0
 40
64.0
 40
64.0
 40
65.0
 40
65.0
 40
65.0
 40
66.0
 40
66.0
 40
66.0
 40
67.0
 40
67.0
 40
67.0
 40
68.0
 40
68.0
 40
68.0
 40
69.0
 40
69.0
 40
69.0
 40
70.0
 40
70.0
 40
70.0
 40
71.0
 40
71.0
 40
71.0
 40
72.0
 40
72.0
 40
72.0
 40
73.0
 40
73.0
 40
73.0
 40
74.0
 40
74.0
 40
74.0
 40
75.0
 40
75.0
 40
75.0
 40
76.0
 40
76.0
 40
76.0
 40
77.0
 40
77.0
 40
77.0
 40
78.0
 40
78.0
 40
78.0
 40
79.0
 40
79.0
 40
79.0
 40
80.0
 40
80.0
 40
80.0
 40
81.0
 40
81.0
 40
81.0
 40
82.0
 40
82.0
 40
82.0
 40
83.0
 40
83.0
 40
83.0
 40
84.0
 40
84.0
 40
84.0
 40
85.0
 40
85.0
 40
85.0
 40
86.0
 40
86.0
 40
86.0
 40
87.0
 40
87.0
 40
87.0
 40
88.0
 40
88.0
 40
88.0
 40
89.0
 40
89.0
 40
89.0
 40
90.0
 40
90.0
 40
90.0
 40
91.0
 40
91.0
 40
91.0
 40
92.0
 40
92.0
 40
92.0
 40
93.0
 40
93.0
 40
93.0
 40
94.0
 40
94.0
 40
94.0
 40
95.0
 40
95.0
 40
95.0
 40
96.0
 40
96.0
 40
96.0
 40
97.0
 40
97.0
 40
97.0
 40
98.0
 40
98.0
 40
98.0
 40
99.0
 40
99.0
 40
99.0
 40
100.0
 40
100.0
 40
100.0
 40
101.0
 40
101.0
 40
101.0
 40
102.0
 40
102.0
 40
102.0
 40
103.0
 40
103.0
 40
103.0
 40
104.0
 40
104.0
 40
104.0
 40
105.0
 40
105.0
 40
105.0
 40
106.0
 40
106.0
 40
106.0
 40
107.0
 40
107.0
 40
107.0
 40
108.0
 40
108.0
 40
108.0
 40
109.0
 40
109.0
 40
109.0
 40
110.0
 40
110.0
 40
110.0
 40
111.0
 40
111.0
 40
111.0
 40
112.0
 40
112.0
 40
112.0
 40
113.0
 40
113.0
 40
113.0
 40
114.0
 40
114.0
 40
114.0
 40
115.0
 40
115.0
 40
115.0
 40
116.0
 40
116.0
 40
116.0
 40
117.0
 40
117.0
 40
117.0
 40
118.0
 40
118.0
 40
118.0
 40
119.0
 40
119.0
 40
119.0
 40
120.0
 40
120.0
 40
120.0
 40
121.0
 40
121.0
 40
121.0
 40
122.0
 40
122.0
 40
122.0
 40
123.0
 40
123.0
 40
123.0
 40
124.0
 40
124.0
 40
124.0
 40
125.0
 40
125.0
 40
125.0
 40
126.0
 40
126.0
 40
126.0
 40
127.0
 40
127.0
 40
127.0
 40
128.0
 40
128.0
 40
128.0
 40
129.0
 40
129.0
 40
129.0
 40
130.0
 40
130.0
 40
130.0
 40
131.0
 40
131.0
 40
131.0
 40
132.0
 40
132.0
 40
132.0
 40
133.0
 40
133.0
 40
133.0
 40
134.0
 40
134.0
 40
134.0
 40
135.0
 40
135.0
 40
135.0
 40
136.0
 40
136.0
 40
136.0
 40
137.0
 40
137.0
 40
137.0
 40
138.0
 40
138.0
 40
138.0
 40
139.0
 40
139.0
 40
139.0
 40
140.0
 40
140.0
 40
140.0
 40
141.0
 40
141.0
 40
141.0
 40
142.0
 40
142.0
 40
142.0
 40
143.0
 40
143.0
 40
143.0
 40
144.0
 40
144.0
 40
144.0
 40
145.0
 40
145.0
 40
145.0
 40
146.0
 40
146.0
 40
146.0
 40
147.0
 40
147.0
 40
147.0
 40
148.0
 40
148.0
 40
148.0
 40
149.0
 40
149.0
 40
149.0
 40
150.0
 40
150.0
 40
150.0
 40
151.0
 40
151.0
 40
151.0
 40
152.0
 40
152.0
 40
152.0
 40
153.0
 40
153.0
 40
153.0
 40
154.0
 40
154.0
 40
154.0
 40
155.0
 40
155.0
 40
155.0
 40
156.0
 40
156.0
 40
156.0
 40
157.0
 40
157.0
 40
157.0
 40
158.0
 40
158.0
 40
158.0
 40
159.0
 40
159.0
 40
159.0
 40
160.0
 40
160.0
 40
160.0
 40
161.0
 40
161.0
 40
161.0
 40
162.0
 40
162.0
 40
162.0
 40
163.0
 40
163.0
 40
163.0
 40
164.0
 40
164.0
 40
164.0
 40
165.0
 40
165.0
 40
165.0
 40
166.0
 40
166.0
 40
166.0
 40
167.0
 40
167.0
 40
167.0
 40
168.0
 40
168.0
 40
168.0
 40
169.0
 40
169.0
 40
169.0
 40
170.0
 40
170.0
 40
170.0
 40
171.0
 40
171.0
 40
171.0
 40
172.0
 40
172.0
 40
172.0
 40
173.0
 40
173.0
 40
173.0
 40
174.0
 40
174.0
 40
174.0
 40
175.0
 40
175.0
 40
175.0
 40
176.0
 40
176.0
 40
176.0
 40
177.0
 40
177.0
 40
177.0
 40
178.0
 40
178.0
 40
178.0
 40
179.0
 40
179.0
 40
179.0
 40
180.0
 40
180.0
 40
180.0
 40
181.0
 40
181.0
 40
181.0
 40
182.0
 40
182.0
 40
182.0
 40
183.0
 40
183.0
 40
183.0
 40
184.0
 40
184.0
 40
184.0
 40
185.0
 40
185.0
 40
185.0
 40
186.0
 40
186.0
 40
186.0
 40
187.0
 40
187.0
 40
187.0
 40
188.0
 40
188.0
 40
188.0
 40
189.0
 40
189.0
 40
189.0
 40
190.0
 40
190.0
 40
190.0
 40
191.0
 40
191.0
 40
191.0
 40
192.0
 40
192.0
 40
192.0
 40
193.0
 40
193.0
 40
193.0
 40
194.0
 40
194.0
 40
194.0
 40
195.0
 40
195.0
 40
195.0
 40
196.0
 40
196.0
 40
196.0
 40
197.0
 40
197.0
 40
197.0
 40
198.0
 40
198.0
 40
198.0
 40
199.0
 40
199.0
 40
199.0
 40
200.0
 40
200.0
 40
200.0
 40
201.0
 40
201.0
 40
201.0
 40
202.0
 40
202.0
 40
202.0
 40
203.0
 40
203.0
 40
203.0
 40
204.0
 40
204.0
 40
204.0
 40
205.0
 40
205.0
 40
205.0
 40
206.0
 40
206.0
 40
206.0
 40
207.0
 40
207.0
 40
207.0
 40
208.0
 40
208.0
 40
208.0
 40
209.0
 40
209.0
 40
209.0
 40
210.0
 40
210.0
 40
210.0
 40
211.0
 40
211.0
 40
211.0
 40
212.0
 40
212.0
 40
212.0
 40
213.0
 40
213.0
 40
213.0
 40
214.0
 40
214.0
 40
214.0
 40
215.0
 40
215.0
 40
215.0
 40
216.0
 40
216.0
 40
216.0
 40
217.0
 40
217.0
 40
217.0
 40
218.0
 40
218.0
 40
218.0
 40
219.0
 40
219.0
 40
219.0
 40
220.0
 40
220.0
 40
220.0
 40
221.0
 40
221.0
 40
221.0
 40
222.0
 40
222.0
 40
222.0
 40
223.0
 40
223.0
 40
223.0
 40
224.0
 40
224.0
 40
224.0
 40
225.0
 40
225.0
 40
225.0
 40
226.0
 40
226.0
 40
226.0
 40
227.0
 40
227.0
 40
227.0
 40
228.0
 40
228.0
 40
228.0
 40
229.0
 40
229.0
 40
229.0
 40
230.0
 40
230.0
 40
230.0
 40
231.0
 40
231.0
 40
231.0
 40
232.0
 40
232.0
 40
232.0
 40
233.0
 40
233.0
 40
233.0
 40
234.0
 40
234.0
 40
234.0
 40
235.0
 40
235.0
 40
235.0
 40
236.0
 40
236.0
 40
236.0
 40
237.0
 40
237.0
 40
237.0
 40
238.0
 40
238.0
 40
238.0
 40
239.0
 40
239.0
 40
239.0
 40
240.0
 40
240.0
 40
240.0
 40
241.0
 40
241.0
 40
241.0
 40
242.0
 40
242.0
 40
242.0
 40
243.0
 40
243.0
 40
243.0
 40
244.0
 40
244.0
 40
244.0
 40
245.0
 40
245.0
 40
245.0
 40
246.0
 40
246.0
 40
246.0
 40
247.0
 40
247.0
 40
247.0
 40
248.0
 40
248.0
 40
248.0
 40
249.0
 40
249.0
 40
249.0
 40
250.0
 40
250.0
 40
250.0
 40
251.0
 40
251.0
 40
251.0
 40
252.0
 40
252.0
 40
252.0
 40
253.0
 40
253.0
 40
253.0
 40
254.0
 40
254.0
 40
254.0
 40
255.0
 40
255.0
 40
255.0
 40
256.0
 40
256.0
 40
256.0
 40
257.0
 40
257.0
 40
257.0
 40
258.0
 40
258.0
 40
258.0
 40
259.0
 40
259.0
 40
259.0
 40
260.0
 40
260.0
 40
260.0
 40
261.0
 40
261.0
 40
261.0
 40
262.0
 40
262.0
 40
262.0
 40
263.0
 40
263.0
 40
263.0
 40
264.0
 40
264.0
 40
264.0
 40
265.0
 40
265.0
 40
265.0
 40
266.0
 40
266.0
 40
266.0
 40
267.0
 40
267.0
 40
267.0
 40
268.0
 40
268.0
 40
268.0
 40
269.0
 40
269.0
 40
269.0
 40
270.0
 40
270.0
 40
270.0
 40
271.0
 40
271.0
 40
271.0
 40
272.0
 40
272.0
 40
272.0
 40
273.0
 40
273.0
 40
273.0
 40
274.0
 40
274.0
 40
274.0
 40
275.0
 40
275.0
 40
275.0
 40
276.0
 40
276.0
 40
276.0
 40
277.0
 40
277.0
 40
277.0
 40
278.0
 40
278.0
 40
278.0
 40
279.0
 40
279.0
 40
279.0
 40
280.0
 40
280.0
 40
280.0
 40
281.0
 40
281.0
 40
281.0
 40
282.0
 40
282.0
 40
282.0
 40
283.0
 40
283.0
 40
283.0
 40
284.0
 40
284.0
 40
284.0
 40
285.0
 40
285.0
 40
285.0
 40
286.0
 40
286.0
 40
286.0
 40
287.0
 40
287.0
 40
287.0
 40
288.0
 40
288.0
 40
288.0
 40
289.0
 40
289.0
 40
289.0
 40
290.0
 40
290.0
 40
290.0
 40
291.0
 40
291.0
 40
291.0
 40
292.0
 40
292.0
 40
292.0
 40
293.0
 40
293.0
 40
293.0
 40
294.0
 40
294.0
 40
294.0
 40
295.0
 40
295.0
 40
295.0
 40
296.0
 40
296.0
 40
296.0
 40
297.0
 40
297.0
 40
297.0
 40
298.0
 40
298.0
 40
298.0
 40
299.0
 40
299.0
 40
299.0
 40
300.0
 40
300.0
 40
300.0
 40
301.0
 40
301.0
 40
301.0
 40
302.0
 40
302.0
 40
302.0
 40
303.0
 40
303.0
 40
303.0
 40
304.0
 40
304.0
 40
304.0
 40
305.0
 40
305.0
 40
305.0
 40
306.0
 40
306.0
 40
306.0
 40
307.0
 40
307.0
 40
307.0
 40
308.0
 40
308.0
 40
308.0
 40
309.0
 40
309.0
 40
309.0
 40
310.0
 40
310.0
 40
310.0
 40
311.0
 40
311.0
 40
311.0
 40
312.0
 40
312.0
 40
312.0
 40
313.0
 40
313.0
 40
313.0
 40
314.0
 40
314.0
 40
314.0
 40
314.0
 10
5.992797111697225
 20
-8.066524745774661
 10
5.992797111697225
 20
-8.066524745774661
 10
5.988389409003363
 20
-8.041989736115585
 10
6.021810463799157
 20
-8.033516079732559
 10
6.067276212913131
 20
-8.021959769781308
 10
6.171904134055593
 20
-8.037414301488802
 10
6.186696016236586
 20
-8.144795018970802
 10
6.201439352693291
 20
-8.252173309166462
 10
6.12663039161392
 20
-8.324967624528123
 10
6.016453443127451
 20
-8.335657393279487
 10
6.016453443127451
 20
-8.335657393279487
 10
5.997870139882037
 20
-8.362775035534241
 10
6.008727391112012
 20
-8.376916405367435
 10
6.008727391112012
 20
-8.376916405367435
 10
5.974876457587912
 20
-8.39050920850266
 10
5.959470471995094
 20
-8.34349267337244
 10
5.959470471995094
 20
-8.34349267337244
 10
5.91860492862165
 20
-8.322324309775594
 10
5.893950735252221
 20
-8.30560273463301
 10
5.893950735252221
 20
-8.30560273463301
 10
5.861713947059646
 20
-8.314515729831657
 10
5.847776715142055
 20
-8.294116815983745
 10
5.83379044646727
 20
-8.27369605655935
 10
5.823741481546159
 20
-8.217043194920759
 10
5.811318875304361
 20
-8.207610760459449
 10
5.798803542995566
 20
-8.1981394894177
 10
5.74589598541455
 20
-8.154074534396841
 10
5.761588390780477
 20
-8.138513202093286
 10
5.761588390780477
 20
-8.138513202093286
 10
5.775715196539143
 20
-8.127655950589036
 10
5.763343318712359
 20
-8.102552955941821
 10
5.750969013599362
 20
-8.077452388580872
 10
5.760877195920127
 20
-8.035897247567465
 10
5.727074808120278
 20
-8.033860754383467
 10
5.693320966044691
 20
-8.031797561050452
 10
5.715508789316155
 20
-7.981853718673594
 10
5.73214783630509
 20
-7.972892177749448
 10
5.73214783630509
 20
-7.972892177749448
 10
5.738927246697522
 20
-7.925057647144841
 10
5.757559095667185
 20
-7.897930295745001
 10
5.757559095667185
 20
-7.897930295745001
 10
5.768557129497518
 20
-7.880791227363235
 10
5.752439949044325
 20
-7.860690869727023
 10
5.73627179558068
 20
-7.840600221235895
 10
5.717783156497565
 20
-7.825276762987237
 10
5.747840241671029
 20
-7.816659896713999
 10
5.777943689034853
 20
-7.808079439734885
 10
5.815539681433013
 20
-7.79992618514004
 10
5.83142141512355
 20
-7.785821224600972
 10
5.847349267252134
 20
-7.771716264061903
 10
5.899308002742183
 20
-7.727330907252862
 10
5.891154501535033
 20
-7.689785643164365
 10
5.883001247146151
 20
-7.652237951789579
 10
5.866124326108357
 20
-7.605410744988754
 10
5.890110768463526
 20
-7.606583124259158
 10
5.914148183829158
 20
-7.607757930815851
 10
5.968997570380439
 20
-7.638904868285711
 10
5.992134462561125
 20
-7.634222633062866
 10
6.015363591617895
 20
-7.629552534271422
 10
6.041199626067232
 20
-7.633441046882606
 10
6.067416744451975
 20
-7.597065734778223
 10
6.093682408561007
 20
-7.560717122822906
 10
6.125919449296488
 20
-7.53544907270902
 10
6.136871112145855
 20
-7.560729259254256
 10
6.147774481813889
 20
-7.586021582230867
 10
6.164272746202465
 20
-7.619491432665073
 10
6.189540795678012
 20
-7.618993838978869
 10
6.214760299429296
 20
-7.618484108861316
 10
6.264493222687532
 20
-7.601201830589363
 10
6.273689954104333
 20
-7.592514573014189
 10
6.282933060002783
 20
-7.583815179007665
 10
6.305072337549998
 20
-7.571821957527113
 10
6.32119194528938
 20
-7.602364500714707
 10
6.337311810911943
 20
-7.632882771039552
 10
6.35508899725154
 20
-7.664670512085776
 10
6.36798274161409
 20
-7.671852852170963
 10
6.380878913262828
 20
-7.678998782962051
 10
6.407331478410242
 20
-7.676843352750615
 10
6.43013583237977
 20
-7.669233810281159
 10
6.452891640625037
 20
-7.661636404243078
 10
6.473086661915759
 20
-7.667811420524508
 10
6.473798118107197
 20
-7.694501860395045
 10
6.474462933198437
 20
-7.721180163834156
 10
6.481383126191202
 20
-7.793192893015556
 10
6.504804010858783
 20
-7.822691703105242
 10
6.528222468240149
 20
-7.852226922489081
 10
6.576340990123248
 20
-7.823274251811047
 10
6.569656243893127
 20
-7.861414201036723
 10
6.563020043387243
 20
-7.899542013831024
 10
6.553157979504526
 20
-7.914297487091567
 10
6.558612091624759
 20
-7.9433229763578
 10
6.564109894896824
 20
-7.972312056329933
 10
6.570843186851207
 20
-8.032401955332716
 10
6.587720107889001
 20
-8.036040457457652
 10
6.604643147364842
 20
-8.03967895958259
 10
6.646931327764731
 20
-8.044278667072097
 10
6.648259053323145
 20
-8.064947009696475
 10
6.649635324605823
 20
-8.085593506744367
 10
6.597912282696647
 20
-8.13140125331006
 10
6.597106423673999
 20
-8.158305294372692
 10
6.596346683089374
 20
-8.185197199004
 10
6.569750908055438
 20
-8.251343177260752
 10
6.599902657391188
 20
-8.265067053854763
 10
6.630102952451175
 20
-8.278781221303664
 10
6.678459348383158
 20
-8.32723228262191
 10
6.649538233157298
 20
-8.344594661340881
 10
6.620668090941914
 20
-8.36194733091477
 10
6.578001517856314
 20
-8.35443245261005
 10
6.557519812828988
 20
-8.390011614816432
 10
6.537135463213644
 20
-8.425520385720953
 10
6.51433110924414
 20
-8.476330769297672
 10
6.528460605000999
 20
-8.492246485397219
 10
6.542538865391028
 20
-8.50815249235173
 10
6.561075787130776
 20
-8.556224897011184
 10
6.531967770866534
 20
-8.572140613110808
 10
6.50290587304034
 20
-8.588034483633919
 10
6.470101099873975
 20
-8.555300100940737
 10
6.434165127493062
 20
-8.575140738945619
 10
6.398183036674102
 20
-8.59499108609561
 10
6.353428991772236
 20
-8.626458425353626
 10
6.359686277338621
 20
-8.661316683536622
 10
6.365992366919549
 20
-8.69618465086478
 10
6.385335410749601
 20
-8.739669484466098
 10
6.332095314957415
 20
-8.709743471992118
 10
6.278903764889492
 20
-8.679863577957374
 10
6.268379051870674
 20
-8.69022323577547
 10
6.241261410300947
 20
-8.698425036095765
 10
6.214097650293196
 20
-8.706636545561246
 10
6.191531170372526
 20
-8.715704887081477
 10
6.182096308863265
 20
-8.722957618468627
 10
6.172709993078266
 20
-8.730188504279264
 10
6.170765736821775
 20
-8.81382793471385
 10
6.157634118410392
 20
-8.815628981129242
 10
6.144502499998983
 20
-8.817430027544686
 10
6.123120535750179
 20
-8.802497362386122
 10
6.108566527618071
 20
-8.783651911753623
 10
6.094107183648248
 20
-8.764818597552523
 10
6.059263490063105
 20
-8.760682501741384
 10
6.027546141120082
 20
-8.768008051716782
 10
5.99583121946326
 20
-8.775367583699966
 10
5.98013881409732
 20
-8.78048673045214
 10
5.975255114237117
 20
-8.799023915727831
 10
5.970373841663116
 20
-8.817573237434797
 10
5.945200456349867
 20
-8.883527460075937
 10
5.920405727685837
 20
-8.833357880075608
 10
5.895705663184091
 20
-8.78318830007528
 10
5.874134370610691
 20
-8.799545782276759
 10
5.865932816472663
 20
-8.805138249852385
 10
5.857827861832902
 20
-8.810708871851551
 10
5.836445897584099
 20
-8.828571271543018
 10
5.819663640708616
 20
-8.804060534746643
 10
5.802927502271157
 20
-8.779598343675818
 10
5.781358636983971
 20
-8.795941262159658
 10
5.779652254776352
 20
-8.805104267844525
 10
5.777897326844468
 20
-8.814276982674528
 10
5.736936872002994
 20
-8.830314063087826
 10
5.727456134532606
 20
-8.804820275350469
 10
5.718067148984472
 20
-8.779326487613137
 10
5.695692424674626
 20
-8.746684341798401
 10
5.670613703523675
 20
-8.74866500739808
 10
5.645581100810785
 20
-8.750597127272334
 10
5.635389166154229
 20
-8.784753899722116
 10
5.622492754354362
 20
-8.744849313375147
 10
5.609550464267563
 20
-8.704942299741914
 10
5.597273250603077
 20
-8.734916857941318
 10
5.59177302004481
 20
-8.749067936919573
 10
5.586321335210792
 20
-8.763206879466477
 10
5.554652531992019
 20
-8.760148498761055
 10
5.558968246878432
 20
-8.726797585354284
 10
5.563327652916668
 20
-8.693446671947514
 10
5.541664123467184
 20
-8.687485256858256
 10
5.530428215587992
 20
-8.681594233070882
 10
5.519192307708813
 20
-8.675715345714883
 10
5.491696009489892
 20
-8.67057192609996
 10
5.480933422422216
 20
-8.689902833987237
 10
5.47021938107879
 20
-8.709233741874565
 10
5.44798543936929
 20
-8.698910493350619
 10
5.451065665573373
 20
-8.66720528003773
 10
5.454148319063657
 20
-8.635536476018917
 10
5.432861018977152
 20
-8.642932417296278
 10
5.424423772101363
 20
-8.657498562227424
 10
5.415984097939359
 20
-8.672040434295821
 10
5.379528919996409
 20
-8.666637295049592
 10
5.385737684441311
 20
-8.63602436056006
 10
5.391949109859929
 20
-8.60536288034503
 10
5.38166227088997
 20
-8.574060596553611
 10
5.38166227088997
 20
-8.574060596553611
 10
5.38166227088997
 20
-8.574060596553611
 10
5.338092483369703
 20
-8.538362497319742
 10
5.316144961433312
 20
-8.551814517851072
 10
5.294146466486445
 20
-8.565232556374566
 10
5.266839496592133
 20
-8.561569781386904
 10
5.267028824916729
 20
-8.530291770458259
 10
5.26717203480329
 20
-8.499001623098188
 10
5.270490135056219
 20
-8.501526000823281
 10
5.240149057395873
 20
-8.519080135157916
 10
5.209795843304454
 20
-8.536631842206285
 10
5.1964263508442
 20
-8.504276116171898
 10
5.2057180024669
 20
-8.485124827468882
 10
5.215009654089613
 20
-8.46598324791095
 10
5.217334994281499
 20
-8.418054053141658
 10
5.206477743051512
 20
-8.415066063738221
 10
5.195669037545788
 20
-8.412104774483725
 10
5.154092052006263
 20
-8.42375332131337
 10
5.165327959885442
 20
-8.38647991328758
 10
5.17660998620267
 20
-8.349206505261765
 10
5.154519482383017
 20
-8.340351764933706
 10
5.138020989991118
 20
-8.350058482743963
 10
5.121474179878279
 20
-8.359777336985719
 10
5.076863086572707
 20
-8.359978801746466
 10
5.094548293919362
 20
-8.326271077257337
 10
5.112231073979829
 20
-8.29257548919966
 10
5.099810650428783
 20
-8.277926816535203
 10
5.096349340289294
 20
-8.263503881494241
 10
5.09283948442554
 20
-8.24909065559834
 10
5.026659525832782
 20
-8.265671448137027
 10
5.037041028965038
 20
-8.232973474737996
 10
5.047471077821569
 20
-8.20028521048405
 10
5.037373567176195
 20
-8.180813519992853
 10
5.01020737988223
 20
-8.189003183881823
 10
4.983043619874466
 20
-8.197226829778629
 10
4.959338742719991
 20
-8.176687133326798
 10
4.984798547806336
 20
-8.144901819566863
 10
5.010161261444182
 20
-8.113114078520614
 10
5.007411146165055
 20
-8.082251133544862
 10
5.001010392421827
 20
-8.06824326445677
 10
4.994612065964803
 20
-8.054232968082387
 10
4.98697825082546
 20
-8.0418950719509
 10
4.969628008976163
 20
-8.04577144813071
 10
4.952323885564915
 20
-8.049623551447793
 10
4.914397538489475
 20
-8.044443722538745
 10
4.938527190731191
 20
-8.014340518166794
 10
4.962659270259135
 20
-7.984222750077176
 10
4.957537696350073
 20
-7.968542480746186
 10
4.919565230836585
 20
-7.963340806260677
 10
4.881685002199181
 20
-7.958124568057529
 10
4.853193516633003
 20
-7.945692007761383
 10
4.887042022870901
 20
-7.921669155506152
 10
4.920987620557298
 20
-7.897643875964629
 10
4.949573770285775
 20
-7.889252747314913
 10
4.942842905617605
 20
-7.861911794722927
 10
4.936109613663221
 20
-7.83453200555055
 10
4.948294590451622
 20
-7.782253113777996
 10
4.898610690499746
 20
-7.789093206498515
 10
4.848926347470852
 20
-7.795906599070071
 10
4.815315715281827
 20
-7.767818042305635
 10
4.857601468395501
 20
-7.739680939815722
 10
4.899843530357353
 20
-7.711534128180725
 10
4.950284965146137
 20
-7.677802130828897
 10
4.946207124308582
 20
-7.658993089490523
 10
4.942131933395191
 20
-7.640196184583551
 10
4.97493648392362
 20
-7.586589567219006
 10
4.922977995251813
 20
-7.587774082920809
 10
4.871114170742317
 20
-7.588970735053963
 10
4.83024838006314
 20
-7.540983285414086
 10
4.87158749155382
 20
-7.527863803102314
 10
4.91297514876875
 20
-7.514707911496442
 10
4.938527190731191
 20
-7.494855137060186
 10
4.967967745206591
 20
-7.481854591775876
 10
4.997456845406242
 20
-7.468875892068
 10
4.966877893697036
 20
-7.419500034679307
 10
4.955831314142452
 20
-7.415055673511359
 10
4.94478473458787
 20
-7.410635585206137
 10
4.814507428972951
 20
-7.394314512298756
 10
4.872677343063375
 20
-7.362514634821157
 10
4.930847257153813
 20
-7.330680775335749
 10
5.000631735772623
 20
-7.264522660647597
 10
4.949241232074617
 20
-7.237358899953632
 10
4.897850728376625
 20
-7.210183002828266
 10
4.901549912564974
 20
-7.193293944932773
 10
4.951850564753411
 20
-7.180434182252333
 10
5.002148789655633
 20
-7.167574419571919
 10
5.01641880530086
 20
-7.15221455202911
 10
5.015850820327058
 20
-7.137410533043091
 10
5.015328953791292
 20
-7.122584668480613
 10
5.022487020832929
 20
-7.06652406469291
 10
4.992478481383728
 20
-7.064710881846117
 10
4.962469941934538
 20
-7.062885562567973
 10
4.93980879785157
 20
-7.092777593034093
 10
4.931796326063022
 20
-7.099840996091845
 10
4.923832399998736
 20
-7.106880126286872
 10
4.874764809206416
 20
-7.161292602694427
 10
4.867225878975028
 20
-7.171261467422331
 10
4.859640388814278
 20
-7.181215768432619
 10
4.835416072410251
 20
-7.189026775662821
 10
4.791042853153536
 20
-7.147486198367055
 10
4.74657254244831
 20
-7.1059553302164
 10
4.701726002380105
 20
-7.07195147680189
 10
4.672807314440458
 20
-7.013402904583194
 10
4.643934744938873
 20
-6.954842195933148
 10
4.61032189971935
 20
-6.883589207355574
 10
4.585242964312682
 20
-6.852784517250383
 10
4.560164243161744
 20
-6.821982254431456
 10
4.508062544603389
 20
-6.57317327490005
 10
4.500193282701401
 20
-6.440276924104258
 10
4.492372566523664
 20
-6.307380573308465
 10
4.537930301452244
 20
-6.249021329419141
 10
4.550350725003278
 20
-6.144594619332818
 10
4.562773575840538
 20
-6.040189754822929
 10
4.61136563281722
 20
-6.003756187847986
 10
4.6294268552448
 20
-6.016154766136323
 10
4.647536837678709
 20
-6.028538780707044
 10
4.748611462867087
 20
-6.081623531522634
 10
4.785115420221814
 20
-6.076599048935147
 10
4.82161937757654
 20
-6.071574566347635
 10
4.836789916406714
 20
-6.041197078626712
 10
4.816735677716324
 20
-6.014186236968018
 10
4.7966353205879
 20
-5.987199668172037
 10
4.765536929629143
 20
-5.955756601776746
 10
4.717513071908343
 20
-5.963875874363768
 10
4.669486786901315
 20
-5.971922328362565
 10
4.667923614580255
 20
-5.949819459550175
 10
4.693048454169242
 20
-5.937433017693214
 10
4.71812717532018
 20
-5.925058712267615
 10
4.759704160859719
 20
-5.913385892575231
 10
4.78620527173137
 20
-5.911215898646156
 10
4.812660483532214
 20
-5.90908231401118
 10
4.867796070489387
 20
-5.898511482287264
 10
4.873672530410633
 20
-5.854553327862479
 10
4.87950529918007
 20
-5.810580609720041
 10
4.860730240323846
 20
-5.771469745984708
 10
4.860019045463483
 20
-5.744767169682821
 10
4.860019045463483
 20
-5.744767169682821
 10
4.728605769900961
 20
-5.762865016142869
 10
4.715379487327255
 20
-5.775108248109657
 10
4.702150777467346
 20
-5.787351480076445
 10
4.632460963010835
 20
-5.832649496524582
 10
4.661049540025525
 20
-5.79149971231896
 10
4.689635689754001
 20
-5.750349928113375
 10
4.715614934089899
 20
-5.733390478915908
 10
4.755485537421817
 20
-5.720470034078605
 10
4.795402478123024
 20
-5.70756415295898
 10
4.839302157636994
 20
-5.647925729203191
 10
4.846508770402882
 20
-5.624611644540007
 10
4.853666837444507
 20
-5.601299987163101
 10
4.872204022251885
 20
-5.573422604304546
 10
4.872204022251885
 20
-5.573422604304546
 10
4.872204022251885
 20
-5.573422604304546
 10
4.854805234678325
 20
-5.554982510479842
 10
4.820813518553879
 20
-5.546258843610556
 10
4.786870348153684
 20
-5.537547313172657
 10
4.703005182214256
 20
-5.468699765292765
 10
4.582825387244712
 20
-5.601321832739573
 10
4.582825387244712
 20
-5.601321832739573
 10
4.569788432995614
 20
-5.582289481063993
 10
4.605391867165369
 20
-5.54910362312387
 10
4.640995301335137
 20
-5.51590562875237
 10
4.694803382101112
 20
-5.484734418419773
 10
4.752451429655783
 20
-5.470833349927728
 10
4.810053358772418
 20
-5.456954127012168
 10
4.846224777915975
 20
-5.428166511800795
 10
4.848690900708207
 20
-5.402505241310513
 10
4.851154596214226
 20
-5.376858534537872
 10
4.860540911999237
 20
-5.326463216914034
 10
4.810099477210454
 20
-5.327436558709969
 10
4.75960949669742
 20
-5.328465728090211
 10
4.609943028814428
 20
-5.441319976120377
 10
4.69589323361068
 20
-5.352075941678827
 10
4.69589323361068
 20
-5.352075941678827
 10
4.776251189420009
 20
-5.297877066463406
 10
4.786064489131036
 20
-5.293561351467992
 10
4.795878007289489
 20
-5.289211654464705
 10
4.730596144595475
 20
-5.290740844817416
 10
4.712250715398921
 20
-5.287303807453226
 10
4.693902858916153
 20
-5.283891042951786
 10
4.667639622093348
 20
-5.28751740864536
 10
4.609185715516029
 20
-5.338718585312196
 10
4.55073202168905
 20
-5.389907625547683
 10
4.621322146580168
 20
-5.296869742659648
 10
4.636398021248042
 20
-5.287352353178727
 10
4.651425350191655
 20
-5.27781069083504
 10
4.656733825139112
 20
-5.251785327403657
 10
4.717226652135221
 20
-5.258372982351678
 10
4.777673360693282
 20
-5.26490480971539
 10
4.769139240636756
 20
-5.257176330218536
 10
4.789904455919719
 20
-5.234978797241435
 10
4.810667462184256
 20
-5.212766700546745
 10
4.83697924473131
 20
-5.209140334853158
 10
4.83697924473131
 20
-5.209140334853158
 10
4.83697924473131
 20
-5.209140334853158
 10
4.855754303587546
 20
-5.161898062099453
 10
4.850681275402735
 20
-5.135812016511206
 10
4.845608247217923
 20
-5.109701698060197
 10
4.821524713414242
 20
-5.053476038805873
 10
4.776962165832919
 20
-5.043247454446613
 10
4.732351072527359
 20
-5.033009160942255
 10
4.665552155950321
 20
-5.045167437889455
 10
4.599323651633299
 20
-5.104902953096219
 10
4.599323651633299
 20
-5.104902953096219
 10
4.569077238135251
 20
-5.112036747455932
 10
4.610608105236742
 20
-5.06762711778414
 10
4.652136545052017
 20
-5.023195642535888
 10
4.702531861402753
 20
-4.999893694304078
 10
4.737564883312504
 20
-4.995058540045975
 10
4.772646450946518
 20
-4.990247658650623
 10
4.831670769783866
 20
-4.986606729239409
 10
4.850397282915828
 20
-4.960202709149232
 10
4.869075250323539
 20
-4.933830243780625
 10
4.908945853655458
 20
-4.888165707105107
 10
4.883913250942568
 20
-4.879679914290691
 10
4.858977739678178
 20
-4.871206257907639
 10
4.839018165150088
 20
-4.823347454440295
 10
4.701155590120089
 20
-4.860159678073993
 10
4.701155590120089
 20
-4.860159678073993
 10
4.651092811980511
 20
-4.8640943091244
 10
4.710447458527899
 20
-4.841018098516088
 10
4.769755553067044
 20
-4.818002570064626
 10
4.84247947528959
 20
-4.794605957668131
 10
4.881544219598835
 20
-4.818985621005658
 10
4.881544219598835
 20
-4.818985621005658
 10
4.874621599319855
 20
-4.746985028255645
 10
4.755723411470677
 20
-4.715731290189725
 10
4.636822796335283
 20
-4.684453279261068
 10
4.583490463667027
 20
-4.751310452396183
 10
4.583490463667027
 20
-4.751310452396183
 10
4.583490463667027
 20
-4.751310452396183
 10
4.564336748161597
 20
-4.742043073401482
 10
4.612076613395502
 20
-4.710197077484685
 10
4.659767932905146
 20
-4.678338945136513
 10
4.711774967301204
 20
-4.666709816597063
 10
4.773833393904586
 20
-4.684963009378659
 10
4.835843274783707
 20
-4.703204065728856
 10
4.851533252863431
 20
-4.730841147246287
 10
4.904821894379867
 20
-4.707138696779262
 10
4.958154227048125
 20
-4.683433819025936
 10
4.959719826655398
 20
-4.629601464037907
 10
4.939903462013868
 20
-4.626390164297214
 10
4.920087097372339
 20
-4.623178864556532
 10
4.849780752217776
 20
-4.588191960200965
 10
4.800807825587754
 20
-4.545809114568101
 10
4.751834898957731
 20
-4.503426268935224
 10
4.680154925826551
 20
-4.490923317337105
 10
4.648058704214463
 20
-4.48494976581642
 10
4.615965125908448
 20
-4.478951941432986
 10
4.620894944206712
 20
-4.460390483294595
 10
4.65379680882159
 20
-4.461825009482633
 10
4.686744791874528
 20
-4.463259535670633
 10
4.802562972631764
 20
-4.493469540638671
 10
4.823136431459552
 20
-4.512967931278896
 10
4.843663990961444
 20
-4.532476031064207
 10
4.894486509685647
 20
-4.577548309888824
 10
4.948911121149674
 20
-4.573057830281666
 10
4.948911121149674
 20
-4.573057830281666
 10
4.975647678783982
 20
-4.529191912735288
 10
4.958202772772387
 20
-4.521191577175689
 10
4.94066077531228
 20
-4.513181532471018
 10
4.963275800957186
 20
-4.504088918088061
 10
5.025664338485512
 20
-4.492547171854501
 10
5.088098994451886
 20
-4.480990861903289
 10
5.087863547689241
 20
-4.446761270865269
 10
5.063826132323609
 20
-4.412888490909546
 10
5.039839689968428
 20
-4.378979301659708
 10
4.938811183218099
 20
-4.272275797048236
 10
4.874242942670649
 20
-4.257355268321058
 10
4.809672274836998
 20
-4.242422603162494
 10
4.797916927708266
 20
-4.221715423957764
 10
4.84148428794232
 20
-4.224654867635751
 10
4.885003102452123
 20
-4.22759431131375
 10
4.975837007108579
 20
-4.292507228143247
 10
5.00935540242152
 20
-4.298315724197272
 10
5.042919916172511
 20
-4.30412422025131
 10
5.086441157968529
 20
-4.360621735568341
 10
5.144135323961235
 20
-4.336336736395499
 10
5.201783371515906
 20
-4.312039600791309
 10
5.172629236813628
 20
-4.305629137741284
 10
5.191353322659388
 20
-4.27924696322758
 10
5.210033717353313
 20
-4.252862361427611
 10
5.230607395293242
 20
-4.229172047391936
 10
5.212640622745893
 20
-4.195937643726337
 10
5.194625304474281
 20
-4.162669258052877
 10
5.195479709221192
 20
-4.158084114281008
 10
5.159116534466812
 20
-4.142272771491232
 10
5.122661122836348
 20
-4.126437155838693
 10
5.098388260708058
 20
-4.101477371081627
 10
5.078001483806525
 20
-4.06115771878179
 10
5.05756858846693
 20
-4.020765247893715
 10
5.090281124757212
 20
-4.053477785010374
 10
5.106920398547004
 20
-4.066087537204579
 10
5.123607764459343
 20
-4.078663307390936
 10
5.137831661666521
 20
-4.096062095404022
 10
5.166561021281558
 20
-4.109963163896055
 10
5.195241835172333
 20
-4.123890932537102
 10
5.22762183325147
 20
-4.164103784240877
 10
5.241287454629691
 20
-4.14435781040072
 10
5.254940939576841
 20
-4.124614263846815
 10
5.192729593942052
 20
-4.051307791081298
 10
5.172580691089378
 20
-4.034739134973961
 10
5.152432016187251
 20
-4.018146206003911
 10
5.10858043551573
 20
-3.991419356839288
 10
5.053255300866732
 20
-3.967775161242823
 10
4.997881620493482
 20
-3.944130965646347
 10
5.004804464993665
 20
-3.94020847102734
 10
5.048942013266545
 20
-3.947531593716437
 10
5.09312590419865
 20
-3.954857143691823
 10
5.177369726787282
 20
-3.99386120683107
 10
5.191685860870544
 20
-4.011238149267696
 10
5.206004422240022
 20
-4.028636937280756
 10
5.281060966513096
 20
-4.119541235533827
 10
5.307183420735555
 20
-4.136796813656739
 10
5.333400539120299
 20
-4.154018409771803
 10
5.343071080158729
 20
-4.137804137460509
 10
5.333116546633404
 20
-4.119825228027897
 10
5.323208364312639
 20
-4.101834182163935
 10
5.30486050782987
 20
-4.065660334820324
 10
5.28779425846748
 20
-4.027840787382843
 10
5.27063334494278
 20
-3.989987257937539
 10
5.20069352000635
 20
-3.925169005272727
 10
5.235253221104598
 20
-3.938276351153111
 10
5.269778940195869
 20
-3.951383697033508
 10
5.296753371879023
 20
-3.984889956761827
 10
5.307656973418943
 20
-4.0101944161698
 10
5.318562538501283
 20
-4.035486739146411
 10
5.321548100543067
 20
-4.05741241606078
 10
5.355396606780952
 20
-4.086971908307342
 10
5.3892936587431
 20
-4.116577518993103
 10
5.412238795312962
 20
-4.143161158267554
 10
5.434142861164698
 20
-4.107392667731725
 10
5.455997911157838
 20
-4.07168243206647
 10
5.486479771418531
 20
-4.065980736608518
 10
5.451303775122924
 20
-4.015740765306228
 10
5.41612730782592
 20
-3.965525066866677
 10
5.419256079754253
 20
-3.923389804433782
 10
5.378106296588182
 20
-3.894827926845892
 10
5.337002864473371
 20
-3.866239349108986
 10
5.288457138990439
 20
-3.84910270801351
 10
5.25764250913173
 20
-3.841422774242119
 10
5.226767428504545
 20
-3.833764686047187
 10
5.227099966715703
 20
-3.814375523289287
 10
5.280871638188487
 20
-3.826334762762005
 10
5.334633600516427
 20
-3.838315847811208
 10
5.374360993961785
 20
-3.856639431894741
 10
5.408731366735436
 20
-3.890594739583788
 10
5.443245184692753
 20
-3.924552474559075
 10
5.507434533293879
 20
-4.002050870720028
 10
5.529051944305327
 20
-4.018430198497994
 10
5.55067178260299
 20
-4.034809526275922
 10
5.571104677942571
 20
-3.999291046226328
 10
5.546450731878874
 20
-3.960973905102656
 10
5.521847758825654
 20
-3.922678609555444
 10
5.445851854788215
 20
-3.857219553314267
 10
5.42816907472776
 20
-3.804549868451545
 10
5.410580958829605
 20
-3.751926302028045
 10
5.410627077267653
 20
-3.698356093957626
 10
5.382989996448385
 20
-3.670871931475479
 10
5.355445152505214
 20
-3.64343388743253
 10
5.391237914999579
 20
-3.622100468369037
 10
5.408779912459686
 20
-3.652453683227249
 10
5.426368028357842
 20
-3.682794761654072
 10
5.441349238863419
 20
-3.770026575774371
 10
5.455949365433576
 20
-3.800758447291337
 10
5.470598037727996
 20
-3.831502455239678
 10
5.55109655769023
 20
-3.918661450771727
 10
5.568306016939181
 20
-3.935657309263307
 10
5.585515476188132
 20
-3.952604622029399
 10
5.613106678157528
 20
-3.980091211797824
 10
5.594285261275078
 20
-3.908255674514458
 10
5.575512629705068
 20
-3.836420137231092
 10
5.548300323973055
 20
-3.811863281995544
 10
5.543227295788243
 20
-3.785789372838659
 10
5.538154267603431
 20
-3.759703327250425
 10
5.579114722444905
 20
-3.776390920385186
 10
5.582576032584395
 20
-3.801195358820678
 10
5.585942678561588
 20
-3.826050770267936
 10
5.628230858961488
 20
-3.916967204952369
 10
5.639418461369297
 20
-3.93331012343621
 10
5.650605583271335
 20
-3.94961905991219
 10
5.638566243655709
 20
-3.981049989876131
 10
5.658287944134941
 20
-3.994727748030932
 10
5.678009644614172
 20
-4.008369096891657
 10
5.735703810606879
 20
-4.027236393100591
 10
5.756942564969133
 20
-3.987081796267375
 10
5.778229865055638
 20
-3.946963608728285
 10
5.789985212184357
 20
-3.891757409709094
 10
5.77609628047455
 20
-3.834121497129483
 10
5.762253467202791
 20
-3.776497720981246
 10
5.745328000440749
 20
-3.740122408876889
 10
5.682891158539241
 20
-3.708514287014951
 10
5.620502379659834
 20
-3.676928010729474
 10
5.546783270090032
 20
-3.617100258644314
 10
5.614718156614672
 20
-3.634569437959335
 10
5.682606924701266
 20
-3.65200463526652
 10
5.689480999255996
 20
-3.691234436029289
 10
5.729446509277409
 20
-3.700620752051413
 10
5.769506198406727
 20
-3.710007068073537
 10
5.814401528872546
 20
-3.809503959737096
 10
5.815112479059558
 20
-3.836194399607595
 10
5.815775128195658
 20
-3.862896975909482
 10
5.822887076799248
 20
-3.97952079952342
 10
5.843841838674595
 20
-4.001922224547507
 10
5.864748054825681
 20
-4.02438190444218
 10
5.899878168183944
 20
-3.965949841964655
 10
5.896560067931002
 20
-3.930691081546406
 10
5.893193421953811
 20
-3.895432321128144
 10
5.85611905233908
 20
-3.733806609991537
 10
5.855077746553775
 20
-3.683340901065763
 10
5.854128677644553
 20
-3.632887328571352
 10
5.768935786146711
 20
-3.576139802768087
 10
5.76139906245588
 20
-3.542953944827938
 10
5.753813793040788
 20
-3.509719541162326
 10
5.787900173327544
 20
-3.53034176534748
 10
5.808427732829424
 20
-3.560258068676351
 10
5.828860628169019
 20
-3.590196217581668
 10
5.850715913229325
 20
-3.608031917124082
 10
5.867308841780211
 20
-3.663796391986339
 10
5.88390177033111
 20
-3.719570575993682
 10
5.903053058550325
 20
-3.772004814087786
 10
5.906230376202921
 20
-3.719488048260347
 10
5.909407693855504
 20
-3.666937300425072
 10
5.895183796648338
 20
-3.55278930881079
 10
5.87204957788352
 20
-3.514319248651848
 10
5.848866321135144
 20
-3.475812779198779
 10
5.891960360557694
 20
-3.49668258658389
 10
5.903623470810341
 20
-3.538235300310993
 10
5.915284153776762
 20
-3.579812286900859
 10
5.946528181908294
 20
-3.676738682400077
 10
5.934248540957595
 20
-3.706713240599533
 10
5.921968900006896
 20
-3.736661098649948
 10
5.914383630591803
 20
-3.789818668053751
 10
5.931403761516157
 20
-3.848498313731259
 10
5.948423892440511
 20
-3.907165822977365
 10
5.954348898086019
 20
-3.928688570370228
 10
5.975636198172524
 20
-3.964481333768807
 10
5.996921070972816
 20
-4.00023768787326
 10
6.008868173712358
 20
-4.032831287962495
 10
6.025317892376683
 20
-4.03354248284082
 10
6.041770038327235
 20
-4.03424154128777
 10
6.057224569644328
 20
-3.994917076360328
 10
6.054285126040591
 20
-3.9625953323338
 10
6.051299563998807
 20
-3.930251742730787
 10
6.051204899836496
 20
-3.907923136294913
 10
6.064715174897097
 20
-3.876315014432976
 10
6.078225449957699
 20
-3.844670483276913
 10
6.097947150436943
 20
-3.73925829496328
 10
6.077373723813555
 20
-3.687025521629923
 10
6.056797367270873
 20
-3.634770902720081
 10
6.009958025221914
 20
-3.499789513014788
 10
6.040063656119628
 20
-3.523931302297456
 10
6.070215405455378
 20
-3.548085228011486
 10
6.128669312032697
 20
-3.724619331443894
 10
6.125254120331268
 20
-3.742942915527427
 10
6.121841608355933
 20
-3.761290772473709
 10
6.129047968681915
 20
-3.575712600383831
 10
6.105580965576286
 20
-3.480694051896092
 10
6.082065416746395
 20
-3.385690067125981
 10
6.032951707516026
 20
-3.331442646185085
 10
6.014225194384077
 20
-3.314648252454263
 10
5.995593345414401
 20
-3.29784172229208
 10
5.977959111078209
 20
-3.234790534034851
 10
6.016312660527092
 20
-3.275668462177741
 10
6.054712328414047
 20
-3.316522117457907
 10
6.131181553262977
 20
-3.407212814518832
 10
6.136822566421592
 20
-3.448102879093123
 10
6.142417461142157
 20
-3.489014789243849
 10
6.166073792572383
 20
-3.639084190429243
 10
6.157966656621536
 20
-3.710150277963723
 10
6.149859520670689
 20
-3.781213938211913
 10
6.164224200478202
 20
-3.788194813536355
 10
6.166168456734693
 20
-3.813224989595356
 10
6.168158831429208
 20
-3.838245456509248
 10
6.150476051368766
 20
-3.904675427260094
 10
6.168680697964974
 20
-3.93940261198433
 10
6.18683679883692
 20
-3.974117660277165
 10
6.190582355639789
 20
-3.893216208759845
 10
6.190963185398737
 20
-3.863394569595685
 10
6.191293296323667
 20
-3.833551084855053
 10
6.225760760545831
 20
-3.705312696419342
 10
6.226612738006527
 20
-3.667968897091605
 10
6.2274185970292
 20
-3.630646943340303
 10
6.234909202281996
 20
-3.555197176794738
 10
6.219787209176072
 20
-3.53196561986489
 10
6.204662788783935
 20
-3.508748626652669
 10
6.223246092029335
 20
-3.384136603910532
 10
6.235620397142333
 20
-3.409215325695009
 10
6.248040820693379
 20
-3.434306183910874
 10
6.236520920327292
 20
-3.523705564673971
 10
6.252118661530933
 20
-3.572193035286318
 10
6.267716402734575
 20
-3.620644096604565
 10
6.252640528066699
 20
-3.74922473240493
 10
6.24107208197635
 20
-3.773143211350366
 10
6.229457517447978
 20
-3.797059263009537
 10
6.200111627134876
 20
-3.984166625452126
 10
6.213432573870882
 20
-4.027000946331984
 10
6.226802066331149
 20
-4.069808567062839
 10
6.243443540606298
 20
-4.115167265667815
 10
6.261315648991335
 20
-4.05020580311283
 10
6.27914163893835
 20
-3.985246767844122
 10
6.281085895194842
 20
-3.934353856534092
 10
6.307065139530727
 20
-3.874239684668573
 10
6.333044383866636
 20
-3.814067257932467
 10
6.331621994145912
 20
-3.674379360141605
 10
6.307822452829138
 20
-3.641916833511181
 10
6.284025338798553
 20
-3.609466443312107
 10
6.310383239783656
 20
-3.595422164929901
 10
6.322141271698531
 20
-3.616114780417004
 10
6.333944907051595
 20
-3.636834096053108
 10
6.35684392518341
 20
-3.760200920936616
 10
6.348450369459442
 20
-3.807501448560919
 10
6.340107786745951
 20
-3.854789839753835
 10
6.30687581120613
 20
-3.948669990978992
 10
6.311332308692878
 20
-3.980812115821247
 10
6.315740260455388
 20
-4.012932395087028
 10
6.308154991040283
 20
-4.066087537204579
 10
6.295069491066922
 20
-4.090207480910774
 10
6.282032536817824
 20
-4.114349270193429
 10
6.260082587595232
 20
-4.12777701786202
 10
6.269328120779896
 20
-4.151802297403504
 10
6.278571483077585
 20
-4.175825149658737
 10
6.328398558055268
 20
-4.299975988008795
 10
6.356035638874547
 20
-4.316993692076847
 10
6.383675146980017
 20
-4.334013823431152
 10
6.444073309813827
 20
-4.307845250109582
 10
6.460523028478165
 20
-4.275831771439849
 10
6.476975174428717
 20
-4.243820720056407
 10
6.536424268353307
 20
-4.113567684013169
 10
6.520353468845315
 20
-4.039882554588884
 10
6.504282144323017
 20
-3.966163443156789
 10
6.508595431923216
 20
-3.813758992575673
 10
6.513619914383778
 20
-3.77438598192273
 10
6.518598278406292
 20
-3.734966852830591
 10
6.551594807183467
 20
-3.769147898143122
 10
6.542681812209972
 20
-3.801646834067658
 10
6.533722698798404
 20
-3.834121497129483
 10
6.543344461346073
 20
-3.947390811112541
 10
6.551356933134608
 20
-3.973110336473383
 10
6.559369404923169
 20
-3.998781316108762
 10
6.557852351040133
 20
-4.085323780927196
 10
6.551784135508064
 20
-4.127825563587495
 10
6.545764465700257
 20
-4.170337055392894
 10
6.558753137702322
 20
-4.232572675462026
 10
6.537324791538266
 20
-4.260816578547987
 10
6.537324791538266
 20
-4.260816578547987
 10
6.547089763972457
 20
-4.277326979784726
 10
6.573306882357226
 20
-4.2082294214186
 10
6.59952400074197
 20
-4.139107590189736
 10
6.637261019492826
 20
-4.099700597528959
 10
6.64342389918718
 20
-4.069097372184514
 10
6.649635324605823
 20
-4.038448028400883
 10
6.648496927372005
 20
-3.943373652328824
 10
6.635270644798311
 20
-3.912428179619724
 10
6.622136599100688
 20
-3.881492416055734
 10
6.634794896700592
 20
-3.844017543269173
 10
6.655465666089033
 20
-3.918591059469766
 10
6.676182553915522
 20
-3.99313787552137
 10
6.67765106207427
 20
-4.025673220740032
 10
6.672675125337971
 20
-4.065080213400797
 10
6.66764821559122
 20
-4.104453224053739
 10
6.63891885597617
 20
-4.176856746325257
 10
6.642144719353028
 20
-4.200229085859013
 10
6.645368155443672
 20
-4.223613561824146
 10
6.607060724432813
 20
-4.248240808361629
 10
6.600235460127502
 20
-4.284934094967904
 10
6.593361121047614
 20
-4.321593399566344
 10
6.540502109190836
 20
-4.380935694396688
 10
6.535759191930993
 20
-4.411347164125472
 10
6.530972583519289
 20
-4.441795043148368
 10
6.52831713240246
 20
-4.475561022508018
 10
6.557900896764395
 20
-4.518465734689837
 10
6.562736050900361
 20
-4.525483019308391
 10
6.600378405488906
 20
-4.630004393559412
 10
6.595256831579818
 20
-4.689431643409344
 10
6.595256831579818
 20
-4.689431643409344
 10
6.667696761315483
 20
-4.789178545559139
 10
6.691731749394901
 20
-4.77035736778939
 10
6.71572061903627
 20
-4.751524053588292
 10
6.741794795635719
 20
-4.723564142996401
 10
6.7736065406398
 20
-4.729159037858304
 10
6.805370008020873
 20
-4.734766069151584
 10
6.788493086983079
 20
-4.764798882221612
 10
6.78242487145101
 20
-4.768959250895477
 10
6.776308110194678
 20
-4.77311719228309
 10
6.727573057613527
 20
-4.829675389756984
 10
6.737859896583485
 20
-4.880342563443529
 10
6.748195281277705
 20
-4.931021873561424
 10
6.910376836874042
 20
-5.079384892496111
 10
6.931520927073986
 20
-5.096405023850417
 10
6.931520927073986
 20
-5.096405023850417
 10
7.009128549156735
 20
-5.072452562897145
 10
7.031030228063046
 20
-5.102674704296545
 10
7.05293378343966
 20
-5.132908982127319
 10
7.046627693858731
 20
-5.151516558704921
 10
7.061608904364296
 20
-5.163842318405032
 10
7.076590391428781
 20
-5.176192350967893
 10
7.086830835401795
 20
-5.193637257420177
 10
7.079862096684766
 20
-5.207885427849432
 10
7.072988022130049
 20
-5.222119034561033
 10
7.054450837322671
 20
-5.224679821580239
 10
7.057436399364455
 20
-5.246404033733875
 10
7.060424664842937
 20
-5.268174364326683
 10
7.014106913179249
 20
-5.31777595933886
 10
6.970207014734038
 20
-5.337119003657549
 10
6.926307116288828
 20
-5.356425638682102
 10
6.858277565601888
 20
-5.336987930198739
 10
6.856663420270352
 20
-5.309491631285204
 10
6.855100518912902
 20
-5.282007468803031
 10
6.870933435915579
 20
-5.284269699610541
 10
6.838033998586903
 20
-5.254438351301297
 10
6.805132133972013
 20
-5.224582730129277
 10
6.762416751198669
 20
-5.19615192600021
 10
6.708562551994646
 20
-5.166983226843791
 10
6.654659807066359
 20
-5.137804818542261
 10
6.490959032065423
 20
-5.067248461125372
 10
6.462751277221539
 20
-5.055621759872211
 10
6.434543784142256
 20
-5.043982922187663
 10
6.443646107440372
 20
-5.06155890209877
 10
6.441087747772043
 20
-5.067449925886118
 10
6.43862162497981
 20
-5.073328813242116
 10
6.429662511568267
 20
-5.088972673278982
 10
6.395195047346103
 20
-5.063799287329819
 10
6.360683891972106
 20
-5.038638037812007
 10
6.175792646568551
 20
-4.966542780897308
 10
6.100602853457151
 20
-4.975776177884161
 10
6.025414983825208
 20
-4.985007147584737
 10
5.936950110512472
 20
-5.021037785038175
 10
5.791218273580474
 20
-4.909737000223458
 10
5.780125575587855
 20
-4.90127305298549
 10
5.730963320633223
 20
-4.858157166897841
 10
5.691614583837072
 20
-4.78159327595242
 10
5.652265847040907
 20
-4.704980839281524
 10
5.599217506859556
 20
-4.762179840331807
 10
5.58940398870109
 20
-4.771270027428486
 10
5.579590470542623
 20
-4.780360214525166
 10
5.54450890290861
 20
-4.86386857150089
 10
5.553846672969358
 20
-4.883648527348921
 10
5.563232988754369
 20
-4.903406637620479
 10
5.588076263142662
 20
-4.931021873561424
 10
5.579636588980671
 20
-4.949901306201759
 10
5.571104677942571
 20
-4.968817148136168
 10
5.556074921712744
 20
-4.996374129206578
 10
5.577029683588092
 20
-5.027853604895969
 10
5.597984684669604
 20
-5.059308807722636
 10
5.678009644614172
 20
-5.13364444986837
 10
5.682750134587827
 20
-5.151824824061729
 10
5.687490624561481
 20
-5.170017334686476
 10
5.679050950399465
 20
-5.205501832728209
 10
5.704035007388105
 20
-5.234206920206272
 10
5.729067610101007
 20
-5.262912007684336
 10
5.790650288606671
 20
-5.299879577639583
 10
5.795674771067234
 20
-5.320229945762017
 10
5.800699253527783
 20
-5.340614295892325
 10
5.80278671967081
 20
-5.355821244399837
 10
5.820707373780124
 20
-5.381077158082335
 10
5.838579482165187
 20
-5.406323362619736
 10
5.879729265331258
 20
-5.431710349761033
 10
5.889637447652022
 20
-5.463568482109218
 10
5.899594175697049
 20
-5.495414478026015
 10
5.891154501535033
 20
-5.530932958075608
 10
5.902579737738821
 20
-5.549339069892451
 10
5.913958855504561
 20
-5.567711199701471
 10
5.951409454482283
 20
-5.639037006867284
 10
5.967861600432835
 20
-5.677778923088933
 10
5.984216654934875
 20
-5.716501421020388
 10
5.998865327229295
 20
-5.742206382663603
 10
6.0344202156748
 20
-5.774989311082221
 10
6.069882867244208
 20
-5.80779651236359
 10
6.07732517808808
 20
-5.813401116370604
 10
6.067843946825456
 20
-5.849089506459387
 10
6.058362966878146
 20
-5.884739059967766
 10
6.052200087183766
 20
-5.904414642505988
 10
6.074196154844407
 20
-5.943489096947208
 10
6.096146104067025
 20
-5.982590251537443
 10
6.104347904180157
 20
-5.993670813378912
 10
6.112122501919859
 20
-6.025825074652529
 10
6.119851233611118
 20
-6.058015745220271
 10
6.145165149135082
 20
-6.081113801405031
 10
6.155976281927021
 20
-6.095160507073539
 10
6.166784987432745
 20
-6.109192649024382
 10
6.179916605844154
 20
-6.123994240724111
 10
6.189256803191104
 20
-6.175894475837922
 10
6.198643118976128
 20
-6.227818983814485
 10
6.199164985511869
 20
-6.264274396365888
 10
6.2057528948532
 20
-6.287789945789831
 10
6.212296603923278
 20
-6.311269085919624
 10
6.210398466104834
 20
-6.321497670278884
 10
6.22391116845165
 20
-6.355096166885636
 10
6.237375325074228
 20
-6.388709227210003
 10
6.241261410300947
 20
-6.417011385166561
 10
6.229646845772574
 20
-6.437432144590957
 10
6.21808082696844
 20
-6.457865040446727
 10
6.201866555066746
 20
-6.468960166005849
 10
6.208456637134582
 20
-6.509041944250839
 10
6.215141383364704
 20
-6.549138286213469
 10
6.186933890285445
 20
-6.569629436939799
 10
6.180389926655658
 20
-6.594909623485036
 10
6.173894508750132
 20
-6.620167964453811
 10
6.074718021380173
 20
-6.752374965947738
 10
6.061537857244527
 20
-6.777490097026353
 10
6.048360120395071
 20
-6.802556682379468
 10
5.997110399297412
 20
-6.865027749217157
 10
5.878355421334795
 20
-6.920163556934413
 10
5.878355421334795
 20
-6.920163556934413
 10
5.887220117096945
 20
-6.964420267570908
 10
5.973786606078344
 20
-7.042192947080871
 10
5.987724083512413
 20
-7.054683762247627
 10
5.992653901810664
 20
-7.08283300116889
 10
5.997064280859377
 20
-7.106608270224164
 10
6.001426114183825
 20
-7.130395675710815
 10
5.987818747674711
 20
-7.152202415597735
 10
5.97222100647107
 20
-7.167669083736604
 10
5.956625692553656
 20
-7.183111479012723
 10
5.887030542259443
 20
-7.20928247962057
 10
5.85441267013146
 20
-7.165037905415424
 10
5.821702561127381
 20
-7.120771485633819
 10
5.798898207157865
 20
-7.003103928921998
 10
5.79998805866742
 20
-6.970818594189571
 10
5.79998805866742
 20
-6.970818594189571
 10
5.676681919055757
 20
-7.097481673833372
 10
5.589260778814529
 20
-7.283487048307506
 10
5.501839875350671
 20
-7.46949242278164
 10
5.462490901777149
 20
-7.585725453305409
 10
5.471831099124111
 20
-7.83930890493808
 10
5.481265960633373
 20
-8.092906920288366
 10
5.531280193048701
 20
-8.191301823983444
 10
5.549674167969518
 20
-8.212042985196048
 10
5.568070570176537
 20
-8.232784146408624
 10
5.660516192878314
 20
-8.404565623316254
 10
5.947853728225115
 20
-8.448691260493938
 10
6.210541675991408
 20
-8.489035185656551
 10
6.321713811825147
 20
-8.306420730107396
 10
6.321713811825147
 20
-8.306420730107396
 10
6.321713811825147
 20
-8.306420730107396
 10
6.423640414474221
 20
-8.177162881436516
 10
6.339396591885613
 20
-7.983761565685072
 10
6.331621994145912
 20
-7.965899165993632
 10
6.283265598213953
 20
-7.873999680368165
 10
6.179632613357247
 20
-7.837282120899165
 10
6.075951082776302
 20
-7.80056456143014
 10
5.988578488259324
 20
-7.850260820607016
 10
5.95795341811207
 20
-7.885519581025265
 10
5.927374466402865
 20
-7.920744359435679
 10
5.892576891255758
 20
-8.00639843747778
 10
5.904334665670691
 20
-8.05135420656125
 10
5.916043894361374
 20
-8.096271139064331
 10
5.9267579357048
 20
-8.167431890763485
 10
5.969614101078504
 20
-8.187520111968297
 10
6.013419335361403
 20
-8.208096217714303
 10
6.088038968116178
 20
-8.211970166607797
 10
6.093065877862955
 20
-8.150588951307174
 10
6.093917855323651
 20
-8.14052784970085
 10
6.103114842784053
 20
-8.101001920012624
 10
6.04044231276882
 20
-8.090227196241687
 10
5.993886963206781
 20
-8.082251133544862
 10
5.992797111697225
 20
-8.066524745774661
 10
5.992797111697225
 20
-8.066524745774661
 97
        0
 97
        0
 75
     2
 76
     1
 98
        0
  0
ENDSEC
  0
SECTION
  2
OBJECTS
  0
DICTIONARY
  5
C
330
0
100
AcDbDictionary
281
     1
  3
ACAD_GROUP
350
D
  3
ACAD_LAYOUT
350
1A
  3
ACAD_MATERIAL
350
3B
  3
ACAD_MLEADERSTYLE
350
44
  3
ACAD_MLINESTYLE
350
17
  3
ACAD_PLOTSETTINGS
350
19
  3
ACAD_PLOTSTYLENAME
350
E
  3
ACAD_TABLESTYLE
350
43
  3
ACAD_VISUALSTYLE
350
2A
  0
SUN
  5
3F
330
29
100
AcDbSun
 90
        1
290
     0
 63
     7
421
 16777215
 40
1.0
291
     1
 91
  2455826
 92
 54000000
292
     0
 70
     2
 71
   256
280
     1
  0
DICTIONARY
  5
D
102
{ACAD_REACTORS
330
C
102
}
330
C
100
AcDbDictionary
281
     1
  0
DICTIONARY
  5
1A
102
{ACAD_REACTORS
330
C
102
}
330
C
100
AcDbDictionary
281
     1
  3
Layout1
350
1E
  3
Layout2
350
26
  3
Model
350
22
  0
DICTIONARY
  5
3B
102
{ACAD_REACTORS
330
C
102
}
330
C
100
AcDbDictionary
281
     1
  3
ByBlock
350
3D
  3
ByLayer
350
3C
  3
Global
350
3E
  0
DICTIONARY
  5
44
102
{ACAD_REACTORS
330
C
102
}
330
C
100
AcDbDictionary
281
     1
  0
DICTIONARY
  5
17
102
{ACAD_REACTORS
330
C
102
}
330
C
100
AcDbDictionary
281
     1
  3
Standard
350
18
  0
DICTIONARY
  5
19
102
{ACAD_REACTORS
330
C
102
}
330
C
100
AcDbDictionary
281
     1
  0
ACDBDICTIONARYWDFLT
  5
E
102
{ACAD_REACTORS
330
C
102
}
330
C
100
AcDbDictionary
281
     1
  3
Normal
350
F
100
AcDbDictionaryWithDefault
340
F
  0
DICTIONARY
  5
43
102
{ACAD_REACTORS
330
C
102
}
330
C
100
AcDbDictionary
281
     1
  0
DICTIONARY
  5
2A
102
{ACAD_REACTORS
330
C
102
}
330
C
100
AcDbDictionary
281
     1
  3
2dWireframe
350
2F
  3
3D Hidden
350
31
  3
3dWireframe
350
30
  3
Basic
350
32
  3
Brighten
350
36
  3
ColorChange
350
3A
  3
Conceptual
350
34
  3
Dim
350
35
  3
Facepattern
350
39
  3
Flat
350
2B
  3
FlatWithEdges
350
2C
  3
Gouraud
350
2D
  3
GouraudWithEdges
350
2E
  3
Linepattern
350
38
  3
Realistic
350
33
  3
Thicken
350
37
  0
LAYOUT
  5
1E
102
{ACAD_REACTORS
330
1A
102
}
330
1A
100
AcDbPlotSettings
  1

  2
none_device
  4

  6

 40
0.0
 41
0.0
 42
0.0
 43
0.0
 44
0.0
 45
0.0
 46
0.0
 47
0.0
 48
0.0
 49
0.0
140
0.0
141
0.0
142
1.0
143
1.0
 70
   688
 72
     0
 73
     0
 74
     5
  7

 75
    16
 76
     0
 77
     2
 78
   300
147
1.0
148
0.0
149
0.0
100
AcDbLayout
  1
Layout1
 70
     1
 71
     1
 10
0.0
 20
0.0
 11
12.0
 21
9.0
 12
0.0
 22
0.0
 32
0.0
 14
1.000000000000000E+20
 24
1.000000000000000E+20
 34
1.000000000000000E+20
 15
-1.000000000000000E+20
 25
-1.000000000000000E+20
 35
-1.000000000000000E+20
146
0.0
 13
0.0
 23
0.0
 33
0.0
 16
1.0
 26
0.0
 36
0.0
 17
0.0
 27
1.0
 37
0.0
 76
     0
330
1B
  0
LAYOUT
  5
26
102
{ACAD_REACTORS
330
1A
102
}
330
1A
100
AcDbPlotSettings
  1

  2
none_device
  4

  6

 40
0.0
 41
0.0
 42
0.0
 43
0.0
 44
0.0
 45
0.0
 46
0.0
 47
0.0
 48
0.0
 49
0.0
140
0.0
141
0.0
142
1.0
143
1.0
 70
   688
 72
     0
 73
     0
 74
     5
  7

 75
    16
 76
     0
 77
     2
 78
   300
147
1.0
148
0.0
149
0.0
100
AcDbLayout
  1
Layout2
 70
     1
 71
     2
 10
0.0
 20
0.0
 11
0.0
 21
0.0
 12
0.0
 22
0.0
 32
0.0
 14
0.0
 24
0.0
 34
0.0
 15
0.0
 25
0.0
 35
0.0
146
0.0
 13
0.0
 23
0.0
 33
0.0
 16
1.0
 26
0.0
 36
0.0
 17
0.0
 27
1.0
 37
0.0
 76
     0
330
23
  0
LAYOUT
  5
22
102
{ACAD_REACTORS
330
1A
102
}
330
1A
100
AcDbPlotSettings
  1

  2
none_device
  4

  6

 40
0.0
 41
0.0
 42
0.0
 43
0.0
 44
0.0
 45
0.0
 46
0.0
 47
0.0
 48
0.0
 49
0.0
140
0.0
141
0.0
142
1.0
143
1.0
 70
  1712
 72
     0
 73
     0
 74
     0
  7

 75
     0
 76
     0
 77
     2
 78
   300
147
1.0
148
0.0
149
0.0
100
AcDbLayout
  1
Model
 70
     1
 71
     0
 10
0.0
 20
0.0
 11
12.0
 21
9.0
 12
0.0
 22
0.0
 32
0.0
 14
1.000000000000000E+20
 24
1.000000000000000E+20
 34
1.000000000000000E+20
 15
-1.000000000000000E+20
 25
-1.000000000000000E+20
 35
-1.000000000000000E+20
146
0.0
 13
0.0
 23
0.0
 33
0.0
 16
1.0
 26
0.0
 36
0.0
 17
0.0
 27
1.0
 37
0.0
 76
     0
330
1F
331
29
  0
MATERIAL
  5
3D
102
{ACAD_REACTORS
330
3B
102
}
330
3B
100
AcDbMaterial
  1
ByBlock
 72
     1
 94
      127
  0
MATERIAL
  5
3C
102
{ACAD_REACTORS
330
3B
102
}
330
3B
100
AcDbMaterial
  1
ByLayer
 72
     1
 94
      127
  0
MATERIAL
  5
3E
102
{ACAD_REACTORS
330
3B
102
}
330
3B
100
AcDbMaterial
  1
Global
 72
     1
 94
      127
  0
MLINESTYLE
  5
18
102
{ACAD_REACTORS
330
17
102
}
330
17
100
AcDbMlineStyle
  2
Standard
 70
     0
  3

 62
   256
 51
90.0
 52
90.0
 71
     2
 49
0.5
 62
   256
  6
BYLAYER
 49
-0.5
 62
   256
  6
BYLAYER
  0
ACDBPLACEHOLDER
  5
F
102
{ACAD_REACTORS
330
E
102
}
330
E
  0
VISUALSTYLE
  5
2F
102
{ACAD_REACTORS
330
2A
102
}
330
2A
100
AcDbVisualStyle
  2
2dWireframe
 70
     4
177
     2
291
     0
 71
     0
176
     1
 72
     2
176
     1
 73
     0
176
     1
 90
        0
176
     1
 40
-0.6
176
     1
 41
-30.0
176
     1
 62
     5
 63
     7
421
 16777215
176
     1
 74
     1
176
     1
 91
        4
176
     1
 64
     7
176
     1
 65
   257
176
     1
 75
     1
176
     1
175
     1
176
     1
 42
1.0
176
     1
 92
        0
176
     1
 66
   257
176
     1
 43
1.0
176
     1
 76
     1
176
     1
 77
     6
176
     1
 78
     2
176
     1
 67
     7
176
     1
 79
     5
176
     1
170
     0
176
     1
171
     0
176
     1
290
     0
176
     1
 93
        1
176
     1
 44
0.0
176
     1
173
     0
176
     1
  0
VISUALSTYLE
  5
31
102
{ACAD_REACTORS
330
2A
102
}
330
2A
100
AcDbVisualStyle
  2
3D Hidden
 70
     6
177
     2
291
     0
 71
     1
176
     1
 72
     2
176
     1
 73
     2
176
     1
 90
        0
176
     1
 40
-0.6
176
     1
 41
-30.0
176
     1
 62
     5
 63
     7
421
 16777215
176
     1
 74
     2
176
     1
 91
        2
176
     1
 64
     7
176
     1
 65
   257
176
     1
 75
     2
176
     1
175
     1
176
     1
 42
40.0
176
     1
 92
        0
176
     1
 66
   257
176
     1
 43
1.0
176
     1
 76
     1
176
     1
 77
     6
176
     1
 78
     2
176
     1
 67
     7
176
     1
 79
     3
176
     1
170
     0
176
     1
171
     0
176
     1
290
     0
176
     1
 93
        1
176
     1
 44
0.0
176
     1
173
     0
176
     1
  0
VISUALSTYLE
  5
30
102
{ACAD_REACTORS
330
2A
102
}
330
2A
100
AcDbVisualStyle
  2
3dWireframe
 70
     5
177
     2
291
     0
 71
     0
176
     1
 72
     2
176
     1
 73
     0
176
     1
 90
        0
176
     1
 40
-0.6
176
     1
 41
-30.0
176
     1
 62
     5
 63
     7
421
 16777215
176
     1
 74
     1
176
     1
 91
        4
176
     1
 64
     7
176
     1
 65
   257
176
     1
 75
     1
176
     1
175
     1
176
     1
 42
1.0
176
     1
 92
        0
176
     1
 66
   257
176
     1
 43
1.0
176
     1
 76
     1
176
     1
 77
     6
176
     1
 78
     2
176
     1
 67
     7
176
     1
 79
     5
176
     1
170
     0
176
     1
171
     0
176
     1
290
     0
176
     1
 93
        1
176
     1
 44
0.0
176
     1
173
     0
176
     1
  0
VISUALSTYLE
  5
32
102
{ACAD_REACTORS
330
2A
102
}
330
2A
100
AcDbVisualStyle
  2
Basic
 70
     7
177
     2
291
     1
 71
     1
176
     1
 72
     0
176
     1
 73
     1
176
     1
 90
        0
176
     1
 40
-0.6
176
     1
 41
-30.0
176
     1
 62
     5
 63
     7
421
 16777215
176
     1
 74
     0
176
     1
 91
        4
176
     1
 64
     7
176
     1
 65
   257
176
     1
 75
     1
176
     1
175
     1
176
     1
 42
1.0
176
     1
 92
        8
176
     1
 66
     7
176
     1
 43
1.0
176
     1
 76
     1
176
     1
 77
     6
176
     1
 78
     2
176
     1
 67
     7
176
     1
 79
     5
176
     1
170
     0
176
     1
171
     0
176
     1
290
     0
176
     1
 93
        1
176
     1
 44
0.0
176
     1
173
     0
176
     1
  0
VISUALSTYLE
  5
36
102
{ACAD_REACTORS
330
2A
102
}
330
2A
100
AcDbVisualStyle
  2
Brighten
 70
    12
177
     2
291
     1
 71
     2
176
     1
 72
     2
176
     1
 73
     0
176
     1
 90
        0
176
     1
 40
-0.6
176
     1
 41
-30.0
176
     1
 62
     5
 63
     7
421
 16777215
176
     1
 74
     1
176
     1
 91
        4
176
     1
 64
     7
176
     1
 65
   257
176
     1
 75
     1
176
     1
175
     1
176
     1
 42
1.0
176
     1
 92
        8
176
     1
 66
     7
176
     1
 43
1.0
176
     1
 76
     1
176
     1
 77
     6
176
     1
 78
     2
176
     1
 67
     7
176
     1
 79
     5
176
     1
170
     0
176
     1
171
     0
176
     1
290
     0
176
     1
 93
        1
176
     1
 44
50.0
176
     1
173
     0
176
     1
  0
VISUALSTYLE
  5
3A
102
{ACAD_REACTORS
330
2A
102
}
330
2A
100
AcDbVisualStyle
  2
ColorChange
 70
    16
177
     2
291
     1
 71
     2
176
     1
 72
     2
176
     1
 73
     3
176
     1
 90
        0
176
     1
 40
-0.6
176
     1
 41
-30.0
176
     1
 62
     5
 63
     8
421
  8421504
176
     1
 74
     1
176
     1
 91
        4
176
     1
 64
     7
176
     1
 65
   257
176
     1
 75
     1
176
     1
175
     1
176
     1
 42
1.0
176
     1
 92
        8
176
     1
 66
     8
424
  8421504
176
     1
 43
1.0
176
     1
 76
     1
176
     1
 77
     6
176
     1
 78
     2
176
     1
 67
     7
176
     1
 79
     5
176
     1
170
     0
176
     1
171
     0
176
     1
290
     0
176
     1
 93
        1
176
     1
 44
0.0
176
     1
173
     0
176
     1
  0
VISUALSTYLE
  5
34
102
{ACAD_REACTORS
330
2A
102
}
330
2A
100
AcDbVisualStyle
  2
Conceptual
 70
     9
177
     2
291
     0
 71
     3
176
     1
 72
     2
176
     1
 73
     0
176
     1
 90
        0
176
     1
 40
-0.6
176
     1
 41
-30.0
176
     1
 62
     5
 63
     7
421
 16777215
176
     1
 74
     2
176
     1
 91
        2
176
     1
 64
     7
176
     1
 65
   257
176
     1
 75
     1
176
     1
175
     1
176
     1
 42
40.0
176
     1
 92
        8
176
     1
 66
     7
176
     1
 43
1.0
176
     1
 76
     1
176
     1
 77
     6
176
     1
 78
     2
176
     1
 67
     7
176
     1
 79
     3
176
     1
170
     0
176
     1
171
     0
176
     1
290
     0
176
     1
 93
        1
176
     1
 44
0.0
176
     1
173
     0
176
     1
  0
VISUALSTYLE
  5
35
102
{ACAD_REACTORS
330
2A
102
}
330
2A
100
AcDbVisualStyle
  2
Dim
 70
    11
177
     2
291
     1
 71
     2
176
     1
 72
     2
176
     1
 73
     0
176
     1
 90
        0
176
     1
 40
-0.6
176
     1
 41
-30.0
176
     1
 62
     5
 63
     7
421
 16777215
176
     1
 74
     1
176
     1
 91
        4
176
     1
 64
     7
176
     1
 65
   257
176
     1
 75
     1
176
     1
175
     1
176
     1
 42
1.0
176
     1
 92
        8
176
     1
 66
     7
176
     1
 43
1.0
176
     1
 76
     1
176
     1
 77
     6
176
     1
 78
     2
176
     1
 67
     7
176
     1
 79
     5
176
     1
170
     0
176
     1
171
     0
176
     1
290
     0
176
     1
 93
        1
176
     1
 44
-50.0
176
     1
173
     0
176
     1
  0
VISUALSTYLE
  5
39
102
{ACAD_REACTORS
330
2A
102
}
330
2A
100
AcDbVisualStyle
  2
Facepattern
 70
    15
177
     2
291
     1
 71
     2
176
     1
 72
     2
176
     1
 73
     0
176
     1
 90
        0
176
     1
 40
-0.6
176
     1
 41
-30.0
176
     1
 62
     5
 63
     7
421
 16777215
176
     1
 74
     1
176
     1
 91
        4
176
     1
 64
     7
176
     1
 65
   257
176
     1
 75
     1
176
     1
175
     1
176
     1
 42
1.0
176
     1
 92
        8
176
     1
 66
     7
176
     1
 43
1.0
176
     1
 76
     1
176
     1
 77
     6
176
     1
 78
     2
176
     1
 67
     7
176
     1
 79
     5
176
     1
170
     0
176
     1
171
     0
176
     1
290
     0
176
     1
 93
        1
176
     1
 44
0.0
176
     1
173
     0
176
     1
  0
VISUALSTYLE
  5
2B
102
{ACAD_REACTORS
330
2A
102
}
330
2A
100
AcDbVisualStyle
  2
Flat
 70
     0
177
     2
291
     1
 71
     2
176
     1
 72
     1
176
     1
 73
     1
176
     1
 90
        2
176
     1
 40
-0.6
176
     1
 41
30.0
176
     1
 62
     5
 63
     7
421
 16777215
176
     1
 74
     0
176
     1
 91
        4
176
     1
 64
     7
176
     1
 65
   257
176
     1
 75
     1
176
     1
175
     1
176
     1
 42
1.0
176
     1
 92
        8
176
     1
 66
     7
176
     1
 43
1.0
176
     1
 76
     1
176
     1
 77
     6
176
     1
 78
     2
176
     1
 67
     7
176
     1
 79
     5
176
     1
170
     0
176
     1
171
     0
176
     1
290
     0
176
     1
 93
       13
176
     1
 44
0.0
176
     1
173
     0
176
     1
  0
VISUALSTYLE
  5
2C
102
{ACAD_REACTORS
330
2A
102
}
330
2A
100
AcDbVisualStyle
  2
FlatWithEdges
 70
     1
177
     2
291
     1
 71
     2
176
     1
 72
     1
176
     1
 73
     1
176
     1
 90
        2
176
     1
 40
-0.6
176
     1
 41
30.0
176
     1
 62
     5
 63
     7
421
 16777215
176
     1
 74
     1
176
     1
 91
        4
176
     1
 64
     7
176
     1
 65
   257
176
     1
 75
     1
176
     1
175
     1
176
     1
 42
1.0
176
     1
 92
        0
176
     1
 66
   257
176
     1
 43
1.0
176
     1
 76
     1
176
     1
 77
     6
176
     1
 78
     2
176
     1
 67
     7
176
     1
 79
     5
176
     1
170
     0
176
     1
171
     0
176
     1
290
     0
176
     1
 93
       13
176
     1
 44
0.0
176
     1
173
     0
176
     1
  0
VISUALSTYLE
  5
2D
102
{ACAD_REACTORS
330
2A
102
}
330
2A
100
AcDbVisualStyle
  2
Gouraud
 70
     2
177
     2
291
     1
 71
     2
176
     1
 72
     2
176
     1
 73
     1
176
     1
 90
        2
176
     1
 40
-0.6
176
     1
 41
30.0
176
     1
 62
     5
 63
     7
421
 16777215
176
     1
 74
     0
176
     1
 91
        4
176
     1
 64
     7
176
     1
 65
   257
176
     1
 75
     1
176
     1
175
     1
176
     1
 42
1.0
176
     1
 92
        0
176
     1
 66
     7
176
     1
 43
1.0
176
     1
 76
     1
176
     1
 77
     6
176
     1
 78
     2
176
     1
 67
     7
176
     1
 79
     5
176
     1
170
     0
176
     1
171
     0
176
     1
290
     0
176
     1
 93
       13
176
     1
 44
0.0
176
     1
173
     0
176
     1
  0
VISUALSTYLE
  5
2E
102
{ACAD_REACTORS
330
2A
102
}
330
2A
100
AcDbVisualStyle
  2
GouraudWithEdges
 70
     3
177
     2
291
     1
 71
     2
176
     1
 72
     2
176
     1
 73
     1
176
     1
 90
        2
176
     1
 40
-0.6
176
     1
 41
30.0
176
     1
 62
     5
 63
     7
421
 16777215
176
     1
 74
     1
176
     1
 91
        4
176
     1
 64
     7
176
     1
 65
   257
176
     1
 75
     1
176
     1
175
     1
176
     1
 42
1.0
176
     1
 92
        0
176
     1
 66
   257
176
     1
 43
1.0
176
     1
 76
     1
176
     1
 77
     6
176
     1
 78
     2
176
     1
 67
     7
176
     1
 79
     5
176
     1
170
     0
176
     1
171
     0
176
     1
290
     0
176
     1
 93
       13
176
     1
 44
0.0
176
     1
173
     0
176
     1
  0
VISUALSTYLE
  5
38
102
{ACAD_REACTORS
330
2A
102
}
330
2A
100
AcDbVisualStyle
  2
Linepattern
 70
    14
177
     2
291
     1
 71
     2
176
     1
 72
     2
176
     1
 73
     0
176
     1
 90
        0
176
     1
 40
-0.6
176
     1
 41
-30.0
176
     1
 62
     5
 63
     7
421
 16777215
176
     1
 74
     1
176
     1
 91
        4
176
     1
 64
     7
176
     1
 65
   257
176
     1
 75
     7
176
     1
175
     7
176
     1
 42
1.0
176
     1
 92
        8
176
     1
 66
     7
176
     1
 43
1.0
176
     1
 76
     1
176
     1
 77
     6
176
     1
 78
     2
176
     1
 67
     7
176
     1
 79
     5
176
     1
170
     0
176
     1
171
     0
176
     1
290
     0
176
     1
 93
        1
176
     1
 44
0.0
176
     1
173
     0
176
     1
  0
VISUALSTYLE
  5
33
102
{ACAD_REACTORS
330
2A
102
}
330
2A
100
AcDbVisualStyle
  2
Realistic
 70
     8
177
     2
291
     0
 71
     2
176
     1
 72
     2
176
     1
 73
     0
176
     1
 90
        0
176
     1
 40
-0.6
176
     1
 41
-30.0
176
     1
 62
     5
 63
     7
421
 16777215
176
     1
 74
     1
176
     1
 91
        0
176
     1
 64
     7
176
     1
 65
   257
176
     1
 75
     1
176
     1
175
     1
176
     1
 42
1.0
176
     1
 92
        8
176
     1
 66
     8
424
  7895160
176
     1
 43
1.0
176
     1
 76
     1
176
     1
 77
     6
176
     1
 78
     2
176
     1
 67
     7
176
     1
 79
     5
176
     1
170
     0
176
     1
171
     0
176
     1
290
     0
176
     1
 93
       13
176
     1
 44
0.0
176
     1
173
     0
176
     1
  0
VISUALSTYLE
  5
37
102
{ACAD_REACTORS
330
2A
102
}
330
2A
100
AcDbVisualStyle
  2
Thicken
 70
    13
177
     2
291
     1
 71
     2
176
     1
 72
     2
176
     1
 73
     0
176
     1
 90
        0
176
     1
 40
-0.6
176
     1
 41
-30.0
176
     1
 62
     5
 63
     7
421
 16777215
176
     1
 74
     1
176
     1
 91
        4
176
     1
 64
     7
176
     1
 65
   257
176
     1
 75
     1
176
     1
175
     1
176
     1
 42
1.0
176
     1
 92
       12
176
     1
 66
     7
176
     1
 43
1.0
176
     1
 76
     1
176
     1
 77
     6
176
     1
 78
     2
176
     1
 67
     7
176
     1
 79
     5
176
     1
170
     0
176
     1
171
     0
176
     1
290
     0
176
     1
 93
        1
176
     1
 44
0.0
176
     1
173
     0
176
     1
  0
ENDSEC
  0
EOF
