  0
SECTION
  2
HEADER
  9
$ACADVER
  1
AC1024
  9
$ACADMAINTVER
 70
     6
  9
$DWGCODEPAGE
  3
ANSI_1252
  9
$INSBASE
 10
0.0
 20
0.0
 30
0.0
  9
$EXTMIN
 10
1.000000000000000E+20
 20
1.000000000000000E+20
 30
1.000000000000000E+20
  9
$EXTMAX
 10
-1.000000000000000E+20
 20
-1.000000000000000E+20
 30
-1.000000000000000E+20
  9
$LIMMIN
 10
0.0
 20
0.0
  9
$LIMMAX
 10
12.0
 20
9.0
  9
$ORTHOMODE
 70
     0
  9
$REGENMODE
 70
     1
  9
$FILLMODE
 70
     1
  9
$QTEXTMODE
 70
     0
  9
$MIRRTEXT
 70
     1
  9
$LTSCALE
 40
1.0
  9
$ATTMODE
 70
     1
  9
$TEXTSIZE
 40
0.2
  9
$TRACEWID
 40
0.05
  9
$TEXTSTYLE
  7
Standard
  9
$CLAYER
  8
0
  9
$CELTYPE
  6
ByLayer
  9
$CECOLOR
 62
   256
  9
$CELTSCALE
 40
1.0
  9
$DISPSILH
 70
     0
  9
$DIMSCALE
 40
1.0
  9
$DIMASZ
 40
0.18
  9
$DIMEXO
 40
0.0625
  9
$DIMDLI
 40
0.38
  9
$DIMRND
 40
0.0
  9
$DIMDLE
 40
0.0
  9
$DIMEXE
 40
0.18
  9
$DIMTP
 40
0.0
  9
$DIMTM
 40
0.0
  9
$DIMTXT
 40
0.18
  9
$DIMCEN
 40
0.09
  9
$DIMTSZ
 40
0.0
  9
$DIMTOL
 70
     0
  9
$DIMLIM
 70
     0
  9
$DIMTIH
 70
     1
  9
$DIMTOH
 70
     1
  9
$DIMSE1
 70
     0
  9
$DIMSE2
 70
     0
  9
$DIMTAD
 70
     0
  9
$DIMZIN
 70
     0
  9
$DIMBLK
  1

  9
$DIMASO
 70
     1
  9
$DIMSHO
 70
     1
  9
$DIMPOST
  1

  9
$DIMAPOST
  1

  9
$DIMALT
 70
     0
  9
$DIMALTD
 70
     2
  9
$DIMALTF
 40
25.4
  9
$DIMLFAC
 40
1.0
  9
$DIMTOFL
 70
     0
  9
$DIMTVP
 40
0.0
  9
$DIMTIX
 70
     0
  9
$DIMSOXD
 70
     0
  9
$DIMSAH
 70
     0
  9
$DIMBLK1
  1

  9
$DIMBLK2
  1

  9
$DIMSTYLE
  2
Standard
  9
$DIMCLRD
 70
     0
  9
$DIMCLRE
 70
     0
  9
$DIMCLRT
 70
     0
  9
$DIMTFAC
 40
1.0
  9
$DIMGAP
 40
0.09
  9
$DIMJUST
 70
     0
  9
$DIMSD1
 70
     0
  9
$DIMSD2
 70
     0
  9
$DIMTOLJ
 70
     1
  9
$DIMTZIN
 70
     0
  9
$DIMALTZ
 70
     0
  9
$DIMALTTZ
 70
     0
  9
$DIMUPT
 70
     0
  9
$DIMDEC
 70
     4
  9
$DIMTDEC
 70
     4
  9
$DIMALTU
 70
     2
  9
$DIMALTTD
 70
     2
  9
$DIMTXSTY
  7
Standard
  9
$DIMAUNIT
 70
     0
  9
$DIMADEC
 70
     0
  9
$DIMALTRND
 40
0.0
  9
$DIMAZIN
 70
     0
  9
$DIMDSEP
 70
    46
  9
$DIMATFIT
 70
     3
  9
$DIMFRAC
 70
     0
  9
$DIMLDRBLK
  1

  9
$DIMLUNIT
 70
     2
  9
$DIMLWD
 70
    -2
  9
$DIMLWE
 70
    -2
  9
$DIMTMOVE
 70
     0
  9
$DIMFXL
 40
1.0
  9
$DIMFXLON
 70
     0
  9
$DIMJOGANG
 40
0.7853981633974483
  9
$DIMTFILL
 70
     0
  9
$DIMTFILLCLR
 70
     0
  9
$DIMARCSYM
 70
     0
  9
$DIMLTYPE
  6

  9
$DIMLTEX1
  6

  9
$DIMLTEX2
  6

  9
$DIMTXTDIRECTION
 70
     0
  9
$LUNITS
 70
     2
  9
$LUPREC
 70
     4
  9
$SKETCHINC
 40
0.1
  9
$FILLETRAD
 40
0.5
  9
$AUNITS
 70
     0
  9
$AUPREC
 70
     0
  9
$MENU
  1
.
  9
$ELEVATION
 40
0.0
  9
$PELEVATION
 40
0.0
  9
$THICKNESS
 40
0.0
  9
$LIMCHECK
 70
     0
  9
$CHAMFERA
 40
0.5
  9
$CHAMFERB
 40
0.5
  9
$CHAMFERC
 40
1.0
  9
$CHAMFERD
 40
0.0
  9
$SKPOLY
 70
     0
  9
$TDCREATE
 40
2458164.583507917
  9
$TDUCREATE
 40
2458164.54184125
  9
$TDUPDATE
 40
2458164.58350794
  9
$TDUUPDATE
 40
2458164.541841273
  9
$TDINDWG
 40
0.0000000116
  9
$TDUSRTIMER
 40
0.0000000116
  9
$USRTIMER
 70
     1
  9
$ANGBASE
 50
0.0
  9
$ANGDIR
 70
     0
  9
$PDMODE
 70
     0
  9
$PDSIZE
 40
0.0
  9
$PLINEWID
 40
0.0
  9
$SPLFRAME
 70
     0
  9
$SPLINETYPE
 70
     6
  9
$SPLINESEGS
 70
     8
  9
$HANDSEED
  5
4A
  9
$SURFTAB1
 70
     6
  9
$SURFTAB2
 70
     6
  9
$SURFTYPE
 70
     6
  9
$SURFU
 70
     6
  9
$SURFV
 70
     6
  9
$UCSBASE
  2

  9
$UCSNAME
  2

  9
$UCSORG
 10
0.0
 20
0.0
 30
0.0
  9
$UCSXDIR
 10
1.0
 20
0.0
 30
0.0
  9
$UCSYDIR
 10
0.0
 20
1.0
 30
0.0
  9
$UCSORTHOREF
  2

  9
$UCSORTHOVIEW
 70
     0
  9
$UCSORGTOP
 10
0.0
 20
0.0
 30
0.0
  9
$UCSORGBOTTOM
 10
0.0
 20
0.0
 30
0.0
  9
$UCSORGLEFT
 10
0.0
 20
0.0
 30
0.0
  9
$UCSORGRIGHT
 10
0.0
 20
0.0
 30
0.0
  9
$UCSORGFRONT
 10
0.0
 20
0.0
 30
0.0
  9
$UCSORGBACK
 10
0.0
 20
0.0
 30
0.0
  9
$PUCSBASE
  2

  9
$PUCSNAME
  2

  9
$PUCSORG
 10
0.0
 20
0.0
 30
0.0
  9
$PUCSXDIR
 10
1.0
 20
0.0
 30
0.0
  9
$PUCSYDIR
 10
0.0
 20
1.0
 30
0.0
  9
$PUCSORTHOREF
  2

  9
$PUCSORTHOVIEW
 70
     0
  9
$PUCSORGTOP
 10
0.0
 20
0.0
 30
0.0
  9
$PUCSORGBOTTOM
 10
0.0
 20
0.0
 30
0.0
  9
$PUCSORGLEFT
 10
0.0
 20
0.0
 30
0.0
  9
$PUCSORGRIGHT
 10
0.0
 20
0.0
 30
0.0
  9
$PUCSORGFRONT
 10
0.0
 20
0.0
 30
0.0
  9
$PUCSORGBACK
 10
0.0
 20
0.0
 30
0.0
  9
$USERI1
 70
     0
  9
$USERI2
 70
     0
  9
$USERI3
 70
     0
  9
$USERI4
 70
     0
  9
$USERI5
 70
     0
  9
$USERR1
 40
0.0
  9
$USERR2
 40
0.0
  9
$USERR3
 40
0.0
  9
$USERR4
 40
0.0
  9
$USERR5
 40
0.0
  9
$WORLDVIEW
 70
     1
  9
$SHADEDGE
 70
     3
  9
$SHADEDIF
 70
    70
  9
$TILEMODE
 70
     1
  9
$MAXACTVP
 70
    64
  9
$PINSBASE
 10
0.0
 20
0.0
 30
0.0
  9
$PLIMCHECK
 70
     0
  9
$PEXTMIN
 10
1.000000000000000E+20
 20
1.000000000000000E+20
 30
1.000000000000000E+20
  9
$PEXTMAX
 10
-1.000000000000000E+20
 20
-1.000000000000000E+20
 30
-1.000000000000000E+20
  9
$PLIMMIN
 10
0.0
 20
0.0
  9
$PLIMMAX
 10
12.0
 20
9.0
  9
$UNITMODE
 70
     0
  9
$VISRETAIN
 70
     1
  9
$PLINEGEN
 70
     0
  9
$PSLTSCALE
 70
     1
  9
$TREEDEPTH
 70
  3020
  9
$CMLSTYLE
  2
Standard
  9
$CMLJUST
 70
     0
  9
$CMLSCALE
 40
1.0
  9
$PROXYGRAPHICS
 70
     1
  9
$MEASUREMENT
 70
     0
  9
$CELWEIGHT
370
    -1
  9
$ENDCAPS
280
     0
  9
$JOINSTYLE
280
     0
  9
$LWDISPLAY
290
     1
  9
$INSUNITS
 70
     1
  9
$HYPERLINKBASE
  1

  9
$STYLESHEET
  1

  9
$XEDIT
290
     1
  9
$CEPSNTYPE
380
     0
  9
$PSTYLEMODE
290
     1
  9
$FINGERPRINTGUID
  2
{B31E0F44-FE2F-4F32-A696-6DC0F10A0AC3}
  9
$VERSIONGUID
  2
{FAEB1C32-E019-11D5-929B-00C0DF256EC4}
  9
$EXTNAMES
290
     1
  9
$PSVPSCALE
 40
0.0
  9
$OLESTARTUP
290
     0
  9
$SORTENTS
280
   127
  9
$INDEXCTL
280
     0
  9
$HIDETEXT
280
     1
  9
$XCLIPFRAME
280
     2
  9
$HALOGAP
280
     0
  9
$OBSCOLOR
 70
   257
  9
$OBSLTYPE
280
     0
  9
$INTERSECTIONDISPLAY
280
     0
  9
$INTERSECTIONCOLOR
 70
   257
  9
$DIMASSOC
280
     2
  9
$PROJECTNAME
  1

  9
$CAMERADISPLAY
290
     0
  9
$LENSLENGTH
 40
50.0
  9
$CAMERAHEIGHT
 40
0.0
  9
$STEPSPERSEC
 40
2.0
  9
$STEPSIZE
 40
6.0
  9
$3DDWFPREC
 40
2.0
  9
$PSOLWIDTH
 40
0.25
  9
$PSOLHEIGHT
 40
4.0
  9
$LOFTANG1
 40
1.570796326794897
  9
$LOFTANG2
 40
1.570796326794897
  9
$LOFTMAG1
 40
0.0
  9
$LOFTMAG2
 40
0.0
  9
$LOFTPARAM
 70
     7
  9
$LOFTNORMALS
280
     1
  9
$LATITUDE
 40
37.795
  9
$LONGITUDE
 40
-122.394
  9
$NORTHDIRECTION
 40
0.0
  9
$TIMEZONE
 70
 -8000
  9
$LIGHTGLYPHDISPLAY
280
     1
  9
$TILEMODELIGHTSYNCH
280
     1
  9
$CMATERIAL
347
3C
  9
$SOLIDHIST
280
     1
  9
$SHOWHIST
280
     1
  9
$DWFFRAME
280
     2
  9
$DGNFRAME
280
     2
  9
$REALWORLDSCALE
290
     1
  9
$INTERFERECOLOR
 62
   256
  9
$CSHADOW
280
     0
  9
$SHADOWPLANELOCATION
 40
0.0
  0
ENDSEC
  0
SECTION
  2
CLASSES
  0
CLASS
  1
ACDBDICTIONARYWDFLT
  2
AcDbDictionaryWithDefault
  3
ObjectDBX Classes
 90
        0
 91
        4
280
     0
281
     0
  0
CLASS
  1
VISUALSTYLE
  2
AcDbVisualStyle
  3
ObjectDBX Classes
 90
     4095
 91
        4
280
     0
281
     0
  0
CLASS
  1
MATERIAL
  2
AcDbMaterial
  3
ObjectDBX Classes
 90
     1153
 91
        4
280
     0
281
     0
  0
CLASS
  1
SUN
  2
AcDbSun
  3
SCENEOE
 90
     1024
 91
        4
280
     0
281
     0
  0
ENDSEC
  0
SECTION
  2
TABLES
  0
TABLE
  2
VPORT
  5
8
330
0
100
AcDbSymbolTable
 70
     1
  0
VPORT
  5
29
330
8
100
AcDbSymbolTableRecord
100
AcDbViewportTableRecord
  2
*Active
 70
     0
 10
0.0
 20
0.0
 11
1.0
 21
1.0
 12
0.0
 22
0.0
 13
0.0
 23
0.0
 14
0.5
 24
0.5
 15
0.5
 25
0.5
 16
0.0
 26
0.0
 36
1.0
 17
6.0
 27
-6.0
 37
0.0
 40
12.0
 41
1.0
 42
50.0
 43
0.0
 44
0.0
 50
0.0
 51
0.0
 71
     0
 72
   100
 73
     1
 74
     3
 75
     0
 76
     0
 77
     0
 78
     0
281
     0
 65
     1
110
0.0
120
0.0
130
0.0
111
1.0
121
0.0
131
0.0
112
0.0
122
1.0
132
0.0
 79
     0
146
0.0
 60
     3
 61
     5
292
     1
282
     1
141
0.0
142
0.0
 63
   250
361
3F
  0
ENDTAB
  0
TABLE
  2
LTYPE
  5
5
330
0
100
AcDbSymbolTable
 70
     1
  0
LTYPE
  5
14
330
5
100
AcDbSymbolTableRecord
100
AcDbLinetypeTableRecord
  2
ByBlock
 70
     0
  3

 72
    65
 73
     0
 40
0.0
  0
LTYPE
  5
15
330
5
100
AcDbSymbolTableRecord
100
AcDbLinetypeTableRecord
  2
ByLayer
 70
     0
  3

 72
    65
 73
     0
 40
0.0
  0
LTYPE
  5
16
330
5
100
AcDbSymbolTableRecord
100
AcDbLinetypeTableRecord
  2
Continuous
 70
     0
  3
Solid line
 72
    65
 73
     0
 40
0.0
  0
ENDTAB
  0
TABLE
  2
LAYER
  5
2
330
0
100
AcDbSymbolTable
 70
     2
  0
LAYER
  5
10
330
2
100
AcDbSymbolTableRecord
100
AcDbLayerTableRecord
  2
0
 70
     0
 62
     7
  6
Continuous
370
    -3
390
F
347
3E
  0
LAYER
  5
40
330
2
100
AcDbSymbolTableRecord
100
AcDbLayerTableRecord
  2
Layer 1
 70
     0
 62
     7
  6
Continuous
370
    -3
390
F
347
3E
  0
ENDTAB
  0
TABLE
  2
STYLE
  5
3
330
0
100
AcDbSymbolTable
 70
     1
  0
STYLE
  5
11
330
3
100
AcDbSymbolTableRecord
100
AcDbTextStyleTableRecord
  2
Standard
 70
     0
 40
0.0
 41
1.0
 50
0.0
 71
     0
 42
0.2
  3
txt
  4

  0
ENDTAB
  0
TABLE
  2
VIEW
  5
6
330
0
100
AcDbSymbolTable
 70
     0
  0
ENDTAB
  0
TABLE
  2
UCS
  5
7
330
0
100
AcDbSymbolTable
 70
     0
  0
ENDTAB
  0
TABLE
  2
APPID
  5
9
330
0
100
AcDbSymbolTable
 70
     1
  0
APPID
  5
12
330
9
100
AcDbSymbolTableRecord
100
AcDbRegAppTableRecord
  2
ACAD
 70
     0
  0
ENDTAB
  0
TABLE
  2
DIMSTYLE
  5
A
330
0
100
AcDbSymbolTable
 70
     1
100
AcDbDimStyleTable
  0
DIMSTYLE
105
27
330
A
100
AcDbSymbolTableRecord
100
AcDbDimStyleTableRecord
  2
Standard
 70
     0
178
     0
340
11
  0
ENDTAB
  0
TABLE
  2
BLOCK_RECORD
  5
1
330
0
100
AcDbSymbolTable
 70
     1
  0
BLOCK_RECORD
  5
1F
330
1
100
AcDbSymbolTableRecord
100
AcDbBlockTableRecord
  2
*Model_Space
340
22
 70
     0
280
     1
281
     0
  0
BLOCK_RECORD
  5
1B
330
1
100
AcDbSymbolTableRecord
100
AcDbBlockTableRecord
  2
*Paper_Space
340
1E
 70
     0
280
     1
281
     0
  0
BLOCK_RECORD
  5
23
330
1
100
AcDbSymbolTableRecord
100
AcDbBlockTableRecord
  2
*Paper_Space0
340
26
 70
     0
280
     1
281
     0
  0
ENDTAB
  0
ENDSEC
  0
SECTION
  2
BLOCKS
  0
BLOCK
  5
20
330
1F
100
AcDbEntity
  8
0
100
AcDbBlockBegin
  2
*Model_Space
 70
     0
 10
0.0
 20
0.0
 30
0.0
  3
*Model_Space
  1

  0
ENDBLK
  5
21
330
1F
100
AcDbEntity
  8
0
100
AcDbBlockEnd
  0
BLOCK
  5
1C
330
1B
100
AcDbEntity
 67
     1
  8
0
100
AcDbBlockBegin
  2
*Paper_Space
 70
     0
 10
0.0
 20
0.0
 30
0.0
  3
*Paper_Space
  1

  0
ENDBLK
  5
1D
330
1B
100
AcDbEntity
 67
     1
  8
0
100
AcDbBlockEnd
  0
BLOCK
  5
24
330
23
100
AcDbEntity
  8
0
100
AcDbBlockBegin
  2
*Paper_Space0
 70
     0
 10
0.0
 20
0.0
 30
0.0
  3
*Paper_Space0
  1

  0
ENDBLK
  5
25
330
23
100
AcDbEntity
  8
0
100
AcDbBlockEnd
  0
ENDSEC
  0
SECTION
  2
ENTITIES
  0
SPLINE
  5
41
330
1F
100
AcDbEntity
  8
Layer 1
 62
     7
420
 16777215
370
    18
100
AcDbSpline
210
0.0
220
0.0
230
1.0
 70
    11
 71
     3
 72
   800
 73
   796
 74
     0
 42
0.0000000001
 43
0.0000000001
 12
1.0
 22
0.0
 32
0.0
 13
1.0
 23
0.0
 33
0.0
 40
0.0
 40
0.0
 40
0.0
 40
0.0
 40
1.0
 40
1.0
 40
1.0
 40
2.0
 40
2.0
 40
2.0
 40
3.0
 40
3.0
 40
3.0
 40
4.0
 40
4.0
 40
4.0
 40
5.0
 40
5.0
 40
5.0
 40
6.0
 40
6.0
 40
6.0
 40
7.0
 40
7.0
 40
7.0
 40
8.0
 40
8.0
 40
8.0
 40
9.0
 40
9.0
 40
9.0
 40
10.0
 40
10.0
 40
10.0
 40
11.0
 40
11.0
 40
11.0
 40
12.0
 40
12.0
 40
12.0
 40
13.0
 40
13.0
 40
13.0
 40
14.0
 40
14.0
 40
14.0
 40
15.0
 40
15.0
 40
15.0
 40
16.0
 40
16.0
 40
16.0
 40
17.0
 40
17.0
 40
17.0
 40
18.0
 40
18.0
 40
18.0
 40
19.0
 40
19.0
 40
19.0
 40
20.0
 40
20.0
 40
20.0
 40
21.0
 40
21.0
 40
21.0
 40
22.0
 40
22.0
 40
22.0
 40
23.0
 40
23.0
 40
23.0
 40
24.0
 40
24.0
 40
24.0
 40
25.0
 40
25.0
 40
25.0
 40
26.0
 40
26.0
 40
26.0
 40
27.0
 40
27.0
 40
27.0
 40
28.0
 40
28.0
 40
28.0
 40
29.0
 40
29.0
 40
29.0
 40
30.0
 40
30.0
 40
30.0
 40
31.0
 40
31.0
 40
31.0
 40
32.0
 40
32.0
 40
32.0
 40
33.0
 40
33.0
 40
33.0
 40
34.0
 40
34.0
 40
34.0
 40
35.0
 40
35.0
 40
35.0
 40
36.0
 40
36.0
 40
36.0
 40
37.0
 40
37.0
 40
37.0
 40
38.0
 40
38.0
 40
38.0
 40
39.0
 40
39.0
 40
39.0
 40
40.0
 40
40.0
 40
40.0
 40
41.0
 40
41.0
 40
41.0
 40
42.0
 40
42.0
 40
42.0
 40
43.0
 40
43.0
 40
43.0
 40
44.0
 40
44.0
 40
44.0
 40
45.0
 40
45.0
 40
45.0
 40
46.0
 40
46.0
 40
46.0
 40
47.0
 40
47.0
 40
47.0
 40
48.0
 40
48.0
 40
48.0
 40
49.0
 40
49.0
 40
49.0
 40
50.0
 40
50.0
 40
50.0
 40
51.0
 40
51.0
 40
51.0
 40
52.0
 40
52.0
 40
52.0
 40
53.0
 40
53.0
 40
53.0
 40
54.0
 40
54.0
 40
54.0
 40
55.0
 40
55.0
 40
55.0
 40
56.0
 40
56.0
 40
56.0
 40
57.0
 40
57.0
 40
57.0
 40
58.0
 40
58.0
 40
58.0
 40
59.0
 40
59.0
 40
59.0
 40
60.0
 40
60.0
 40
60.0
 40
61.0
 40
61.0
 40
61.0
 40
62.0
 40
62.0
 40
62.0
 40
63.0
 40
63.0
 40
63.0
 40
64.0
 40
64.0
 40
64.0
 40
65.0
 40
65.0
 40
65.0
 40
66.0
 40
66.0
 40
66.0
 40
67.0
 40
67.0
 40
67.0
 40
68.0
 40
68.0
 40
68.0
 40
69.0
 40
69.0
 40
69.0
 40
70.0
 40
70.0
 40
70.0
 40
71.0
 40
71.0
 40
71.0
 40
72.0
 40
72.0
 40
72.0
 40
73.0
 40
73.0
 40
73.0
 40
74.0
 40
74.0
 40
74.0
 40
75.0
 40
75.0
 40
75.0
 40
76.0
 40
76.0
 40
76.0
 40
77.0
 40
77.0
 40
77.0
 40
78.0
 40
78.0
 40
78.0
 40
79.0
 40
79.0
 40
79.0
 40
80.0
 40
80.0
 40
80.0
 40
81.0
 40
81.0
 40
81.0
 40
82.0
 40
82.0
 40
82.0
 40
83.0
 40
83.0
 40
83.0
 40
84.0
 40
84.0
 40
84.0
 40
85.0
 40
85.0
 40
85.0
 40
86.0
 40
86.0
 40
86.0
 40
87.0
 40
87.0
 40
87.0
 40
88.0
 40
88.0
 40
88.0
 40
89.0
 40
89.0
 40
89.0
 40
90.0
 40
90.0
 40
90.0
 40
91.0
 40
91.0
 40
91.0
 40
92.0
 40
92.0
 40
92.0
 40
93.0
 40
93.0
 40
93.0
 40
94.0
 40
94.0
 40
94.0
 40
95.0
 40
95.0
 40
95.0
 40
96.0
 40
96.0
 40
96.0
 40
97.0
 40
97.0
 40
97.0
 40
98.0
 40
98.0
 40
98.0
 40
99.0
 40
99.0
 40
99.0
 40
100.0
 40
100.0
 40
100.0
 40
101.0
 40
101.0
 40
101.0
 40
102.0
 40
102.0
 40
102.0
 40
103.0
 40
103.0
 40
103.0
 40
104.0
 40
104.0
 40
104.0
 40
105.0
 40
105.0
 40
105.0
 40
106.0
 40
106.0
 40
106.0
 40
107.0
 40
107.0
 40
107.0
 40
108.0
 40
108.0
 40
108.0
 40
109.0
 40
109.0
 40
109.0
 40
110.0
 40
110.0
 40
110.0
 40
111.0
 40
111.0
 40
111.0
 40
112.0
 40
112.0
 40
112.0
 40
113.0
 40
113.0
 40
113.0
 40
114.0
 40
114.0
 40
114.0
 40
115.0
 40
115.0
 40
115.0
 40
116.0
 40
116.0
 40
116.0
 40
117.0
 40
117.0
 40
117.0
 40
118.0
 40
118.0
 40
118.0
 40
119.0
 40
119.0
 40
119.0
 40
120.0
 40
120.0
 40
120.0
 40
121.0
 40
121.0
 40
121.0
 40
122.0
 40
122.0
 40
122.0
 40
123.0
 40
123.0
 40
123.0
 40
124.0
 40
124.0
 40
124.0
 40
125.0
 40
125.0
 40
125.0
 40
126.0
 40
126.0
 40
126.0
 40
127.0
 40
127.0
 40
127.0
 40
128.0
 40
128.0
 40
128.0
 40
129.0
 40
129.0
 40
129.0
 40
130.0
 40
130.0
 40
130.0
 40
131.0
 40
131.0
 40
131.0
 40
132.0
 40
132.0
 40
132.0
 40
133.0
 40
133.0
 40
133.0
 40
134.0
 40
134.0
 40
134.0
 40
135.0
 40
135.0
 40
135.0
 40
136.0
 40
136.0
 40
136.0
 40
137.0
 40
137.0
 40
137.0
 40
138.0
 40
138.0
 40
138.0
 40
139.0
 40
139.0
 40
139.0
 40
140.0
 40
140.0
 40
140.0
 40
141.0
 40
141.0
 40
141.0
 40
142.0
 40
142.0
 40
142.0
 40
143.0
 40
143.0
 40
143.0
 40
144.0
 40
144.0
 40
144.0
 40
145.0
 40
145.0
 40
145.0
 40
146.0
 40
146.0
 40
146.0
 40
147.0
 40
147.0
 40
147.0
 40
148.0
 40
148.0
 40
148.0
 40
149.0
 40
149.0
 40
149.0
 40
150.0
 40
150.0
 40
150.0
 40
151.0
 40
151.0
 40
151.0
 40
152.0
 40
152.0
 40
152.0
 40
153.0
 40
153.0
 40
153.0
 40
154.0
 40
154.0
 40
154.0
 40
155.0
 40
155.0
 40
155.0
 40
156.0
 40
156.0
 40
156.0
 40
157.0
 40
157.0
 40
157.0
 40
158.0
 40
158.0
 40
158.0
 40
159.0
 40
159.0
 40
159.0
 40
160.0
 40
160.0
 40
160.0
 40
161.0
 40
161.0
 40
161.0
 40
162.0
 40
162.0
 40
162.0
 40
163.0
 40
163.0
 40
163.0
 40
164.0
 40
164.0
 40
164.0
 40
165.0
 40
165.0
 40
165.0
 40
166.0
 40
166.0
 40
166.0
 40
167.0
 40
167.0
 40
167.0
 40
168.0
 40
168.0
 40
168.0
 40
169.0
 40
169.0
 40
169.0
 40
170.0
 40
170.0
 40
170.0
 40
171.0
 40
171.0
 40
171.0
 40
172.0
 40
172.0
 40
172.0
 40
173.0
 40
173.0
 40
173.0
 40
174.0
 40
174.0
 40
174.0
 40
175.0
 40
175.0
 40
175.0
 40
176.0
 40
176.0
 40
176.0
 40
177.0
 40
177.0
 40
177.0
 40
178.0
 40
178.0
 40
178.0
 40
179.0
 40
179.0
 40
179.0
 40
180.0
 40
180.0
 40
180.0
 40
181.0
 40
181.0
 40
181.0
 40
182.0
 40
182.0
 40
182.0
 40
183.0
 40
183.0
 40
183.0
 40
184.0
 40
184.0
 40
184.0
 40
185.0
 40
185.0
 40
185.0
 40
186.0
 40
186.0
 40
186.0
 40
187.0
 40
187.0
 40
187.0
 40
188.0
 40
188.0
 40
188.0
 40
189.0
 40
189.0
 40
189.0
 40
190.0
 40
190.0
 40
190.0
 40
191.0
 40
191.0
 40
191.0
 40
192.0
 40
192.0
 40
192.0
 40
193.0
 40
193.0
 40
193.0
 40
194.0
 40
194.0
 40
194.0
 40
195.0
 40
195.0
 40
195.0
 40
196.0
 40
196.0
 40
196.0
 40
197.0
 40
197.0
 40
197.0
 40
198.0
 40
198.0
 40
198.0
 40
199.0
 40
199.0
 40
199.0
 40
200.0
 40
200.0
 40
200.0
 40
201.0
 40
201.0
 40
201.0
 40
202.0
 40
202.0
 40
202.0
 40
203.0
 40
203.0
 40
203.0
 40
204.0
 40
204.0
 40
204.0
 40
205.0
 40
205.0
 40
205.0
 40
206.0
 40
206.0
 40
206.0
 40
207.0
 40
207.0
 40
207.0
 40
208.0
 40
208.0
 40
208.0
 40
209.0
 40
209.0
 40
209.0
 40
210.0
 40
210.0
 40
210.0
 40
211.0
 40
211.0
 40
211.0
 40
212.0
 40
212.0
 40
212.0
 40
213.0
 40
213.0
 40
213.0
 40
214.0
 40
214.0
 40
214.0
 40
215.0
 40
215.0
 40
215.0
 40
216.0
 40
216.0
 40
216.0
 40
217.0
 40
217.0
 40
217.0
 40
218.0
 40
218.0
 40
218.0
 40
219.0
 40
219.0
 40
219.0
 40
220.0
 40
220.0
 40
220.0
 40
221.0
 40
221.0
 40
221.0
 40
222.0
 40
222.0
 40
222.0
 40
223.0
 40
223.0
 40
223.0
 40
224.0
 40
224.0
 40
224.0
 40
225.0
 40
225.0
 40
225.0
 40
226.0
 40
226.0
 40
226.0
 40
227.0
 40
227.0
 40
227.0
 40
228.0
 40
228.0
 40
228.0
 40
229.0
 40
229.0
 40
229.0
 40
230.0
 40
230.0
 40
230.0
 40
231.0
 40
231.0
 40
231.0
 40
232.0
 40
232.0
 40
232.0
 40
233.0
 40
233.0
 40
233.0
 40
234.0
 40
234.0
 40
234.0
 40
235.0
 40
235.0
 40
235.0
 40
236.0
 40
236.0
 40
236.0
 40
237.0
 40
237.0
 40
237.0
 40
238.0
 40
238.0
 40
238.0
 40
239.0
 40
239.0
 40
239.0
 40
240.0
 40
240.0
 40
240.0
 40
241.0
 40
241.0
 40
241.0
 40
242.0
 40
242.0
 40
242.0
 40
243.0
 40
243.0
 40
243.0
 40
244.0
 40
244.0
 40
244.0
 40
245.0
 40
245.0
 40
245.0
 40
246.0
 40
246.0
 40
246.0
 40
247.0
 40
247.0
 40
247.0
 40
248.0
 40
248.0
 40
248.0
 40
249.0
 40
249.0
 40
249.0
 40
250.0
 40
250.0
 40
250.0
 40
251.0
 40
251.0
 40
251.0
 40
252.0
 40
252.0
 40
252.0
 40
253.0
 40
253.0
 40
253.0
 40
254.0
 40
254.0
 40
254.0
 40
255.0
 40
255.0
 40
255.0
 40
256.0
 40
256.0
 40
256.0
 40
257.0
 40
257.0
 40
257.0
 40
258.0
 40
258.0
 40
258.0
 40
259.0
 40
259.0
 40
259.0
 40
260.0
 40
260.0
 40
260.0
 40
261.0
 40
261.0
 40
261.0
 40
262.0
 40
262.0
 40
262.0
 40
263.0
 40
263.0
 40
263.0
 40
264.0
 40
264.0
 40
264.0
 40
265.0
 40
265.0
 40
265.0
 40
265.0
 10
7.75659166666666
 20
-2.723551388888886
 30
0.0
 10
7.75659166666666
 20
-2.723551388888886
 30
0.0
 10
7.761433333333343
 20
-2.715657499999995
 30
0.0
 10
7.750705555555568
 20
-2.716851111111105
 30
0.0
 10
7.750705555555568
 20
-2.716851111111105
 30
0.0
 10
7.742051388888891
 20
-2.718695694444439
 30
0.0
 10
7.742051388888891
 20
-2.718695694444439
 30
0.0
 10
7.364677777777766
 20
-2.82531055555555
 30
0.0
 10
6.780544103335867
 20
-3.403387499999995
 30
0.0
 10
6.39207605759384
 20
-3.850138888888889
 30
0.0
 10
6.222995506309618
 20
-4.044576388888887
 30
0.0
 10
6.147244119334371
 20
-4.172980555555556
 30
0.0
 10
6.115098286813109
 20
-4.238369444444439
 30
0.0
 10
6.102919120454114
 20
-4.235683333333327
 30
0.0
 10
6.09313995403449
 20
-4.234850000000001
 30
0.0
 10
6.092203842947027
 20
-4.238613888888886
 30
0.0
 10
6.089952454115013
 20
-4.24768055555555
 30
0.0
 10
6.084445509809686
 20
-4.259691666666665
 30
0.0
 10
6.074842732274495
 20
-4.255370833333333
 30
0.0
 10
6.081733009878209
 20
-4.103712500000003
 30
0.0
 10
6.128716342024644
 20
-3.93960972222222
 30
0.0
 10
6.128716342024644
 20
-3.93960972222222
 30
0.0
 10
6.088948287473714
 20
-4.01240416666667
 30
0.0
 10
6.070203843502794
 20
-4.125061111111108
 30
0.0
 10
6.061441343724153
 20
-4.208136111111116
 30
0.0
 10
6.048542732938889
 20
-4.054362499999999
 30
0.0
 10
6.097710787252354
 20
-3.915018055555556
 30
0.0
 10
6.097710787252354
 20
-3.915018055555556
 30
0.0
 10
6.049276066253697
 20
-3.997381944444442
 30
0.0
 10
6.0435246775101
 20
-4.161458333333333
 30
0.0
 10
6.04360523306362
 20
-4.236762500000004
 30
0.0
 10
6.038208333333336
 20
-4.235161111111109
 30
0.0
 10
6.033691344425177
 20
-4.235826388888894
 30
0.0
 10
6.031508011146999
 20
-4.241055555555552
 30
0.0
 10
6.030014955629162
 20
-4.244561111111112
 30
0.0
 10
6.028130233454552
 20
-4.247701388888887
 30
0.0
 10
6.025892733511076
 20
-4.250258333333337
 30
0.0
 10
6.013698289374688
 20
-4.123412499999997
 30
0.0
 10
6.043226066406532
 20
-3.954583333333327
 30
0.0
 10
6.043226066406532
 20
-3.954583333333327
 30
0.0
 10
6.009630233921901
 20
-4.107001388888888
 30
0.0
 10
6.007269122870436
 20
-4.204962500000002
 30
0.0
 10
6.010185789463422
 20
-4.256754166666661
 30
0.0
 10
6.00928995615272
 20
-4.256638888888889
 30
0.0
 10
6.008421900619092
 20
-4.256645833333335
 30
0.0
 10
6.00752777777777
 20
-4.256388888888889
 30
0.0
 10
5.973130234843969
 20
-4.126200000000002
 30
0.0
 10
5.968396901630209
 20
-3.966329166666671
 30
0.0
 10
5.968396901630209
 20
-3.966329166666671
 30
0.0
 10
5.968396901630209
 20
-3.966329166666671
 30
0.0
 10
5.980170512443894
 20
-3.826320833333334
 30
0.0
 10
5.966281623905868
 20
-3.970601388888895
 30
0.0
 10
5.956027777777788
 20
-4.076998611111106
 30
0.0
 10
5.979491345794385
 20
-4.192640277777778
 30
0.0
 10
5.992526067687322
 20
-4.246052777777777
 30
0.0
 10
5.979302456910268
 20
-4.233954166666662
 30
0.0
 10
5.972696901521582
 20
-4.229227777777774
 30
0.0
 10
5.967162179439179
 20
-4.245904166666668
 30
0.0
 10
5.965969123913762
 20
-4.249491666666661
 30
0.0
 10
5.96370384619321
 20
-4.252448611111112
 30
0.0
 10
5.960828846265839
 20
-4.254895833333332
 30
0.0
 10
5.923177458328104
 20
-4.179795833333338
 30
0.0
 10
5.854844126721016
 20
-4.064419444444448
 30
0.0
 10
5.732516352033498
 20
-3.905795833333336
 30
0.0
 10
5.547010801164206
 20
-3.665304166666664
 30
0.0
 10
5.31213302931994
 20
-3.387301388888886
 30
0.0
 10
5.077331646362634
 20
-3.156195833333337
 30
0.0
 10
5.069206646567888
 20
-3.117431944444446
 30
0.0
 10
5.056152777777773
 20
-3.084119444444443
 30
0.0
 10
5.034803869659198
 20
-3.060220833333334
 30
0.0
 10
4.966830260265245
 20
-2.984158333333337
 30
0.0
 10
4.976528871131348
 20
-3.031087499999999
 30
0.0
 10
4.978142759979467
 20
-3.04565416666666
 30
0.0
 10
4.978623315522882
 20
-3.050022222222222
 30
0.0
 10
4.980128871040405
 20
-3.056600000000003
 30
0.0
 10
4.981702482111763
 20
-3.064730555555558
 30
0.0
 10
4.791503875805473
 20
-2.88842777777778
 30
0.0
 10
4.605848324939971
 20
-2.750698472222224
 30
0.0
 10
4.451280273289133
 20
-2.697062180555551
 30
0.0
 10
4.451280273289133
 20
-2.697062180555551
 30
0.0
 10
4.442736111111117
 20
-2.694708930555559
 30
0.0
 10
4.442736111111117
 20
-2.694708930555559
 30
0.0
 10
4.43212194043978
 20
-2.692898222222223
 30
0.0
 10
4.436476106996452
 20
-2.701049805555549
 30
0.0
 10
4.436476106996452
 20
-2.701049805555549
 30
0.0
 10
4.598930555555549
 20
-2.757432777777783
 30
0.0
 10
4.790974709152175
 20
-2.908759722222221
 30
0.0
 10
4.985894148672539
 20
-3.100436111111106
 30
0.0
 10
4.986253870885674
 20
-3.113098611111114
 30
0.0
 10
4.985222222222218
 20
-3.126926388888895
 30
0.0
 10
4.981391371008511
 20
-3.141175
 30
0.0
 10
4.97007192685002
 20
-3.183247222222222
 30
0.0
 10
4.966830260265245
 20
-3.272277777777781
 30
0.0
 10
4.96358859368047
 20
-3.311123611111106
 30
0.0
 10
4.960339982651425
 20
-3.349974999999997
 30
0.0
 10
4.927984427913239
 20
-3.487562500000005
 30
0.0
 10
4.934441372194568
 20
-3.565259722222221
 30
0.0
 10
4.94091776091985
 20
-3.642958333333329
 30
0.0
 10
4.960339982651425
 20
-3.900316666666665
 30
0.0
 10
4.953863593926144
 20
-3.916504166666666
 30
0.0
 10
4.947408038533669
 20
-3.932698611111113
 30
0.0
 10
4.908555555555558
 20
-3.935912499999997
 30
0.0
 10
4.897237206467758
 20
-3.895459722222224
 30
0.0
 10
4.885891373421044
 20
-3.854994444444439
 30
0.0
 10
4.882676095724491
 20
-3.73844444444444
 30
0.0
 10
4.83734137464752
 20
-3.699605555555561
 30
0.0
 10
4.792012209125965
 20
-3.660759722222224
 30
0.0
 10
4.777445542827283
 20
-3.519937499999994
 30
0.0
 10
4.772583333333336
 20
-3.460041666666661
 30
0.0
 10
4.767734431961495
 20
-3.400145833333327
 30
0.0
 10
4.756401098914466
 20
-3.34835416666667
 30
0.0
 10
4.73049554401334
 20
-3.285237499999994
 30
0.0
 10
4.704616378000436
 20
-3.222093055555559
 30
0.0
 10
4.706794155723198
 20
-3.124152777777782
 30
0.0
 10
4.712694444444448
 20
-3.065097222222221
 30
0.0
 10
4.71431498886654
 20
-3.048895833333328
 30
0.0
 10
4.62043582457146
 20
-3.116881944444445
 30
0.0
 10
4.622070546752385
 20
-3.205912500000004
 30
0.0
 10
4.623684435600504
 20
-3.294941666666672
 30
0.0
 10
4.62043582457146
 20
-3.406623611111109
 30
0.0
 10
4.630146935437248
 20
-3.463270833333329
 30
0.0
 10
4.639864990747305
 20
-3.51993194444444
 30
0.0
 10
4.667378878941134
 20
-3.830729166666667
 30
0.0
 10
4.667378878941134
 20
-3.885748611111113
 30
0.0
 10
4.667378878941134
 20
-3.940781944444439
 30
0.0
 10
4.693263888888888
 20
-4.178724999999998
 30
0.0
 10
4.732109432861458
 20
-4.316325000000006
 30
0.0
 10
4.770995542990224
 20
-4.453905555555555
 30
0.0
 10
4.83085804147797
 20
-4.622233333333333
 30
0.0
 10
4.876173318110987
 20
-4.641662500000002
 30
0.0
 10
4.921495539188274
 20
-4.661098611111115
 30
0.0
 10
4.937683038779343
 20
-4.659484722222222
 30
0.0
 10
4.937683038779343
 20
-4.659484722222222
 30
0.0
 10
4.937683038779343
 20
-4.659484722222222
 30
0.0
 10
4.911803872766439
 20
-4.696702777777773
 30
0.0
 10
4.919874999999997
 20
-4.714504166666668
 30
0.0
 10
4.927984427913239
 20
-4.732313888888888
 30
0.0
 10
4.957105260510919
 20
-4.779255555555551
 30
0.0
 10
4.971666666666667
 20
-4.801927777777778
 30
0.0
 10
4.986253870885674
 20
-4.824577777777777
 30
0.0
 10
5.002434426032474
 20
-4.834288888888889
 30
0.0
 10
5.026719147641213
 20
-4.835904166666662
 30
0.0
 10
5.051012202583075
 20
-4.837530555555556
 30
0.0
 10
5.057467757975549
 20
-4.868293055555555
 30
0.0
 10
5.051012202583075
 20
-4.873141666666672
 30
0.0
 10
5.044521924969255
 20
-4.877990277777775
 30
0.0
 10
5.013780259079188
 20
-4.871527777777778
 30
0.0
 10
5.028347222222224
 20
-4.897420833333336
 30
0.0
 10
5.042908036121136
 20
-4.923319444444448
 30
0.0
 10
5.0639510911451
 20
-4.955695833333329
 30
0.0
 10
5.101183034648986
 20
-4.986450000000003
 30
0.0
 10
5.138399700375481
 20
-5.017191666666664
 30
0.0
 10
5.28085664122116
 20
-5.13859027777778
 30
0.0
 10
5.28085664122116
 20
-5.13859027777778
 30
0.0
 10
5.28085664122116
 20
-5.13859027777778
 30
0.0
 10
5.161078866469223
 20
-5.255133333333333
 30
0.0
 10
5.140027777777783
 20
-5.297227777777784
 30
0.0
 10
5.140027777777783
 20
-5.297227777777784
 30
0.0
 10
5.089837201602273
 20
-5.311787499999999
 30
0.0
 10
5.047770535998299
 20
-5.360358333333338
 30
0.0
 10
5.005683037061519
 20
-5.408922222222221
 30
0.0
 10
4.991116370762837
 20
-5.460713888888891
 30
0.0
 10
4.997571926155311
 20
-5.478515277777774
 30
0.0
 10
5.004055555555561
 20
-5.496324999999993
 30
0.0
 10
5.008924703646294
 20
-5.50280694444445
 30
0.0
 10
5.004055555555561
 20
-5.517368055555557
 30
0.0
 10
4.999219148335921
 20
-5.531927777777772
 30
0.0
 10
5.015380259038769
 20
-5.52547222222222
 30
0.0
 10
5.033209425255032
 20
-5.543280555555561
 30
0.0
 10
5.051012202583075
 20
-5.561076388888889
 30
0.0
 10
5.271131641466834
 20
-5.750440277777771
 30
0.0
 10
5.512301079818826
 20
-5.773119444444445
 30
0.0
 10
5.512301079818826
 20
-5.773119444444445
 30
0.0
 10
5.515530246403917
 20
-5.847581944444439
 30
0.0
 10
5.539835801345462
 20
-5.920430555555551
 30
0.0
 10
5.539835801345462
 20
-5.920430555555551
 30
0.0
 10
5.423285804289763
 20
-5.886427777777777
 30
0.0
 10
5.402248304821215
 20
-5.896138888888887
 30
0.0
 10
5.381184416464444
 20
-5.905849999999999
 30
0.0
 10
5.314845529251417
 20
-5.888034722222224
 30
0.0
 10
5.245226086565708
 20
-5.865376388888889
 30
0.0
 10
5.175631643879367
 20
-5.84272638888889
 30
0.0
 10
4.947408038533669
 20
-5.763406944444442
 30
0.0
 10
4.915038594906946
 20
-5.745598611111114
 30
0.0
 10
4.882676095724491
 20
-5.727797222222218
 30
0.0
 10
4.851894152057664
 20
-5.737529166666667
 30
0.0
 10
4.851894152057664
 20
-5.737529166666667
 30
0.0
 10
4.851894152057664
 20
-5.737529166666667
 30
0.0
 10
4.736972222222221
 20
-5.672763888888893
 30
0.0
 10
4.670606656637371
 20
-5.687330555555554
 30
0.0
 10
4.604253880535806
 20
-5.701911111111106
 30
0.0
 10
4.448859440016955
 20
-5.739122222222224
 30
0.0
 10
4.390591385933375
 20
-5.811963888888891
 30
0.0
 10
4.332302498516987
 20
-5.884800000000003
 30
0.0
 10
4.372781664161064
 20
-6.001343055555556
 30
0.0
 10
4.382494163915705
 20
-6.009440277777773
 30
0.0
 10
4.392212219225763
 20
-6.017530555555569
 30
0.0
 10
4.416483051945963
 20
-6.001356944444447
 30
0.0
 10
4.435906662566392
 20
-5.964118055555559
 30
0.0
 10
4.455328884297968
 20
-5.926886111111116
 30
0.0
 10
4.465046939608024
 20
-5.849188888888888
 30
0.0
 10
4.588066380944737
 20
-5.816812499999994
 30
0.0
 10
4.711066377837495
 20
-5.784451388888884
 30
0.0
 10
4.680324711947429
 20
-5.818447222222226
 30
0.0
 10
4.706203877960332
 20
-5.823302777777775
 30
0.0
 10
4.732109432861458
 20
-5.828158333333337
 30
0.0
 10
4.785542764844952
 20
-5.837863888888895
 30
0.0
 10
4.792012209125965
 20
-5.849188888888888
 30
0.0
 10
4.798488597851247
 20
-5.860527777777772
 30
0.0
 10
4.814683041886584
 20
-5.883179166666663
 30
0.0
 10
4.851894152057664
 20
-5.889655555555552
 30
0.0
 10
4.889139984450089
 20
-5.896138888888887
 30
0.0
 10
5.076896924151393
 20
-5.928520833333335
 30
0.0
 10
5.123819444444456
 20
-5.939840277777774
 30
0.0
 10
5.170776088446473
 20
-5.95116527777778
 30
0.0
 10
5.348835806170528
 20
-5.993265277777772
 30
0.0
 10
5.381184416464444
 20
-5.991637499999999
 30
0.0
 10
5.41358719342366
 20
-5.990023611111105
 30
0.0
 10
5.423285804289763
 20
-6.006205555555551
 30
0.0
 10
5.460516358904796
 20
-6.011061111111113
 30
0.0
 10
5.497762191297221
 20
-6.015916666666675
 30
0.0
 10
5.560858023036618
 20
-6.015916666666675
 30
0.0
 10
5.560858023036618
 20
-6.020772222222225
 30
0.0
 10
5.560858023036618
 20
-6.025627777777774
 30
0.0
 10
5.593248299996149
 20
-6.125990277777772
 30
0.0
 10
5.604587188598594
 20
-6.140556944444445
 30
0.0
 10
5.604587188598594
 20
-6.140556944444445
 30
0.0
 10
5.57222468941614
 20
-6.168063888888885
 30
0.0
 10
5.543077467930238
 20
-6.174547222222221
 30
0.0
 10
5.51394274644402
 20
-6.18102361111111
 30
0.0
 10
5.481567747261882
 20
-6.18102361111111
 30
0.0
 10
5.468627469811003
 20
-6.176161111111115
 30
0.0
 10
5.455646914583363
 20
-6.171305555555541
 30
0.0
 10
5.437852470588445
 20
-6.185879166666685
 30
0.0
 10
5.437852470588445
 20
-6.185879166666685
 30
0.0
 10
5.437852470588445
 20
-6.185879166666685
 30
0.0
 10
5.09562192367836
 20
-6.194600000000011
 30
0.0
 10
4.958726093803307
 20
-6.179395833333325
 30
0.0
 10
4.929605261205627
 20
-6.176161111111115
 30
0.0
 10
4.90531359515262
 20
-6.192362499999995
 30
0.0
 10
4.90531359515262
 20
-6.192362499999995
 30
0.0
 10
4.90531359515262
 20
-6.192362499999995
 30
0.0
 10
4.85352192979432
 20
-6.171319444444432
 30
0.0
 10
4.777445542827283
 20
-6.213393055555571
 30
0.0
 10
4.701355266971707
 20
-6.255493055555537
 30
0.0
 10
4.686814989561248
 20
-6.304036111111095
 30
0.0
 10
4.686814989561248
 20
-6.304036111111095
 30
0.0
 10
4.686814989561248
 20
-6.304036111111095
 30
0.0
 10
4.460184439730861
 20
-6.55170416666667
 30
0.0
 10
4.447245551168836
 20
-6.575988888888888
 30
0.0
 10
4.434278884829736
 20
-6.60026666666666
 30
0.0
 10
4.450480273309343
 20
-6.60026666666666
 30
0.0
 10
4.450480273309343
 20
-6.60026666666666
 30
0.0
 10
4.450480273309343
 20
-6.60026666666666
 30
0.0
 10
4.40193055555556
 20
-6.62615277777776
 30
0.0
 10
4.42619444444444
 20
-6.794501388888875
 30
0.0
 10
4.42619444444444
 20
-6.794501388888875
 30
0.0
 10
4.44561777343218
 20
-6.807461111111125
 30
0.0
 10
4.44561777343218
 20
-6.773458333333338
 30
0.0
 10
4.44561777343218
 20
-6.739475000000008
 30
0.0
 10
4.442383051291674
 20
-6.690918055555559
 30
0.0
 10
4.479613605906707
 20
-6.645575000000008
 30
0.0
 10
4.479613605906707
 20
-6.645575000000008
 30
0.0
 10
4.502278883111911
 20
-6.694159722222239
 30
0.0
 10
4.511996938421968
 20
-6.68119999999999
 30
0.0
 10
4.521701104843487
 20
-6.66824722222221
 30
0.0
 10
4.523321938135874
 20
-6.67634444444444
 30
0.0
 10
4.547599715300344
 20
-6.652065277777789
 30
0.0
 10
4.571885825797936
 20
-6.627780555555546
 30
0.0
 10
4.579969158927067
 20
-6.598645833333345
 30
0.0
 10
4.584824714359962
 20
-6.611600000000003
 30
0.0
 10
4.589673325348586
 20
-6.624545833333336
 30
0.0
 10
4.613973324734716
 20
-6.705477777777761
 30
0.0
 10
4.643092768443542
 20
-6.737847222222221
 30
0.0
 10
4.643092768443542
 20
-6.737847222222221
 30
0.0
 10
4.633375000000001
 20
-6.752427777777787
 30
0.0
 10
4.668992767789253
 20
-6.758897222222205
 30
0.0
 10
4.704616378000436
 20
-6.765361111111107
 30
0.0
 10
5.046149702705912
 20
-6.765373611111094
 30
0.0
 10
5.091484423782882
 20
-6.754041666666681
 30
0.0
 10
5.136785811527361
 20
-6.742709722222217
 30
0.0
 10
5.233913586851486
 20
-6.661770833333321
 30
0.0
 10
5.245226086565708
 20
-6.648823611111109
 30
0.0
 10
5.256564975168152
 20
-6.635870833333329
 30
0.0
 10
5.267889974882059
 20
-6.647202777777793
 30
0.0
 10
5.300278862952736
 20
-6.631008333333334
 30
0.0
 10
5.33264136213519
 20
-6.614827777777767
 30
0.0
 10
5.442708333333333
 20
-6.52419722222223
 30
0.0
 10
5.499402777777783
 20
-6.491813888888878
 30
0.0
 10
5.556016356492263
 20
-6.459445833333322
 30
0.0
 10
5.564099689621394
 20
-6.452962500000012
 30
0.0
 10
5.604587188598594
 20
-6.438401388888906
 30
0.0
 10
5.645059409798401
 20
-6.423841666666653
 30
0.0
 10
5.69360385301651
 20
-6.402791666666669
 30
0.0
 10
5.680663575565632
 20
-6.427055555555549
 30
0.0
 10
5.66769690922653
 20
-6.451341666666671
 30
0.0
 10
5.64014968770021
 20
-6.478861111111099
 30
0.0
 10
5.627224688026723
 20
-6.541984722222221
 30
0.0
 10
5.614298299464381
 20
-6.605116666666667
 30
0.0
 10
5.604587188598594
 20
-6.642347222222219
 30
0.0
 10
5.62239552148205
 20
-6.653673611111117
 30
0.0
 10
5.64014968770021
 20
-6.665005555555555
 30
0.0
 10
5.675794131244199
 20
-6.687662499999988
 30
0.0
 10
5.675794131244199
 20
-6.687662499999988
 30
0.0
 10
5.675794131244199
 20
-6.687662499999988
 30
0.0
 10
5.654758020664505
 20
-6.736233333333328
 30
0.0
 10
5.651530242968268
 20
-6.76213194444444
 30
0.0
 10
5.648260798606416
 20
-6.788024999999985
 30
0.0
 10
5.645059409798401
 20
-6.868963888888882
 30
0.0
 10
5.659627464985937
 20
-6.870577777777775
 30
0.0
 10
5.674180555555545
 20
-6.872186111111104
 30
0.0
 10
5.727592741046768
 20
-6.878681944444452
 30
0.0
 10
5.716267741332861
 20
-6.893243055555558
 30
0.0
 10
5.704928852730417
 20
-6.907795833333339
 30
0.0
 10
5.672566353547962
 20
-6.951504166666685
 30
0.0
 10
5.66769690922653
 20
-6.979023611111112
 30
0.0
 10
5.662869131570712
 20
-7.006544444444444
 30
0.0
 10
5.648260798606416
 20
-7.064812499999991
 30
0.0
 10
5.657986111111111
 20
-7.076144444444455
 30
0.0
 10
5.66769690922653
 20
-7.087483333333339
 30
0.0
 10
5.706542741578535
 20
-7.110148611111121
 30
0.0
 10
5.7324621853682
 20
-7.113383333333331
 30
0.0
 10
5.7324621853682
 20
-7.113383333333331
 30
0.0
 10
5.687120519846959
 20
-7.187831944444446
 30
0.0
 10
5.696845519601285
 20
-7.223450000000007
 30
0.0
 10
5.706542741578535
 20
-7.259059722222219
 30
0.0
 10
5.745401073930225
 20
-7.25744583333335
 30
0.0
 10
5.745401073930225
 20
-7.25744583333335
 30
0.0
 10
5.745401073930225
 20
-7.25744583333335
 30
0.0
 10
5.706542741578535
 20
-7.293049999999994
 30
0.0
 10
5.708170519315192
 20
-7.315720833333317
 30
0.0
 10
5.70978440816331
 20
-7.338393055555571
 30
0.0
 10
5.722737185613874
 20
-7.359422222222216
 30
0.0
 10
5.742173296233987
 20
-7.362663888888871
 30
0.0
 10
5.742173296233987
 20
-7.362663888888871
 30
0.0
 10
5.737317740801093
 20
-7.388563888888888
 30
0.0
 10
5.698472222222234
 20
-7.391798611111122
 30
0.0
 10
5.659627464985937
 20
-7.395026388888886
 30
0.0
 10
5.509073302122588
 20
-7.437120833333337
 30
0.0
 10
5.400620527084558
 20
-7.571472222222231
 30
0.0
 10
5.292167752046528
 20
-7.705811111111112
 30
0.0
 10
5.463758025489571
 20
-7.984226388888904
 30
0.0
 10
5.688774686471839
 20
-7.901672222222209
 30
0.0
 10
5.688774686471839
 20
-7.901672222222209
 30
0.0
 10
5.81663718324176
 20
-8.00687638888889
 30
0.0
 10
5.931559402560802
 20
-7.880629166666671
 30
0.0
 10
5.931559402560802
 20
-7.880629166666671
 30
0.0
 10
6.041612177558414
 20
-7.992330555555554
 30
0.0
 10
6.175984396386108
 20
-7.89520277777779
 30
0.0
 10
6.175984396386108
 20
-7.89520277777779
 30
0.0
 10
6.336222222222229
 20
-7.9874736111111
 30
0.0
 10
6.404201057287537
 20
-7.896809722222214
 30
0.0
 10
6.404201057287537
 20
-7.896809722222214
 30
0.0
 10
6.561252442208974
 20
-7.952141666666673
 30
0.0
 10
6.65896216196284
 20
-7.842712499999985
 30
0.0
 10
6.756673270605561
 20
-7.733290277777794
 30
0.0
 10
6.712414938390288
 20
-7.573756944444439
 30
0.0
 10
6.632242718193386
 20
-7.50943333333334
 30
0.0
 10
6.552055555555549
 20
-7.44513611111112
 30
0.0
 10
6.4961204994099
 20
-7.428419444444444
 30
0.0
 10
6.407564946091447
 20
-7.413384722222215
 30
0.0
 10
6.407564946091447
 20
-7.413384722222215
 30
0.0
 10
6.397541666666661
 20
-7.384141666666665
 30
0.0
 10
6.35911633620425
 20
-7.365763888888877
 30
0.0
 10
6.35911633620425
 20
-7.365763888888877
 30
0.0
 10
6.395873279720136
 20
-7.354891666666667
 30
0.0
 10
6.387519113264513
 20
-7.319823611111107
 30
0.0
 10
6.379137169031814
 20
-7.284736111111114
 30
0.0
 10
6.317341337259576
 20
-7.247986111111104
 30
0.0
 10
6.317341337259576
 20
-7.247986111111104
 30
0.0
 10
6.317341337259576
 20
-7.247986111111104
 30
0.0
 10
6.407592723868523
 20
-7.247151388888899
 30
0.0
 10
6.412556612632013
 20
-7.207065277777777
 30
0.0
 10
6.41758855694934
 20
-7.166972222222234
 30
0.0
 10
6.38918716877793
 20
-7.131048611111105
 30
0.0
 10
6.341552447759063
 20
-7.090108333333319
 30
0.0
 10
6.341552447759063
 20
-7.090108333333319
 30
0.0
 10
6.435112167617767
 20
-7.083448611111129
 30
0.0
 10
6.430108001077516
 20
-7.030829166666662
 30
0.0
 10
6.425102445648412
 20
-6.978197222222207
 30
0.0
 10
6.410060779361729
 20
-6.94395000000001
 30
0.0
 10
6.373317724734382
 20
-6.899679166666677
 30
0.0
 10
6.373317724734382
 20
-6.899679166666677
 30
0.0
 10
6.455213555998853
 20
-6.901366666666667
 30
0.0
 10
6.459349667005476
 20
-6.848734722222211
 30
0.0
 10
6.463555555555558
 20
-6.796101388888878
 30
0.0
 10
6.428466334452322
 20
-6.742641666666663
 30
0.0
 10
6.404228835064613
 20
-6.718424999999999
 30
0.0
 10
6.404228835064613
 20
-6.718424999999999
 30
0.0
 10
6.486097222222219
 20
-6.67832500000001
 30
0.0
 10
6.482732999748097
 20
-6.650756944444462
 30
0.0
 10
6.479382999832725
 20
-6.623181944444442
 30
0.0
 10
6.476073277694113
 20
-6.552177777777766
 30
0.0
 10
6.432630223236022
 20
-6.473673611111129
 30
0.0
 10
6.432630223236022
 20
-6.473673611111129
 30
0.0
 10
6.414238557033968
 20
-6.448608333333342
 30
0.0
 10
6.440144111935094
 20
-6.446112500000001
 30
0.0
 10
6.46600938905946
 20
-6.443597222222226
 30
0.0
 10
6.506130221379256
 20
-6.439419444444461
 30
0.0
 10
6.521171887665938
 20
-6.447773611111112
 30
0.0
 10
6.536213553952621
 20
-6.456129166666667
 30
0.0
 10
6.71496493832587
 20
-6.561361111111106
 30
0.0
 10
6.738321882180268
 20
-6.57640277777778
 30
0.0
 10
6.761719103811426
 20
-6.591444444444429
 30
0.0
 10
6.795966325168491
 20
-6.61567500000001
 30
0.0
 10
6.803480213867563
 20
-6.608147222222215
 30
0.0
 10
6.810994102566635
 20
-6.60062638888889
 30
0.0
 10
6.821871880069617
 20
-6.593126388888877
 30
0.0
 10
6.833549657552389
 20
-6.603983333333316
 30
0.0
 10
6.845255212812238
 20
-6.614827777777767
 30
0.0
 10
6.924601044141127
 20
-6.69167777777779
 30
0.0
 10
6.945502432502002
 20
-6.70755277777779
 30
0.0
 10
6.96638993197434
 20
-6.723422222222224
 30
0.0
 10
6.9830857648859
 20
-6.711737500000001
 30
0.0
 10
6.993095486855256
 20
-6.718411111111108
 30
0.0
 10
7.003132986601687
 20
-6.725090277777781
 30
0.0
 10
7.052395485357212
 20
-6.750162499999988
 30
0.0
 10
7.084960762312321
 20
-6.755168055555562
 30
0.0
 10
7.117553817044508
 20
-6.760172222222232
 30
0.0
 10
7.337252777777772
 20
-6.812791666666675
 30
0.0
 10
7.394883333333332
 20
-6.82449722222221
 30
0.0
 10
7.452501388888877
 20
-6.836195833333325
 30
0.0
 10
7.500230555555567
 20
-6.850979166666648
 30
0.0
 10
7.523505555555554
 20
-6.837008333333339
 30
0.0
 10
7.531859722222229
 20
-6.831997222222222
 30
0.0
 10
7.531033333333324
 20
-6.818637499999997
 30
0.0
 10
7.531033333333324
 20
-6.818637499999997
 30
0.0
 10
7.531033333333324
 20
-6.818637499999997
 30
0.0
 10
7.609537499999988
 20
-6.755147222222225
 30
0.0
 10
7.591159722222224
 20
-6.675794444444439
 30
0.0
 10
7.591159722222224
 20
-6.675794444444439
 30
0.0
 10
7.587809722222219
 20
-6.669115277777766
 30
0.0
 10
7.581122222222221
 20
-6.678304166666672
 30
0.0
 10
7.57449027777779
 20
-6.6875
 30
0.0
 10
7.521823611111105
 20
-6.750983333333352
 30
0.0
 10
7.504300000000007
 20
-6.757663888888904
 30
0.0
 10
7.504300000000007
 20
-6.757663888888904
 30
0.0
 10
7.498466666666673
 20
-6.72675277777777
 30
0.0
 10
7.47675277777777
 20
-6.725911111111095
 30
0.0
 10
7.455023611111098
 20
-6.725084722222213
 30
0.0
 10
7.431626388888894
 20
-6.729268055555571
 30
0.0
 10
7.349772222222226
 20
-6.719251388888905
 30
0.0
 10
7.267916666666679
 20
-6.70921527777778
 30
0.0
 10
7.095864928703526
 20
-6.666626388888895
 30
0.0
 10
7.052395485357212
 20
-6.659112499999992
 30
0.0
 10
7.009005208675565
 20
-6.651577777777775
 30
0.0
 10
7.013169097459265
 20
-6.627359722222232
 30
0.0
 10
6.983927431531305
 20
-6.603129166666652
 30
0.0
 10
6.954698265603029
 20
-6.578911111111109
 30
0.0
 10
6.90791771122925
 20
-6.543009722222223
 30
0.0
 10
6.870320489956813
 20
-6.523797222222229
 30
0.0
 10
6.870320489956813
 20
-6.523797222222229
 30
0.0
 10
6.869506601088485
 20
-6.517904166666666
 30
0.0
 10
6.85697326807177
 20
-6.506231944444456
 30
0.0
 10
6.844427435055372
 20
-6.494540277777761
 30
0.0
 10
6.821031602313067
 20
-6.493706944444461
 30
0.0
 10
6.805188547157741
 20
-6.487854166666668
 30
0.0
 10
6.789306603114508
 20
-6.482008333333346
 30
0.0
 10
6.615505218616211
 20
-6.417677777777776
 30
0.0
 10
6.556220497891647
 20
-6.389274999999998
 30
0.0
 10
6.496948277166767
 20
-6.36088749999999
 30
0.0
 10
6.503620499220435
 20
-6.372586111111104
 30
0.0
 10
6.503620499220435
 20
-6.372586111111104
 30
0.0
 10
6.503620499220435
 20
-6.372586111111104
 30
0.0
 10
6.466864944593403
 20
-6.358363888888889
 30
0.0
 10
6.44095833333333
 20
-6.366726388888891
 30
0.0
 10
6.415078834790519
 20
-6.375081944444446
 30
0.0
 10
6.397514946345331
 20
-6.360045833333338
 30
0.0
 10
6.392523279804764
 20
-6.350850000000011
 30
0.0
 10
6.387519113264513
 20
-6.341674999999996
 30
0.0
 10
6.475219111049025
 20
-6.256476388888889
 30
0.0
 10
6.471883000022191
 20
-6.212219444444448
 30
0.0
 10
6.471883000022191
 20
-6.212219444444448
 30
0.0
 10
6.567084386506091
 20
-6.206359722222209
 30
0.0
 10
6.602199663396782
 20
-6.182962500000005
 30
0.0
 10
6.602199663396782
 20
-6.182962500000005
 30
0.0
 10
6.618882996308659
 20
-6.193000000000008
 30
0.0
 10
6.677353828164895
 20
-6.194661111111095
 30
0.0
 10
6.735812160021446
 20
-6.19632361111111
 30
0.0
 10
6.896185767081179
 20
-6.188815277777772
 30
0.0
 10
6.932956599485603
 20
-6.191325000000006
 30
0.0
 10
6.969699654112951
 20
-6.193827777777793
 30
0.0
 10
6.979709376082306
 20
-6.187975000000001
 30
0.0
 10
6.980549653838857
 20
-6.169602777777779
 30
0.0
 10
6.980549653838857
 20
-6.169602777777779
 30
0.0
 10
7.154310760560393
 20
-6.177116666666683
 30
0.0
 10
7.175184722222234
 20
-6.184631944444441
 30
0.0
 10
7.196058333333339
 20
-6.192145833333345
 30
0.0
 10
7.205254166666665
 20
-6.203850000000001
 30
0.0
 10
7.213609722222221
 20
-6.19549583333335
 30
0.0
 10
7.221963888888896
 20
-6.18714027777777
 30
0.0
 10
7.389865277777769
 20
-6.256462499999998
 30
0.0
 10
7.427462499999996
 20
-6.267313888888894
 30
0.0
 10
7.465033333333344
 20
-6.278177777777778
 30
0.0
 10
7.573622222222234
 20
-6.328301388888879
 30
0.0
 10
7.588663888888883
 20
-6.339986111111102
 30
0.0
 10
7.603705555555557
 20
-6.351677777777796
 30
0.0
 10
7.613729166666669
 20
-6.347527777777789
 30
0.0
 10
7.621243055555547
 20
-6.334147222222226
 30
0.0
 10
7.628730555555547
 20
-6.320766666666663
 30
0.0
 10
7.665540277777786
 20
-6.339999999999994
 30
0.0
 10
7.676391666666657
 20
-6.347513888888898
 30
0.0
 10
7.687255555555566
 20
-6.355013888888884
 30
0.0
 10
7.703938888888892
 20
-6.377583333333328
 30
0.0
 10
7.703938888888892
 20
-6.383422222222229
 30
0.0
 10
7.703938888888892
 20
-6.38926250000001
 30
0.0
 10
7.721502777777787
 20
-6.375908333333326
 30
0.0
 10
7.713174999999991
 20
-6.350850000000011
 30
0.0
 10
7.704793055555556
 20
-6.325779166666658
 30
0.0
 10
7.687255555555566
 20
-6.274855555555556
 30
0.0
 10
7.651354166666654
 20
-6.248955555555565
 30
0.0
 10
7.651354166666654
 20
-6.248955555555565
 30
0.0
 10
7.649658333333339
 20
-6.235581944444448
 30
0.0
 10
7.634602777777773
 20
-6.228068055555569
 30
0.0
 10
7.619588888888883
 20
-6.220547222222219
 30
0.0
 10
7.405761111111107
 20
-6.150370833333327
 30
0.0
 10
7.378201388888884
 20
-6.133673611111109
 30
0.0
 10
7.350640277777782
 20
-6.116970833333349
 30
0.0
 10
7.270466666666657
 20
-6.091091666666671
 30
0.0
 10
7.270466666666657
 20
-6.091091666666671
 30
0.0
 10
7.270466666666657
 20
-6.091091666666671
 30
0.0
 10
7.260456944444437
 20
-6.071879166666652
 30
0.0
 10
7.249579166666662
 20
-6.067694444444442
 30
0.0
 10
7.238701388888885
 20
-6.063516666666652
 30
0.0
 10
7.026257986017501
 20
-6.046427777777782
 30
0.0
 10
6.978895487213978
 20
-6.054313888888879
 30
0.0
 10
6.968885765244623
 20
-6.055995833333327
 30
0.0
 10
6.959676043255058
 20
-6.058491666666669
 30
0.0
 10
6.949666666666669
 20
-6.054313888888879
 30
0.0
 10
6.939656599316347
 20
-6.050150000000005
 30
0.0
 10
6.91960937760056
 20
-6.045973611111094
 30
0.0
 10
6.887857989513779
 20
-6.051812499999995
 30
0.0
 10
6.856105212538144
 20
-6.057665277777788
 30
0.0
 10
6.66814410617533
 20
-6.090216666666669
 30
0.0
 10
6.628878829389476
 20
-6.09105833333332
 30
0.0
 10
6.628878829389476
 20
-6.09105833333332
 30
0.0
 10
6.618027777777772
 20
-6.071838888888881
 30
0.0
 10
6.608859385450765
 20
-6.070169444444446
 30
0.0
 10
6.5996496634612
 20
-6.068488888888876
 30
0.0
 10
6.536187165064398
 20
-6.080193055555557
 30
0.0
 10
6.520303832132312
 20
-6.093552777777782
 30
0.0
 10
6.520303832132312
 20
-6.093552777777782
 30
0.0
 10
6.572930555555558
 20
-5.949883333333332
 30
0.0
 10
6.572930555555558
 20
-5.886413888888884
 30
0.0
 10
6.572930555555558
 20
-5.886413888888884
 30
0.0
 10
6.613863551991017
 20
-5.874708333333337
 30
0.0
 10
6.623873273960371
 20
-5.870537500000006
 30
0.0
 10
6.633924662595341
 20
-5.866366666666661
 30
0.0
 10
6.641424662405875
 20
-5.859666666666663
 30
0.0
 10
6.642252440162742
 20
-5.857156944444442
 30
0.0
 10
6.64310660680783
 20
-5.854668055555559
 30
0.0
 10
6.718260771575943
 20
-5.849649999999997
 30
0.0
 10
6.917073266553516
 20
-5.760261111111112
 30
0.0
 10
7.115871872642552
 20
-5.670877777777782
 30
0.0
 10
7.189372222222219
 20
-5.61157222222222
 30
0.0
 10
7.201063888888888
 20
-5.599045833333333
 30
0.0
 10
7.212741666666665
 20
-5.586513888888892
 30
0.0
 10
7.196058333333339
 20
-5.569823611111107
 30
0.0
 10
7.196058333333339
 20
-5.569823611111107
 30
0.0
 10
7.196058333333339
 20
-5.569823611111107
 30
0.0
 10
7.218613888888891
 20
-5.559787499999995
 30
0.0
 10
7.224459722222213
 20
-5.536404166666671
 30
0.0
 10
7.230293055555547
 20
-5.513013888888887
 30
0.0
 10
7.235297222222218
 20
-5.403612499999995
 30
0.0
 10
7.191868055555561
 20
-5.339294444444438
 30
0.0
 10
7.191868055555561
 20
-5.339294444444438
 30
0.0
 10
7.124226039098176
 20
-5.202331944444444
 30
0.0
 10
7.013142708571043
 20
-5.141350000000001
 30
0.0
 10
7.013142708571043
 20
-5.141350000000001
 30
0.0
 10
6.969726043001174
 20
-5.060336111111105
 30
0.0
 10
6.920437155357426
 20
-4.995177777777775
 30
0.0
 10
6.920437155357426
 20
-4.995177777777775
 30
0.0
 10
6.961344098768475
 20
-4.973463888888887
 30
0.0
 10
6.972222222222221
 20
-4.959283333333334
 30
0.0
 10
6.972222222222221
 20
-4.959283333333334
 30
0.0
 10
7.051594096488568
 20
-4.930880555555555
 30
0.0
 10
7.052395485357212
 20
-4.872402777777779
 30
0.0
 10
7.052395485357212
 20
-4.872402777777779
 30
0.0
 10
7.059923262944822
 20
-4.862393055555558
 30
0.0
 10
7.019002430645236
 20
-4.863213888888885
 30
0.0
 10
7.019002430645236
 20
-4.863213888888885
 30
0.0
 10
6.999769097797778
 20
-4.864888888888887
 30
0.0
 10
7.019856597290325
 20
-4.849012499999995
 30
0.0
 10
7.039876041229036
 20
-4.833143055555549
 30
0.0
 10
7.111748261635612
 20
-4.756313888888889
 30
0.0
 10
7.147623260729334
 20
-4.713704166666667
 30
0.0
 10
7.183566666666668
 20
-4.671108333333336
 30
0.0
 10
7.161810760370927
 20
-4.631843055555552
 30
0.0
 10
7.131753816685785
 20
-4.613477777777777
 30
0.0
 10
7.131753816685785
 20
-4.613477777777777
 30
0.0
 10
7.157673260475449
 20
-4.625997222222218
 30
0.0
 10
7.233683333333324
 20
-4.585909722222216
 30
0.0
 10
7.309665277777791
 20
-4.545823611111106
 30
0.0
 10
7.347290277777776
 20
-4.408006944444448
 30
0.0
 10
7.381565277777781
 20
-4.321966666666665
 30
0.0
 10
7.415770833333327
 20
-4.235934722222219
 30
0.0
 10
7.484008333333324
 20
-3.937024999999999
 30
0.0
 10
7.488456944444452
 20
-3.863409722222223
 30
0.0
 10
7.493149999999988
 20
-3.785799999999995
 30
0.0
 10
7.575344444444454
 20
-3.312405555555554
 30
0.0
 10
7.530802777777782
 20
-3.138733333333334
 30
0.0
 10
7.518676388888884
 20
-3.091397222222225
 30
0.0
 10
7.488294444444439
 20
-3.05375138888889
 30
0.0
 10
7.466458333333321
 20
-3.042826388888885
 30
0.0
 10
7.444620833333324
 20
-3.031915277777772
 30
0.0
 10
7.450669444444454
 20
-3.052537499999997
 30
0.0
 10
7.453111111111108
 20
-3.061041666666672
 30
0.0
 10
7.455552777777787
 20
-3.069531944444444
 30
0.0
 10
7.438530555555543
 20
-3.10352222222222
 30
0.0
 10
7.442179166666669
 20
-3.11201944444445
 30
0.0
 10
7.445827777777771
 20
-3.120530555555559
 30
0.0
 10
7.432481944444437
 20
-3.161790277777779
 30
0.0
 10
7.434895833333333
 20
-3.171508333333337
 30
0.0
 10
7.437309722222229
 20
-3.181226388888894
 30
0.0
 10
7.39969861111111
 20
-3.301412499999994
 30
0.0
 10
7.405761111111107
 20
-3.324476388888886
 30
0.0
 10
7.411825000000008
 20
-3.347540277777777
 30
0.0
 10
7.406955555555568
 20
-3.399752777777773
 30
0.0
 10
7.402126388888897
 20
-3.415527777777773
 30
0.0
 10
7.397230555555552
 20
-3.431315277777773
 30
0.0
 10
7.381483333333335
 20
-3.517497222222219
 30
0.0
 10
7.371772222222211
 20
-3.544202777777779
 30
0.0
 10
7.362047222222221
 20
-3.570922222222217
 30
0.0
 10
7.355984722222224
 20
-3.579420833333339
 30
0.0
 10
7.352348611111109
 20
-3.597622222222223
 30
0.0
 10
7.348687499999995
 20
-3.615837499999998
 30
0.0
 10
7.343858333333324
 20
-3.641316666666663
 30
0.0
 10
7.332926388888886
 20
-3.647399999999998
 30
0.0
 10
7.321994444444448
 20
-3.653476388888887
 30
0.0
 10
7.314711111111111
 20
-3.669249999999995
 30
0.0
 10
7.315944444444439
 20
-3.678962499999999
 30
0.0
 10
7.317152777777765
 20
-3.68867361111111
 30
0.0
 10
7.291638888888883
 20
-3.714179166666668
 30
0.0
 10
7.294080555555562
 20
-3.727531944444447
 30
0.0
 10
7.296495833333337
 20
-3.740879166666673
 30
0.0
 10
7.292873611111114
 20
-3.763949999999997
 30
0.0
 10
7.286783333333333
 20
-3.772454166666661
 30
0.0
 10
7.280706944444445
 20
-3.780944444444445
 30
0.0
 10
7.238226388888885
 20
-3.879279166666669
 30
0.0
 10
7.227308333333339
 20
-3.88655555555556
 30
0.0
 10
7.2163763888889
 20
-3.893838888888884
 30
0.0
 10
7.222438888888897
 20
-3.881706944444444
 30
0.0
 10
7.228529166666678
 20
-3.86470555555555
 30
0.0
 10
7.23456527777777
 20
-3.847716666666669
 30
0.0
 10
7.27221666666666
 20
-3.77001944444444
 30
0.0
 10
7.275851388888896
 20
-3.750590277777771
 30
0.0
 10
7.279513888888888
 20
-3.73116666666667
 30
0.0
 10
7.281941666666675
 20
-3.70568194444445
 30
0.0
 10
7.292873611111114
 20
-3.680181944444446
 30
0.0
 10
7.303779166666673
 20
-3.654697222222226
 30
0.0
 10
7.332926388888886
 20
-3.590352777777778
 30
0.0
 10
7.341416666666671
 20
-3.553927777777782
 30
0.0
 10
7.349920833333321
 20
-3.517497222222219
 30
0.0
 10
7.383897222222231
 20
-3.351188888888891
 30
0.0
 10
7.382690277777783
 20
-3.315972222222222
 30
0.0
 10
7.381483333333335
 20
-3.280768055555553
 30
0.0
 10
7.398465277777783
 20
-3.186076388888889
 30
0.0
 10
7.400919444444449
 20
-3.155734722222228
 30
0.0
 10
7.403333333333345
 20
-3.125379166666663
 30
0.0
 10
7.409423611111101
 20
-3.081684722222222
 30
0.0
 10
7.426405555555548
 20
-3.056193055555557
 30
0.0
 10
7.443386111111117
 20
-3.030694444444445
 30
0.0
 10
7.394829166666669
 20
-3.044040277777779
 30
0.0
 10
7.36690277777777
 20
-3.062248611111108
 30
0.0
 10
7.338988888888884
 20
-3.080465277777774
 30
0.0
 10
7.323201388888896
 20
-3.091397222222225
 30
0.0
 10
7.300130555555547
 20
-3.154520833333335
 30
0.0
 10
7.277086111111101
 20
-3.217644444444444
 30
0.0
 10
7.229709722222221
 20
-3.392462500000003
 30
0.0
 10
7.217583333333323
 20
-3.428873611111107
 30
0.0
 10
7.205458333333328
 20
-3.465298611111115
 30
0.0
 10
7.12898715008901
 20
-3.663194444444444
 30
0.0
 10
7.115627428204284
 20
-3.687472222222216
 30
0.0
 10
7.102267706319556
 20
-3.711737500000001
 30
0.0
 10
7.054917707515718
 20
-3.818583333333335
 30
0.0
 10
7.053682985324687
 20
-3.839219444444439
 30
0.0
 10
7.052476040910733
 20
-3.859843055555555
 30
0.0
 10
7.041544096742452
 20
-3.874416666666662
 30
0.0
 10
7.050048263194285
 20
-3.885341666666666
 30
0.0
 10
7.058552429646119
 20
-3.89626805555555
 30
0.0
 10
7.054917707515718
 20
-3.902337500000006
 30
0.0
 10
7.05125520760824
 20
-3.91084166666667
 30
0.0
 10
7.047634374366377
 20
-3.919331944444441
 30
0.0
 10
7.037935763500273
 20
-3.932698611111113
 30
0.0
 10
7.041544096742452
 20
-3.944823611111107
 30
0.0
 10
7.045192707761392
 20
-3.956970833333331
 30
0.0
 10
7.027003819331993
 20
-3.967902777777782
 30
0.0
 10
7.016071875163712
 20
-3.973972222222225
 30
0.0
 10
7.00511354210721
 20
-3.980034722222222
 30
0.0
 10
6.955376043363685
 20
-3.961826388888893
 30
0.0
 10
6.939574654873972
 20
-3.982469444444443
 30
0.0
 10
6.923801044161337
 20
-4.003098611111113
 30
0.0
 10
6.841239935135895
 20
-4.139072222222227
 30
0.0
 10
6.846095490568788
 20
-4.243476388888894
 30
0.0
 10
6.850938546001998
 20
-4.347887499999993
 30
0.0
 10
6.858236111111106
 20
-4.379441666666669
 30
0.0
 10
6.883720489618301
 20
-4.384304166666665
 30
0.0
 10
6.909232988973801
 20
-4.389159722222226
 30
0.0
 10
6.921373266444889
 20
-4.397656944444444
 30
0.0
 10
6.927449655180276
 20
-4.408583333333328
 30
0.0
 10
6.933512155027124
 20
-4.419501388888888
 30
0.0
 10
6.950506599042253
 20
-4.455926388888884
 30
0.0
 10
6.935939932743572
 20
-4.459568055555551
 30
0.0
 10
6.921373266444889
 20
-4.46320972222222
 30
0.0
 10
6.92015277777778
 20
-4.445006944444445
 30
0.0
 10
6.89465277777779
 20
-4.443793055555552
 30
0.0
 10
6.869181601096695
 20
-4.442565277777779
 30
0.0
 10
6.857028823625923
 20
-4.441351388888885
 30
0.0
 10
6.85215937930449
 20
-4.459568055555551
 30
0.0
 10
6.847303823871597
 20
-4.477783333333339
 30
0.0
 10
6.830307990967614
 20
-4.546976388888892
 30
0.0
 10
6.816948269082887
 20
-4.555473611111109
 30
0.0
 10
6.803616324975236
 20
-4.563965277777773
 30
0.0
 10
6.798759380653488
 20
-4.565186111111112
 30
0.0
 10
6.797526047351312
 20
-4.582173611111115
 30
0.0
 10
6.796319444444432
 20
-4.599174999999996
 30
0.0
 10
6.759914937190337
 20
-4.684163888888886
 30
0.0
 10
6.758708333333338
 20
-4.701151388888889
 30
0.0
 10
6.757473270585352
 20
-4.718145833333336
 30
0.0
 10
6.731960771229851
 20
-4.730298611111114
 30
0.0
 10
6.730766326815582
 20
-4.753363888888885
 30
0.0
 10
6.729559382401627
 20
-4.776415277777775
 30
0.0
 10
6.718627438233347
 20
-4.737576388888884
 30
0.0
 10
6.718627438233347
 20
-4.719366666666663
 30
0.0
 10
6.718627438233347
 20
-4.701151388888889
 30
0.0
 10
6.713757993911915
 20
-4.684163888888886
 30
0.0
 10
6.69557049437137
 20
-4.714504166666668
 30
0.0
 10
6.677353828164895
 20
-4.744859722222221
 30
0.0
 10
6.643364940134638
 20
-4.801927777777778
 30
0.0
 10
6.639728829115382
 20
-4.807990277777776
 30
0.0
 10
6.636053829208221
 20
-4.814059722222219
 30
0.0
 10
6.587510774878965
 20
-4.795844444444444
 30
0.0
 10
6.568101053147075
 20
-4.805555555555555
 30
0.0
 10
6.548678831415499
 20
-4.815266666666667
 30
0.0
 10
6.526814943078938
 20
-4.840759722222225
 30
0.0
 10
6.57778577512464
 20
-4.894179166666668
 30
0.0
 10
6.57778577512464
 20
-4.894179166666668
 30
0.0
 10
6.581460775031801
 20
-4.930609722222218
 30
0.0
 10
6.570528830863521
 20
-4.933023611111113
 30
0.0
 10
6.559597222222211
 20
-4.93546527777778
 30
0.0
 10
6.557169108978794
 20
-4.934237499999995
 30
0.0
 10
6.559597222222211
 20
-4.945169444444446
 30
0.0
 10
6.562024664411688
 20
-4.956102777777775
 30
0.0
 10
6.554727442373809
 20
-4.965806944444441
 30
0.0
 10
6.546237164810513
 20
-4.962172222222218
 30
0.0
 10
6.537746887247218
 20
-4.958516666666671
 30
0.0
 10
6.536512165056187
 20
-4.970662500000003
 30
0.0
 10
6.538980220549395
 20
-4.980373611111114
 30
0.0
 10
6.541367720489082
 20
-4.990084722222226
 30
0.0
 10
6.532877442925787
 20
-5.043490277777778
 30
0.0
 10
6.520751054343236
 20
-4.991298611111106
 30
0.0
 10
6.508612165761001
 20
-4.939100000000002
 30
0.0
 10
6.51226077677994
 20
-4.943949999999997
 30
0.0
 10
6.504963554742062
 20
-4.920884722222227
 30
0.0
 10
6.497680555555562
 20
-4.897827777777782
 30
0.0
 10
6.430894112168769
 20
-4.690233333333329
 30
0.0
 10
6.382351057839514
 20
-4.640448611111108
 30
0.0
 10
6.382351057839514
 20
-4.640448611111108
 30
0.0
 10
6.369017724843009
 20
-4.634393055555557
 30
0.0
 10
6.385986111111101
 20
-4.605251388888885
 30
0.0
 10
6.402994112873582
 20
-4.576111111111104
 30
0.0
 10
6.376288557992666
 20
-4.57490416666667
 30
0.0
 10
6.370212169257279
 20
-4.577331944444444
 30
0.0
 10
6.364162169410115
 20
-4.579752777777773
 30
0.0
 10
6.379909391234529
 20
-4.548183333333327
 30
0.0
 10
6.367784391540832
 20
-4.527554166666669
 30
0.0
 10
6.355631614070059
 20
-4.506916666666661
 30
0.0
 10
6.353203836353613
 20
-4.495984722222222
 30
0.0
 10
6.351996891939658
 20
-4.468072222222228
 30
0.0
 10
6.35078855863685
 20
-4.44014444444445
 30
0.0
 10
6.322848281564903
 20
-4.428005555555552
 30
0.0
 10
6.318006615020547
 20
-4.404927777777781
 30
0.0
 10
6.313151059587653
 20
-4.381862499999999
 30
0.0
 10
6.280367727082496
 20
-4.361233333333328
 30
0.0
 10
6.284016338101436
 20
-4.346666666666667
 30
0.0
 10
6.287651060231838
 20
-4.332098611111115
 30
0.0
 10
6.26459411636986
 20
-4.261684722222222
 30
0.0
 10
6.242742728032984
 20
-4.243476388888894
 30
0.0
 10
6.242742728032984
 20
-4.243476388888894
 30
0.0
 10
6.206312173397742
 20
-4.335740277777782
 30
0.0
 10
6.194199673703729
 20
-4.349101388888887
 30
0.0
 10
6.182033007344418
 20
-4.362454166666668
 30
0.0
 10
6.197821895834446
 20
-4.25561527777778
 30
0.0
 10
6.186916666666674
 20
-4.233765277777782
 30
0.0
 10
6.186916666666674
 20
-4.233765277777782
 30
0.0
 10
6.177177451911525
 20
-4.259263888888894
 30
0.0
 10
6.166287174408859
 20
-4.254401388888886
 30
0.0
 10
6.164320507791873
 20
-4.253547222222222
 30
0.0
 10
6.160806618991753
 20
-4.252176388888882
 30
0.0
 10
6.156358007993023
 20
-4.250597222222217
 30
0.0
 10
6.189764951593538
 20
-4.183879166666669
 30
0.0
 10
6.265773283006738
 20
-4.057040277777775
 30
0.0
 10
6.430894112168769
 20
-3.867140277777783
 30
0.0
 10
6.81940382457641
 20
-3.420390277777781
 30
0.0
 10
7.379258333333332
 20
-2.830166249999997
 30
0.0
 10
7.75659166666666
 20
-2.723551388888886
 30
0.0
  0
SPLINE
  5
42
330
1F
100
AcDbEntity
  8
Layer 1
 62
     7
420
 16777215
370
    18
100
AcDbSpline
210
0.0
220
0.0
230
1.0
 70
    11
 71
     3
 72
    89
 73
    85
 74
     0
 42
0.0000000001
 43
0.0000000001
 12
1.0
 22
0.0
 32
0.0
 13
1.0
 23
0.0
 33
0.0
 40
0.0
 40
0.0
 40
0.0
 40
0.0
 40
1.0
 40
1.0
 40
1.0
 40
2.0
 40
2.0
 40
2.0
 40
3.0
 40
3.0
 40
3.0
 40
4.0
 40
4.0
 40
4.0
 40
5.0
 40
5.0
 40
5.0
 40
6.0
 40
6.0
 40
6.0
 40
7.0
 40
7.0
 40
7.0
 40
8.0
 40
8.0
 40
8.0
 40
9.0
 40
9.0
 40
9.0
 40
10.0
 40
10.0
 40
10.0
 40
11.0
 40
11.0
 40
11.0
 40
12.0
 40
12.0
 40
12.0
 40
13.0
 40
13.0
 40
13.0
 40
14.0
 40
14.0
 40
14.0
 40
15.0
 40
15.0
 40
15.0
 40
16.0
 40
16.0
 40
16.0
 40
17.0
 40
17.0
 40
17.0
 40
18.0
 40
18.0
 40
18.0
 40
19.0
 40
19.0
 40
19.0
 40
20.0
 40
20.0
 40
20.0
 40
21.0
 40
21.0
 40
21.0
 40
22.0
 40
22.0
 40
22.0
 40
23.0
 40
23.0
 40
23.0
 40
24.0
 40
24.0
 40
24.0
 40
25.0
 40
25.0
 40
25.0
 40
26.0
 40
26.0
 40
26.0
 40
27.0
 40
27.0
 40
27.0
 40
28.0
 40
28.0
 40
28.0
 40
28.0
 10
5.893092736865886
 20
-4.267761111111112
 30
0.0
 10
5.890678848037977
 20
-4.279899999999998
 30
0.0
 10
5.868814959701417
 20
-4.213127777777774
 30
0.0
 10
5.860324682138121
 20
-4.242269444444446
 30
0.0
 10
5.851820515686287
 20
-4.271395833333334
 30
0.0
 10
5.797187183733109
 20
-4.478983333333328
 30
0.0
 10
5.77411496209374
 20
-4.494777777777775
 30
0.0
 10
5.751070518231447
 20
-4.51055972222222
 30
0.0
 10
5.718248296838383
 20
-4.491129166666661
 30
0.0
 10
5.713446908070788
 20
-4.529974999999998
 30
0.0
 10
5.708577463749356
 20
-4.568827777777781
 30
0.0
 10
5.743774685082422
 20
-4.597968055555561
 30
0.0
 10
5.743774685082422
 20
-4.597968055555561
 30
0.0
 10
5.743774685082422
 20
-4.597968055555561
 30
0.0
 10
5.707370519335401
 20
-4.594319444444446
 30
0.0
 10
5.707370519335401
 20
-4.594319444444446
 30
0.0
 10
5.707370519335401
 20
-4.594319444444446
 30
0.0
 10
5.700059408408984
 20
-4.596747222222221
 30
0.0
 10
5.70978440816331
 20
-4.614956944444442
 30
0.0
 10
5.719509407917636
 20
-4.633165277777784
 30
0.0
 10
5.73894551853775
 20
-4.648945833333338
 30
0.0
 10
5.717095519089727
 20
-4.662312499999997
 30
0.0
 10
5.695230241864313
 20
-4.675659722222222
 30
0.0
 10
5.69765801958076
 20
-4.690233333333329
 30
0.0
 10
5.689167742017465
 20
-4.709648611111106
 30
0.0
 10
5.680663575565632
 20
-4.72908472222222
 30
0.0
 10
5.630899687933884
 20
-4.891744444444448
 30
0.0
 10
5.621174688179559
 20
-4.923319444444448
 30
0.0
 10
5.611477466202309
 20
-4.954875000000002
 30
0.0
 10
5.5997316331657
 20
-4.973904166666671
 30
0.0
 10
5.601345522013818
 20
-5.041469444444449
 30
0.0
 10
5.601345522013818
 20
-5.041469444444449
 30
0.0
 10
5.44109413717322
 20
-4.834288888888889
 30
0.0
 10
5.405489971405991
 20
-4.730699999999993
 30
0.0
 10
5.369873305639076
 20
-4.627095833333328
 30
0.0
 10
5.376342749920089
 20
-4.72259583333333
 30
0.0
 10
5.376342749920089
 20
-4.72259583333333
 30
0.0
 10
5.376342749920089
 20
-4.72259583333333
 30
0.0
 10
5.363376083580988
 20
-4.795444444444443
 30
0.0
 10
5.339111111111101
 20
-4.719366666666663
 30
0.0
 10
5.314845529251417
 20
-4.643283333333329
 30
0.0
 10
5.295423307519841
 20
-4.552638888888888
 30
0.0
 10
5.28085664122116
 20
-4.541306944444449
 30
0.0
 10
5.266302474922163
 20
-4.529974999999998
 30
0.0
 10
5.271131641466834
 20
-4.565593055555559
 30
0.0
 10
5.258191364015955
 20
-4.562356944444446
 30
0.0
 10
5.245226086565708
 20
-4.559115277777778
 30
0.0
 10
5.21449136511991
 20
-4.520263888888886
 30
0.0
 10
5.204766365365584
 20
-4.529974999999998
 30
0.0
 10
5.195067754499481
 20
-4.539693055555555
 30
0.0
 10
5.144896922433569
 20
-4.531602777777784
 30
0.0
 10
5.169148310709816
 20
-4.499233333333336
 30
0.0
 10
5.193439976762824
 20
-4.466851388888888
 30
0.0
 10
5.237114975659501
 20
-4.474941666666672
 30
0.0
 10
5.264648308297283
 20
-4.439330555555557
 30
0.0
 10
5.292167752046528
 20
-4.403727777777779
 30
0.0
 10
5.279214974595965
 20
-4.421515277777782
 30
0.0
 10
5.287312196613635
 20
-4.366495833333336
 30
0.0
 10
5.295423307519841
 20
-4.311462499999998
 30
0.0
 10
5.250094141998286
 20
-4.136637500000006
 30
0.0
 10
5.204766365365584
 20
-4.057338888888883
 30
0.0
 10
5.159451088732567
 20
-3.978013888888894
 30
0.0
 10
5.144896922433569
 20
-4.021715277777781
 30
0.0
 10
5.144896922433569
 20
-4.021715277777781
 30
0.0
 10
5.144896922433569
 20
-4.021715277777781
 30
0.0
 10
5.118991367532443
 20
-4.024963888888894
 30
0.0
 10
5.125460811813455
 20
-3.994201388888895
 30
0.0
 10
5.131944444444444
 20
-3.963454166666666
 30
0.0
 10
5.149726088978241
 20
-3.939175000000002
 30
0.0
 10
5.14324275580869
 20
-3.867947222222218
 30
0.0
 10
5.136785811527361
 20
-3.796726388888891
 30
0.0
 10
5.10603859008188
 20
-3.586304166666663
 30
0.0
 10
5.096306645883285
 20
-3.447088888888894
 30
0.0
 10
5.090771923800881
 20
-3.367465277777784
 30
0.0
 10
5.093648312617106
 20
-3.277269444444439
 30
0.0
 10
5.084472222222226
 20
-3.200391666666671
 30
0.0
 10
5.301431640701392
 20
-3.426886111111116
 30
0.0
 10
5.516438579714304
 20
-3.69189444444444
 30
0.0
 10
5.692736111111117
 20
-3.920484722222227
 30
0.0
 10
5.811862183362387
 20
-4.074897222222224
 30
0.0
 10
5.879774681646773
 20
-4.188381944444447
 30
0.0
 10
5.917995514014566
 20
-4.263583333333334
 30
0.0
 10
5.909260792013002
 20
-4.260959722222221
 30
0.0
 10
5.895371903474976
 20
-4.256394444444443
 30
0.0
 10
5.893092736865886
 20
-4.267761111111112
 30
0.0
  0
SPLINE
  5
43
330
1F
100
AcDbEntity
  8
Layer 1
 62
     7
420
 16777215
370
    18
100
AcDbSpline
210
0.0
220
0.0
230
1.0
 70
    11
 71
     3
 72
    23
 73
    19
 74
     0
 42
0.0000000001
 43
0.0000000001
 12
1.0
 22
0.0
 32
0.0
 13
1.0
 23
0.0
 33
0.0
 40
0.0
 40
0.0
 40
0.0
 40
0.0
 40
1.0
 40
1.0
 40
1.0
 40
2.0
 40
2.0
 40
2.0
 40
3.0
 40
3.0
 40
3.0
 40
4.0
 40
4.0
 40
4.0
 40
5.0
 40
5.0
 40
5.0
 40
6.0
 40
6.0
 40
6.0
 40
6.0
 10
5.152587200017074
 20
-5.444119444444444
 30
0.0
 10
5.152587200017074
 20
-5.444119444444444
 30
0.0
 10
5.184109421442978
 20
-5.413770833333337
 30
0.0
 10
5.192626087894496
 20
-5.396783333333334
 30
0.0
 10
5.201117754346645
 20
-5.379774999999995
 30
0.0
 10
5.312798307080912
 20
-5.29601388888889
 30
0.0
 10
5.36014830588475
 20
-5.234111111111107
 30
0.0
 10
5.36014830588475
 20
-5.234111111111107
 30
0.0
 10
5.477919136242942
 20
-5.320284722222216
 30
0.0
 10
5.516737190817872
 20
-5.339722222222222
 30
0.0
 10
5.516737190817872
 20
-5.339722222222222
 30
0.0
 10
5.477919136242942
 20
-5.523023611111108
 30
0.0
 10
5.491264969239132
 20
-5.646849999999997
 30
0.0
 10
5.491264969239132
 20
-5.646849999999997
 30
0.0
 10
5.352891361623632
 20
-5.626220833333339
 30
0.0
 10
5.278821919050339
 20
-5.564311111111111
 30
0.0
 10
5.204766365365584
 20
-5.502401388888883
 30
0.0
 10
5.164699699711087
 20
-5.452630555555553
 30
0.0
 10
5.152587200017074
 20
-5.444119444444444
 30
0.0
  0
SPLINE
  5
44
330
1F
100
AcDbEntity
  8
Layer 1
 62
     7
420
 16777215
370
    18
100
AcDbSpline
210
0.0
220
0.0
230
1.0
 70
    11
 71
     3
 72
    59
 73
    55
 74
     0
 42
0.0000000001
 43
0.0000000001
 12
1.0
 22
0.0
 32
0.0
 13
1.0
 23
0.0
 33
0.0
 40
0.0
 40
0.0
 40
0.0
 40
0.0
 40
1.0
 40
1.0
 40
1.0
 40
2.0
 40
2.0
 40
2.0
 40
3.0
 40
3.0
 40
3.0
 40
4.0
 40
4.0
 40
4.0
 40
5.0
 40
5.0
 40
5.0
 40
6.0
 40
6.0
 40
6.0
 40
7.0
 40
7.0
 40
7.0
 40
8.0
 40
8.0
 40
8.0
 40
9.0
 40
9.0
 40
9.0
 40
10.0
 40
10.0
 40
10.0
 40
11.0
 40
11.0
 40
11.0
 40
12.0
 40
12.0
 40
12.0
 40
13.0
 40
13.0
 40
13.0
 40
14.0
 40
14.0
 40
14.0
 40
15.0
 40
15.0
 40
15.0
 40
16.0
 40
16.0
 40
16.0
 40
17.0
 40
17.0
 40
17.0
 40
18.0
 40
18.0
 40
18.0
 40
18.0
 10
4.611125000000002
 20
-6.581651388888885
 30
0.0
 10
4.611125000000002
 20
-6.581651388888885
 30
0.0
 10
4.761658043226109
 20
-6.384969444444449
 30
0.0
 10
4.816296930734703
 20
-6.347337500000018
 30
0.0
 10
4.870910818243929
 20
-6.309698611111116
 30
0.0
 10
4.898830261983069
 20
-6.308498611111114
 30
0.0
 10
4.90735526176771
 20
-6.313347222222218
 30
0.0
 10
4.915845539331005
 20
-6.318197222222225
 30
0.0
 10
4.926751094611063
 20
-6.315775000000005
 30
0.0
 10
4.957105260510919
 20
-6.315775000000005
 30
0.0
 10
4.98745387085536
 20
-6.315775000000005
 30
0.0
 10
5.082139979574499
 20
-6.291490277777787
 30
0.0
 10
5.155002477733837
 20
-6.296345833333336
 30
0.0
 10
5.227823309227561
 20
-6.301208333333332
 30
0.0
 10
5.403862193669334
 20
-6.280565277777795
 30
0.0
 10
5.426920526420164
 20
-6.274508333333339
 30
0.0
 10
5.450005248059218
 20
-6.268426388888884
 30
0.0
 10
5.464571914357899
 20
-6.281772222222217
 30
0.0
 10
5.488851080411223
 20
-6.283000000000002
 30
0.0
 10
5.513156635352768
 20
-6.284213888888896
 30
0.0
 10
5.645439965344344
 20
-6.257500000000012
 30
0.0
 10
5.653944444444455
 20
-6.262355555555561
 30
0.0
 10
5.66244829824801
 20
-6.267218055555556
 30
0.0
 10
5.675794131244199
 20
-6.296345833333336
 30
0.0
 10
5.68672607541248
 20
-6.304856944444459
 30
0.0
 10
5.68672607541248
 20
-6.304856944444459
 30
0.0
 10
5.618733021574573
 20
-6.331563888888872
 30
0.0
 10
5.590806633391164
 20
-6.338847222222234
 30
0.0
 10
5.562892745207439
 20
-6.346123611111125
 30
0.0
 10
5.515530246403917
 20
-6.349772222222226
 30
0.0
 10
5.497313580197442
 20
-6.366759722222215
 30
0.0
 10
5.479126080656897
 20
-6.383762500000001
 30
0.0
 10
5.431776081853059
 20
-6.426255555555549
 30
0.0
 10
5.389267749593576
 20
-6.445665277777784
 30
0.0
 10
5.346788584000024
 20
-6.465094444444427
 30
0.0
 10
5.259399697318764
 20
-6.518513888888871
 30
0.0
 10
5.216931642836041
 20
-6.529431944444442
 30
0.0
 10
5.174396921688336
 20
-6.540377777777772
 30
0.0
 10
5.195067754499481
 20
-6.562222222222216
 30
0.0
 10
5.195067754499481
 20
-6.562222222222216
 30
0.0
 10
5.195067754499481
 20
-6.562222222222216
 30
0.0
 10
5.10035525689212
 20
-6.611986111111112
 30
0.0
 10
5.055426091360459
 20
-6.676330555555573
 30
0.0
 10
5.055426091360459
 20
-6.676330555555573
 30
0.0
 10
4.881869151300432
 20
-6.669061111111104
 30
0.0
 10
4.817505264037512
 20
-6.673909722222207
 30
0.0
 10
4.75315943232969
 20
-6.678765277777782
 30
0.0
 10
4.686387211794277
 20
-6.670261111111105
 30
0.0
 10
4.668185823365193
 20
-6.664198611111108
 30
0.0
 10
4.649970546047572
 20
-6.658122222222219
 30
0.0
 10
4.658480268054821
 20
-6.669061111111104
 30
0.0
 10
4.658480268054821
 20
-6.669061111111104
 30
0.0
 10
4.658480268054821
 20
-6.669061111111104
 30
0.0
 10
4.614773324714506
 20
-6.607137499999983
 30
0.0
 10
4.611125000000002
 20
-6.581651388888885
 30
0.0
  0
SPLINE
  5
45
330
1F
100
AcDbEntity
  8
Layer 1
 62
     7
420
 16777215
370
    18
100
AcDbSpline
210
0.0
220
0.0
230
1.0
 70
    11
 71
     3
 72
    23
 73
    19
 74
     0
 42
0.0000000001
 43
0.0000000001
 12
1.0
 22
0.0
 32
0.0
 13
1.0
 23
0.0
 33
0.0
 40
0.0
 40
0.0
 40
0.0
 40
0.0
 40
1.0
 40
1.0
 40
1.0
 40
2.0
 40
2.0
 40
2.0
 40
3.0
 40
3.0
 40
3.0
 40
4.0
 40
4.0
 40
4.0
 40
5.0
 40
5.0
 40
5.0
 40
6.0
 40
6.0
 40
6.0
 40
6.0
 10
6.58047049727904
 20
-5.313619444444448
 30
0.0
 10
6.58047049727904
 20
-5.313619444444448
 30
0.0
 10
6.731309382357418
 20
-5.211683333333339
 30
0.0
 10
6.781032992212405
 20
-5.145399999999995
 30
0.0
 10
6.781032992212405
 20
-5.145399999999995
 30
0.0
 10
6.803398269425188
 20
-5.182691666666667
 30
0.0
 10
6.884630211817542
 20
-5.19180694444444
 30
0.0
 10
6.884630211817542
 20
-5.19180694444444
 30
0.0
 10
6.875474656493274
 20
-5.220811111111112
 30
0.0
 10
6.86966910108438
 20
-5.226609722222216
 30
0.0
 10
6.863905212341099
 20
-5.232401388888889
 30
0.0
 10
6.844820490600998
 20
-5.239861111111117
 30
0.0
 10
6.825751046638288
 20
-5.265556944444445
 30
0.0
 10
6.806694444444449
 20
-5.291238888888882
 30
0.0
 10
6.771891325776677
 20
-5.375780555555555
 30
0.0
 10
6.595403830235126
 20
-5.478522222222219
 30
0.0
 10
6.595403830235126
 20
-5.478522222222219
 30
0.0
 10
6.588744108181142
 20
-5.345940277777774
 30
0.0
 10
6.58047049727904
 20
-5.313619444444448
 30
0.0
  0
SPLINE
  5
46
330
1F
100
AcDbEntity
  8
Layer 1
 62
     7
420
 16777215
370
    18
100
AcDbSpline
210
0.0
220
0.0
230
1.0
 70
    11
 71
     3
 72
    41
 73
    37
 74
     0
 42
0.0000000001
 43
0.0000000001
 12
1.0
 22
0.0
 32
0.0
 13
1.0
 23
0.0
 33
0.0
 40
0.0
 40
0.0
 40
0.0
 40
0.0
 40
1.0
 40
1.0
 40
1.0
 40
2.0
 40
2.0
 40
2.0
 40
3.0
 40
3.0
 40
3.0
 40
4.0
 40
4.0
 40
4.0
 40
5.0
 40
5.0
 40
5.0
 40
6.0
 40
6.0
 40
6.0
 40
7.0
 40
7.0
 40
7.0
 40
8.0
 40
8.0
 40
8.0
 40
9.0
 40
9.0
 40
9.0
 40
10.0
 40
10.0
 40
10.0
 40
11.0
 40
11.0
 40
11.0
 40
12.0
 40
12.0
 40
12.0
 40
12.0
 10
6.587103830444802
 20
-5.613599999999994
 30
0.0
 10
6.587103830444802
 20
-5.613599999999994
 30
0.0
 10
6.767007992566707
 20
-5.513549999999996
 30
0.0
 10
6.873861111111106
 20
-5.402295833333331
 30
0.0
 10
6.893757989364732
 20
-5.381570833333336
 30
0.0
 10
6.924396877479618
 20
-5.33930833333333
 30
0.0
 10
6.951727432344746
 20
-5.324374999999994
 30
0.0
 10
6.979071876098411
 20
-5.309481944444441
 30
0.0
 10
6.97243854293265
 20
-5.287095833333334
 30
0.0
 10
6.962524654294207
 20
-5.27631944444445
 30
0.0
 10
6.962524654294207
 20
-5.27631944444445
 30
0.0
 10
6.991495486895675
 20
-5.252291666666665
 30
0.0
 10
6.991495486895675
 20
-5.234890277777771
 30
0.0
 10
6.991495486895675
 20
-5.234890277777771
 30
0.0
 10
7.079345484676398
 20
-5.331020833333329
 30
0.0
 10
7.0959468731459
 20
-5.368319444444447
 30
0.0
 10
7.112494094950105
 20
-5.405619444444445
 30
0.0
 10
7.106702428429748
 20
-5.408080555555557
 30
0.0
 10
7.115817705977254
 20
-5.422180555555554
 30
0.0
 10
7.124931594635907
 20
-5.436265277777781
 30
0.0
 10
7.146470482980678
 20
-5.494276388888895
 30
0.0
 10
7.134887149939964
 20
-5.505866666666671
 30
0.0
 10
7.12327777777778
 20
-5.517476388888895
 30
0.0
 10
6.996487153436242
 20
-5.603658333333328
 30
0.0
 10
6.959187154378519
 20
-5.621066666666668
 30
0.0
 10
6.921914933097873
 20
-5.638474999999996
 30
0.0
 10
6.85320382372255
 20
-5.67688055555555
 30
0.0
 10
6.727145493573718
 20
-5.714708333333331
 30
0.0
 10
6.718871882671616
 20
-5.717197222222226
 30
0.0
 10
6.615288551955018
 20
-5.75365555555556
 30
0.0
 10
6.615288551955018
 20
-5.75365555555556
 30
0.0
 10
6.615288551955018
 20
-5.75365555555556
 30
0.0
 10
6.60036910788747
 20
-5.732944444444443
 30
0.0
 10
6.588744108181142
 20
-5.743713888888894
 30
0.0
 10
6.577148275140744
 20
-5.754495833333332
 30
0.0
 10
6.589599663715084
 20
-5.685709722222226
 30
0.0
 10
6.587103830444802
 20
-5.613599999999994
 30
0.0
  0
HATCH
  5
47
330
1F
100
AcDbEntity
  8
Layer 1
 62
     7
420
 16777215
100
AcDbHatch
 10
0.0
 20
0.0
 30
0.0
210
0.0
220
0.0
230
1.0
  2
SOLID
 70
     1
 71
     0
 91
        6
 92
        1
 93
        1
 72
     4
 94
        3
 73
     0
 74
     1
 95
      800
 96
      796
 40
0.0
 40
0.0
 40
0.0
 40
0.0
 40
1.0
 40
1.0
 40
1.0
 40
2.0
 40
2.0
 40
2.0
 40
3.0
 40
3.0
 40
3.0
 40
4.0
 40
4.0
 40
4.0
 40
5.0
 40
5.0
 40
5.0
 40
6.0
 40
6.0
 40
6.0
 40
7.0
 40
7.0
 40
7.0
 40
8.0
 40
8.0
 40
8.0
 40
9.0
 40
9.0
 40
9.0
 40
10.0
 40
10.0
 40
10.0
 40
11.0
 40
11.0
 40
11.0
 40
12.0
 40
12.0
 40
12.0
 40
13.0
 40
13.0
 40
13.0
 40
14.0
 40
14.0
 40
14.0
 40
15.0
 40
15.0
 40
15.0
 40
16.0
 40
16.0
 40
16.0
 40
17.0
 40
17.0
 40
17.0
 40
18.0
 40
18.0
 40
18.0
 40
19.0
 40
19.0
 40
19.0
 40
20.0
 40
20.0
 40
20.0
 40
21.0
 40
21.0
 40
21.0
 40
22.0
 40
22.0
 40
22.0
 40
23.0
 40
23.0
 40
23.0
 40
24.0
 40
24.0
 40
24.0
 40
25.0
 40
25.0
 40
25.0
 40
26.0
 40
26.0
 40
26.0
 40
27.0
 40
27.0
 40
27.0
 40
28.0
 40
28.0
 40
28.0
 40
29.0
 40
29.0
 40
29.0
 40
30.0
 40
30.0
 40
30.0
 40
31.0
 40
31.0
 40
31.0
 40
32.0
 40
32.0
 40
32.0
 40
33.0
 40
33.0
 40
33.0
 40
34.0
 40
34.0
 40
34.0
 40
35.0
 40
35.0
 40
35.0
 40
36.0
 40
36.0
 40
36.0
 40
37.0
 40
37.0
 40
37.0
 40
38.0
 40
38.0
 40
38.0
 40
39.0
 40
39.0
 40
39.0
 40
40.0
 40
40.0
 40
40.0
 40
41.0
 40
41.0
 40
41.0
 40
42.0
 40
42.0
 40
42.0
 40
43.0
 40
43.0
 40
43.0
 40
44.0
 40
44.0
 40
44.0
 40
45.0
 40
45.0
 40
45.0
 40
46.0
 40
46.0
 40
46.0
 40
47.0
 40
47.0
 40
47.0
 40
48.0
 40
48.0
 40
48.0
 40
49.0
 40
49.0
 40
49.0
 40
50.0
 40
50.0
 40
50.0
 40
51.0
 40
51.0
 40
51.0
 40
52.0
 40
52.0
 40
52.0
 40
53.0
 40
53.0
 40
53.0
 40
54.0
 40
54.0
 40
54.0
 40
55.0
 40
55.0
 40
55.0
 40
56.0
 40
56.0
 40
56.0
 40
57.0
 40
57.0
 40
57.0
 40
58.0
 40
58.0
 40
58.0
 40
59.0
 40
59.0
 40
59.0
 40
60.0
 40
60.0
 40
60.0
 40
61.0
 40
61.0
 40
61.0
 40
62.0
 40
62.0
 40
62.0
 40
63.0
 40
63.0
 40
63.0
 40
64.0
 40
64.0
 40
64.0
 40
65.0
 40
65.0
 40
65.0
 40
66.0
 40
66.0
 40
66.0
 40
67.0
 40
67.0
 40
67.0
 40
68.0
 40
68.0
 40
68.0
 40
69.0
 40
69.0
 40
69.0
 40
70.0
 40
70.0
 40
70.0
 40
71.0
 40
71.0
 40
71.0
 40
72.0
 40
72.0
 40
72.0
 40
73.0
 40
73.0
 40
73.0
 40
74.0
 40
74.0
 40
74.0
 40
75.0
 40
75.0
 40
75.0
 40
76.0
 40
76.0
 40
76.0
 40
77.0
 40
77.0
 40
77.0
 40
78.0
 40
78.0
 40
78.0
 40
79.0
 40
79.0
 40
79.0
 40
80.0
 40
80.0
 40
80.0
 40
81.0
 40
81.0
 40
81.0
 40
82.0
 40
82.0
 40
82.0
 40
83.0
 40
83.0
 40
83.0
 40
84.0
 40
84.0
 40
84.0
 40
85.0
 40
85.0
 40
85.0
 40
86.0
 40
86.0
 40
86.0
 40
87.0
 40
87.0
 40
87.0
 40
88.0
 40
88.0
 40
88.0
 40
89.0
 40
89.0
 40
89.0
 40
90.0
 40
90.0
 40
90.0
 40
91.0
 40
91.0
 40
91.0
 40
92.0
 40
92.0
 40
92.0
 40
93.0
 40
93.0
 40
93.0
 40
94.0
 40
94.0
 40
94.0
 40
95.0
 40
95.0
 40
95.0
 40
96.0
 40
96.0
 40
96.0
 40
97.0
 40
97.0
 40
97.0
 40
98.0
 40
98.0
 40
98.0
 40
99.0
 40
99.0
 40
99.0
 40
100.0
 40
100.0
 40
100.0
 40
101.0
 40
101.0
 40
101.0
 40
102.0
 40
102.0
 40
102.0
 40
103.0
 40
103.0
 40
103.0
 40
104.0
 40
104.0
 40
104.0
 40
105.0
 40
105.0
 40
105.0
 40
106.0
 40
106.0
 40
106.0
 40
107.0
 40
107.0
 40
107.0
 40
108.0
 40
108.0
 40
108.0
 40
109.0
 40
109.0
 40
109.0
 40
110.0
 40
110.0
 40
110.0
 40
111.0
 40
111.0
 40
111.0
 40
112.0
 40
112.0
 40
112.0
 40
113.0
 40
113.0
 40
113.0
 40
114.0
 40
114.0
 40
114.0
 40
115.0
 40
115.0
 40
115.0
 40
116.0
 40
116.0
 40
116.0
 40
117.0
 40
117.0
 40
117.0
 40
118.0
 40
118.0
 40
118.0
 40
119.0
 40
119.0
 40
119.0
 40
120.0
 40
120.0
 40
120.0
 40
121.0
 40
121.0
 40
121.0
 40
122.0
 40
122.0
 40
122.0
 40
123.0
 40
123.0
 40
123.0
 40
124.0
 40
124.0
 40
124.0
 40
125.0
 40
125.0
 40
125.0
 40
126.0
 40
126.0
 40
126.0
 40
127.0
 40
127.0
 40
127.0
 40
128.0
 40
128.0
 40
128.0
 40
129.0
 40
129.0
 40
129.0
 40
130.0
 40
130.0
 40
130.0
 40
131.0
 40
131.0
 40
131.0
 40
132.0
 40
132.0
 40
132.0
 40
133.0
 40
133.0
 40
133.0
 40
134.0
 40
134.0
 40
134.0
 40
135.0
 40
135.0
 40
135.0
 40
136.0
 40
136.0
 40
136.0
 40
137.0
 40
137.0
 40
137.0
 40
138.0
 40
138.0
 40
138.0
 40
139.0
 40
139.0
 40
139.0
 40
140.0
 40
140.0
 40
140.0
 40
141.0
 40
141.0
 40
141.0
 40
142.0
 40
142.0
 40
142.0
 40
143.0
 40
143.0
 40
143.0
 40
144.0
 40
144.0
 40
144.0
 40
145.0
 40
145.0
 40
145.0
 40
146.0
 40
146.0
 40
146.0
 40
147.0
 40
147.0
 40
147.0
 40
148.0
 40
148.0
 40
148.0
 40
149.0
 40
149.0
 40
149.0
 40
150.0
 40
150.0
 40
150.0
 40
151.0
 40
151.0
 40
151.0
 40
152.0
 40
152.0
 40
152.0
 40
153.0
 40
153.0
 40
153.0
 40
154.0
 40
154.0
 40
154.0
 40
155.0
 40
155.0
 40
155.0
 40
156.0
 40
156.0
 40
156.0
 40
157.0
 40
157.0
 40
157.0
 40
158.0
 40
158.0
 40
158.0
 40
159.0
 40
159.0
 40
159.0
 40
160.0
 40
160.0
 40
160.0
 40
161.0
 40
161.0
 40
161.0
 40
162.0
 40
162.0
 40
162.0
 40
163.0
 40
163.0
 40
163.0
 40
164.0
 40
164.0
 40
164.0
 40
165.0
 40
165.0
 40
165.0
 40
166.0
 40
166.0
 40
166.0
 40
167.0
 40
167.0
 40
167.0
 40
168.0
 40
168.0
 40
168.0
 40
169.0
 40
169.0
 40
169.0
 40
170.0
 40
170.0
 40
170.0
 40
171.0
 40
171.0
 40
171.0
 40
172.0
 40
172.0
 40
172.0
 40
173.0
 40
173.0
 40
173.0
 40
174.0
 40
174.0
 40
174.0
 40
175.0
 40
175.0
 40
175.0
 40
176.0
 40
176.0
 40
176.0
 40
177.0
 40
177.0
 40
177.0
 40
178.0
 40
178.0
 40
178.0
 40
179.0
 40
179.0
 40
179.0
 40
180.0
 40
180.0
 40
180.0
 40
181.0
 40
181.0
 40
181.0
 40
182.0
 40
182.0
 40
182.0
 40
183.0
 40
183.0
 40
183.0
 40
184.0
 40
184.0
 40
184.0
 40
185.0
 40
185.0
 40
185.0
 40
186.0
 40
186.0
 40
186.0
 40
187.0
 40
187.0
 40
187.0
 40
188.0
 40
188.0
 40
188.0
 40
189.0
 40
189.0
 40
189.0
 40
190.0
 40
190.0
 40
190.0
 40
191.0
 40
191.0
 40
191.0
 40
192.0
 40
192.0
 40
192.0
 40
193.0
 40
193.0
 40
193.0
 40
194.0
 40
194.0
 40
194.0
 40
195.0
 40
195.0
 40
195.0
 40
196.0
 40
196.0
 40
196.0
 40
197.0
 40
197.0
 40
197.0
 40
198.0
 40
198.0
 40
198.0
 40
199.0
 40
199.0
 40
199.0
 40
200.0
 40
200.0
 40
200.0
 40
201.0
 40
201.0
 40
201.0
 40
202.0
 40
202.0
 40
202.0
 40
203.0
 40
203.0
 40
203.0
 40
204.0
 40
204.0
 40
204.0
 40
205.0
 40
205.0
 40
205.0
 40
206.0
 40
206.0
 40
206.0
 40
207.0
 40
207.0
 40
207.0
 40
208.0
 40
208.0
 40
208.0
 40
209.0
 40
209.0
 40
209.0
 40
210.0
 40
210.0
 40
210.0
 40
211.0
 40
211.0
 40
211.0
 40
212.0
 40
212.0
 40
212.0
 40
213.0
 40
213.0
 40
213.0
 40
214.0
 40
214.0
 40
214.0
 40
215.0
 40
215.0
 40
215.0
 40
216.0
 40
216.0
 40
216.0
 40
217.0
 40
217.0
 40
217.0
 40
218.0
 40
218.0
 40
218.0
 40
219.0
 40
219.0
 40
219.0
 40
220.0
 40
220.0
 40
220.0
 40
221.0
 40
221.0
 40
221.0
 40
222.0
 40
222.0
 40
222.0
 40
223.0
 40
223.0
 40
223.0
 40
224.0
 40
224.0
 40
224.0
 40
225.0
 40
225.0
 40
225.0
 40
226.0
 40
226.0
 40
226.0
 40
227.0
 40
227.0
 40
227.0
 40
228.0
 40
228.0
 40
228.0
 40
229.0
 40
229.0
 40
229.0
 40
230.0
 40
230.0
 40
230.0
 40
231.0
 40
231.0
 40
231.0
 40
232.0
 40
232.0
 40
232.0
 40
233.0
 40
233.0
 40
233.0
 40
234.0
 40
234.0
 40
234.0
 40
235.0
 40
235.0
 40
235.0
 40
236.0
 40
236.0
 40
236.0
 40
237.0
 40
237.0
 40
237.0
 40
238.0
 40
238.0
 40
238.0
 40
239.0
 40
239.0
 40
239.0
 40
240.0
 40
240.0
 40
240.0
 40
241.0
 40
241.0
 40
241.0
 40
242.0
 40
242.0
 40
242.0
 40
243.0
 40
243.0
 40
243.0
 40
244.0
 40
244.0
 40
244.0
 40
245.0
 40
245.0
 40
245.0
 40
246.0
 40
246.0
 40
246.0
 40
247.0
 40
247.0
 40
247.0
 40
248.0
 40
248.0
 40
248.0
 40
249.0
 40
249.0
 40
249.0
 40
250.0
 40
250.0
 40
250.0
 40
251.0
 40
251.0
 40
251.0
 40
252.0
 40
252.0
 40
252.0
 40
253.0
 40
253.0
 40
253.0
 40
254.0
 40
254.0
 40
254.0
 40
255.0
 40
255.0
 40
255.0
 40
256.0
 40
256.0
 40
256.0
 40
257.0
 40
257.0
 40
257.0
 40
258.0
 40
258.0
 40
258.0
 40
259.0
 40
259.0
 40
259.0
 40
260.0
 40
260.0
 40
260.0
 40
261.0
 40
261.0
 40
261.0
 40
262.0
 40
262.0
 40
262.0
 40
263.0
 40
263.0
 40
263.0
 40
264.0
 40
264.0
 40
264.0
 40
265.0
 40
265.0
 40
265.0
 40
265.0
 10
7.75659166666666
 20
-2.723551388888886
 10
7.75659166666666
 20
-2.723551388888886
 10
7.761433333333343
 20
-2.715657499999995
 10
7.750705555555568
 20
-2.716851111111105
 10
7.750705555555568
 20
-2.716851111111105
 10
7.742051388888891
 20
-2.718695694444439
 10
7.742051388888891
 20
-2.718695694444439
 10
7.364677777777766
 20
-2.82531055555555
 10
6.780544103335867
 20
-3.403387499999995
 10
6.39207605759384
 20
-3.850138888888889
 10
6.222995506309618
 20
-4.044576388888887
 10
6.147244119334371
 20
-4.172980555555556
 10
6.115098286813109
 20
-4.238369444444439
 10
6.102919120454114
 20
-4.235683333333327
 10
6.09313995403449
 20
-4.234850000000001
 10
6.092203842947027
 20
-4.238613888888886
 10
6.089952454115013
 20
-4.24768055555555
 10
6.084445509809686
 20
-4.259691666666665
 10
6.074842732274495
 20
-4.255370833333333
 10
6.081733009878209
 20
-4.103712500000003
 10
6.128716342024644
 20
-3.93960972222222
 10
6.128716342024644
 20
-3.93960972222222
 10
6.088948287473714
 20
-4.01240416666667
 10
6.070203843502794
 20
-4.125061111111108
 10
6.061441343724153
 20
-4.208136111111116
 10
6.048542732938889
 20
-4.054362499999999
 10
6.097710787252354
 20
-3.915018055555556
 10
6.097710787252354
 20
-3.915018055555556
 10
6.049276066253697
 20
-3.997381944444442
 10
6.0435246775101
 20
-4.161458333333333
 10
6.04360523306362
 20
-4.236762500000004
 10
6.038208333333336
 20
-4.235161111111109
 10
6.033691344425177
 20
-4.235826388888894
 10
6.031508011146999
 20
-4.241055555555552
 10
6.030014955629162
 20
-4.244561111111112
 10
6.028130233454552
 20
-4.247701388888887
 10
6.025892733511076
 20
-4.250258333333337
 10
6.013698289374688
 20
-4.123412499999997
 10
6.043226066406532
 20
-3.954583333333327
 10
6.043226066406532
 20
-3.954583333333327
 10
6.009630233921901
 20
-4.107001388888888
 10
6.007269122870436
 20
-4.204962500000002
 10
6.010185789463422
 20
-4.256754166666661
 10
6.00928995615272
 20
-4.256638888888889
 10
6.008421900619092
 20
-4.256645833333335
 10
6.00752777777777
 20
-4.256388888888889
 10
5.973130234843969
 20
-4.126200000000002
 10
5.968396901630209
 20
-3.966329166666671
 10
5.968396901630209
 20
-3.966329166666671
 10
5.968396901630209
 20
-3.966329166666671
 10
5.980170512443894
 20
-3.826320833333334
 10
5.966281623905868
 20
-3.970601388888895
 10
5.956027777777788
 20
-4.076998611111106
 10
5.979491345794385
 20
-4.192640277777778
 10
5.992526067687322
 20
-4.246052777777777
 10
5.979302456910268
 20
-4.233954166666662
 10
5.972696901521582
 20
-4.229227777777774
 10
5.967162179439179
 20
-4.245904166666668
 10
5.965969123913762
 20
-4.249491666666661
 10
5.96370384619321
 20
-4.252448611111112
 10
5.960828846265839
 20
-4.254895833333332
 10
5.923177458328104
 20
-4.179795833333338
 10
5.854844126721016
 20
-4.064419444444448
 10
5.732516352033498
 20
-3.905795833333336
 10
5.547010801164206
 20
-3.665304166666664
 10
5.31213302931994
 20
-3.387301388888886
 10
5.077331646362634
 20
-3.156195833333337
 10
5.069206646567888
 20
-3.117431944444446
 10
5.056152777777773
 20
-3.084119444444443
 10
5.034803869659198
 20
-3.060220833333334
 10
4.966830260265245
 20
-2.984158333333337
 10
4.976528871131348
 20
-3.031087499999999
 10
4.978142759979467
 20
-3.04565416666666
 10
4.978623315522882
 20
-3.050022222222222
 10
4.980128871040405
 20
-3.056600000000003
 10
4.981702482111763
 20
-3.064730555555558
 10
4.791503875805473
 20
-2.88842777777778
 10
4.605848324939971
 20
-2.750698472222224
 10
4.451280273289133
 20
-2.697062180555551
 10
4.451280273289133
 20
-2.697062180555551
 10
4.442736111111117
 20
-2.694708930555559
 10
4.442736111111117
 20
-2.694708930555559
 10
4.43212194043978
 20
-2.692898222222223
 10
4.436476106996452
 20
-2.701049805555549
 10
4.436476106996452
 20
-2.701049805555549
 10
4.598930555555549
 20
-2.757432777777783
 10
4.790974709152175
 20
-2.908759722222221
 10
4.985894148672539
 20
-3.100436111111106
 10
4.986253870885674
 20
-3.113098611111114
 10
4.985222222222218
 20
-3.126926388888895
 10
4.981391371008511
 20
-3.141175
 10
4.97007192685002
 20
-3.183247222222222
 10
4.966830260265245
 20
-3.272277777777781
 10
4.96358859368047
 20
-3.311123611111106
 10
4.960339982651425
 20
-3.349974999999997
 10
4.927984427913239
 20
-3.487562500000005
 10
4.934441372194568
 20
-3.565259722222221
 10
4.94091776091985
 20
-3.642958333333329
 10
4.960339982651425
 20
-3.900316666666665
 10
4.953863593926144
 20
-3.916504166666666
 10
4.947408038533669
 20
-3.932698611111113
 10
4.908555555555558
 20
-3.935912499999997
 10
4.897237206467758
 20
-3.895459722222224
 10
4.885891373421044
 20
-3.854994444444439
 10
4.882676095724491
 20
-3.73844444444444
 10
4.83734137464752
 20
-3.699605555555561
 10
4.792012209125965
 20
-3.660759722222224
 10
4.777445542827283
 20
-3.519937499999994
 10
4.772583333333336
 20
-3.460041666666661
 10
4.767734431961495
 20
-3.400145833333327
 10
4.756401098914466
 20
-3.34835416666667
 10
4.73049554401334
 20
-3.285237499999994
 10
4.704616378000436
 20
-3.222093055555559
 10
4.706794155723198
 20
-3.124152777777782
 10
4.712694444444448
 20
-3.065097222222221
 10
4.71431498886654
 20
-3.048895833333328
 10
4.62043582457146
 20
-3.116881944444445
 10
4.622070546752385
 20
-3.205912500000004
 10
4.623684435600504
 20
-3.294941666666672
 10
4.62043582457146
 20
-3.406623611111109
 10
4.630146935437248
 20
-3.463270833333329
 10
4.639864990747305
 20
-3.51993194444444
 10
4.667378878941134
 20
-3.830729166666667
 10
4.667378878941134
 20
-3.885748611111113
 10
4.667378878941134
 20
-3.940781944444439
 10
4.693263888888888
 20
-4.178724999999998
 10
4.732109432861458
 20
-4.316325000000006
 10
4.770995542990224
 20
-4.453905555555555
 10
4.83085804147797
 20
-4.622233333333333
 10
4.876173318110987
 20
-4.641662500000002
 10
4.921495539188274
 20
-4.661098611111115
 10
4.937683038779343
 20
-4.659484722222222
 10
4.937683038779343
 20
-4.659484722222222
 10
4.937683038779343
 20
-4.659484722222222
 10
4.911803872766439
 20
-4.696702777777773
 10
4.919874999999997
 20
-4.714504166666668
 10
4.927984427913239
 20
-4.732313888888888
 10
4.957105260510919
 20
-4.779255555555551
 10
4.971666666666667
 20
-4.801927777777778
 10
4.986253870885674
 20
-4.824577777777777
 10
5.002434426032474
 20
-4.834288888888889
 10
5.026719147641213
 20
-4.835904166666662
 10
5.051012202583075
 20
-4.837530555555556
 10
5.057467757975549
 20
-4.868293055555555
 10
5.051012202583075
 20
-4.873141666666672
 10
5.044521924969255
 20
-4.877990277777775
 10
5.013780259079188
 20
-4.871527777777778
 10
5.028347222222224
 20
-4.897420833333336
 10
5.042908036121136
 20
-4.923319444444448
 10
5.0639510911451
 20
-4.955695833333329
 10
5.101183034648986
 20
-4.986450000000003
 10
5.138399700375481
 20
-5.017191666666664
 10
5.28085664122116
 20
-5.13859027777778
 10
5.28085664122116
 20
-5.13859027777778
 10
5.28085664122116
 20
-5.13859027777778
 10
5.161078866469223
 20
-5.255133333333333
 10
5.140027777777783
 20
-5.297227777777784
 10
5.140027777777783
 20
-5.297227777777784
 10
5.089837201602273
 20
-5.311787499999999
 10
5.047770535998299
 20
-5.360358333333338
 10
5.005683037061519
 20
-5.408922222222221
 10
4.991116370762837
 20
-5.460713888888891
 10
4.997571926155311
 20
-5.478515277777774
 10
5.004055555555561
 20
-5.496324999999993
 10
5.008924703646294
 20
-5.50280694444445
 10
5.004055555555561
 20
-5.517368055555557
 10
4.999219148335921
 20
-5.531927777777772
 10
5.015380259038769
 20
-5.52547222222222
 10
5.033209425255032
 20
-5.543280555555561
 10
5.051012202583075
 20
-5.561076388888889
 10
5.271131641466834
 20
-5.750440277777771
 10
5.512301079818826
 20
-5.773119444444445
 10
5.512301079818826
 20
-5.773119444444445
 10
5.515530246403917
 20
-5.847581944444439
 10
5.539835801345462
 20
-5.920430555555551
 10
5.539835801345462
 20
-5.920430555555551
 10
5.423285804289763
 20
-5.886427777777777
 10
5.402248304821215
 20
-5.896138888888887
 10
5.381184416464444
 20
-5.905849999999999
 10
5.314845529251417
 20
-5.888034722222224
 10
5.245226086565708
 20
-5.865376388888889
 10
5.175631643879367
 20
-5.84272638888889
 10
4.947408038533669
 20
-5.763406944444442
 10
4.915038594906946
 20
-5.745598611111114
 10
4.882676095724491
 20
-5.727797222222218
 10
4.851894152057664
 20
-5.737529166666667
 10
4.851894152057664
 20
-5.737529166666667
 10
4.851894152057664
 20
-5.737529166666667
 10
4.736972222222221
 20
-5.672763888888893
 10
4.670606656637371
 20
-5.687330555555554
 10
4.604253880535806
 20
-5.701911111111106
 10
4.448859440016955
 20
-5.739122222222224
 10
4.390591385933375
 20
-5.811963888888891
 10
4.332302498516987
 20
-5.884800000000003
 10
4.372781664161064
 20
-6.001343055555556
 10
4.382494163915705
 20
-6.009440277777773
 10
4.392212219225763
 20
-6.017530555555569
 10
4.416483051945963
 20
-6.001356944444447
 10
4.435906662566392
 20
-5.964118055555559
 10
4.455328884297968
 20
-5.926886111111116
 10
4.465046939608024
 20
-5.849188888888888
 10
4.588066380944737
 20
-5.816812499999994
 10
4.711066377837495
 20
-5.784451388888884
 10
4.680324711947429
 20
-5.818447222222226
 10
4.706203877960332
 20
-5.823302777777775
 10
4.732109432861458
 20
-5.828158333333337
 10
4.785542764844952
 20
-5.837863888888895
 10
4.792012209125965
 20
-5.849188888888888
 10
4.798488597851247
 20
-5.860527777777772
 10
4.814683041886584
 20
-5.883179166666663
 10
4.851894152057664
 20
-5.889655555555552
 10
4.889139984450089
 20
-5.896138888888887
 10
5.076896924151393
 20
-5.928520833333335
 10
5.123819444444456
 20
-5.939840277777774
 10
5.170776088446473
 20
-5.95116527777778
 10
5.348835806170528
 20
-5.993265277777772
 10
5.381184416464444
 20
-5.991637499999999
 10
5.41358719342366
 20
-5.990023611111105
 10
5.423285804289763
 20
-6.006205555555551
 10
5.460516358904796
 20
-6.011061111111113
 10
5.497762191297221
 20
-6.015916666666675
 10
5.560858023036618
 20
-6.015916666666675
 10
5.560858023036618
 20
-6.020772222222225
 10
5.560858023036618
 20
-6.025627777777774
 10
5.593248299996149
 20
-6.125990277777772
 10
5.604587188598594
 20
-6.140556944444445
 10
5.604587188598594
 20
-6.140556944444445
 10
5.57222468941614
 20
-6.168063888888885
 10
5.543077467930238
 20
-6.174547222222221
 10
5.51394274644402
 20
-6.18102361111111
 10
5.481567747261882
 20
-6.18102361111111
 10
5.468627469811003
 20
-6.176161111111115
 10
5.455646914583363
 20
-6.171305555555541
 10
5.437852470588445
 20
-6.185879166666685
 10
5.437852470588445
 20
-6.185879166666685
 10
5.437852470588445
 20
-6.185879166666685
 10
5.09562192367836
 20
-6.194600000000011
 10
4.958726093803307
 20
-6.179395833333325
 10
4.929605261205627
 20
-6.176161111111115
 10
4.90531359515262
 20
-6.192362499999995
 10
4.90531359515262
 20
-6.192362499999995
 10
4.90531359515262
 20
-6.192362499999995
 10
4.85352192979432
 20
-6.171319444444432
 10
4.777445542827283
 20
-6.213393055555571
 10
4.701355266971707
 20
-6.255493055555537
 10
4.686814989561248
 20
-6.304036111111095
 10
4.686814989561248
 20
-6.304036111111095
 10
4.686814989561248
 20
-6.304036111111095
 10
4.460184439730861
 20
-6.55170416666667
 10
4.447245551168836
 20
-6.575988888888888
 10
4.434278884829736
 20
-6.60026666666666
 10
4.450480273309343
 20
-6.60026666666666
 10
4.450480273309343
 20
-6.60026666666666
 10
4.450480273309343
 20
-6.60026666666666
 10
4.40193055555556
 20
-6.62615277777776
 10
4.42619444444444
 20
-6.794501388888875
 10
4.42619444444444
 20
-6.794501388888875
 10
4.44561777343218
 20
-6.807461111111125
 10
4.44561777343218
 20
-6.773458333333338
 10
4.44561777343218
 20
-6.739475000000008
 10
4.442383051291674
 20
-6.690918055555559
 10
4.479613605906707
 20
-6.645575000000008
 10
4.479613605906707
 20
-6.645575000000008
 10
4.502278883111911
 20
-6.694159722222239
 10
4.511996938421968
 20
-6.68119999999999
 10
4.521701104843487
 20
-6.66824722222221
 10
4.523321938135874
 20
-6.67634444444444
 10
4.547599715300344
 20
-6.652065277777789
 10
4.571885825797936
 20
-6.627780555555546
 10
4.579969158927067
 20
-6.598645833333345
 10
4.584824714359962
 20
-6.611600000000003
 10
4.589673325348586
 20
-6.624545833333336
 10
4.613973324734716
 20
-6.705477777777761
 10
4.643092768443542
 20
-6.737847222222221
 10
4.643092768443542
 20
-6.737847222222221
 10
4.633375000000001
 20
-6.752427777777787
 10
4.668992767789253
 20
-6.758897222222205
 10
4.704616378000436
 20
-6.765361111111107
 10
5.046149702705912
 20
-6.765373611111094
 10
5.091484423782882
 20
-6.754041666666681
 10
5.136785811527361
 20
-6.742709722222217
 10
5.233913586851486
 20
-6.661770833333321
 10
5.245226086565708
 20
-6.648823611111109
 10
5.256564975168152
 20
-6.635870833333329
 10
5.267889974882059
 20
-6.647202777777793
 10
5.300278862952736
 20
-6.631008333333334
 10
5.33264136213519
 20
-6.614827777777767
 10
5.442708333333333
 20
-6.52419722222223
 10
5.499402777777783
 20
-6.491813888888878
 10
5.556016356492263
 20
-6.459445833333322
 10
5.564099689621394
 20
-6.452962500000012
 10
5.604587188598594
 20
-6.438401388888906
 10
5.645059409798401
 20
-6.423841666666653
 10
5.69360385301651
 20
-6.402791666666669
 10
5.680663575565632
 20
-6.427055555555549
 10
5.66769690922653
 20
-6.451341666666671
 10
5.64014968770021
 20
-6.478861111111099
 10
5.627224688026723
 20
-6.541984722222221
 10
5.614298299464381
 20
-6.605116666666667
 10
5.604587188598594
 20
-6.642347222222219
 10
5.62239552148205
 20
-6.653673611111117
 10
5.64014968770021
 20
-6.665005555555555
 10
5.675794131244199
 20
-6.687662499999988
 10
5.675794131244199
 20
-6.687662499999988
 10
5.675794131244199
 20
-6.687662499999988
 10
5.654758020664505
 20
-6.736233333333328
 10
5.651530242968268
 20
-6.76213194444444
 10
5.648260798606416
 20
-6.788024999999985
 10
5.645059409798401
 20
-6.868963888888882
 10
5.659627464985937
 20
-6.870577777777775
 10
5.674180555555545
 20
-6.872186111111104
 10
5.727592741046768
 20
-6.878681944444452
 10
5.716267741332861
 20
-6.893243055555558
 10
5.704928852730417
 20
-6.907795833333339
 10
5.672566353547962
 20
-6.951504166666685
 10
5.66769690922653
 20
-6.979023611111112
 10
5.662869131570712
 20
-7.006544444444444
 10
5.648260798606416
 20
-7.064812499999991
 10
5.657986111111111
 20
-7.076144444444455
 10
5.66769690922653
 20
-7.087483333333339
 10
5.706542741578535
 20
-7.110148611111121
 10
5.7324621853682
 20
-7.113383333333331
 10
5.7324621853682
 20
-7.113383333333331
 10
5.687120519846959
 20
-7.187831944444446
 10
5.696845519601285
 20
-7.223450000000007
 10
5.706542741578535
 20
-7.259059722222219
 10
5.745401073930225
 20
-7.25744583333335
 10
5.745401073930225
 20
-7.25744583333335
 10
5.745401073930225
 20
-7.25744583333335
 10
5.706542741578535
 20
-7.293049999999994
 10
5.708170519315192
 20
-7.315720833333317
 10
5.70978440816331
 20
-7.338393055555571
 10
5.722737185613874
 20
-7.359422222222216
 10
5.742173296233987
 20
-7.362663888888871
 10
5.742173296233987
 20
-7.362663888888871
 10
5.737317740801093
 20
-7.388563888888888
 10
5.698472222222234
 20
-7.391798611111122
 10
5.659627464985937
 20
-7.395026388888886
 10
5.509073302122588
 20
-7.437120833333337
 10
5.400620527084558
 20
-7.571472222222231
 10
5.292167752046528
 20
-7.705811111111112
 10
5.463758025489571
 20
-7.984226388888904
 10
5.688774686471839
 20
-7.901672222222209
 10
5.688774686471839
 20
-7.901672222222209
 10
5.81663718324176
 20
-8.00687638888889
 10
5.931559402560802
 20
-7.880629166666671
 10
5.931559402560802
 20
-7.880629166666671
 10
6.041612177558414
 20
-7.992330555555554
 10
6.175984396386108
 20
-7.89520277777779
 10
6.175984396386108
 20
-7.89520277777779
 10
6.336222222222229
 20
-7.9874736111111
 10
6.404201057287537
 20
-7.896809722222214
 10
6.404201057287537
 20
-7.896809722222214
 10
6.561252442208974
 20
-7.952141666666673
 10
6.65896216196284
 20
-7.842712499999985
 10
6.756673270605561
 20
-7.733290277777794
 10
6.712414938390288
 20
-7.573756944444439
 10
6.632242718193386
 20
-7.50943333333334
 10
6.552055555555549
 20
-7.44513611111112
 10
6.4961204994099
 20
-7.428419444444444
 10
6.407564946091447
 20
-7.413384722222215
 10
6.407564946091447
 20
-7.413384722222215
 10
6.397541666666661
 20
-7.384141666666665
 10
6.35911633620425
 20
-7.365763888888877
 10
6.35911633620425
 20
-7.365763888888877
 10
6.395873279720136
 20
-7.354891666666667
 10
6.387519113264513
 20
-7.319823611111107
 10
6.379137169031814
 20
-7.284736111111114
 10
6.317341337259576
 20
-7.247986111111104
 10
6.317341337259576
 20
-7.247986111111104
 10
6.317341337259576
 20
-7.247986111111104
 10
6.407592723868523
 20
-7.247151388888899
 10
6.412556612632013
 20
-7.207065277777777
 10
6.41758855694934
 20
-7.166972222222234
 10
6.38918716877793
 20
-7.131048611111105
 10
6.341552447759063
 20
-7.090108333333319
 10
6.341552447759063
 20
-7.090108333333319
 10
6.435112167617767
 20
-7.083448611111129
 10
6.430108001077516
 20
-7.030829166666662
 10
6.425102445648412
 20
-6.978197222222207
 10
6.410060779361729
 20
-6.94395000000001
 10
6.373317724734382
 20
-6.899679166666677
 10
6.373317724734382
 20
-6.899679166666677
 10
6.455213555998853
 20
-6.901366666666667
 10
6.459349667005476
 20
-6.848734722222211
 10
6.463555555555558
 20
-6.796101388888878
 10
6.428466334452322
 20
-6.742641666666663
 10
6.404228835064613
 20
-6.718424999999999
 10
6.404228835064613
 20
-6.718424999999999
 10
6.486097222222219
 20
-6.67832500000001
 10
6.482732999748097
 20
-6.650756944444462
 10
6.479382999832725
 20
-6.623181944444442
 10
6.476073277694113
 20
-6.552177777777766
 10
6.432630223236022
 20
-6.473673611111129
 10
6.432630223236022
 20
-6.473673611111129
 10
6.414238557033968
 20
-6.448608333333342
 10
6.440144111935094
 20
-6.446112500000001
 10
6.46600938905946
 20
-6.443597222222226
 10
6.506130221379256
 20
-6.439419444444461
 10
6.521171887665938
 20
-6.447773611111112
 10
6.536213553952621
 20
-6.456129166666667
 10
6.71496493832587
 20
-6.561361111111106
 10
6.738321882180268
 20
-6.57640277777778
 10
6.761719103811426
 20
-6.591444444444429
 10
6.795966325168491
 20
-6.61567500000001
 10
6.803480213867563
 20
-6.608147222222215
 10
6.810994102566635
 20
-6.60062638888889
 10
6.821871880069617
 20
-6.593126388888877
 10
6.833549657552389
 20
-6.603983333333316
 10
6.845255212812238
 20
-6.614827777777767
 10
6.924601044141127
 20
-6.69167777777779
 10
6.945502432502002
 20
-6.70755277777779
 10
6.96638993197434
 20
-6.723422222222224
 10
6.9830857648859
 20
-6.711737500000001
 10
6.993095486855256
 20
-6.718411111111108
 10
7.003132986601687
 20
-6.725090277777781
 10
7.052395485357212
 20
-6.750162499999988
 10
7.084960762312321
 20
-6.755168055555562
 10
7.117553817044508
 20
-6.760172222222232
 10
7.337252777777772
 20
-6.812791666666675
 10
7.394883333333332
 20
-6.82449722222221
 10
7.452501388888877
 20
-6.836195833333325
 10
7.500230555555567
 20
-6.850979166666648
 10
7.523505555555554
 20
-6.837008333333339
 10
7.531859722222229
 20
-6.831997222222222
 10
7.531033333333324
 20
-6.818637499999997
 10
7.531033333333324
 20
-6.818637499999997
 10
7.531033333333324
 20
-6.818637499999997
 10
7.609537499999988
 20
-6.755147222222225
 10
7.591159722222224
 20
-6.675794444444439
 10
7.591159722222224
 20
-6.675794444444439
 10
7.587809722222219
 20
-6.669115277777766
 10
7.581122222222221
 20
-6.678304166666672
 10
7.57449027777779
 20
-6.6875
 10
7.521823611111105
 20
-6.750983333333352
 10
7.504300000000007
 20
-6.757663888888904
 10
7.504300000000007
 20
-6.757663888888904
 10
7.498466666666673
 20
-6.72675277777777
 10
7.47675277777777
 20
-6.725911111111095
 10
7.455023611111098
 20
-6.725084722222213
 10
7.431626388888894
 20
-6.729268055555571
 10
7.349772222222226
 20
-6.719251388888905
 10
7.267916666666679
 20
-6.70921527777778
 10
7.095864928703526
 20
-6.666626388888895
 10
7.052395485357212
 20
-6.659112499999992
 10
7.009005208675565
 20
-6.651577777777775
 10
7.013169097459265
 20
-6.627359722222232
 10
6.983927431531305
 20
-6.603129166666652
 10
6.954698265603029
 20
-6.578911111111109
 10
6.90791771122925
 20
-6.543009722222223
 10
6.870320489956813
 20
-6.523797222222229
 10
6.870320489956813
 20
-6.523797222222229
 10
6.869506601088485
 20
-6.517904166666666
 10
6.85697326807177
 20
-6.506231944444456
 10
6.844427435055372
 20
-6.494540277777761
 10
6.821031602313067
 20
-6.493706944444461
 10
6.805188547157741
 20
-6.487854166666668
 10
6.789306603114508
 20
-6.482008333333346
 10
6.615505218616211
 20
-6.417677777777776
 10
6.556220497891647
 20
-6.389274999999998
 10
6.496948277166767
 20
-6.36088749999999
 10
6.503620499220435
 20
-6.372586111111104
 10
6.503620499220435
 20
-6.372586111111104
 10
6.503620499220435
 20
-6.372586111111104
 10
6.466864944593403
 20
-6.358363888888889
 10
6.44095833333333
 20
-6.366726388888891
 10
6.415078834790519
 20
-6.375081944444446
 10
6.397514946345331
 20
-6.360045833333338
 10
6.392523279804764
 20
-6.350850000000011
 10
6.387519113264513
 20
-6.341674999999996
 10
6.475219111049025
 20
-6.256476388888889
 10
6.471883000022191
 20
-6.212219444444448
 10
6.471883000022191
 20
-6.212219444444448
 10
6.567084386506091
 20
-6.206359722222209
 10
6.602199663396782
 20
-6.182962500000005
 10
6.602199663396782
 20
-6.182962500000005
 10
6.618882996308659
 20
-6.193000000000008
 10
6.677353828164895
 20
-6.194661111111095
 10
6.735812160021446
 20
-6.19632361111111
 10
6.896185767081179
 20
-6.188815277777772
 10
6.932956599485603
 20
-6.191325000000006
 10
6.969699654112951
 20
-6.193827777777793
 10
6.979709376082306
 20
-6.187975000000001
 10
6.980549653838857
 20
-6.169602777777779
 10
6.980549653838857
 20
-6.169602777777779
 10
7.154310760560393
 20
-6.177116666666683
 10
7.175184722222234
 20
-6.184631944444441
 10
7.196058333333339
 20
-6.192145833333345
 10
7.205254166666665
 20
-6.203850000000001
 10
7.213609722222221
 20
-6.19549583333335
 10
7.221963888888896
 20
-6.18714027777777
 10
7.389865277777769
 20
-6.256462499999998
 10
7.427462499999996
 20
-6.267313888888894
 10
7.465033333333344
 20
-6.278177777777778
 10
7.573622222222234
 20
-6.328301388888879
 10
7.588663888888883
 20
-6.339986111111102
 10
7.603705555555557
 20
-6.351677777777796
 10
7.613729166666669
 20
-6.347527777777789
 10
7.621243055555547
 20
-6.334147222222226
 10
7.628730555555547
 20
-6.320766666666663
 10
7.665540277777786
 20
-6.339999999999994
 10
7.676391666666657
 20
-6.347513888888898
 10
7.687255555555566
 20
-6.355013888888884
 10
7.703938888888892
 20
-6.377583333333328
 10
7.703938888888892
 20
-6.383422222222229
 10
7.703938888888892
 20
-6.38926250000001
 10
7.721502777777787
 20
-6.375908333333326
 10
7.713174999999991
 20
-6.350850000000011
 10
7.704793055555556
 20
-6.325779166666658
 10
7.687255555555566
 20
-6.274855555555556
 10
7.651354166666654
 20
-6.248955555555565
 10
7.651354166666654
 20
-6.248955555555565
 10
7.649658333333339
 20
-6.235581944444448
 10
7.634602777777773
 20
-6.228068055555569
 10
7.619588888888883
 20
-6.220547222222219
 10
7.405761111111107
 20
-6.150370833333327
 10
7.378201388888884
 20
-6.133673611111109
 10
7.350640277777782
 20
-6.116970833333349
 10
7.270466666666657
 20
-6.091091666666671
 10
7.270466666666657
 20
-6.091091666666671
 10
7.270466666666657
 20
-6.091091666666671
 10
7.260456944444437
 20
-6.071879166666652
 10
7.249579166666662
 20
-6.067694444444442
 10
7.238701388888885
 20
-6.063516666666652
 10
7.026257986017501
 20
-6.046427777777782
 10
6.978895487213978
 20
-6.054313888888879
 10
6.968885765244623
 20
-6.055995833333327
 10
6.959676043255058
 20
-6.058491666666669
 10
6.949666666666669
 20
-6.054313888888879
 10
6.939656599316347
 20
-6.050150000000005
 10
6.91960937760056
 20
-6.045973611111094
 10
6.887857989513779
 20
-6.051812499999995
 10
6.856105212538144
 20
-6.057665277777788
 10
6.66814410617533
 20
-6.090216666666669
 10
6.628878829389476
 20
-6.09105833333332
 10
6.628878829389476
 20
-6.09105833333332
 10
6.618027777777772
 20
-6.071838888888881
 10
6.608859385450765
 20
-6.070169444444446
 10
6.5996496634612
 20
-6.068488888888876
 10
6.536187165064398
 20
-6.080193055555557
 10
6.520303832132312
 20
-6.093552777777782
 10
6.520303832132312
 20
-6.093552777777782
 10
6.572930555555558
 20
-5.949883333333332
 10
6.572930555555558
 20
-5.886413888888884
 10
6.572930555555558
 20
-5.886413888888884
 10
6.613863551991017
 20
-5.874708333333337
 10
6.623873273960371
 20
-5.870537500000006
 10
6.633924662595341
 20
-5.866366666666661
 10
6.641424662405875
 20
-5.859666666666663
 10
6.642252440162742
 20
-5.857156944444442
 10
6.64310660680783
 20
-5.854668055555559
 10
6.718260771575943
 20
-5.849649999999997
 10
6.917073266553516
 20
-5.760261111111112
 10
7.115871872642552
 20
-5.670877777777782
 10
7.189372222222219
 20
-5.61157222222222
 10
7.201063888888888
 20
-5.599045833333333
 10
7.212741666666665
 20
-5.586513888888892
 10
7.196058333333339
 20
-5.569823611111107
 10
7.196058333333339
 20
-5.569823611111107
 10
7.196058333333339
 20
-5.569823611111107
 10
7.218613888888891
 20
-5.559787499999995
 10
7.224459722222213
 20
-5.536404166666671
 10
7.230293055555547
 20
-5.513013888888887
 10
7.235297222222218
 20
-5.403612499999995
 10
7.191868055555561
 20
-5.339294444444438
 10
7.191868055555561
 20
-5.339294444444438
 10
7.124226039098176
 20
-5.202331944444444
 10
7.013142708571043
 20
-5.141350000000001
 10
7.013142708571043
 20
-5.141350000000001
 10
6.969726043001174
 20
-5.060336111111105
 10
6.920437155357426
 20
-4.995177777777775
 10
6.920437155357426
 20
-4.995177777777775
 10
6.961344098768475
 20
-4.973463888888887
 10
6.972222222222221
 20
-4.959283333333334
 10
6.972222222222221
 20
-4.959283333333334
 10
7.051594096488568
 20
-4.930880555555555
 10
7.052395485357212
 20
-4.872402777777779
 10
7.052395485357212
 20
-4.872402777777779
 10
7.059923262944822
 20
-4.862393055555558
 10
7.019002430645236
 20
-4.863213888888885
 10
7.019002430645236
 20
-4.863213888888885
 10
6.999769097797778
 20
-4.864888888888887
 10
7.019856597290325
 20
-4.849012499999995
 10
7.039876041229036
 20
-4.833143055555549
 10
7.111748261635612
 20
-4.756313888888889
 10
7.147623260729334
 20
-4.713704166666667
 10
7.183566666666668
 20
-4.671108333333336
 10
7.161810760370927
 20
-4.631843055555552
 10
7.131753816685785
 20
-4.613477777777777
 10
7.131753816685785
 20
-4.613477777777777
 10
7.157673260475449
 20
-4.625997222222218
 10
7.233683333333324
 20
-4.585909722222216
 10
7.309665277777791
 20
-4.545823611111106
 10
7.347290277777776
 20
-4.408006944444448
 10
7.381565277777781
 20
-4.321966666666665
 10
7.415770833333327
 20
-4.235934722222219
 10
7.484008333333324
 20
-3.937024999999999
 10
7.488456944444452
 20
-3.863409722222223
 10
7.493149999999988
 20
-3.785799999999995
 10
7.575344444444454
 20
-3.312405555555554
 10
7.530802777777782
 20
-3.138733333333334
 10
7.518676388888884
 20
-3.091397222222225
 10
7.488294444444439
 20
-3.05375138888889
 10
7.466458333333321
 20
-3.042826388888885
 10
7.444620833333324
 20
-3.031915277777772
 10
7.450669444444454
 20
-3.052537499999997
 10
7.453111111111108
 20
-3.061041666666672
 10
7.455552777777787
 20
-3.069531944444444
 10
7.438530555555543
 20
-3.10352222222222
 10
7.442179166666669
 20
-3.11201944444445
 10
7.445827777777771
 20
-3.120530555555559
 10
7.432481944444437
 20
-3.161790277777779
 10
7.434895833333333
 20
-3.171508333333337
 10
7.437309722222229
 20
-3.181226388888894
 10
7.39969861111111
 20
-3.301412499999994
 10
7.405761111111107
 20
-3.324476388888886
 10
7.411825000000008
 20
-3.347540277777777
 10
7.406955555555568
 20
-3.399752777777773
 10
7.402126388888897
 20
-3.415527777777773
 10
7.397230555555552
 20
-3.431315277777773
 10
7.381483333333335
 20
-3.517497222222219
 10
7.371772222222211
 20
-3.544202777777779
 10
7.362047222222221
 20
-3.570922222222217
 10
7.355984722222224
 20
-3.579420833333339
 10
7.352348611111109
 20
-3.597622222222223
 10
7.348687499999995
 20
-3.615837499999998
 10
7.343858333333324
 20
-3.641316666666663
 10
7.332926388888886
 20
-3.647399999999998
 10
7.321994444444448
 20
-3.653476388888887
 10
7.314711111111111
 20
-3.669249999999995
 10
7.315944444444439
 20
-3.678962499999999
 10
7.317152777777765
 20
-3.68867361111111
 10
7.291638888888883
 20
-3.714179166666668
 10
7.294080555555562
 20
-3.727531944444447
 10
7.296495833333337
 20
-3.740879166666673
 10
7.292873611111114
 20
-3.763949999999997
 10
7.286783333333333
 20
-3.772454166666661
 10
7.280706944444445
 20
-3.780944444444445
 10
7.238226388888885
 20
-3.879279166666669
 10
7.227308333333339
 20
-3.88655555555556
 10
7.2163763888889
 20
-3.893838888888884
 10
7.222438888888897
 20
-3.881706944444444
 10
7.228529166666678
 20
-3.86470555555555
 10
7.23456527777777
 20
-3.847716666666669
 10
7.27221666666666
 20
-3.77001944444444
 10
7.275851388888896
 20
-3.750590277777771
 10
7.279513888888888
 20
-3.73116666666667
 10
7.281941666666675
 20
-3.70568194444445
 10
7.292873611111114
 20
-3.680181944444446
 10
7.303779166666673
 20
-3.654697222222226
 10
7.332926388888886
 20
-3.590352777777778
 10
7.341416666666671
 20
-3.553927777777782
 10
7.349920833333321
 20
-3.517497222222219
 10
7.383897222222231
 20
-3.351188888888891
 10
7.382690277777783
 20
-3.315972222222222
 10
7.381483333333335
 20
-3.280768055555553
 10
7.398465277777783
 20
-3.186076388888889
 10
7.400919444444449
 20
-3.155734722222228
 10
7.403333333333345
 20
-3.125379166666663
 10
7.409423611111101
 20
-3.081684722222222
 10
7.426405555555548
 20
-3.056193055555557
 10
7.443386111111117
 20
-3.030694444444445
 10
7.394829166666669
 20
-3.044040277777779
 10
7.36690277777777
 20
-3.062248611111108
 10
7.338988888888884
 20
-3.080465277777774
 10
7.323201388888896
 20
-3.091397222222225
 10
7.300130555555547
 20
-3.154520833333335
 10
7.277086111111101
 20
-3.217644444444444
 10
7.229709722222221
 20
-3.392462500000003
 10
7.217583333333323
 20
-3.428873611111107
 10
7.205458333333328
 20
-3.465298611111115
 10
7.12898715008901
 20
-3.663194444444444
 10
7.115627428204284
 20
-3.687472222222216
 10
7.102267706319556
 20
-3.711737500000001
 10
7.054917707515718
 20
-3.818583333333335
 10
7.053682985324687
 20
-3.839219444444439
 10
7.052476040910733
 20
-3.859843055555555
 10
7.041544096742452
 20
-3.874416666666662
 10
7.050048263194285
 20
-3.885341666666666
 10
7.058552429646119
 20
-3.89626805555555
 10
7.054917707515718
 20
-3.902337500000006
 10
7.05125520760824
 20
-3.91084166666667
 10
7.047634374366377
 20
-3.919331944444441
 10
7.037935763500273
 20
-3.932698611111113
 10
7.041544096742452
 20
-3.944823611111107
 10
7.045192707761392
 20
-3.956970833333331
 10
7.027003819331993
 20
-3.967902777777782
 10
7.016071875163712
 20
-3.973972222222225
 10
7.00511354210721
 20
-3.980034722222222
 10
6.955376043363685
 20
-3.961826388888893
 10
6.939574654873972
 20
-3.982469444444443
 10
6.923801044161337
 20
-4.003098611111113
 10
6.841239935135895
 20
-4.139072222222227
 10
6.846095490568788
 20
-4.243476388888894
 10
6.850938546001998
 20
-4.347887499999993
 10
6.858236111111106
 20
-4.379441666666669
 10
6.883720489618301
 20
-4.384304166666665
 10
6.909232988973801
 20
-4.389159722222226
 10
6.921373266444889
 20
-4.397656944444444
 10
6.927449655180276
 20
-4.408583333333328
 10
6.933512155027124
 20
-4.419501388888888
 10
6.950506599042253
 20
-4.455926388888884
 10
6.935939932743572
 20
-4.459568055555551
 10
6.921373266444889
 20
-4.46320972222222
 10
6.92015277777778
 20
-4.445006944444445
 10
6.89465277777779
 20
-4.443793055555552
 10
6.869181601096695
 20
-4.442565277777779
 10
6.857028823625923
 20
-4.441351388888885
 10
6.85215937930449
 20
-4.459568055555551
 10
6.847303823871597
 20
-4.477783333333339
 10
6.830307990967614
 20
-4.546976388888892
 10
6.816948269082887
 20
-4.555473611111109
 10
6.803616324975236
 20
-4.563965277777773
 10
6.798759380653488
 20
-4.565186111111112
 10
6.797526047351312
 20
-4.582173611111115
 10
6.796319444444432
 20
-4.599174999999996
 10
6.759914937190337
 20
-4.684163888888886
 10
6.758708333333338
 20
-4.701151388888889
 10
6.757473270585352
 20
-4.718145833333336
 10
6.731960771229851
 20
-4.730298611111114
 10
6.730766326815582
 20
-4.753363888888885
 10
6.729559382401627
 20
-4.776415277777775
 10
6.718627438233347
 20
-4.737576388888884
 10
6.718627438233347
 20
-4.719366666666663
 10
6.718627438233347
 20
-4.701151388888889
 10
6.713757993911915
 20
-4.684163888888886
 10
6.69557049437137
 20
-4.714504166666668
 10
6.677353828164895
 20
-4.744859722222221
 10
6.643364940134638
 20
-4.801927777777778
 10
6.639728829115382
 20
-4.807990277777776
 10
6.636053829208221
 20
-4.814059722222219
 10
6.587510774878965
 20
-4.795844444444444
 10
6.568101053147075
 20
-4.805555555555555
 10
6.548678831415499
 20
-4.815266666666667
 10
6.526814943078938
 20
-4.840759722222225
 10
6.57778577512464
 20
-4.894179166666668
 10
6.57778577512464
 20
-4.894179166666668
 10
6.581460775031801
 20
-4.930609722222218
 10
6.570528830863521
 20
-4.933023611111113
 10
6.559597222222211
 20
-4.93546527777778
 10
6.557169108978794
 20
-4.934237499999995
 10
6.559597222222211
 20
-4.945169444444446
 10
6.562024664411688
 20
-4.956102777777775
 10
6.554727442373809
 20
-4.965806944444441
 10
6.546237164810513
 20
-4.962172222222218
 10
6.537746887247218
 20
-4.958516666666671
 10
6.536512165056187
 20
-4.970662500000003
 10
6.538980220549395
 20
-4.980373611111114
 10
6.541367720489082
 20
-4.990084722222226
 10
6.532877442925787
 20
-5.043490277777778
 10
6.520751054343236
 20
-4.991298611111106
 10
6.508612165761001
 20
-4.939100000000002
 10
6.51226077677994
 20
-4.943949999999997
 10
6.504963554742062
 20
-4.920884722222227
 10
6.497680555555562
 20
-4.897827777777782
 10
6.430894112168769
 20
-4.690233333333329
 10
6.382351057839514
 20
-4.640448611111108
 10
6.382351057839514
 20
-4.640448611111108
 10
6.369017724843009
 20
-4.634393055555557
 10
6.385986111111101
 20
-4.605251388888885
 10
6.402994112873582
 20
-4.576111111111104
 10
6.376288557992666
 20
-4.57490416666667
 10
6.370212169257279
 20
-4.577331944444444
 10
6.364162169410115
 20
-4.579752777777773
 10
6.379909391234529
 20
-4.548183333333327
 10
6.367784391540832
 20
-4.527554166666669
 10
6.355631614070059
 20
-4.506916666666661
 10
6.353203836353613
 20
-4.495984722222222
 10
6.351996891939658
 20
-4.468072222222228
 10
6.35078855863685
 20
-4.44014444444445
 10
6.322848281564903
 20
-4.428005555555552
 10
6.318006615020547
 20
-4.404927777777781
 10
6.313151059587653
 20
-4.381862499999999
 10
6.280367727082496
 20
-4.361233333333328
 10
6.284016338101436
 20
-4.346666666666667
 10
6.287651060231838
 20
-4.332098611111115
 10
6.26459411636986
 20
-4.261684722222222
 10
6.242742728032984
 20
-4.243476388888894
 10
6.242742728032984
 20
-4.243476388888894
 10
6.206312173397742
 20
-4.335740277777782
 10
6.194199673703729
 20
-4.349101388888887
 10
6.182033007344418
 20
-4.362454166666668
 10
6.197821895834446
 20
-4.25561527777778
 10
6.186916666666674
 20
-4.233765277777782
 10
6.186916666666674
 20
-4.233765277777782
 10
6.177177451911525
 20
-4.259263888888894
 10
6.166287174408859
 20
-4.254401388888886
 10
6.164320507791873
 20
-4.253547222222222
 10
6.160806618991753
 20
-4.252176388888882
 10
6.156358007993023
 20
-4.250597222222217
 10
6.189764951593538
 20
-4.183879166666669
 10
6.265773283006738
 20
-4.057040277777775
 10
6.430894112168769
 20
-3.867140277777783
 10
6.81940382457641
 20
-3.420390277777781
 10
7.379258333333332
 20
-2.830166249999997
 10
7.75659166666666
 20
-2.723551388888886
 97
        0
 97
        0
 92
        1
 93
        1
 72
     4
 94
        3
 73
     0
 74
     1
 95
       89
 96
       85
 40
0.0
 40
0.0
 40
0.0
 40
0.0
 40
1.0
 40
1.0
 40
1.0
 40
2.0
 40
2.0
 40
2.0
 40
3.0
 40
3.0
 40
3.0
 40
4.0
 40
4.0
 40
4.0
 40
5.0
 40
5.0
 40
5.0
 40
6.0
 40
6.0
 40
6.0
 40
7.0
 40
7.0
 40
7.0
 40
8.0
 40
8.0
 40
8.0
 40
9.0
 40
9.0
 40
9.0
 40
10.0
 40
10.0
 40
10.0
 40
11.0
 40
11.0
 40
11.0
 40
12.0
 40
12.0
 40
12.0
 40
13.0
 40
13.0
 40
13.0
 40
14.0
 40
14.0
 40
14.0
 40
15.0
 40
15.0
 40
15.0
 40
16.0
 40
16.0
 40
16.0
 40
17.0
 40
17.0
 40
17.0
 40
18.0
 40
18.0
 40
18.0
 40
19.0
 40
19.0
 40
19.0
 40
20.0
 40
20.0
 40
20.0
 40
21.0
 40
21.0
 40
21.0
 40
22.0
 40
22.0
 40
22.0
 40
23.0
 40
23.0
 40
23.0
 40
24.0
 40
24.0
 40
24.0
 40
25.0
 40
25.0
 40
25.0
 40
26.0
 40
26.0
 40
26.0
 40
27.0
 40
27.0
 40
27.0
 40
28.0
 40
28.0
 40
28.0
 40
28.0
 10
5.893092736865886
 20
-4.267761111111112
 10
5.890678848037977
 20
-4.279899999999998
 10
5.868814959701417
 20
-4.213127777777774
 10
5.860324682138121
 20
-4.242269444444446
 10
5.851820515686287
 20
-4.271395833333334
 10
5.797187183733109
 20
-4.478983333333328
 10
5.77411496209374
 20
-4.494777777777775
 10
5.751070518231447
 20
-4.51055972222222
 10
5.718248296838383
 20
-4.491129166666661
 10
5.713446908070788
 20
-4.529974999999998
 10
5.708577463749356
 20
-4.568827777777781
 10
5.743774685082422
 20
-4.597968055555561
 10
5.743774685082422
 20
-4.597968055555561
 10
5.743774685082422
 20
-4.597968055555561
 10
5.707370519335401
 20
-4.594319444444446
 10
5.707370519335401
 20
-4.594319444444446
 10
5.707370519335401
 20
-4.594319444444446
 10
5.700059408408984
 20
-4.596747222222221
 10
5.70978440816331
 20
-4.614956944444442
 10
5.719509407917636
 20
-4.633165277777784
 10
5.73894551853775
 20
-4.648945833333338
 10
5.717095519089727
 20
-4.662312499999997
 10
5.695230241864313
 20
-4.675659722222222
 10
5.69765801958076
 20
-4.690233333333329
 10
5.689167742017465
 20
-4.709648611111106
 10
5.680663575565632
 20
-4.72908472222222
 10
5.630899687933884
 20
-4.891744444444448
 10
5.621174688179559
 20
-4.923319444444448
 10
5.611477466202309
 20
-4.954875000000002
 10
5.5997316331657
 20
-4.973904166666671
 10
5.601345522013818
 20
-5.041469444444449
 10
5.601345522013818
 20
-5.041469444444449
 10
5.44109413717322
 20
-4.834288888888889
 10
5.405489971405991
 20
-4.730699999999993
 10
5.369873305639076
 20
-4.627095833333328
 10
5.376342749920089
 20
-4.72259583333333
 10
5.376342749920089
 20
-4.72259583333333
 10
5.376342749920089
 20
-4.72259583333333
 10
5.363376083580988
 20
-4.795444444444443
 10
5.339111111111101
 20
-4.719366666666663
 10
5.314845529251417
 20
-4.643283333333329
 10
5.295423307519841
 20
-4.552638888888888
 10
5.28085664122116
 20
-4.541306944444449
 10
5.266302474922163
 20
-4.529974999999998
 10
5.271131641466834
 20
-4.565593055555559
 10
5.258191364015955
 20
-4.562356944444446
 10
5.245226086565708
 20
-4.559115277777778
 10
5.21449136511991
 20
-4.520263888888886
 10
5.204766365365584
 20
-4.529974999999998
 10
5.195067754499481
 20
-4.539693055555555
 10
5.144896922433569
 20
-4.531602777777784
 10
5.169148310709816
 20
-4.499233333333336
 10
5.193439976762824
 20
-4.466851388888888
 10
5.237114975659501
 20
-4.474941666666672
 10
5.264648308297283
 20
-4.439330555555557
 10
5.292167752046528
 20
-4.403727777777779
 10
5.279214974595965
 20
-4.421515277777782
 10
5.287312196613635
 20
-4.366495833333336
 10
5.295423307519841
 20
-4.311462499999998
 10
5.250094141998286
 20
-4.136637500000006
 10
5.204766365365584
 20
-4.057338888888883
 10
5.159451088732567
 20
-3.978013888888894
 10
5.144896922433569
 20
-4.021715277777781
 10
5.144896922433569
 20
-4.021715277777781
 10
5.144896922433569
 20
-4.021715277777781
 10
5.118991367532443
 20
-4.024963888888894
 10
5.125460811813455
 20
-3.994201388888895
 10
5.131944444444444
 20
-3.963454166666666
 10
5.149726088978241
 20
-3.939175000000002
 10
5.14324275580869
 20
-3.867947222222218
 10
5.136785811527361
 20
-3.796726388888891
 10
5.10603859008188
 20
-3.586304166666663
 10
5.096306645883285
 20
-3.447088888888894
 10
5.090771923800881
 20
-3.367465277777784
 10
5.093648312617106
 20
-3.277269444444439
 10
5.084472222222226
 20
-3.200391666666671
 10
5.301431640701392
 20
-3.426886111111116
 10
5.516438579714304
 20
-3.69189444444444
 10
5.692736111111117
 20
-3.920484722222227
 10
5.811862183362387
 20
-4.074897222222224
 10
5.879774681646773
 20
-4.188381944444447
 10
5.917995514014566
 20
-4.263583333333334
 10
5.909260792013002
 20
-4.260959722222221
 10
5.895371903474976
 20
-4.256394444444443
 10
5.893092736865886
 20
-4.267761111111112
 97
        0
 97
        0
 92
        1
 93
        1
 72
     4
 94
        3
 73
     0
 74
     1
 95
       23
 96
       19
 40
0.0
 40
0.0
 40
0.0
 40
0.0
 40
1.0
 40
1.0
 40
1.0
 40
2.0
 40
2.0
 40
2.0
 40
3.0
 40
3.0
 40
3.0
 40
4.0
 40
4.0
 40
4.0
 40
5.0
 40
5.0
 40
5.0
 40
6.0
 40
6.0
 40
6.0
 40
6.0
 10
5.152587200017074
 20
-5.444119444444444
 10
5.152587200017074
 20
-5.444119444444444
 10
5.184109421442978
 20
-5.413770833333337
 10
5.192626087894496
 20
-5.396783333333334
 10
5.201117754346645
 20
-5.379774999999995
 10
5.312798307080912
 20
-5.29601388888889
 10
5.36014830588475
 20
-5.234111111111107
 10
5.36014830588475
 20
-5.234111111111107
 10
5.477919136242942
 20
-5.320284722222216
 10
5.516737190817872
 20
-5.339722222222222
 10
5.516737190817872
 20
-5.339722222222222
 10
5.477919136242942
 20
-5.523023611111108
 10
5.491264969239132
 20
-5.646849999999997
 10
5.491264969239132
 20
-5.646849999999997
 10
5.352891361623632
 20
-5.626220833333339
 10
5.278821919050339
 20
-5.564311111111111
 10
5.204766365365584
 20
-5.502401388888883
 10
5.164699699711087
 20
-5.452630555555553
 10
5.152587200017074
 20
-5.444119444444444
 97
        0
 97
        0
 92
        1
 93
        1
 72
     4
 94
        3
 73
     0
 74
     1
 95
       59
 96
       55
 40
0.0
 40
0.0
 40
0.0
 40
0.0
 40
1.0
 40
1.0
 40
1.0
 40
2.0
 40
2.0
 40
2.0
 40
3.0
 40
3.0
 40
3.0
 40
4.0
 40
4.0
 40
4.0
 40
5.0
 40
5.0
 40
5.0
 40
6.0
 40
6.0
 40
6.0
 40
7.0
 40
7.0
 40
7.0
 40
8.0
 40
8.0
 40
8.0
 40
9.0
 40
9.0
 40
9.0
 40
10.0
 40
10.0
 40
10.0
 40
11.0
 40
11.0
 40
11.0
 40
12.0
 40
12.0
 40
12.0
 40
13.0
 40
13.0
 40
13.0
 40
14.0
 40
14.0
 40
14.0
 40
15.0
 40
15.0
 40
15.0
 40
16.0
 40
16.0
 40
16.0
 40
17.0
 40
17.0
 40
17.0
 40
18.0
 40
18.0
 40
18.0
 40
18.0
 10
4.611125000000002
 20
-6.581651388888885
 10
4.611125000000002
 20
-6.581651388888885
 10
4.761658043226109
 20
-6.384969444444449
 10
4.816296930734703
 20
-6.347337500000018
 10
4.870910818243929
 20
-6.309698611111116
 10
4.898830261983069
 20
-6.308498611111114
 10
4.90735526176771
 20
-6.313347222222218
 10
4.915845539331005
 20
-6.318197222222225
 10
4.926751094611063
 20
-6.315775000000005
 10
4.957105260510919
 20
-6.315775000000005
 10
4.98745387085536
 20
-6.315775000000005
 10
5.082139979574499
 20
-6.291490277777787
 10
5.155002477733837
 20
-6.296345833333336
 10
5.227823309227561
 20
-6.301208333333332
 10
5.403862193669334
 20
-6.280565277777795
 10
5.426920526420164
 20
-6.274508333333339
 10
5.450005248059218
 20
-6.268426388888884
 10
5.464571914357899
 20
-6.281772222222217
 10
5.488851080411223
 20
-6.283000000000002
 10
5.513156635352768
 20
-6.284213888888896
 10
5.645439965344344
 20
-6.257500000000012
 10
5.653944444444455
 20
-6.262355555555561
 10
5.66244829824801
 20
-6.267218055555556
 10
5.675794131244199
 20
-6.296345833333336
 10
5.68672607541248
 20
-6.304856944444459
 10
5.68672607541248
 20
-6.304856944444459
 10
5.618733021574573
 20
-6.331563888888872
 10
5.590806633391164
 20
-6.338847222222234
 10
5.562892745207439
 20
-6.346123611111125
 10
5.515530246403917
 20
-6.349772222222226
 10
5.497313580197442
 20
-6.366759722222215
 10
5.479126080656897
 20
-6.383762500000001
 10
5.431776081853059
 20
-6.426255555555549
 10
5.389267749593576
 20
-6.445665277777784
 10
5.346788584000024
 20
-6.465094444444427
 10
5.259399697318764
 20
-6.518513888888871
 10
5.216931642836041
 20
-6.529431944444442
 10
5.174396921688336
 20
-6.540377777777772
 10
5.195067754499481
 20
-6.562222222222216
 10
5.195067754499481
 20
-6.562222222222216
 10
5.195067754499481
 20
-6.562222222222216
 10
5.10035525689212
 20
-6.611986111111112
 10
5.055426091360459
 20
-6.676330555555573
 10
5.055426091360459
 20
-6.676330555555573
 10
4.881869151300432
 20
-6.669061111111104
 10
4.817505264037512
 20
-6.673909722222207
 10
4.75315943232969
 20
-6.678765277777782
 10
4.686387211794277
 20
-6.670261111111105
 10
4.668185823365193
 20
-6.664198611111108
 10
4.649970546047572
 20
-6.658122222222219
 10
4.658480268054821
 20
-6.669061111111104
 10
4.658480268054821
 20
-6.669061111111104
 10
4.658480268054821
 20
-6.669061111111104
 10
4.614773324714506
 20
-6.607137499999983
 10
4.611125000000002
 20
-6.581651388888885
 97
        0
 97
        0
 92
        1
 93
        1
 72
     4
 94
        3
 73
     0
 74
     1
 95
       23
 96
       19
 40
0.0
 40
0.0
 40
0.0
 40
0.0
 40
1.0
 40
1.0
 40
1.0
 40
2.0
 40
2.0
 40
2.0
 40
3.0
 40
3.0
 40
3.0
 40
4.0
 40
4.0
 40
4.0
 40
5.0
 40
5.0
 40
5.0
 40
6.0
 40
6.0
 40
6.0
 40
6.0
 10
6.58047049727904
 20
-5.313619444444448
 10
6.58047049727904
 20
-5.313619444444448
 10
6.731309382357418
 20
-5.211683333333339
 10
6.781032992212405
 20
-5.145399999999995
 10
6.781032992212405
 20
-5.145399999999995
 10
6.803398269425188
 20
-5.182691666666667
 10
6.884630211817542
 20
-5.19180694444444
 10
6.884630211817542
 20
-5.19180694444444
 10
6.875474656493274
 20
-5.220811111111112
 10
6.86966910108438
 20
-5.226609722222216
 10
6.863905212341099
 20
-5.232401388888889
 10
6.844820490600998
 20
-5.239861111111117
 10
6.825751046638288
 20
-5.265556944444445
 10
6.806694444444449
 20
-5.291238888888882
 10
6.771891325776677
 20
-5.375780555555555
 10
6.595403830235126
 20
-5.478522222222219
 10
6.595403830235126
 20
-5.478522222222219
 10
6.588744108181142
 20
-5.345940277777774
 10
6.58047049727904
 20
-5.313619444444448
 97
        0
 97
        0
 92
        1
 93
        1
 72
     4
 94
        3
 73
     0
 74
     1
 95
       41
 96
       37
 40
0.0
 40
0.0
 40
0.0
 40
0.0
 40
1.0
 40
1.0
 40
1.0
 40
2.0
 40
2.0
 40
2.0
 40
3.0
 40
3.0
 40
3.0
 40
4.0
 40
4.0
 40
4.0
 40
5.0
 40
5.0
 40
5.0
 40
6.0
 40
6.0
 40
6.0
 40
7.0
 40
7.0
 40
7.0
 40
8.0
 40
8.0
 40
8.0
 40
9.0
 40
9.0
 40
9.0
 40
10.0
 40
10.0
 40
10.0
 40
11.0
 40
11.0
 40
11.0
 40
12.0
 40
12.0
 40
12.0
 40
12.0
 10
6.587103830444802
 20
-5.613599999999994
 10
6.587103830444802
 20
-5.613599999999994
 10
6.767007992566707
 20
-5.513549999999996
 10
6.873861111111106
 20
-5.402295833333331
 10
6.893757989364732
 20
-5.381570833333336
 10
6.924396877479618
 20
-5.33930833333333
 10
6.951727432344746
 20
-5.324374999999994
 10
6.979071876098411
 20
-5.309481944444441
 10
6.97243854293265
 20
-5.287095833333334
 10
6.962524654294207
 20
-5.27631944444445
 10
6.962524654294207
 20
-5.27631944444445
 10
6.991495486895675
 20
-5.252291666666665
 10
6.991495486895675
 20
-5.234890277777771
 10
6.991495486895675
 20
-5.234890277777771
 10
7.079345484676398
 20
-5.331020833333329
 10
7.0959468731459
 20
-5.368319444444447
 10
7.112494094950105
 20
-5.405619444444445
 10
7.106702428429748
 20
-5.408080555555557
 10
7.115817705977254
 20
-5.422180555555554
 10
7.124931594635907
 20
-5.436265277777781
 10
7.146470482980678
 20
-5.494276388888895
 10
7.134887149939964
 20
-5.505866666666671
 10
7.12327777777778
 20
-5.517476388888895
 10
6.996487153436242
 20
-5.603658333333328
 10
6.959187154378519
 20
-5.621066666666668
 10
6.921914933097873
 20
-5.638474999999996
 10
6.85320382372255
 20
-5.67688055555555
 10
6.727145493573718
 20
-5.714708333333331
 10
6.718871882671616
 20
-5.717197222222226
 10
6.615288551955018
 20
-5.75365555555556
 10
6.615288551955018
 20
-5.75365555555556
 10
6.615288551955018
 20
-5.75365555555556
 10
6.60036910788747
 20
-5.732944444444443
 10
6.588744108181142
 20
-5.743713888888894
 10
6.577148275140744
 20
-5.754495833333332
 10
6.589599663715084
 20
-5.685709722222226
 10
6.587103830444802
 20
-5.613599999999994
 97
        0
 97
        0
 75
     2
 76
     1
 98
        0
  0
ENDSEC
  0
SECTION
  2
OBJECTS
  0
DICTIONARY
  5
C
330
0
100
AcDbDictionary
281
     1
  3
ACAD_GROUP
350
D
  3
ACAD_LAYOUT
350
1A
  3
ACAD_MATERIAL
350
3B
  3
ACAD_MLEADERSTYLE
350
49
  3
ACAD_MLINESTYLE
350
17
  3
ACAD_PLOTSETTINGS
350
19
  3
ACAD_PLOTSTYLENAME
350
E
  3
ACAD_TABLESTYLE
350
48
  3
ACAD_VISUALSTYLE
350
2A
  0
SUN
  5
3F
330
29
100
AcDbSun
 90
        1
290
     0
 63
     7
421
 16777215
 40
1.0
291
     1
 91
  2455826
 92
 54000000
292
     0
 70
     2
 71
   256
280
     1
  0
DICTIONARY
  5
D
102
{ACAD_REACTORS
330
C
102
}
330
C
100
AcDbDictionary
281
     1
  0
DICTIONARY
  5
1A
102
{ACAD_REACTORS
330
C
102
}
330
C
100
AcDbDictionary
281
     1
  3
Layout1
350
1E
  3
Layout2
350
26
  3
Model
350
22
  0
DICTIONARY
  5
3B
102
{ACAD_REACTORS
330
C
102
}
330
C
100
AcDbDictionary
281
     1
  3
ByBlock
350
3D
  3
ByLayer
350
3C
  3
Global
350
3E
  0
DICTIONARY
  5
49
102
{ACAD_REACTORS
330
C
102
}
330
C
100
AcDbDictionary
281
     1
  0
DICTIONARY
  5
17
102
{ACAD_REACTORS
330
C
102
}
330
C
100
AcDbDictionary
281
     1
  3
Standard
350
18
  0
DICTIONARY
  5
19
102
{ACAD_REACTORS
330
C
102
}
330
C
100
AcDbDictionary
281
     1
  0
ACDBDICTIONARYWDFLT
  5
E
102
{ACAD_REACTORS
330
C
102
}
330
C
100
AcDbDictionary
281
     1
  3
Normal
350
F
100
AcDbDictionaryWithDefault
340
F
  0
DICTIONARY
  5
48
102
{ACAD_REACTORS
330
C
102
}
330
C
100
AcDbDictionary
281
     1
  0
DICTIONARY
  5
2A
102
{ACAD_REACTORS
330
C
102
}
330
C
100
AcDbDictionary
281
     1
  3
2dWireframe
350
2F
  3
3D Hidden
350
31
  3
3dWireframe
350
30
  3
Basic
350
32
  3
Brighten
350
36
  3
ColorChange
350
3A
  3
Conceptual
350
34
  3
Dim
350
35
  3
Facepattern
350
39
  3
Flat
350
2B
  3
FlatWithEdges
350
2C
  3
Gouraud
350
2D
  3
GouraudWithEdges
350
2E
  3
Linepattern
350
38
  3
Realistic
350
33
  3
Thicken
350
37
  0
LAYOUT
  5
1E
102
{ACAD_REACTORS
330
1A
102
}
330
1A
100
AcDbPlotSettings
  1

  2
none_device
  4

  6

 40
0.0
 41
0.0
 42
0.0
 43
0.0
 44
0.0
 45
0.0
 46
0.0
 47
0.0
 48
0.0
 49
0.0
140
0.0
141
0.0
142
1.0
143
1.0
 70
   688
 72
     0
 73
     0
 74
     5
  7

 75
    16
 76
     0
 77
     2
 78
   300
147
1.0
148
0.0
149
0.0
100
AcDbLayout
  1
Layout1
 70
     1
 71
     1
 10
0.0
 20
0.0
 11
12.0
 21
9.0
 12
0.0
 22
0.0
 32
0.0
 14
1.000000000000000E+20
 24
1.000000000000000E+20
 34
1.000000000000000E+20
 15
-1.000000000000000E+20
 25
-1.000000000000000E+20
 35
-1.000000000000000E+20
146
0.0
 13
0.0
 23
0.0
 33
0.0
 16
1.0
 26
0.0
 36
0.0
 17
0.0
 27
1.0
 37
0.0
 76
     0
330
1B
  0
LAYOUT
  5
26
102
{ACAD_REACTORS
330
1A
102
}
330
1A
100
AcDbPlotSettings
  1

  2
none_device
  4

  6

 40
0.0
 41
0.0
 42
0.0
 43
0.0
 44
0.0
 45
0.0
 46
0.0
 47
0.0
 48
0.0
 49
0.0
140
0.0
141
0.0
142
1.0
143
1.0
 70
   688
 72
     0
 73
     0
 74
     5
  7

 75
    16
 76
     0
 77
     2
 78
   300
147
1.0
148
0.0
149
0.0
100
AcDbLayout
  1
Layout2
 70
     1
 71
     2
 10
0.0
 20
0.0
 11
0.0
 21
0.0
 12
0.0
 22
0.0
 32
0.0
 14
0.0
 24
0.0
 34
0.0
 15
0.0
 25
0.0
 35
0.0
146
0.0
 13
0.0
 23
0.0
 33
0.0
 16
1.0
 26
0.0
 36
0.0
 17
0.0
 27
1.0
 37
0.0
 76
     0
330
23
  0
LAYOUT
  5
22
102
{ACAD_REACTORS
330
1A
102
}
330
1A
100
AcDbPlotSettings
  1

  2
none_device
  4

  6

 40
0.0
 41
0.0
 42
0.0
 43
0.0
 44
0.0
 45
0.0
 46
0.0
 47
0.0
 48
0.0
 49
0.0
140
0.0
141
0.0
142
1.0
143
1.0
 70
  1712
 72
     0
 73
     0
 74
     0
  7

 75
     0
 76
     0
 77
     2
 78
   300
147
1.0
148
0.0
149
0.0
100
AcDbLayout
  1
Model
 70
     1
 71
     0
 10
0.0
 20
0.0
 11
12.0
 21
9.0
 12
0.0
 22
0.0
 32
0.0
 14
1.000000000000000E+20
 24
1.000000000000000E+20
 34
1.000000000000000E+20
 15
-1.000000000000000E+20
 25
-1.000000000000000E+20
 35
-1.000000000000000E+20
146
0.0
 13
0.0
 23
0.0
 33
0.0
 16
1.0
 26
0.0
 36
0.0
 17
0.0
 27
1.0
 37
0.0
 76
     0
330
1F
331
29
  0
MATERIAL
  5
3D
102
{ACAD_REACTORS
330
3B
102
}
330
3B
100
AcDbMaterial
  1
ByBlock
 72
     1
 94
      127
  0
MATERIAL
  5
3C
102
{ACAD_REACTORS
330
3B
102
}
330
3B
100
AcDbMaterial
  1
ByLayer
 72
     1
 94
      127
  0
MATERIAL
  5
3E
102
{ACAD_REACTORS
330
3B
102
}
330
3B
100
AcDbMaterial
  1
Global
 72
     1
 94
      127
  0
MLINESTYLE
  5
18
102
{ACAD_REACTORS
330
17
102
}
330
17
100
AcDbMlineStyle
  2
Standard
 70
     0
  3

 62
   256
 51
90.0
 52
90.0
 71
     2
 49
0.5
 62
   256
  6
BYLAYER
 49
-0.5
 62
   256
  6
BYLAYER
  0
ACDBPLACEHOLDER
  5
F
102
{ACAD_REACTORS
330
E
102
}
330
E
  0
VISUALSTYLE
  5
2F
102
{ACAD_REACTORS
330
2A
102
}
330
2A
100
AcDbVisualStyle
  2
2dWireframe
 70
     4
177
     2
291
     0
 71
     0
176
     1
 72
     2
176
     1
 73
     0
176
     1
 90
        0
176
     1
 40
-0.6
176
     1
 41
-30.0
176
     1
 62
     5
 63
     7
421
 16777215
176
     1
 74
     1
176
     1
 91
        4
176
     1
 64
     7
176
     1
 65
   257
176
     1
 75
     1
176
     1
175
     1
176
     1
 42
1.0
176
     1
 92
        0
176
     1
 66
   257
176
     1
 43
1.0
176
     1
 76
     1
176
     1
 77
     6
176
     1
 78
     2
176
     1
 67
     7
176
     1
 79
     5
176
     1
170
     0
176
     1
171
     0
176
     1
290
     0
176
     1
 93
        1
176
     1
 44
0.0
176
     1
173
     0
176
     1
  0
VISUALSTYLE
  5
31
102
{ACAD_REACTORS
330
2A
102
}
330
2A
100
AcDbVisualStyle
  2
3D Hidden
 70
     6
177
     2
291
     0
 71
     1
176
     1
 72
     2
176
     1
 73
     2
176
     1
 90
        0
176
     1
 40
-0.6
176
     1
 41
-30.0
176
     1
 62
     5
 63
     7
421
 16777215
176
     1
 74
     2
176
     1
 91
        2
176
     1
 64
     7
176
     1
 65
   257
176
     1
 75
     2
176
     1
175
     1
176
     1
 42
40.0
176
     1
 92
        0
176
     1
 66
   257
176
     1
 43
1.0
176
     1
 76
     1
176
     1
 77
     6
176
     1
 78
     2
176
     1
 67
     7
176
     1
 79
     3
176
     1
170
     0
176
     1
171
     0
176
     1
290
     0
176
     1
 93
        1
176
     1
 44
0.0
176
     1
173
     0
176
     1
  0
VISUALSTYLE
  5
30
102
{ACAD_REACTORS
330
2A
102
}
330
2A
100
AcDbVisualStyle
  2
3dWireframe
 70
     5
177
     2
291
     0
 71
     0
176
     1
 72
     2
176
     1
 73
     0
176
     1
 90
        0
176
     1
 40
-0.6
176
     1
 41
-30.0
176
     1
 62
     5
 63
     7
421
 16777215
176
     1
 74
     1
176
     1
 91
        4
176
     1
 64
     7
176
     1
 65
   257
176
     1
 75
     1
176
     1
175
     1
176
     1
 42
1.0
176
     1
 92
        0
176
     1
 66
   257
176
     1
 43
1.0
176
     1
 76
     1
176
     1
 77
     6
176
     1
 78
     2
176
     1
 67
     7
176
     1
 79
     5
176
     1
170
     0
176
     1
171
     0
176
     1
290
     0
176
     1
 93
        1
176
     1
 44
0.0
176
     1
173
     0
176
     1
  0
VISUALSTYLE
  5
32
102
{ACAD_REACTORS
330
2A
102
}
330
2A
100
AcDbVisualStyle
  2
Basic
 70
     7
177
     2
291
     1
 71
     1
176
     1
 72
     0
176
     1
 73
     1
176
     1
 90
        0
176
     1
 40
-0.6
176
     1
 41
-30.0
176
     1
 62
     5
 63
     7
421
 16777215
176
     1
 74
     0
176
     1
 91
        4
176
     1
 64
     7
176
     1
 65
   257
176
     1
 75
     1
176
     1
175
     1
176
     1
 42
1.0
176
     1
 92
        8
176
     1
 66
     7
176
     1
 43
1.0
176
     1
 76
     1
176
     1
 77
     6
176
     1
 78
     2
176
     1
 67
     7
176
     1
 79
     5
176
     1
170
     0
176
     1
171
     0
176
     1
290
     0
176
     1
 93
        1
176
     1
 44
0.0
176
     1
173
     0
176
     1
  0
VISUALSTYLE
  5
36
102
{ACAD_REACTORS
330
2A
102
}
330
2A
100
AcDbVisualStyle
  2
Brighten
 70
    12
177
     2
291
     1
 71
     2
176
     1
 72
     2
176
     1
 73
     0
176
     1
 90
        0
176
     1
 40
-0.6
176
     1
 41
-30.0
176
     1
 62
     5
 63
     7
421
 16777215
176
     1
 74
     1
176
     1
 91
        4
176
     1
 64
     7
176
     1
 65
   257
176
     1
 75
     1
176
     1
175
     1
176
     1
 42
1.0
176
     1
 92
        8
176
     1
 66
     7
176
     1
 43
1.0
176
     1
 76
     1
176
     1
 77
     6
176
     1
 78
     2
176
     1
 67
     7
176
     1
 79
     5
176
     1
170
     0
176
     1
171
     0
176
     1
290
     0
176
     1
 93
        1
176
     1
 44
50.0
176
     1
173
     0
176
     1
  0
VISUALSTYLE
  5
3A
102
{ACAD_REACTORS
330
2A
102
}
330
2A
100
AcDbVisualStyle
  2
ColorChange
 70
    16
177
     2
291
     1
 71
     2
176
     1
 72
     2
176
     1
 73
     3
176
     1
 90
        0
176
     1
 40
-0.6
176
     1
 41
-30.0
176
     1
 62
     5
 63
     8
421
  8421504
176
     1
 74
     1
176
     1
 91
        4
176
     1
 64
     7
176
     1
 65
   257
176
     1
 75
     1
176
     1
175
     1
176
     1
 42
1.0
176
     1
 92
        8
176
     1
 66
     8
424
  8421504
176
     1
 43
1.0
176
     1
 76
     1
176
     1
 77
     6
176
     1
 78
     2
176
     1
 67
     7
176
     1
 79
     5
176
     1
170
     0
176
     1
171
     0
176
     1
290
     0
176
     1
 93
        1
176
     1
 44
0.0
176
     1
173
     0
176
     1
  0
VISUALSTYLE
  5
34
102
{ACAD_REACTORS
330
2A
102
}
330
2A
100
AcDbVisualStyle
  2
Conceptual
 70
     9
177
     2
291
     0
 71
     3
176
     1
 72
     2
176
     1
 73
     0
176
     1
 90
        0
176
     1
 40
-0.6
176
     1
 41
-30.0
176
     1
 62
     5
 63
     7
421
 16777215
176
     1
 74
     2
176
     1
 91
        2
176
     1
 64
     7
176
     1
 65
   257
176
     1
 75
     1
176
     1
175
     1
176
     1
 42
40.0
176
     1
 92
        8
176
     1
 66
     7
176
     1
 43
1.0
176
     1
 76
     1
176
     1
 77
     6
176
     1
 78
     2
176
     1
 67
     7
176
     1
 79
     3
176
     1
170
     0
176
     1
171
     0
176
     1
290
     0
176
     1
 93
        1
176
     1
 44
0.0
176
     1
173
     0
176
     1
  0
VISUALSTYLE
  5
35
102
{ACAD_REACTORS
330
2A
102
}
330
2A
100
AcDbVisualStyle
  2
Dim
 70
    11
177
     2
291
     1
 71
     2
176
     1
 72
     2
176
     1
 73
     0
176
     1
 90
        0
176
     1
 40
-0.6
176
     1
 41
-30.0
176
     1
 62
     5
 63
     7
421
 16777215
176
     1
 74
     1
176
     1
 91
        4
176
     1
 64
     7
176
     1
 65
   257
176
     1
 75
     1
176
     1
175
     1
176
     1
 42
1.0
176
     1
 92
        8
176
     1
 66
     7
176
     1
 43
1.0
176
     1
 76
     1
176
     1
 77
     6
176
     1
 78
     2
176
     1
 67
     7
176
     1
 79
     5
176
     1
170
     0
176
     1
171
     0
176
     1
290
     0
176
     1
 93
        1
176
     1
 44
-50.0
176
     1
173
     0
176
     1
  0
VISUALSTYLE
  5
39
102
{ACAD_REACTORS
330
2A
102
}
330
2A
100
AcDbVisualStyle
  2
Facepattern
 70
    15
177
     2
291
     1
 71
     2
176
     1
 72
     2
176
     1
 73
     0
176
     1
 90
        0
176
     1
 40
-0.6
176
     1
 41
-30.0
176
     1
 62
     5
 63
     7
421
 16777215
176
     1
 74
     1
176
     1
 91
        4
176
     1
 64
     7
176
     1
 65
   257
176
     1
 75
     1
176
     1
175
     1
176
     1
 42
1.0
176
     1
 92
        8
176
     1
 66
     7
176
     1
 43
1.0
176
     1
 76
     1
176
     1
 77
     6
176
     1
 78
     2
176
     1
 67
     7
176
     1
 79
     5
176
     1
170
     0
176
     1
171
     0
176
     1
290
     0
176
     1
 93
        1
176
     1
 44
0.0
176
     1
173
     0
176
     1
  0
VISUALSTYLE
  5
2B
102
{ACAD_REACTORS
330
2A
102
}
330
2A
100
AcDbVisualStyle
  2
Flat
 70
     0
177
     2
291
     1
 71
     2
176
     1
 72
     1
176
     1
 73
     1
176
     1
 90
        2
176
     1
 40
-0.6
176
     1
 41
30.0
176
     1
 62
     5
 63
     7
421
 16777215
176
     1
 74
     0
176
     1
 91
        4
176
     1
 64
     7
176
     1
 65
   257
176
     1
 75
     1
176
     1
175
     1
176
     1
 42
1.0
176
     1
 92
        8
176
     1
 66
     7
176
     1
 43
1.0
176
     1
 76
     1
176
     1
 77
     6
176
     1
 78
     2
176
     1
 67
     7
176
     1
 79
     5
176
     1
170
     0
176
     1
171
     0
176
     1
290
     0
176
     1
 93
       13
176
     1
 44
0.0
176
     1
173
     0
176
     1
  0
VISUALSTYLE
  5
2C
102
{ACAD_REACTORS
330
2A
102
}
330
2A
100
AcDbVisualStyle
  2
FlatWithEdges
 70
     1
177
     2
291
     1
 71
     2
176
     1
 72
     1
176
     1
 73
     1
176
     1
 90
        2
176
     1
 40
-0.6
176
     1
 41
30.0
176
     1
 62
     5
 63
     7
421
 16777215
176
     1
 74
     1
176
     1
 91
        4
176
     1
 64
     7
176
     1
 65
   257
176
     1
 75
     1
176
     1
175
     1
176
     1
 42
1.0
176
     1
 92
        0
176
     1
 66
   257
176
     1
 43
1.0
176
     1
 76
     1
176
     1
 77
     6
176
     1
 78
     2
176
     1
 67
     7
176
     1
 79
     5
176
     1
170
     0
176
     1
171
     0
176
     1
290
     0
176
     1
 93
       13
176
     1
 44
0.0
176
     1
173
     0
176
     1
  0
VISUALSTYLE
  5
2D
102
{ACAD_REACTORS
330
2A
102
}
330
2A
100
AcDbVisualStyle
  2
Gouraud
 70
     2
177
     2
291
     1
 71
     2
176
     1
 72
     2
176
     1
 73
     1
176
     1
 90
        2
176
     1
 40
-0.6
176
     1
 41
30.0
176
     1
 62
     5
 63
     7
421
 16777215
176
     1
 74
     0
176
     1
 91
        4
176
     1
 64
     7
176
     1
 65
   257
176
     1
 75
     1
176
     1
175
     1
176
     1
 42
1.0
176
     1
 92
        0
176
     1
 66
     7
176
     1
 43
1.0
176
     1
 76
     1
176
     1
 77
     6
176
     1
 78
     2
176
     1
 67
     7
176
     1
 79
     5
176
     1
170
     0
176
     1
171
     0
176
     1
290
     0
176
     1
 93
       13
176
     1
 44
0.0
176
     1
173
     0
176
     1
  0
VISUALSTYLE
  5
2E
102
{ACAD_REACTORS
330
2A
102
}
330
2A
100
AcDbVisualStyle
  2
GouraudWithEdges
 70
     3
177
     2
291
     1
 71
     2
176
     1
 72
     2
176
     1
 73
     1
176
     1
 90
        2
176
     1
 40
-0.6
176
     1
 41
30.0
176
     1
 62
     5
 63
     7
421
 16777215
176
     1
 74
     1
176
     1
 91
        4
176
     1
 64
     7
176
     1
 65
   257
176
     1
 75
     1
176
     1
175
     1
176
     1
 42
1.0
176
     1
 92
        0
176
     1
 66
   257
176
     1
 43
1.0
176
     1
 76
     1
176
     1
 77
     6
176
     1
 78
     2
176
     1
 67
     7
176
     1
 79
     5
176
     1
170
     0
176
     1
171
     0
176
     1
290
     0
176
     1
 93
       13
176
     1
 44
0.0
176
     1
173
     0
176
     1
  0
VISUALSTYLE
  5
38
102
{ACAD_REACTORS
330
2A
102
}
330
2A
100
AcDbVisualStyle
  2
Linepattern
 70
    14
177
     2
291
     1
 71
     2
176
     1
 72
     2
176
     1
 73
     0
176
     1
 90
        0
176
     1
 40
-0.6
176
     1
 41
-30.0
176
     1
 62
     5
 63
     7
421
 16777215
176
     1
 74
     1
176
     1
 91
        4
176
     1
 64
     7
176
     1
 65
   257
176
     1
 75
     7
176
     1
175
     7
176
     1
 42
1.0
176
     1
 92
        8
176
     1
 66
     7
176
     1
 43
1.0
176
     1
 76
     1
176
     1
 77
     6
176
     1
 78
     2
176
     1
 67
     7
176
     1
 79
     5
176
     1
170
     0
176
     1
171
     0
176
     1
290
     0
176
     1
 93
        1
176
     1
 44
0.0
176
     1
173
     0
176
     1
  0
VISUALSTYLE
  5
33
102
{ACAD_REACTORS
330
2A
102
}
330
2A
100
AcDbVisualStyle
  2
Realistic
 70
     8
177
     2
291
     0
 71
     2
176
     1
 72
     2
176
     1
 73
     0
176
     1
 90
        0
176
     1
 40
-0.6
176
     1
 41
-30.0
176
     1
 62
     5
 63
     7
421
 16777215
176
     1
 74
     1
176
     1
 91
        0
176
     1
 64
     7
176
     1
 65
   257
176
     1
 75
     1
176
     1
175
     1
176
     1
 42
1.0
176
     1
 92
        8
176
     1
 66
     8
424
  7895160
176
     1
 43
1.0
176
     1
 76
     1
176
     1
 77
     6
176
     1
 78
     2
176
     1
 67
     7
176
     1
 79
     5
176
     1
170
     0
176
     1
171
     0
176
     1
290
     0
176
     1
 93
       13
176
     1
 44
0.0
176
     1
173
     0
176
     1
  0
VISUALSTYLE
  5
37
102
{ACAD_REACTORS
330
2A
102
}
330
2A
100
AcDbVisualStyle
  2
Thicken
 70
    13
177
     2
291
     1
 71
     2
176
     1
 72
     2
176
     1
 73
     0
176
     1
 90
        0
176
     1
 40
-0.6
176
     1
 41
-30.0
176
     1
 62
     5
 63
     7
421
 16777215
176
     1
 74
     1
176
     1
 91
        4
176
     1
 64
     7
176
     1
 65
   257
176
     1
 75
     1
176
     1
175
     1
176
     1
 42
1.0
176
     1
 92
       12
176
     1
 66
     7
176
     1
 43
1.0
176
     1
 76
     1
176
     1
 77
     6
176
     1
 78
     2
176
     1
 67
     7
176
     1
 79
     5
176
     1
170
     0
176
     1
171
     0
176
     1
290
     0
176
     1
 93
        1
176
     1
 44
0.0
176
     1
173
     0
176
     1
  0
ENDSEC
  0
EOF
