  0
SECTION
  2
HEADER
  9
$ACADVER
  1
AC1024
  9
$ACADMAINTVER
 70
     6
  9
$DWGCODEPAGE
  3
ANSI_1252
  9
$INSBASE
 10
0.0
 20
0.0
 30
0.0
  9
$EXTMIN
 10
1.000000000000000E+20
 20
1.000000000000000E+20
 30
1.000000000000000E+20
  9
$EXTMAX
 10
-1.000000000000000E+20
 20
-1.000000000000000E+20
 30
-1.000000000000000E+20
  9
$LIMMIN
 10
0.0
 20
0.0
  9
$LIMMAX
 10
12.0
 20
9.0
  9
$ORTHOMODE
 70
     0
  9
$REGENMODE
 70
     1
  9
$FILLMODE
 70
     1
  9
$QTEXTMODE
 70
     0
  9
$MIRRTEXT
 70
     1
  9
$LTSCALE
 40
1.0
  9
$ATTMODE
 70
     1
  9
$TEXTSIZE
 40
0.2
  9
$TRACEWID
 40
0.05
  9
$TEXTSTYLE
  7
Standard
  9
$CLAYER
  8
0
  9
$CELTYPE
  6
ByLayer
  9
$CECOLOR
 62
   256
  9
$CELTSCALE
 40
1.0
  9
$DISPSILH
 70
     0
  9
$DIMSCALE
 40
1.0
  9
$DIMASZ
 40
0.18
  9
$DIMEXO
 40
0.0625
  9
$DIMDLI
 40
0.38
  9
$DIMRND
 40
0.0
  9
$DIMDLE
 40
0.0
  9
$DIMEXE
 40
0.18
  9
$DIMTP
 40
0.0
  9
$DIMTM
 40
0.0
  9
$DIMTXT
 40
0.18
  9
$DIMCEN
 40
0.09
  9
$DIMTSZ
 40
0.0
  9
$DIMTOL
 70
     0
  9
$DIMLIM
 70
     0
  9
$DIMTIH
 70
     1
  9
$DIMTOH
 70
     1
  9
$DIMSE1
 70
     0
  9
$DIMSE2
 70
     0
  9
$DIMTAD
 70
     0
  9
$DIMZIN
 70
     0
  9
$DIMBLK
  1

  9
$DIMASO
 70
     1
  9
$DIMSHO
 70
     1
  9
$DIMPOST
  1

  9
$DIMAPOST
  1

  9
$DIMALT
 70
     0
  9
$DIMALTD
 70
     2
  9
$DIMALTF
 40
25.4
  9
$DIMLFAC
 40
1.0
  9
$DIMTOFL
 70
     0
  9
$DIMTVP
 40
0.0
  9
$DIMTIX
 70
     0
  9
$DIMSOXD
 70
     0
  9
$DIMSAH
 70
     0
  9
$DIMBLK1
  1

  9
$DIMBLK2
  1

  9
$DIMSTYLE
  2
Standard
  9
$DIMCLRD
 70
     0
  9
$DIMCLRE
 70
     0
  9
$DIMCLRT
 70
     0
  9
$DIMTFAC
 40
1.0
  9
$DIMGAP
 40
0.09
  9
$DIMJUST
 70
     0
  9
$DIMSD1
 70
     0
  9
$DIMSD2
 70
     0
  9
$DIMTOLJ
 70
     1
  9
$DIMTZIN
 70
     0
  9
$DIMALTZ
 70
     0
  9
$DIMALTTZ
 70
     0
  9
$DIMUPT
 70
     0
  9
$DIMDEC
 70
     4
  9
$DIMTDEC
 70
     4
  9
$DIMALTU
 70
     2
  9
$DIMALTTD
 70
     2
  9
$DIMTXSTY
  7
Standard
  9
$DIMAUNIT
 70
     0
  9
$DIMADEC
 70
     0
  9
$DIMALTRND
 40
0.0
  9
$DIMAZIN
 70
     0
  9
$DIMDSEP
 70
    46
  9
$DIMATFIT
 70
     3
  9
$DIMFRAC
 70
     0
  9
$DIMLDRBLK
  1

  9
$DIMLUNIT
 70
     2
  9
$DIMLWD
 70
    -2
  9
$DIMLWE
 70
    -2
  9
$DIMTMOVE
 70
     0
  9
$DIMFXL
 40
1.0
  9
$DIMFXLON
 70
     0
  9
$DIMJOGANG
 40
0.7853981633974483
  9
$DIMTFILL
 70
     0
  9
$DIMTFILLCLR
 70
     0
  9
$DIMARCSYM
 70
     0
  9
$DIMLTYPE
  6

  9
$DIMLTEX1
  6

  9
$DIMLTEX2
  6

  9
$DIMTXTDIRECTION
 70
     0
  9
$LUNITS
 70
     2
  9
$LUPREC
 70
     4
  9
$SKETCHINC
 40
0.1
  9
$FILLETRAD
 40
0.5
  9
$AUNITS
 70
     0
  9
$AUPREC
 70
     0
  9
$MENU
  1
.
  9
$ELEVATION
 40
0.0
  9
$PELEVATION
 40
0.0
  9
$THICKNESS
 40
0.0
  9
$LIMCHECK
 70
     0
  9
$CHAMFERA
 40
0.5
  9
$CHAMFERB
 40
0.5
  9
$CHAMFERC
 40
1.0
  9
$CHAMFERD
 40
0.0
  9
$SKPOLY
 70
     0
  9
$TDCREATE
 40
2458164.584060151
  9
$TDUCREATE
 40
2458164.542393484
  9
$TDUPDATE
 40
2458164.584060173
  9
$TDUUPDATE
 40
2458164.542393507
  9
$TDINDWG
 40
0.0000000116
  9
$TDUSRTIMER
 40
0.0000000116
  9
$USRTIMER
 70
     1
  9
$ANGBASE
 50
0.0
  9
$ANGDIR
 70
     0
  9
$PDMODE
 70
     0
  9
$PDSIZE
 40
0.0
  9
$PLINEWID
 40
0.0
  9
$SPLFRAME
 70
     0
  9
$SPLINETYPE
 70
     6
  9
$SPLINESEGS
 70
     8
  9
$HANDSEED
  5
45
  9
$SURFTAB1
 70
     6
  9
$SURFTAB2
 70
     6
  9
$SURFTYPE
 70
     6
  9
$SURFU
 70
     6
  9
$SURFV
 70
     6
  9
$UCSBASE
  2

  9
$UCSNAME
  2

  9
$UCSORG
 10
0.0
 20
0.0
 30
0.0
  9
$UCSXDIR
 10
1.0
 20
0.0
 30
0.0
  9
$UCSYDIR
 10
0.0
 20
1.0
 30
0.0
  9
$UCSORTHOREF
  2

  9
$UCSORTHOVIEW
 70
     0
  9
$UCSORGTOP
 10
0.0
 20
0.0
 30
0.0
  9
$UCSORGBOTTOM
 10
0.0
 20
0.0
 30
0.0
  9
$UCSORGLEFT
 10
0.0
 20
0.0
 30
0.0
  9
$UCSORGRIGHT
 10
0.0
 20
0.0
 30
0.0
  9
$UCSORGFRONT
 10
0.0
 20
0.0
 30
0.0
  9
$UCSORGBACK
 10
0.0
 20
0.0
 30
0.0
  9
$PUCSBASE
  2

  9
$PUCSNAME
  2

  9
$PUCSORG
 10
0.0
 20
0.0
 30
0.0
  9
$PUCSXDIR
 10
1.0
 20
0.0
 30
0.0
  9
$PUCSYDIR
 10
0.0
 20
1.0
 30
0.0
  9
$PUCSORTHOREF
  2

  9
$PUCSORTHOVIEW
 70
     0
  9
$PUCSORGTOP
 10
0.0
 20
0.0
 30
0.0
  9
$PUCSORGBOTTOM
 10
0.0
 20
0.0
 30
0.0
  9
$PUCSORGLEFT
 10
0.0
 20
0.0
 30
0.0
  9
$PUCSORGRIGHT
 10
0.0
 20
0.0
 30
0.0
  9
$PUCSORGFRONT
 10
0.0
 20
0.0
 30
0.0
  9
$PUCSORGBACK
 10
0.0
 20
0.0
 30
0.0
  9
$USERI1
 70
     0
  9
$USERI2
 70
     0
  9
$USERI3
 70
     0
  9
$USERI4
 70
     0
  9
$USERI5
 70
     0
  9
$USERR1
 40
0.0
  9
$USERR2
 40
0.0
  9
$USERR3
 40
0.0
  9
$USERR4
 40
0.0
  9
$USERR5
 40
0.0
  9
$WORLDVIEW
 70
     1
  9
$SHADEDGE
 70
     3
  9
$SHADEDIF
 70
    70
  9
$TILEMODE
 70
     1
  9
$MAXACTVP
 70
    64
  9
$PINSBASE
 10
0.0
 20
0.0
 30
0.0
  9
$PLIMCHECK
 70
     0
  9
$PEXTMIN
 10
1.000000000000000E+20
 20
1.000000000000000E+20
 30
1.000000000000000E+20
  9
$PEXTMAX
 10
-1.000000000000000E+20
 20
-1.000000000000000E+20
 30
-1.000000000000000E+20
  9
$PLIMMIN
 10
0.0
 20
0.0
  9
$PLIMMAX
 10
12.0
 20
9.0
  9
$UNITMODE
 70
     0
  9
$VISRETAIN
 70
     1
  9
$PLINEGEN
 70
     0
  9
$PSLTSCALE
 70
     1
  9
$TREEDEPTH
 70
  3020
  9
$CMLSTYLE
  2
Standard
  9
$CMLJUST
 70
     0
  9
$CMLSCALE
 40
1.0
  9
$PROXYGRAPHICS
 70
     1
  9
$MEASUREMENT
 70
     0
  9
$CELWEIGHT
370
    -1
  9
$ENDCAPS
280
     0
  9
$JOINSTYLE
280
     0
  9
$LWDISPLAY
290
     1
  9
$INSUNITS
 70
     1
  9
$HYPERLINKBASE
  1

  9
$STYLESHEET
  1

  9
$XEDIT
290
     1
  9
$CEPSNTYPE
380
     0
  9
$PSTYLEMODE
290
     1
  9
$FINGERPRINTGUID
  2
{1E7C90EF-FCCC-4FAA-93C4-87EAB8F0FF3B}
  9
$VERSIONGUID
  2
{FAEB1C32-E019-11D5-929B-00C0DF256EC4}
  9
$EXTNAMES
290
     1
  9
$PSVPSCALE
 40
0.0
  9
$OLESTARTUP
290
     0
  9
$SORTENTS
280
   127
  9
$INDEXCTL
280
     0
  9
$HIDETEXT
280
     1
  9
$XCLIPFRAME
280
     2
  9
$HALOGAP
280
     0
  9
$OBSCOLOR
 70
   257
  9
$OBSLTYPE
280
     0
  9
$INTERSECTIONDISPLAY
280
     0
  9
$INTERSECTIONCOLOR
 70
   257
  9
$DIMASSOC
280
     2
  9
$PROJECTNAME
  1

  9
$CAMERADISPLAY
290
     0
  9
$LENSLENGTH
 40
50.0
  9
$CAMERAHEIGHT
 40
0.0
  9
$STEPSPERSEC
 40
2.0
  9
$STEPSIZE
 40
6.0
  9
$3DDWFPREC
 40
2.0
  9
$PSOLWIDTH
 40
0.25
  9
$PSOLHEIGHT
 40
4.0
  9
$LOFTANG1
 40
1.570796326794897
  9
$LOFTANG2
 40
1.570796326794897
  9
$LOFTMAG1
 40
0.0
  9
$LOFTMAG2
 40
0.0
  9
$LOFTPARAM
 70
     7
  9
$LOFTNORMALS
280
     1
  9
$LATITUDE
 40
37.795
  9
$LONGITUDE
 40
-122.394
  9
$NORTHDIRECTION
 40
0.0
  9
$TIMEZONE
 70
 -8000
  9
$LIGHTGLYPHDISPLAY
280
     1
  9
$TILEMODELIGHTSYNCH
280
     1
  9
$CMATERIAL
347
3C
  9
$SOLIDHIST
280
     1
  9
$SHOWHIST
280
     1
  9
$DWFFRAME
280
     2
  9
$DGNFRAME
280
     2
  9
$REALWORLDSCALE
290
     1
  9
$INTERFERECOLOR
 62
   256
  9
$CSHADOW
280
     0
  9
$SHADOWPLANELOCATION
 40
0.0
  0
ENDSEC
  0
SECTION
  2
CLASSES
  0
CLASS
  1
ACDBDICTIONARYWDFLT
  2
AcDbDictionaryWithDefault
  3
ObjectDBX Classes
 90
        0
 91
        4
280
     0
281
     0
  0
CLASS
  1
VISUALSTYLE
  2
AcDbVisualStyle
  3
ObjectDBX Classes
 90
     4095
 91
        4
280
     0
281
     0
  0
CLASS
  1
MATERIAL
  2
AcDbMaterial
  3
ObjectDBX Classes
 90
     1153
 91
        4
280
     0
281
     0
  0
CLASS
  1
SUN
  2
AcDbSun
  3
SCENEOE
 90
     1024
 91
        4
280
     0
281
     0
  0
ENDSEC
  0
SECTION
  2
TABLES
  0
TABLE
  2
VPORT
  5
8
330
0
100
AcDbSymbolTable
 70
     1
  0
VPORT
  5
29
330
8
100
AcDbSymbolTableRecord
100
AcDbViewportTableRecord
  2
*Active
 70
     0
 10
0.0
 20
0.0
 11
1.0
 21
1.0
 12
0.0
 22
0.0
 13
0.0
 23
0.0
 14
0.5
 24
0.5
 15
0.5
 25
0.5
 16
0.0
 26
0.0
 36
1.0
 17
6.0
 27
-6.0
 37
0.0
 40
12.0
 41
1.0
 42
50.0
 43
0.0
 44
0.0
 50
0.0
 51
0.0
 71
     0
 72
   100
 73
     1
 74
     3
 75
     0
 76
     0
 77
     0
 78
     0
281
     0
 65
     1
110
0.0
120
0.0
130
0.0
111
1.0
121
0.0
131
0.0
112
0.0
122
1.0
132
0.0
 79
     0
146
0.0
 60
     3
 61
     5
292
     1
282
     1
141
0.0
142
0.0
 63
   250
361
3F
  0
ENDTAB
  0
TABLE
  2
LTYPE
  5
5
330
0
100
AcDbSymbolTable
 70
     1
  0
LTYPE
  5
14
330
5
100
AcDbSymbolTableRecord
100
AcDbLinetypeTableRecord
  2
ByBlock
 70
     0
  3

 72
    65
 73
     0
 40
0.0
  0
LTYPE
  5
15
330
5
100
AcDbSymbolTableRecord
100
AcDbLinetypeTableRecord
  2
ByLayer
 70
     0
  3

 72
    65
 73
     0
 40
0.0
  0
LTYPE
  5
16
330
5
100
AcDbSymbolTableRecord
100
AcDbLinetypeTableRecord
  2
Continuous
 70
     0
  3
Solid line
 72
    65
 73
     0
 40
0.0
  0
ENDTAB
  0
TABLE
  2
LAYER
  5
2
330
0
100
AcDbSymbolTable
 70
     2
  0
LAYER
  5
10
330
2
100
AcDbSymbolTableRecord
100
AcDbLayerTableRecord
  2
0
 70
     0
 62
     7
  6
Continuous
370
    -3
390
F
347
3E
  0
LAYER
  5
40
330
2
100
AcDbSymbolTableRecord
100
AcDbLayerTableRecord
  2
Layer 1
 70
     0
 62
     7
  6
Continuous
370
    -3
390
F
347
3E
  0
ENDTAB
  0
TABLE
  2
STYLE
  5
3
330
0
100
AcDbSymbolTable
 70
     1
  0
STYLE
  5
11
330
3
100
AcDbSymbolTableRecord
100
AcDbTextStyleTableRecord
  2
Standard
 70
     0
 40
0.0
 41
1.0
 50
0.0
 71
     0
 42
0.2
  3
txt
  4

  0
ENDTAB
  0
TABLE
  2
VIEW
  5
6
330
0
100
AcDbSymbolTable
 70
     0
  0
ENDTAB
  0
TABLE
  2
UCS
  5
7
330
0
100
AcDbSymbolTable
 70
     0
  0
ENDTAB
  0
TABLE
  2
APPID
  5
9
330
0
100
AcDbSymbolTable
 70
     1
  0
APPID
  5
12
330
9
100
AcDbSymbolTableRecord
100
AcDbRegAppTableRecord
  2
ACAD
 70
     0
  0
ENDTAB
  0
TABLE
  2
DIMSTYLE
  5
A
330
0
100
AcDbSymbolTable
 70
     1
100
AcDbDimStyleTable
  0
DIMSTYLE
105
27
330
A
100
AcDbSymbolTableRecord
100
AcDbDimStyleTableRecord
  2
Standard
 70
     0
178
     0
340
11
  0
ENDTAB
  0
TABLE
  2
BLOCK_RECORD
  5
1
330
0
100
AcDbSymbolTable
 70
     1
  0
BLOCK_RECORD
  5
1F
330
1
100
AcDbSymbolTableRecord
100
AcDbBlockTableRecord
  2
*Model_Space
340
22
 70
     0
280
     1
281
     0
  0
BLOCK_RECORD
  5
1B
330
1
100
AcDbSymbolTableRecord
100
AcDbBlockTableRecord
  2
*Paper_Space
340
1E
 70
     0
280
     1
281
     0
  0
BLOCK_RECORD
  5
23
330
1
100
AcDbSymbolTableRecord
100
AcDbBlockTableRecord
  2
*Paper_Space0
340
26
 70
     0
280
     1
281
     0
  0
ENDTAB
  0
ENDSEC
  0
SECTION
  2
BLOCKS
  0
BLOCK
  5
20
330
1F
100
AcDbEntity
  8
0
100
AcDbBlockBegin
  2
*Model_Space
 70
     0
 10
0.0
 20
0.0
 30
0.0
  3
*Model_Space
  1

  0
ENDBLK
  5
21
330
1F
100
AcDbEntity
  8
0
100
AcDbBlockEnd
  0
BLOCK
  5
1C
330
1B
100
AcDbEntity
 67
     1
  8
0
100
AcDbBlockBegin
  2
*Paper_Space
 70
     0
 10
0.0
 20
0.0
 30
0.0
  3
*Paper_Space
  1

  0
ENDBLK
  5
1D
330
1B
100
AcDbEntity
 67
     1
  8
0
100
AcDbBlockEnd
  0
BLOCK
  5
24
330
23
100
AcDbEntity
  8
0
100
AcDbBlockBegin
  2
*Paper_Space0
 70
     0
 10
0.0
 20
0.0
 30
0.0
  3
*Paper_Space0
  1

  0
ENDBLK
  5
25
330
23
100
AcDbEntity
  8
0
100
AcDbBlockEnd
  0
ENDSEC
  0
SECTION
  2
ENTITIES
  0
SPLINE
  5
41
330
1F
100
AcDbEntity
  8
Layer 1
 62
     7
420
 16777215
370
    18
100
AcDbSpline
210
0.0
220
0.0
230
1.0
 70
    11
 71
     3
 72
   242
 73
   238
 74
     0
 42
0.0000000001
 43
0.0000000001
 12
1.0
 22
0.0
 32
0.0
 13
1.0
 23
0.0
 33
0.0
 40
0.0
 40
0.0
 40
0.0
 40
0.0
 40
1.0
 40
1.0
 40
1.0
 40
2.0
 40
2.0
 40
2.0
 40
3.0
 40
3.0
 40
3.0
 40
4.0
 40
4.0
 40
4.0
 40
5.0
 40
5.0
 40
5.0
 40
6.0
 40
6.0
 40
6.0
 40
7.0
 40
7.0
 40
7.0
 40
8.0
 40
8.0
 40
8.0
 40
9.0
 40
9.0
 40
9.0
 40
10.0
 40
10.0
 40
10.0
 40
11.0
 40
11.0
 40
11.0
 40
12.0
 40
12.0
 40
12.0
 40
13.0
 40
13.0
 40
13.0
 40
14.0
 40
14.0
 40
14.0
 40
15.0
 40
15.0
 40
15.0
 40
16.0
 40
16.0
 40
16.0
 40
17.0
 40
17.0
 40
17.0
 40
18.0
 40
18.0
 40
18.0
 40
19.0
 40
19.0
 40
19.0
 40
20.0
 40
20.0
 40
20.0
 40
21.0
 40
21.0
 40
21.0
 40
22.0
 40
22.0
 40
22.0
 40
23.0
 40
23.0
 40
23.0
 40
24.0
 40
24.0
 40
24.0
 40
25.0
 40
25.0
 40
25.0
 40
26.0
 40
26.0
 40
26.0
 40
27.0
 40
27.0
 40
27.0
 40
28.0
 40
28.0
 40
28.0
 40
29.0
 40
29.0
 40
29.0
 40
30.0
 40
30.0
 40
30.0
 40
31.0
 40
31.0
 40
31.0
 40
32.0
 40
32.0
 40
32.0
 40
33.0
 40
33.0
 40
33.0
 40
34.0
 40
34.0
 40
34.0
 40
35.0
 40
35.0
 40
35.0
 40
36.0
 40
36.0
 40
36.0
 40
37.0
 40
37.0
 40
37.0
 40
38.0
 40
38.0
 40
38.0
 40
39.0
 40
39.0
 40
39.0
 40
40.0
 40
40.0
 40
40.0
 40
41.0
 40
41.0
 40
41.0
 40
42.0
 40
42.0
 40
42.0
 40
43.0
 40
43.0
 40
43.0
 40
44.0
 40
44.0
 40
44.0
 40
45.0
 40
45.0
 40
45.0
 40
46.0
 40
46.0
 40
46.0
 40
47.0
 40
47.0
 40
47.0
 40
48.0
 40
48.0
 40
48.0
 40
49.0
 40
49.0
 40
49.0
 40
50.0
 40
50.0
 40
50.0
 40
51.0
 40
51.0
 40
51.0
 40
52.0
 40
52.0
 40
52.0
 40
53.0
 40
53.0
 40
53.0
 40
54.0
 40
54.0
 40
54.0
 40
55.0
 40
55.0
 40
55.0
 40
56.0
 40
56.0
 40
56.0
 40
57.0
 40
57.0
 40
57.0
 40
58.0
 40
58.0
 40
58.0
 40
59.0
 40
59.0
 40
59.0
 40
60.0
 40
60.0
 40
60.0
 40
61.0
 40
61.0
 40
61.0
 40
62.0
 40
62.0
 40
62.0
 40
63.0
 40
63.0
 40
63.0
 40
64.0
 40
64.0
 40
64.0
 40
65.0
 40
65.0
 40
65.0
 40
66.0
 40
66.0
 40
66.0
 40
67.0
 40
67.0
 40
67.0
 40
68.0
 40
68.0
 40
68.0
 40
69.0
 40
69.0
 40
69.0
 40
70.0
 40
70.0
 40
70.0
 40
71.0
 40
71.0
 40
71.0
 40
72.0
 40
72.0
 40
72.0
 40
73.0
 40
73.0
 40
73.0
 40
74.0
 40
74.0
 40
74.0
 40
75.0
 40
75.0
 40
75.0
 40
76.0
 40
76.0
 40
76.0
 40
77.0
 40
77.0
 40
77.0
 40
78.0
 40
78.0
 40
78.0
 40
79.0
 40
79.0
 40
79.0
 40
79.0
 10
4.74736975617183
 20
-5.615349036135537
 30
0.0
 10
4.74736975617183
 20
-5.615349036135537
 30
0.0
 10
4.619242542849292
 20
-5.523751631751174
 30
0.0
 10
4.770179056195148
 20
-5.391021808039467
 30
0.0
 10
4.921261106628334
 20
-5.258259238483093
 30
0.0
 10
5.168452211155479
 20
-4.937782933594134
 30
0.0
 10
5.168452211155479
 20
-4.850835439152269
 30
0.0
 10
5.168452211155479
 20
-4.763855198865763
 30
0.0
 10
5.154775363366714
 20
-4.608174176470584
 30
0.0
 10
5.13182052625613
 20
-4.594460944410027
 30
0.0
 10
5.108938457689115
 20
-4.58076226605821
 30
0.0
 10
5.040328636260091
 20
-4.475498929166684
 30
0.0
 10
5.191301533877789
 20
-4.393121299269284
 30
0.0
 10
5.342416330155692
 20
-4.310685454536926
 30
0.0
 10
5.484365928354337
 20
-4.187055337215118
 30
0.0
 10
5.488946708180391
 20
-4.058909931756615
 30
0.0
 10
5.493494742161728
 20
-3.930749972589398
 30
0.0
 10
5.433980988695364
 20
-3.834619087932399
 30
0.0
 10
5.543879681820701
 20
-3.747635209218717
 30
0.0
 10
5.653741990674209
 20
-3.660618584660357
 30
0.0
 10
5.745273903369227
 20
-3.578240954762956
 30
0.0
 10
5.740689485116023
 20
-3.48212826224191
 30
0.0
 10
5.73621058125117
 20
-3.38601556972085
 30
0.0
 10
5.676660443513027
 20
-3.381412959331707
 30
0.0
 10
5.763640683799495
 20
-3.303565171279767
 30
0.0
 10
5.85055179396953
 20
-3.225713744800601
 30
0.0
 10
5.900900349356637
 20
-3.180022376210369
 30
0.0
 10
5.887114348752371
 20
-3.102152757595313
 30
0.0
 10
5.873539376924833
 20
-3.024337715388002
 30
0.0
 10
5.937568418527841
 20
-3.006040065074254
 30
0.0
 10
5.997118556266072
 20
-2.93739385937335
 30
0.0
 10
5.997118556266072
 20
-2.93739385937335
 30
0.0
 10
5.965034905348021
 20
-2.864163235419255
 30
0.0
 10
6.042849947555346
 20
-2.818344521877571
 30
0.0
 10
6.042849947555346
 20
-2.818344521877571
 30
0.0
 10
6.104674102284181
 20
-2.780574009269268
 30
0.0
 10
6.094297307952325
 20
-2.739376098252604
 30
0.0
 10
6.083956897892322
 20
-2.698123610828159
 30
0.0
 10
6.090924485951796
 20
-2.701605585644302
 30
0.0
 10
6.125209385316743
 20
-2.680979341932054
 30
0.0
 10
6.159639821769209
 20
-2.660371290355796
 30
0.0
 10
6.132067820560628
 20
-2.629495597263194
 30
0.0
 10
6.152712256408777
 20
-2.608887545686912
 30
0.0
 10
6.173283923713243
 20
-2.588297686246556
 30
0.0
 10
6.176696768412815
 20
-2.523042494682133
 30
0.0
 10
6.204126870961191
 20
-2.481880967937324
 30
0.0
 10
6.231698872169696
 20
-2.440664864784758
 30
0.0
 10
6.24875218038614
 20
-2.543632354122527
 30
0.0
 10
6.266056540078377
 20
-2.56084939156229
 30
0.0
 10
6.283182616838531
 20
-2.577957276186554
 30
0.0
 10
6.307203513114447
 20
-2.626082752563598
 30
0.0
 10
6.296968617442846
 20
-2.646658058295214
 30
0.0
 10
6.286522692994443
 20
-2.667284302007424
 30
0.0
 10
6.348456000538842
 20
-2.677551943523743
 30
0.0
 10
6.341455666634753
 20
-2.729072072464457
 30
0.0
 10
6.334669999934603
 20
-2.780574009269268
 30
0.0
 10
6.334669999934603
 20
-2.797754662437177
 30
0.0
 10
6.362100102482903
 20
-2.825221149257383
 30
0.0
 10
6.389530205031279
 20
-2.852669443941611
 30
0.0
 10
6.379226179243132
 20
-2.883563329170101
 30
0.0
 10
6.372367743999272
 20
-2.911048008126184
 30
0.0
 10
6.365509308755362
 20
-2.938459918538595
 30
0.0
 10
6.368991283571479
 20
-2.972872162855058
 30
0.0
 10
6.406692666063286
 20
-2.986552649070973
 30
0.0
 10
6.444495924516231
 20
-3.000284073267456
 30
0.0
 10
6.451390744031969
 20
-3.014033689599867
 30
0.0
 10
6.434228282999937
 20
-3.079252496892423
 30
0.0
 10
6.417102206239784
 20
-3.14448949632088
 30
0.0
 10
6.410207386724045
 20
-3.216635868973842
 30
0.0
 10
6.461622001276383
 20
-3.233780137869922
 30
0.0
 10
6.513178514489027
 20
-3.250924406766014
 30
0.0
 10
6.564665897585023
 20
-3.285282074674721
 30
0.0
 10
6.547467052281212
 20
-3.35042811342358
 30
0.0
 10
6.530268206977325
 20
-3.415770627240438
 30
0.0
 10
6.499465282428395
 20
-3.508437729217222
 30
0.0
 10
6.550949027097304
 20
-3.577069381209374
 30
0.0
 10
6.602469156038018
 20
-3.645748332754932
 30
0.0
 10
6.708780359958887
 20
-3.662928985922867
 30
0.0
 10
6.681419387527082
 20
-3.752183243200066
 30
0.0
 10
6.65395653913409
 20
-3.841459331040356
 30
0.0
 10
6.622935308954084
 20
-3.916996717829774
 30
0.0
 10
6.619704385613759
 20
-3.99250135877455
 30
0.0
 10
6.616149642253933
 20
-4.068111514107676
 30
0.0
 10
6.609400359825612
 20
-4.222533640696826
 30
0.0
 10
6.702031077530515
 20
-4.250018319652895
 30
0.0
 10
6.794661795235495
 20
-4.277448422201259
 30
0.0
 10
6.849591130448667
 20
-4.291216230669571
 30
0.0
 10
6.853145873808393
 20
-4.35305857753436
 30
0.0
 10
6.856413181420622
 20
-4.414795410010785
 30
0.0
 10
6.777499334203488
 20
-4.435439845858935
 30
0.0
 10
6.787872490108106
 20
-4.528121501544458
 30
0.0
 10
6.798143770051612
 20
-4.620824987793122
 30
0.0
 10
6.846181924176208
 20
-4.9194998369891
 30
0.0
 10
6.945882105901748
 20
-5.043151784874036
 30
0.0
 10
6.945882105901748
 20
-5.043151784874036
 30
0.0
 10
7.072728592855204
 20
-5.039706194329735
 30
0.0
 10
7.100231463947188
 20
-5.108388784302494
 30
0.0
 10
7.127697950767368
 20
-5.176998605731531
 30
0.0
 10
7.11394469600777
 20
-5.273129490388505
 30
0.0
 10
7.065979310426883
 20
-5.304005183481106
 30
0.0
 10
7.017868387758552
 20
-5.334971837253319
 30
0.0
 10
7.052156925550788
 20
-5.341757503953469
 30
0.0
 10
7.065979310426883
 20
-5.358956349257356
 30
0.0
 10
7.079550643827234
 20
-5.376064233881594
 30
0.0
 10
7.076210567671296
 20
-5.403618042954197
 30
0.0
 10
7.055675284638659
 20
-5.431120914046232
 30
0.0
 10
7.034994464518705
 20
-5.458514632322716
 30
0.0
 10
7.021244848186269
 20
-5.448246990806397
 30
0.0
 10
7.034994464518705
 20
-5.499730735475256
 30
0.0
 10
7.048780465122995
 20
-5.551232672280068
 30
0.0
 10
7.041922029879136
 20
-5.56157308234007
 30
0.0
 10
7.028103283430179
 20
-5.592434221723932
 30
0.0
 10
7.014528311602589
 20
-5.623328106952398
 30
0.0
 10
7.010977206670001
 20
-5.633632132740583
 30
0.0
 10
7.028103283430179
 20
-5.664562402240941
 30
0.0
 10
7.045371258850511
 20
-5.695401711061676
 30
0.0
 10
7.024726823002386
 20
-5.812158839430847
 30
0.0
 10
7.004118771426091
 20
-5.863646222526932
 30
0.0
 10
6.983510719849846
 20
-5.915148159331718
 30
0.0
 10
7.093409412975208
 20
-6.069675800309217
 30
0.0
 10
7.148375132460134
 20
-6.100569685537746
 30
0.0
 10
7.203344490372324
 20
-6.13144537863036
 30
0.0
 10
7.306206465321742
 20
-6.237880289075469
 30
0.0
 10
7.302830004893949
 20
-6.282527429063596
 30
0.0
 10
7.299348030077832
 20
-6.327189122760425
 30
0.0
 10
7.234151053348391
 20
-6.443891674721827
 30
0.0
 10
7.251346260225091
 20
-6.485107777874418
 30
0.0
 10
7.268472336985269
 20
-6.526272943046428
 30
0.0
 10
7.234151053348391
 20
-6.536576968834575
 30
0.0
 10
7.220397798588818
 20
-6.577793071987116
 30
0.0
 10
7.206717312372929
 20
-6.618954598731912
 30
0.0
 10
7.251346260225091
 20
-6.643030071415599
 30
0.0
 10
7.244418694864684
 20
-6.701372251328368
 30
0.0
 10
7.23756025962085
 20
-6.759750815512941
 30
0.0
 10
7.172359644464172
 20
-6.780358867089237
 30
0.0
 10
7.192898565923971
 20
-6.835273648593657
 30
0.0
 10
7.213506617500242
 20
-6.89020298380678
 30
0.0
 10
7.11394469600777
 20
-6.941723112747518
 30
0.0
 10
7.11394469600777
 20
-6.96574400902341
 30
0.0
 10
7.11394469600777
 20
-6.989746713163387
 30
0.0
 10
7.103640670219622
 20
-7.037853997404504
 30
0.0
 10
7.065979310426883
 20
-7.075624510012807
 30
0.0
 10
7.028103283430179
 20
-7.113358638349281
 30
0.0
 10
6.962939052545405
 20
-7.185472265157538
 30
0.0
 10
6.9561170015734
 20
-7.226651984038299
 30
0.0
 10
6.94918579778578
 20
-7.267849895054925
 30
0.0
 10
6.866822721597195
 20
-7.305656791935083
 30
0.0
 10
6.877130385812481
 20
-7.346818318679905
 30
0.0
 10
6.887467157445295
 20
-7.388070806104325
 30
0.0
 10
6.787872490108106
 20
-7.429305101392806
 30
0.0
 10
6.794661795235495
 20
-7.463539062777246
 30
0.0
 10
6.8014838462075
 20
-7.497933114957807
 30
0.0
 10
6.671151746010714
 20
-7.566546574814057
 30
0.0
 10
6.688314207042822
 20
-7.590563832662736
 30
0.0
 10
6.705440283802974
 20
-7.614621113210482
 30
0.0
 10
6.564665897585023
 20
-7.683303703183279
 30
0.0
 10
6.574933539101367
 20
-7.710770190003434
 30
0.0
 10
6.585273949161369
 20
-7.738269422668231
 30
0.0
 10
6.47199879560824
 20
-7.789756805764277
 30
0.0
 10
6.475408001880648
 20
-7.837794959888874
 30
0.0
 10
6.478784462308416
 20
-7.8858694982854
 30
0.0
 10
6.338079206207062
 20
-7.913332346678317
 30
0.0
 10
6.362100102482903
 20
-7.971692718726975
 30
0.0
 10
6.386153744603511
 20
-8.030089475047463
 30
0.0
 10
6.262541819417619
 20
-8.064414397111527
 30
0.0
 10
6.293417512510182
 20
-8.095308282340081
 30
0.0
 10
6.324293205602745
 20
-8.126220359704499
 30
0.0
 10
6.211018052049692
 20
-8.167403717012423
 30
0.0
 10
6.238484538869872
 20
-8.191420974861177
 30
0.0
 10
6.266056540078377
 20
-8.215474616981712
 30
0.0
 10
6.200714026261569
 20
-8.27383498903037
 30
0.0
 10
6.207572461505454
 20
-8.30817810323035
 30
0.0
 10
6.214536411137664
 20
-8.342535771139005
 30
0.0
 10
6.152712256408777
 20
-8.527920913073153
 30
0.0
 10
6.135480665260249
 20
-8.66526790088273
 30
0.0
 10
6.118245435684508
 20
-8.802582142847692
 30
0.0
 10
5.984434999098842
 20
-8.854065887516551
 30
0.0
 10
5.929502025458532
 20
-8.860887938488531
 30
0.0
 10
5.874499921701701
 20
-8.867782758004296
 30
0.0
 10
5.678934460503696
 20
-8.71330969343454
 30
0.0
 10
5.637681973079276
 20
-8.620537077069356
 30
0.0
 10
5.596396739810163
 20
-8.527920913073153
 30
0.0
 10
5.548500484345772
 20
-8.455792732556194
 30
0.0
 10
5.496871202589507
 20
-8.36309288473472
 30
0.0
 10
5.445492972308961
 20
-8.270371206350166
 30
0.0
 10
5.387045278007892
 20
-8.208619820164989
 30
0.0
 10
5.359611537032353
 20
-8.109039706536553
 30
0.0
 10
5.332148688639348
 20
-8.009463231335353
 30
0.0
 10
5.325253869123672
 20
-8.002622988227307
 30
0.0
 10
5.318362688035083
 20
-7.916726999242023
 30
0.0
 10
5.31150425279121
 20
-7.830918332509049
 30
0.0
 10
5.301236611274931
 20
-7.851544576221335
 30
0.0
 10
5.270288149638645
 20
-7.786274830948186
 30
0.0
 10
5.239445202390735
 20
-7.721088769500284
 30
0.0
 10
5.249712843907016
 20
-7.600886050586773
 30
0.0
 10
5.249712843907016
 20
-7.600886050586773
 30
0.0
 10
5.249712843907016
 20
-7.600886050586773
 30
0.0
 10
5.215318791726468
 20
-7.604335279558275
 30
0.0
 10
5.229213945146297
 20
-7.449844022852605
 30
0.0
 10
5.229213945146297
 20
-7.449844022852605
 30
0.0
 10
5.146745354569248
 20
-7.422395728168365
 30
0.0
 10
5.194783508693907
 20
-7.285066932494727
 30
0.0
 10
5.194783508693907
 20
-7.285066932494727
 30
0.0
 10
5.136441328781112
 20
-7.219829933066269
 30
0.0
 10
5.181066638206137
 20
-7.144219777733118
 30
0.0
 10
5.181066638206137
 20
-7.144219777733118
 30
0.0
 10
5.146745354569248
 20
-7.048176215328567
 30
0.0
 10
5.167317021873751
 20
-7.006960112175975
 30
0.0
 10
5.167317021873751
 20
-7.006960112175975
 30
0.0
 10
5.091775996657071
 20
-6.941723112747518
 30
0.0
 10
5.139781404937025
 20
-6.873058714910687
 30
0.0
 10
5.139781404937025
 20
-6.873058714910687
 30
0.0
 10
5.07461353562505
 20
-6.776913276544974
 30
0.0
 10
5.08488481556857
 20
-6.73571172710116
 30
0.0
 10
5.08488481556857
 20
-6.73571172710116
 30
0.0
 10
5.050596277776372
 20
-6.718534712360375
 30
0.0
 10
5.047150687232134
 20
-6.649903060368236
 30
0.0
 10
5.047150687232134
 20
-6.649903060368236
 30
0.0
 10
4.951070740555742
 20
-6.639617226715977
 30
0.0
 10
4.940803099039461
 20
-6.488520622574015
 30
0.0
 10
4.940803099039461
 20
-6.488520622574015
 30
0.0
 10
4.824082354942081
 20
-6.385513110537254
 30
0.0
 10
4.88580099528258
 20
-6.306562879048189
 30
0.0
 10
4.88580099528258
 20
-6.306562879048189
 30
0.0
 10
4.720969328516895
 20
-6.258488340651739
 30
0.0
 10
4.820563995854122
 20
-6.128036172357901
 30
0.0
 10
4.820563995854122
 20
-6.128036172357901
 30
0.0
 10
4.662590764332308
 20
-6.076530597125914
 30
0.0
 10
4.748399431065208
 20
-5.966668288272457
 30
0.0
 10
4.748399431065208
 20
-5.966668288272457
 30
0.0
 10
4.655626814700086
 20
-5.880790491423012
 30
0.0
 10
4.741540995821398
 20
-5.825926647899185
 30
0.0
 10
4.741540995821398
 20
-5.825926647899185
 30
0.0
 10
4.659145173788071
 20
-5.760638710490134
 30
0.0
 10
4.686680790724722
 20
-5.688579660089633
 30
0.0
 10
4.714147277544877
 20
-5.616469671708564
 30
0.0
 10
4.74736975617183
 20
-5.615349036135537
 30
0.0
 10
4.74736975617183
 20
-5.615349036135537
 30
0.0
  0
HATCH
  5
42
330
1F
100
AcDbEntity
  8
Layer 1
 62
     7
420
 16777215
100
AcDbHatch
 10
0.0
 20
0.0
 30
0.0
210
0.0
220
0.0
230
1.0
  2
SOLID
 70
     1
 71
     0
 91
        1
 92
        1
 93
        1
 72
     4
 94
        3
 73
     0
 74
     1
 95
      242
 96
      238
 40
0.0
 40
0.0
 40
0.0
 40
0.0
 40
1.0
 40
1.0
 40
1.0
 40
2.0
 40
2.0
 40
2.0
 40
3.0
 40
3.0
 40
3.0
 40
4.0
 40
4.0
 40
4.0
 40
5.0
 40
5.0
 40
5.0
 40
6.0
 40
6.0
 40
6.0
 40
7.0
 40
7.0
 40
7.0
 40
8.0
 40
8.0
 40
8.0
 40
9.0
 40
9.0
 40
9.0
 40
10.0
 40
10.0
 40
10.0
 40
11.0
 40
11.0
 40
11.0
 40
12.0
 40
12.0
 40
12.0
 40
13.0
 40
13.0
 40
13.0
 40
14.0
 40
14.0
 40
14.0
 40
15.0
 40
15.0
 40
15.0
 40
16.0
 40
16.0
 40
16.0
 40
17.0
 40
17.0
 40
17.0
 40
18.0
 40
18.0
 40
18.0
 40
19.0
 40
19.0
 40
19.0
 40
20.0
 40
20.0
 40
20.0
 40
21.0
 40
21.0
 40
21.0
 40
22.0
 40
22.0
 40
22.0
 40
23.0
 40
23.0
 40
23.0
 40
24.0
 40
24.0
 40
24.0
 40
25.0
 40
25.0
 40
25.0
 40
26.0
 40
26.0
 40
26.0
 40
27.0
 40
27.0
 40
27.0
 40
28.0
 40
28.0
 40
28.0
 40
29.0
 40
29.0
 40
29.0
 40
30.0
 40
30.0
 40
30.0
 40
31.0
 40
31.0
 40
31.0
 40
32.0
 40
32.0
 40
32.0
 40
33.0
 40
33.0
 40
33.0
 40
34.0
 40
34.0
 40
34.0
 40
35.0
 40
35.0
 40
35.0
 40
36.0
 40
36.0
 40
36.0
 40
37.0
 40
37.0
 40
37.0
 40
38.0
 40
38.0
 40
38.0
 40
39.0
 40
39.0
 40
39.0
 40
40.0
 40
40.0
 40
40.0
 40
41.0
 40
41.0
 40
41.0
 40
42.0
 40
42.0
 40
42.0
 40
43.0
 40
43.0
 40
43.0
 40
44.0
 40
44.0
 40
44.0
 40
45.0
 40
45.0
 40
45.0
 40
46.0
 40
46.0
 40
46.0
 40
47.0
 40
47.0
 40
47.0
 40
48.0
 40
48.0
 40
48.0
 40
49.0
 40
49.0
 40
49.0
 40
50.0
 40
50.0
 40
50.0
 40
51.0
 40
51.0
 40
51.0
 40
52.0
 40
52.0
 40
52.0
 40
53.0
 40
53.0
 40
53.0
 40
54.0
 40
54.0
 40
54.0
 40
55.0
 40
55.0
 40
55.0
 40
56.0
 40
56.0
 40
56.0
 40
57.0
 40
57.0
 40
57.0
 40
58.0
 40
58.0
 40
58.0
 40
59.0
 40
59.0
 40
59.0
 40
60.0
 40
60.0
 40
60.0
 40
61.0
 40
61.0
 40
61.0
 40
62.0
 40
62.0
 40
62.0
 40
63.0
 40
63.0
 40
63.0
 40
64.0
 40
64.0
 40
64.0
 40
65.0
 40
65.0
 40
65.0
 40
66.0
 40
66.0
 40
66.0
 40
67.0
 40
67.0
 40
67.0
 40
68.0
 40
68.0
 40
68.0
 40
69.0
 40
69.0
 40
69.0
 40
70.0
 40
70.0
 40
70.0
 40
71.0
 40
71.0
 40
71.0
 40
72.0
 40
72.0
 40
72.0
 40
73.0
 40
73.0
 40
73.0
 40
74.0
 40
74.0
 40
74.0
 40
75.0
 40
75.0
 40
75.0
 40
76.0
 40
76.0
 40
76.0
 40
77.0
 40
77.0
 40
77.0
 40
78.0
 40
78.0
 40
78.0
 40
79.0
 40
79.0
 40
79.0
 40
79.0
 10
4.74736975617183
 20
-5.615349036135537
 10
4.74736975617183
 20
-5.615349036135537
 10
4.619242542849292
 20
-5.523751631751174
 10
4.770179056195148
 20
-5.391021808039467
 10
4.921261106628334
 20
-5.258259238483093
 10
5.168452211155479
 20
-4.937782933594134
 10
5.168452211155479
 20
-4.850835439152269
 10
5.168452211155479
 20
-4.763855198865763
 10
5.154775363366714
 20
-4.608174176470584
 10
5.13182052625613
 20
-4.594460944410027
 10
5.108938457689115
 20
-4.58076226605821
 10
5.040328636260091
 20
-4.475498929166684
 10
5.191301533877789
 20
-4.393121299269284
 10
5.342416330155692
 20
-4.310685454536926
 10
5.484365928354337
 20
-4.187055337215118
 10
5.488946708180391
 20
-4.058909931756615
 10
5.493494742161728
 20
-3.930749972589398
 10
5.433980988695364
 20
-3.834619087932399
 10
5.543879681820701
 20
-3.747635209218717
 10
5.653741990674209
 20
-3.660618584660357
 10
5.745273903369227
 20
-3.578240954762956
 10
5.740689485116023
 20
-3.48212826224191
 10
5.73621058125117
 20
-3.38601556972085
 10
5.676660443513027
 20
-3.381412959331707
 10
5.763640683799495
 20
-3.303565171279767
 10
5.85055179396953
 20
-3.225713744800601
 10
5.900900349356637
 20
-3.180022376210369
 10
5.887114348752371
 20
-3.102152757595313
 10
5.873539376924833
 20
-3.024337715388002
 10
5.937568418527841
 20
-3.006040065074254
 10
5.997118556266072
 20
-2.93739385937335
 10
5.997118556266072
 20
-2.93739385937335
 10
5.965034905348021
 20
-2.864163235419255
 10
6.042849947555346
 20
-2.818344521877571
 10
6.042849947555346
 20
-2.818344521877571
 10
6.104674102284181
 20
-2.780574009269268
 10
6.094297307952325
 20
-2.739376098252604
 10
6.083956897892322
 20
-2.698123610828159
 10
6.090924485951796
 20
-2.701605585644302
 10
6.125209385316743
 20
-2.680979341932054
 10
6.159639821769209
 20
-2.660371290355796
 10
6.132067820560628
 20
-2.629495597263194
 10
6.152712256408777
 20
-2.608887545686912
 10
6.173283923713243
 20
-2.588297686246556
 10
6.176696768412815
 20
-2.523042494682133
 10
6.204126870961191
 20
-2.481880967937324
 10
6.231698872169696
 20
-2.440664864784758
 10
6.24875218038614
 20
-2.543632354122527
 10
6.266056540078377
 20
-2.56084939156229
 10
6.283182616838531
 20
-2.577957276186554
 10
6.307203513114447
 20
-2.626082752563598
 10
6.296968617442846
 20
-2.646658058295214
 10
6.286522692994443
 20
-2.667284302007424
 10
6.348456000538842
 20
-2.677551943523743
 10
6.341455666634753
 20
-2.729072072464457
 10
6.334669999934603
 20
-2.780574009269268
 10
6.334669999934603
 20
-2.797754662437177
 10
6.362100102482903
 20
-2.825221149257383
 10
6.389530205031279
 20
-2.852669443941611
 10
6.379226179243132
 20
-2.883563329170101
 10
6.372367743999272
 20
-2.911048008126184
 10
6.365509308755362
 20
-2.938459918538595
 10
6.368991283571479
 20
-2.972872162855058
 10
6.406692666063286
 20
-2.986552649070973
 10
6.444495924516231
 20
-3.000284073267456
 10
6.451390744031969
 20
-3.014033689599867
 10
6.434228282999937
 20
-3.079252496892423
 10
6.417102206239784
 20
-3.14448949632088
 10
6.410207386724045
 20
-3.216635868973842
 10
6.461622001276383
 20
-3.233780137869922
 10
6.513178514489027
 20
-3.250924406766014
 10
6.564665897585023
 20
-3.285282074674721
 10
6.547467052281212
 20
-3.35042811342358
 10
6.530268206977325
 20
-3.415770627240438
 10
6.499465282428395
 20
-3.508437729217222
 10
6.550949027097304
 20
-3.577069381209374
 10
6.602469156038018
 20
-3.645748332754932
 10
6.708780359958887
 20
-3.662928985922867
 10
6.681419387527082
 20
-3.752183243200066
 10
6.65395653913409
 20
-3.841459331040356
 10
6.622935308954084
 20
-3.916996717829774
 10
6.619704385613759
 20
-3.99250135877455
 10
6.616149642253933
 20
-4.068111514107676
 10
6.609400359825612
 20
-4.222533640696826
 10
6.702031077530515
 20
-4.250018319652895
 10
6.794661795235495
 20
-4.277448422201259
 10
6.849591130448667
 20
-4.291216230669571
 10
6.853145873808393
 20
-4.35305857753436
 10
6.856413181420622
 20
-4.414795410010785
 10
6.777499334203488
 20
-4.435439845858935
 10
6.787872490108106
 20
-4.528121501544458
 10
6.798143770051612
 20
-4.620824987793122
 10
6.846181924176208
 20
-4.9194998369891
 10
6.945882105901748
 20
-5.043151784874036
 10
6.945882105901748
 20
-5.043151784874036
 10
7.072728592855204
 20
-5.039706194329735
 10
7.100231463947188
 20
-5.108388784302494
 10
7.127697950767368
 20
-5.176998605731531
 10
7.11394469600777
 20
-5.273129490388505
 10
7.065979310426883
 20
-5.304005183481106
 10
7.017868387758552
 20
-5.334971837253319
 10
7.052156925550788
 20
-5.341757503953469
 10
7.065979310426883
 20
-5.358956349257356
 10
7.079550643827234
 20
-5.376064233881594
 10
7.076210567671296
 20
-5.403618042954197
 10
7.055675284638659
 20
-5.431120914046232
 10
7.034994464518705
 20
-5.458514632322716
 10
7.021244848186269
 20
-5.448246990806397
 10
7.034994464518705
 20
-5.499730735475256
 10
7.048780465122995
 20
-5.551232672280068
 10
7.041922029879136
 20
-5.56157308234007
 10
7.028103283430179
 20
-5.592434221723932
 10
7.014528311602589
 20
-5.623328106952398
 10
7.010977206670001
 20
-5.633632132740583
 10
7.028103283430179
 20
-5.664562402240941
 10
7.045371258850511
 20
-5.695401711061676
 10
7.024726823002386
 20
-5.812158839430847
 10
7.004118771426091
 20
-5.863646222526932
 10
6.983510719849846
 20
-5.915148159331718
 10
7.093409412975208
 20
-6.069675800309217
 10
7.148375132460134
 20
-6.100569685537746
 10
7.203344490372324
 20
-6.13144537863036
 10
7.306206465321742
 20
-6.237880289075469
 10
7.302830004893949
 20
-6.282527429063596
 10
7.299348030077832
 20
-6.327189122760425
 10
7.234151053348391
 20
-6.443891674721827
 10
7.251346260225091
 20
-6.485107777874418
 10
7.268472336985269
 20
-6.526272943046428
 10
7.234151053348391
 20
-6.536576968834575
 10
7.220397798588818
 20
-6.577793071987116
 10
7.206717312372929
 20
-6.618954598731912
 10
7.251346260225091
 20
-6.643030071415599
 10
7.244418694864684
 20
-6.701372251328368
 10
7.23756025962085
 20
-6.759750815512941
 10
7.172359644464172
 20
-6.780358867089237
 10
7.192898565923971
 20
-6.835273648593657
 10
7.213506617500242
 20
-6.89020298380678
 10
7.11394469600777
 20
-6.941723112747518
 10
7.11394469600777
 20
-6.96574400902341
 10
7.11394469600777
 20
-6.989746713163387
 10
7.103640670219622
 20
-7.037853997404504
 10
7.065979310426883
 20
-7.075624510012807
 10
7.028103283430179
 20
-7.113358638349281
 10
6.962939052545405
 20
-7.185472265157538
 10
6.9561170015734
 20
-7.226651984038299
 10
6.94918579778578
 20
-7.267849895054925
 10
6.866822721597195
 20
-7.305656791935083
 10
6.877130385812481
 20
-7.346818318679905
 10
6.887467157445295
 20
-7.388070806104325
 10
6.787872490108106
 20
-7.429305101392806
 10
6.794661795235495
 20
-7.463539062777246
 10
6.8014838462075
 20
-7.497933114957807
 10
6.671151746010714
 20
-7.566546574814057
 10
6.688314207042822
 20
-7.590563832662736
 10
6.705440283802974
 20
-7.614621113210482
 10
6.564665897585023
 20
-7.683303703183279
 10
6.574933539101367
 20
-7.710770190003434
 10
6.585273949161369
 20
-7.738269422668231
 10
6.47199879560824
 20
-7.789756805764277
 10
6.475408001880648
 20
-7.837794959888874
 10
6.478784462308416
 20
-7.8858694982854
 10
6.338079206207062
 20
-7.913332346678317
 10
6.362100102482903
 20
-7.971692718726975
 10
6.386153744603511
 20
-8.030089475047463
 10
6.262541819417619
 20
-8.064414397111527
 10
6.293417512510182
 20
-8.095308282340081
 10
6.324293205602745
 20
-8.126220359704499
 10
6.211018052049692
 20
-8.167403717012423
 10
6.238484538869872
 20
-8.191420974861177
 10
6.266056540078377
 20
-8.215474616981712
 10
6.200714026261569
 20
-8.27383498903037
 10
6.207572461505454
 20
-8.30817810323035
 10
6.214536411137664
 20
-8.342535771139005
 10
6.152712256408777
 20
-8.527920913073153
 10
6.135480665260249
 20
-8.66526790088273
 10
6.118245435684508
 20
-8.802582142847692
 10
5.984434999098842
 20
-8.854065887516551
 10
5.929502025458532
 20
-8.860887938488531
 10
5.874499921701701
 20
-8.867782758004296
 10
5.678934460503696
 20
-8.71330969343454
 10
5.637681973079276
 20
-8.620537077069356
 10
5.596396739810163
 20
-8.527920913073153
 10
5.548500484345772
 20
-8.455792732556194
 10
5.496871202589507
 20
-8.36309288473472
 10
5.445492972308961
 20
-8.270371206350166
 10
5.387045278007892
 20
-8.208619820164989
 10
5.359611537032353
 20
-8.109039706536553
 10
5.332148688639348
 20
-8.009463231335353
 10
5.325253869123672
 20
-8.002622988227307
 10
5.318362688035083
 20
-7.916726999242023
 10
5.31150425279121
 20
-7.830918332509049
 10
5.301236611274931
 20
-7.851544576221335
 10
5.270288149638645
 20
-7.786274830948186
 10
5.239445202390735
 20
-7.721088769500284
 10
5.249712843907016
 20
-7.600886050586773
 10
5.249712843907016
 20
-7.600886050586773
 10
5.249712843907016
 20
-7.600886050586773
 10
5.215318791726468
 20
-7.604335279558275
 10
5.229213945146297
 20
-7.449844022852605
 10
5.229213945146297
 20
-7.449844022852605
 10
5.146745354569248
 20
-7.422395728168365
 10
5.194783508693907
 20
-7.285066932494727
 10
5.194783508693907
 20
-7.285066932494727
 10
5.136441328781112
 20
-7.219829933066269
 10
5.181066638206137
 20
-7.144219777733118
 10
5.181066638206137
 20
-7.144219777733118
 10
5.146745354569248
 20
-7.048176215328567
 10
5.167317021873751
 20
-7.006960112175975
 10
5.167317021873751
 20
-7.006960112175975
 10
5.091775996657071
 20
-6.941723112747518
 10
5.139781404937025
 20
-6.873058714910687
 10
5.139781404937025
 20
-6.873058714910687
 10
5.07461353562505
 20
-6.776913276544974
 10
5.08488481556857
 20
-6.73571172710116
 10
5.08488481556857
 20
-6.73571172710116
 10
5.050596277776372
 20
-6.718534712360375
 10
5.047150687232134
 20
-6.649903060368236
 10
5.047150687232134
 20
-6.649903060368236
 10
4.951070740555742
 20
-6.639617226715977
 10
4.940803099039461
 20
-6.488520622574015
 10
4.940803099039461
 20
-6.488520622574015
 10
4.824082354942081
 20
-6.385513110537254
 10
4.88580099528258
 20
-6.306562879048189
 10
4.88580099528258
 20
-6.306562879048189
 10
4.720969328516895
 20
-6.258488340651739
 10
4.820563995854122
 20
-6.128036172357901
 10
4.820563995854122
 20
-6.128036172357901
 10
4.662590764332308
 20
-6.076530597125914
 10
4.748399431065208
 20
-5.966668288272457
 10
4.748399431065208
 20
-5.966668288272457
 10
4.655626814700086
 20
-5.880790491423012
 10
4.741540995821398
 20
-5.825926647899185
 10
4.741540995821398
 20
-5.825926647899185
 10
4.659145173788071
 20
-5.760638710490134
 10
4.686680790724722
 20
-5.688579660089633
 10
4.714147277544877
 20
-5.616469671708564
 10
4.74736975617183
 20
-5.615349036135537
 10
4.74736975617183
 20
-5.615349036135537
 97
        0
 97
        0
 75
     2
 76
     1
 98
        0
  0
ENDSEC
  0
SECTION
  2
OBJECTS
  0
DICTIONARY
  5
C
330
0
100
AcDbDictionary
281
     1
  3
ACAD_GROUP
350
D
  3
ACAD_LAYOUT
350
1A
  3
ACAD_MATERIAL
350
3B
  3
ACAD_MLEADERSTYLE
350
44
  3
ACAD_MLINESTYLE
350
17
  3
ACAD_PLOTSETTINGS
350
19
  3
ACAD_PLOTSTYLENAME
350
E
  3
ACAD_TABLESTYLE
350
43
  3
ACAD_VISUALSTYLE
350
2A
  0
SUN
  5
3F
330
29
100
AcDbSun
 90
        1
290
     0
 63
     7
421
 16777215
 40
1.0
291
     1
 91
  2455826
 92
 54000000
292
     0
 70
     2
 71
   256
280
     1
  0
DICTIONARY
  5
D
102
{ACAD_REACTORS
330
C
102
}
330
C
100
AcDbDictionary
281
     1
  0
DICTIONARY
  5
1A
102
{ACAD_REACTORS
330
C
102
}
330
C
100
AcDbDictionary
281
     1
  3
Layout1
350
1E
  3
Layout2
350
26
  3
Model
350
22
  0
DICTIONARY
  5
3B
102
{ACAD_REACTORS
330
C
102
}
330
C
100
AcDbDictionary
281
     1
  3
ByBlock
350
3D
  3
ByLayer
350
3C
  3
Global
350
3E
  0
DICTIONARY
  5
44
102
{ACAD_REACTORS
330
C
102
}
330
C
100
AcDbDictionary
281
     1
  0
DICTIONARY
  5
17
102
{ACAD_REACTORS
330
C
102
}
330
C
100
AcDbDictionary
281
     1
  3
Standard
350
18
  0
DICTIONARY
  5
19
102
{ACAD_REACTORS
330
C
102
}
330
C
100
AcDbDictionary
281
     1
  0
ACDBDICTIONARYWDFLT
  5
E
102
{ACAD_REACTORS
330
C
102
}
330
C
100
AcDbDictionary
281
     1
  3
Normal
350
F
100
AcDbDictionaryWithDefault
340
F
  0
DICTIONARY
  5
43
102
{ACAD_REACTORS
330
C
102
}
330
C
100
AcDbDictionary
281
     1
  0
DICTIONARY
  5
2A
102
{ACAD_REACTORS
330
C
102
}
330
C
100
AcDbDictionary
281
     1
  3
2dWireframe
350
2F
  3
3D Hidden
350
31
  3
3dWireframe
350
30
  3
Basic
350
32
  3
Brighten
350
36
  3
ColorChange
350
3A
  3
Conceptual
350
34
  3
Dim
350
35
  3
Facepattern
350
39
  3
Flat
350
2B
  3
FlatWithEdges
350
2C
  3
Gouraud
350
2D
  3
GouraudWithEdges
350
2E
  3
Linepattern
350
38
  3
Realistic
350
33
  3
Thicken
350
37
  0
LAYOUT
  5
1E
102
{ACAD_REACTORS
330
1A
102
}
330
1A
100
AcDbPlotSettings
  1

  2
none_device
  4

  6

 40
0.0
 41
0.0
 42
0.0
 43
0.0
 44
0.0
 45
0.0
 46
0.0
 47
0.0
 48
0.0
 49
0.0
140
0.0
141
0.0
142
1.0
143
1.0
 70
   688
 72
     0
 73
     0
 74
     5
  7

 75
    16
 76
     0
 77
     2
 78
   300
147
1.0
148
0.0
149
0.0
100
AcDbLayout
  1
Layout1
 70
     1
 71
     1
 10
0.0
 20
0.0
 11
12.0
 21
9.0
 12
0.0
 22
0.0
 32
0.0
 14
1.000000000000000E+20
 24
1.000000000000000E+20
 34
1.000000000000000E+20
 15
-1.000000000000000E+20
 25
-1.000000000000000E+20
 35
-1.000000000000000E+20
146
0.0
 13
0.0
 23
0.0
 33
0.0
 16
1.0
 26
0.0
 36
0.0
 17
0.0
 27
1.0
 37
0.0
 76
     0
330
1B
  0
LAYOUT
  5
26
102
{ACAD_REACTORS
330
1A
102
}
330
1A
100
AcDbPlotSettings
  1

  2
none_device
  4

  6

 40
0.0
 41
0.0
 42
0.0
 43
0.0
 44
0.0
 45
0.0
 46
0.0
 47
0.0
 48
0.0
 49
0.0
140
0.0
141
0.0
142
1.0
143
1.0
 70
   688
 72
     0
 73
     0
 74
     5
  7

 75
    16
 76
     0
 77
     2
 78
   300
147
1.0
148
0.0
149
0.0
100
AcDbLayout
  1
Layout2
 70
     1
 71
     2
 10
0.0
 20
0.0
 11
0.0
 21
0.0
 12
0.0
 22
0.0
 32
0.0
 14
0.0
 24
0.0
 34
0.0
 15
0.0
 25
0.0
 35
0.0
146
0.0
 13
0.0
 23
0.0
 33
0.0
 16
1.0
 26
0.0
 36
0.0
 17
0.0
 27
1.0
 37
0.0
 76
     0
330
23
  0
LAYOUT
  5
22
102
{ACAD_REACTORS
330
1A
102
}
330
1A
100
AcDbPlotSettings
  1

  2
none_device
  4

  6

 40
0.0
 41
0.0
 42
0.0
 43
0.0
 44
0.0
 45
0.0
 46
0.0
 47
0.0
 48
0.0
 49
0.0
140
0.0
141
0.0
142
1.0
143
1.0
 70
  1712
 72
     0
 73
     0
 74
     0
  7

 75
     0
 76
     0
 77
     2
 78
   300
147
1.0
148
0.0
149
0.0
100
AcDbLayout
  1
Model
 70
     1
 71
     0
 10
0.0
 20
0.0
 11
12.0
 21
9.0
 12
0.0
 22
0.0
 32
0.0
 14
1.000000000000000E+20
 24
1.000000000000000E+20
 34
1.000000000000000E+20
 15
-1.000000000000000E+20
 25
-1.000000000000000E+20
 35
-1.000000000000000E+20
146
0.0
 13
0.0
 23
0.0
 33
0.0
 16
1.0
 26
0.0
 36
0.0
 17
0.0
 27
1.0
 37
0.0
 76
     0
330
1F
331
29
  0
MATERIAL
  5
3D
102
{ACAD_REACTORS
330
3B
102
}
330
3B
100
AcDbMaterial
  1
ByBlock
 72
     1
 94
      127
  0
MATERIAL
  5
3C
102
{ACAD_REACTORS
330
3B
102
}
330
3B
100
AcDbMaterial
  1
ByLayer
 72
     1
 94
      127
  0
MATERIAL
  5
3E
102
{ACAD_REACTORS
330
3B
102
}
330
3B
100
AcDbMaterial
  1
Global
 72
     1
 94
      127
  0
MLINESTYLE
  5
18
102
{ACAD_REACTORS
330
17
102
}
330
17
100
AcDbMlineStyle
  2
Standard
 70
     0
  3

 62
   256
 51
90.0
 52
90.0
 71
     2
 49
0.5
 62
   256
  6
BYLAYER
 49
-0.5
 62
   256
  6
BYLAYER
  0
ACDBPLACEHOLDER
  5
F
102
{ACAD_REACTORS
330
E
102
}
330
E
  0
VISUALSTYLE
  5
2F
102
{ACAD_REACTORS
330
2A
102
}
330
2A
100
AcDbVisualStyle
  2
2dWireframe
 70
     4
177
     2
291
     0
 71
     0
176
     1
 72
     2
176
     1
 73
     0
176
     1
 90
        0
176
     1
 40
-0.6
176
     1
 41
-30.0
176
     1
 62
     5
 63
     7
421
 16777215
176
     1
 74
     1
176
     1
 91
        4
176
     1
 64
     7
176
     1
 65
   257
176
     1
 75
     1
176
     1
175
     1
176
     1
 42
1.0
176
     1
 92
        0
176
     1
 66
   257
176
     1
 43
1.0
176
     1
 76
     1
176
     1
 77
     6
176
     1
 78
     2
176
     1
 67
     7
176
     1
 79
     5
176
     1
170
     0
176
     1
171
     0
176
     1
290
     0
176
     1
 93
        1
176
     1
 44
0.0
176
     1
173
     0
176
     1
  0
VISUALSTYLE
  5
31
102
{ACAD_REACTORS
330
2A
102
}
330
2A
100
AcDbVisualStyle
  2
3D Hidden
 70
     6
177
     2
291
     0
 71
     1
176
     1
 72
     2
176
     1
 73
     2
176
     1
 90
        0
176
     1
 40
-0.6
176
     1
 41
-30.0
176
     1
 62
     5
 63
     7
421
 16777215
176
     1
 74
     2
176
     1
 91
        2
176
     1
 64
     7
176
     1
 65
   257
176
     1
 75
     2
176
     1
175
     1
176
     1
 42
40.0
176
     1
 92
        0
176
     1
 66
   257
176
     1
 43
1.0
176
     1
 76
     1
176
     1
 77
     6
176
     1
 78
     2
176
     1
 67
     7
176
     1
 79
     3
176
     1
170
     0
176
     1
171
     0
176
     1
290
     0
176
     1
 93
        1
176
     1
 44
0.0
176
     1
173
     0
176
     1
  0
VISUALSTYLE
  5
30
102
{ACAD_REACTORS
330
2A
102
}
330
2A
100
AcDbVisualStyle
  2
3dWireframe
 70
     5
177
     2
291
     0
 71
     0
176
     1
 72
     2
176
     1
 73
     0
176
     1
 90
        0
176
     1
 40
-0.6
176
     1
 41
-30.0
176
     1
 62
     5
 63
     7
421
 16777215
176
     1
 74
     1
176
     1
 91
        4
176
     1
 64
     7
176
     1
 65
   257
176
     1
 75
     1
176
     1
175
     1
176
     1
 42
1.0
176
     1
 92
        0
176
     1
 66
   257
176
     1
 43
1.0
176
     1
 76
     1
176
     1
 77
     6
176
     1
 78
     2
176
     1
 67
     7
176
     1
 79
     5
176
     1
170
     0
176
     1
171
     0
176
     1
290
     0
176
     1
 93
        1
176
     1
 44
0.0
176
     1
173
     0
176
     1
  0
VISUALSTYLE
  5
32
102
{ACAD_REACTORS
330
2A
102
}
330
2A
100
AcDbVisualStyle
  2
Basic
 70
     7
177
     2
291
     1
 71
     1
176
     1
 72
     0
176
     1
 73
     1
176
     1
 90
        0
176
     1
 40
-0.6
176
     1
 41
-30.0
176
     1
 62
     5
 63
     7
421
 16777215
176
     1
 74
     0
176
     1
 91
        4
176
     1
 64
     7
176
     1
 65
   257
176
     1
 75
     1
176
     1
175
     1
176
     1
 42
1.0
176
     1
 92
        8
176
     1
 66
     7
176
     1
 43
1.0
176
     1
 76
     1
176
     1
 77
     6
176
     1
 78
     2
176
     1
 67
     7
176
     1
 79
     5
176
     1
170
     0
176
     1
171
     0
176
     1
290
     0
176
     1
 93
        1
176
     1
 44
0.0
176
     1
173
     0
176
     1
  0
VISUALSTYLE
  5
36
102
{ACAD_REACTORS
330
2A
102
}
330
2A
100
AcDbVisualStyle
  2
Brighten
 70
    12
177
     2
291
     1
 71
     2
176
     1
 72
     2
176
     1
 73
     0
176
     1
 90
        0
176
     1
 40
-0.6
176
     1
 41
-30.0
176
     1
 62
     5
 63
     7
421
 16777215
176
     1
 74
     1
176
     1
 91
        4
176
     1
 64
     7
176
     1
 65
   257
176
     1
 75
     1
176
     1
175
     1
176
     1
 42
1.0
176
     1
 92
        8
176
     1
 66
     7
176
     1
 43
1.0
176
     1
 76
     1
176
     1
 77
     6
176
     1
 78
     2
176
     1
 67
     7
176
     1
 79
     5
176
     1
170
     0
176
     1
171
     0
176
     1
290
     0
176
     1
 93
        1
176
     1
 44
50.0
176
     1
173
     0
176
     1
  0
VISUALSTYLE
  5
3A
102
{ACAD_REACTORS
330
2A
102
}
330
2A
100
AcDbVisualStyle
  2
ColorChange
 70
    16
177
     2
291
     1
 71
     2
176
     1
 72
     2
176
     1
 73
     3
176
     1
 90
        0
176
     1
 40
-0.6
176
     1
 41
-30.0
176
     1
 62
     5
 63
     8
421
  8421504
176
     1
 74
     1
176
     1
 91
        4
176
     1
 64
     7
176
     1
 65
   257
176
     1
 75
     1
176
     1
175
     1
176
     1
 42
1.0
176
     1
 92
        8
176
     1
 66
     8
424
  8421504
176
     1
 43
1.0
176
     1
 76
     1
176
     1
 77
     6
176
     1
 78
     2
176
     1
 67
     7
176
     1
 79
     5
176
     1
170
     0
176
     1
171
     0
176
     1
290
     0
176
     1
 93
        1
176
     1
 44
0.0
176
     1
173
     0
176
     1
  0
VISUALSTYLE
  5
34
102
{ACAD_REACTORS
330
2A
102
}
330
2A
100
AcDbVisualStyle
  2
Conceptual
 70
     9
177
     2
291
     0
 71
     3
176
     1
 72
     2
176
     1
 73
     0
176
     1
 90
        0
176
     1
 40
-0.6
176
     1
 41
-30.0
176
     1
 62
     5
 63
     7
421
 16777215
176
     1
 74
     2
176
     1
 91
        2
176
     1
 64
     7
176
     1
 65
   257
176
     1
 75
     1
176
     1
175
     1
176
     1
 42
40.0
176
     1
 92
        8
176
     1
 66
     7
176
     1
 43
1.0
176
     1
 76
     1
176
     1
 77
     6
176
     1
 78
     2
176
     1
 67
     7
176
     1
 79
     3
176
     1
170
     0
176
     1
171
     0
176
     1
290
     0
176
     1
 93
        1
176
     1
 44
0.0
176
     1
173
     0
176
     1
  0
VISUALSTYLE
  5
35
102
{ACAD_REACTORS
330
2A
102
}
330
2A
100
AcDbVisualStyle
  2
Dim
 70
    11
177
     2
291
     1
 71
     2
176
     1
 72
     2
176
     1
 73
     0
176
     1
 90
        0
176
     1
 40
-0.6
176
     1
 41
-30.0
176
     1
 62
     5
 63
     7
421
 16777215
176
     1
 74
     1
176
     1
 91
        4
176
     1
 64
     7
176
     1
 65
   257
176
     1
 75
     1
176
     1
175
     1
176
     1
 42
1.0
176
     1
 92
        8
176
     1
 66
     7
176
     1
 43
1.0
176
     1
 76
     1
176
     1
 77
     6
176
     1
 78
     2
176
     1
 67
     7
176
     1
 79
     5
176
     1
170
     0
176
     1
171
     0
176
     1
290
     0
176
     1
 93
        1
176
     1
 44
-50.0
176
     1
173
     0
176
     1
  0
VISUALSTYLE
  5
39
102
{ACAD_REACTORS
330
2A
102
}
330
2A
100
AcDbVisualStyle
  2
Facepattern
 70
    15
177
     2
291
     1
 71
     2
176
     1
 72
     2
176
     1
 73
     0
176
     1
 90
        0
176
     1
 40
-0.6
176
     1
 41
-30.0
176
     1
 62
     5
 63
     7
421
 16777215
176
     1
 74
     1
176
     1
 91
        4
176
     1
 64
     7
176
     1
 65
   257
176
     1
 75
     1
176
     1
175
     1
176
     1
 42
1.0
176
     1
 92
        8
176
     1
 66
     7
176
     1
 43
1.0
176
     1
 76
     1
176
     1
 77
     6
176
     1
 78
     2
176
     1
 67
     7
176
     1
 79
     5
176
     1
170
     0
176
     1
171
     0
176
     1
290
     0
176
     1
 93
        1
176
     1
 44
0.0
176
     1
173
     0
176
     1
  0
VISUALSTYLE
  5
2B
102
{ACAD_REACTORS
330
2A
102
}
330
2A
100
AcDbVisualStyle
  2
Flat
 70
     0
177
     2
291
     1
 71
     2
176
     1
 72
     1
176
     1
 73
     1
176
     1
 90
        2
176
     1
 40
-0.6
176
     1
 41
30.0
176
     1
 62
     5
 63
     7
421
 16777215
176
     1
 74
     0
176
     1
 91
        4
176
     1
 64
     7
176
     1
 65
   257
176
     1
 75
     1
176
     1
175
     1
176
     1
 42
1.0
176
     1
 92
        8
176
     1
 66
     7
176
     1
 43
1.0
176
     1
 76
     1
176
     1
 77
     6
176
     1
 78
     2
176
     1
 67
     7
176
     1
 79
     5
176
     1
170
     0
176
     1
171
     0
176
     1
290
     0
176
     1
 93
       13
176
     1
 44
0.0
176
     1
173
     0
176
     1
  0
VISUALSTYLE
  5
2C
102
{ACAD_REACTORS
330
2A
102
}
330
2A
100
AcDbVisualStyle
  2
FlatWithEdges
 70
     1
177
     2
291
     1
 71
     2
176
     1
 72
     1
176
     1
 73
     1
176
     1
 90
        2
176
     1
 40
-0.6
176
     1
 41
30.0
176
     1
 62
     5
 63
     7
421
 16777215
176
     1
 74
     1
176
     1
 91
        4
176
     1
 64
     7
176
     1
 65
   257
176
     1
 75
     1
176
     1
175
     1
176
     1
 42
1.0
176
     1
 92
        0
176
     1
 66
   257
176
     1
 43
1.0
176
     1
 76
     1
176
     1
 77
     6
176
     1
 78
     2
176
     1
 67
     7
176
     1
 79
     5
176
     1
170
     0
176
     1
171
     0
176
     1
290
     0
176
     1
 93
       13
176
     1
 44
0.0
176
     1
173
     0
176
     1
  0
VISUALSTYLE
  5
2D
102
{ACAD_REACTORS
330
2A
102
}
330
2A
100
AcDbVisualStyle
  2
Gouraud
 70
     2
177
     2
291
     1
 71
     2
176
     1
 72
     2
176
     1
 73
     1
176
     1
 90
        2
176
     1
 40
-0.6
176
     1
 41
30.0
176
     1
 62
     5
 63
     7
421
 16777215
176
     1
 74
     0
176
     1
 91
        4
176
     1
 64
     7
176
     1
 65
   257
176
     1
 75
     1
176
     1
175
     1
176
     1
 42
1.0
176
     1
 92
        0
176
     1
 66
     7
176
     1
 43
1.0
176
     1
 76
     1
176
     1
 77
     6
176
     1
 78
     2
176
     1
 67
     7
176
     1
 79
     5
176
     1
170
     0
176
     1
171
     0
176
     1
290
     0
176
     1
 93
       13
176
     1
 44
0.0
176
     1
173
     0
176
     1
  0
VISUALSTYLE
  5
2E
102
{ACAD_REACTORS
330
2A
102
}
330
2A
100
AcDbVisualStyle
  2
GouraudWithEdges
 70
     3
177
     2
291
     1
 71
     2
176
     1
 72
     2
176
     1
 73
     1
176
     1
 90
        2
176
     1
 40
-0.6
176
     1
 41
30.0
176
     1
 62
     5
 63
     7
421
 16777215
176
     1
 74
     1
176
     1
 91
        4
176
     1
 64
     7
176
     1
 65
   257
176
     1
 75
     1
176
     1
175
     1
176
     1
 42
1.0
176
     1
 92
        0
176
     1
 66
   257
176
     1
 43
1.0
176
     1
 76
     1
176
     1
 77
     6
176
     1
 78
     2
176
     1
 67
     7
176
     1
 79
     5
176
     1
170
     0
176
     1
171
     0
176
     1
290
     0
176
     1
 93
       13
176
     1
 44
0.0
176
     1
173
     0
176
     1
  0
VISUALSTYLE
  5
38
102
{ACAD_REACTORS
330
2A
102
}
330
2A
100
AcDbVisualStyle
  2
Linepattern
 70
    14
177
     2
291
     1
 71
     2
176
     1
 72
     2
176
     1
 73
     0
176
     1
 90
        0
176
     1
 40
-0.6
176
     1
 41
-30.0
176
     1
 62
     5
 63
     7
421
 16777215
176
     1
 74
     1
176
     1
 91
        4
176
     1
 64
     7
176
     1
 65
   257
176
     1
 75
     7
176
     1
175
     7
176
     1
 42
1.0
176
     1
 92
        8
176
     1
 66
     7
176
     1
 43
1.0
176
     1
 76
     1
176
     1
 77
     6
176
     1
 78
     2
176
     1
 67
     7
176
     1
 79
     5
176
     1
170
     0
176
     1
171
     0
176
     1
290
     0
176
     1
 93
        1
176
     1
 44
0.0
176
     1
173
     0
176
     1
  0
VISUALSTYLE
  5
33
102
{ACAD_REACTORS
330
2A
102
}
330
2A
100
AcDbVisualStyle
  2
Realistic
 70
     8
177
     2
291
     0
 71
     2
176
     1
 72
     2
176
     1
 73
     0
176
     1
 90
        0
176
     1
 40
-0.6
176
     1
 41
-30.0
176
     1
 62
     5
 63
     7
421
 16777215
176
     1
 74
     1
176
     1
 91
        0
176
     1
 64
     7
176
     1
 65
   257
176
     1
 75
     1
176
     1
175
     1
176
     1
 42
1.0
176
     1
 92
        8
176
     1
 66
     8
424
  7895160
176
     1
 43
1.0
176
     1
 76
     1
176
     1
 77
     6
176
     1
 78
     2
176
     1
 67
     7
176
     1
 79
     5
176
     1
170
     0
176
     1
171
     0
176
     1
290
     0
176
     1
 93
       13
176
     1
 44
0.0
176
     1
173
     0
176
     1
  0
VISUALSTYLE
  5
37
102
{ACAD_REACTORS
330
2A
102
}
330
2A
100
AcDbVisualStyle
  2
Thicken
 70
    13
177
     2
291
     1
 71
     2
176
     1
 72
     2
176
     1
 73
     0
176
     1
 90
        0
176
     1
 40
-0.6
176
     1
 41
-30.0
176
     1
 62
     5
 63
     7
421
 16777215
176
     1
 74
     1
176
     1
 91
        4
176
     1
 64
     7
176
     1
 65
   257
176
     1
 75
     1
176
     1
175
     1
176
     1
 42
1.0
176
     1
 92
       12
176
     1
 66
     7
176
     1
 43
1.0
176
     1
 76
     1
176
     1
 77
     6
176
     1
 78
     2
176
     1
 67
     7
176
     1
 79
     5
176
     1
170
     0
176
     1
171
     0
176
     1
290
     0
176
     1
 93
        1
176
     1
 44
0.0
176
     1
173
     0
176
     1
  0
ENDSEC
  0
EOF
