  0
SECTION
  2
HEADER
  9
$ACADVER
  1
AC1024
  9
$ACADMAINTVER
 70
     6
  9
$DWGCODEPAGE
  3
ANSI_1252
  9
$INSBASE
 10
0.0
 20
0.0
 30
0.0
  9
$EXTMIN
 10
1.000000000000000E+20
 20
1.000000000000000E+20
 30
1.000000000000000E+20
  9
$EXTMAX
 10
-1.000000000000000E+20
 20
-1.000000000000000E+20
 30
-1.000000000000000E+20
  9
$LIMMIN
 10
0.0
 20
0.0
  9
$LIMMAX
 10
12.0
 20
9.0
  9
$ORTHOMODE
 70
     0
  9
$REGENMODE
 70
     1
  9
$FILLMODE
 70
     1
  9
$QTEXTMODE
 70
     0
  9
$MIRRTEXT
 70
     1
  9
$LTSCALE
 40
1.0
  9
$ATTMODE
 70
     1
  9
$TEXTSIZE
 40
0.2
  9
$TRACEWID
 40
0.05
  9
$TEXTSTYLE
  7
Standard
  9
$CLAYER
  8
0
  9
$CELTYPE
  6
ByLayer
  9
$CECOLOR
 62
   256
  9
$CELTSCALE
 40
1.0
  9
$DISPSILH
 70
     0
  9
$DIMSCALE
 40
1.0
  9
$DIMASZ
 40
0.18
  9
$DIMEXO
 40
0.0625
  9
$DIMDLI
 40
0.38
  9
$DIMRND
 40
0.0
  9
$DIMDLE
 40
0.0
  9
$DIMEXE
 40
0.18
  9
$DIMTP
 40
0.0
  9
$DIMTM
 40
0.0
  9
$DIMTXT
 40
0.18
  9
$DIMCEN
 40
0.09
  9
$DIMTSZ
 40
0.0
  9
$DIMTOL
 70
     0
  9
$DIMLIM
 70
     0
  9
$DIMTIH
 70
     1
  9
$DIMTOH
 70
     1
  9
$DIMSE1
 70
     0
  9
$DIMSE2
 70
     0
  9
$DIMTAD
 70
     0
  9
$DIMZIN
 70
     0
  9
$DIMBLK
  1

  9
$DIMASO
 70
     1
  9
$DIMSHO
 70
     1
  9
$DIMPOST
  1

  9
$DIMAPOST
  1

  9
$DIMALT
 70
     0
  9
$DIMALTD
 70
     2
  9
$DIMALTF
 40
25.4
  9
$DIMLFAC
 40
1.0
  9
$DIMTOFL
 70
     0
  9
$DIMTVP
 40
0.0
  9
$DIMTIX
 70
     0
  9
$DIMSOXD
 70
     0
  9
$DIMSAH
 70
     0
  9
$DIMBLK1
  1

  9
$DIMBLK2
  1

  9
$DIMSTYLE
  2
Standard
  9
$DIMCLRD
 70
     0
  9
$DIMCLRE
 70
     0
  9
$DIMCLRT
 70
     0
  9
$DIMTFAC
 40
1.0
  9
$DIMGAP
 40
0.09
  9
$DIMJUST
 70
     0
  9
$DIMSD1
 70
     0
  9
$DIMSD2
 70
     0
  9
$DIMTOLJ
 70
     1
  9
$DIMTZIN
 70
     0
  9
$DIMALTZ
 70
     0
  9
$DIMALTTZ
 70
     0
  9
$DIMUPT
 70
     0
  9
$DIMDEC
 70
     4
  9
$DIMTDEC
 70
     4
  9
$DIMALTU
 70
     2
  9
$DIMALTTD
 70
     2
  9
$DIMTXSTY
  7
Standard
  9
$DIMAUNIT
 70
     0
  9
$DIMADEC
 70
     0
  9
$DIMALTRND
 40
0.0
  9
$DIMAZIN
 70
     0
  9
$DIMDSEP
 70
    46
  9
$DIMATFIT
 70
     3
  9
$DIMFRAC
 70
     0
  9
$DIMLDRBLK
  1

  9
$DIMLUNIT
 70
     2
  9
$DIMLWD
 70
    -2
  9
$DIMLWE
 70
    -2
  9
$DIMTMOVE
 70
     0
  9
$DIMFXL
 40
1.0
  9
$DIMFXLON
 70
     0
  9
$DIMJOGANG
 40
0.7853981633974483
  9
$DIMTFILL
 70
     0
  9
$DIMTFILLCLR
 70
     0
  9
$DIMARCSYM
 70
     0
  9
$DIMLTYPE
  6

  9
$DIMLTEX1
  6

  9
$DIMLTEX2
  6

  9
$DIMTXTDIRECTION
 70
     0
  9
$LUNITS
 70
     2
  9
$LUPREC
 70
     4
  9
$SKETCHINC
 40
0.1
  9
$FILLETRAD
 40
0.5
  9
$AUNITS
 70
     0
  9
$AUPREC
 70
     0
  9
$MENU
  1
.
  9
$ELEVATION
 40
0.0
  9
$PELEVATION
 40
0.0
  9
$THICKNESS
 40
0.0
  9
$LIMCHECK
 70
     0
  9
$CHAMFERA
 40
0.5
  9
$CHAMFERB
 40
0.5
  9
$CHAMFERC
 40
1.0
  9
$CHAMFERD
 40
0.0
  9
$SKPOLY
 70
     0
  9
$TDCREATE
 40
2458164.585994282
  9
$TDUCREATE
 40
2458164.544327616
  9
$TDUPDATE
 40
2458164.585994306
  9
$TDUUPDATE
 40
2458164.544327639
  9
$TDINDWG
 40
0.0000000116
  9
$TDUSRTIMER
 40
0.0000000116
  9
$USRTIMER
 70
     1
  9
$ANGBASE
 50
0.0
  9
$ANGDIR
 70
     0
  9
$PDMODE
 70
     0
  9
$PDSIZE
 40
0.0
  9
$PLINEWID
 40
0.0
  9
$SPLFRAME
 70
     0
  9
$SPLINETYPE
 70
     6
  9
$SPLINESEGS
 70
     8
  9
$HANDSEED
  5
46
  9
$SURFTAB1
 70
     6
  9
$SURFTAB2
 70
     6
  9
$SURFTYPE
 70
     6
  9
$SURFU
 70
     6
  9
$SURFV
 70
     6
  9
$UCSBASE
  2

  9
$UCSNAME
  2

  9
$UCSORG
 10
0.0
 20
0.0
 30
0.0
  9
$UCSXDIR
 10
1.0
 20
0.0
 30
0.0
  9
$UCSYDIR
 10
0.0
 20
1.0
 30
0.0
  9
$UCSORTHOREF
  2

  9
$UCSORTHOVIEW
 70
     0
  9
$UCSORGTOP
 10
0.0
 20
0.0
 30
0.0
  9
$UCSORGBOTTOM
 10
0.0
 20
0.0
 30
0.0
  9
$UCSORGLEFT
 10
0.0
 20
0.0
 30
0.0
  9
$UCSORGRIGHT
 10
0.0
 20
0.0
 30
0.0
  9
$UCSORGFRONT
 10
0.0
 20
0.0
 30
0.0
  9
$UCSORGBACK
 10
0.0
 20
0.0
 30
0.0
  9
$PUCSBASE
  2

  9
$PUCSNAME
  2

  9
$PUCSORG
 10
0.0
 20
0.0
 30
0.0
  9
$PUCSXDIR
 10
1.0
 20
0.0
 30
0.0
  9
$PUCSYDIR
 10
0.0
 20
1.0
 30
0.0
  9
$PUCSORTHOREF
  2

  9
$PUCSORTHOVIEW
 70
     0
  9
$PUCSORGTOP
 10
0.0
 20
0.0
 30
0.0
  9
$PUCSORGBOTTOM
 10
0.0
 20
0.0
 30
0.0
  9
$PUCSORGLEFT
 10
0.0
 20
0.0
 30
0.0
  9
$PUCSORGRIGHT
 10
0.0
 20
0.0
 30
0.0
  9
$PUCSORGFRONT
 10
0.0
 20
0.0
 30
0.0
  9
$PUCSORGBACK
 10
0.0
 20
0.0
 30
0.0
  9
$USERI1
 70
     0
  9
$USERI2
 70
     0
  9
$USERI3
 70
     0
  9
$USERI4
 70
     0
  9
$USERI5
 70
     0
  9
$USERR1
 40
0.0
  9
$USERR2
 40
0.0
  9
$USERR3
 40
0.0
  9
$USERR4
 40
0.0
  9
$USERR5
 40
0.0
  9
$WORLDVIEW
 70
     1
  9
$SHADEDGE
 70
     3
  9
$SHADEDIF
 70
    70
  9
$TILEMODE
 70
     1
  9
$MAXACTVP
 70
    64
  9
$PINSBASE
 10
0.0
 20
0.0
 30
0.0
  9
$PLIMCHECK
 70
     0
  9
$PEXTMIN
 10
1.000000000000000E+20
 20
1.000000000000000E+20
 30
1.000000000000000E+20
  9
$PEXTMAX
 10
-1.000000000000000E+20
 20
-1.000000000000000E+20
 30
-1.000000000000000E+20
  9
$PLIMMIN
 10
0.0
 20
0.0
  9
$PLIMMAX
 10
12.0
 20
9.0
  9
$UNITMODE
 70
     0
  9
$VISRETAIN
 70
     1
  9
$PLINEGEN
 70
     0
  9
$PSLTSCALE
 70
     1
  9
$TREEDEPTH
 70
  3020
  9
$CMLSTYLE
  2
Standard
  9
$CMLJUST
 70
     0
  9
$CMLSCALE
 40
1.0
  9
$PROXYGRAPHICS
 70
     1
  9
$MEASUREMENT
 70
     0
  9
$CELWEIGHT
370
    -1
  9
$ENDCAPS
280
     0
  9
$JOINSTYLE
280
     0
  9
$LWDISPLAY
290
     1
  9
$INSUNITS
 70
     1
  9
$HYPERLINKBASE
  1

  9
$STYLESHEET
  1

  9
$XEDIT
290
     1
  9
$CEPSNTYPE
380
     0
  9
$PSTYLEMODE
290
     1
  9
$FINGERPRINTGUID
  2
{61AF3A1C-288B-49FD-B11B-109FA9DA51B0}
  9
$VERSIONGUID
  2
{FAEB1C32-E019-11D5-929B-00C0DF256EC4}
  9
$EXTNAMES
290
     1
  9
$PSVPSCALE
 40
0.0
  9
$OLESTARTUP
290
     0
  9
$SORTENTS
280
   127
  9
$INDEXCTL
280
     0
  9
$HIDETEXT
280
     1
  9
$XCLIPFRAME
280
     2
  9
$HALOGAP
280
     0
  9
$OBSCOLOR
 70
   257
  9
$OBSLTYPE
280
     0
  9
$INTERSECTIONDISPLAY
280
     0
  9
$INTERSECTIONCOLOR
 70
   257
  9
$DIMASSOC
280
     2
  9
$PROJECTNAME
  1

  9
$CAMERADISPLAY
290
     0
  9
$LENSLENGTH
 40
50.0
  9
$CAMERAHEIGHT
 40
0.0
  9
$STEPSPERSEC
 40
2.0
  9
$STEPSIZE
 40
6.0
  9
$3DDWFPREC
 40
2.0
  9
$PSOLWIDTH
 40
0.25
  9
$PSOLHEIGHT
 40
4.0
  9
$LOFTANG1
 40
1.570796326794897
  9
$LOFTANG2
 40
1.570796326794897
  9
$LOFTMAG1
 40
0.0
  9
$LOFTMAG2
 40
0.0
  9
$LOFTPARAM
 70
     7
  9
$LOFTNORMALS
280
     1
  9
$LATITUDE
 40
37.795
  9
$LONGITUDE
 40
-122.394
  9
$NORTHDIRECTION
 40
0.0
  9
$TIMEZONE
 70
 -8000
  9
$LIGHTGLYPHDISPLAY
280
     1
  9
$TILEMODELIGHTSYNCH
280
     1
  9
$CMATERIAL
347
3C
  9
$SOLIDHIST
280
     1
  9
$SHOWHIST
280
     1
  9
$DWFFRAME
280
     2
  9
$DGNFRAME
280
     2
  9
$REALWORLDSCALE
290
     1
  9
$INTERFERECOLOR
 62
   256
  9
$CSHADOW
280
     0
  9
$SHADOWPLANELOCATION
 40
0.0
  0
ENDSEC
  0
SECTION
  2
CLASSES
  0
CLASS
  1
ACDBDICTIONARYWDFLT
  2
AcDbDictionaryWithDefault
  3
ObjectDBX Classes
 90
        0
 91
        4
280
     0
281
     0
  0
CLASS
  1
VISUALSTYLE
  2
AcDbVisualStyle
  3
ObjectDBX Classes
 90
     4095
 91
        4
280
     0
281
     0
  0
CLASS
  1
MATERIAL
  2
AcDbMaterial
  3
ObjectDBX Classes
 90
     1153
 91
        4
280
     0
281
     0
  0
CLASS
  1
SUN
  2
AcDbSun
  3
SCENEOE
 90
     1024
 91
        4
280
     0
281
     0
  0
ENDSEC
  0
SECTION
  2
TABLES
  0
TABLE
  2
VPORT
  5
8
330
0
100
AcDbSymbolTable
 70
     1
  0
VPORT
  5
29
330
8
100
AcDbSymbolTableRecord
100
AcDbViewportTableRecord
  2
*Active
 70
     0
 10
0.0
 20
0.0
 11
1.0
 21
1.0
 12
0.0
 22
0.0
 13
0.0
 23
0.0
 14
0.5
 24
0.5
 15
0.5
 25
0.5
 16
0.0
 26
0.0
 36
1.0
 17
6.0
 27
-6.0
 37
0.0
 40
12.0
 41
1.0
 42
50.0
 43
0.0
 44
0.0
 50
0.0
 51
0.0
 71
     0
 72
   100
 73
     1
 74
     3
 75
     0
 76
     0
 77
     0
 78
     0
281
     0
 65
     1
110
0.0
120
0.0
130
0.0
111
1.0
121
0.0
131
0.0
112
0.0
122
1.0
132
0.0
 79
     0
146
0.0
 60
     3
 61
     5
292
     1
282
     1
141
0.0
142
0.0
 63
   250
361
3F
  0
ENDTAB
  0
TABLE
  2
LTYPE
  5
5
330
0
100
AcDbSymbolTable
 70
     1
  0
LTYPE
  5
14
330
5
100
AcDbSymbolTableRecord
100
AcDbLinetypeTableRecord
  2
ByBlock
 70
     0
  3

 72
    65
 73
     0
 40
0.0
  0
LTYPE
  5
15
330
5
100
AcDbSymbolTableRecord
100
AcDbLinetypeTableRecord
  2
ByLayer
 70
     0
  3

 72
    65
 73
     0
 40
0.0
  0
LTYPE
  5
16
330
5
100
AcDbSymbolTableRecord
100
AcDbLinetypeTableRecord
  2
Continuous
 70
     0
  3
Solid line
 72
    65
 73
     0
 40
0.0
  0
ENDTAB
  0
TABLE
  2
LAYER
  5
2
330
0
100
AcDbSymbolTable
 70
     2
  0
LAYER
  5
10
330
2
100
AcDbSymbolTableRecord
100
AcDbLayerTableRecord
  2
0
 70
     0
 62
     7
  6
Continuous
370
    -3
390
F
347
3E
  0
LAYER
  5
40
330
2
100
AcDbSymbolTableRecord
100
AcDbLayerTableRecord
  2
Layer 1
 70
     0
 62
     7
  6
Continuous
370
    -3
390
F
347
3E
  0
ENDTAB
  0
TABLE
  2
STYLE
  5
3
330
0
100
AcDbSymbolTable
 70
     1
  0
STYLE
  5
11
330
3
100
AcDbSymbolTableRecord
100
AcDbTextStyleTableRecord
  2
Standard
 70
     0
 40
0.0
 41
1.0
 50
0.0
 71
     0
 42
0.2
  3
txt
  4

  0
ENDTAB
  0
TABLE
  2
VIEW
  5
6
330
0
100
AcDbSymbolTable
 70
     0
  0
ENDTAB
  0
TABLE
  2
UCS
  5
7
330
0
100
AcDbSymbolTable
 70
     0
  0
ENDTAB
  0
TABLE
  2
APPID
  5
9
330
0
100
AcDbSymbolTable
 70
     1
  0
APPID
  5
12
330
9
100
AcDbSymbolTableRecord
100
AcDbRegAppTableRecord
  2
ACAD
 70
     0
  0
ENDTAB
  0
TABLE
  2
DIMSTYLE
  5
A
330
0
100
AcDbSymbolTable
 70
     1
100
AcDbDimStyleTable
  0
DIMSTYLE
105
27
330
A
100
AcDbSymbolTableRecord
100
AcDbDimStyleTableRecord
  2
Standard
 70
     0
178
     0
340
11
  0
ENDTAB
  0
TABLE
  2
BLOCK_RECORD
  5
1
330
0
100
AcDbSymbolTable
 70
     1
  0
BLOCK_RECORD
  5
1F
330
1
100
AcDbSymbolTableRecord
100
AcDbBlockTableRecord
  2
*Model_Space
340
22
 70
     0
280
     1
281
     0
  0
BLOCK_RECORD
  5
1B
330
1
100
AcDbSymbolTableRecord
100
AcDbBlockTableRecord
  2
*Paper_Space
340
1E
 70
     0
280
     1
281
     0
  0
BLOCK_RECORD
  5
23
330
1
100
AcDbSymbolTableRecord
100
AcDbBlockTableRecord
  2
*Paper_Space0
340
26
 70
     0
280
     1
281
     0
  0
ENDTAB
  0
ENDSEC
  0
SECTION
  2
BLOCKS
  0
BLOCK
  5
20
330
1F
100
AcDbEntity
  8
0
100
AcDbBlockBegin
  2
*Model_Space
 70
     0
 10
0.0
 20
0.0
 30
0.0
  3
*Model_Space
  1

  0
ENDBLK
  5
21
330
1F
100
AcDbEntity
  8
0
100
AcDbBlockEnd
  0
BLOCK
  5
1C
330
1B
100
AcDbEntity
 67
     1
  8
0
100
AcDbBlockBegin
  2
*Paper_Space
 70
     0
 10
0.0
 20
0.0
 30
0.0
  3
*Paper_Space
  1

  0
ENDBLK
  5
1D
330
1B
100
AcDbEntity
 67
     1
  8
0
100
AcDbBlockEnd
  0
BLOCK
  5
24
330
23
100
AcDbEntity
  8
0
100
AcDbBlockBegin
  2
*Paper_Space0
 70
     0
 10
0.0
 20
0.0
 30
0.0
  3
*Paper_Space0
  1

  0
ENDBLK
  5
25
330
23
100
AcDbEntity
  8
0
100
AcDbBlockEnd
  0
ENDSEC
  0
SECTION
  2
ENTITIES
  0
SPLINE
  5
41
330
1F
100
AcDbEntity
  8
Layer 1
370
     0
100
AcDbSpline
210
0.0
220
0.0
230
1.0
 70
    11
 71
     3
 72
   224
 73
   220
 74
     0
 42
0.0000000001
 43
0.0000000001
 12
1.0
 22
0.0
 32
0.0
 13
1.0
 23
0.0
 33
0.0
 40
0.0
 40
0.0
 40
0.0
 40
0.0
 40
1.0
 40
1.0
 40
1.0
 40
2.0
 40
2.0
 40
2.0
 40
3.0
 40
3.0
 40
3.0
 40
4.0
 40
4.0
 40
4.0
 40
5.0
 40
5.0
 40
5.0
 40
6.0
 40
6.0
 40
6.0
 40
7.0
 40
7.0
 40
7.0
 40
8.0
 40
8.0
 40
8.0
 40
9.0
 40
9.0
 40
9.0
 40
10.0
 40
10.0
 40
10.0
 40
11.0
 40
11.0
 40
11.0
 40
12.0
 40
12.0
 40
12.0
 40
13.0
 40
13.0
 40
13.0
 40
14.0
 40
14.0
 40
14.0
 40
15.0
 40
15.0
 40
15.0
 40
16.0
 40
16.0
 40
16.0
 40
17.0
 40
17.0
 40
17.0
 40
18.0
 40
18.0
 40
18.0
 40
19.0
 40
19.0
 40
19.0
 40
20.0
 40
20.0
 40
20.0
 40
21.0
 40
21.0
 40
21.0
 40
22.0
 40
22.0
 40
22.0
 40
23.0
 40
23.0
 40
23.0
 40
24.0
 40
24.0
 40
24.0
 40
25.0
 40
25.0
 40
25.0
 40
26.0
 40
26.0
 40
26.0
 40
27.0
 40
27.0
 40
27.0
 40
28.0
 40
28.0
 40
28.0
 40
29.0
 40
29.0
 40
29.0
 40
30.0
 40
30.0
 40
30.0
 40
31.0
 40
31.0
 40
31.0
 40
32.0
 40
32.0
 40
32.0
 40
33.0
 40
33.0
 40
33.0
 40
34.0
 40
34.0
 40
34.0
 40
35.0
 40
35.0
 40
35.0
 40
36.0
 40
36.0
 40
36.0
 40
37.0
 40
37.0
 40
37.0
 40
38.0
 40
38.0
 40
38.0
 40
39.0
 40
39.0
 40
39.0
 40
40.0
 40
40.0
 40
40.0
 40
41.0
 40
41.0
 40
41.0
 40
42.0
 40
42.0
 40
42.0
 40
43.0
 40
43.0
 40
43.0
 40
44.0
 40
44.0
 40
44.0
 40
45.0
 40
45.0
 40
45.0
 40
46.0
 40
46.0
 40
46.0
 40
47.0
 40
47.0
 40
47.0
 40
48.0
 40
48.0
 40
48.0
 40
49.0
 40
49.0
 40
49.0
 40
50.0
 40
50.0
 40
50.0
 40
51.0
 40
51.0
 40
51.0
 40
52.0
 40
52.0
 40
52.0
 40
53.0
 40
53.0
 40
53.0
 40
54.0
 40
54.0
 40
54.0
 40
55.0
 40
55.0
 40
55.0
 40
56.0
 40
56.0
 40
56.0
 40
57.0
 40
57.0
 40
57.0
 40
58.0
 40
58.0
 40
58.0
 40
59.0
 40
59.0
 40
59.0
 40
60.0
 40
60.0
 40
60.0
 40
61.0
 40
61.0
 40
61.0
 40
62.0
 40
62.0
 40
62.0
 40
63.0
 40
63.0
 40
63.0
 40
64.0
 40
64.0
 40
64.0
 40
65.0
 40
65.0
 40
65.0
 40
66.0
 40
66.0
 40
66.0
 40
67.0
 40
67.0
 40
67.0
 40
68.0
 40
68.0
 40
68.0
 40
69.0
 40
69.0
 40
69.0
 40
70.0
 40
70.0
 40
70.0
 40
71.0
 40
71.0
 40
71.0
 40
72.0
 40
72.0
 40
72.0
 40
73.0
 40
73.0
 40
73.0
 40
73.0
 10
7.530295079446053
 20
-9.579144605412086
 30
0.0
 10
7.573612267038596
 20
-9.43045590292584
 30
0.0
 10
7.536408105591388
 20
-9.36243071491597
 30
0.0
 10
7.366053704895269
 20
-8.944271283332984
 30
0.0
 10
7.195713520539028
 20
-8.52611185175
 30
0.0
 10
7.099639495678452
 20
-7.888039853118597
 30
0.0
 10
7.034670822459601
 20
-7.649532313046898
 30
0.0
 10
6.969559985842048
 20
-7.411152720037408
 30
0.0
 10
6.876670421113001
 20
-6.528318372546992
 30
0.0
 10
6.625808887717034
 20
-5.998688236290339
 30
0.0
 10
6.374805190922365
 20
-5.46904467228257
 30
0.0
 10
6.16738879217774
 20
-5.475285645486754
 30
0.0
 10
6.23235746539659
 20
-5.397820809519708
 30
0.0
 10
6.297468302014117
 20
-5.320355973552624
 30
0.0
 10
6.3421786909142
 20
-5.208316999014843
 30
0.0
 10
6.21195701767907
 20
-5.053373110740873
 30
0.0
 10
6.21195701767907
 20
-5.053373110740873
 30
0.0
 10
6.090890667322052
 20
-5.081009675453692
 30
0.0
 10
6.151425448584556
 20
-4.827916176697676
 30
0.0
 10
6.21195701767907
 20
-4.57482267794166
 30
0.0
 10
6.789908098869116
 20
-4.227190079985235
 30
0.0
 10
6.569725426918719
 20
-3.390871676992522
 30
0.0
 10
6.349528538628444
 20
-2.55455283495366
 30
0.0
 10
5.581519209678541
 20
-1.90815007727594
 30
0.0
 10
5.056182802357853
 20
-2.972712255973066
 30
0.0
 10
4.648842015981637
 20
-3.798070299969974
 30
0.0
 10
5.160715549442759
 20
-4.327145604677248
 30
0.0
 10
5.336898649486758
 20
-4.640772278611747
 30
0.0
 10
5.576516649603869
 20
-5.067546801594087
 30
0.0
 10
5.589992148242774
 20
-4.992982098961079
 30
0.0
 10
5.501964571750199
 20
-5.020476500275158
 30
0.0
 10
5.413951211597476
 20
-5.047970901589198
 30
0.0
 10
5.320237099155798
 20
-5.141400687233436
 30
0.0
 10
5.386314646884734
 20
-5.278986424522688
 30
0.0
 10
5.452407999378616
 20
-5.416557945472087
 30
0.0
 10
5.468925797885706
 20
-5.400038149122363
 30
0.0
 10
5.402848250156794
 20
-5.477090713179538
 30
0.0
 10
5.336898649486758
 20
-5.554143277236967
 30
0.0
 10
4.7643497774484
 20
-6.445437111088394
 30
0.0
 10
4.791986342161181
 20
-6.715049620579116
 30
0.0
 10
4.819466527135369
 20
-6.984662882464868
 30
0.0
 10
4.676337986115818
 20
-7.721865052147071
 30
0.0
 10
4.582764468252726
 20
-7.969527915328348
 30
0.0
 10
4.489192519209786
 20
-8.217077047787496
 30
0.0
 10
4.428659344031252
 20
-8.684652478016663
 30
0.0
 10
4.379101183234575
 20
-8.767263631104772
 30
0.0
 10
4.329543022437898
 20
-8.849718404450162
 30
0.0
 10
4.076307360283155
 20
-9.080876096621951
 30
0.0
 10
4.015774185104659
 20
-9.097395483971265
 30
0.0
 10
3.955241009926137
 20
-9.113914871320882
 30
0.0
 10
4.081865949173448
 20
-9.130306311608516
 30
0.0
 10
4.186398696258367
 20
-9.069915298303032
 30
0.0
 10
4.29107516582941
 20
-9.009382121595207
 30
0.0
 10
4.516688485310649
 20
-8.679236052388307
 30
0.0
 10
4.527647718565756
 20
-8.475572762225157
 30
0.0
 10
4.538750680006463
 20
-8.272051635464372
 30
0.0
 10
4.890974716695673
 20
-7.562343498404389
 30
0.0
 10
4.940532877492387
 20
-7.232197792330553
 30
0.0
 10
4.990092615035311
 20
-6.902065947803698
 30
0.0
 10
5.034104826535339
 20
-6.808479782420868
 30
0.0
 10
5.034104826535339
 20
-6.808479782420868
 30
0.0
 10
5.034104826535339
 20
-6.808479782420868
 30
0.0
 10
4.874455329763451
 20
-7.969527915328348
 30
0.0
 10
4.791986342161181
 20
-8.161960296708003
 30
0.0
 10
4.709375191160158
 20
-8.35450640880976
 30
0.0
 10
4.621219667608734
 20
-8.640638688658681
 30
0.0
 10
4.56068649243025
 20
-8.800302405803727
 30
0.0
 10
4.500167533591593
 20
-8.959823959546686
 30
0.0
 10
4.456153745345293
 20
-9.135850684298829
 30
0.0
 10
4.390061981276554
 20
-9.174320100966497
 30
0.0
 10
4.323984433547606
 20
-9.21290324835599
 30
0.0
 10
4.494608944701313
 20
-9.229422635705607
 30
0.0
 10
4.582764468252726
 20
-8.9982791598742
 30
0.0
 10
4.67077782840541
 20
-8.767263631104772
 30
0.0
 10
4.714933780050463
 20
-8.585664100981527
 30
0.0
 10
4.802947140203147
 20
-8.42615676357895
 30
0.0
 10
4.890974716695673
 20
-8.266635209836016
 30
0.0
 10
5.006624641561175
 20
-7.793359027173816
 30
0.0
 10
5.056182802357853
 20
-7.639396062461552
 30
0.0
 10
5.105598799755803
 20
-7.485290934346949
 30
0.0
 10
5.285392850127487
 20
-6.596769669849133
 30
0.0
 10
5.340367436415717
 20
-6.343676550278714
 30
0.0
 10
5.395484186102698
 20
-6.090583051522698
 30
0.0
 10
5.298302871264291
 20
-7.16070381911009
 30
0.0
 10
5.259703923977313
 20
-7.430174183267733
 30
0.0
 10
5.221250307206851
 20
-7.699929239169149
 30
0.0
 10
5.226665150112845
 20
-8.035477517664251
 30
0.0
 10
5.221250307206851
 20
-8.194999071407185
 30
0.0
 10
5.215705934516538
 20
-8.35450640880976
 30
0.0
 10
5.204729337689059
 20
-8.492234312977113
 30
0.0
 10
5.182651361866546
 20
-8.585664100981527
 30
0.0
 10
5.160715549442759
 20
-8.679236052388307
 30
0.0
 10
5.006624641561175
 20
-9.163345086307471
 30
0.0
 10
4.736869592474236
 20
-9.383399816758027
 30
0.0
 10
4.467114543387273
 20
-9.603582494270716
 30
0.0
 10
4.208478229081694
 20
-9.697012282275155
 30
0.0
 10
4.026877146545328
 20
-9.763104048013702
 30
0.0
 10
3.845149673950964
 20
-9.829181597411838
 30
0.0
 10
4.05437310096737
 20
-9.812662210062221
 30
0.0
 10
4.241515445945335
 20
-9.741026071633415
 30
0.0
 10
4.428659344031252
 20
-9.669517880266513
 30
0.0
 10
4.84696092844941
 20
-9.438502351497087
 30
0.0
 10
4.907495678287597
 20
-9.344930400090334
 30
0.0
 10
4.968027278806428
 20
-9.251358448683554
 30
0.0
 10
5.149754751400829
 20
-8.94330457219707
 30
0.0
 10
5.149754751400829
 20
-8.94330457219707
 30
0.0
 10
5.149754751400829
 20
-8.94330457219707
 30
0.0
 10
5.204729337689059
 20
-9.130306311608516
 30
0.0
 10
5.111157388646082
 20
-9.245956239395328
 30
0.0
 10
5.017585439603105
 20
-9.361464003780055
 30
0.0
 10
4.942894365465147
 20
-9.46655119077473
 30
0.0
 10
5.155171176892382
 20
-9.333969601771413
 30
0.0
 10
5.24318453704508
 20
-9.278852850692196
 30
0.0
 10
5.254287498485761
 20
-9.003823532564537
 30
0.0
 10
5.270806885417969
 20
-8.882771395489524
 30
0.0
 10
5.287340488690082
 20
-8.761705042074102
 30
0.0
 10
5.248743125935334
 20
-8.629677890339785
 30
0.0
 10
5.303859875622316
 20
-8.530689513304676
 30
0.0
 10
5.358834461910545
 20
-8.431558972867201
 30
0.0
 10
5.600952946284703
 20
-7.545824111054773
 30
0.0
 10
5.645108897929705
 20
-7.094612055041327
 30
0.0
 10
5.689110064240973
 20
-6.643556023556179
 30
0.0
 10
5.711044282259914
 20
-6.610517249691712
 30
0.0
 10
5.711044282259914
 20
-6.610517249691712
 30
0.0
 10
5.711044282259914
 20
-6.610517249691712
 30
0.0
 10
5.730479614315855
 20
-6.872069470672032
 30
0.0
 10
5.736734804017942
 20
-7.333688242682683
 30
0.0
 10
5.742974181614297
 20
-7.795164502383184
 30
0.0
 10
5.637602670476881
 20
-8.538465851411376
 30
0.0
 10
5.687175047613411
 20
-8.721302203134806
 30
0.0
 10
5.736734804017942
 20
-8.90401060779608
 30
0.0
 10
5.684118534540781
 20
-9.130164148206177
 30
0.0
 10
5.712025209711151
 20
-9.235393498603218
 30
0.0
 10
5.739789721482794
 20
-9.340765012402345
 30
0.0
 10
5.727435722133274
 20
-9.507920740849915
 30
0.0
 10
5.625248671127388
 20
-9.55138009293887
 30
0.0
 10
5.523075836461354
 20
-9.594697281625788
 30
0.0
 10
5.383542460609507
 20
-9.684516119211214
 30
0.0
 10
5.3618909749832
 20
-9.67216211954984
 30
0.0
 10
5.340225273017015
 20
-9.659665956485897
 30
0.0
 10
5.299964598497152
 20
-9.755739983773385
 30
0.0
 10
5.491970484819578
 20
-9.693813605723108
 30
0.0
 10
5.684118534540781
 20
-9.631901444012934
 30
0.0
 10
5.798645368556309
 20
-9.566790605750485
 30
0.0
 10
5.798645368556309
 20
-9.349934551852003
 30
0.0
 10
5.798645368556309
 20
-9.13322066135591
 30
0.0
 10
5.773937369857296
 20
-9.003126931893146
 30
0.0
 10
5.804900558100321
 20
-8.829588066681582
 30
0.0
 10
5.83586374634337
 20
-8.656191364872358
 30
0.0
 10
5.882365394067366
 20
-7.956207204530781
 30
0.0
 10
5.922626068587255
 20
-7.615512610871924
 30
0.0
 10
5.962886743107092
 20
-7.274818379269314
 30
0.0
 10
6.043408092146794
 20
-6.485015401294377
 30
0.0
 10
6.049663281690855
 20
-6.370332187540245
 30
0.0
 10
6.055762091496288
 20
-6.255805353524718
 30
0.0
 10
6.123929441186495
 20
-6.336326316799487
 30
0.0
 10
6.126985954259175
 20
-6.475703698677661
 30
0.0
 10
6.130184630730557
 20
-6.615094911130781
 30
0.0
 10
6.089923956210693
 20
-6.618151424203435
 30
0.0
 10
6.105462415691717
 20
-6.838063985696206
 30
0.0
 10
6.12087292811384
 20
-7.057962330849149
 30
0.0
 10
6.161133602633703
 20
-7.922187502355806
 30
0.0
 10
6.229300952323911
 20
-8.21332393396617
 30
0.0
 10
6.297468302014117
 20
-8.5044461492364
 30
0.0
 10
6.26026414056696
 20
-8.57872652694828
 30
0.0
 10
6.312878814436291
 20
-8.761562878671763
 30
0.0
 10
6.429781390326221
 20
-9.166956036726434
 30
0.0
 10
6.542516968365665
 20
-9.451282841365758
 30
0.0
 10
6.542516968365665
 20
-9.451282841365758
 30
0.0
 10
6.542516968365665
 20
-9.451282841365758
 30
0.0
 10
6.52419049030603
 20
-9.63120484334134
 30
0.0
 10
6.514182187035557
 20
-9.696870118872816
 30
0.0
 10
6.498771674613408
 20
-9.799199335862593
 30
0.0
 10
6.455326539962041
 20
-10.11502955045605
 30
0.0
 10
6.517380863506938
 20
-10.0964345774325
 30
0.0
 10
6.579307239993012
 20
-10.07782538806888
 30
0.0
 10
6.523493889652273
 20
-9.854870524210835
 30
0.0
 10
6.566939024303615
 20
-9.72172028159841
 30
0.0
 10
6.610256211896158
 20
-9.588442091923726
 30
0.0
 10
6.61651140144017
 20
-9.573031579112415
 30
0.0
 10
6.61651140144017
 20
-9.573031579112415
 30
0.0
 10
6.61651140144017
 20
-9.573031579112415
 30
0.0
 10
6.922774011320572
 20
-10.0426968113556
 30
0.0
 10
7.028415632915564
 20
-10.00050271354712
 30
0.0
 10
7.059378821158614
 20
-9.988006550483407
 30
0.0
 10
6.771298909975585
 20
-9.687572632361176
 30
0.0
 10
6.731038235455697
 20
-9.59775379477575
 30
0.0
 10
6.690777560935859
 20
-9.507920740849915
 30
0.0
 10
6.647460373343342
 20
-9.480014064974613
 30
0.0
 10
6.647460373343342
 20
-9.346878038702016
 30
0.0
 10
6.647460373343342
 20
-9.213742012429721
 30
0.0
 10
6.70327372368408
 20
-9.164183850381201
 30
0.0
 10
6.678425180983241
 20
-8.891656608134477
 30
0.0
 10
6.653573399488651
 20
-8.618987202485439
 30
0.0
 10
6.631921913862343
 20
-8.033672042454883
 30
0.0
 10
6.631921913862343
 20
-7.919003042143863
 30
0.0
 10
6.631921913862343
 20
-7.804461988894824
 30
0.0
 10
6.548345667860935
 20
-7.370892404129891
 30
0.0
 10
6.514182187035557
 20
-7.215962732195798
 30
0.0
 10
6.48017670205978
 20
-7.061018843921829
 30
0.0
 10
6.458511000093544
 20
-6.726579448413481
 30
0.0
 10
6.452270026889411
 20
-6.630505423552904
 30
0.0
 10
6.446157000744076
 20
-6.534573562091055
 30
0.0
 10
6.452270026889411
 20
-6.361034701263407
 30
0.0
 10
6.495729377880631
 20
-6.553040587585858
 30
0.0
 10
6.539032349133296
 20
-6.745174420967158
 30
0.0
 10
6.511139890302779
 20
-6.819454796802701
 30
0.0
 10
6.638162887066528
 20
-7.172645544603256
 30
0.0
 10
6.765200100170128
 20
-7.525693773286194
 30
0.0
 10
6.870429447908817
 20
-7.816815988556426
 30
0.0
 10
7.031614309386971
 20
-8.33090728402481
 30
0.0
 10
7.192657007466399
 20
-8.845140742895536
 30
0.0
 10
7.462127729755846
 20
-9.275654174140122
 30
0.0
 10
7.443532757202243
 20
-9.418101903264237
 30
0.0
 10
7.424925206563759
 20
-9.560677579450763
 30
0.0
 10
7.499331891203079
 20
-9.78364665964894
 30
0.0
 10
7.635524427184817
 20
-9.82085082203586
 30
0.0
 10
7.771859126565232
 20
-9.857912821020717
 30
0.0
 10
7.486835728454858
 20
-9.727833307898083
 30
0.0
 10
7.530295079446053
 20
-9.579144605412086
 30
0.0
  0
SPLINE
  5
42
330
1F
100
AcDbEntity
  8
Layer 1
370
     0
100
AcDbSpline
210
0.0
220
0.0
230
1.0
 70
    11
 71
     3
 72
    20
 73
    16
 74
     0
 42
0.0000000001
 43
0.0000000001
 12
1.0
 22
0.0
 32
0.0
 13
1.0
 23
0.0
 33
0.0
 40
0.0
 40
0.0
 40
0.0
 40
0.0
 40
1.0
 40
1.0
 40
1.0
 40
2.0
 40
2.0
 40
2.0
 40
3.0
 40
3.0
 40
3.0
 40
4.0
 40
4.0
 40
4.0
 40
5.0
 40
5.0
 40
5.0
 40
5.0
 10
6.539032349133296
 20
-8.252049244758028
 30
0.0
 10
6.585690376595898
 20
-8.535551501664006
 30
0.0
 10
6.59901108705675
 20
-8.969121446058326
 30
0.0
 10
6.59901108705675
 20
-9.035895596127778
 30
0.0
 10
6.59901108705675
 20
-9.102669746197535
 30
0.0
 10
6.579022913195533
 20
-9.252609486623896
 30
0.0
 10
6.579022913195533
 20
-9.252609486623896
 30
0.0
 10
6.579022913195533
 20
-9.252609486623896
 30
0.0
 10
6.455596650419617
 20
-9.049230523265452
 30
0.0
 10
6.435610089821491
 20
-8.709090366875595
 30
0.0
 10
6.415620302697233
 20
-8.368808047083096
 30
0.0
 10
6.335653390912587
 20
-8.00535309271269
 30
0.0
 10
6.395632128836041
 20
-7.76184140087955
 30
0.0
 10
6.395632128836041
 20
-7.76184140087955
 30
0.0
 10
6.492388538010497
 20
-7.968561204192383
 30
0.0
 10
6.539032349133296
 20
-8.252049244758028
 30
0.0
  0
HATCH
  5
43
330
1F
100
AcDbEntity
  8
Layer 1
 62
     7
420
 16777215
100
AcDbHatch
 10
0.0
 20
0.0
 30
0.0
210
0.0
220
0.0
230
1.0
  2
SOLID
 70
     1
 71
     0
 91
        2
 92
        1
 93
        1
 72
     4
 94
        3
 73
     0
 74
     1
 95
      224
 96
      220
 40
0.0
 40
0.0
 40
0.0
 40
0.0
 40
1.0
 40
1.0
 40
1.0
 40
2.0
 40
2.0
 40
2.0
 40
3.0
 40
3.0
 40
3.0
 40
4.0
 40
4.0
 40
4.0
 40
5.0
 40
5.0
 40
5.0
 40
6.0
 40
6.0
 40
6.0
 40
7.0
 40
7.0
 40
7.0
 40
8.0
 40
8.0
 40
8.0
 40
9.0
 40
9.0
 40
9.0
 40
10.0
 40
10.0
 40
10.0
 40
11.0
 40
11.0
 40
11.0
 40
12.0
 40
12.0
 40
12.0
 40
13.0
 40
13.0
 40
13.0
 40
14.0
 40
14.0
 40
14.0
 40
15.0
 40
15.0
 40
15.0
 40
16.0
 40
16.0
 40
16.0
 40
17.0
 40
17.0
 40
17.0
 40
18.0
 40
18.0
 40
18.0
 40
19.0
 40
19.0
 40
19.0
 40
20.0
 40
20.0
 40
20.0
 40
21.0
 40
21.0
 40
21.0
 40
22.0
 40
22.0
 40
22.0
 40
23.0
 40
23.0
 40
23.0
 40
24.0
 40
24.0
 40
24.0
 40
25.0
 40
25.0
 40
25.0
 40
26.0
 40
26.0
 40
26.0
 40
27.0
 40
27.0
 40
27.0
 40
28.0
 40
28.0
 40
28.0
 40
29.0
 40
29.0
 40
29.0
 40
30.0
 40
30.0
 40
30.0
 40
31.0
 40
31.0
 40
31.0
 40
32.0
 40
32.0
 40
32.0
 40
33.0
 40
33.0
 40
33.0
 40
34.0
 40
34.0
 40
34.0
 40
35.0
 40
35.0
 40
35.0
 40
36.0
 40
36.0
 40
36.0
 40
37.0
 40
37.0
 40
37.0
 40
38.0
 40
38.0
 40
38.0
 40
39.0
 40
39.0
 40
39.0
 40
40.0
 40
40.0
 40
40.0
 40
41.0
 40
41.0
 40
41.0
 40
42.0
 40
42.0
 40
42.0
 40
43.0
 40
43.0
 40
43.0
 40
44.0
 40
44.0
 40
44.0
 40
45.0
 40
45.0
 40
45.0
 40
46.0
 40
46.0
 40
46.0
 40
47.0
 40
47.0
 40
47.0
 40
48.0
 40
48.0
 40
48.0
 40
49.0
 40
49.0
 40
49.0
 40
50.0
 40
50.0
 40
50.0
 40
51.0
 40
51.0
 40
51.0
 40
52.0
 40
52.0
 40
52.0
 40
53.0
 40
53.0
 40
53.0
 40
54.0
 40
54.0
 40
54.0
 40
55.0
 40
55.0
 40
55.0
 40
56.0
 40
56.0
 40
56.0
 40
57.0
 40
57.0
 40
57.0
 40
58.0
 40
58.0
 40
58.0
 40
59.0
 40
59.0
 40
59.0
 40
60.0
 40
60.0
 40
60.0
 40
61.0
 40
61.0
 40
61.0
 40
62.0
 40
62.0
 40
62.0
 40
63.0
 40
63.0
 40
63.0
 40
64.0
 40
64.0
 40
64.0
 40
65.0
 40
65.0
 40
65.0
 40
66.0
 40
66.0
 40
66.0
 40
67.0
 40
67.0
 40
67.0
 40
68.0
 40
68.0
 40
68.0
 40
69.0
 40
69.0
 40
69.0
 40
70.0
 40
70.0
 40
70.0
 40
71.0
 40
71.0
 40
71.0
 40
72.0
 40
72.0
 40
72.0
 40
73.0
 40
73.0
 40
73.0
 40
73.0
 10
7.530295079446053
 20
-9.579144605412086
 10
7.573612267038596
 20
-9.43045590292584
 10
7.536408105591388
 20
-9.36243071491597
 10
7.366053704895269
 20
-8.944271283332984
 10
7.195713520539028
 20
-8.52611185175
 10
7.099639495678452
 20
-7.888039853118597
 10
7.034670822459601
 20
-7.649532313046898
 10
6.969559985842048
 20
-7.411152720037408
 10
6.876670421113001
 20
-6.528318372546992
 10
6.625808887717034
 20
-5.998688236290339
 10
6.374805190922365
 20
-5.46904467228257
 10
6.16738879217774
 20
-5.475285645486754
 10
6.23235746539659
 20
-5.397820809519708
 10
6.297468302014117
 20
-5.320355973552624
 10
6.3421786909142
 20
-5.208316999014843
 10
6.21195701767907
 20
-5.053373110740873
 10
6.21195701767907
 20
-5.053373110740873
 10
6.090890667322052
 20
-5.081009675453692
 10
6.151425448584556
 20
-4.827916176697676
 10
6.21195701767907
 20
-4.57482267794166
 10
6.789908098869116
 20
-4.227190079985235
 10
6.569725426918719
 20
-3.390871676992522
 10
6.349528538628444
 20
-2.55455283495366
 10
5.581519209678541
 20
-1.90815007727594
 10
5.056182802357853
 20
-2.972712255973066
 10
4.648842015981637
 20
-3.798070299969974
 10
5.160715549442759
 20
-4.327145604677248
 10
5.336898649486758
 20
-4.640772278611747
 10
5.576516649603869
 20
-5.067546801594087
 10
5.589992148242774
 20
-4.992982098961079
 10
5.501964571750199
 20
-5.020476500275158
 10
5.413951211597476
 20
-5.047970901589198
 10
5.320237099155798
 20
-5.141400687233436
 10
5.386314646884734
 20
-5.278986424522688
 10
5.452407999378616
 20
-5.416557945472087
 10
5.468925797885706
 20
-5.400038149122363
 10
5.402848250156794
 20
-5.477090713179538
 10
5.336898649486758
 20
-5.554143277236967
 10
4.7643497774484
 20
-6.445437111088394
 10
4.791986342161181
 20
-6.715049620579116
 10
4.819466527135369
 20
-6.984662882464868
 10
4.676337986115818
 20
-7.721865052147071
 10
4.582764468252726
 20
-7.969527915328348
 10
4.489192519209786
 20
-8.217077047787496
 10
4.428659344031252
 20
-8.684652478016663
 10
4.379101183234575
 20
-8.767263631104772
 10
4.329543022437898
 20
-8.849718404450162
 10
4.076307360283155
 20
-9.080876096621951
 10
4.015774185104659
 20
-9.097395483971265
 10
3.955241009926137
 20
-9.113914871320882
 10
4.081865949173448
 20
-9.130306311608516
 10
4.186398696258367
 20
-9.069915298303032
 10
4.29107516582941
 20
-9.009382121595207
 10
4.516688485310649
 20
-8.679236052388307
 10
4.527647718565756
 20
-8.475572762225157
 10
4.538750680006463
 20
-8.272051635464372
 10
4.890974716695673
 20
-7.562343498404389
 10
4.940532877492387
 20
-7.232197792330553
 10
4.990092615035311
 20
-6.902065947803698
 10
5.034104826535339
 20
-6.808479782420868
 10
5.034104826535339
 20
-6.808479782420868
 10
5.034104826535339
 20
-6.808479782420868
 10
4.874455329763451
 20
-7.969527915328348
 10
4.791986342161181
 20
-8.161960296708003
 10
4.709375191160158
 20
-8.35450640880976
 10
4.621219667608734
 20
-8.640638688658681
 10
4.56068649243025
 20
-8.800302405803727
 10
4.500167533591593
 20
-8.959823959546686
 10
4.456153745345293
 20
-9.135850684298829
 10
4.390061981276554
 20
-9.174320100966497
 10
4.323984433547606
 20
-9.21290324835599
 10
4.494608944701313
 20
-9.229422635705607
 10
4.582764468252726
 20
-8.9982791598742
 10
4.67077782840541
 20
-8.767263631104772
 10
4.714933780050463
 20
-8.585664100981527
 10
4.802947140203147
 20
-8.42615676357895
 10
4.890974716695673
 20
-8.266635209836016
 10
5.006624641561175
 20
-7.793359027173816
 10
5.056182802357853
 20
-7.639396062461552
 10
5.105598799755803
 20
-7.485290934346949
 10
5.285392850127487
 20
-6.596769669849133
 10
5.340367436415717
 20
-6.343676550278714
 10
5.395484186102698
 20
-6.090583051522698
 10
5.298302871264291
 20
-7.16070381911009
 10
5.259703923977313
 20
-7.430174183267733
 10
5.221250307206851
 20
-7.699929239169149
 10
5.226665150112845
 20
-8.035477517664251
 10
5.221250307206851
 20
-8.194999071407185
 10
5.215705934516538
 20
-8.35450640880976
 10
5.204729337689059
 20
-8.492234312977113
 10
5.182651361866546
 20
-8.585664100981527
 10
5.160715549442759
 20
-8.679236052388307
 10
5.006624641561175
 20
-9.163345086307471
 10
4.736869592474236
 20
-9.383399816758027
 10
4.467114543387273
 20
-9.603582494270716
 10
4.208478229081694
 20
-9.697012282275155
 10
4.026877146545328
 20
-9.763104048013702
 10
3.845149673950964
 20
-9.829181597411838
 10
4.05437310096737
 20
-9.812662210062221
 10
4.241515445945335
 20
-9.741026071633415
 10
4.428659344031252
 20
-9.669517880266513
 10
4.84696092844941
 20
-9.438502351497087
 10
4.907495678287597
 20
-9.344930400090334
 10
4.968027278806428
 20
-9.251358448683554
 10
5.149754751400829
 20
-8.94330457219707
 10
5.149754751400829
 20
-8.94330457219707
 10
5.149754751400829
 20
-8.94330457219707
 10
5.204729337689059
 20
-9.130306311608516
 10
5.111157388646082
 20
-9.245956239395328
 10
5.017585439603105
 20
-9.361464003780055
 10
4.942894365465147
 20
-9.46655119077473
 10
5.155171176892382
 20
-9.333969601771413
 10
5.24318453704508
 20
-9.278852850692196
 10
5.254287498485761
 20
-9.003823532564537
 10
5.270806885417969
 20
-8.882771395489524
 10
5.287340488690082
 20
-8.761705042074102
 10
5.248743125935334
 20
-8.629677890339785
 10
5.303859875622316
 20
-8.530689513304676
 10
5.358834461910545
 20
-8.431558972867201
 10
5.600952946284703
 20
-7.545824111054773
 10
5.645108897929705
 20
-7.094612055041327
 10
5.689110064240973
 20
-6.643556023556179
 10
5.711044282259914
 20
-6.610517249691712
 10
5.711044282259914
 20
-6.610517249691712
 10
5.711044282259914
 20
-6.610517249691712
 10
5.730479614315855
 20
-6.872069470672032
 10
5.736734804017942
 20
-7.333688242682683
 10
5.742974181614297
 20
-7.795164502383184
 10
5.637602670476881
 20
-8.538465851411376
 10
5.687175047613411
 20
-8.721302203134806
 10
5.736734804017942
 20
-8.90401060779608
 10
5.684118534540781
 20
-9.130164148206177
 10
5.712025209711151
 20
-9.235393498603218
 10
5.739789721482794
 20
-9.340765012402345
 10
5.727435722133274
 20
-9.507920740849915
 10
5.625248671127388
 20
-9.55138009293887
 10
5.523075836461354
 20
-9.594697281625788
 10
5.383542460609507
 20
-9.684516119211214
 10
5.3618909749832
 20
-9.67216211954984
 10
5.340225273017015
 20
-9.659665956485897
 10
5.299964598497152
 20
-9.755739983773385
 10
5.491970484819578
 20
-9.693813605723108
 10
5.684118534540781
 20
-9.631901444012934
 10
5.798645368556309
 20
-9.566790605750485
 10
5.798645368556309
 20
-9.349934551852003
 10
5.798645368556309
 20
-9.13322066135591
 10
5.773937369857296
 20
-9.003126931893146
 10
5.804900558100321
 20
-8.829588066681582
 10
5.83586374634337
 20
-8.656191364872358
 10
5.882365394067366
 20
-7.956207204530781
 10
5.922626068587255
 20
-7.615512610871924
 10
5.962886743107092
 20
-7.274818379269314
 10
6.043408092146794
 20
-6.485015401294377
 10
6.049663281690855
 20
-6.370332187540245
 10
6.055762091496288
 20
-6.255805353524718
 10
6.123929441186495
 20
-6.336326316799487
 10
6.126985954259175
 20
-6.475703698677661
 10
6.130184630730557
 20
-6.615094911130781
 10
6.089923956210693
 20
-6.618151424203435
 10
6.105462415691717
 20
-6.838063985696206
 10
6.12087292811384
 20
-7.057962330849149
 10
6.161133602633703
 20
-7.922187502355806
 10
6.229300952323911
 20
-8.21332393396617
 10
6.297468302014117
 20
-8.5044461492364
 10
6.26026414056696
 20
-8.57872652694828
 10
6.312878814436291
 20
-8.761562878671763
 10
6.429781390326221
 20
-9.166956036726434
 10
6.542516968365665
 20
-9.451282841365758
 10
6.542516968365665
 20
-9.451282841365758
 10
6.542516968365665
 20
-9.451282841365758
 10
6.52419049030603
 20
-9.63120484334134
 10
6.514182187035557
 20
-9.696870118872816
 10
6.498771674613408
 20
-9.799199335862593
 10
6.455326539962041
 20
-10.11502955045605
 10
6.517380863506938
 20
-10.0964345774325
 10
6.579307239993012
 20
-10.07782538806888
 10
6.523493889652273
 20
-9.854870524210835
 10
6.566939024303615
 20
-9.72172028159841
 10
6.610256211896158
 20
-9.588442091923726
 10
6.61651140144017
 20
-9.573031579112415
 10
6.61651140144017
 20
-9.573031579112415
 10
6.61651140144017
 20
-9.573031579112415
 10
6.922774011320572
 20
-10.0426968113556
 10
7.028415632915564
 20
-10.00050271354712
 10
7.059378821158614
 20
-9.988006550483407
 10
6.771298909975585
 20
-9.687572632361176
 10
6.731038235455697
 20
-9.59775379477575
 10
6.690777560935859
 20
-9.507920740849915
 10
6.647460373343342
 20
-9.480014064974613
 10
6.647460373343342
 20
-9.346878038702016
 10
6.647460373343342
 20
-9.213742012429721
 10
6.70327372368408
 20
-9.164183850381201
 10
6.678425180983241
 20
-8.891656608134477
 10
6.653573399488651
 20
-8.618987202485439
 10
6.631921913862343
 20
-8.033672042454883
 10
6.631921913862343
 20
-7.919003042143863
 10
6.631921913862343
 20
-7.804461988894824
 10
6.548345667860935
 20
-7.370892404129891
 10
6.514182187035557
 20
-7.215962732195798
 10
6.48017670205978
 20
-7.061018843921829
 10
6.458511000093544
 20
-6.726579448413481
 10
6.452270026889411
 20
-6.630505423552904
 10
6.446157000744076
 20
-6.534573562091055
 10
6.452270026889411
 20
-6.361034701263407
 10
6.495729377880631
 20
-6.553040587585858
 10
6.539032349133296
 20
-6.745174420967158
 10
6.511139890302779
 20
-6.819454796802701
 10
6.638162887066528
 20
-7.172645544603256
 10
6.765200100170128
 20
-7.525693773286194
 10
6.870429447908817
 20
-7.816815988556426
 10
7.031614309386971
 20
-8.33090728402481
 10
7.192657007466399
 20
-8.845140742895536
 10
7.462127729755846
 20
-9.275654174140122
 10
7.443532757202243
 20
-9.418101903264237
 10
7.424925206563759
 20
-9.560677579450763
 10
7.499331891203079
 20
-9.78364665964894
 10
7.635524427184817
 20
-9.82085082203586
 10
7.771859126565232
 20
-9.857912821020717
 10
7.486835728454858
 20
-9.727833307898083
 10
7.530295079446053
 20
-9.579144605412086
 97
        0
 97
        0
 92
        1
 93
        1
 72
     4
 94
        3
 73
     0
 74
     1
 95
       20
 96
       16
 40
0.0
 40
0.0
 40
0.0
 40
0.0
 40
1.0
 40
1.0
 40
1.0
 40
2.0
 40
2.0
 40
2.0
 40
3.0
 40
3.0
 40
3.0
 40
4.0
 40
4.0
 40
4.0
 40
5.0
 40
5.0
 40
5.0
 40
5.0
 10
6.539032349133296
 20
-8.252049244758028
 10
6.585690376595898
 20
-8.535551501664006
 10
6.59901108705675
 20
-8.969121446058326
 10
6.59901108705675
 20
-9.035895596127778
 10
6.59901108705675
 20
-9.102669746197535
 10
6.579022913195533
 20
-9.252609486623896
 10
6.579022913195533
 20
-9.252609486623896
 10
6.579022913195533
 20
-9.252609486623896
 10
6.455596650419617
 20
-9.049230523265452
 10
6.435610089821491
 20
-8.709090366875595
 10
6.415620302697233
 20
-8.368808047083096
 10
6.335653390912587
 20
-8.00535309271269
 10
6.395632128836041
 20
-7.76184140087955
 10
6.395632128836041
 20
-7.76184140087955
 10
6.492388538010497
 20
-7.968561204192383
 10
6.539032349133296
 20
-8.252049244758028
 97
        0
 97
        0
 75
     2
 76
     1
 98
        0
  0
ENDSEC
  0
SECTION
  2
OBJECTS
  0
DICTIONARY
  5
C
330
0
100
AcDbDictionary
281
     1
  3
ACAD_GROUP
350
D
  3
ACAD_LAYOUT
350
1A
  3
ACAD_MATERIAL
350
3B
  3
ACAD_MLEADERSTYLE
350
45
  3
ACAD_MLINESTYLE
350
17
  3
ACAD_PLOTSETTINGS
350
19
  3
ACAD_PLOTSTYLENAME
350
E
  3
ACAD_TABLESTYLE
350
44
  3
ACAD_VISUALSTYLE
350
2A
  0
SUN
  5
3F
330
29
100
AcDbSun
 90
        1
290
     0
 63
     7
421
 16777215
 40
1.0
291
     1
 91
  2455826
 92
 54000000
292
     0
 70
     2
 71
   256
280
     1
  0
DICTIONARY
  5
D
102
{ACAD_REACTORS
330
C
102
}
330
C
100
AcDbDictionary
281
     1
  0
DICTIONARY
  5
1A
102
{ACAD_REACTORS
330
C
102
}
330
C
100
AcDbDictionary
281
     1
  3
Layout1
350
1E
  3
Layout2
350
26
  3
Model
350
22
  0
DICTIONARY
  5
3B
102
{ACAD_REACTORS
330
C
102
}
330
C
100
AcDbDictionary
281
     1
  3
ByBlock
350
3D
  3
ByLayer
350
3C
  3
Global
350
3E
  0
DICTIONARY
  5
45
102
{ACAD_REACTORS
330
C
102
}
330
C
100
AcDbDictionary
281
     1
  0
DICTIONARY
  5
17
102
{ACAD_REACTORS
330
C
102
}
330
C
100
AcDbDictionary
281
     1
  3
Standard
350
18
  0
DICTIONARY
  5
19
102
{ACAD_REACTORS
330
C
102
}
330
C
100
AcDbDictionary
281
     1
  0
ACDBDICTIONARYWDFLT
  5
E
102
{ACAD_REACTORS
330
C
102
}
330
C
100
AcDbDictionary
281
     1
  3
Normal
350
F
100
AcDbDictionaryWithDefault
340
F
  0
DICTIONARY
  5
44
102
{ACAD_REACTORS
330
C
102
}
330
C
100
AcDbDictionary
281
     1
  0
DICTIONARY
  5
2A
102
{ACAD_REACTORS
330
C
102
}
330
C
100
AcDbDictionary
281
     1
  3
2dWireframe
350
2F
  3
3D Hidden
350
31
  3
3dWireframe
350
30
  3
Basic
350
32
  3
Brighten
350
36
  3
ColorChange
350
3A
  3
Conceptual
350
34
  3
Dim
350
35
  3
Facepattern
350
39
  3
Flat
350
2B
  3
FlatWithEdges
350
2C
  3
Gouraud
350
2D
  3
GouraudWithEdges
350
2E
  3
Linepattern
350
38
  3
Realistic
350
33
  3
Thicken
350
37
  0
LAYOUT
  5
1E
102
{ACAD_REACTORS
330
1A
102
}
330
1A
100
AcDbPlotSettings
  1

  2
none_device
  4

  6

 40
0.0
 41
0.0
 42
0.0
 43
0.0
 44
0.0
 45
0.0
 46
0.0
 47
0.0
 48
0.0
 49
0.0
140
0.0
141
0.0
142
1.0
143
1.0
 70
   688
 72
     0
 73
     0
 74
     5
  7

 75
    16
 76
     0
 77
     2
 78
   300
147
1.0
148
0.0
149
0.0
100
AcDbLayout
  1
Layout1
 70
     1
 71
     1
 10
0.0
 20
0.0
 11
12.0
 21
9.0
 12
0.0
 22
0.0
 32
0.0
 14
1.000000000000000E+20
 24
1.000000000000000E+20
 34
1.000000000000000E+20
 15
-1.000000000000000E+20
 25
-1.000000000000000E+20
 35
-1.000000000000000E+20
146
0.0
 13
0.0
 23
0.0
 33
0.0
 16
1.0
 26
0.0
 36
0.0
 17
0.0
 27
1.0
 37
0.0
 76
     0
330
1B
  0
LAYOUT
  5
26
102
{ACAD_REACTORS
330
1A
102
}
330
1A
100
AcDbPlotSettings
  1

  2
none_device
  4

  6

 40
0.0
 41
0.0
 42
0.0
 43
0.0
 44
0.0
 45
0.0
 46
0.0
 47
0.0
 48
0.0
 49
0.0
140
0.0
141
0.0
142
1.0
143
1.0
 70
   688
 72
     0
 73
     0
 74
     5
  7

 75
    16
 76
     0
 77
     2
 78
   300
147
1.0
148
0.0
149
0.0
100
AcDbLayout
  1
Layout2
 70
     1
 71
     2
 10
0.0
 20
0.0
 11
0.0
 21
0.0
 12
0.0
 22
0.0
 32
0.0
 14
0.0
 24
0.0
 34
0.0
 15
0.0
 25
0.0
 35
0.0
146
0.0
 13
0.0
 23
0.0
 33
0.0
 16
1.0
 26
0.0
 36
0.0
 17
0.0
 27
1.0
 37
0.0
 76
     0
330
23
  0
LAYOUT
  5
22
102
{ACAD_REACTORS
330
1A
102
}
330
1A
100
AcDbPlotSettings
  1

  2
none_device
  4

  6

 40
0.0
 41
0.0
 42
0.0
 43
0.0
 44
0.0
 45
0.0
 46
0.0
 47
0.0
 48
0.0
 49
0.0
140
0.0
141
0.0
142
1.0
143
1.0
 70
  1712
 72
     0
 73
     0
 74
     0
  7

 75
     0
 76
     0
 77
     2
 78
   300
147
1.0
148
0.0
149
0.0
100
AcDbLayout
  1
Model
 70
     1
 71
     0
 10
0.0
 20
0.0
 11
12.0
 21
9.0
 12
0.0
 22
0.0
 32
0.0
 14
1.000000000000000E+20
 24
1.000000000000000E+20
 34
1.000000000000000E+20
 15
-1.000000000000000E+20
 25
-1.000000000000000E+20
 35
-1.000000000000000E+20
146
0.0
 13
0.0
 23
0.0
 33
0.0
 16
1.0
 26
0.0
 36
0.0
 17
0.0
 27
1.0
 37
0.0
 76
     0
330
1F
331
29
  0
MATERIAL
  5
3D
102
{ACAD_REACTORS
330
3B
102
}
330
3B
100
AcDbMaterial
  1
ByBlock
 72
     1
 94
      127
  0
MATERIAL
  5
3C
102
{ACAD_REACTORS
330
3B
102
}
330
3B
100
AcDbMaterial
  1
ByLayer
 72
     1
 94
      127
  0
MATERIAL
  5
3E
102
{ACAD_REACTORS
330
3B
102
}
330
3B
100
AcDbMaterial
  1
Global
 72
     1
 94
      127
  0
MLINESTYLE
  5
18
102
{ACAD_REACTORS
330
17
102
}
330
17
100
AcDbMlineStyle
  2
Standard
 70
     0
  3

 62
   256
 51
90.0
 52
90.0
 71
     2
 49
0.5
 62
   256
  6
BYLAYER
 49
-0.5
 62
   256
  6
BYLAYER
  0
ACDBPLACEHOLDER
  5
F
102
{ACAD_REACTORS
330
E
102
}
330
E
  0
VISUALSTYLE
  5
2F
102
{ACAD_REACTORS
330
2A
102
}
330
2A
100
AcDbVisualStyle
  2
2dWireframe
 70
     4
177
     2
291
     0
 71
     0
176
     1
 72
     2
176
     1
 73
     0
176
     1
 90
        0
176
     1
 40
-0.6
176
     1
 41
-30.0
176
     1
 62
     5
 63
     7
421
 16777215
176
     1
 74
     1
176
     1
 91
        4
176
     1
 64
     7
176
     1
 65
   257
176
     1
 75
     1
176
     1
175
     1
176
     1
 42
1.0
176
     1
 92
        0
176
     1
 66
   257
176
     1
 43
1.0
176
     1
 76
     1
176
     1
 77
     6
176
     1
 78
     2
176
     1
 67
     7
176
     1
 79
     5
176
     1
170
     0
176
     1
171
     0
176
     1
290
     0
176
     1
 93
        1
176
     1
 44
0.0
176
     1
173
     0
176
     1
  0
VISUALSTYLE
  5
31
102
{ACAD_REACTORS
330
2A
102
}
330
2A
100
AcDbVisualStyle
  2
3D Hidden
 70
     6
177
     2
291
     0
 71
     1
176
     1
 72
     2
176
     1
 73
     2
176
     1
 90
        0
176
     1
 40
-0.6
176
     1
 41
-30.0
176
     1
 62
     5
 63
     7
421
 16777215
176
     1
 74
     2
176
     1
 91
        2
176
     1
 64
     7
176
     1
 65
   257
176
     1
 75
     2
176
     1
175
     1
176
     1
 42
40.0
176
     1
 92
        0
176
     1
 66
   257
176
     1
 43
1.0
176
     1
 76
     1
176
     1
 77
     6
176
     1
 78
     2
176
     1
 67
     7
176
     1
 79
     3
176
     1
170
     0
176
     1
171
     0
176
     1
290
     0
176
     1
 93
        1
176
     1
 44
0.0
176
     1
173
     0
176
     1
  0
VISUALSTYLE
  5
30
102
{ACAD_REACTORS
330
2A
102
}
330
2A
100
AcDbVisualStyle
  2
3dWireframe
 70
     5
177
     2
291
     0
 71
     0
176
     1
 72
     2
176
     1
 73
     0
176
     1
 90
        0
176
     1
 40
-0.6
176
     1
 41
-30.0
176
     1
 62
     5
 63
     7
421
 16777215
176
     1
 74
     1
176
     1
 91
        4
176
     1
 64
     7
176
     1
 65
   257
176
     1
 75
     1
176
     1
175
     1
176
     1
 42
1.0
176
     1
 92
        0
176
     1
 66
   257
176
     1
 43
1.0
176
     1
 76
     1
176
     1
 77
     6
176
     1
 78
     2
176
     1
 67
     7
176
     1
 79
     5
176
     1
170
     0
176
     1
171
     0
176
     1
290
     0
176
     1
 93
        1
176
     1
 44
0.0
176
     1
173
     0
176
     1
  0
VISUALSTYLE
  5
32
102
{ACAD_REACTORS
330
2A
102
}
330
2A
100
AcDbVisualStyle
  2
Basic
 70
     7
177
     2
291
     1
 71
     1
176
     1
 72
     0
176
     1
 73
     1
176
     1
 90
        0
176
     1
 40
-0.6
176
     1
 41
-30.0
176
     1
 62
     5
 63
     7
421
 16777215
176
     1
 74
     0
176
     1
 91
        4
176
     1
 64
     7
176
     1
 65
   257
176
     1
 75
     1
176
     1
175
     1
176
     1
 42
1.0
176
     1
 92
        8
176
     1
 66
     7
176
     1
 43
1.0
176
     1
 76
     1
176
     1
 77
     6
176
     1
 78
     2
176
     1
 67
     7
176
     1
 79
     5
176
     1
170
     0
176
     1
171
     0
176
     1
290
     0
176
     1
 93
        1
176
     1
 44
0.0
176
     1
173
     0
176
     1
  0
VISUALSTYLE
  5
36
102
{ACAD_REACTORS
330
2A
102
}
330
2A
100
AcDbVisualStyle
  2
Brighten
 70
    12
177
     2
291
     1
 71
     2
176
     1
 72
     2
176
     1
 73
     0
176
     1
 90
        0
176
     1
 40
-0.6
176
     1
 41
-30.0
176
     1
 62
     5
 63
     7
421
 16777215
176
     1
 74
     1
176
     1
 91
        4
176
     1
 64
     7
176
     1
 65
   257
176
     1
 75
     1
176
     1
175
     1
176
     1
 42
1.0
176
     1
 92
        8
176
     1
 66
     7
176
     1
 43
1.0
176
     1
 76
     1
176
     1
 77
     6
176
     1
 78
     2
176
     1
 67
     7
176
     1
 79
     5
176
     1
170
     0
176
     1
171
     0
176
     1
290
     0
176
     1
 93
        1
176
     1
 44
50.0
176
     1
173
     0
176
     1
  0
VISUALSTYLE
  5
3A
102
{ACAD_REACTORS
330
2A
102
}
330
2A
100
AcDbVisualStyle
  2
ColorChange
 70
    16
177
     2
291
     1
 71
     2
176
     1
 72
     2
176
     1
 73
     3
176
     1
 90
        0
176
     1
 40
-0.6
176
     1
 41
-30.0
176
     1
 62
     5
 63
     8
421
  8421504
176
     1
 74
     1
176
     1
 91
        4
176
     1
 64
     7
176
     1
 65
   257
176
     1
 75
     1
176
     1
175
     1
176
     1
 42
1.0
176
     1
 92
        8
176
     1
 66
     8
424
  8421504
176
     1
 43
1.0
176
     1
 76
     1
176
     1
 77
     6
176
     1
 78
     2
176
     1
 67
     7
176
     1
 79
     5
176
     1
170
     0
176
     1
171
     0
176
     1
290
     0
176
     1
 93
        1
176
     1
 44
0.0
176
     1
173
     0
176
     1
  0
VISUALSTYLE
  5
34
102
{ACAD_REACTORS
330
2A
102
}
330
2A
100
AcDbVisualStyle
  2
Conceptual
 70
     9
177
     2
291
     0
 71
     3
176
     1
 72
     2
176
     1
 73
     0
176
     1
 90
        0
176
     1
 40
-0.6
176
     1
 41
-30.0
176
     1
 62
     5
 63
     7
421
 16777215
176
     1
 74
     2
176
     1
 91
        2
176
     1
 64
     7
176
     1
 65
   257
176
     1
 75
     1
176
     1
175
     1
176
     1
 42
40.0
176
     1
 92
        8
176
     1
 66
     7
176
     1
 43
1.0
176
     1
 76
     1
176
     1
 77
     6
176
     1
 78
     2
176
     1
 67
     7
176
     1
 79
     3
176
     1
170
     0
176
     1
171
     0
176
     1
290
     0
176
     1
 93
        1
176
     1
 44
0.0
176
     1
173
     0
176
     1
  0
VISUALSTYLE
  5
35
102
{ACAD_REACTORS
330
2A
102
}
330
2A
100
AcDbVisualStyle
  2
Dim
 70
    11
177
     2
291
     1
 71
     2
176
     1
 72
     2
176
     1
 73
     0
176
     1
 90
        0
176
     1
 40
-0.6
176
     1
 41
-30.0
176
     1
 62
     5
 63
     7
421
 16777215
176
     1
 74
     1
176
     1
 91
        4
176
     1
 64
     7
176
     1
 65
   257
176
     1
 75
     1
176
     1
175
     1
176
     1
 42
1.0
176
     1
 92
        8
176
     1
 66
     7
176
     1
 43
1.0
176
     1
 76
     1
176
     1
 77
     6
176
     1
 78
     2
176
     1
 67
     7
176
     1
 79
     5
176
     1
170
     0
176
     1
171
     0
176
     1
290
     0
176
     1
 93
        1
176
     1
 44
-50.0
176
     1
173
     0
176
     1
  0
VISUALSTYLE
  5
39
102
{ACAD_REACTORS
330
2A
102
}
330
2A
100
AcDbVisualStyle
  2
Facepattern
 70
    15
177
     2
291
     1
 71
     2
176
     1
 72
     2
176
     1
 73
     0
176
     1
 90
        0
176
     1
 40
-0.6
176
     1
 41
-30.0
176
     1
 62
     5
 63
     7
421
 16777215
176
     1
 74
     1
176
     1
 91
        4
176
     1
 64
     7
176
     1
 65
   257
176
     1
 75
     1
176
     1
175
     1
176
     1
 42
1.0
176
     1
 92
        8
176
     1
 66
     7
176
     1
 43
1.0
176
     1
 76
     1
176
     1
 77
     6
176
     1
 78
     2
176
     1
 67
     7
176
     1
 79
     5
176
     1
170
     0
176
     1
171
     0
176
     1
290
     0
176
     1
 93
        1
176
     1
 44
0.0
176
     1
173
     0
176
     1
  0
VISUALSTYLE
  5
2B
102
{ACAD_REACTORS
330
2A
102
}
330
2A
100
AcDbVisualStyle
  2
Flat
 70
     0
177
     2
291
     1
 71
     2
176
     1
 72
     1
176
     1
 73
     1
176
     1
 90
        2
176
     1
 40
-0.6
176
     1
 41
30.0
176
     1
 62
     5
 63
     7
421
 16777215
176
     1
 74
     0
176
     1
 91
        4
176
     1
 64
     7
176
     1
 65
   257
176
     1
 75
     1
176
     1
175
     1
176
     1
 42
1.0
176
     1
 92
        8
176
     1
 66
     7
176
     1
 43
1.0
176
     1
 76
     1
176
     1
 77
     6
176
     1
 78
     2
176
     1
 67
     7
176
     1
 79
     5
176
     1
170
     0
176
     1
171
     0
176
     1
290
     0
176
     1
 93
       13
176
     1
 44
0.0
176
     1
173
     0
176
     1
  0
VISUALSTYLE
  5
2C
102
{ACAD_REACTORS
330
2A
102
}
330
2A
100
AcDbVisualStyle
  2
FlatWithEdges
 70
     1
177
     2
291
     1
 71
     2
176
     1
 72
     1
176
     1
 73
     1
176
     1
 90
        2
176
     1
 40
-0.6
176
     1
 41
30.0
176
     1
 62
     5
 63
     7
421
 16777215
176
     1
 74
     1
176
     1
 91
        4
176
     1
 64
     7
176
     1
 65
   257
176
     1
 75
     1
176
     1
175
     1
176
     1
 42
1.0
176
     1
 92
        0
176
     1
 66
   257
176
     1
 43
1.0
176
     1
 76
     1
176
     1
 77
     6
176
     1
 78
     2
176
     1
 67
     7
176
     1
 79
     5
176
     1
170
     0
176
     1
171
     0
176
     1
290
     0
176
     1
 93
       13
176
     1
 44
0.0
176
     1
173
     0
176
     1
  0
VISUALSTYLE
  5
2D
102
{ACAD_REACTORS
330
2A
102
}
330
2A
100
AcDbVisualStyle
  2
Gouraud
 70
     2
177
     2
291
     1
 71
     2
176
     1
 72
     2
176
     1
 73
     1
176
     1
 90
        2
176
     1
 40
-0.6
176
     1
 41
30.0
176
     1
 62
     5
 63
     7
421
 16777215
176
     1
 74
     0
176
     1
 91
        4
176
     1
 64
     7
176
     1
 65
   257
176
     1
 75
     1
176
     1
175
     1
176
     1
 42
1.0
176
     1
 92
        0
176
     1
 66
     7
176
     1
 43
1.0
176
     1
 76
     1
176
     1
 77
     6
176
     1
 78
     2
176
     1
 67
     7
176
     1
 79
     5
176
     1
170
     0
176
     1
171
     0
176
     1
290
     0
176
     1
 93
       13
176
     1
 44
0.0
176
     1
173
     0
176
     1
  0
VISUALSTYLE
  5
2E
102
{ACAD_REACTORS
330
2A
102
}
330
2A
100
AcDbVisualStyle
  2
GouraudWithEdges
 70
     3
177
     2
291
     1
 71
     2
176
     1
 72
     2
176
     1
 73
     1
176
     1
 90
        2
176
     1
 40
-0.6
176
     1
 41
30.0
176
     1
 62
     5
 63
     7
421
 16777215
176
     1
 74
     1
176
     1
 91
        4
176
     1
 64
     7
176
     1
 65
   257
176
     1
 75
     1
176
     1
175
     1
176
     1
 42
1.0
176
     1
 92
        0
176
     1
 66
   257
176
     1
 43
1.0
176
     1
 76
     1
176
     1
 77
     6
176
     1
 78
     2
176
     1
 67
     7
176
     1
 79
     5
176
     1
170
     0
176
     1
171
     0
176
     1
290
     0
176
     1
 93
       13
176
     1
 44
0.0
176
     1
173
     0
176
     1
  0
VISUALSTYLE
  5
38
102
{ACAD_REACTORS
330
2A
102
}
330
2A
100
AcDbVisualStyle
  2
Linepattern
 70
    14
177
     2
291
     1
 71
     2
176
     1
 72
     2
176
     1
 73
     0
176
     1
 90
        0
176
     1
 40
-0.6
176
     1
 41
-30.0
176
     1
 62
     5
 63
     7
421
 16777215
176
     1
 74
     1
176
     1
 91
        4
176
     1
 64
     7
176
     1
 65
   257
176
     1
 75
     7
176
     1
175
     7
176
     1
 42
1.0
176
     1
 92
        8
176
     1
 66
     7
176
     1
 43
1.0
176
     1
 76
     1
176
     1
 77
     6
176
     1
 78
     2
176
     1
 67
     7
176
     1
 79
     5
176
     1
170
     0
176
     1
171
     0
176
     1
290
     0
176
     1
 93
        1
176
     1
 44
0.0
176
     1
173
     0
176
     1
  0
VISUALSTYLE
  5
33
102
{ACAD_REACTORS
330
2A
102
}
330
2A
100
AcDbVisualStyle
  2
Realistic
 70
     8
177
     2
291
     0
 71
     2
176
     1
 72
     2
176
     1
 73
     0
176
     1
 90
        0
176
     1
 40
-0.6
176
     1
 41
-30.0
176
     1
 62
     5
 63
     7
421
 16777215
176
     1
 74
     1
176
     1
 91
        0
176
     1
 64
     7
176
     1
 65
   257
176
     1
 75
     1
176
     1
175
     1
176
     1
 42
1.0
176
     1
 92
        8
176
     1
 66
     8
424
  7895160
176
     1
 43
1.0
176
     1
 76
     1
176
     1
 77
     6
176
     1
 78
     2
176
     1
 67
     7
176
     1
 79
     5
176
     1
170
     0
176
     1
171
     0
176
     1
290
     0
176
     1
 93
       13
176
     1
 44
0.0
176
     1
173
     0
176
     1
  0
VISUALSTYLE
  5
37
102
{ACAD_REACTORS
330
2A
102
}
330
2A
100
AcDbVisualStyle
  2
Thicken
 70
    13
177
     2
291
     1
 71
     2
176
     1
 72
     2
176
     1
 73
     0
176
     1
 90
        0
176
     1
 40
-0.6
176
     1
 41
-30.0
176
     1
 62
     5
 63
     7
421
 16777215
176
     1
 74
     1
176
     1
 91
        4
176
     1
 64
     7
176
     1
 65
   257
176
     1
 75
     1
176
     1
175
     1
176
     1
 42
1.0
176
     1
 92
       12
176
     1
 66
     7
176
     1
 43
1.0
176
     1
 76
     1
176
     1
 77
     6
176
     1
 78
     2
176
     1
 67
     7
176
     1
 79
     5
176
     1
170
     0
176
     1
171
     0
176
     1
290
     0
176
     1
 93
        1
176
     1
 44
0.0
176
     1
173
     0
176
     1
  0
ENDSEC
  0
EOF
