  0
SECTION
  2
HEADER
  9
$ACADVER
  1
AC1024
  9
$ACADMAINTVER
 70
     6
  9
$DWGCODEPAGE
  3
ANSI_1252
  9
$INSBASE
 10
0.0
 20
0.0
 30
0.0
  9
$EXTMIN
 10
1.000000000000000E+20
 20
1.000000000000000E+20
 30
1.000000000000000E+20
  9
$EXTMAX
 10
-1.000000000000000E+20
 20
-1.000000000000000E+20
 30
-1.000000000000000E+20
  9
$LIMMIN
 10
0.0
 20
0.0
  9
$LIMMAX
 10
12.0
 20
9.0
  9
$ORTHOMODE
 70
     0
  9
$REGENMODE
 70
     1
  9
$FILLMODE
 70
     1
  9
$QTEXTMODE
 70
     0
  9
$MIRRTEXT
 70
     1
  9
$LTSCALE
 40
1.0
  9
$ATTMODE
 70
     1
  9
$TEXTSIZE
 40
0.2
  9
$TRACEWID
 40
0.05
  9
$TEXTSTYLE
  7
Standard
  9
$CLAYER
  8
0
  9
$CELTYPE
  6
ByLayer
  9
$CECOLOR
 62
   256
  9
$CELTSCALE
 40
1.0
  9
$DISPSILH
 70
     0
  9
$DIMSCALE
 40
1.0
  9
$DIMASZ
 40
0.18
  9
$DIMEXO
 40
0.0625
  9
$DIMDLI
 40
0.38
  9
$DIMRND
 40
0.0
  9
$DIMDLE
 40
0.0
  9
$DIMEXE
 40
0.18
  9
$DIMTP
 40
0.0
  9
$DIMTM
 40
0.0
  9
$DIMTXT
 40
0.18
  9
$DIMCEN
 40
0.09
  9
$DIMTSZ
 40
0.0
  9
$DIMTOL
 70
     0
  9
$DIMLIM
 70
     0
  9
$DIMTIH
 70
     1
  9
$DIMTOH
 70
     1
  9
$DIMSE1
 70
     0
  9
$DIMSE2
 70
     0
  9
$DIMTAD
 70
     0
  9
$DIMZIN
 70
     0
  9
$DIMBLK
  1

  9
$DIMASO
 70
     1
  9
$DIMSHO
 70
     1
  9
$DIMPOST
  1

  9
$DIMAPOST
  1

  9
$DIMALT
 70
     0
  9
$DIMALTD
 70
     2
  9
$DIMALTF
 40
25.4
  9
$DIMLFAC
 40
1.0
  9
$DIMTOFL
 70
     0
  9
$DIMTVP
 40
0.0
  9
$DIMTIX
 70
     0
  9
$DIMSOXD
 70
     0
  9
$DIMSAH
 70
     0
  9
$DIMBLK1
  1

  9
$DIMBLK2
  1

  9
$DIMSTYLE
  2
Standard
  9
$DIMCLRD
 70
     0
  9
$DIMCLRE
 70
     0
  9
$DIMCLRT
 70
     0
  9
$DIMTFAC
 40
1.0
  9
$DIMGAP
 40
0.09
  9
$DIMJUST
 70
     0
  9
$DIMSD1
 70
     0
  9
$DIMSD2
 70
     0
  9
$DIMTOLJ
 70
     1
  9
$DIMTZIN
 70
     0
  9
$DIMALTZ
 70
     0
  9
$DIMALTTZ
 70
     0
  9
$DIMUPT
 70
     0
  9
$DIMDEC
 70
     4
  9
$DIMTDEC
 70
     4
  9
$DIMALTU
 70
     2
  9
$DIMALTTD
 70
     2
  9
$DIMTXSTY
  7
Standard
  9
$DIMAUNIT
 70
     0
  9
$DIMADEC
 70
     0
  9
$DIMALTRND
 40
0.0
  9
$DIMAZIN
 70
     0
  9
$DIMDSEP
 70
    46
  9
$DIMATFIT
 70
     3
  9
$DIMFRAC
 70
     0
  9
$DIMLDRBLK
  1

  9
$DIMLUNIT
 70
     2
  9
$DIMLWD
 70
    -2
  9
$DIMLWE
 70
    -2
  9
$DIMTMOVE
 70
     0
  9
$DIMFXL
 40
1.0
  9
$DIMFXLON
 70
     0
  9
$DIMJOGANG
 40
0.7853981633974483
  9
$DIMTFILL
 70
     0
  9
$DIMTFILLCLR
 70
     0
  9
$DIMARCSYM
 70
     0
  9
$DIMLTYPE
  6

  9
$DIMLTEX1
  6

  9
$DIMLTEX2
  6

  9
$DIMTXTDIRECTION
 70
     0
  9
$LUNITS
 70
     2
  9
$LUPREC
 70
     4
  9
$SKETCHINC
 40
0.1
  9
$FILLETRAD
 40
0.5
  9
$AUNITS
 70
     0
  9
$AUPREC
 70
     0
  9
$MENU
  1
.
  9
$ELEVATION
 40
0.0
  9
$PELEVATION
 40
0.0
  9
$THICKNESS
 40
0.0
  9
$LIMCHECK
 70
     0
  9
$CHAMFERA
 40
0.5
  9
$CHAMFERB
 40
0.5
  9
$CHAMFERC
 40
1.0
  9
$CHAMFERD
 40
0.0
  9
$SKPOLY
 70
     0
  9
$TDCREATE
 40
2458164.578840556
  9
$TDUCREATE
 40
2458164.537173889
  9
$TDUPDATE
 40
2458164.578840579
  9
$TDUUPDATE
 40
2458164.537173912
  9
$TDINDWG
 40
0.0000000116
  9
$TDUSRTIMER
 40
0.0000000116
  9
$USRTIMER
 70
     1
  9
$ANGBASE
 50
0.0
  9
$ANGDIR
 70
     0
  9
$PDMODE
 70
     0
  9
$PDSIZE
 40
0.0
  9
$PLINEWID
 40
0.0
  9
$SPLFRAME
 70
     0
  9
$SPLINETYPE
 70
     6
  9
$SPLINESEGS
 70
     8
  9
$HANDSEED
  5
45
  9
$SURFTAB1
 70
     6
  9
$SURFTAB2
 70
     6
  9
$SURFTYPE
 70
     6
  9
$SURFU
 70
     6
  9
$SURFV
 70
     6
  9
$UCSBASE
  2

  9
$UCSNAME
  2

  9
$UCSORG
 10
0.0
 20
0.0
 30
0.0
  9
$UCSXDIR
 10
1.0
 20
0.0
 30
0.0
  9
$UCSYDIR
 10
0.0
 20
1.0
 30
0.0
  9
$UCSORTHOREF
  2

  9
$UCSORTHOVIEW
 70
     0
  9
$UCSORGTOP
 10
0.0
 20
0.0
 30
0.0
  9
$UCSORGBOTTOM
 10
0.0
 20
0.0
 30
0.0
  9
$UCSORGLEFT
 10
0.0
 20
0.0
 30
0.0
  9
$UCSORGRIGHT
 10
0.0
 20
0.0
 30
0.0
  9
$UCSORGFRONT
 10
0.0
 20
0.0
 30
0.0
  9
$UCSORGBACK
 10
0.0
 20
0.0
 30
0.0
  9
$PUCSBASE
  2

  9
$PUCSNAME
  2

  9
$PUCSORG
 10
0.0
 20
0.0
 30
0.0
  9
$PUCSXDIR
 10
1.0
 20
0.0
 30
0.0
  9
$PUCSYDIR
 10
0.0
 20
1.0
 30
0.0
  9
$PUCSORTHOREF
  2

  9
$PUCSORTHOVIEW
 70
     0
  9
$PUCSORGTOP
 10
0.0
 20
0.0
 30
0.0
  9
$PUCSORGBOTTOM
 10
0.0
 20
0.0
 30
0.0
  9
$PUCSORGLEFT
 10
0.0
 20
0.0
 30
0.0
  9
$PUCSORGRIGHT
 10
0.0
 20
0.0
 30
0.0
  9
$PUCSORGFRONT
 10
0.0
 20
0.0
 30
0.0
  9
$PUCSORGBACK
 10
0.0
 20
0.0
 30
0.0
  9
$USERI1
 70
     0
  9
$USERI2
 70
     0
  9
$USERI3
 70
     0
  9
$USERI4
 70
     0
  9
$USERI5
 70
     0
  9
$USERR1
 40
0.0
  9
$USERR2
 40
0.0
  9
$USERR3
 40
0.0
  9
$USERR4
 40
0.0
  9
$USERR5
 40
0.0
  9
$WORLDVIEW
 70
     1
  9
$SHADEDGE
 70
     3
  9
$SHADEDIF
 70
    70
  9
$TILEMODE
 70
     1
  9
$MAXACTVP
 70
    64
  9
$PINSBASE
 10
0.0
 20
0.0
 30
0.0
  9
$PLIMCHECK
 70
     0
  9
$PEXTMIN
 10
1.000000000000000E+20
 20
1.000000000000000E+20
 30
1.000000000000000E+20
  9
$PEXTMAX
 10
-1.000000000000000E+20
 20
-1.000000000000000E+20
 30
-1.000000000000000E+20
  9
$PLIMMIN
 10
0.0
 20
0.0
  9
$PLIMMAX
 10
12.0
 20
9.0
  9
$UNITMODE
 70
     0
  9
$VISRETAIN
 70
     1
  9
$PLINEGEN
 70
     0
  9
$PSLTSCALE
 70
     1
  9
$TREEDEPTH
 70
  3020
  9
$CMLSTYLE
  2
Standard
  9
$CMLJUST
 70
     0
  9
$CMLSCALE
 40
1.0
  9
$PROXYGRAPHICS
 70
     1
  9
$MEASUREMENT
 70
     0
  9
$CELWEIGHT
370
    -1
  9
$ENDCAPS
280
     0
  9
$JOINSTYLE
280
     0
  9
$LWDISPLAY
290
     1
  9
$INSUNITS
 70
     1
  9
$HYPERLINKBASE
  1

  9
$STYLESHEET
  1

  9
$XEDIT
290
     1
  9
$CEPSNTYPE
380
     0
  9
$PSTYLEMODE
290
     1
  9
$FINGERPRINTGUID
  2
{526C1122-F4F1-447E-AFD8-03B5D2A9CD70}
  9
$VERSIONGUID
  2
{FAEB1C32-E019-11D5-929B-00C0DF256EC4}
  9
$EXTNAMES
290
     1
  9
$PSVPSCALE
 40
0.0
  9
$OLESTARTUP
290
     0
  9
$SORTENTS
280
   127
  9
$INDEXCTL
280
     0
  9
$HIDETEXT
280
     1
  9
$XCLIPFRAME
280
     2
  9
$HALOGAP
280
     0
  9
$OBSCOLOR
 70
   257
  9
$OBSLTYPE
280
     0
  9
$INTERSECTIONDISPLAY
280
     0
  9
$INTERSECTIONCOLOR
 70
   257
  9
$DIMASSOC
280
     2
  9
$PROJECTNAME
  1

  9
$CAMERADISPLAY
290
     0
  9
$LENSLENGTH
 40
50.0
  9
$CAMERAHEIGHT
 40
0.0
  9
$STEPSPERSEC
 40
2.0
  9
$STEPSIZE
 40
6.0
  9
$3DDWFPREC
 40
2.0
  9
$PSOLWIDTH
 40
0.25
  9
$PSOLHEIGHT
 40
4.0
  9
$LOFTANG1
 40
1.570796326794897
  9
$LOFTANG2
 40
1.570796326794897
  9
$LOFTMAG1
 40
0.0
  9
$LOFTMAG2
 40
0.0
  9
$LOFTPARAM
 70
     7
  9
$LOFTNORMALS
280
     1
  9
$LATITUDE
 40
37.795
  9
$LONGITUDE
 40
-122.394
  9
$NORTHDIRECTION
 40
0.0
  9
$TIMEZONE
 70
 -8000
  9
$LIGHTGLYPHDISPLAY
280
     1
  9
$TILEMODELIGHTSYNCH
280
     1
  9
$CMATERIAL
347
3C
  9
$SOLIDHIST
280
     1
  9
$SHOWHIST
280
     1
  9
$DWFFRAME
280
     2
  9
$DGNFRAME
280
     2
  9
$REALWORLDSCALE
290
     1
  9
$INTERFERECOLOR
 62
   256
  9
$CSHADOW
280
     0
  9
$SHADOWPLANELOCATION
 40
0.0
  0
ENDSEC
  0
SECTION
  2
CLASSES
  0
CLASS
  1
ACDBDICTIONARYWDFLT
  2
AcDbDictionaryWithDefault
  3
ObjectDBX Classes
 90
        0
 91
        4
280
     0
281
     0
  0
CLASS
  1
VISUALSTYLE
  2
AcDbVisualStyle
  3
ObjectDBX Classes
 90
     4095
 91
        4
280
     0
281
     0
  0
CLASS
  1
MATERIAL
  2
AcDbMaterial
  3
ObjectDBX Classes
 90
     1153
 91
        4
280
     0
281
     0
  0
CLASS
  1
SUN
  2
AcDbSun
  3
SCENEOE
 90
     1024
 91
        4
280
     0
281
     0
  0
ENDSEC
  0
SECTION
  2
TABLES
  0
TABLE
  2
VPORT
  5
8
330
0
100
AcDbSymbolTable
 70
     1
  0
VPORT
  5
29
330
8
100
AcDbSymbolTableRecord
100
AcDbViewportTableRecord
  2
*Active
 70
     0
 10
0.0
 20
0.0
 11
1.0
 21
1.0
 12
0.0
 22
0.0
 13
0.0
 23
0.0
 14
0.5
 24
0.5
 15
0.5
 25
0.5
 16
0.0
 26
0.0
 36
1.0
 17
6.0
 27
-6.0
 37
0.0
 40
12.0
 41
1.0
 42
50.0
 43
0.0
 44
0.0
 50
0.0
 51
0.0
 71
     0
 72
   100
 73
     1
 74
     3
 75
     0
 76
     0
 77
     0
 78
     0
281
     0
 65
     1
110
0.0
120
0.0
130
0.0
111
1.0
121
0.0
131
0.0
112
0.0
122
1.0
132
0.0
 79
     0
146
0.0
 60
     3
 61
     5
292
     1
282
     1
141
0.0
142
0.0
 63
   250
361
3F
  0
ENDTAB
  0
TABLE
  2
LTYPE
  5
5
330
0
100
AcDbSymbolTable
 70
     1
  0
LTYPE
  5
14
330
5
100
AcDbSymbolTableRecord
100
AcDbLinetypeTableRecord
  2
ByBlock
 70
     0
  3

 72
    65
 73
     0
 40
0.0
  0
LTYPE
  5
15
330
5
100
AcDbSymbolTableRecord
100
AcDbLinetypeTableRecord
  2
ByLayer
 70
     0
  3

 72
    65
 73
     0
 40
0.0
  0
LTYPE
  5
16
330
5
100
AcDbSymbolTableRecord
100
AcDbLinetypeTableRecord
  2
Continuous
 70
     0
  3
Solid line
 72
    65
 73
     0
 40
0.0
  0
ENDTAB
  0
TABLE
  2
LAYER
  5
2
330
0
100
AcDbSymbolTable
 70
     2
  0
LAYER
  5
10
330
2
100
AcDbSymbolTableRecord
100
AcDbLayerTableRecord
  2
0
 70
     0
 62
     7
  6
Continuous
370
    -3
390
F
347
3E
  0
LAYER
  5
40
330
2
100
AcDbSymbolTableRecord
100
AcDbLayerTableRecord
  2
Layer 1
 70
     0
 62
     7
  6
Continuous
370
    -3
390
F
347
3E
  0
ENDTAB
  0
TABLE
  2
STYLE
  5
3
330
0
100
AcDbSymbolTable
 70
     1
  0
STYLE
  5
11
330
3
100
AcDbSymbolTableRecord
100
AcDbTextStyleTableRecord
  2
Standard
 70
     0
 40
0.0
 41
1.0
 50
0.0
 71
     0
 42
0.2
  3
txt
  4

  0
ENDTAB
  0
TABLE
  2
VIEW
  5
6
330
0
100
AcDbSymbolTable
 70
     0
  0
ENDTAB
  0
TABLE
  2
UCS
  5
7
330
0
100
AcDbSymbolTable
 70
     0
  0
ENDTAB
  0
TABLE
  2
APPID
  5
9
330
0
100
AcDbSymbolTable
 70
     1
  0
APPID
  5
12
330
9
100
AcDbSymbolTableRecord
100
AcDbRegAppTableRecord
  2
ACAD
 70
     0
  0
ENDTAB
  0
TABLE
  2
DIMSTYLE
  5
A
330
0
100
AcDbSymbolTable
 70
     1
100
AcDbDimStyleTable
  0
DIMSTYLE
105
27
330
A
100
AcDbSymbolTableRecord
100
AcDbDimStyleTableRecord
  2
Standard
 70
     0
178
     0
340
11
  0
ENDTAB
  0
TABLE
  2
BLOCK_RECORD
  5
1
330
0
100
AcDbSymbolTable
 70
     1
  0
BLOCK_RECORD
  5
1F
330
1
100
AcDbSymbolTableRecord
100
AcDbBlockTableRecord
  2
*Model_Space
340
22
 70
     0
280
     1
281
     0
  0
BLOCK_RECORD
  5
1B
330
1
100
AcDbSymbolTableRecord
100
AcDbBlockTableRecord
  2
*Paper_Space
340
1E
 70
     0
280
     1
281
     0
  0
BLOCK_RECORD
  5
23
330
1
100
AcDbSymbolTableRecord
100
AcDbBlockTableRecord
  2
*Paper_Space0
340
26
 70
     0
280
     1
281
     0
  0
ENDTAB
  0
ENDSEC
  0
SECTION
  2
BLOCKS
  0
BLOCK
  5
20
330
1F
100
AcDbEntity
  8
0
100
AcDbBlockBegin
  2
*Model_Space
 70
     0
 10
0.0
 20
0.0
 30
0.0
  3
*Model_Space
  1

  0
ENDBLK
  5
21
330
1F
100
AcDbEntity
  8
0
100
AcDbBlockEnd
  0
BLOCK
  5
1C
330
1B
100
AcDbEntity
 67
     1
  8
0
100
AcDbBlockBegin
  2
*Paper_Space
 70
     0
 10
0.0
 20
0.0
 30
0.0
  3
*Paper_Space
  1

  0
ENDBLK
  5
1D
330
1B
100
AcDbEntity
 67
     1
  8
0
100
AcDbBlockEnd
  0
BLOCK
  5
24
330
23
100
AcDbEntity
  8
0
100
AcDbBlockBegin
  2
*Paper_Space0
 70
     0
 10
0.0
 20
0.0
 30
0.0
  3
*Paper_Space0
  1

  0
ENDBLK
  5
25
330
23
100
AcDbEntity
  8
0
100
AcDbBlockEnd
  0
ENDSEC
  0
SECTION
  2
ENTITIES
  0
SPLINE
  5
41
330
1F
100
AcDbEntity
  8
Layer 1
 62
     7
420
 16777215
370
    18
100
AcDbSpline
210
0.0
220
0.0
230
1.0
 70
    11
 71
     3
 72
   254
 73
   250
 74
     0
 42
0.0000000001
 43
0.0000000001
 12
1.0
 22
0.0
 32
0.0
 13
1.0
 23
0.0
 33
0.0
 40
0.0
 40
0.0
 40
0.0
 40
0.0
 40
1.0
 40
1.0
 40
1.0
 40
2.0
 40
2.0
 40
2.0
 40
3.0
 40
3.0
 40
3.0
 40
4.0
 40
4.0
 40
4.0
 40
5.0
 40
5.0
 40
5.0
 40
6.0
 40
6.0
 40
6.0
 40
7.0
 40
7.0
 40
7.0
 40
8.0
 40
8.0
 40
8.0
 40
9.0
 40
9.0
 40
9.0
 40
10.0
 40
10.0
 40
10.0
 40
11.0
 40
11.0
 40
11.0
 40
12.0
 40
12.0
 40
12.0
 40
13.0
 40
13.0
 40
13.0
 40
14.0
 40
14.0
 40
14.0
 40
15.0
 40
15.0
 40
15.0
 40
16.0
 40
16.0
 40
16.0
 40
17.0
 40
17.0
 40
17.0
 40
18.0
 40
18.0
 40
18.0
 40
19.0
 40
19.0
 40
19.0
 40
20.0
 40
20.0
 40
20.0
 40
21.0
 40
21.0
 40
21.0
 40
22.0
 40
22.0
 40
22.0
 40
23.0
 40
23.0
 40
23.0
 40
24.0
 40
24.0
 40
24.0
 40
25.0
 40
25.0
 40
25.0
 40
26.0
 40
26.0
 40
26.0
 40
27.0
 40
27.0
 40
27.0
 40
28.0
 40
28.0
 40
28.0
 40
29.0
 40
29.0
 40
29.0
 40
30.0
 40
30.0
 40
30.0
 40
31.0
 40
31.0
 40
31.0
 40
32.0
 40
32.0
 40
32.0
 40
33.0
 40
33.0
 40
33.0
 40
34.0
 40
34.0
 40
34.0
 40
35.0
 40
35.0
 40
35.0
 40
36.0
 40
36.0
 40
36.0
 40
37.0
 40
37.0
 40
37.0
 40
38.0
 40
38.0
 40
38.0
 40
39.0
 40
39.0
 40
39.0
 40
40.0
 40
40.0
 40
40.0
 40
41.0
 40
41.0
 40
41.0
 40
42.0
 40
42.0
 40
42.0
 40
43.0
 40
43.0
 40
43.0
 40
44.0
 40
44.0
 40
44.0
 40
45.0
 40
45.0
 40
45.0
 40
46.0
 40
46.0
 40
46.0
 40
47.0
 40
47.0
 40
47.0
 40
48.0
 40
48.0
 40
48.0
 40
49.0
 40
49.0
 40
49.0
 40
50.0
 40
50.0
 40
50.0
 40
51.0
 40
51.0
 40
51.0
 40
52.0
 40
52.0
 40
52.0
 40
53.0
 40
53.0
 40
53.0
 40
54.0
 40
54.0
 40
54.0
 40
55.0
 40
55.0
 40
55.0
 40
56.0
 40
56.0
 40
56.0
 40
57.0
 40
57.0
 40
57.0
 40
58.0
 40
58.0
 40
58.0
 40
59.0
 40
59.0
 40
59.0
 40
60.0
 40
60.0
 40
60.0
 40
61.0
 40
61.0
 40
61.0
 40
62.0
 40
62.0
 40
62.0
 40
63.0
 40
63.0
 40
63.0
 40
64.0
 40
64.0
 40
64.0
 40
65.0
 40
65.0
 40
65.0
 40
66.0
 40
66.0
 40
66.0
 40
67.0
 40
67.0
 40
67.0
 40
68.0
 40
68.0
 40
68.0
 40
69.0
 40
69.0
 40
69.0
 40
70.0
 40
70.0
 40
70.0
 40
71.0
 40
71.0
 40
71.0
 40
72.0
 40
72.0
 40
72.0
 40
73.0
 40
73.0
 40
73.0
 40
74.0
 40
74.0
 40
74.0
 40
75.0
 40
75.0
 40
75.0
 40
76.0
 40
76.0
 40
76.0
 40
77.0
 40
77.0
 40
77.0
 40
78.0
 40
78.0
 40
78.0
 40
79.0
 40
79.0
 40
79.0
 40
80.0
 40
80.0
 40
80.0
 40
81.0
 40
81.0
 40
81.0
 40
82.0
 40
82.0
 40
82.0
 40
83.0
 40
83.0
 40
83.0
 40
83.0
 10
7.941979239276507
 20
-6.095855960803243
 30
0.0
 10
7.941979239276507
 20
-6.095855960803243
 30
0.0
 10
8.631249056882123
 20
-5.96770756064604
 30
0.0
 10
8.810882685888044
 20
-5.982072264525527
 30
0.0
 10
9.025038430660338
 20
-5.999202483782761
 30
0.0
 10
9.241883483049277
 20
-6.151323274709512
 30
0.0
 10
9.393703115594917
 20
-6.301183541446335
 30
0.0
 10
9.545514484648391
 20
-6.451035544690992
 30
0.0
 10
9.881173863711739
 20
-6.544825262593551
 30
0.0
 10
10.0404095213922
 20
-6.595184820176276
 30
0.0
 10
10.19967180588077
 20
-6.645504896629795
 30
0.0
 10
10.18586351047371
 20
-6.521081495107232
 30
0.0
 10
10.17203685175072
 20
-6.491550528608311
 30
0.0
 10
10.07972721711144
 20
-6.294365242244718
 30
0.0
 10
9.883684128998185
 20
-6.165444664653023
 30
0.0
 10
9.83407287653924
 20
-6.108220899578883
 30
0.0
 10
9.784515795862262
 20
-6.050987952846804
 30
0.0
 10
9.736526942364991
 20
-6.025433562410626
 30
0.0
 10
9.824093332501787
 20
-5.930380448372691
 30
0.0
 10
10.28746222847182
 20
-5.427590103948483
 30
0.0
 10
10.92359687329319
 20
-5.270394610666876
 30
0.0
 10
11.2020058604743
 20
-5.226512712775389
 30
0.0
 10
11.48044973795567
 20
-5.182613369733783
 30
0.0
 10
11.19658960044328
 20
-5.058530607721574
 30
0.0
 10
11.16045518553902
 20
-5.045421954651109
 30
0.0
 10
10.51611581116403
 20
-4.811966364845476
 30
0.0
 10
9.900165205037611
 20
-5.151549066355427
 30
0.0
 10
9.690816058207727
 20
-5.250744944465219
 30
0.0
 10
9.481502719843926
 20
-5.349936231746028
 30
0.0
 10
9.15040754295281
 20
-5.64298261804807
 30
0.0
 10
8.786780833741254
 20
-5.689559332551008
 30
0.0
 10
8.423146779203307
 20
-5.736122274566999
 30
0.0
 10
8.013334494117922
 20
-5.686622120169381
 30
0.0
 10
8.013334494117922
 20
-5.686622120169381
 30
0.0
 10
8.24059797379487
 20
-5.646268733432192
 30
0.0
 10
8.081747945748727
 20
-5.581360838810761
 30
0.0
 10
8.067589829173382
 20
-5.563966187804251
 30
0.0
 10
8.053440894255976
 20
-5.546566027802972
 30
0.0
 10
8.12146963441824
 20
-5.455888891949093
 30
0.0
 10
8.142469004340102
 20
-5.395625079924167
 30
0.0
 10
8.163495919235856
 20
-5.335347495412305
 30
0.0
 10
7.80420937974231
 20
-5.49634511325544
 30
0.0
 10
7.772207629086147
 20
-5.51012219102544
 30
0.0
 10
7.740251786719808
 20
-5.523890087137475
 30
0.0
 10
7.62391191686581
 20
-5.601158329705577
 30
0.0
 10
7.519371395657117
 20
-5.600893897956312
 30
0.0
 10
7.414777620832233
 20
-5.600620284549083
 30
0.0
 10
5.778398473494286
 20
-5.480532461915559
 30
0.0
 10
5.778398473494286
 20
-5.480532461915559
 30
0.0
 10
5.662147668659271
 20
-5.460510938566497
 30
0.0
 10
5.65920678368876
 20
-5.356876646998507
 30
0.0
 10
5.633141893728432
 20
-5.265149129473937
 30
0.0
 10
5.599701378114623
 20
-5.147536681826611
 30
0.0
 10
5.628860676226787
 20
-5.053415506071675
 30
0.0
 10
5.652572117813975
 20
-4.983481571882572
 30
0.0
 10
5.676265576277779
 20
-4.913561410180401
 30
0.0
 10
5.937601991350081
 20
-4.684364273336933
 30
0.0
 10
5.962856140932963
 20
-4.648520916990037
 30
0.0
 10
5.988079072879562
 20
-4.612695923959058
 30
0.0
 10
5.904256046810878
 20
-4.58122762763042
 30
0.0
 10
5.701192668150699
 20
-4.607728647002331
 30
0.0
 10
5.452238445996563
 20
-4.640209680204028
 30
0.0
 10
5.132647153399817
 20
-4.865469722113946
 30
0.0
 10
5.033213295898892
 20
-4.948045881149128
 30
0.0
 10
4.933788797017554
 20
-5.030618367521103
 30
0.0
 10
4.765170407326713
 20
-5.155180412078872
 30
0.0
 10
4.621783213074435
 20
-5.243908281947697
 30
0.0
 10
4.47842264562957
 20
-5.332644415308676
 30
0.0
 10
4.40157600159662
 20
-5.389025304182042
 30
0.0
 10
3.461554052172548
 20
-5.430428154424122
 30
0.0
 10
2.521568069707061
 20
-5.47184018632418
 30
0.0
 10
2.142900896156044
 20
-5.629909773443652
 30
0.0
 10
2.018047796194979
 20
-5.660740862709821
 30
0.0
 10
1.893198368896997
 20
-5.691585724462925
 30
0.0
 10
0.8161467635254667
 20
-6.048065431117922
 30
0.0
 10
0.7450880780312698
 20
-6.068136535419954
 30
0.0
 10
0.6740468376867612
 20
-6.08819019457188
 30
0.0
 10
0.6612512794759924
 20
-6.112197475641652
 30
0.0
 10
0.6939655259634617
 20
-6.164122505906688
 30
0.0
 10
0.7266843632797998
 20
-6.216052127000719
 30
0.0
 10
0.91976360732575
 20
-6.274535615547064
 30
0.0
 10
1.023276771544122
 20
-6.316112917290411
 30
0.0
 10
1.126808152777105
 20
-6.357713173178657
 30
0.0
 10
1.219539223174201
 20
-6.440396757611956
 30
0.0
 10
1.281798207901185
 20
-6.478496047319797
 30
0.0
 10
1.344060865291251
 20
-6.516607273182999
 30
0.0
 10
1.41946890205155
 20
-6.516078409684446
 30
0.0
 10
1.41946890205155
 20
-6.516078409684446
 30
0.0
 10
1.431515236991648
 20
-6.52127430992439
 30
0.0
 10
1.515369480696614
 20
-6.569639611398088
 30
0.0
 10
1.515369480696614
 20
-6.569639611398088
 30
0.0
 10
1.515369480696614
 20
-6.569639611398088
 30
0.0
 10
1.503915362680017
 20
-6.519476541295691
 30
0.0
 10
1.503915362680017
 20
-6.519476541295691
 30
0.0
 10
1.503915362680017
 20
-6.519476541295691
 30
0.0
 10
1.566716065212997
 20
-6.559417671590457
 30
0.0
 10
1.566716065212997
 20
-6.559417671590457
 30
0.0
 10
1.566716065212997
 20
-6.559417671590457
 30
0.0
 10
1.537579910742415
 20
-6.487520698929352
 30
0.0
 10
1.537579910742415
 20
-6.487520698929352
 30
0.0
 10
1.537579910742415
 20
-6.487520698929352
 30
0.0
 10
1.613014662358586
 20
-6.533258209894686
 30
0.0
 10
1.613014662358586
 20
-6.533258209894686
 30
0.0
 10
1.613014662358586
 20
-6.533258209894686
 30
0.0
 10
1.594520879312906
 20
-6.472569287106175
 30
0.0
 10
1.594520879312906
 20
-6.472569287106175
 30
0.0
 10
1.594520879312906
 20
-6.472569287106175
 30
0.0
 10
1.675752931203912
 20
-6.505677427546591
 30
0.0
 10
1.675752931203912
 20
-6.505677427546591
 30
0.0
 10
1.675752931203912
 20
-6.505677427546591
 30
0.0
 10
1.658806255900622
 20
-6.455980785668619
 30
0.0
 10
1.658806255900622
 20
-6.455980785668619
 30
0.0
 10
1.658806255900622
 20
-6.455980785668619
 30
0.0
 10
1.732411933248778
 20
-6.501674224675727
 30
0.0
 10
1.732411933248778
 20
-6.501674224675727
 30
0.0
 10
1.732411933248778
 20
-6.501674224675727
 30
0.0
 10
1.715636126412606
 20
-6.444691937205966
 30
0.0
 10
1.721060649798738
 20
-6.446651303014782
 30
0.0
 10
1.726489764013738
 20
-6.448615259652544
 30
0.0
 10
1.801781193720886
 20
-6.499817693436095
 30
0.0
 10
1.801781193720886
 20
-6.499817693436095
 30
0.0
 10
1.801781193720886
 20
-6.499817693436095
 30
0.0
 10
1.788564197420379
 20
-6.446575095253693
 30
0.0
 10
1.788564197420379
 20
-6.446575095253693
 30
0.0
 10
1.788564197420379
 20
-6.446575095253693
 30
0.0
 10
1.865967408405128
 20
-6.486875228374729
 30
0.0
 10
1.865967408405128
 20
-6.486875228374729
 30
0.0
 10
1.865967408405128
 20
-6.486875228374729
 30
0.0
 10
1.86686445636523
 20
-6.452237423718038
 30
0.0
 10
1.86686445636523
 20
-6.452237423718038
 30
0.0
 10
1.86686445636523
 20
-6.452237423718038
 30
0.0
 10
1.902905217447824
 20
-6.469596266258501
 30
0.0
 10
1.902905217447824
 20
-6.469596266258501
 30
0.0
 10
1.902905217447824
 20
-6.469596266258501
 30
0.0
 10
1.911082401821027
 20
-6.435133831268886
 30
0.0
 10
1.911082401821027
 20
-6.435133831268886
 30
0.0
 10
1.980038487695348
 20
-6.449695022628752
 30
0.0
 10
2.028758199935535
 20
-6.471022177739794
 30
0.0
 10
2.017617176447503
 20
-6.478034209924367
 30
0.0
 10
2.006494614263513
 20
-6.485018697135072
 30
0.0
 10
1.933139498182754
 20
-6.499548670857823
 30
0.0
 10
1.933139498182754
 20
-6.499548670857823
 30
0.0
 10
1.933139498182754
 20
-6.499548670857823
 30
0.0
 10
1.896776460913884
 20
-6.494967023535461
 30
0.0
 10
1.896776460913884
 20
-6.494967023535461
 30
0.0
 10
1.896776460913884
 20
-6.494967023535461
 30
0.0
 10
1.881668043121256
 20
-6.514657089032148
 30
0.0
 10
1.881668043121256
 20
-6.514657089032148
 30
0.0
 10
1.881668043121256
 20
-6.514657089032148
 30
0.0
 10
1.834355879010875
 20
-6.509775201494449
 30
0.0
 10
1.834355879010875
 20
-6.509775201494449
 30
0.0
 10
1.834355879010875
 20
-6.509775201494449
 30
0.0
 10
1.830025809226009
 20
-6.537041971140272
 30
0.0
 10
1.830025809226009
 20
-6.537041971140272
 30
0.0
 10
1.830025809226009
 20
-6.537041971140272
 30
0.0
 10
1.777477345712934
 20
-6.522897627051836
 30
0.0
 10
1.777477345712934
 20
-6.522897627051836
 30
0.0
 10
1.777477345712934
 20
-6.522897627051836
 30
0.0
 10
1.767605227322999
 20
-6.551832703949129
 30
0.0
 10
1.767605227322999
 20
-6.551832703949129
 30
0.0
 10
1.767605227322999
 20
-6.551832703949129
 30
0.0
 10
1.718567829725392
 20
-6.54327815322717
 30
0.0
 10
1.718567829725392
 20
-6.54327815322717
 30
0.0
 10
1.718567829725392
 20
-6.54327815322717
 30
0.0
 10
1.72491152792539
 20
-6.579923986479848
 30
0.0
 10
1.72491152792539
 20
-6.579923986479848
 30
0.0
 10
1.72491152792539
 20
-6.579923986479848
 30
0.0
 10
1.668826198979989
 20
-6.562053725590961
 30
0.0
 10
1.668826198979989
 20
-6.562053725590961
 30
0.0
 10
1.668826198979989
 20
-6.562053725590961
 30
0.0
 10
1.680639319813773
 20
-6.598843710873602
 30
0.0
 10
1.680639319813773
 20
-6.598843710873602
 30
0.0
 10
1.680639319813773
 20
-6.598843710873602
 30
0.0
 10
1.631848908809072
 20
-6.581183709952029
 30
0.0
 10
1.631848908809072
 20
-6.581183709952029
 30
0.0
 10
1.631848908809072
 20
-6.581183709952029
 30
0.0
 10
1.634180131706393
 20
-6.632306263311319
 30
0.0
 10
1.634180131706393
 20
-6.632306263311319
 30
0.0
 10
1.634180131706393
 20
-6.632306263311319
 30
0.0
 10
1.556064424081897
 20
-6.61933625327606
 30
0.0
 10
1.556064424081897
 20
-6.61933625327606
 30
0.0
 10
1.556064424081897
 20
-6.61933625327606
 30
0.0
 10
1.618784328026853
 20
-6.662935356102328
 30
0.0
 10
1.618784328026853
 20
-6.662935356102328
 30
0.0
 10
1.618784328026853
 20
-6.662935356102328
 30
0.0
 10
1.59629661191765
 20
-6.686055689013124
 30
0.0
 10
1.619631795035224
 20
-6.701254087435447
 30
0.0
 10
1.642949533003111
 20
-6.71646534017888
 30
0.0
 10
1.776348001812304
 20
-6.778271670741206
 30
0.0
 10
1.939030449781512
 20
-6.766045375000759
 30
0.0
 10
2.101713815916494
 20
-6.753851215063175
 30
0.0
 10
2.153939085077519
 20
-6.709588278366355
 30
0.0
 10
2.367058322379408
 20
-6.722379246071366
 30
0.0
 10
2.580169081994919
 20
-6.735178477268542
 30
0.0
 10
2.998445008821919
 20
-6.786117397468615
 30
0.0
 10
3.32919586518402
 20
-6.765463257886065
 30
0.0
 10
3.32919586518402
 20
-6.765463257886065
 30
0.0
 10
3.796110705663207
 20
-7.212907486289092
 30
0.0
 10
4.550185564271563
 20
-7.3807729842868
 30
0.0
 10
4.633627551544501
 20
-7.399342887512274
 30
0.0
 10
5.067582077109086
 20
-7.428994133730485
 30
0.0
 10
5.384667872273503
 20
-7.351242017787879
 30
0.0
 10
5.425057066456424
 20
-7.341343272340484
 30
0.0
 10
5.425626329235607
 20
-7.319464299585964
 30
0.0
 10
5.349586594423562
 20
-7.297447601962049
 30
0.0
 10
5.273523905467211
 20
-7.275407950193236
 30
0.0
 10
4.499852634768419
 20
-7.069344918747497
 30
0.0
 10
4.333457281186333
 20
-6.731192719547835
 30
0.0
 10
4.333457281186333
 20
-6.731192719547835
 30
0.0
 10
5.16826629943081
 20
-6.688889148659781
 30
0.0
 10
5.768486148834856
 20
-6.547506306718055
 30
0.0
 10
5.768486148834856
 20
-6.547506306718055
 30
0.0
 10
5.872308468743754
 20
-6.553831550887177
 30
0.0
 10
5.93511835293446
 20
-6.593750645202842
 30
0.0
 10
5.997968636419172
 20
-6.633696366326553
 30
0.0
 10
6.301887016234812
 20
-6.802090727822789
 30
0.0
 10
6.41282072307912
 20
-6.815903614058849
 30
0.0
 10
6.41282072307912
 20
-6.815903614058849
 30
0.0
 10
6.420971490152598
 20
-6.819104340023942
 30
0.0
 10
6.414290706481501
 20
-6.688225314789229
 30
0.0
 10
6.413080563992859
 20
-6.664487056297705
 30
0.0
 10
6.434044124919081
 20
-6.630360669989436
 30
0.0
 10
6.441709890956822
 20
-6.615960157643914
 30
0.0
 10
6.44937657516031
 20
-6.601569745122131
 30
0.0
 10
6.497015606285837
 20
-6.479925631464286
 30
0.0
 10
6.70517205048812
 20
-6.37465975927666
 30
0.0
 10
6.729183921780304
 20
-6.362518852955266
 30
0.0
 10
6.777208582530445
 20
-6.340040317935922
 30
0.0
 10
6.561950126074962
 20
-6.339954928516893
 30
0.0
 10
6.561950126074962
 20
-6.339954928516893
 30
0.0
 10
7.094119008032243
 20
-6.218701035322359
 30
0.0
 10
7.217156894260344
 20
-6.189017653301284
 30
0.0
 10
7.340105032969632
 20
-6.159365488917274
 30
0.0
 10
7.408178763255894
 20
-6.208564484933782
 30
0.0
 10
7.456884704239908
 20
-6.229891640044848
 30
0.0
 10
7.505590645223921
 20
-6.251205022668955
 30
0.0
 10
7.818071846931338
 20
-6.428911421668949
 30
0.0
 10
7.998503362014035
 20
-6.450027398646903
 30
0.0
 10
8.038529881727829
 20
-6.454711880538449
 30
0.0
 10
8.089288841431856
 20
-6.466951030600032
 30
0.0
 10
8.034360490847877
 20
-6.403504855925929
 30
0.0
 10
7.979458767071996
 20
-6.340066944744017
 30
0.0
 10
8.005927650641045
 20
-6.273028905475712
 30
0.0
 10
8.039363576270665
 20
-6.210254828164326
 30
0.0
 10
8.0642908594681
 20
-6.16347244452307
 30
0.0
 10
8.150771977633944
 20
-6.123885726225605
 30
0.0
 10
8.060157277054207
 20
-6.110453878794942
 30
0.0
 10
7.98566373152183
 20
-6.09940742610244
 30
0.0
 10
7.941979239276507
 20
-6.095855960803243
 30
0.0
 10
7.941979239276507
 20
-6.095855960803243
 30
0.0
  0
HATCH
  5
42
330
1F
100
AcDbEntity
  8
Layer 1
 62
     7
420
 16777215
100
AcDbHatch
 10
0.0
 20
0.0
 30
0.0
210
0.0
220
0.0
230
1.0
  2
SOLID
 70
     1
 71
     0
 91
        1
 92
        1
 93
        1
 72
     4
 94
        3
 73
     0
 74
     1
 95
      254
 96
      250
 40
0.0
 40
0.0
 40
0.0
 40
0.0
 40
1.0
 40
1.0
 40
1.0
 40
2.0
 40
2.0
 40
2.0
 40
3.0
 40
3.0
 40
3.0
 40
4.0
 40
4.0
 40
4.0
 40
5.0
 40
5.0
 40
5.0
 40
6.0
 40
6.0
 40
6.0
 40
7.0
 40
7.0
 40
7.0
 40
8.0
 40
8.0
 40
8.0
 40
9.0
 40
9.0
 40
9.0
 40
10.0
 40
10.0
 40
10.0
 40
11.0
 40
11.0
 40
11.0
 40
12.0
 40
12.0
 40
12.0
 40
13.0
 40
13.0
 40
13.0
 40
14.0
 40
14.0
 40
14.0
 40
15.0
 40
15.0
 40
15.0
 40
16.0
 40
16.0
 40
16.0
 40
17.0
 40
17.0
 40
17.0
 40
18.0
 40
18.0
 40
18.0
 40
19.0
 40
19.0
 40
19.0
 40
20.0
 40
20.0
 40
20.0
 40
21.0
 40
21.0
 40
21.0
 40
22.0
 40
22.0
 40
22.0
 40
23.0
 40
23.0
 40
23.0
 40
24.0
 40
24.0
 40
24.0
 40
25.0
 40
25.0
 40
25.0
 40
26.0
 40
26.0
 40
26.0
 40
27.0
 40
27.0
 40
27.0
 40
28.0
 40
28.0
 40
28.0
 40
29.0
 40
29.0
 40
29.0
 40
30.0
 40
30.0
 40
30.0
 40
31.0
 40
31.0
 40
31.0
 40
32.0
 40
32.0
 40
32.0
 40
33.0
 40
33.0
 40
33.0
 40
34.0
 40
34.0
 40
34.0
 40
35.0
 40
35.0
 40
35.0
 40
36.0
 40
36.0
 40
36.0
 40
37.0
 40
37.0
 40
37.0
 40
38.0
 40
38.0
 40
38.0
 40
39.0
 40
39.0
 40
39.0
 40
40.0
 40
40.0
 40
40.0
 40
41.0
 40
41.0
 40
41.0
 40
42.0
 40
42.0
 40
42.0
 40
43.0
 40
43.0
 40
43.0
 40
44.0
 40
44.0
 40
44.0
 40
45.0
 40
45.0
 40
45.0
 40
46.0
 40
46.0
 40
46.0
 40
47.0
 40
47.0
 40
47.0
 40
48.0
 40
48.0
 40
48.0
 40
49.0
 40
49.0
 40
49.0
 40
50.0
 40
50.0
 40
50.0
 40
51.0
 40
51.0
 40
51.0
 40
52.0
 40
52.0
 40
52.0
 40
53.0
 40
53.0
 40
53.0
 40
54.0
 40
54.0
 40
54.0
 40
55.0
 40
55.0
 40
55.0
 40
56.0
 40
56.0
 40
56.0
 40
57.0
 40
57.0
 40
57.0
 40
58.0
 40
58.0
 40
58.0
 40
59.0
 40
59.0
 40
59.0
 40
60.0
 40
60.0
 40
60.0
 40
61.0
 40
61.0
 40
61.0
 40
62.0
 40
62.0
 40
62.0
 40
63.0
 40
63.0
 40
63.0
 40
64.0
 40
64.0
 40
64.0
 40
65.0
 40
65.0
 40
65.0
 40
66.0
 40
66.0
 40
66.0
 40
67.0
 40
67.0
 40
67.0
 40
68.0
 40
68.0
 40
68.0
 40
69.0
 40
69.0
 40
69.0
 40
70.0
 40
70.0
 40
70.0
 40
71.0
 40
71.0
 40
71.0
 40
72.0
 40
72.0
 40
72.0
 40
73.0
 40
73.0
 40
73.0
 40
74.0
 40
74.0
 40
74.0
 40
75.0
 40
75.0
 40
75.0
 40
76.0
 40
76.0
 40
76.0
 40
77.0
 40
77.0
 40
77.0
 40
78.0
 40
78.0
 40
78.0
 40
79.0
 40
79.0
 40
79.0
 40
80.0
 40
80.0
 40
80.0
 40
81.0
 40
81.0
 40
81.0
 40
82.0
 40
82.0
 40
82.0
 40
83.0
 40
83.0
 40
83.0
 40
83.0
 10
7.941979239276507
 20
-6.095855960803243
 10
7.941979239276507
 20
-6.095855960803243
 10
8.631249056882123
 20
-5.96770756064604
 10
8.810882685888044
 20
-5.982072264525527
 10
9.025038430660338
 20
-5.999202483782761
 10
9.241883483049277
 20
-6.151323274709512
 10
9.393703115594917
 20
-6.301183541446335
 10
9.545514484648391
 20
-6.451035544690992
 10
9.881173863711739
 20
-6.544825262593551
 10
10.0404095213922
 20
-6.595184820176276
 10
10.19967180588077
 20
-6.645504896629795
 10
10.18586351047371
 20
-6.521081495107232
 10
10.17203685175072
 20
-6.491550528608311
 10
10.07972721711144
 20
-6.294365242244718
 10
9.883684128998185
 20
-6.165444664653023
 10
9.83407287653924
 20
-6.108220899578883
 10
9.784515795862262
 20
-6.050987952846804
 10
9.736526942364991
 20
-6.025433562410626
 10
9.824093332501787
 20
-5.930380448372691
 10
10.28746222847182
 20
-5.427590103948483
 10
10.92359687329319
 20
-5.270394610666876
 10
11.2020058604743
 20
-5.226512712775389
 10
11.48044973795567
 20
-5.182613369733783
 10
11.19658960044328
 20
-5.058530607721574
 10
11.16045518553902
 20
-5.045421954651109
 10
10.51611581116403
 20
-4.811966364845476
 10
9.900165205037611
 20
-5.151549066355427
 10
9.690816058207727
 20
-5.250744944465219
 10
9.481502719843926
 20
-5.349936231746028
 10
9.15040754295281
 20
-5.64298261804807
 10
8.786780833741254
 20
-5.689559332551008
 10
8.423146779203307
 20
-5.736122274566999
 10
8.013334494117922
 20
-5.686622120169381
 10
8.013334494117922
 20
-5.686622120169381
 10
8.24059797379487
 20
-5.646268733432192
 10
8.081747945748727
 20
-5.581360838810761
 10
8.067589829173382
 20
-5.563966187804251
 10
8.053440894255976
 20
-5.546566027802972
 10
8.12146963441824
 20
-5.455888891949093
 10
8.142469004340102
 20
-5.395625079924167
 10
8.163495919235856
 20
-5.335347495412305
 10
7.80420937974231
 20
-5.49634511325544
 10
7.772207629086147
 20
-5.51012219102544
 10
7.740251786719808
 20
-5.523890087137475
 10
7.62391191686581
 20
-5.601158329705577
 10
7.519371395657117
 20
-5.600893897956312
 10
7.414777620832233
 20
-5.600620284549083
 10
5.778398473494286
 20
-5.480532461915559
 10
5.778398473494286
 20
-5.480532461915559
 10
5.662147668659271
 20
-5.460510938566497
 10
5.65920678368876
 20
-5.356876646998507
 10
5.633141893728432
 20
-5.265149129473937
 10
5.599701378114623
 20
-5.147536681826611
 10
5.628860676226787
 20
-5.053415506071675
 10
5.652572117813975
 20
-4.983481571882572
 10
5.676265576277779
 20
-4.913561410180401
 10
5.937601991350081
 20
-4.684364273336933
 10
5.962856140932963
 20
-4.648520916990037
 10
5.988079072879562
 20
-4.612695923959058
 10
5.904256046810878
 20
-4.58122762763042
 10
5.701192668150699
 20
-4.607728647002331
 10
5.452238445996563
 20
-4.640209680204028
 10
5.132647153399817
 20
-4.865469722113946
 10
5.033213295898892
 20
-4.948045881149128
 10
4.933788797017554
 20
-5.030618367521103
 10
4.765170407326713
 20
-5.155180412078872
 10
4.621783213074435
 20
-5.243908281947697
 10
4.47842264562957
 20
-5.332644415308676
 10
4.40157600159662
 20
-5.389025304182042
 10
3.461554052172548
 20
-5.430428154424122
 10
2.521568069707061
 20
-5.47184018632418
 10
2.142900896156044
 20
-5.629909773443652
 10
2.018047796194979
 20
-5.660740862709821
 10
1.893198368896997
 20
-5.691585724462925
 10
0.8161467635254667
 20
-6.048065431117922
 10
0.7450880780312698
 20
-6.068136535419954
 10
0.6740468376867612
 20
-6.08819019457188
 10
0.6612512794759924
 20
-6.112197475641652
 10
0.6939655259634617
 20
-6.164122505906688
 10
0.7266843632797998
 20
-6.216052127000719
 10
0.91976360732575
 20
-6.274535615547064
 10
1.023276771544122
 20
-6.316112917290411
 10
1.126808152777105
 20
-6.357713173178657
 10
1.219539223174201
 20
-6.440396757611956
 10
1.281798207901185
 20
-6.478496047319797
 10
1.344060865291251
 20
-6.516607273182999
 10
1.41946890205155
 20
-6.516078409684446
 10
1.41946890205155
 20
-6.516078409684446
 10
1.431515236991648
 20
-6.52127430992439
 10
1.515369480696614
 20
-6.569639611398088
 10
1.515369480696614
 20
-6.569639611398088
 10
1.515369480696614
 20
-6.569639611398088
 10
1.503915362680017
 20
-6.519476541295691
 10
1.503915362680017
 20
-6.519476541295691
 10
1.503915362680017
 20
-6.519476541295691
 10
1.566716065212997
 20
-6.559417671590457
 10
1.566716065212997
 20
-6.559417671590457
 10
1.566716065212997
 20
-6.559417671590457
 10
1.537579910742415
 20
-6.487520698929352
 10
1.537579910742415
 20
-6.487520698929352
 10
1.537579910742415
 20
-6.487520698929352
 10
1.613014662358586
 20
-6.533258209894686
 10
1.613014662358586
 20
-6.533258209894686
 10
1.613014662358586
 20
-6.533258209894686
 10
1.594520879312906
 20
-6.472569287106175
 10
1.594520879312906
 20
-6.472569287106175
 10
1.594520879312906
 20
-6.472569287106175
 10
1.675752931203912
 20
-6.505677427546591
 10
1.675752931203912
 20
-6.505677427546591
 10
1.675752931203912
 20
-6.505677427546591
 10
1.658806255900622
 20
-6.455980785668619
 10
1.658806255900622
 20
-6.455980785668619
 10
1.658806255900622
 20
-6.455980785668619
 10
1.732411933248778
 20
-6.501674224675727
 10
1.732411933248778
 20
-6.501674224675727
 10
1.732411933248778
 20
-6.501674224675727
 10
1.715636126412606
 20
-6.444691937205966
 10
1.721060649798738
 20
-6.446651303014782
 10
1.726489764013738
 20
-6.448615259652544
 10
1.801781193720886
 20
-6.499817693436095
 10
1.801781193720886
 20
-6.499817693436095
 10
1.801781193720886
 20
-6.499817693436095
 10
1.788564197420379
 20
-6.446575095253693
 10
1.788564197420379
 20
-6.446575095253693
 10
1.788564197420379
 20
-6.446575095253693
 10
1.865967408405128
 20
-6.486875228374729
 10
1.865967408405128
 20
-6.486875228374729
 10
1.865967408405128
 20
-6.486875228374729
 10
1.86686445636523
 20
-6.452237423718038
 10
1.86686445636523
 20
-6.452237423718038
 10
1.86686445636523
 20
-6.452237423718038
 10
1.902905217447824
 20
-6.469596266258501
 10
1.902905217447824
 20
-6.469596266258501
 10
1.902905217447824
 20
-6.469596266258501
 10
1.911082401821027
 20
-6.435133831268886
 10
1.911082401821027
 20
-6.435133831268886
 10
1.980038487695348
 20
-6.449695022628752
 10
2.028758199935535
 20
-6.471022177739794
 10
2.017617176447503
 20
-6.478034209924367
 10
2.006494614263513
 20
-6.485018697135072
 10
1.933139498182754
 20
-6.499548670857823
 10
1.933139498182754
 20
-6.499548670857823
 10
1.933139498182754
 20
-6.499548670857823
 10
1.896776460913884
 20
-6.494967023535461
 10
1.896776460913884
 20
-6.494967023535461
 10
1.896776460913884
 20
-6.494967023535461
 10
1.881668043121256
 20
-6.514657089032148
 10
1.881668043121256
 20
-6.514657089032148
 10
1.881668043121256
 20
-6.514657089032148
 10
1.834355879010875
 20
-6.509775201494449
 10
1.834355879010875
 20
-6.509775201494449
 10
1.834355879010875
 20
-6.509775201494449
 10
1.830025809226009
 20
-6.537041971140272
 10
1.830025809226009
 20
-6.537041971140272
 10
1.830025809226009
 20
-6.537041971140272
 10
1.777477345712934
 20
-6.522897627051836
 10
1.777477345712934
 20
-6.522897627051836
 10
1.777477345712934
 20
-6.522897627051836
 10
1.767605227322999
 20
-6.551832703949129
 10
1.767605227322999
 20
-6.551832703949129
 10
1.767605227322999
 20
-6.551832703949129
 10
1.718567829725392
 20
-6.54327815322717
 10
1.718567829725392
 20
-6.54327815322717
 10
1.718567829725392
 20
-6.54327815322717
 10
1.72491152792539
 20
-6.579923986479848
 10
1.72491152792539
 20
-6.579923986479848
 10
1.72491152792539
 20
-6.579923986479848
 10
1.668826198979989
 20
-6.562053725590961
 10
1.668826198979989
 20
-6.562053725590961
 10
1.668826198979989
 20
-6.562053725590961
 10
1.680639319813773
 20
-6.598843710873602
 10
1.680639319813773
 20
-6.598843710873602
 10
1.680639319813773
 20
-6.598843710873602
 10
1.631848908809072
 20
-6.581183709952029
 10
1.631848908809072
 20
-6.581183709952029
 10
1.631848908809072
 20
-6.581183709952029
 10
1.634180131706393
 20
-6.632306263311319
 10
1.634180131706393
 20
-6.632306263311319
 10
1.634180131706393
 20
-6.632306263311319
 10
1.556064424081897
 20
-6.61933625327606
 10
1.556064424081897
 20
-6.61933625327606
 10
1.556064424081897
 20
-6.61933625327606
 10
1.618784328026853
 20
-6.662935356102328
 10
1.618784328026853
 20
-6.662935356102328
 10
1.618784328026853
 20
-6.662935356102328
 10
1.59629661191765
 20
-6.686055689013124
 10
1.619631795035224
 20
-6.701254087435447
 10
1.642949533003111
 20
-6.71646534017888
 10
1.776348001812304
 20
-6.778271670741206
 10
1.939030449781512
 20
-6.766045375000759
 10
2.101713815916494
 20
-6.753851215063175
 10
2.153939085077519
 20
-6.709588278366355
 10
2.367058322379408
 20
-6.722379246071366
 10
2.580169081994919
 20
-6.735178477268542
 10
2.998445008821919
 20
-6.786117397468615
 10
3.32919586518402
 20
-6.765463257886065
 10
3.32919586518402
 20
-6.765463257886065
 10
3.796110705663207
 20
-7.212907486289092
 10
4.550185564271563
 20
-7.3807729842868
 10
4.633627551544501
 20
-7.399342887512274
 10
5.067582077109086
 20
-7.428994133730485
 10
5.384667872273503
 20
-7.351242017787879
 10
5.425057066456424
 20
-7.341343272340484
 10
5.425626329235607
 20
-7.319464299585964
 10
5.349586594423562
 20
-7.297447601962049
 10
5.273523905467211
 20
-7.275407950193236
 10
4.499852634768419
 20
-7.069344918747497
 10
4.333457281186333
 20
-6.731192719547835
 10
4.333457281186333
 20
-6.731192719547835
 10
5.16826629943081
 20
-6.688889148659781
 10
5.768486148834856
 20
-6.547506306718055
 10
5.768486148834856
 20
-6.547506306718055
 10
5.872308468743754
 20
-6.553831550887177
 10
5.93511835293446
 20
-6.593750645202842
 10
5.997968636419172
 20
-6.633696366326553
 10
6.301887016234812
 20
-6.802090727822789
 10
6.41282072307912
 20
-6.815903614058849
 10
6.41282072307912
 20
-6.815903614058849
 10
6.420971490152598
 20
-6.819104340023942
 10
6.414290706481501
 20
-6.688225314789229
 10
6.413080563992859
 20
-6.664487056297705
 10
6.434044124919081
 20
-6.630360669989436
 10
6.441709890956822
 20
-6.615960157643914
 10
6.44937657516031
 20
-6.601569745122131
 10
6.497015606285837
 20
-6.479925631464286
 10
6.70517205048812
 20
-6.37465975927666
 10
6.729183921780304
 20
-6.362518852955266
 10
6.777208582530445
 20
-6.340040317935922
 10
6.561950126074962
 20
-6.339954928516893
 10
6.561950126074962
 20
-6.339954928516893
 10
7.094119008032243
 20
-6.218701035322359
 10
7.217156894260344
 20
-6.189017653301284
 10
7.340105032969632
 20
-6.159365488917274
 10
7.408178763255894
 20
-6.208564484933782
 10
7.456884704239908
 20
-6.229891640044848
 10
7.505590645223921
 20
-6.251205022668955
 10
7.818071846931338
 20
-6.428911421668949
 10
7.998503362014035
 20
-6.450027398646903
 10
8.038529881727829
 20
-6.454711880538449
 10
8.089288841431856
 20
-6.466951030600032
 10
8.034360490847877
 20
-6.403504855925929
 10
7.979458767071996
 20
-6.340066944744017
 10
8.005927650641045
 20
-6.273028905475712
 10
8.039363576270665
 20
-6.210254828164326
 10
8.0642908594681
 20
-6.16347244452307
 10
8.150771977633944
 20
-6.123885726225605
 10
8.060157277054207
 20
-6.110453878794942
 10
7.98566373152183
 20
-6.09940742610244
 10
7.941979239276507
 20
-6.095855960803243
 10
7.941979239276507
 20
-6.095855960803243
 97
        0
 97
        0
 75
     2
 76
     1
 98
        0
  0
ENDSEC
  0
SECTION
  2
OBJECTS
  0
DICTIONARY
  5
C
330
0
100
AcDbDictionary
281
     1
  3
ACAD_GROUP
350
D
  3
ACAD_LAYOUT
350
1A
  3
ACAD_MATERIAL
350
3B
  3
ACAD_MLEADERSTYLE
350
44
  3
ACAD_MLINESTYLE
350
17
  3
ACAD_PLOTSETTINGS
350
19
  3
ACAD_PLOTSTYLENAME
350
E
  3
ACAD_TABLESTYLE
350
43
  3
ACAD_VISUALSTYLE
350
2A
  0
SUN
  5
3F
330
29
100
AcDbSun
 90
        1
290
     0
 63
     7
421
 16777215
 40
1.0
291
     1
 91
  2455826
 92
 54000000
292
     0
 70
     2
 71
   256
280
     1
  0
DICTIONARY
  5
D
102
{ACAD_REACTORS
330
C
102
}
330
C
100
AcDbDictionary
281
     1
  0
DICTIONARY
  5
1A
102
{ACAD_REACTORS
330
C
102
}
330
C
100
AcDbDictionary
281
     1
  3
Layout1
350
1E
  3
Layout2
350
26
  3
Model
350
22
  0
DICTIONARY
  5
3B
102
{ACAD_REACTORS
330
C
102
}
330
C
100
AcDbDictionary
281
     1
  3
ByBlock
350
3D
  3
ByLayer
350
3C
  3
Global
350
3E
  0
DICTIONARY
  5
44
102
{ACAD_REACTORS
330
C
102
}
330
C
100
AcDbDictionary
281
     1
  0
DICTIONARY
  5
17
102
{ACAD_REACTORS
330
C
102
}
330
C
100
AcDbDictionary
281
     1
  3
Standard
350
18
  0
DICTIONARY
  5
19
102
{ACAD_REACTORS
330
C
102
}
330
C
100
AcDbDictionary
281
     1
  0
ACDBDICTIONARYWDFLT
  5
E
102
{ACAD_REACTORS
330
C
102
}
330
C
100
AcDbDictionary
281
     1
  3
Normal
350
F
100
AcDbDictionaryWithDefault
340
F
  0
DICTIONARY
  5
43
102
{ACAD_REACTORS
330
C
102
}
330
C
100
AcDbDictionary
281
     1
  0
DICTIONARY
  5
2A
102
{ACAD_REACTORS
330
C
102
}
330
C
100
AcDbDictionary
281
     1
  3
2dWireframe
350
2F
  3
3D Hidden
350
31
  3
3dWireframe
350
30
  3
Basic
350
32
  3
Brighten
350
36
  3
ColorChange
350
3A
  3
Conceptual
350
34
  3
Dim
350
35
  3
Facepattern
350
39
  3
Flat
350
2B
  3
FlatWithEdges
350
2C
  3
Gouraud
350
2D
  3
GouraudWithEdges
350
2E
  3
Linepattern
350
38
  3
Realistic
350
33
  3
Thicken
350
37
  0
LAYOUT
  5
1E
102
{ACAD_REACTORS
330
1A
102
}
330
1A
100
AcDbPlotSettings
  1

  2
none_device
  4

  6

 40
0.0
 41
0.0
 42
0.0
 43
0.0
 44
0.0
 45
0.0
 46
0.0
 47
0.0
 48
0.0
 49
0.0
140
0.0
141
0.0
142
1.0
143
1.0
 70
   688
 72
     0
 73
     0
 74
     5
  7

 75
    16
 76
     0
 77
     2
 78
   300
147
1.0
148
0.0
149
0.0
100
AcDbLayout
  1
Layout1
 70
     1
 71
     1
 10
0.0
 20
0.0
 11
12.0
 21
9.0
 12
0.0
 22
0.0
 32
0.0
 14
1.000000000000000E+20
 24
1.000000000000000E+20
 34
1.000000000000000E+20
 15
-1.000000000000000E+20
 25
-1.000000000000000E+20
 35
-1.000000000000000E+20
146
0.0
 13
0.0
 23
0.0
 33
0.0
 16
1.0
 26
0.0
 36
0.0
 17
0.0
 27
1.0
 37
0.0
 76
     0
330
1B
  0
LAYOUT
  5
26
102
{ACAD_REACTORS
330
1A
102
}
330
1A
100
AcDbPlotSettings
  1

  2
none_device
  4

  6

 40
0.0
 41
0.0
 42
0.0
 43
0.0
 44
0.0
 45
0.0
 46
0.0
 47
0.0
 48
0.0
 49
0.0
140
0.0
141
0.0
142
1.0
143
1.0
 70
   688
 72
     0
 73
     0
 74
     5
  7

 75
    16
 76
     0
 77
     2
 78
   300
147
1.0
148
0.0
149
0.0
100
AcDbLayout
  1
Layout2
 70
     1
 71
     2
 10
0.0
 20
0.0
 11
0.0
 21
0.0
 12
0.0
 22
0.0
 32
0.0
 14
0.0
 24
0.0
 34
0.0
 15
0.0
 25
0.0
 35
0.0
146
0.0
 13
0.0
 23
0.0
 33
0.0
 16
1.0
 26
0.0
 36
0.0
 17
0.0
 27
1.0
 37
0.0
 76
     0
330
23
  0
LAYOUT
  5
22
102
{ACAD_REACTORS
330
1A
102
}
330
1A
100
AcDbPlotSettings
  1

  2
none_device
  4

  6

 40
0.0
 41
0.0
 42
0.0
 43
0.0
 44
0.0
 45
0.0
 46
0.0
 47
0.0
 48
0.0
 49
0.0
140
0.0
141
0.0
142
1.0
143
1.0
 70
  1712
 72
     0
 73
     0
 74
     0
  7

 75
     0
 76
     0
 77
     2
 78
   300
147
1.0
148
0.0
149
0.0
100
AcDbLayout
  1
Model
 70
     1
 71
     0
 10
0.0
 20
0.0
 11
12.0
 21
9.0
 12
0.0
 22
0.0
 32
0.0
 14
1.000000000000000E+20
 24
1.000000000000000E+20
 34
1.000000000000000E+20
 15
-1.000000000000000E+20
 25
-1.000000000000000E+20
 35
-1.000000000000000E+20
146
0.0
 13
0.0
 23
0.0
 33
0.0
 16
1.0
 26
0.0
 36
0.0
 17
0.0
 27
1.0
 37
0.0
 76
     0
330
1F
331
29
  0
MATERIAL
  5
3D
102
{ACAD_REACTORS
330
3B
102
}
330
3B
100
AcDbMaterial
  1
ByBlock
 72
     1
 94
      127
  0
MATERIAL
  5
3C
102
{ACAD_REACTORS
330
3B
102
}
330
3B
100
AcDbMaterial
  1
ByLayer
 72
     1
 94
      127
  0
MATERIAL
  5
3E
102
{ACAD_REACTORS
330
3B
102
}
330
3B
100
AcDbMaterial
  1
Global
 72
     1
 94
      127
  0
MLINESTYLE
  5
18
102
{ACAD_REACTORS
330
17
102
}
330
17
100
AcDbMlineStyle
  2
Standard
 70
     0
  3

 62
   256
 51
90.0
 52
90.0
 71
     2
 49
0.5
 62
   256
  6
BYLAYER
 49
-0.5
 62
   256
  6
BYLAYER
  0
ACDBPLACEHOLDER
  5
F
102
{ACAD_REACTORS
330
E
102
}
330
E
  0
VISUALSTYLE
  5
2F
102
{ACAD_REACTORS
330
2A
102
}
330
2A
100
AcDbVisualStyle
  2
2dWireframe
 70
     4
177
     2
291
     0
 71
     0
176
     1
 72
     2
176
     1
 73
     0
176
     1
 90
        0
176
     1
 40
-0.6
176
     1
 41
-30.0
176
     1
 62
     5
 63
     7
421
 16777215
176
     1
 74
     1
176
     1
 91
        4
176
     1
 64
     7
176
     1
 65
   257
176
     1
 75
     1
176
     1
175
     1
176
     1
 42
1.0
176
     1
 92
        0
176
     1
 66
   257
176
     1
 43
1.0
176
     1
 76
     1
176
     1
 77
     6
176
     1
 78
     2
176
     1
 67
     7
176
     1
 79
     5
176
     1
170
     0
176
     1
171
     0
176
     1
290
     0
176
     1
 93
        1
176
     1
 44
0.0
176
     1
173
     0
176
     1
  0
VISUALSTYLE
  5
31
102
{ACAD_REACTORS
330
2A
102
}
330
2A
100
AcDbVisualStyle
  2
3D Hidden
 70
     6
177
     2
291
     0
 71
     1
176
     1
 72
     2
176
     1
 73
     2
176
     1
 90
        0
176
     1
 40
-0.6
176
     1
 41
-30.0
176
     1
 62
     5
 63
     7
421
 16777215
176
     1
 74
     2
176
     1
 91
        2
176
     1
 64
     7
176
     1
 65
   257
176
     1
 75
     2
176
     1
175
     1
176
     1
 42
40.0
176
     1
 92
        0
176
     1
 66
   257
176
     1
 43
1.0
176
     1
 76
     1
176
     1
 77
     6
176
     1
 78
     2
176
     1
 67
     7
176
     1
 79
     3
176
     1
170
     0
176
     1
171
     0
176
     1
290
     0
176
     1
 93
        1
176
     1
 44
0.0
176
     1
173
     0
176
     1
  0
VISUALSTYLE
  5
30
102
{ACAD_REACTORS
330
2A
102
}
330
2A
100
AcDbVisualStyle
  2
3dWireframe
 70
     5
177
     2
291
     0
 71
     0
176
     1
 72
     2
176
     1
 73
     0
176
     1
 90
        0
176
     1
 40
-0.6
176
     1
 41
-30.0
176
     1
 62
     5
 63
     7
421
 16777215
176
     1
 74
     1
176
     1
 91
        4
176
     1
 64
     7
176
     1
 65
   257
176
     1
 75
     1
176
     1
175
     1
176
     1
 42
1.0
176
     1
 92
        0
176
     1
 66
   257
176
     1
 43
1.0
176
     1
 76
     1
176
     1
 77
     6
176
     1
 78
     2
176
     1
 67
     7
176
     1
 79
     5
176
     1
170
     0
176
     1
171
     0
176
     1
290
     0
176
     1
 93
        1
176
     1
 44
0.0
176
     1
173
     0
176
     1
  0
VISUALSTYLE
  5
32
102
{ACAD_REACTORS
330
2A
102
}
330
2A
100
AcDbVisualStyle
  2
Basic
 70
     7
177
     2
291
     1
 71
     1
176
     1
 72
     0
176
     1
 73
     1
176
     1
 90
        0
176
     1
 40
-0.6
176
     1
 41
-30.0
176
     1
 62
     5
 63
     7
421
 16777215
176
     1
 74
     0
176
     1
 91
        4
176
     1
 64
     7
176
     1
 65
   257
176
     1
 75
     1
176
     1
175
     1
176
     1
 42
1.0
176
     1
 92
        8
176
     1
 66
     7
176
     1
 43
1.0
176
     1
 76
     1
176
     1
 77
     6
176
     1
 78
     2
176
     1
 67
     7
176
     1
 79
     5
176
     1
170
     0
176
     1
171
     0
176
     1
290
     0
176
     1
 93
        1
176
     1
 44
0.0
176
     1
173
     0
176
     1
  0
VISUALSTYLE
  5
36
102
{ACAD_REACTORS
330
2A
102
}
330
2A
100
AcDbVisualStyle
  2
Brighten
 70
    12
177
     2
291
     1
 71
     2
176
     1
 72
     2
176
     1
 73
     0
176
     1
 90
        0
176
     1
 40
-0.6
176
     1
 41
-30.0
176
     1
 62
     5
 63
     7
421
 16777215
176
     1
 74
     1
176
     1
 91
        4
176
     1
 64
     7
176
     1
 65
   257
176
     1
 75
     1
176
     1
175
     1
176
     1
 42
1.0
176
     1
 92
        8
176
     1
 66
     7
176
     1
 43
1.0
176
     1
 76
     1
176
     1
 77
     6
176
     1
 78
     2
176
     1
 67
     7
176
     1
 79
     5
176
     1
170
     0
176
     1
171
     0
176
     1
290
     0
176
     1
 93
        1
176
     1
 44
50.0
176
     1
173
     0
176
     1
  0
VISUALSTYLE
  5
3A
102
{ACAD_REACTORS
330
2A
102
}
330
2A
100
AcDbVisualStyle
  2
ColorChange
 70
    16
177
     2
291
     1
 71
     2
176
     1
 72
     2
176
     1
 73
     3
176
     1
 90
        0
176
     1
 40
-0.6
176
     1
 41
-30.0
176
     1
 62
     5
 63
     8
421
  8421504
176
     1
 74
     1
176
     1
 91
        4
176
     1
 64
     7
176
     1
 65
   257
176
     1
 75
     1
176
     1
175
     1
176
     1
 42
1.0
176
     1
 92
        8
176
     1
 66
     8
424
  8421504
176
     1
 43
1.0
176
     1
 76
     1
176
     1
 77
     6
176
     1
 78
     2
176
     1
 67
     7
176
     1
 79
     5
176
     1
170
     0
176
     1
171
     0
176
     1
290
     0
176
     1
 93
        1
176
     1
 44
0.0
176
     1
173
     0
176
     1
  0
VISUALSTYLE
  5
34
102
{ACAD_REACTORS
330
2A
102
}
330
2A
100
AcDbVisualStyle
  2
Conceptual
 70
     9
177
     2
291
     0
 71
     3
176
     1
 72
     2
176
     1
 73
     0
176
     1
 90
        0
176
     1
 40
-0.6
176
     1
 41
-30.0
176
     1
 62
     5
 63
     7
421
 16777215
176
     1
 74
     2
176
     1
 91
        2
176
     1
 64
     7
176
     1
 65
   257
176
     1
 75
     1
176
     1
175
     1
176
     1
 42
40.0
176
     1
 92
        8
176
     1
 66
     7
176
     1
 43
1.0
176
     1
 76
     1
176
     1
 77
     6
176
     1
 78
     2
176
     1
 67
     7
176
     1
 79
     3
176
     1
170
     0
176
     1
171
     0
176
     1
290
     0
176
     1
 93
        1
176
     1
 44
0.0
176
     1
173
     0
176
     1
  0
VISUALSTYLE
  5
35
102
{ACAD_REACTORS
330
2A
102
}
330
2A
100
AcDbVisualStyle
  2
Dim
 70
    11
177
     2
291
     1
 71
     2
176
     1
 72
     2
176
     1
 73
     0
176
     1
 90
        0
176
     1
 40
-0.6
176
     1
 41
-30.0
176
     1
 62
     5
 63
     7
421
 16777215
176
     1
 74
     1
176
     1
 91
        4
176
     1
 64
     7
176
     1
 65
   257
176
     1
 75
     1
176
     1
175
     1
176
     1
 42
1.0
176
     1
 92
        8
176
     1
 66
     7
176
     1
 43
1.0
176
     1
 76
     1
176
     1
 77
     6
176
     1
 78
     2
176
     1
 67
     7
176
     1
 79
     5
176
     1
170
     0
176
     1
171
     0
176
     1
290
     0
176
     1
 93
        1
176
     1
 44
-50.0
176
     1
173
     0
176
     1
  0
VISUALSTYLE
  5
39
102
{ACAD_REACTORS
330
2A
102
}
330
2A
100
AcDbVisualStyle
  2
Facepattern
 70
    15
177
     2
291
     1
 71
     2
176
     1
 72
     2
176
     1
 73
     0
176
     1
 90
        0
176
     1
 40
-0.6
176
     1
 41
-30.0
176
     1
 62
     5
 63
     7
421
 16777215
176
     1
 74
     1
176
     1
 91
        4
176
     1
 64
     7
176
     1
 65
   257
176
     1
 75
     1
176
     1
175
     1
176
     1
 42
1.0
176
     1
 92
        8
176
     1
 66
     7
176
     1
 43
1.0
176
     1
 76
     1
176
     1
 77
     6
176
     1
 78
     2
176
     1
 67
     7
176
     1
 79
     5
176
     1
170
     0
176
     1
171
     0
176
     1
290
     0
176
     1
 93
        1
176
     1
 44
0.0
176
     1
173
     0
176
     1
  0
VISUALSTYLE
  5
2B
102
{ACAD_REACTORS
330
2A
102
}
330
2A
100
AcDbVisualStyle
  2
Flat
 70
     0
177
     2
291
     1
 71
     2
176
     1
 72
     1
176
     1
 73
     1
176
     1
 90
        2
176
     1
 40
-0.6
176
     1
 41
30.0
176
     1
 62
     5
 63
     7
421
 16777215
176
     1
 74
     0
176
     1
 91
        4
176
     1
 64
     7
176
     1
 65
   257
176
     1
 75
     1
176
     1
175
     1
176
     1
 42
1.0
176
     1
 92
        8
176
     1
 66
     7
176
     1
 43
1.0
176
     1
 76
     1
176
     1
 77
     6
176
     1
 78
     2
176
     1
 67
     7
176
     1
 79
     5
176
     1
170
     0
176
     1
171
     0
176
     1
290
     0
176
     1
 93
       13
176
     1
 44
0.0
176
     1
173
     0
176
     1
  0
VISUALSTYLE
  5
2C
102
{ACAD_REACTORS
330
2A
102
}
330
2A
100
AcDbVisualStyle
  2
FlatWithEdges
 70
     1
177
     2
291
     1
 71
     2
176
     1
 72
     1
176
     1
 73
     1
176
     1
 90
        2
176
     1
 40
-0.6
176
     1
 41
30.0
176
     1
 62
     5
 63
     7
421
 16777215
176
     1
 74
     1
176
     1
 91
        4
176
     1
 64
     7
176
     1
 65
   257
176
     1
 75
     1
176
     1
175
     1
176
     1
 42
1.0
176
     1
 92
        0
176
     1
 66
   257
176
     1
 43
1.0
176
     1
 76
     1
176
     1
 77
     6
176
     1
 78
     2
176
     1
 67
     7
176
     1
 79
     5
176
     1
170
     0
176
     1
171
     0
176
     1
290
     0
176
     1
 93
       13
176
     1
 44
0.0
176
     1
173
     0
176
     1
  0
VISUALSTYLE
  5
2D
102
{ACAD_REACTORS
330
2A
102
}
330
2A
100
AcDbVisualStyle
  2
Gouraud
 70
     2
177
     2
291
     1
 71
     2
176
     1
 72
     2
176
     1
 73
     1
176
     1
 90
        2
176
     1
 40
-0.6
176
     1
 41
30.0
176
     1
 62
     5
 63
     7
421
 16777215
176
     1
 74
     0
176
     1
 91
        4
176
     1
 64
     7
176
     1
 65
   257
176
     1
 75
     1
176
     1
175
     1
176
     1
 42
1.0
176
     1
 92
        0
176
     1
 66
     7
176
     1
 43
1.0
176
     1
 76
     1
176
     1
 77
     6
176
     1
 78
     2
176
     1
 67
     7
176
     1
 79
     5
176
     1
170
     0
176
     1
171
     0
176
     1
290
     0
176
     1
 93
       13
176
     1
 44
0.0
176
     1
173
     0
176
     1
  0
VISUALSTYLE
  5
2E
102
{ACAD_REACTORS
330
2A
102
}
330
2A
100
AcDbVisualStyle
  2
GouraudWithEdges
 70
     3
177
     2
291
     1
 71
     2
176
     1
 72
     2
176
     1
 73
     1
176
     1
 90
        2
176
     1
 40
-0.6
176
     1
 41
30.0
176
     1
 62
     5
 63
     7
421
 16777215
176
     1
 74
     1
176
     1
 91
        4
176
     1
 64
     7
176
     1
 65
   257
176
     1
 75
     1
176
     1
175
     1
176
     1
 42
1.0
176
     1
 92
        0
176
     1
 66
   257
176
     1
 43
1.0
176
     1
 76
     1
176
     1
 77
     6
176
     1
 78
     2
176
     1
 67
     7
176
     1
 79
     5
176
     1
170
     0
176
     1
171
     0
176
     1
290
     0
176
     1
 93
       13
176
     1
 44
0.0
176
     1
173
     0
176
     1
  0
VISUALSTYLE
  5
38
102
{ACAD_REACTORS
330
2A
102
}
330
2A
100
AcDbVisualStyle
  2
Linepattern
 70
    14
177
     2
291
     1
 71
     2
176
     1
 72
     2
176
     1
 73
     0
176
     1
 90
        0
176
     1
 40
-0.6
176
     1
 41
-30.0
176
     1
 62
     5
 63
     7
421
 16777215
176
     1
 74
     1
176
     1
 91
        4
176
     1
 64
     7
176
     1
 65
   257
176
     1
 75
     7
176
     1
175
     7
176
     1
 42
1.0
176
     1
 92
        8
176
     1
 66
     7
176
     1
 43
1.0
176
     1
 76
     1
176
     1
 77
     6
176
     1
 78
     2
176
     1
 67
     7
176
     1
 79
     5
176
     1
170
     0
176
     1
171
     0
176
     1
290
     0
176
     1
 93
        1
176
     1
 44
0.0
176
     1
173
     0
176
     1
  0
VISUALSTYLE
  5
33
102
{ACAD_REACTORS
330
2A
102
}
330
2A
100
AcDbVisualStyle
  2
Realistic
 70
     8
177
     2
291
     0
 71
     2
176
     1
 72
     2
176
     1
 73
     0
176
     1
 90
        0
176
     1
 40
-0.6
176
     1
 41
-30.0
176
     1
 62
     5
 63
     7
421
 16777215
176
     1
 74
     1
176
     1
 91
        0
176
     1
 64
     7
176
     1
 65
   257
176
     1
 75
     1
176
     1
175
     1
176
     1
 42
1.0
176
     1
 92
        8
176
     1
 66
     8
424
  7895160
176
     1
 43
1.0
176
     1
 76
     1
176
     1
 77
     6
176
     1
 78
     2
176
     1
 67
     7
176
     1
 79
     5
176
     1
170
     0
176
     1
171
     0
176
     1
290
     0
176
     1
 93
       13
176
     1
 44
0.0
176
     1
173
     0
176
     1
  0
VISUALSTYLE
  5
37
102
{ACAD_REACTORS
330
2A
102
}
330
2A
100
AcDbVisualStyle
  2
Thicken
 70
    13
177
     2
291
     1
 71
     2
176
     1
 72
     2
176
     1
 73
     0
176
     1
 90
        0
176
     1
 40
-0.6
176
     1
 41
-30.0
176
     1
 62
     5
 63
     7
421
 16777215
176
     1
 74
     1
176
     1
 91
        4
176
     1
 64
     7
176
     1
 65
   257
176
     1
 75
     1
176
     1
175
     1
176
     1
 42
1.0
176
     1
 92
       12
176
     1
 66
     7
176
     1
 43
1.0
176
     1
 76
     1
176
     1
 77
     6
176
     1
 78
     2
176
     1
 67
     7
176
     1
 79
     5
176
     1
170
     0
176
     1
171
     0
176
     1
290
     0
176
     1
 93
        1
176
     1
 44
0.0
176
     1
173
     0
176
     1
  0
ENDSEC
  0
EOF
