  0
SECTION
  2
HEADER
  9
$ACADVER
  1
AC1024
  9
$ACADMAINTVER
 70
     6
  9
$DWGCODEPAGE
  3
ANSI_1252
  9
$INSBASE
 10
0.0
 20
0.0
 30
0.0
  9
$EXTMIN
 10
1.000000000000000E+20
 20
1.000000000000000E+20
 30
1.000000000000000E+20
  9
$EXTMAX
 10
-1.000000000000000E+20
 20
-1.000000000000000E+20
 30
-1.000000000000000E+20
  9
$LIMMIN
 10
0.0
 20
0.0
  9
$LIMMAX
 10
12.0
 20
9.0
  9
$ORTHOMODE
 70
     0
  9
$REGENMODE
 70
     1
  9
$FILLMODE
 70
     1
  9
$QTEXTMODE
 70
     0
  9
$MIRRTEXT
 70
     1
  9
$LTSCALE
 40
1.0
  9
$ATTMODE
 70
     1
  9
$TEXTSIZE
 40
0.2
  9
$TRACEWID
 40
0.05
  9
$TEXTSTYLE
  7
Standard
  9
$CLAYER
  8
0
  9
$CELTYPE
  6
ByLayer
  9
$CECOLOR
 62
   256
  9
$CELTSCALE
 40
1.0
  9
$DISPSILH
 70
     0
  9
$DIMSCALE
 40
1.0
  9
$DIMASZ
 40
0.18
  9
$DIMEXO
 40
0.0625
  9
$DIMDLI
 40
0.38
  9
$DIMRND
 40
0.0
  9
$DIMDLE
 40
0.0
  9
$DIMEXE
 40
0.18
  9
$DIMTP
 40
0.0
  9
$DIMTM
 40
0.0
  9
$DIMTXT
 40
0.18
  9
$DIMCEN
 40
0.09
  9
$DIMTSZ
 40
0.0
  9
$DIMTOL
 70
     0
  9
$DIMLIM
 70
     0
  9
$DIMTIH
 70
     1
  9
$DIMTOH
 70
     1
  9
$DIMSE1
 70
     0
  9
$DIMSE2
 70
     0
  9
$DIMTAD
 70
     0
  9
$DIMZIN
 70
     0
  9
$DIMBLK
  1

  9
$DIMASO
 70
     1
  9
$DIMSHO
 70
     1
  9
$DIMPOST
  1

  9
$DIMAPOST
  1

  9
$DIMALT
 70
     0
  9
$DIMALTD
 70
     2
  9
$DIMALTF
 40
25.4
  9
$DIMLFAC
 40
1.0
  9
$DIMTOFL
 70
     0
  9
$DIMTVP
 40
0.0
  9
$DIMTIX
 70
     0
  9
$DIMSOXD
 70
     0
  9
$DIMSAH
 70
     0
  9
$DIMBLK1
  1

  9
$DIMBLK2
  1

  9
$DIMSTYLE
  2
Standard
  9
$DIMCLRD
 70
     0
  9
$DIMCLRE
 70
     0
  9
$DIMCLRT
 70
     0
  9
$DIMTFAC
 40
1.0
  9
$DIMGAP
 40
0.09
  9
$DIMJUST
 70
     0
  9
$DIMSD1
 70
     0
  9
$DIMSD2
 70
     0
  9
$DIMTOLJ
 70
     1
  9
$DIMTZIN
 70
     0
  9
$DIMALTZ
 70
     0
  9
$DIMALTTZ
 70
     0
  9
$DIMUPT
 70
     0
  9
$DIMDEC
 70
     4
  9
$DIMTDEC
 70
     4
  9
$DIMALTU
 70
     2
  9
$DIMALTTD
 70
     2
  9
$DIMTXSTY
  7
Standard
  9
$DIMAUNIT
 70
     0
  9
$DIMADEC
 70
     0
  9
$DIMALTRND
 40
0.0
  9
$DIMAZIN
 70
     0
  9
$DIMDSEP
 70
    46
  9
$DIMATFIT
 70
     3
  9
$DIMFRAC
 70
     0
  9
$DIMLDRBLK
  1

  9
$DIMLUNIT
 70
     2
  9
$DIMLWD
 70
    -2
  9
$DIMLWE
 70
    -2
  9
$DIMTMOVE
 70
     0
  9
$DIMFXL
 40
1.0
  9
$DIMFXLON
 70
     0
  9
$DIMJOGANG
 40
0.7853981633974483
  9
$DIMTFILL
 70
     0
  9
$DIMTFILLCLR
 70
     0
  9
$DIMARCSYM
 70
     0
  9
$DIMLTYPE
  6

  9
$DIMLTEX1
  6

  9
$DIMLTEX2
  6

  9
$DIMTXTDIRECTION
 70
     0
  9
$LUNITS
 70
     2
  9
$LUPREC
 70
     4
  9
$SKETCHINC
 40
0.1
  9
$FILLETRAD
 40
0.5
  9
$AUNITS
 70
     0
  9
$AUPREC
 70
     0
  9
$MENU
  1
.
  9
$ELEVATION
 40
0.0
  9
$PELEVATION
 40
0.0
  9
$THICKNESS
 40
0.0
  9
$LIMCHECK
 70
     0
  9
$CHAMFERA
 40
0.5
  9
$CHAMFERB
 40
0.5
  9
$CHAMFERC
 40
1.0
  9
$CHAMFERD
 40
0.0
  9
$SKPOLY
 70
     0
  9
$TDCREATE
 40
2458164.579279757
  9
$TDUCREATE
 40
2458164.53761309
  9
$TDUPDATE
 40
2458164.57927978
  9
$TDUUPDATE
 40
2458164.537613113
  9
$TDINDWG
 40
0.0000000116
  9
$TDUSRTIMER
 40
0.0000000116
  9
$USRTIMER
 70
     1
  9
$ANGBASE
 50
0.0
  9
$ANGDIR
 70
     0
  9
$PDMODE
 70
     0
  9
$PDSIZE
 40
0.0
  9
$PLINEWID
 40
0.0
  9
$SPLFRAME
 70
     0
  9
$SPLINETYPE
 70
     6
  9
$SPLINESEGS
 70
     8
  9
$HANDSEED
  5
45
  9
$SURFTAB1
 70
     6
  9
$SURFTAB2
 70
     6
  9
$SURFTYPE
 70
     6
  9
$SURFU
 70
     6
  9
$SURFV
 70
     6
  9
$UCSBASE
  2

  9
$UCSNAME
  2

  9
$UCSORG
 10
0.0
 20
0.0
 30
0.0
  9
$UCSXDIR
 10
1.0
 20
0.0
 30
0.0
  9
$UCSYDIR
 10
0.0
 20
1.0
 30
0.0
  9
$UCSORTHOREF
  2

  9
$UCSORTHOVIEW
 70
     0
  9
$UCSORGTOP
 10
0.0
 20
0.0
 30
0.0
  9
$UCSORGBOTTOM
 10
0.0
 20
0.0
 30
0.0
  9
$UCSORGLEFT
 10
0.0
 20
0.0
 30
0.0
  9
$UCSORGRIGHT
 10
0.0
 20
0.0
 30
0.0
  9
$UCSORGFRONT
 10
0.0
 20
0.0
 30
0.0
  9
$UCSORGBACK
 10
0.0
 20
0.0
 30
0.0
  9
$PUCSBASE
  2

  9
$PUCSNAME
  2

  9
$PUCSORG
 10
0.0
 20
0.0
 30
0.0
  9
$PUCSXDIR
 10
1.0
 20
0.0
 30
0.0
  9
$PUCSYDIR
 10
0.0
 20
1.0
 30
0.0
  9
$PUCSORTHOREF
  2

  9
$PUCSORTHOVIEW
 70
     0
  9
$PUCSORGTOP
 10
0.0
 20
0.0
 30
0.0
  9
$PUCSORGBOTTOM
 10
0.0
 20
0.0
 30
0.0
  9
$PUCSORGLEFT
 10
0.0
 20
0.0
 30
0.0
  9
$PUCSORGRIGHT
 10
0.0
 20
0.0
 30
0.0
  9
$PUCSORGFRONT
 10
0.0
 20
0.0
 30
0.0
  9
$PUCSORGBACK
 10
0.0
 20
0.0
 30
0.0
  9
$USERI1
 70
     0
  9
$USERI2
 70
     0
  9
$USERI3
 70
     0
  9
$USERI4
 70
     0
  9
$USERI5
 70
     0
  9
$USERR1
 40
0.0
  9
$USERR2
 40
0.0
  9
$USERR3
 40
0.0
  9
$USERR4
 40
0.0
  9
$USERR5
 40
0.0
  9
$WORLDVIEW
 70
     1
  9
$SHADEDGE
 70
     3
  9
$SHADEDIF
 70
    70
  9
$TILEMODE
 70
     1
  9
$MAXACTVP
 70
    64
  9
$PINSBASE
 10
0.0
 20
0.0
 30
0.0
  9
$PLIMCHECK
 70
     0
  9
$PEXTMIN
 10
1.000000000000000E+20
 20
1.000000000000000E+20
 30
1.000000000000000E+20
  9
$PEXTMAX
 10
-1.000000000000000E+20
 20
-1.000000000000000E+20
 30
-1.000000000000000E+20
  9
$PLIMMIN
 10
0.0
 20
0.0
  9
$PLIMMAX
 10
12.0
 20
9.0
  9
$UNITMODE
 70
     0
  9
$VISRETAIN
 70
     1
  9
$PLINEGEN
 70
     0
  9
$PSLTSCALE
 70
     1
  9
$TREEDEPTH
 70
  3020
  9
$CMLSTYLE
  2
Standard
  9
$CMLJUST
 70
     0
  9
$CMLSCALE
 40
1.0
  9
$PROXYGRAPHICS
 70
     1
  9
$MEASUREMENT
 70
     0
  9
$CELWEIGHT
370
    -1
  9
$ENDCAPS
280
     0
  9
$JOINSTYLE
280
     0
  9
$LWDISPLAY
290
     1
  9
$INSUNITS
 70
     1
  9
$HYPERLINKBASE
  1

  9
$STYLESHEET
  1

  9
$XEDIT
290
     1
  9
$CEPSNTYPE
380
     0
  9
$PSTYLEMODE
290
     1
  9
$FINGERPRINTGUID
  2
{9BCB3F46-A968-49AA-9F98-BB902B5656E5}
  9
$VERSIONGUID
  2
{FAEB1C32-E019-11D5-929B-00C0DF256EC4}
  9
$EXTNAMES
290
     1
  9
$PSVPSCALE
 40
0.0
  9
$OLESTARTUP
290
     0
  9
$SORTENTS
280
   127
  9
$INDEXCTL
280
     0
  9
$HIDETEXT
280
     1
  9
$XCLIPFRAME
280
     2
  9
$HALOGAP
280
     0
  9
$OBSCOLOR
 70
   257
  9
$OBSLTYPE
280
     0
  9
$INTERSECTIONDISPLAY
280
     0
  9
$INTERSECTIONCOLOR
 70
   257
  9
$DIMASSOC
280
     2
  9
$PROJECTNAME
  1

  9
$CAMERADISPLAY
290
     0
  9
$LENSLENGTH
 40
50.0
  9
$CAMERAHEIGHT
 40
0.0
  9
$STEPSPERSEC
 40
2.0
  9
$STEPSIZE
 40
6.0
  9
$3DDWFPREC
 40
2.0
  9
$PSOLWIDTH
 40
0.25
  9
$PSOLHEIGHT
 40
4.0
  9
$LOFTANG1
 40
1.570796326794897
  9
$LOFTANG2
 40
1.570796326794897
  9
$LOFTMAG1
 40
0.0
  9
$LOFTMAG2
 40
0.0
  9
$LOFTPARAM
 70
     7
  9
$LOFTNORMALS
280
     1
  9
$LATITUDE
 40
37.795
  9
$LONGITUDE
 40
-122.394
  9
$NORTHDIRECTION
 40
0.0
  9
$TIMEZONE
 70
 -8000
  9
$LIGHTGLYPHDISPLAY
280
     1
  9
$TILEMODELIGHTSYNCH
280
     1
  9
$CMATERIAL
347
3C
  9
$SOLIDHIST
280
     1
  9
$SHOWHIST
280
     1
  9
$DWFFRAME
280
     2
  9
$DGNFRAME
280
     2
  9
$REALWORLDSCALE
290
     1
  9
$INTERFERECOLOR
 62
   256
  9
$CSHADOW
280
     0
  9
$SHADOWPLANELOCATION
 40
0.0
  0
ENDSEC
  0
SECTION
  2
CLASSES
  0
CLASS
  1
ACDBDICTIONARYWDFLT
  2
AcDbDictionaryWithDefault
  3
ObjectDBX Classes
 90
        0
 91
        4
280
     0
281
     0
  0
CLASS
  1
VISUALSTYLE
  2
AcDbVisualStyle
  3
ObjectDBX Classes
 90
     4095
 91
        4
280
     0
281
     0
  0
CLASS
  1
MATERIAL
  2
AcDbMaterial
  3
ObjectDBX Classes
 90
     1153
 91
        4
280
     0
281
     0
  0
CLASS
  1
SUN
  2
AcDbSun
  3
SCENEOE
 90
     1024
 91
        4
280
     0
281
     0
  0
ENDSEC
  0
SECTION
  2
TABLES
  0
TABLE
  2
VPORT
  5
8
330
0
100
AcDbSymbolTable
 70
     1
  0
VPORT
  5
29
330
8
100
AcDbSymbolTableRecord
100
AcDbViewportTableRecord
  2
*Active
 70
     0
 10
0.0
 20
0.0
 11
1.0
 21
1.0
 12
0.0
 22
0.0
 13
0.0
 23
0.0
 14
0.5
 24
0.5
 15
0.5
 25
0.5
 16
0.0
 26
0.0
 36
1.0
 17
6.0
 27
-6.0
 37
0.0
 40
12.0
 41
1.0
 42
50.0
 43
0.0
 44
0.0
 50
0.0
 51
0.0
 71
     0
 72
   100
 73
     1
 74
     3
 75
     0
 76
     0
 77
     0
 78
     0
281
     0
 65
     1
110
0.0
120
0.0
130
0.0
111
1.0
121
0.0
131
0.0
112
0.0
122
1.0
132
0.0
 79
     0
146
0.0
 60
     3
 61
     5
292
     1
282
     1
141
0.0
142
0.0
 63
   250
361
3F
  0
ENDTAB
  0
TABLE
  2
LTYPE
  5
5
330
0
100
AcDbSymbolTable
 70
     1
  0
LTYPE
  5
14
330
5
100
AcDbSymbolTableRecord
100
AcDbLinetypeTableRecord
  2
ByBlock
 70
     0
  3

 72
    65
 73
     0
 40
0.0
  0
LTYPE
  5
15
330
5
100
AcDbSymbolTableRecord
100
AcDbLinetypeTableRecord
  2
ByLayer
 70
     0
  3

 72
    65
 73
     0
 40
0.0
  0
LTYPE
  5
16
330
5
100
AcDbSymbolTableRecord
100
AcDbLinetypeTableRecord
  2
Continuous
 70
     0
  3
Solid line
 72
    65
 73
     0
 40
0.0
  0
ENDTAB
  0
TABLE
  2
LAYER
  5
2
330
0
100
AcDbSymbolTable
 70
     2
  0
LAYER
  5
10
330
2
100
AcDbSymbolTableRecord
100
AcDbLayerTableRecord
  2
0
 70
     0
 62
     7
  6
Continuous
370
    -3
390
F
347
3E
  0
LAYER
  5
40
330
2
100
AcDbSymbolTableRecord
100
AcDbLayerTableRecord
  2
Layer 1
 70
     0
 62
     7
  6
Continuous
370
    -3
390
F
347
3E
  0
ENDTAB
  0
TABLE
  2
STYLE
  5
3
330
0
100
AcDbSymbolTable
 70
     1
  0
STYLE
  5
11
330
3
100
AcDbSymbolTableRecord
100
AcDbTextStyleTableRecord
  2
Standard
 70
     0
 40
0.0
 41
1.0
 50
0.0
 71
     0
 42
0.2
  3
txt
  4

  0
ENDTAB
  0
TABLE
  2
VIEW
  5
6
330
0
100
AcDbSymbolTable
 70
     0
  0
ENDTAB
  0
TABLE
  2
UCS
  5
7
330
0
100
AcDbSymbolTable
 70
     0
  0
ENDTAB
  0
TABLE
  2
APPID
  5
9
330
0
100
AcDbSymbolTable
 70
     1
  0
APPID
  5
12
330
9
100
AcDbSymbolTableRecord
100
AcDbRegAppTableRecord
  2
ACAD
 70
     0
  0
ENDTAB
  0
TABLE
  2
DIMSTYLE
  5
A
330
0
100
AcDbSymbolTable
 70
     1
100
AcDbDimStyleTable
  0
DIMSTYLE
105
27
330
A
100
AcDbSymbolTableRecord
100
AcDbDimStyleTableRecord
  2
Standard
 70
     0
178
     0
340
11
  0
ENDTAB
  0
TABLE
  2
BLOCK_RECORD
  5
1
330
0
100
AcDbSymbolTable
 70
     1
  0
BLOCK_RECORD
  5
1F
330
1
100
AcDbSymbolTableRecord
100
AcDbBlockTableRecord
  2
*Model_Space
340
22
 70
     0
280
     1
281
     0
  0
BLOCK_RECORD
  5
1B
330
1
100
AcDbSymbolTableRecord
100
AcDbBlockTableRecord
  2
*Paper_Space
340
1E
 70
     0
280
     1
281
     0
  0
BLOCK_RECORD
  5
23
330
1
100
AcDbSymbolTableRecord
100
AcDbBlockTableRecord
  2
*Paper_Space0
340
26
 70
     0
280
     1
281
     0
  0
ENDTAB
  0
ENDSEC
  0
SECTION
  2
BLOCKS
  0
BLOCK
  5
20
330
1F
100
AcDbEntity
  8
0
100
AcDbBlockBegin
  2
*Model_Space
 70
     0
 10
0.0
 20
0.0
 30
0.0
  3
*Model_Space
  1

  0
ENDBLK
  5
21
330
1F
100
AcDbEntity
  8
0
100
AcDbBlockEnd
  0
BLOCK
  5
1C
330
1B
100
AcDbEntity
 67
     1
  8
0
100
AcDbBlockBegin
  2
*Paper_Space
 70
     0
 10
0.0
 20
0.0
 30
0.0
  3
*Paper_Space
  1

  0
ENDBLK
  5
1D
330
1B
100
AcDbEntity
 67
     1
  8
0
100
AcDbBlockEnd
  0
BLOCK
  5
24
330
23
100
AcDbEntity
  8
0
100
AcDbBlockBegin
  2
*Paper_Space0
 70
     0
 10
0.0
 20
0.0
 30
0.0
  3
*Paper_Space0
  1

  0
ENDBLK
  5
25
330
23
100
AcDbEntity
  8
0
100
AcDbBlockEnd
  0
ENDSEC
  0
SECTION
  2
ENTITIES
  0
SPLINE
  5
41
330
1F
100
AcDbEntity
  8
Layer 1
 62
     7
420
 16777215
370
    18
100
AcDbSpline
210
0.0
220
0.0
230
1.0
 70
    11
 71
     3
 72
   224
 73
   220
 74
     0
 42
0.0000000001
 43
0.0000000001
 12
1.0
 22
0.0
 32
0.0
 13
1.0
 23
0.0
 33
0.0
 40
0.0
 40
0.0
 40
0.0
 40
0.0
 40
1.0
 40
1.0
 40
1.0
 40
2.0
 40
2.0
 40
2.0
 40
3.0
 40
3.0
 40
3.0
 40
4.0
 40
4.0
 40
4.0
 40
5.0
 40
5.0
 40
5.0
 40
6.0
 40
6.0
 40
6.0
 40
7.0
 40
7.0
 40
7.0
 40
8.0
 40
8.0
 40
8.0
 40
9.0
 40
9.0
 40
9.0
 40
10.0
 40
10.0
 40
10.0
 40
11.0
 40
11.0
 40
11.0
 40
12.0
 40
12.0
 40
12.0
 40
13.0
 40
13.0
 40
13.0
 40
14.0
 40
14.0
 40
14.0
 40
15.0
 40
15.0
 40
15.0
 40
16.0
 40
16.0
 40
16.0
 40
17.0
 40
17.0
 40
17.0
 40
18.0
 40
18.0
 40
18.0
 40
19.0
 40
19.0
 40
19.0
 40
20.0
 40
20.0
 40
20.0
 40
21.0
 40
21.0
 40
21.0
 40
22.0
 40
22.0
 40
22.0
 40
23.0
 40
23.0
 40
23.0
 40
24.0
 40
24.0
 40
24.0
 40
25.0
 40
25.0
 40
25.0
 40
26.0
 40
26.0
 40
26.0
 40
27.0
 40
27.0
 40
27.0
 40
28.0
 40
28.0
 40
28.0
 40
29.0
 40
29.0
 40
29.0
 40
30.0
 40
30.0
 40
30.0
 40
31.0
 40
31.0
 40
31.0
 40
32.0
 40
32.0
 40
32.0
 40
33.0
 40
33.0
 40
33.0
 40
34.0
 40
34.0
 40
34.0
 40
35.0
 40
35.0
 40
35.0
 40
36.0
 40
36.0
 40
36.0
 40
37.0
 40
37.0
 40
37.0
 40
38.0
 40
38.0
 40
38.0
 40
39.0
 40
39.0
 40
39.0
 40
40.0
 40
40.0
 40
40.0
 40
41.0
 40
41.0
 40
41.0
 40
42.0
 40
42.0
 40
42.0
 40
43.0
 40
43.0
 40
43.0
 40
44.0
 40
44.0
 40
44.0
 40
45.0
 40
45.0
 40
45.0
 40
46.0
 40
46.0
 40
46.0
 40
47.0
 40
47.0
 40
47.0
 40
48.0
 40
48.0
 40
48.0
 40
49.0
 40
49.0
 40
49.0
 40
50.0
 40
50.0
 40
50.0
 40
51.0
 40
51.0
 40
51.0
 40
52.0
 40
52.0
 40
52.0
 40
53.0
 40
53.0
 40
53.0
 40
54.0
 40
54.0
 40
54.0
 40
55.0
 40
55.0
 40
55.0
 40
56.0
 40
56.0
 40
56.0
 40
57.0
 40
57.0
 40
57.0
 40
58.0
 40
58.0
 40
58.0
 40
59.0
 40
59.0
 40
59.0
 40
60.0
 40
60.0
 40
60.0
 40
61.0
 40
61.0
 40
61.0
 40
62.0
 40
62.0
 40
62.0
 40
63.0
 40
63.0
 40
63.0
 40
64.0
 40
64.0
 40
64.0
 40
65.0
 40
65.0
 40
65.0
 40
66.0
 40
66.0
 40
66.0
 40
67.0
 40
67.0
 40
67.0
 40
68.0
 40
68.0
 40
68.0
 40
69.0
 40
69.0
 40
69.0
 40
70.0
 40
70.0
 40
70.0
 40
71.0
 40
71.0
 40
71.0
 40
72.0
 40
72.0
 40
72.0
 40
73.0
 40
73.0
 40
73.0
 40
73.0
 10
5.356953913799568
 20
-6.722236111111114
 30
0.0
 10
5.356953913799568
 20
-6.722236111111114
 30
0.0
 10
5.23110530586766
 20
-6.855143055555547
 30
0.0
 10
4.956637257245752
 20
-6.742431944444434
 30
0.0
 10
4.682121986402813
 20
-6.629693055555562
 30
0.0
 10
4.520548379373395
 20
-6.354098611111112
 30
0.0
 10
4.398023382468637
 20
-6.132487499999999
 30
0.0
 10
4.398023382468637
 20
-6.132487499999999
 30
0.0
 10
4.397230326933115
 20
-6.067152777777765
 30
0.0
 10
4.422084492971913
 20
-5.933105555555559
 30
0.0
 10
4.446926159011026
 20
-5.79907222222222
 30
0.0
 10
4.446845603457505
 20
-5.582858333333332
 30
0.0
 10
4.391871993735145
 20
-5.479288888888883
 30
0.0
 10
4.336899772901638
 20
-5.375745833333339
 30
0.0
 10
4.27439977448052
 20
-5.310234722222225
 30
0.0
 10
4.226338664583535
 20
-5.379598611111103
 30
0.0
 10
4.178269221353426
 20
-5.448974999999993
 30
0.0
 10
4.215691442630284
 20
-5.519897222222223
 30
0.0
 10
4.191948387674529
 20
-5.535780555555548
 30
0.0
 10
4.16823311049585
 20
-5.551650000000008
 30
0.0
 10
4.162963666184522
 20
-5.569512499999998
 30
0.0
 10
4.118015056208908
 20
-5.528008333333319
 30
0.0
 10
4.073052557344757
 20
-5.486477777777787
 30
0.0
 10
4.050191446811166
 20
-5.437363888888891
 30
0.0
 10
4.03221922504296
 20
-5.363470833333344
 30
0.0
 10
4.014255336607877
 20
-5.289551388888892
 30
0.0
 10
3.934441449735257
 20
-4.956312499999992
 30
0.0
 10
3.739841454651266
 20
-4.847412499999993
 30
0.0
 10
3.545220626234469
 20
-4.738525000000006
 30
0.0
 10
3.571133125579864
 20
-4.832886111111116
 30
0.0
 10
3.576809514325355
 20
-4.864908333333333
 30
0.0
 10
3.582472222222223
 20
-4.89689166666666
 30
0.0
 10
3.635152777777774
 20
-4.994831944444437
 30
0.0
 10
3.602865069222692
 20
-5.027886111111102
 30
0.0
 10
3.570576181149489
 20
-5.060966666666673
 30
0.0
 10
3.554755348215824
 20
-5.080159722222232
 30
0.0
 10
3.491020627603676
 20
-5.055473611111109
 30
0.0
 10
3.427266462547575
 20
-5.030843055555553
 30
0.0
 10
3.154445636106276
 20
-4.921413888888891
 30
0.0
 10
3.112223414950677
 20
-4.767713888888895
 30
0.0
 10
3.101263888888891
 20
-4.727769444444448
 30
0.0
 10
3.07623313808209
 20
-4.758870833333327
 30
0.0
 10
3.087849804455295
 20
-4.795477777777781
 30
0.0
 10
3.0994664708285
 20
-4.832072222222223
 30
0.0
 10
3.153509525018813
 20
-4.957750000000007
 30
0.0
 10
3.298563688021103
 20
-5.03967222222223
 30
0.0
 10
3.443603962134855
 20
-5.121568055555549
 30
0.0
 10
3.506042849446405
 20
-5.161430555555549
 30
0.0
 10
3.599303958201542
 20
-5.245090277777788
 30
0.0
 10
3.692524789179919
 20
-5.328762500000013
 30
0.0
 10
3.762192842975512
 20
-5.340861111111104
 30
0.0
 10
3.870055555555559
 20
-5.489162499999995
 30
0.0
 10
3.977938670858647
 20
-5.637505555555562
 30
0.0
 10
4.061624999999998
 20
-5.734713888888892
 30
0.0
 10
4.099724778893182
 20
-5.810926388888876
 30
0.0
 10
4.137810889042157
 20
-5.887070833333332
 30
0.0
 10
4.13726783350032
 20
-5.941880555555549
 30
0.0
 10
4.186916666666662
 20
-6.028904166666658
 30
0.0
 10
4.236571997658353
 20
-6.115940277777781
 30
0.0
 10
4.249992830652647
 20
-6.221570833333342
 30
0.0
 10
4.277173385521564
 20
-6.292141666666667
 30
0.0
 10
4.304388888888891
 20
-6.362738888888897
 30
0.0
 10
4.415419215362514
 20
-6.633504166666675
 30
0.0
 10
4.710570596795251
 20
-6.841227777777779
 30
0.0
 10
5.005696978228621
 20
-7.048990277777774
 30
0.0
 10
5.308159470587776
 20
-7.066162499999993
 30
0.0
 10
5.428548356435385
 20
-7.062391666666675
 30
0.0
 10
5.450995578090542
 20
-7.06171388888889
 30
0.0
 10
5.494540021434962
 20
-7.058322222222209
 30
0.0
 10
5.467874999999998
 20
-7.080526388888883
 30
0.0
 10
5.441162245005621
 20
-7.102633333333339
 30
0.0
 10
5.375555555555555
 20
-7.147962499999998
 30
0.0
 10
5.362033080337924
 20
-7.155598611111119
 30
0.0
 10
5.362033080337924
 20
-7.155598611111119
 30
0.0
 10
5.37260530229307
 20
-7.16284166666666
 30
0.0
 10
5.420776134409506
 20
-7.153509722222225
 30
0.0
 10
5.468926133193134
 20
-7.144179166666667
 30
0.0
 10
5.582051130335357
 20
-7.075656944444441
 30
0.0
 10
5.600192796543726
 20
-7.070679166666675
 30
0.0
 10
5.618313629419289
 20
-7.065673611111101
 30
0.0
 10
5.628865018041627
 20
-7.055745833333326
 30
0.0
 10
5.607116407479932
 20
-7.07888472222223
 30
0.0
 10
5.585408074694997
 20
-7.102037500000001
 30
0.0
 10
5.484659466129011
 20
-7.246798611111116
 30
0.0
 10
5.493956688116365
 20
-7.27783194444444
 30
0.0
 10
5.503248354548305
 20
-7.308824999999993
 30
0.0
 10
5.525695576203462
 20
-7.308119444444451
 30
0.0
 10
5.610826129608439
 20
-7.285508333333332
 30
0.0
 10
5.695942794124877
 20
-7.262912500000008
 30
0.0
 10
5.703125
 20
-7.218018055555553
 30
0.0
 10
5.783637236353974
 20
-7.209975000000011
 30
0.0
 10
5.864162234319742
 20
-7.201890277777768
 30
0.0
 10
6.056809451675286
 20
-7.147379166666673
 30
0.0
 10
6.127867783213534
 20
-7.022487499999998
 30
0.0
 10
6.127867783213534
 20
-7.022487499999998
 30
0.0
 10
6.11900528343742
 20
-7.223198611111102
 30
0.0
 10
6.132269171991235
 20
-7.251559722222232
 30
0.0
 10
6.14551500498995
 20
-7.279934722222227
 30
0.0
 10
6.14428028279892
 20
-7.329427777777785
 30
0.0
 10
6.142734449504638
 20
-7.354858333333342
 30
0.0
 10
6.141092782879443
 20
-7.380290277777779
 30
0.0
 10
6.145826116093202
 20
-7.451537500000009
 30
0.0
 10
6.169291666666671
 20
-7.463052777777774
 30
0.0
 10
6.19274833713007
 20
-7.474568055555563
 30
0.0
 10
6.25893861323574
 20
-7.400187500000002
 30
0.0
 10
6.271748335134362
 20
-7.36157222222222
 30
0.0
 10
6.284573334810375
 20
-7.322916666666666
 30
0.0
 10
6.299017778889922
 20
-7.284586111111113
 30
0.0
 10
6.300598334405549
 20
-7.250583333333325
 30
0.0
 10
6.300598334405549
 20
-7.250583333333325
 30
0.0
 10
6.364183055021486
 20
-7.379869444444441
 30
0.0
 10
6.427347222222225
 20
-7.433526388888898
 30
0.0
 10
6.490491385164002
 20
-7.487237499999992
 30
0.0
 10
6.562472222222216
 20
-7.496324999999993
 30
0.0
 10
6.586595549402873
 20
-7.521729166666672
 30
0.0
 10
6.610744159903939
 20
-7.547119444444434
 30
0.0
 10
6.622951104040011
 20
-7.54608888888889
 30
0.0
 10
6.666544158494313
 20
-7.551283333333331
 30
0.0
 10
6.710116379615808
 20
-7.556505555555557
 30
0.0
 10
6.800563599553142
 20
-7.576130555555563
 30
0.0
 10
6.908820541262785
 20
-7.566663888888898
 30
0.0
 10
7.017062205195038
 20
-7.55720972222222
 30
0.0
 10
7.342773308077994
 20
-7.515380555555566
 30
0.0
 10
7.462605249495229
 20
-7.516831944444448
 30
0.0
 10
7.582396913135703
 20
-7.51825694444445
 30
0.0
 10
7.804809407517091
 20
-7.495388888888884
 30
0.0
 10
7.881659405575697
 20
-7.454006944444447
 30
0.0
 10
7.958481625857226
 20
-7.412611111111119
 30
0.0
 10
7.957492736993319
 20
-7.417562500000005
 30
0.0
 10
7.986680555555544
 20
-7.313544444444434
 30
0.0
 10
8.01585523551896
 20
-7.209513888888877
 30
0.0
 10
8.05737329002568
 20
-6.982679166666659
 30
0.0
 10
8.078653845043643
 20
-6.875379166666662
 30
0.0
 10
8.099908011173385
 20
-6.768093055555558
 30
0.0
 10
8.117173288515005
 20
-6.554849999999988
 30
0.0
 10
8.06707051200293
 20
-6.327501388888877
 30
0.0
 10
8.054442734544157
 20
-6.270073611111102
 30
0.0
 10
8.07271356741593
 20
-6.160468055555561
 30
0.0
 10
8.087158011495477
 20
-6.104994444444451
 30
0.0
 10
8.101562177798263
 20
-6.04950694444445
 30
0.0
 10
8.125528843859481
 20
-5.980481944444439
 30
0.0
 10
8.114719121910335
 20
-5.853095833333327
 30
0.0
 10
8.103935788849412
 20
-5.725694444444444
 30
0.0
 10
8.125324677197971
 20
-5.687038888888891
 30
0.0
 10
8.114583333333332
 20
-5.585408333333336
 30
0.0
 10
8.103841344407353
 20
-5.483751388888877
 30
0.0
 10
8.022935790895644
 20
-5.285888888888899
 30
0.0
 10
7.98588023627619
 20
-5.213297222222232
 30
0.0
 10
7.948730237214678
 20
-5.140761111111108
 30
0.0
 10
7.969862181125285
 20
-5.138115277777766
 30
0.0
 10
7.953260792655783
 20
-5.083347222222224
 30
0.0
 10
7.93665940418628
 20
-5.0285513888889
 30
0.0
 10
7.887030238773352
 20
-4.967272222222214
 30
0.0
 10
7.822617740400548
 20
-4.954494444444435
 30
0.0
 10
7.758246908693359
 20
-4.941758333333332
 30
0.0
 10
7.746052464556972
 20
-4.942790277777779
 30
0.0
 10
7.664102466627203
 20
-4.89736666666666
 30
0.0
 10
7.58215277777779
 20
-4.851983333333338
 30
0.0
 10
7.481349693466149
 20
-4.780518055555553
 30
0.0
 10
7.362806640905243
 20
-4.75533055555555
 30
0.0
 10
7.244276088344021
 20
-4.730143055555547
 30
0.0
 10
7.228027777777773
 20
-4.68231944444445
 30
0.0
 10
7.076178870368292
 20
-4.669352777777779
 30
0.0
 10
6.924316374204661
 20
-4.656466666666675
 30
0.0
 10
6.887064986256822
 20
-4.679931944444434
 30
0.0
 10
6.801201099537037
 20
-4.662909722222214
 30
0.0
 10
6.715345546150375
 20
-4.645915277777779
 30
0.0
 10
6.690449713445964
 20
-4.580959722222208
 30
0.0
 10
6.485764996394512
 20
-4.540431944444435
 30
0.0
 10
6.281066390454523
 20
-4.499891666666675
 30
0.0
 10
6.209092781161618
 20
-4.499322222222215
 30
0.0
 10
6.056510840571718
 20
-4.446790277777786
 30
0.0
 10
5.903903899982449
 20
-4.39425972222221
 30
0.0
 10
5.78511501409442
 20
-4.340074999999993
 30
0.0
 10
5.615180555555551
 20
-4.431437500000003
 30
0.0
 10
5.582519185879088
 20
-4.448974999999993
 30
0.0
 10
5.49090529930456
 20
-4.521755555555552
 30
0.0
 10
5.451565022520602
 20
-4.659830555555547
 30
0.0
 10
5.412217801292374
 20
-4.79781111111111
 30
0.0
 10
5.379977524329054
 20
-4.865206944444455
 30
0.0
 10
5.345410858535615
 20
-4.91845694444444
 30
0.0
 10
5.310824748298223
 20
-4.971652777777788
 30
0.0
 10
5.23556086131066
 20
-5.135158333333341
 30
0.0
 10
5.192931695720896
 20
-5.289727777777771
 30
0.0
 10
5.150309474575402
 20
-5.44424166666666
 30
0.0
 10
5.116224753214232
 20
-5.581651388888885
 30
0.0
 10
5.145094196929373
 20
-5.66971805555555
 30
0.0
 10
5.173956696200245
 20
-5.757772222222229
 30
0.0
 10
5.251234472025822
 20
-5.930922222222231
 30
0.0
 10
5.437581689540517
 20
-6.05533888888888
 30
0.0
 10
5.437581689540517
 20
-6.05533888888888
 30
0.0
 10
5.288173359981556
 20
-6.108113888888889
 30
0.0
 10
5.252888888888884
 20
-6.130262499999995
 30
0.0
 10
5.217637250652337
 20
-6.15246527777779
 30
0.0
 10
5.206740028705402
 20
-6.164034722222216
 30
0.0
 10
5.179035862738601
 20
-6.174004166666665
 30
0.0
 10
5.151326141216385
 20
-6.183959722222223
 30
0.0
 10
5.101244198037117
 20
-6.237494444444438
 30
0.0
 10
5.17719836278502
 20
-6.243977777777773
 30
0.0
 10
5.253105305311894
 20
-6.25043472222223
 30
0.0
 10
5.258767805168847
 20
-6.265272222222215
 30
0.0
 10
5.30728447060988
 20
-6.262872222222212
 30
0.0
 10
5.355773358273836
 20
-6.260470833333329
 30
0.0
 10
5.361009469252672
 20
-6.234022222222215
 30
0.0
 10
5.407633079185971
 20
-6.275879166666678
 30
0.0
 10
5.454263888888893
 20
-6.317722222222224
 30
0.0
 10
5.466823355468478
 20
-6.332234722222235
 30
0.0
 10
5.499816410190558
 20
-6.330173611111099
 30
0.0
 10
5.499816410190558
 20
-6.330173611111099
 30
0.0
 10
5.360724747037643
 20
-6.417574999999992
 30
0.0
 10
5.335673358781605
 20
-6.448648611111113
 30
0.0
 10
5.310669192746596
 20
-6.479722222222234
 30
0.0
 10
5.259541666666665
 20
-6.521063888888875
 30
0.0
 10
5.233852528020482
 20
-6.529690277777767
 30
0.0
 10
5.208095584226712
 20
-6.538316666666661
 30
0.0
 10
5.06983030994181
 20
-6.560695833333334
 30
0.0
 10
5.073228920967065
 20
-6.612847222222221
 30
0.0
 10
5.076612254214928
 20
-6.664984722222218
 30
0.0
 10
5.197251140056222
 20
-6.731743055555549
 30
0.0
 10
5.356953913799568
 20
-6.722236111111114
 30
0.0
  0
HATCH
  5
42
330
1F
100
AcDbEntity
  8
Layer 1
 62
     7
420
 16777215
100
AcDbHatch
 10
0.0
 20
0.0
 30
0.0
210
0.0
220
0.0
230
1.0
  2
SOLID
 70
     1
 71
     0
 91
        1
 92
        1
 93
        1
 72
     4
 94
        3
 73
     0
 74
     1
 95
      224
 96
      220
 40
0.0
 40
0.0
 40
0.0
 40
0.0
 40
1.0
 40
1.0
 40
1.0
 40
2.0
 40
2.0
 40
2.0
 40
3.0
 40
3.0
 40
3.0
 40
4.0
 40
4.0
 40
4.0
 40
5.0
 40
5.0
 40
5.0
 40
6.0
 40
6.0
 40
6.0
 40
7.0
 40
7.0
 40
7.0
 40
8.0
 40
8.0
 40
8.0
 40
9.0
 40
9.0
 40
9.0
 40
10.0
 40
10.0
 40
10.0
 40
11.0
 40
11.0
 40
11.0
 40
12.0
 40
12.0
 40
12.0
 40
13.0
 40
13.0
 40
13.0
 40
14.0
 40
14.0
 40
14.0
 40
15.0
 40
15.0
 40
15.0
 40
16.0
 40
16.0
 40
16.0
 40
17.0
 40
17.0
 40
17.0
 40
18.0
 40
18.0
 40
18.0
 40
19.0
 40
19.0
 40
19.0
 40
20.0
 40
20.0
 40
20.0
 40
21.0
 40
21.0
 40
21.0
 40
22.0
 40
22.0
 40
22.0
 40
23.0
 40
23.0
 40
23.0
 40
24.0
 40
24.0
 40
24.0
 40
25.0
 40
25.0
 40
25.0
 40
26.0
 40
26.0
 40
26.0
 40
27.0
 40
27.0
 40
27.0
 40
28.0
 40
28.0
 40
28.0
 40
29.0
 40
29.0
 40
29.0
 40
30.0
 40
30.0
 40
30.0
 40
31.0
 40
31.0
 40
31.0
 40
32.0
 40
32.0
 40
32.0
 40
33.0
 40
33.0
 40
33.0
 40
34.0
 40
34.0
 40
34.0
 40
35.0
 40
35.0
 40
35.0
 40
36.0
 40
36.0
 40
36.0
 40
37.0
 40
37.0
 40
37.0
 40
38.0
 40
38.0
 40
38.0
 40
39.0
 40
39.0
 40
39.0
 40
40.0
 40
40.0
 40
40.0
 40
41.0
 40
41.0
 40
41.0
 40
42.0
 40
42.0
 40
42.0
 40
43.0
 40
43.0
 40
43.0
 40
44.0
 40
44.0
 40
44.0
 40
45.0
 40
45.0
 40
45.0
 40
46.0
 40
46.0
 40
46.0
 40
47.0
 40
47.0
 40
47.0
 40
48.0
 40
48.0
 40
48.0
 40
49.0
 40
49.0
 40
49.0
 40
50.0
 40
50.0
 40
50.0
 40
51.0
 40
51.0
 40
51.0
 40
52.0
 40
52.0
 40
52.0
 40
53.0
 40
53.0
 40
53.0
 40
54.0
 40
54.0
 40
54.0
 40
55.0
 40
55.0
 40
55.0
 40
56.0
 40
56.0
 40
56.0
 40
57.0
 40
57.0
 40
57.0
 40
58.0
 40
58.0
 40
58.0
 40
59.0
 40
59.0
 40
59.0
 40
60.0
 40
60.0
 40
60.0
 40
61.0
 40
61.0
 40
61.0
 40
62.0
 40
62.0
 40
62.0
 40
63.0
 40
63.0
 40
63.0
 40
64.0
 40
64.0
 40
64.0
 40
65.0
 40
65.0
 40
65.0
 40
66.0
 40
66.0
 40
66.0
 40
67.0
 40
67.0
 40
67.0
 40
68.0
 40
68.0
 40
68.0
 40
69.0
 40
69.0
 40
69.0
 40
70.0
 40
70.0
 40
70.0
 40
71.0
 40
71.0
 40
71.0
 40
72.0
 40
72.0
 40
72.0
 40
73.0
 40
73.0
 40
73.0
 40
73.0
 10
5.356953913799568
 20
-6.722236111111114
 10
5.356953913799568
 20
-6.722236111111114
 10
5.23110530586766
 20
-6.855143055555547
 10
4.956637257245752
 20
-6.742431944444434
 10
4.682121986402813
 20
-6.629693055555562
 10
4.520548379373395
 20
-6.354098611111112
 10
4.398023382468637
 20
-6.132487499999999
 10
4.398023382468637
 20
-6.132487499999999
 10
4.397230326933115
 20
-6.067152777777765
 10
4.422084492971913
 20
-5.933105555555559
 10
4.446926159011026
 20
-5.79907222222222
 10
4.446845603457505
 20
-5.582858333333332
 10
4.391871993735145
 20
-5.479288888888883
 10
4.336899772901638
 20
-5.375745833333339
 10
4.27439977448052
 20
-5.310234722222225
 10
4.226338664583535
 20
-5.379598611111103
 10
4.178269221353426
 20
-5.448974999999993
 10
4.215691442630284
 20
-5.519897222222223
 10
4.191948387674529
 20
-5.535780555555548
 10
4.16823311049585
 20
-5.551650000000008
 10
4.162963666184522
 20
-5.569512499999998
 10
4.118015056208908
 20
-5.528008333333319
 10
4.073052557344757
 20
-5.486477777777787
 10
4.050191446811166
 20
-5.437363888888891
 10
4.03221922504296
 20
-5.363470833333344
 10
4.014255336607877
 20
-5.289551388888892
 10
3.934441449735257
 20
-4.956312499999992
 10
3.739841454651266
 20
-4.847412499999993
 10
3.545220626234469
 20
-4.738525000000006
 10
3.571133125579864
 20
-4.832886111111116
 10
3.576809514325355
 20
-4.864908333333333
 10
3.582472222222223
 20
-4.89689166666666
 10
3.635152777777774
 20
-4.994831944444437
 10
3.602865069222692
 20
-5.027886111111102
 10
3.570576181149489
 20
-5.060966666666673
 10
3.554755348215824
 20
-5.080159722222232
 10
3.491020627603676
 20
-5.055473611111109
 10
3.427266462547575
 20
-5.030843055555553
 10
3.154445636106276
 20
-4.921413888888891
 10
3.112223414950677
 20
-4.767713888888895
 10
3.101263888888891
 20
-4.727769444444448
 10
3.07623313808209
 20
-4.758870833333327
 10
3.087849804455295
 20
-4.795477777777781
 10
3.0994664708285
 20
-4.832072222222223
 10
3.153509525018813
 20
-4.957750000000007
 10
3.298563688021103
 20
-5.03967222222223
 10
3.443603962134855
 20
-5.121568055555549
 10
3.506042849446405
 20
-5.161430555555549
 10
3.599303958201542
 20
-5.245090277777788
 10
3.692524789179919
 20
-5.328762500000013
 10
3.762192842975512
 20
-5.340861111111104
 10
3.870055555555559
 20
-5.489162499999995
 10
3.977938670858647
 20
-5.637505555555562
 10
4.061624999999998
 20
-5.734713888888892
 10
4.099724778893182
 20
-5.810926388888876
 10
4.137810889042157
 20
-5.887070833333332
 10
4.13726783350032
 20
-5.941880555555549
 10
4.186916666666662
 20
-6.028904166666658
 10
4.236571997658353
 20
-6.115940277777781
 10
4.249992830652647
 20
-6.221570833333342
 10
4.277173385521564
 20
-6.292141666666667
 10
4.304388888888891
 20
-6.362738888888897
 10
4.415419215362514
 20
-6.633504166666675
 10
4.710570596795251
 20
-6.841227777777779
 10
5.005696978228621
 20
-7.048990277777774
 10
5.308159470587776
 20
-7.066162499999993
 10
5.428548356435385
 20
-7.062391666666675
 10
5.450995578090542
 20
-7.06171388888889
 10
5.494540021434962
 20
-7.058322222222209
 10
5.467874999999998
 20
-7.080526388888883
 10
5.441162245005621
 20
-7.102633333333339
 10
5.375555555555555
 20
-7.147962499999998
 10
5.362033080337924
 20
-7.155598611111119
 10
5.362033080337924
 20
-7.155598611111119
 10
5.37260530229307
 20
-7.16284166666666
 10
5.420776134409506
 20
-7.153509722222225
 10
5.468926133193134
 20
-7.144179166666667
 10
5.582051130335357
 20
-7.075656944444441
 10
5.600192796543726
 20
-7.070679166666675
 10
5.618313629419289
 20
-7.065673611111101
 10
5.628865018041627
 20
-7.055745833333326
 10
5.607116407479932
 20
-7.07888472222223
 10
5.585408074694997
 20
-7.102037500000001
 10
5.484659466129011
 20
-7.246798611111116
 10
5.493956688116365
 20
-7.27783194444444
 10
5.503248354548305
 20
-7.308824999999993
 10
5.525695576203462
 20
-7.308119444444451
 10
5.610826129608439
 20
-7.285508333333332
 10
5.695942794124877
 20
-7.262912500000008
 10
5.703125
 20
-7.218018055555553
 10
5.783637236353974
 20
-7.209975000000011
 10
5.864162234319742
 20
-7.201890277777768
 10
6.056809451675286
 20
-7.147379166666673
 10
6.127867783213534
 20
-7.022487499999998
 10
6.127867783213534
 20
-7.022487499999998
 10
6.11900528343742
 20
-7.223198611111102
 10
6.132269171991235
 20
-7.251559722222232
 10
6.14551500498995
 20
-7.279934722222227
 10
6.14428028279892
 20
-7.329427777777785
 10
6.142734449504638
 20
-7.354858333333342
 10
6.141092782879443
 20
-7.380290277777779
 10
6.145826116093202
 20
-7.451537500000009
 10
6.169291666666671
 20
-7.463052777777774
 10
6.19274833713007
 20
-7.474568055555563
 10
6.25893861323574
 20
-7.400187500000002
 10
6.271748335134362
 20
-7.36157222222222
 10
6.284573334810375
 20
-7.322916666666666
 10
6.299017778889922
 20
-7.284586111111113
 10
6.300598334405549
 20
-7.250583333333325
 10
6.300598334405549
 20
-7.250583333333325
 10
6.364183055021486
 20
-7.379869444444441
 10
6.427347222222225
 20
-7.433526388888898
 10
6.490491385164002
 20
-7.487237499999992
 10
6.562472222222216
 20
-7.496324999999993
 10
6.586595549402873
 20
-7.521729166666672
 10
6.610744159903939
 20
-7.547119444444434
 10
6.622951104040011
 20
-7.54608888888889
 10
6.666544158494313
 20
-7.551283333333331
 10
6.710116379615808
 20
-7.556505555555557
 10
6.800563599553142
 20
-7.576130555555563
 10
6.908820541262785
 20
-7.566663888888898
 10
7.017062205195038
 20
-7.55720972222222
 10
7.342773308077994
 20
-7.515380555555566
 10
7.462605249495229
 20
-7.516831944444448
 10
7.582396913135703
 20
-7.51825694444445
 10
7.804809407517091
 20
-7.495388888888884
 10
7.881659405575697
 20
-7.454006944444447
 10
7.958481625857226
 20
-7.412611111111119
 10
7.957492736993319
 20
-7.417562500000005
 10
7.986680555555544
 20
-7.313544444444434
 10
8.01585523551896
 20
-7.209513888888877
 10
8.05737329002568
 20
-6.982679166666659
 10
8.078653845043643
 20
-6.875379166666662
 10
8.099908011173385
 20
-6.768093055555558
 10
8.117173288515005
 20
-6.554849999999988
 10
8.06707051200293
 20
-6.327501388888877
 10
8.054442734544157
 20
-6.270073611111102
 10
8.07271356741593
 20
-6.160468055555561
 10
8.087158011495477
 20
-6.104994444444451
 10
8.101562177798263
 20
-6.04950694444445
 10
8.125528843859481
 20
-5.980481944444439
 10
8.114719121910335
 20
-5.853095833333327
 10
8.103935788849412
 20
-5.725694444444444
 10
8.125324677197971
 20
-5.687038888888891
 10
8.114583333333332
 20
-5.585408333333336
 10
8.103841344407353
 20
-5.483751388888877
 10
8.022935790895644
 20
-5.285888888888899
 10
7.98588023627619
 20
-5.213297222222232
 10
7.948730237214678
 20
-5.140761111111108
 10
7.969862181125285
 20
-5.138115277777766
 10
7.953260792655783
 20
-5.083347222222224
 10
7.93665940418628
 20
-5.0285513888889
 10
7.887030238773352
 20
-4.967272222222214
 10
7.822617740400548
 20
-4.954494444444435
 10
7.758246908693359
 20
-4.941758333333332
 10
7.746052464556972
 20
-4.942790277777779
 10
7.664102466627203
 20
-4.89736666666666
 10
7.58215277777779
 20
-4.851983333333338
 10
7.481349693466149
 20
-4.780518055555553
 10
7.362806640905243
 20
-4.75533055555555
 10
7.244276088344021
 20
-4.730143055555547
 10
7.228027777777773
 20
-4.68231944444445
 10
7.076178870368292
 20
-4.669352777777779
 10
6.924316374204661
 20
-4.656466666666675
 10
6.887064986256822
 20
-4.679931944444434
 10
6.801201099537037
 20
-4.662909722222214
 10
6.715345546150375
 20
-4.645915277777779
 10
6.690449713445964
 20
-4.580959722222208
 10
6.485764996394512
 20
-4.540431944444435
 10
6.281066390454523
 20
-4.499891666666675
 10
6.209092781161618
 20
-4.499322222222215
 10
6.056510840571718
 20
-4.446790277777786
 10
5.903903899982449
 20
-4.39425972222221
 10
5.78511501409442
 20
-4.340074999999993
 10
5.615180555555551
 20
-4.431437500000003
 10
5.582519185879088
 20
-4.448974999999993
 10
5.49090529930456
 20
-4.521755555555552
 10
5.451565022520602
 20
-4.659830555555547
 10
5.412217801292374
 20
-4.79781111111111
 10
5.379977524329054
 20
-4.865206944444455
 10
5.345410858535615
 20
-4.91845694444444
 10
5.310824748298223
 20
-4.971652777777788
 10
5.23556086131066
 20
-5.135158333333341
 10
5.192931695720896
 20
-5.289727777777771
 10
5.150309474575402
 20
-5.44424166666666
 10
5.116224753214232
 20
-5.581651388888885
 10
5.145094196929373
 20
-5.66971805555555
 10
5.173956696200245
 20
-5.757772222222229
 10
5.251234472025822
 20
-5.930922222222231
 10
5.437581689540517
 20
-6.05533888888888
 10
5.437581689540517
 20
-6.05533888888888
 10
5.288173359981556
 20
-6.108113888888889
 10
5.252888888888884
 20
-6.130262499999995
 10
5.217637250652337
 20
-6.15246527777779
 10
5.206740028705402
 20
-6.164034722222216
 10
5.179035862738601
 20
-6.174004166666665
 10
5.151326141216385
 20
-6.183959722222223
 10
5.101244198037117
 20
-6.237494444444438
 10
5.17719836278502
 20
-6.243977777777773
 10
5.253105305311894
 20
-6.25043472222223
 10
5.258767805168847
 20
-6.265272222222215
 10
5.30728447060988
 20
-6.262872222222212
 10
5.355773358273836
 20
-6.260470833333329
 10
5.361009469252672
 20
-6.234022222222215
 10
5.407633079185971
 20
-6.275879166666678
 10
5.454263888888893
 20
-6.317722222222224
 10
5.466823355468478
 20
-6.332234722222235
 10
5.499816410190558
 20
-6.330173611111099
 10
5.499816410190558
 20
-6.330173611111099
 10
5.360724747037643
 20
-6.417574999999992
 10
5.335673358781605
 20
-6.448648611111113
 10
5.310669192746596
 20
-6.479722222222234
 10
5.259541666666665
 20
-6.521063888888875
 10
5.233852528020482
 20
-6.529690277777767
 10
5.208095584226712
 20
-6.538316666666661
 10
5.06983030994181
 20
-6.560695833333334
 10
5.073228920967065
 20
-6.612847222222221
 10
5.076612254214928
 20
-6.664984722222218
 10
5.197251140056222
 20
-6.731743055555549
 10
5.356953913799568
 20
-6.722236111111114
 97
        0
 97
        0
 75
     2
 76
     1
 98
        0
  0
ENDSEC
  0
SECTION
  2
OBJECTS
  0
DICTIONARY
  5
C
330
0
100
AcDbDictionary
281
     1
  3
ACAD_GROUP
350
D
  3
ACAD_LAYOUT
350
1A
  3
ACAD_MATERIAL
350
3B
  3
ACAD_MLEADERSTYLE
350
44
  3
ACAD_MLINESTYLE
350
17
  3
ACAD_PLOTSETTINGS
350
19
  3
ACAD_PLOTSTYLENAME
350
E
  3
ACAD_TABLESTYLE
350
43
  3
ACAD_VISUALSTYLE
350
2A
  0
SUN
  5
3F
330
29
100
AcDbSun
 90
        1
290
     0
 63
     7
421
 16777215
 40
1.0
291
     1
 91
  2455826
 92
 54000000
292
     0
 70
     2
 71
   256
280
     1
  0
DICTIONARY
  5
D
102
{ACAD_REACTORS
330
C
102
}
330
C
100
AcDbDictionary
281
     1
  0
DICTIONARY
  5
1A
102
{ACAD_REACTORS
330
C
102
}
330
C
100
AcDbDictionary
281
     1
  3
Layout1
350
1E
  3
Layout2
350
26
  3
Model
350
22
  0
DICTIONARY
  5
3B
102
{ACAD_REACTORS
330
C
102
}
330
C
100
AcDbDictionary
281
     1
  3
ByBlock
350
3D
  3
ByLayer
350
3C
  3
Global
350
3E
  0
DICTIONARY
  5
44
102
{ACAD_REACTORS
330
C
102
}
330
C
100
AcDbDictionary
281
     1
  0
DICTIONARY
  5
17
102
{ACAD_REACTORS
330
C
102
}
330
C
100
AcDbDictionary
281
     1
  3
Standard
350
18
  0
DICTIONARY
  5
19
102
{ACAD_REACTORS
330
C
102
}
330
C
100
AcDbDictionary
281
     1
  0
ACDBDICTIONARYWDFLT
  5
E
102
{ACAD_REACTORS
330
C
102
}
330
C
100
AcDbDictionary
281
     1
  3
Normal
350
F
100
AcDbDictionaryWithDefault
340
F
  0
DICTIONARY
  5
43
102
{ACAD_REACTORS
330
C
102
}
330
C
100
AcDbDictionary
281
     1
  0
DICTIONARY
  5
2A
102
{ACAD_REACTORS
330
C
102
}
330
C
100
AcDbDictionary
281
     1
  3
2dWireframe
350
2F
  3
3D Hidden
350
31
  3
3dWireframe
350
30
  3
Basic
350
32
  3
Brighten
350
36
  3
ColorChange
350
3A
  3
Conceptual
350
34
  3
Dim
350
35
  3
Facepattern
350
39
  3
Flat
350
2B
  3
FlatWithEdges
350
2C
  3
Gouraud
350
2D
  3
GouraudWithEdges
350
2E
  3
Linepattern
350
38
  3
Realistic
350
33
  3
Thicken
350
37
  0
LAYOUT
  5
1E
102
{ACAD_REACTORS
330
1A
102
}
330
1A
100
AcDbPlotSettings
  1

  2
none_device
  4

  6

 40
0.0
 41
0.0
 42
0.0
 43
0.0
 44
0.0
 45
0.0
 46
0.0
 47
0.0
 48
0.0
 49
0.0
140
0.0
141
0.0
142
1.0
143
1.0
 70
   688
 72
     0
 73
     0
 74
     5
  7

 75
    16
 76
     0
 77
     2
 78
   300
147
1.0
148
0.0
149
0.0
100
AcDbLayout
  1
Layout1
 70
     1
 71
     1
 10
0.0
 20
0.0
 11
12.0
 21
9.0
 12
0.0
 22
0.0
 32
0.0
 14
1.000000000000000E+20
 24
1.000000000000000E+20
 34
1.000000000000000E+20
 15
-1.000000000000000E+20
 25
-1.000000000000000E+20
 35
-1.000000000000000E+20
146
0.0
 13
0.0
 23
0.0
 33
0.0
 16
1.0
 26
0.0
 36
0.0
 17
0.0
 27
1.0
 37
0.0
 76
     0
330
1B
  0
LAYOUT
  5
26
102
{ACAD_REACTORS
330
1A
102
}
330
1A
100
AcDbPlotSettings
  1

  2
none_device
  4

  6

 40
0.0
 41
0.0
 42
0.0
 43
0.0
 44
0.0
 45
0.0
 46
0.0
 47
0.0
 48
0.0
 49
0.0
140
0.0
141
0.0
142
1.0
143
1.0
 70
   688
 72
     0
 73
     0
 74
     5
  7

 75
    16
 76
     0
 77
     2
 78
   300
147
1.0
148
0.0
149
0.0
100
AcDbLayout
  1
Layout2
 70
     1
 71
     2
 10
0.0
 20
0.0
 11
0.0
 21
0.0
 12
0.0
 22
0.0
 32
0.0
 14
0.0
 24
0.0
 34
0.0
 15
0.0
 25
0.0
 35
0.0
146
0.0
 13
0.0
 23
0.0
 33
0.0
 16
1.0
 26
0.0
 36
0.0
 17
0.0
 27
1.0
 37
0.0
 76
     0
330
23
  0
LAYOUT
  5
22
102
{ACAD_REACTORS
330
1A
102
}
330
1A
100
AcDbPlotSettings
  1

  2
none_device
  4

  6

 40
0.0
 41
0.0
 42
0.0
 43
0.0
 44
0.0
 45
0.0
 46
0.0
 47
0.0
 48
0.0
 49
0.0
140
0.0
141
0.0
142
1.0
143
1.0
 70
  1712
 72
     0
 73
     0
 74
     0
  7

 75
     0
 76
     0
 77
     2
 78
   300
147
1.0
148
0.0
149
0.0
100
AcDbLayout
  1
Model
 70
     1
 71
     0
 10
0.0
 20
0.0
 11
12.0
 21
9.0
 12
0.0
 22
0.0
 32
0.0
 14
1.000000000000000E+20
 24
1.000000000000000E+20
 34
1.000000000000000E+20
 15
-1.000000000000000E+20
 25
-1.000000000000000E+20
 35
-1.000000000000000E+20
146
0.0
 13
0.0
 23
0.0
 33
0.0
 16
1.0
 26
0.0
 36
0.0
 17
0.0
 27
1.0
 37
0.0
 76
     0
330
1F
331
29
  0
MATERIAL
  5
3D
102
{ACAD_REACTORS
330
3B
102
}
330
3B
100
AcDbMaterial
  1
ByBlock
 72
     1
 94
      127
  0
MATERIAL
  5
3C
102
{ACAD_REACTORS
330
3B
102
}
330
3B
100
AcDbMaterial
  1
ByLayer
 72
     1
 94
      127
  0
MATERIAL
  5
3E
102
{ACAD_REACTORS
330
3B
102
}
330
3B
100
AcDbMaterial
  1
Global
 72
     1
 94
      127
  0
MLINESTYLE
  5
18
102
{ACAD_REACTORS
330
17
102
}
330
17
100
AcDbMlineStyle
  2
Standard
 70
     0
  3

 62
   256
 51
90.0
 52
90.0
 71
     2
 49
0.5
 62
   256
  6
BYLAYER
 49
-0.5
 62
   256
  6
BYLAYER
  0
ACDBPLACEHOLDER
  5
F
102
{ACAD_REACTORS
330
E
102
}
330
E
  0
VISUALSTYLE
  5
2F
102
{ACAD_REACTORS
330
2A
102
}
330
2A
100
AcDbVisualStyle
  2
2dWireframe
 70
     4
177
     2
291
     0
 71
     0
176
     1
 72
     2
176
     1
 73
     0
176
     1
 90
        0
176
     1
 40
-0.6
176
     1
 41
-30.0
176
     1
 62
     5
 63
     7
421
 16777215
176
     1
 74
     1
176
     1
 91
        4
176
     1
 64
     7
176
     1
 65
   257
176
     1
 75
     1
176
     1
175
     1
176
     1
 42
1.0
176
     1
 92
        0
176
     1
 66
   257
176
     1
 43
1.0
176
     1
 76
     1
176
     1
 77
     6
176
     1
 78
     2
176
     1
 67
     7
176
     1
 79
     5
176
     1
170
     0
176
     1
171
     0
176
     1
290
     0
176
     1
 93
        1
176
     1
 44
0.0
176
     1
173
     0
176
     1
  0
VISUALSTYLE
  5
31
102
{ACAD_REACTORS
330
2A
102
}
330
2A
100
AcDbVisualStyle
  2
3D Hidden
 70
     6
177
     2
291
     0
 71
     1
176
     1
 72
     2
176
     1
 73
     2
176
     1
 90
        0
176
     1
 40
-0.6
176
     1
 41
-30.0
176
     1
 62
     5
 63
     7
421
 16777215
176
     1
 74
     2
176
     1
 91
        2
176
     1
 64
     7
176
     1
 65
   257
176
     1
 75
     2
176
     1
175
     1
176
     1
 42
40.0
176
     1
 92
        0
176
     1
 66
   257
176
     1
 43
1.0
176
     1
 76
     1
176
     1
 77
     6
176
     1
 78
     2
176
     1
 67
     7
176
     1
 79
     3
176
     1
170
     0
176
     1
171
     0
176
     1
290
     0
176
     1
 93
        1
176
     1
 44
0.0
176
     1
173
     0
176
     1
  0
VISUALSTYLE
  5
30
102
{ACAD_REACTORS
330
2A
102
}
330
2A
100
AcDbVisualStyle
  2
3dWireframe
 70
     5
177
     2
291
     0
 71
     0
176
     1
 72
     2
176
     1
 73
     0
176
     1
 90
        0
176
     1
 40
-0.6
176
     1
 41
-30.0
176
     1
 62
     5
 63
     7
421
 16777215
176
     1
 74
     1
176
     1
 91
        4
176
     1
 64
     7
176
     1
 65
   257
176
     1
 75
     1
176
     1
175
     1
176
     1
 42
1.0
176
     1
 92
        0
176
     1
 66
   257
176
     1
 43
1.0
176
     1
 76
     1
176
     1
 77
     6
176
     1
 78
     2
176
     1
 67
     7
176
     1
 79
     5
176
     1
170
     0
176
     1
171
     0
176
     1
290
     0
176
     1
 93
        1
176
     1
 44
0.0
176
     1
173
     0
176
     1
  0
VISUALSTYLE
  5
32
102
{ACAD_REACTORS
330
2A
102
}
330
2A
100
AcDbVisualStyle
  2
Basic
 70
     7
177
     2
291
     1
 71
     1
176
     1
 72
     0
176
     1
 73
     1
176
     1
 90
        0
176
     1
 40
-0.6
176
     1
 41
-30.0
176
     1
 62
     5
 63
     7
421
 16777215
176
     1
 74
     0
176
     1
 91
        4
176
     1
 64
     7
176
     1
 65
   257
176
     1
 75
     1
176
     1
175
     1
176
     1
 42
1.0
176
     1
 92
        8
176
     1
 66
     7
176
     1
 43
1.0
176
     1
 76
     1
176
     1
 77
     6
176
     1
 78
     2
176
     1
 67
     7
176
     1
 79
     5
176
     1
170
     0
176
     1
171
     0
176
     1
290
     0
176
     1
 93
        1
176
     1
 44
0.0
176
     1
173
     0
176
     1
  0
VISUALSTYLE
  5
36
102
{ACAD_REACTORS
330
2A
102
}
330
2A
100
AcDbVisualStyle
  2
Brighten
 70
    12
177
     2
291
     1
 71
     2
176
     1
 72
     2
176
     1
 73
     0
176
     1
 90
        0
176
     1
 40
-0.6
176
     1
 41
-30.0
176
     1
 62
     5
 63
     7
421
 16777215
176
     1
 74
     1
176
     1
 91
        4
176
     1
 64
     7
176
     1
 65
   257
176
     1
 75
     1
176
     1
175
     1
176
     1
 42
1.0
176
     1
 92
        8
176
     1
 66
     7
176
     1
 43
1.0
176
     1
 76
     1
176
     1
 77
     6
176
     1
 78
     2
176
     1
 67
     7
176
     1
 79
     5
176
     1
170
     0
176
     1
171
     0
176
     1
290
     0
176
     1
 93
        1
176
     1
 44
50.0
176
     1
173
     0
176
     1
  0
VISUALSTYLE
  5
3A
102
{ACAD_REACTORS
330
2A
102
}
330
2A
100
AcDbVisualStyle
  2
ColorChange
 70
    16
177
     2
291
     1
 71
     2
176
     1
 72
     2
176
     1
 73
     3
176
     1
 90
        0
176
     1
 40
-0.6
176
     1
 41
-30.0
176
     1
 62
     5
 63
     8
421
  8421504
176
     1
 74
     1
176
     1
 91
        4
176
     1
 64
     7
176
     1
 65
   257
176
     1
 75
     1
176
     1
175
     1
176
     1
 42
1.0
176
     1
 92
        8
176
     1
 66
     8
424
  8421504
176
     1
 43
1.0
176
     1
 76
     1
176
     1
 77
     6
176
     1
 78
     2
176
     1
 67
     7
176
     1
 79
     5
176
     1
170
     0
176
     1
171
     0
176
     1
290
     0
176
     1
 93
        1
176
     1
 44
0.0
176
     1
173
     0
176
     1
  0
VISUALSTYLE
  5
34
102
{ACAD_REACTORS
330
2A
102
}
330
2A
100
AcDbVisualStyle
  2
Conceptual
 70
     9
177
     2
291
     0
 71
     3
176
     1
 72
     2
176
     1
 73
     0
176
     1
 90
        0
176
     1
 40
-0.6
176
     1
 41
-30.0
176
     1
 62
     5
 63
     7
421
 16777215
176
     1
 74
     2
176
     1
 91
        2
176
     1
 64
     7
176
     1
 65
   257
176
     1
 75
     1
176
     1
175
     1
176
     1
 42
40.0
176
     1
 92
        8
176
     1
 66
     7
176
     1
 43
1.0
176
     1
 76
     1
176
     1
 77
     6
176
     1
 78
     2
176
     1
 67
     7
176
     1
 79
     3
176
     1
170
     0
176
     1
171
     0
176
     1
290
     0
176
     1
 93
        1
176
     1
 44
0.0
176
     1
173
     0
176
     1
  0
VISUALSTYLE
  5
35
102
{ACAD_REACTORS
330
2A
102
}
330
2A
100
AcDbVisualStyle
  2
Dim
 70
    11
177
     2
291
     1
 71
     2
176
     1
 72
     2
176
     1
 73
     0
176
     1
 90
        0
176
     1
 40
-0.6
176
     1
 41
-30.0
176
     1
 62
     5
 63
     7
421
 16777215
176
     1
 74
     1
176
     1
 91
        4
176
     1
 64
     7
176
     1
 65
   257
176
     1
 75
     1
176
     1
175
     1
176
     1
 42
1.0
176
     1
 92
        8
176
     1
 66
     7
176
     1
 43
1.0
176
     1
 76
     1
176
     1
 77
     6
176
     1
 78
     2
176
     1
 67
     7
176
     1
 79
     5
176
     1
170
     0
176
     1
171
     0
176
     1
290
     0
176
     1
 93
        1
176
     1
 44
-50.0
176
     1
173
     0
176
     1
  0
VISUALSTYLE
  5
39
102
{ACAD_REACTORS
330
2A
102
}
330
2A
100
AcDbVisualStyle
  2
Facepattern
 70
    15
177
     2
291
     1
 71
     2
176
     1
 72
     2
176
     1
 73
     0
176
     1
 90
        0
176
     1
 40
-0.6
176
     1
 41
-30.0
176
     1
 62
     5
 63
     7
421
 16777215
176
     1
 74
     1
176
     1
 91
        4
176
     1
 64
     7
176
     1
 65
   257
176
     1
 75
     1
176
     1
175
     1
176
     1
 42
1.0
176
     1
 92
        8
176
     1
 66
     7
176
     1
 43
1.0
176
     1
 76
     1
176
     1
 77
     6
176
     1
 78
     2
176
     1
 67
     7
176
     1
 79
     5
176
     1
170
     0
176
     1
171
     0
176
     1
290
     0
176
     1
 93
        1
176
     1
 44
0.0
176
     1
173
     0
176
     1
  0
VISUALSTYLE
  5
2B
102
{ACAD_REACTORS
330
2A
102
}
330
2A
100
AcDbVisualStyle
  2
Flat
 70
     0
177
     2
291
     1
 71
     2
176
     1
 72
     1
176
     1
 73
     1
176
     1
 90
        2
176
     1
 40
-0.6
176
     1
 41
30.0
176
     1
 62
     5
 63
     7
421
 16777215
176
     1
 74
     0
176
     1
 91
        4
176
     1
 64
     7
176
     1
 65
   257
176
     1
 75
     1
176
     1
175
     1
176
     1
 42
1.0
176
     1
 92
        8
176
     1
 66
     7
176
     1
 43
1.0
176
     1
 76
     1
176
     1
 77
     6
176
     1
 78
     2
176
     1
 67
     7
176
     1
 79
     5
176
     1
170
     0
176
     1
171
     0
176
     1
290
     0
176
     1
 93
       13
176
     1
 44
0.0
176
     1
173
     0
176
     1
  0
VISUALSTYLE
  5
2C
102
{ACAD_REACTORS
330
2A
102
}
330
2A
100
AcDbVisualStyle
  2
FlatWithEdges
 70
     1
177
     2
291
     1
 71
     2
176
     1
 72
     1
176
     1
 73
     1
176
     1
 90
        2
176
     1
 40
-0.6
176
     1
 41
30.0
176
     1
 62
     5
 63
     7
421
 16777215
176
     1
 74
     1
176
     1
 91
        4
176
     1
 64
     7
176
     1
 65
   257
176
     1
 75
     1
176
     1
175
     1
176
     1
 42
1.0
176
     1
 92
        0
176
     1
 66
   257
176
     1
 43
1.0
176
     1
 76
     1
176
     1
 77
     6
176
     1
 78
     2
176
     1
 67
     7
176
     1
 79
     5
176
     1
170
     0
176
     1
171
     0
176
     1
290
     0
176
     1
 93
       13
176
     1
 44
0.0
176
     1
173
     0
176
     1
  0
VISUALSTYLE
  5
2D
102
{ACAD_REACTORS
330
2A
102
}
330
2A
100
AcDbVisualStyle
  2
Gouraud
 70
     2
177
     2
291
     1
 71
     2
176
     1
 72
     2
176
     1
 73
     1
176
     1
 90
        2
176
     1
 40
-0.6
176
     1
 41
30.0
176
     1
 62
     5
 63
     7
421
 16777215
176
     1
 74
     0
176
     1
 91
        4
176
     1
 64
     7
176
     1
 65
   257
176
     1
 75
     1
176
     1
175
     1
176
     1
 42
1.0
176
     1
 92
        0
176
     1
 66
     7
176
     1
 43
1.0
176
     1
 76
     1
176
     1
 77
     6
176
     1
 78
     2
176
     1
 67
     7
176
     1
 79
     5
176
     1
170
     0
176
     1
171
     0
176
     1
290
     0
176
     1
 93
       13
176
     1
 44
0.0
176
     1
173
     0
176
     1
  0
VISUALSTYLE
  5
2E
102
{ACAD_REACTORS
330
2A
102
}
330
2A
100
AcDbVisualStyle
  2
GouraudWithEdges
 70
     3
177
     2
291
     1
 71
     2
176
     1
 72
     2
176
     1
 73
     1
176
     1
 90
        2
176
     1
 40
-0.6
176
     1
 41
30.0
176
     1
 62
     5
 63
     7
421
 16777215
176
     1
 74
     1
176
     1
 91
        4
176
     1
 64
     7
176
     1
 65
   257
176
     1
 75
     1
176
     1
175
     1
176
     1
 42
1.0
176
     1
 92
        0
176
     1
 66
   257
176
     1
 43
1.0
176
     1
 76
     1
176
     1
 77
     6
176
     1
 78
     2
176
     1
 67
     7
176
     1
 79
     5
176
     1
170
     0
176
     1
171
     0
176
     1
290
     0
176
     1
 93
       13
176
     1
 44
0.0
176
     1
173
     0
176
     1
  0
VISUALSTYLE
  5
38
102
{ACAD_REACTORS
330
2A
102
}
330
2A
100
AcDbVisualStyle
  2
Linepattern
 70
    14
177
     2
291
     1
 71
     2
176
     1
 72
     2
176
     1
 73
     0
176
     1
 90
        0
176
     1
 40
-0.6
176
     1
 41
-30.0
176
     1
 62
     5
 63
     7
421
 16777215
176
     1
 74
     1
176
     1
 91
        4
176
     1
 64
     7
176
     1
 65
   257
176
     1
 75
     7
176
     1
175
     7
176
     1
 42
1.0
176
     1
 92
        8
176
     1
 66
     7
176
     1
 43
1.0
176
     1
 76
     1
176
     1
 77
     6
176
     1
 78
     2
176
     1
 67
     7
176
     1
 79
     5
176
     1
170
     0
176
     1
171
     0
176
     1
290
     0
176
     1
 93
        1
176
     1
 44
0.0
176
     1
173
     0
176
     1
  0
VISUALSTYLE
  5
33
102
{ACAD_REACTORS
330
2A
102
}
330
2A
100
AcDbVisualStyle
  2
Realistic
 70
     8
177
     2
291
     0
 71
     2
176
     1
 72
     2
176
     1
 73
     0
176
     1
 90
        0
176
     1
 40
-0.6
176
     1
 41
-30.0
176
     1
 62
     5
 63
     7
421
 16777215
176
     1
 74
     1
176
     1
 91
        0
176
     1
 64
     7
176
     1
 65
   257
176
     1
 75
     1
176
     1
175
     1
176
     1
 42
1.0
176
     1
 92
        8
176
     1
 66
     8
424
  7895160
176
     1
 43
1.0
176
     1
 76
     1
176
     1
 77
     6
176
     1
 78
     2
176
     1
 67
     7
176
     1
 79
     5
176
     1
170
     0
176
     1
171
     0
176
     1
290
     0
176
     1
 93
       13
176
     1
 44
0.0
176
     1
173
     0
176
     1
  0
VISUALSTYLE
  5
37
102
{ACAD_REACTORS
330
2A
102
}
330
2A
100
AcDbVisualStyle
  2
Thicken
 70
    13
177
     2
291
     1
 71
     2
176
     1
 72
     2
176
     1
 73
     0
176
     1
 90
        0
176
     1
 40
-0.6
176
     1
 41
-30.0
176
     1
 62
     5
 63
     7
421
 16777215
176
     1
 74
     1
176
     1
 91
        4
176
     1
 64
     7
176
     1
 65
   257
176
     1
 75
     1
176
     1
175
     1
176
     1
 42
1.0
176
     1
 92
       12
176
     1
 66
     7
176
     1
 43
1.0
176
     1
 76
     1
176
     1
 77
     6
176
     1
 78
     2
176
     1
 67
     7
176
     1
 79
     5
176
     1
170
     0
176
     1
171
     0
176
     1
290
     0
176
     1
 93
        1
176
     1
 44
0.0
176
     1
173
     0
176
     1
  0
ENDSEC
  0
EOF
