  0
SECTION
  2
HEADER
  9
$ACADVER
  1
AC1024
  9
$ACADMAINTVER
 70
     6
  9
$DWGCODEPAGE
  3
ANSI_1252
  9
$INSBASE
 10
0.0
 20
0.0
 30
0.0
  9
$EXTMIN
 10
1.000000000000000E+20
 20
1.000000000000000E+20
 30
1.000000000000000E+20
  9
$EXTMAX
 10
-1.000000000000000E+20
 20
-1.000000000000000E+20
 30
-1.000000000000000E+20
  9
$LIMMIN
 10
0.0
 20
0.0
  9
$LIMMAX
 10
12.0
 20
9.0
  9
$ORTHOMODE
 70
     0
  9
$REGENMODE
 70
     1
  9
$FILLMODE
 70
     1
  9
$QTEXTMODE
 70
     0
  9
$MIRRTEXT
 70
     1
  9
$LTSCALE
 40
1.0
  9
$ATTMODE
 70
     1
  9
$TEXTSIZE
 40
0.2
  9
$TRACEWID
 40
0.05
  9
$TEXTSTYLE
  7
Standard
  9
$CLAYER
  8
0
  9
$CELTYPE
  6
ByLayer
  9
$CECOLOR
 62
   256
  9
$CELTSCALE
 40
1.0
  9
$DISPSILH
 70
     0
  9
$DIMSCALE
 40
1.0
  9
$DIMASZ
 40
0.18
  9
$DIMEXO
 40
0.0625
  9
$DIMDLI
 40
0.38
  9
$DIMRND
 40
0.0
  9
$DIMDLE
 40
0.0
  9
$DIMEXE
 40
0.18
  9
$DIMTP
 40
0.0
  9
$DIMTM
 40
0.0
  9
$DIMTXT
 40
0.18
  9
$DIMCEN
 40
0.09
  9
$DIMTSZ
 40
0.0
  9
$DIMTOL
 70
     0
  9
$DIMLIM
 70
     0
  9
$DIMTIH
 70
     1
  9
$DIMTOH
 70
     1
  9
$DIMSE1
 70
     0
  9
$DIMSE2
 70
     0
  9
$DIMTAD
 70
     0
  9
$DIMZIN
 70
     0
  9
$DIMBLK
  1

  9
$DIMASO
 70
     1
  9
$DIMSHO
 70
     1
  9
$DIMPOST
  1

  9
$DIMAPOST
  1

  9
$DIMALT
 70
     0
  9
$DIMALTD
 70
     2
  9
$DIMALTF
 40
25.4
  9
$DIMLFAC
 40
1.0
  9
$DIMTOFL
 70
     0
  9
$DIMTVP
 40
0.0
  9
$DIMTIX
 70
     0
  9
$DIMSOXD
 70
     0
  9
$DIMSAH
 70
     0
  9
$DIMBLK1
  1

  9
$DIMBLK2
  1

  9
$DIMSTYLE
  2
Standard
  9
$DIMCLRD
 70
     0
  9
$DIMCLRE
 70
     0
  9
$DIMCLRT
 70
     0
  9
$DIMTFAC
 40
1.0
  9
$DIMGAP
 40
0.09
  9
$DIMJUST
 70
     0
  9
$DIMSD1
 70
     0
  9
$DIMSD2
 70
     0
  9
$DIMTOLJ
 70
     1
  9
$DIMTZIN
 70
     0
  9
$DIMALTZ
 70
     0
  9
$DIMALTTZ
 70
     0
  9
$DIMUPT
 70
     0
  9
$DIMDEC
 70
     4
  9
$DIMTDEC
 70
     4
  9
$DIMALTU
 70
     2
  9
$DIMALTTD
 70
     2
  9
$DIMTXSTY
  7
Standard
  9
$DIMAUNIT
 70
     0
  9
$DIMADEC
 70
     0
  9
$DIMALTRND
 40
0.0
  9
$DIMAZIN
 70
     0
  9
$DIMDSEP
 70
    46
  9
$DIMATFIT
 70
     3
  9
$DIMFRAC
 70
     0
  9
$DIMLDRBLK
  1

  9
$DIMLUNIT
 70
     2
  9
$DIMLWD
 70
    -2
  9
$DIMLWE
 70
    -2
  9
$DIMTMOVE
 70
     0
  9
$DIMFXL
 40
1.0
  9
$DIMFXLON
 70
     0
  9
$DIMJOGANG
 40
0.7853981633974483
  9
$DIMTFILL
 70
     0
  9
$DIMTFILLCLR
 70
     0
  9
$DIMARCSYM
 70
     0
  9
$DIMLTYPE
  6

  9
$DIMLTEX1
  6

  9
$DIMLTEX2
  6

  9
$DIMTXTDIRECTION
 70
     0
  9
$LUNITS
 70
     2
  9
$LUPREC
 70
     4
  9
$SKETCHINC
 40
0.1
  9
$FILLETRAD
 40
0.5
  9
$AUNITS
 70
     0
  9
$AUPREC
 70
     0
  9
$MENU
  1
.
  9
$ELEVATION
 40
0.0
  9
$PELEVATION
 40
0.0
  9
$THICKNESS
 40
0.0
  9
$LIMCHECK
 70
     0
  9
$CHAMFERA
 40
0.5
  9
$CHAMFERB
 40
0.5
  9
$CHAMFERC
 40
1.0
  9
$CHAMFERD
 40
0.0
  9
$SKPOLY
 70
     0
  9
$TDCREATE
 40
2458164.580476458
  9
$TDUCREATE
 40
2458164.538809792
  9
$TDUPDATE
 40
2458164.580476481
  9
$TDUUPDATE
 40
2458164.538809815
  9
$TDINDWG
 40
0.0000000116
  9
$TDUSRTIMER
 40
0.0000000116
  9
$USRTIMER
 70
     1
  9
$ANGBASE
 50
0.0
  9
$ANGDIR
 70
     0
  9
$PDMODE
 70
     0
  9
$PDSIZE
 40
0.0
  9
$PLINEWID
 40
0.0
  9
$SPLFRAME
 70
     0
  9
$SPLINETYPE
 70
     6
  9
$SPLINESEGS
 70
     8
  9
$HANDSEED
  5
45
  9
$SURFTAB1
 70
     6
  9
$SURFTAB2
 70
     6
  9
$SURFTYPE
 70
     6
  9
$SURFU
 70
     6
  9
$SURFV
 70
     6
  9
$UCSBASE
  2

  9
$UCSNAME
  2

  9
$UCSORG
 10
0.0
 20
0.0
 30
0.0
  9
$UCSXDIR
 10
1.0
 20
0.0
 30
0.0
  9
$UCSYDIR
 10
0.0
 20
1.0
 30
0.0
  9
$UCSORTHOREF
  2

  9
$UCSORTHOVIEW
 70
     0
  9
$UCSORGTOP
 10
0.0
 20
0.0
 30
0.0
  9
$UCSORGBOTTOM
 10
0.0
 20
0.0
 30
0.0
  9
$UCSORGLEFT
 10
0.0
 20
0.0
 30
0.0
  9
$UCSORGRIGHT
 10
0.0
 20
0.0
 30
0.0
  9
$UCSORGFRONT
 10
0.0
 20
0.0
 30
0.0
  9
$UCSORGBACK
 10
0.0
 20
0.0
 30
0.0
  9
$PUCSBASE
  2

  9
$PUCSNAME
  2

  9
$PUCSORG
 10
0.0
 20
0.0
 30
0.0
  9
$PUCSXDIR
 10
1.0
 20
0.0
 30
0.0
  9
$PUCSYDIR
 10
0.0
 20
1.0
 30
0.0
  9
$PUCSORTHOREF
  2

  9
$PUCSORTHOVIEW
 70
     0
  9
$PUCSORGTOP
 10
0.0
 20
0.0
 30
0.0
  9
$PUCSORGBOTTOM
 10
0.0
 20
0.0
 30
0.0
  9
$PUCSORGLEFT
 10
0.0
 20
0.0
 30
0.0
  9
$PUCSORGRIGHT
 10
0.0
 20
0.0
 30
0.0
  9
$PUCSORGFRONT
 10
0.0
 20
0.0
 30
0.0
  9
$PUCSORGBACK
 10
0.0
 20
0.0
 30
0.0
  9
$USERI1
 70
     0
  9
$USERI2
 70
     0
  9
$USERI3
 70
     0
  9
$USERI4
 70
     0
  9
$USERI5
 70
     0
  9
$USERR1
 40
0.0
  9
$USERR2
 40
0.0
  9
$USERR3
 40
0.0
  9
$USERR4
 40
0.0
  9
$USERR5
 40
0.0
  9
$WORLDVIEW
 70
     1
  9
$SHADEDGE
 70
     3
  9
$SHADEDIF
 70
    70
  9
$TILEMODE
 70
     1
  9
$MAXACTVP
 70
    64
  9
$PINSBASE
 10
0.0
 20
0.0
 30
0.0
  9
$PLIMCHECK
 70
     0
  9
$PEXTMIN
 10
1.000000000000000E+20
 20
1.000000000000000E+20
 30
1.000000000000000E+20
  9
$PEXTMAX
 10
-1.000000000000000E+20
 20
-1.000000000000000E+20
 30
-1.000000000000000E+20
  9
$PLIMMIN
 10
0.0
 20
0.0
  9
$PLIMMAX
 10
12.0
 20
9.0
  9
$UNITMODE
 70
     0
  9
$VISRETAIN
 70
     1
  9
$PLINEGEN
 70
     0
  9
$PSLTSCALE
 70
     1
  9
$TREEDEPTH
 70
  3020
  9
$CMLSTYLE
  2
Standard
  9
$CMLJUST
 70
     0
  9
$CMLSCALE
 40
1.0
  9
$PROXYGRAPHICS
 70
     1
  9
$MEASUREMENT
 70
     0
  9
$CELWEIGHT
370
    -1
  9
$ENDCAPS
280
     0
  9
$JOINSTYLE
280
     0
  9
$LWDISPLAY
290
     1
  9
$INSUNITS
 70
     1
  9
$HYPERLINKBASE
  1

  9
$STYLESHEET
  1

  9
$XEDIT
290
     1
  9
$CEPSNTYPE
380
     0
  9
$PSTYLEMODE
290
     1
  9
$FINGERPRINTGUID
  2
{9DFD59FA-4526-4CEB-847C-C89F1C5AC053}
  9
$VERSIONGUID
  2
{FAEB1C32-E019-11D5-929B-00C0DF256EC4}
  9
$EXTNAMES
290
     1
  9
$PSVPSCALE
 40
0.0
  9
$OLESTARTUP
290
     0
  9
$SORTENTS
280
   127
  9
$INDEXCTL
280
     0
  9
$HIDETEXT
280
     1
  9
$XCLIPFRAME
280
     2
  9
$HALOGAP
280
     0
  9
$OBSCOLOR
 70
   257
  9
$OBSLTYPE
280
     0
  9
$INTERSECTIONDISPLAY
280
     0
  9
$INTERSECTIONCOLOR
 70
   257
  9
$DIMASSOC
280
     2
  9
$PROJECTNAME
  1

  9
$CAMERADISPLAY
290
     0
  9
$LENSLENGTH
 40
50.0
  9
$CAMERAHEIGHT
 40
0.0
  9
$STEPSPERSEC
 40
2.0
  9
$STEPSIZE
 40
6.0
  9
$3DDWFPREC
 40
2.0
  9
$PSOLWIDTH
 40
0.25
  9
$PSOLHEIGHT
 40
4.0
  9
$LOFTANG1
 40
1.570796326794897
  9
$LOFTANG2
 40
1.570796326794897
  9
$LOFTMAG1
 40
0.0
  9
$LOFTMAG2
 40
0.0
  9
$LOFTPARAM
 70
     7
  9
$LOFTNORMALS
280
     1
  9
$LATITUDE
 40
37.795
  9
$LONGITUDE
 40
-122.394
  9
$NORTHDIRECTION
 40
0.0
  9
$TIMEZONE
 70
 -8000
  9
$LIGHTGLYPHDISPLAY
280
     1
  9
$TILEMODELIGHTSYNCH
280
     1
  9
$CMATERIAL
347
3C
  9
$SOLIDHIST
280
     1
  9
$SHOWHIST
280
     1
  9
$DWFFRAME
280
     2
  9
$DGNFRAME
280
     2
  9
$REALWORLDSCALE
290
     1
  9
$INTERFERECOLOR
 62
   256
  9
$CSHADOW
280
     0
  9
$SHADOWPLANELOCATION
 40
0.0
  0
ENDSEC
  0
SECTION
  2
CLASSES
  0
CLASS
  1
ACDBDICTIONARYWDFLT
  2
AcDbDictionaryWithDefault
  3
ObjectDBX Classes
 90
        0
 91
        4
280
     0
281
     0
  0
CLASS
  1
VISUALSTYLE
  2
AcDbVisualStyle
  3
ObjectDBX Classes
 90
     4095
 91
        4
280
     0
281
     0
  0
CLASS
  1
MATERIAL
  2
AcDbMaterial
  3
ObjectDBX Classes
 90
     1153
 91
        4
280
     0
281
     0
  0
CLASS
  1
SUN
  2
AcDbSun
  3
SCENEOE
 90
     1024
 91
        4
280
     0
281
     0
  0
ENDSEC
  0
SECTION
  2
TABLES
  0
TABLE
  2
VPORT
  5
8
330
0
100
AcDbSymbolTable
 70
     1
  0
VPORT
  5
29
330
8
100
AcDbSymbolTableRecord
100
AcDbViewportTableRecord
  2
*Active
 70
     0
 10
0.0
 20
0.0
 11
1.0
 21
1.0
 12
0.0
 22
0.0
 13
0.0
 23
0.0
 14
0.5
 24
0.5
 15
0.5
 25
0.5
 16
0.0
 26
0.0
 36
1.0
 17
6.0
 27
-6.0
 37
0.0
 40
12.0
 41
1.0
 42
50.0
 43
0.0
 44
0.0
 50
0.0
 51
0.0
 71
     0
 72
   100
 73
     1
 74
     3
 75
     0
 76
     0
 77
     0
 78
     0
281
     0
 65
     1
110
0.0
120
0.0
130
0.0
111
1.0
121
0.0
131
0.0
112
0.0
122
1.0
132
0.0
 79
     0
146
0.0
 60
     3
 61
     5
292
     1
282
     1
141
0.0
142
0.0
 63
   250
361
3F
  0
ENDTAB
  0
TABLE
  2
LTYPE
  5
5
330
0
100
AcDbSymbolTable
 70
     1
  0
LTYPE
  5
14
330
5
100
AcDbSymbolTableRecord
100
AcDbLinetypeTableRecord
  2
ByBlock
 70
     0
  3

 72
    65
 73
     0
 40
0.0
  0
LTYPE
  5
15
330
5
100
AcDbSymbolTableRecord
100
AcDbLinetypeTableRecord
  2
ByLayer
 70
     0
  3

 72
    65
 73
     0
 40
0.0
  0
LTYPE
  5
16
330
5
100
AcDbSymbolTableRecord
100
AcDbLinetypeTableRecord
  2
Continuous
 70
     0
  3
Solid line
 72
    65
 73
     0
 40
0.0
  0
ENDTAB
  0
TABLE
  2
LAYER
  5
2
330
0
100
AcDbSymbolTable
 70
     2
  0
LAYER
  5
10
330
2
100
AcDbSymbolTableRecord
100
AcDbLayerTableRecord
  2
0
 70
     0
 62
     7
  6
Continuous
370
    -3
390
F
347
3E
  0
LAYER
  5
40
330
2
100
AcDbSymbolTableRecord
100
AcDbLayerTableRecord
  2
Layer 1
 70
     0
 62
     7
  6
Continuous
370
    -3
390
F
347
3E
  0
ENDTAB
  0
TABLE
  2
STYLE
  5
3
330
0
100
AcDbSymbolTable
 70
     1
  0
STYLE
  5
11
330
3
100
AcDbSymbolTableRecord
100
AcDbTextStyleTableRecord
  2
Standard
 70
     0
 40
0.0
 41
1.0
 50
0.0
 71
     0
 42
0.2
  3
txt
  4

  0
ENDTAB
  0
TABLE
  2
VIEW
  5
6
330
0
100
AcDbSymbolTable
 70
     0
  0
ENDTAB
  0
TABLE
  2
UCS
  5
7
330
0
100
AcDbSymbolTable
 70
     0
  0
ENDTAB
  0
TABLE
  2
APPID
  5
9
330
0
100
AcDbSymbolTable
 70
     1
  0
APPID
  5
12
330
9
100
AcDbSymbolTableRecord
100
AcDbRegAppTableRecord
  2
ACAD
 70
     0
  0
ENDTAB
  0
TABLE
  2
DIMSTYLE
  5
A
330
0
100
AcDbSymbolTable
 70
     1
100
AcDbDimStyleTable
  0
DIMSTYLE
105
27
330
A
100
AcDbSymbolTableRecord
100
AcDbDimStyleTableRecord
  2
Standard
 70
     0
178
     0
340
11
  0
ENDTAB
  0
TABLE
  2
BLOCK_RECORD
  5
1
330
0
100
AcDbSymbolTable
 70
     1
  0
BLOCK_RECORD
  5
1F
330
1
100
AcDbSymbolTableRecord
100
AcDbBlockTableRecord
  2
*Model_Space
340
22
 70
     0
280
     1
281
     0
  0
BLOCK_RECORD
  5
1B
330
1
100
AcDbSymbolTableRecord
100
AcDbBlockTableRecord
  2
*Paper_Space
340
1E
 70
     0
280
     1
281
     0
  0
BLOCK_RECORD
  5
23
330
1
100
AcDbSymbolTableRecord
100
AcDbBlockTableRecord
  2
*Paper_Space0
340
26
 70
     0
280
     1
281
     0
  0
ENDTAB
  0
ENDSEC
  0
SECTION
  2
BLOCKS
  0
BLOCK
  5
20
330
1F
100
AcDbEntity
  8
0
100
AcDbBlockBegin
  2
*Model_Space
 70
     0
 10
0.0
 20
0.0
 30
0.0
  3
*Model_Space
  1

  0
ENDBLK
  5
21
330
1F
100
AcDbEntity
  8
0
100
AcDbBlockEnd
  0
BLOCK
  5
1C
330
1B
100
AcDbEntity
 67
     1
  8
0
100
AcDbBlockBegin
  2
*Paper_Space
 70
     0
 10
0.0
 20
0.0
 30
0.0
  3
*Paper_Space
  1

  0
ENDBLK
  5
1D
330
1B
100
AcDbEntity
 67
     1
  8
0
100
AcDbBlockEnd
  0
BLOCK
  5
24
330
23
100
AcDbEntity
  8
0
100
AcDbBlockBegin
  2
*Paper_Space0
 70
     0
 10
0.0
 20
0.0
 30
0.0
  3
*Paper_Space0
  1

  0
ENDBLK
  5
25
330
23
100
AcDbEntity
  8
0
100
AcDbBlockEnd
  0
ENDSEC
  0
SECTION
  2
ENTITIES
  0
SPLINE
  5
41
330
1F
100
AcDbEntity
  8
Layer 1
 62
     7
420
 16777215
370
    18
100
AcDbSpline
210
0.0
220
0.0
230
1.0
 70
    11
 71
     3
 72
   233
 73
   229
 74
     0
 42
0.0000000001
 43
0.0000000001
 12
1.0
 22
0.0
 32
0.0
 13
1.0
 23
0.0
 33
0.0
 40
0.0
 40
0.0
 40
0.0
 40
0.0
 40
1.0
 40
1.0
 40
1.0
 40
2.0
 40
2.0
 40
2.0
 40
3.0
 40
3.0
 40
3.0
 40
4.0
 40
4.0
 40
4.0
 40
5.0
 40
5.0
 40
5.0
 40
6.0
 40
6.0
 40
6.0
 40
7.0
 40
7.0
 40
7.0
 40
8.0
 40
8.0
 40
8.0
 40
9.0
 40
9.0
 40
9.0
 40
10.0
 40
10.0
 40
10.0
 40
11.0
 40
11.0
 40
11.0
 40
12.0
 40
12.0
 40
12.0
 40
13.0
 40
13.0
 40
13.0
 40
14.0
 40
14.0
 40
14.0
 40
15.0
 40
15.0
 40
15.0
 40
16.0
 40
16.0
 40
16.0
 40
17.0
 40
17.0
 40
17.0
 40
18.0
 40
18.0
 40
18.0
 40
19.0
 40
19.0
 40
19.0
 40
20.0
 40
20.0
 40
20.0
 40
21.0
 40
21.0
 40
21.0
 40
22.0
 40
22.0
 40
22.0
 40
23.0
 40
23.0
 40
23.0
 40
24.0
 40
24.0
 40
24.0
 40
25.0
 40
25.0
 40
25.0
 40
26.0
 40
26.0
 40
26.0
 40
27.0
 40
27.0
 40
27.0
 40
28.0
 40
28.0
 40
28.0
 40
29.0
 40
29.0
 40
29.0
 40
30.0
 40
30.0
 40
30.0
 40
31.0
 40
31.0
 40
31.0
 40
32.0
 40
32.0
 40
32.0
 40
33.0
 40
33.0
 40
33.0
 40
34.0
 40
34.0
 40
34.0
 40
35.0
 40
35.0
 40
35.0
 40
36.0
 40
36.0
 40
36.0
 40
37.0
 40
37.0
 40
37.0
 40
38.0
 40
38.0
 40
38.0
 40
39.0
 40
39.0
 40
39.0
 40
40.0
 40
40.0
 40
40.0
 40
41.0
 40
41.0
 40
41.0
 40
42.0
 40
42.0
 40
42.0
 40
43.0
 40
43.0
 40
43.0
 40
44.0
 40
44.0
 40
44.0
 40
45.0
 40
45.0
 40
45.0
 40
46.0
 40
46.0
 40
46.0
 40
47.0
 40
47.0
 40
47.0
 40
48.0
 40
48.0
 40
48.0
 40
49.0
 40
49.0
 40
49.0
 40
50.0
 40
50.0
 40
50.0
 40
51.0
 40
51.0
 40
51.0
 40
52.0
 40
52.0
 40
52.0
 40
53.0
 40
53.0
 40
53.0
 40
54.0
 40
54.0
 40
54.0
 40
55.0
 40
55.0
 40
55.0
 40
56.0
 40
56.0
 40
56.0
 40
57.0
 40
57.0
 40
57.0
 40
58.0
 40
58.0
 40
58.0
 40
59.0
 40
59.0
 40
59.0
 40
60.0
 40
60.0
 40
60.0
 40
61.0
 40
61.0
 40
61.0
 40
62.0
 40
62.0
 40
62.0
 40
63.0
 40
63.0
 40
63.0
 40
64.0
 40
64.0
 40
64.0
 40
65.0
 40
65.0
 40
65.0
 40
66.0
 40
66.0
 40
66.0
 40
67.0
 40
67.0
 40
67.0
 40
68.0
 40
68.0
 40
68.0
 40
69.0
 40
69.0
 40
69.0
 40
70.0
 40
70.0
 40
70.0
 40
71.0
 40
71.0
 40
71.0
 40
72.0
 40
72.0
 40
72.0
 40
73.0
 40
73.0
 40
73.0
 40
74.0
 40
74.0
 40
74.0
 40
75.0
 40
75.0
 40
75.0
 40
76.0
 40
76.0
 40
76.0
 40
76.0
 10
5.595303924523364
 20
-5.343252540477414
 30
0.0
 10
5.595303924523364
 20
-5.343252540477414
 30
0.0
 10
5.734249125151778
 20
-5.474921197630843
 30
0.0
 10
5.840336084472647
 20
-5.515161640265155
 30
0.0
 10
5.840336084472647
 20
-5.515161640265155
 30
0.0
 10
5.895178382850885
 20
-5.910143230145827
 30
0.0
 10
6.355984807941846
 20
-6.184436000896262
 30
0.0
 10
6.355984807941846
 20
-6.184436000896262
 30
0.0
 10
6.015869907996552
 20
-6.220997534072012
 30
0.0
 10
6.004890070250704
 20
-6.242957210118422
 30
0.0
 10
5.993937445648536
 20
-6.264889795520881
 30
0.0
 10
5.928117896088438
 20
-6.37460148569226
 30
0.0
 10
5.94271975284889
 20
-6.451400752437975
 30
0.0
 10
5.957375790896031
 20
-6.528202728248086
 30
0.0
 10
6.001240960592756
 20
-6.802495498998496
 30
0.0
 10
6.100026991533392
 20
-6.787866551225179
 30
0.0
 10
6.198758841187352
 20
-6.773261985031442
 30
0.0
 10
6.257252958287861
 20
-6.711064575415017
 30
0.0
 10
6.257252958287861
 20
-6.711064575415017
 30
0.0
 10
6.257252958287861
 20
-6.711064575415017
 30
0.0
 10
6.29381449054002
 20
-6.850063960841529
 30
0.0
 10
6.366964645687681
 20
-6.806147317813029
 30
0.0
 10
6.440141891478687
 20
-6.762282147008212
 30
0.0
 10
6.743641077885159
 20
-6.43309560427047
 30
0.0
 10
6.794858648184445
 20
-6.348992699895663
 30
0.0
 10
6.794858648184445
 20
-6.348992699895663
 30
0.0
 10
7.149629586176868
 20
-6.385605705295094
 30
0.0
 10
7.511701452549535
 20
-6.191764020104907
 30
0.0
 10
7.511701452549535
 20
-6.191764020104907
 30
0.0
 10
7.654325562543565
 20
-6.334361043057899
 30
0.0
 10
7.709167860921802
 20
-6.261210886062321
 30
0.0
 10
7.764037249943385
 20
-6.188087819710796
 30
0.0
 10
7.775017087689244
 20
-6.114937662715167
 30
0.0
 10
7.775017087689244
 20
-6.114937662715167
 30
0.0
 10
7.775017087689244
 20
-6.114937662715167
 30
0.0
 10
7.862796190240715
 20
-6.272217814729603
 30
0.0
 10
7.924966507642491
 20
-6.224676443530572
 30
0.0
 10
7.924966507642491
 20
-6.224676443530572
 30
0.0
 10
7.968856058918239
 20
-6.158802833520036
 30
0.0
 10
7.968856058918239
 20
-5.986918115311886
 30
0.0
 10
7.968856058918239
 20
-5.986918115311886
 30
0.0
 10
8.363840347885091
 20
-5.730906111149377
 30
0.0
 10
8.561333846900677
 20
-5.493201964218744
 30
0.0
 10
8.561333846900677
 20
-5.493201964218744
 30
0.0
 10
8.62614821109254
 20
-5.459631238143301
 30
0.0
 10
8.656386787189048
 20
-5.387142092861899
 30
0.0
 10
8.665540715573746
 20
-5.36523659810353
 30
0.0
 10
8.678346462680768
 20
-5.33050097433497
 30
0.0
 10
8.693002500727895
 20
-5.304889479474026
 30
0.0
 10
8.707607257606115
 20
-5.279280693677416
 30
0.0
 10
8.727713742039896
 20
-5.226237212677031
 30
0.0
 10
8.667393715578227
 20
-5.213458555890548
 30
0.0
 10
8.667393715578227
 20
-5.213458555890548
 30
0.0
 10
8.69845313816798
 20
-5.116525522505627
 30
0.0
 10
8.683848762796464
 20
-5.098244755917727
 30
0.0
 10
8.669246905667125
 20
-5.079963989329877
 30
0.0
 10
8.650938858813282
 20
-5.069011241950673
 30
0.0
 10
8.619852345580233
 20
-5.072663060765207
 30
0.0
 10
8.619852345580233
 20
-5.072663060765207
 30
0.0
 10
8.58694263205037
 20
-5.019619579764745
 30
0.0
 10
8.559507937539593
 20
-5.015967760950237
 30
0.0
 10
8.532100333672133
 20
-5.012315942135703
 30
0.0
 10
8.548528099793732
 20
-4.957446551727988
 30
0.0
 10
8.48270596366961
 20
-4.988533065746398
 30
0.0
 10
8.416856736902194
 20
-5.019619579764745
 30
0.0
 10
7.628743868037266
 20
-4.525876338027564
 30
0.0
 10
7.120396072948298
 20
-4.447275543454199
 30
0.0
 10
7.120396072948298
 20
-4.447275543454199
 30
0.0
 10
6.818034836880947
 20
-3.856043910129642
 30
0.0
 10
6.218892607317912
 20
-3.55672480242913
 30
0.0
 10
6.167672327954278
 20
-3.531140398212175
 30
0.0
 10
6.123809993103123
 20
-3.543946145642672
 30
0.0
 10
6.098201082172257
 20
-3.553072983614622
 30
0.0
 10
6.072592297022614
 20
-3.562226912230585
 30
0.0
 10
6.048806712169784
 20
-3.591487516841665
 30
0.0
 10
6.014071089278761
 20
-3.598788445406361
 30
0.0
 10
5.979335588519221
 20
-3.606089373971031
 30
0.0
 10
5.962880609622794
 20
-3.649981635419888
 30
0.0
 10
5.944599843496702
 20
-3.664637673837294
 30
0.0
 10
5.926319198162824
 20
-3.679239530966596
 30
0.0
 10
5.889703363831788
 20
-3.69937329760579
 30
0.0
 10
5.878750616729272
 20
-3.71947997360097
 30
0.0
 10
5.867770778983438
 20
-3.739611031175741
 30
0.0
 10
5.84398790319493
 20
-3.765168344748683
 30
0.0
 10
5.829383337370132
 20
-3.768844545142795
 30
0.0
 10
5.814781480609668
 20
-3.772496363957329
 30
0.0
 10
5.763561201246047
 20
-3.790831311833295
 30
0.0
 10
5.759912091588098
 20
-3.814587097578573
 30
0.0
 10
5.75623318222247
 20
-3.838345592388274
 30
0.0
 10
5.730624397072827
 20
-3.878558944378571
 30
0.0
 10
5.706868611927676
 20
-3.882235144772746
 30
0.0
 10
5.683083027074821
 20
-3.885886963587268
 30
0.0
 10
5.64107356644691
 20
-3.918796677948522
 30
0.0
 10
5.644695585461514
 20
-3.955358211124298
 30
0.0
 10
5.648320313540453
 20
-3.991946834944138
 30
0.0
 10
5.617263600015071
 20
-3.99744894474553
 30
0.0
 10
5.60263194354694
 20
-4.002926672967318
 30
0.0
 10
5.588002996143132
 20
-4.008401692124734
 30
0.0
 10
5.555090573548922
 20
-4.021207439555218
 30
0.0
 10
5.553240282608777
 20
-4.054117153916473
 30
0.0
 10
5.551441463890973
 20
-4.087029577342138
 30
0.0
 10
5.52397967873685
 20
-4.108959453680137
 30
0.0
 10
5.485592237123556
 20
-4.123618201161927
 30
0.0
 10
5.44720479551025
 20
-4.138220058291242
 30
0.0
 10
5.436252048407747
 20
-4.14369778651303
 30
0.0
 10
5.428924029384183
 20
-4.180283701268447
 30
0.0
 10
5.421596010360607
 20
-4.216872325088237
 30
0.0
 10
5.374054640362588
 20
-4.193089448698932
 30
0.0
 10
5.374054640362588
 20
-4.23332989133328
 30
0.0
 10
5.374054640362588
 20
-4.273540534259192
 30
0.0
 10
5.295453847774866
 20
-4.282694462875156
 30
0.0
 10
5.286302733078501
 20
-4.321081905458186
 30
0.0
 10
5.277148700069776
 20
-4.359496438685306
 30
0.0
 10
5.211326563945678
 20
-4.372275095471726
 30
0.0
 10
5.216801582964775
 20
-4.407037809884299
 30
0.0
 10
5.222279311048194
 20
-4.441800524296834
 30
0.0
 10
5.129022480413306
 20
-4.480187966879864
 30
0.0
 10
5.119868552028606
 20
-4.492991005245926
 30
0.0
 10
5.110741714287238
 20
-4.505769662032409
 30
0.0
 10
5.001002936244074
 20
-4.544184195259529
 30
0.0
 10
5.006505045906502
 20
-4.566114071597515
 30
0.0
 10
5.012009962328079
 20
-4.58804665699995
 30
0.0
 10
4.953488656889426
 20
-4.606354514231851
 30
0.0
 10
4.937033800124468
 20
-4.608180423639118
 30
0.0
 10
4.9205790387446
 20
-4.610006333046372
 30
0.0
 10
4.929705781100905
 20
-4.637438319185827
 30
0.0
 10
4.951635656884933
 20
-4.646567866222148
 30
0.0
 10
4.973595429100997
 20
-4.655746176417765
 30
0.0
 10
5.194844718850984
 20
-4.747177100001244
 30
0.0
 10
5.25153991492012
 20
-4.781915432834138
 30
0.0
 10
5.25153991492012
 20
-4.781915432834138
 30
0.0
 10
5.26619595296726
 20
-4.798397380658798
 30
0.0
 10
4.995552298803987
 20
-4.763634666246262
 30
0.0
 10
4.724911353705061
 20
-4.728869242769305
 30
0.0
 10
4.350033740225411
 20
-4.64109013800036
 30
0.0
 10
3.993436892871841
 20
-4.794691380556224
 30
0.0
 10
3.636840108473343
 20
-4.948295332176447
 30
0.0
 10
3.143123957380188
 20
-5.381691455284125
 30
0.0
 10
3.073652709843183
 20
-5.469446178473428
 30
0.0
 10
3.00417875324173
 20
-5.557252373886399
 30
0.0
 10
2.785232168233834
 20
-5.837020163794237
 30
0.0
 10
2.718906144468077
 20
-6.222850534123305
 30
0.0
 10
2.697848586867647
 20
-6.345367971725131
 30
0.0
 10
2.623799020490449
 20
-6.583971528037409
 30
0.0
 10
2.590889306129207
 20
-6.636115599656224
 30
0.0
 10
2.557976882703555
 20
-6.688232580630963
 30
0.0
 10
2.492130363337032
 20
-6.929588546376155
 30
0.0
 10
2.440037763941872
 20
-7.448014073884274
 30
0.0
 10
2.387893692323082
 20
-7.966415219812764
 30
0.0
 10
2.363211406552131
 20
-8.106311305556522
 30
0.0
 10
2.40434854950369
 20
-8.136471319549223
 30
0.0
 10
2.445488401519659
 20
-8.166658424185975
 30
0.0
 10
2.459190849267379
 20
-8.133746000760311
 30
0.0
 10
2.475672797092026
 20
-8.067899481393827
 30
0.0
 10
2.492130363337032
 20
-8.002101725186549
 30
0.0
 10
2.53876961609002
 20
-7.919800348639405
 30
0.0
 10
2.53876961609002
 20
-7.919800348639405
 30
0.0
 10
2.53876961609002
 20
-7.919800348639405
 30
0.0
 10
2.53876961609002
 20
-8.08710403894295
 30
0.0
 10
2.555227182335051
 20
-8.08438142921846
 30
0.0
 10
2.571682039515672
 20
-8.081629019785522
 30
0.0
 10
2.640253877671057
 20
-7.955435381789534
 30
0.0
 10
2.678641320254112
 20
-7.760694287217726
 30
0.0
 10
2.717055853481182
 20
-7.565953192645919
 30
0.0
 10
2.903569519462672
 20
-7.310867688509056
 30
0.0
 10
2.936479233823939
 20
-7.26422572669167
 30
0.0
 10
2.969416038829195
 20
-7.217586473938657
 30
0.0
 10
3.2382066997782
 20
-6.762282147008212
 30
0.0
 10
3.284821570951572
 20
-6.625135761632968
 30
0.0
 10
3.284821570951572
 20
-6.625135761632968
 30
0.0
 10
3.454904761332045
 20
-6.523651500051932
 30
0.0
 10
3.485064775324771
 20
-6.50444423343841
 30
0.0
 10
3.485064775324771
 20
-6.50444423343841
 30
0.0
 10
3.389058241965522
 20
-6.619660742475591
 30
0.0
 10
3.3671256565631
 20
-6.773261985031442
 30
0.0
 10
3.345193071160666
 20
-6.926836136943216
 30
0.0
 10
3.345193071160666
 20
-7.069487341184261
 30
0.0
 10
3.353393409106944
 20
-7.113376893568708
 30
0.0
 10
3.361647928341313
 20
-7.15726644595318
 30
0.0
 10
3.282069161518658
 20
-7.305392669351654
 30
0.0
 10
3.29307609018589
 20
-7.450739392673135
 30
0.0
 10
3.304028837565081
 20
-7.596140297282696
 30
0.0
 10
3.172384561991294
 20
-7.949957653567733
 30
0.0
 10
3.194344238037742
 20
-7.974667029982684
 30
0.0
 10
3.216247023731739
 20
-7.999324934174005
 30
0.0
 10
3.408262799514659
 20
-7.752466858627435
 30
0.0
 10
3.454904761332045
 20
-7.607093044661926
 30
0.0
 10
3.501519632505405
 20
-7.461719230696391
 30
0.0
 10
3.611231322676771
 20
-7.360234969115304
 30
0.0
 10
3.660625693927058
 20
-7.269703454913446
 30
0.0
 10
3.709990265468946
 20
-7.179223412935269
 30
0.0
 10
3.904731290318144
 20
-6.847311551408615
 30
0.0
 10
3.984282964487129
 20
-6.718392594623714
 30
0.0
 10
4.063837421462406
 20
-6.589473637838839
 30
0.0
 10
4.1296567747802
 20
-6.490714695046663
 30
0.0
 10
4.20098372963106
 20
-6.328910405480125
 30
0.0
 10
4.272307975417574
 20
-6.167054643689956
 30
0.0
 10
4.288762832182518
 20
-6.208221586349938
 30
0.0
 10
4.275033294137605
 20
-6.265813586482156
 30
0.0
 10
4.261301125758678
 20
-6.32340829567872
 30
0.0
 10
4.233893443160936
 20
-6.553811514044683
 30
0.0
 10
4.126907074481159
 20
-6.6909578994199
 30
0.0
 10
4.01994508738038
 20
-6.828104284795093
 30
0.0
 10
3.899229180655715
 20
-7.234068421763368
 30
0.0
 10
3.85536401095899
 20
-7.439786645293957
 30
0.0
 10
3.811501617694009
 20
-7.64550757788897
 30
0.0
 10
3.76208286486408
 20
-8.144725838783566
 30
0.0
 10
3.880076095814085
 20
-8.163906014753113
 30
0.0
 10
3.998015211596364
 20
-8.183113281366609
 30
0.0
 10
4.458819011343015
 20
-7.541270906874994
 30
0.0
 10
4.458819011343015
 20
-7.541270906874994
 30
0.0
 10
4.458819011343015
 20
-7.541270906874994
 30
0.0
 10
4.283260722520089
 20
-8.369624238283702
 30
0.0
 10
4.384744981537425
 20
-8.333989205133548
 30
0.0
 10
4.486229240554772
 20
-8.298299990695341
 30
0.0
 10
4.631627432426853
 20
-7.949957653567733
 30
0.0
 10
4.727609581781772
 20
-7.585160459259491
 30
0.0
 10
4.823618821780024
 20
-7.220363264951224
 30
0.0
 10
4.955287475607216
 20
-7.055782184372143
 30
0.0
 10
5.034814768197192
 20
-6.937815974966447
 30
0.0
 10
5.114393533009522
 20
-6.819876856204776
 30
0.0
 10
5.169474229049152
 20
-6.501878749449234
 30
0.0
 10
5.438050867125538
 20
-6.125917500738397
 30
0.0
 10
5.547735463882014
 20
-5.972316258182546
 30
0.0
 10
5.662979060651941
 20
-5.791277611358471
 30
0.0
 10
5.627289847115334
 20
-5.541669835443397
 30
0.0
 10
5.591652105801081
 20
-5.292059350463887
 30
0.0
 10
5.595303924523364
 20
-5.343252540477414
 30
0.0
 10
5.595303924523364
 20
-5.343252540477414
 30
0.0
  0
HATCH
  5
42
330
1F
100
AcDbEntity
  8
Layer 1
 62
     7
420
 16777215
100
AcDbHatch
 10
0.0
 20
0.0
 30
0.0
210
0.0
220
0.0
230
1.0
  2
SOLID
 70
     1
 71
     0
 91
        1
 92
        1
 93
        1
 72
     4
 94
        3
 73
     0
 74
     1
 95
      233
 96
      229
 40
0.0
 40
0.0
 40
0.0
 40
0.0
 40
1.0
 40
1.0
 40
1.0
 40
2.0
 40
2.0
 40
2.0
 40
3.0
 40
3.0
 40
3.0
 40
4.0
 40
4.0
 40
4.0
 40
5.0
 40
5.0
 40
5.0
 40
6.0
 40
6.0
 40
6.0
 40
7.0
 40
7.0
 40
7.0
 40
8.0
 40
8.0
 40
8.0
 40
9.0
 40
9.0
 40
9.0
 40
10.0
 40
10.0
 40
10.0
 40
11.0
 40
11.0
 40
11.0
 40
12.0
 40
12.0
 40
12.0
 40
13.0
 40
13.0
 40
13.0
 40
14.0
 40
14.0
 40
14.0
 40
15.0
 40
15.0
 40
15.0
 40
16.0
 40
16.0
 40
16.0
 40
17.0
 40
17.0
 40
17.0
 40
18.0
 40
18.0
 40
18.0
 40
19.0
 40
19.0
 40
19.0
 40
20.0
 40
20.0
 40
20.0
 40
21.0
 40
21.0
 40
21.0
 40
22.0
 40
22.0
 40
22.0
 40
23.0
 40
23.0
 40
23.0
 40
24.0
 40
24.0
 40
24.0
 40
25.0
 40
25.0
 40
25.0
 40
26.0
 40
26.0
 40
26.0
 40
27.0
 40
27.0
 40
27.0
 40
28.0
 40
28.0
 40
28.0
 40
29.0
 40
29.0
 40
29.0
 40
30.0
 40
30.0
 40
30.0
 40
31.0
 40
31.0
 40
31.0
 40
32.0
 40
32.0
 40
32.0
 40
33.0
 40
33.0
 40
33.0
 40
34.0
 40
34.0
 40
34.0
 40
35.0
 40
35.0
 40
35.0
 40
36.0
 40
36.0
 40
36.0
 40
37.0
 40
37.0
 40
37.0
 40
38.0
 40
38.0
 40
38.0
 40
39.0
 40
39.0
 40
39.0
 40
40.0
 40
40.0
 40
40.0
 40
41.0
 40
41.0
 40
41.0
 40
42.0
 40
42.0
 40
42.0
 40
43.0
 40
43.0
 40
43.0
 40
44.0
 40
44.0
 40
44.0
 40
45.0
 40
45.0
 40
45.0
 40
46.0
 40
46.0
 40
46.0
 40
47.0
 40
47.0
 40
47.0
 40
48.0
 40
48.0
 40
48.0
 40
49.0
 40
49.0
 40
49.0
 40
50.0
 40
50.0
 40
50.0
 40
51.0
 40
51.0
 40
51.0
 40
52.0
 40
52.0
 40
52.0
 40
53.0
 40
53.0
 40
53.0
 40
54.0
 40
54.0
 40
54.0
 40
55.0
 40
55.0
 40
55.0
 40
56.0
 40
56.0
 40
56.0
 40
57.0
 40
57.0
 40
57.0
 40
58.0
 40
58.0
 40
58.0
 40
59.0
 40
59.0
 40
59.0
 40
60.0
 40
60.0
 40
60.0
 40
61.0
 40
61.0
 40
61.0
 40
62.0
 40
62.0
 40
62.0
 40
63.0
 40
63.0
 40
63.0
 40
64.0
 40
64.0
 40
64.0
 40
65.0
 40
65.0
 40
65.0
 40
66.0
 40
66.0
 40
66.0
 40
67.0
 40
67.0
 40
67.0
 40
68.0
 40
68.0
 40
68.0
 40
69.0
 40
69.0
 40
69.0
 40
70.0
 40
70.0
 40
70.0
 40
71.0
 40
71.0
 40
71.0
 40
72.0
 40
72.0
 40
72.0
 40
73.0
 40
73.0
 40
73.0
 40
74.0
 40
74.0
 40
74.0
 40
75.0
 40
75.0
 40
75.0
 40
76.0
 40
76.0
 40
76.0
 40
76.0
 10
5.595303924523364
 20
-5.343252540477414
 10
5.595303924523364
 20
-5.343252540477414
 10
5.734249125151778
 20
-5.474921197630843
 10
5.840336084472647
 20
-5.515161640265155
 10
5.840336084472647
 20
-5.515161640265155
 10
5.895178382850885
 20
-5.910143230145827
 10
6.355984807941846
 20
-6.184436000896262
 10
6.355984807941846
 20
-6.184436000896262
 10
6.015869907996552
 20
-6.220997534072012
 10
6.004890070250704
 20
-6.242957210118422
 10
5.993937445648536
 20
-6.264889795520881
 10
5.928117896088438
 20
-6.37460148569226
 10
5.94271975284889
 20
-6.451400752437975
 10
5.957375790896031
 20
-6.528202728248086
 10
6.001240960592756
 20
-6.802495498998496
 10
6.100026991533392
 20
-6.787866551225179
 10
6.198758841187352
 20
-6.773261985031442
 10
6.257252958287861
 20
-6.711064575415017
 10
6.257252958287861
 20
-6.711064575415017
 10
6.257252958287861
 20
-6.711064575415017
 10
6.29381449054002
 20
-6.850063960841529
 10
6.366964645687681
 20
-6.806147317813029
 10
6.440141891478687
 20
-6.762282147008212
 10
6.743641077885159
 20
-6.43309560427047
 10
6.794858648184445
 20
-6.348992699895663
 10
6.794858648184445
 20
-6.348992699895663
 10
7.149629586176868
 20
-6.385605705295094
 10
7.511701452549535
 20
-6.191764020104907
 10
7.511701452549535
 20
-6.191764020104907
 10
7.654325562543565
 20
-6.334361043057899
 10
7.709167860921802
 20
-6.261210886062321
 10
7.764037249943385
 20
-6.188087819710796
 10
7.775017087689244
 20
-6.114937662715167
 10
7.775017087689244
 20
-6.114937662715167
 10
7.775017087689244
 20
-6.114937662715167
 10
7.862796190240715
 20
-6.272217814729603
 10
7.924966507642491
 20
-6.224676443530572
 10
7.924966507642491
 20
-6.224676443530572
 10
7.968856058918239
 20
-6.158802833520036
 10
7.968856058918239
 20
-5.986918115311886
 10
7.968856058918239
 20
-5.986918115311886
 10
8.363840347885091
 20
-5.730906111149377
 10
8.561333846900677
 20
-5.493201964218744
 10
8.561333846900677
 20
-5.493201964218744
 10
8.62614821109254
 20
-5.459631238143301
 10
8.656386787189048
 20
-5.387142092861899
 10
8.665540715573746
 20
-5.36523659810353
 10
8.678346462680768
 20
-5.33050097433497
 10
8.693002500727895
 20
-5.304889479474026
 10
8.707607257606115
 20
-5.279280693677416
 10
8.727713742039896
 20
-5.226237212677031
 10
8.667393715578227
 20
-5.213458555890548
 10
8.667393715578227
 20
-5.213458555890548
 10
8.69845313816798
 20
-5.116525522505627
 10
8.683848762796464
 20
-5.098244755917727
 10
8.669246905667125
 20
-5.079963989329877
 10
8.650938858813282
 20
-5.069011241950673
 10
8.619852345580233
 20
-5.072663060765207
 10
8.619852345580233
 20
-5.072663060765207
 10
8.58694263205037
 20
-5.019619579764745
 10
8.559507937539593
 20
-5.015967760950237
 10
8.532100333672133
 20
-5.012315942135703
 10
8.548528099793732
 20
-4.957446551727988
 10
8.48270596366961
 20
-4.988533065746398
 10
8.416856736902194
 20
-5.019619579764745
 10
7.628743868037266
 20
-4.525876338027564
 10
7.120396072948298
 20
-4.447275543454199
 10
7.120396072948298
 20
-4.447275543454199
 10
6.818034836880947
 20
-3.856043910129642
 10
6.218892607317912
 20
-3.55672480242913
 10
6.167672327954278
 20
-3.531140398212175
 10
6.123809993103123
 20
-3.543946145642672
 10
6.098201082172257
 20
-3.553072983614622
 10
6.072592297022614
 20
-3.562226912230585
 10
6.048806712169784
 20
-3.591487516841665
 10
6.014071089278761
 20
-3.598788445406361
 10
5.979335588519221
 20
-3.606089373971031
 10
5.962880609622794
 20
-3.649981635419888
 10
5.944599843496702
 20
-3.664637673837294
 10
5.926319198162824
 20
-3.679239530966596
 10
5.889703363831788
 20
-3.69937329760579
 10
5.878750616729272
 20
-3.71947997360097
 10
5.867770778983438
 20
-3.739611031175741
 10
5.84398790319493
 20
-3.765168344748683
 10
5.829383337370132
 20
-3.768844545142795
 10
5.814781480609668
 20
-3.772496363957329
 10
5.763561201246047
 20
-3.790831311833295
 10
5.759912091588098
 20
-3.814587097578573
 10
5.75623318222247
 20
-3.838345592388274
 10
5.730624397072827
 20
-3.878558944378571
 10
5.706868611927676
 20
-3.882235144772746
 10
5.683083027074821
 20
-3.885886963587268
 10
5.64107356644691
 20
-3.918796677948522
 10
5.644695585461514
 20
-3.955358211124298
 10
5.648320313540453
 20
-3.991946834944138
 10
5.617263600015071
 20
-3.99744894474553
 10
5.60263194354694
 20
-4.002926672967318
 10
5.588002996143132
 20
-4.008401692124734
 10
5.555090573548922
 20
-4.021207439555218
 10
5.553240282608777
 20
-4.054117153916473
 10
5.551441463890973
 20
-4.087029577342138
 10
5.52397967873685
 20
-4.108959453680137
 10
5.485592237123556
 20
-4.123618201161927
 10
5.44720479551025
 20
-4.138220058291242
 10
5.436252048407747
 20
-4.14369778651303
 10
5.428924029384183
 20
-4.180283701268447
 10
5.421596010360607
 20
-4.216872325088237
 10
5.374054640362588
 20
-4.193089448698932
 10
5.374054640362588
 20
-4.23332989133328
 10
5.374054640362588
 20
-4.273540534259192
 10
5.295453847774866
 20
-4.282694462875156
 10
5.286302733078501
 20
-4.321081905458186
 10
5.277148700069776
 20
-4.359496438685306
 10
5.211326563945678
 20
-4.372275095471726
 10
5.216801582964775
 20
-4.407037809884299
 10
5.222279311048194
 20
-4.441800524296834
 10
5.129022480413306
 20
-4.480187966879864
 10
5.119868552028606
 20
-4.492991005245926
 10
5.110741714287238
 20
-4.505769662032409
 10
5.001002936244074
 20
-4.544184195259529
 10
5.006505045906502
 20
-4.566114071597515
 10
5.012009962328079
 20
-4.58804665699995
 10
4.953488656889426
 20
-4.606354514231851
 10
4.937033800124468
 20
-4.608180423639118
 10
4.9205790387446
 20
-4.610006333046372
 10
4.929705781100905
 20
-4.637438319185827
 10
4.951635656884933
 20
-4.646567866222148
 10
4.973595429100997
 20
-4.655746176417765
 10
5.194844718850984
 20
-4.747177100001244
 10
5.25153991492012
 20
-4.781915432834138
 10
5.25153991492012
 20
-4.781915432834138
 10
5.26619595296726
 20
-4.798397380658798
 10
4.995552298803987
 20
-4.763634666246262
 10
4.724911353705061
 20
-4.728869242769305
 10
4.350033740225411
 20
-4.64109013800036
 10
3.993436892871841
 20
-4.794691380556224
 10
3.636840108473343
 20
-4.948295332176447
 10
3.143123957380188
 20
-5.381691455284125
 10
3.073652709843183
 20
-5.469446178473428
 10
3.00417875324173
 20
-5.557252373886399
 10
2.785232168233834
 20
-5.837020163794237
 10
2.718906144468077
 20
-6.222850534123305
 10
2.697848586867647
 20
-6.345367971725131
 10
2.623799020490449
 20
-6.583971528037409
 10
2.590889306129207
 20
-6.636115599656224
 10
2.557976882703555
 20
-6.688232580630963
 10
2.492130363337032
 20
-6.929588546376155
 10
2.440037763941872
 20
-7.448014073884274
 10
2.387893692323082
 20
-7.966415219812764
 10
2.363211406552131
 20
-8.106311305556522
 10
2.40434854950369
 20
-8.136471319549223
 10
2.445488401519659
 20
-8.166658424185975
 10
2.459190849267379
 20
-8.133746000760311
 10
2.475672797092026
 20
-8.067899481393827
 10
2.492130363337032
 20
-8.002101725186549
 10
2.53876961609002
 20
-7.919800348639405
 10
2.53876961609002
 20
-7.919800348639405
 10
2.53876961609002
 20
-7.919800348639405
 10
2.53876961609002
 20
-8.08710403894295
 10
2.555227182335051
 20
-8.08438142921846
 10
2.571682039515672
 20
-8.081629019785522
 10
2.640253877671057
 20
-7.955435381789534
 10
2.678641320254112
 20
-7.760694287217726
 10
2.717055853481182
 20
-7.565953192645919
 10
2.903569519462672
 20
-7.310867688509056
 10
2.936479233823939
 20
-7.26422572669167
 10
2.969416038829195
 20
-7.217586473938657
 10
3.2382066997782
 20
-6.762282147008212
 10
3.284821570951572
 20
-6.625135761632968
 10
3.284821570951572
 20
-6.625135761632968
 10
3.454904761332045
 20
-6.523651500051932
 10
3.485064775324771
 20
-6.50444423343841
 10
3.485064775324771
 20
-6.50444423343841
 10
3.389058241965522
 20
-6.619660742475591
 10
3.3671256565631
 20
-6.773261985031442
 10
3.345193071160666
 20
-6.926836136943216
 10
3.345193071160666
 20
-7.069487341184261
 10
3.353393409106944
 20
-7.113376893568708
 10
3.361647928341313
 20
-7.15726644595318
 10
3.282069161518658
 20
-7.305392669351654
 10
3.29307609018589
 20
-7.450739392673135
 10
3.304028837565081
 20
-7.596140297282696
 10
3.172384561991294
 20
-7.949957653567733
 10
3.194344238037742
 20
-7.974667029982684
 10
3.216247023731739
 20
-7.999324934174005
 10
3.408262799514659
 20
-7.752466858627435
 10
3.454904761332045
 20
-7.607093044661926
 10
3.501519632505405
 20
-7.461719230696391
 10
3.611231322676771
 20
-7.360234969115304
 10
3.660625693927058
 20
-7.269703454913446
 10
3.709990265468946
 20
-7.179223412935269
 10
3.904731290318144
 20
-6.847311551408615
 10
3.984282964487129
 20
-6.718392594623714
 10
4.063837421462406
 20
-6.589473637838839
 10
4.1296567747802
 20
-6.490714695046663
 10
4.20098372963106
 20
-6.328910405480125
 10
4.272307975417574
 20
-6.167054643689956
 10
4.288762832182518
 20
-6.208221586349938
 10
4.275033294137605
 20
-6.265813586482156
 10
4.261301125758678
 20
-6.32340829567872
 10
4.233893443160936
 20
-6.553811514044683
 10
4.126907074481159
 20
-6.6909578994199
 10
4.01994508738038
 20
-6.828104284795093
 10
3.899229180655715
 20
-7.234068421763368
 10
3.85536401095899
 20
-7.439786645293957
 10
3.811501617694009
 20
-7.64550757788897
 10
3.76208286486408
 20
-8.144725838783566
 10
3.880076095814085
 20
-8.163906014753113
 10
3.998015211596364
 20
-8.183113281366609
 10
4.458819011343015
 20
-7.541270906874994
 10
4.458819011343015
 20
-7.541270906874994
 10
4.458819011343015
 20
-7.541270906874994
 10
4.283260722520089
 20
-8.369624238283702
 10
4.384744981537425
 20
-8.333989205133548
 10
4.486229240554772
 20
-8.298299990695341
 10
4.631627432426853
 20
-7.949957653567733
 10
4.727609581781772
 20
-7.585160459259491
 10
4.823618821780024
 20
-7.220363264951224
 10
4.955287475607216
 20
-7.055782184372143
 10
5.034814768197192
 20
-6.937815974966447
 10
5.114393533009522
 20
-6.819876856204776
 10
5.169474229049152
 20
-6.501878749449234
 10
5.438050867125538
 20
-6.125917500738397
 10
5.547735463882014
 20
-5.972316258182546
 10
5.662979060651941
 20
-5.791277611358471
 10
5.627289847115334
 20
-5.541669835443397
 10
5.591652105801081
 20
-5.292059350463887
 10
5.595303924523364
 20
-5.343252540477414
 10
5.595303924523364
 20
-5.343252540477414
 97
        0
 97
        0
 75
     2
 76
     1
 98
        0
  0
ENDSEC
  0
SECTION
  2
OBJECTS
  0
DICTIONARY
  5
C
330
0
100
AcDbDictionary
281
     1
  3
ACAD_GROUP
350
D
  3
ACAD_LAYOUT
350
1A
  3
ACAD_MATERIAL
350
3B
  3
ACAD_MLEADERSTYLE
350
44
  3
ACAD_MLINESTYLE
350
17
  3
ACAD_PLOTSETTINGS
350
19
  3
ACAD_PLOTSTYLENAME
350
E
  3
ACAD_TABLESTYLE
350
43
  3
ACAD_VISUALSTYLE
350
2A
  0
SUN
  5
3F
330
29
100
AcDbSun
 90
        1
290
     0
 63
     7
421
 16777215
 40
1.0
291
     1
 91
  2455826
 92
 54000000
292
     0
 70
     2
 71
   256
280
     1
  0
DICTIONARY
  5
D
102
{ACAD_REACTORS
330
C
102
}
330
C
100
AcDbDictionary
281
     1
  0
DICTIONARY
  5
1A
102
{ACAD_REACTORS
330
C
102
}
330
C
100
AcDbDictionary
281
     1
  3
Layout1
350
1E
  3
Layout2
350
26
  3
Model
350
22
  0
DICTIONARY
  5
3B
102
{ACAD_REACTORS
330
C
102
}
330
C
100
AcDbDictionary
281
     1
  3
ByBlock
350
3D
  3
ByLayer
350
3C
  3
Global
350
3E
  0
DICTIONARY
  5
44
102
{ACAD_REACTORS
330
C
102
}
330
C
100
AcDbDictionary
281
     1
  0
DICTIONARY
  5
17
102
{ACAD_REACTORS
330
C
102
}
330
C
100
AcDbDictionary
281
     1
  3
Standard
350
18
  0
DICTIONARY
  5
19
102
{ACAD_REACTORS
330
C
102
}
330
C
100
AcDbDictionary
281
     1
  0
ACDBDICTIONARYWDFLT
  5
E
102
{ACAD_REACTORS
330
C
102
}
330
C
100
AcDbDictionary
281
     1
  3
Normal
350
F
100
AcDbDictionaryWithDefault
340
F
  0
DICTIONARY
  5
43
102
{ACAD_REACTORS
330
C
102
}
330
C
100
AcDbDictionary
281
     1
  0
DICTIONARY
  5
2A
102
{ACAD_REACTORS
330
C
102
}
330
C
100
AcDbDictionary
281
     1
  3
2dWireframe
350
2F
  3
3D Hidden
350
31
  3
3dWireframe
350
30
  3
Basic
350
32
  3
Brighten
350
36
  3
ColorChange
350
3A
  3
Conceptual
350
34
  3
Dim
350
35
  3
Facepattern
350
39
  3
Flat
350
2B
  3
FlatWithEdges
350
2C
  3
Gouraud
350
2D
  3
GouraudWithEdges
350
2E
  3
Linepattern
350
38
  3
Realistic
350
33
  3
Thicken
350
37
  0
LAYOUT
  5
1E
102
{ACAD_REACTORS
330
1A
102
}
330
1A
100
AcDbPlotSettings
  1

  2
none_device
  4

  6

 40
0.0
 41
0.0
 42
0.0
 43
0.0
 44
0.0
 45
0.0
 46
0.0
 47
0.0
 48
0.0
 49
0.0
140
0.0
141
0.0
142
1.0
143
1.0
 70
   688
 72
     0
 73
     0
 74
     5
  7

 75
    16
 76
     0
 77
     2
 78
   300
147
1.0
148
0.0
149
0.0
100
AcDbLayout
  1
Layout1
 70
     1
 71
     1
 10
0.0
 20
0.0
 11
12.0
 21
9.0
 12
0.0
 22
0.0
 32
0.0
 14
1.000000000000000E+20
 24
1.000000000000000E+20
 34
1.000000000000000E+20
 15
-1.000000000000000E+20
 25
-1.000000000000000E+20
 35
-1.000000000000000E+20
146
0.0
 13
0.0
 23
0.0
 33
0.0
 16
1.0
 26
0.0
 36
0.0
 17
0.0
 27
1.0
 37
0.0
 76
     0
330
1B
  0
LAYOUT
  5
26
102
{ACAD_REACTORS
330
1A
102
}
330
1A
100
AcDbPlotSettings
  1

  2
none_device
  4

  6

 40
0.0
 41
0.0
 42
0.0
 43
0.0
 44
0.0
 45
0.0
 46
0.0
 47
0.0
 48
0.0
 49
0.0
140
0.0
141
0.0
142
1.0
143
1.0
 70
   688
 72
     0
 73
     0
 74
     5
  7

 75
    16
 76
     0
 77
     2
 78
   300
147
1.0
148
0.0
149
0.0
100
AcDbLayout
  1
Layout2
 70
     1
 71
     2
 10
0.0
 20
0.0
 11
0.0
 21
0.0
 12
0.0
 22
0.0
 32
0.0
 14
0.0
 24
0.0
 34
0.0
 15
0.0
 25
0.0
 35
0.0
146
0.0
 13
0.0
 23
0.0
 33
0.0
 16
1.0
 26
0.0
 36
0.0
 17
0.0
 27
1.0
 37
0.0
 76
     0
330
23
  0
LAYOUT
  5
22
102
{ACAD_REACTORS
330
1A
102
}
330
1A
100
AcDbPlotSettings
  1

  2
none_device
  4

  6

 40
0.0
 41
0.0
 42
0.0
 43
0.0
 44
0.0
 45
0.0
 46
0.0
 47
0.0
 48
0.0
 49
0.0
140
0.0
141
0.0
142
1.0
143
1.0
 70
  1712
 72
     0
 73
     0
 74
     0
  7

 75
     0
 76
     0
 77
     2
 78
   300
147
1.0
148
0.0
149
0.0
100
AcDbLayout
  1
Model
 70
     1
 71
     0
 10
0.0
 20
0.0
 11
12.0
 21
9.0
 12
0.0
 22
0.0
 32
0.0
 14
1.000000000000000E+20
 24
1.000000000000000E+20
 34
1.000000000000000E+20
 15
-1.000000000000000E+20
 25
-1.000000000000000E+20
 35
-1.000000000000000E+20
146
0.0
 13
0.0
 23
0.0
 33
0.0
 16
1.0
 26
0.0
 36
0.0
 17
0.0
 27
1.0
 37
0.0
 76
     0
330
1F
331
29
  0
MATERIAL
  5
3D
102
{ACAD_REACTORS
330
3B
102
}
330
3B
100
AcDbMaterial
  1
ByBlock
 72
     1
 94
      127
  0
MATERIAL
  5
3C
102
{ACAD_REACTORS
330
3B
102
}
330
3B
100
AcDbMaterial
  1
ByLayer
 72
     1
 94
      127
  0
MATERIAL
  5
3E
102
{ACAD_REACTORS
330
3B
102
}
330
3B
100
AcDbMaterial
  1
Global
 72
     1
 94
      127
  0
MLINESTYLE
  5
18
102
{ACAD_REACTORS
330
17
102
}
330
17
100
AcDbMlineStyle
  2
Standard
 70
     0
  3

 62
   256
 51
90.0
 52
90.0
 71
     2
 49
0.5
 62
   256
  6
BYLAYER
 49
-0.5
 62
   256
  6
BYLAYER
  0
ACDBPLACEHOLDER
  5
F
102
{ACAD_REACTORS
330
E
102
}
330
E
  0
VISUALSTYLE
  5
2F
102
{ACAD_REACTORS
330
2A
102
}
330
2A
100
AcDbVisualStyle
  2
2dWireframe
 70
     4
177
     2
291
     0
 71
     0
176
     1
 72
     2
176
     1
 73
     0
176
     1
 90
        0
176
     1
 40
-0.6
176
     1
 41
-30.0
176
     1
 62
     5
 63
     7
421
 16777215
176
     1
 74
     1
176
     1
 91
        4
176
     1
 64
     7
176
     1
 65
   257
176
     1
 75
     1
176
     1
175
     1
176
     1
 42
1.0
176
     1
 92
        0
176
     1
 66
   257
176
     1
 43
1.0
176
     1
 76
     1
176
     1
 77
     6
176
     1
 78
     2
176
     1
 67
     7
176
     1
 79
     5
176
     1
170
     0
176
     1
171
     0
176
     1
290
     0
176
     1
 93
        1
176
     1
 44
0.0
176
     1
173
     0
176
     1
  0
VISUALSTYLE
  5
31
102
{ACAD_REACTORS
330
2A
102
}
330
2A
100
AcDbVisualStyle
  2
3D Hidden
 70
     6
177
     2
291
     0
 71
     1
176
     1
 72
     2
176
     1
 73
     2
176
     1
 90
        0
176
     1
 40
-0.6
176
     1
 41
-30.0
176
     1
 62
     5
 63
     7
421
 16777215
176
     1
 74
     2
176
     1
 91
        2
176
     1
 64
     7
176
     1
 65
   257
176
     1
 75
     2
176
     1
175
     1
176
     1
 42
40.0
176
     1
 92
        0
176
     1
 66
   257
176
     1
 43
1.0
176
     1
 76
     1
176
     1
 77
     6
176
     1
 78
     2
176
     1
 67
     7
176
     1
 79
     3
176
     1
170
     0
176
     1
171
     0
176
     1
290
     0
176
     1
 93
        1
176
     1
 44
0.0
176
     1
173
     0
176
     1
  0
VISUALSTYLE
  5
30
102
{ACAD_REACTORS
330
2A
102
}
330
2A
100
AcDbVisualStyle
  2
3dWireframe
 70
     5
177
     2
291
     0
 71
     0
176
     1
 72
     2
176
     1
 73
     0
176
     1
 90
        0
176
     1
 40
-0.6
176
     1
 41
-30.0
176
     1
 62
     5
 63
     7
421
 16777215
176
     1
 74
     1
176
     1
 91
        4
176
     1
 64
     7
176
     1
 65
   257
176
     1
 75
     1
176
     1
175
     1
176
     1
 42
1.0
176
     1
 92
        0
176
     1
 66
   257
176
     1
 43
1.0
176
     1
 76
     1
176
     1
 77
     6
176
     1
 78
     2
176
     1
 67
     7
176
     1
 79
     5
176
     1
170
     0
176
     1
171
     0
176
     1
290
     0
176
     1
 93
        1
176
     1
 44
0.0
176
     1
173
     0
176
     1
  0
VISUALSTYLE
  5
32
102
{ACAD_REACTORS
330
2A
102
}
330
2A
100
AcDbVisualStyle
  2
Basic
 70
     7
177
     2
291
     1
 71
     1
176
     1
 72
     0
176
     1
 73
     1
176
     1
 90
        0
176
     1
 40
-0.6
176
     1
 41
-30.0
176
     1
 62
     5
 63
     7
421
 16777215
176
     1
 74
     0
176
     1
 91
        4
176
     1
 64
     7
176
     1
 65
   257
176
     1
 75
     1
176
     1
175
     1
176
     1
 42
1.0
176
     1
 92
        8
176
     1
 66
     7
176
     1
 43
1.0
176
     1
 76
     1
176
     1
 77
     6
176
     1
 78
     2
176
     1
 67
     7
176
     1
 79
     5
176
     1
170
     0
176
     1
171
     0
176
     1
290
     0
176
     1
 93
        1
176
     1
 44
0.0
176
     1
173
     0
176
     1
  0
VISUALSTYLE
  5
36
102
{ACAD_REACTORS
330
2A
102
}
330
2A
100
AcDbVisualStyle
  2
Brighten
 70
    12
177
     2
291
     1
 71
     2
176
     1
 72
     2
176
     1
 73
     0
176
     1
 90
        0
176
     1
 40
-0.6
176
     1
 41
-30.0
176
     1
 62
     5
 63
     7
421
 16777215
176
     1
 74
     1
176
     1
 91
        4
176
     1
 64
     7
176
     1
 65
   257
176
     1
 75
     1
176
     1
175
     1
176
     1
 42
1.0
176
     1
 92
        8
176
     1
 66
     7
176
     1
 43
1.0
176
     1
 76
     1
176
     1
 77
     6
176
     1
 78
     2
176
     1
 67
     7
176
     1
 79
     5
176
     1
170
     0
176
     1
171
     0
176
     1
290
     0
176
     1
 93
        1
176
     1
 44
50.0
176
     1
173
     0
176
     1
  0
VISUALSTYLE
  5
3A
102
{ACAD_REACTORS
330
2A
102
}
330
2A
100
AcDbVisualStyle
  2
ColorChange
 70
    16
177
     2
291
     1
 71
     2
176
     1
 72
     2
176
     1
 73
     3
176
     1
 90
        0
176
     1
 40
-0.6
176
     1
 41
-30.0
176
     1
 62
     5
 63
     8
421
  8421504
176
     1
 74
     1
176
     1
 91
        4
176
     1
 64
     7
176
     1
 65
   257
176
     1
 75
     1
176
     1
175
     1
176
     1
 42
1.0
176
     1
 92
        8
176
     1
 66
     8
424
  8421504
176
     1
 43
1.0
176
     1
 76
     1
176
     1
 77
     6
176
     1
 78
     2
176
     1
 67
     7
176
     1
 79
     5
176
     1
170
     0
176
     1
171
     0
176
     1
290
     0
176
     1
 93
        1
176
     1
 44
0.0
176
     1
173
     0
176
     1
  0
VISUALSTYLE
  5
34
102
{ACAD_REACTORS
330
2A
102
}
330
2A
100
AcDbVisualStyle
  2
Conceptual
 70
     9
177
     2
291
     0
 71
     3
176
     1
 72
     2
176
     1
 73
     0
176
     1
 90
        0
176
     1
 40
-0.6
176
     1
 41
-30.0
176
     1
 62
     5
 63
     7
421
 16777215
176
     1
 74
     2
176
     1
 91
        2
176
     1
 64
     7
176
     1
 65
   257
176
     1
 75
     1
176
     1
175
     1
176
     1
 42
40.0
176
     1
 92
        8
176
     1
 66
     7
176
     1
 43
1.0
176
     1
 76
     1
176
     1
 77
     6
176
     1
 78
     2
176
     1
 67
     7
176
     1
 79
     3
176
     1
170
     0
176
     1
171
     0
176
     1
290
     0
176
     1
 93
        1
176
     1
 44
0.0
176
     1
173
     0
176
     1
  0
VISUALSTYLE
  5
35
102
{ACAD_REACTORS
330
2A
102
}
330
2A
100
AcDbVisualStyle
  2
Dim
 70
    11
177
     2
291
     1
 71
     2
176
     1
 72
     2
176
     1
 73
     0
176
     1
 90
        0
176
     1
 40
-0.6
176
     1
 41
-30.0
176
     1
 62
     5
 63
     7
421
 16777215
176
     1
 74
     1
176
     1
 91
        4
176
     1
 64
     7
176
     1
 65
   257
176
     1
 75
     1
176
     1
175
     1
176
     1
 42
1.0
176
     1
 92
        8
176
     1
 66
     7
176
     1
 43
1.0
176
     1
 76
     1
176
     1
 77
     6
176
     1
 78
     2
176
     1
 67
     7
176
     1
 79
     5
176
     1
170
     0
176
     1
171
     0
176
     1
290
     0
176
     1
 93
        1
176
     1
 44
-50.0
176
     1
173
     0
176
     1
  0
VISUALSTYLE
  5
39
102
{ACAD_REACTORS
330
2A
102
}
330
2A
100
AcDbVisualStyle
  2
Facepattern
 70
    15
177
     2
291
     1
 71
     2
176
     1
 72
     2
176
     1
 73
     0
176
     1
 90
        0
176
     1
 40
-0.6
176
     1
 41
-30.0
176
     1
 62
     5
 63
     7
421
 16777215
176
     1
 74
     1
176
     1
 91
        4
176
     1
 64
     7
176
     1
 65
   257
176
     1
 75
     1
176
     1
175
     1
176
     1
 42
1.0
176
     1
 92
        8
176
     1
 66
     7
176
     1
 43
1.0
176
     1
 76
     1
176
     1
 77
     6
176
     1
 78
     2
176
     1
 67
     7
176
     1
 79
     5
176
     1
170
     0
176
     1
171
     0
176
     1
290
     0
176
     1
 93
        1
176
     1
 44
0.0
176
     1
173
     0
176
     1
  0
VISUALSTYLE
  5
2B
102
{ACAD_REACTORS
330
2A
102
}
330
2A
100
AcDbVisualStyle
  2
Flat
 70
     0
177
     2
291
     1
 71
     2
176
     1
 72
     1
176
     1
 73
     1
176
     1
 90
        2
176
     1
 40
-0.6
176
     1
 41
30.0
176
     1
 62
     5
 63
     7
421
 16777215
176
     1
 74
     0
176
     1
 91
        4
176
     1
 64
     7
176
     1
 65
   257
176
     1
 75
     1
176
     1
175
     1
176
     1
 42
1.0
176
     1
 92
        8
176
     1
 66
     7
176
     1
 43
1.0
176
     1
 76
     1
176
     1
 77
     6
176
     1
 78
     2
176
     1
 67
     7
176
     1
 79
     5
176
     1
170
     0
176
     1
171
     0
176
     1
290
     0
176
     1
 93
       13
176
     1
 44
0.0
176
     1
173
     0
176
     1
  0
VISUALSTYLE
  5
2C
102
{ACAD_REACTORS
330
2A
102
}
330
2A
100
AcDbVisualStyle
  2
FlatWithEdges
 70
     1
177
     2
291
     1
 71
     2
176
     1
 72
     1
176
     1
 73
     1
176
     1
 90
        2
176
     1
 40
-0.6
176
     1
 41
30.0
176
     1
 62
     5
 63
     7
421
 16777215
176
     1
 74
     1
176
     1
 91
        4
176
     1
 64
     7
176
     1
 65
   257
176
     1
 75
     1
176
     1
175
     1
176
     1
 42
1.0
176
     1
 92
        0
176
     1
 66
   257
176
     1
 43
1.0
176
     1
 76
     1
176
     1
 77
     6
176
     1
 78
     2
176
     1
 67
     7
176
     1
 79
     5
176
     1
170
     0
176
     1
171
     0
176
     1
290
     0
176
     1
 93
       13
176
     1
 44
0.0
176
     1
173
     0
176
     1
  0
VISUALSTYLE
  5
2D
102
{ACAD_REACTORS
330
2A
102
}
330
2A
100
AcDbVisualStyle
  2
Gouraud
 70
     2
177
     2
291
     1
 71
     2
176
     1
 72
     2
176
     1
 73
     1
176
     1
 90
        2
176
     1
 40
-0.6
176
     1
 41
30.0
176
     1
 62
     5
 63
     7
421
 16777215
176
     1
 74
     0
176
     1
 91
        4
176
     1
 64
     7
176
     1
 65
   257
176
     1
 75
     1
176
     1
175
     1
176
     1
 42
1.0
176
     1
 92
        0
176
     1
 66
     7
176
     1
 43
1.0
176
     1
 76
     1
176
     1
 77
     6
176
     1
 78
     2
176
     1
 67
     7
176
     1
 79
     5
176
     1
170
     0
176
     1
171
     0
176
     1
290
     0
176
     1
 93
       13
176
     1
 44
0.0
176
     1
173
     0
176
     1
  0
VISUALSTYLE
  5
2E
102
{ACAD_REACTORS
330
2A
102
}
330
2A
100
AcDbVisualStyle
  2
GouraudWithEdges
 70
     3
177
     2
291
     1
 71
     2
176
     1
 72
     2
176
     1
 73
     1
176
     1
 90
        2
176
     1
 40
-0.6
176
     1
 41
30.0
176
     1
 62
     5
 63
     7
421
 16777215
176
     1
 74
     1
176
     1
 91
        4
176
     1
 64
     7
176
     1
 65
   257
176
     1
 75
     1
176
     1
175
     1
176
     1
 42
1.0
176
     1
 92
        0
176
     1
 66
   257
176
     1
 43
1.0
176
     1
 76
     1
176
     1
 77
     6
176
     1
 78
     2
176
     1
 67
     7
176
     1
 79
     5
176
     1
170
     0
176
     1
171
     0
176
     1
290
     0
176
     1
 93
       13
176
     1
 44
0.0
176
     1
173
     0
176
     1
  0
VISUALSTYLE
  5
38
102
{ACAD_REACTORS
330
2A
102
}
330
2A
100
AcDbVisualStyle
  2
Linepattern
 70
    14
177
     2
291
     1
 71
     2
176
     1
 72
     2
176
     1
 73
     0
176
     1
 90
        0
176
     1
 40
-0.6
176
     1
 41
-30.0
176
     1
 62
     5
 63
     7
421
 16777215
176
     1
 74
     1
176
     1
 91
        4
176
     1
 64
     7
176
     1
 65
   257
176
     1
 75
     7
176
     1
175
     7
176
     1
 42
1.0
176
     1
 92
        8
176
     1
 66
     7
176
     1
 43
1.0
176
     1
 76
     1
176
     1
 77
     6
176
     1
 78
     2
176
     1
 67
     7
176
     1
 79
     5
176
     1
170
     0
176
     1
171
     0
176
     1
290
     0
176
     1
 93
        1
176
     1
 44
0.0
176
     1
173
     0
176
     1
  0
VISUALSTYLE
  5
33
102
{ACAD_REACTORS
330
2A
102
}
330
2A
100
AcDbVisualStyle
  2
Realistic
 70
     8
177
     2
291
     0
 71
     2
176
     1
 72
     2
176
     1
 73
     0
176
     1
 90
        0
176
     1
 40
-0.6
176
     1
 41
-30.0
176
     1
 62
     5
 63
     7
421
 16777215
176
     1
 74
     1
176
     1
 91
        0
176
     1
 64
     7
176
     1
 65
   257
176
     1
 75
     1
176
     1
175
     1
176
     1
 42
1.0
176
     1
 92
        8
176
     1
 66
     8
424
  7895160
176
     1
 43
1.0
176
     1
 76
     1
176
     1
 77
     6
176
     1
 78
     2
176
     1
 67
     7
176
     1
 79
     5
176
     1
170
     0
176
     1
171
     0
176
     1
290
     0
176
     1
 93
       13
176
     1
 44
0.0
176
     1
173
     0
176
     1
  0
VISUALSTYLE
  5
37
102
{ACAD_REACTORS
330
2A
102
}
330
2A
100
AcDbVisualStyle
  2
Thicken
 70
    13
177
     2
291
     1
 71
     2
176
     1
 72
     2
176
     1
 73
     0
176
     1
 90
        0
176
     1
 40
-0.6
176
     1
 41
-30.0
176
     1
 62
     5
 63
     7
421
 16777215
176
     1
 74
     1
176
     1
 91
        4
176
     1
 64
     7
176
     1
 65
   257
176
     1
 75
     1
176
     1
175
     1
176
     1
 42
1.0
176
     1
 92
       12
176
     1
 66
     7
176
     1
 43
1.0
176
     1
 76
     1
176
     1
 77
     6
176
     1
 78
     2
176
     1
 67
     7
176
     1
 79
     5
176
     1
170
     0
176
     1
171
     0
176
     1
290
     0
176
     1
 93
        1
176
     1
 44
0.0
176
     1
173
     0
176
     1
  0
ENDSEC
  0
EOF
