  0
SECTION
  2
HEADER
  9
$ACADVER
  1
AC1024
  9
$ACADMAINTVER
 70
     6
  9
$DWGCODEPAGE
  3
ANSI_1252
  9
$INSBASE
 10
0.0
 20
0.0
 30
0.0
  9
$EXTMIN
 10
1.000000000000000E+20
 20
1.000000000000000E+20
 30
1.000000000000000E+20
  9
$EXTMAX
 10
-1.000000000000000E+20
 20
-1.000000000000000E+20
 30
-1.000000000000000E+20
  9
$LIMMIN
 10
0.0
 20
0.0
  9
$LIMMAX
 10
12.0
 20
9.0
  9
$ORTHOMODE
 70
     0
  9
$REGENMODE
 70
     1
  9
$FILLMODE
 70
     1
  9
$QTEXTMODE
 70
     0
  9
$MIRRTEXT
 70
     1
  9
$LTSCALE
 40
1.0
  9
$ATTMODE
 70
     1
  9
$TEXTSIZE
 40
0.2
  9
$TRACEWID
 40
0.05
  9
$TEXTSTYLE
  7
Standard
  9
$CLAYER
  8
0
  9
$CELTYPE
  6
ByLayer
  9
$CECOLOR
 62
   256
  9
$CELTSCALE
 40
1.0
  9
$DISPSILH
 70
     0
  9
$DIMSCALE
 40
1.0
  9
$DIMASZ
 40
0.18
  9
$DIMEXO
 40
0.0625
  9
$DIMDLI
 40
0.38
  9
$DIMRND
 40
0.0
  9
$DIMDLE
 40
0.0
  9
$DIMEXE
 40
0.18
  9
$DIMTP
 40
0.0
  9
$DIMTM
 40
0.0
  9
$DIMTXT
 40
0.18
  9
$DIMCEN
 40
0.09
  9
$DIMTSZ
 40
0.0
  9
$DIMTOL
 70
     0
  9
$DIMLIM
 70
     0
  9
$DIMTIH
 70
     1
  9
$DIMTOH
 70
     1
  9
$DIMSE1
 70
     0
  9
$DIMSE2
 70
     0
  9
$DIMTAD
 70
     0
  9
$DIMZIN
 70
     0
  9
$DIMBLK
  1

  9
$DIMASO
 70
     1
  9
$DIMSHO
 70
     1
  9
$DIMPOST
  1

  9
$DIMAPOST
  1

  9
$DIMALT
 70
     0
  9
$DIMALTD
 70
     2
  9
$DIMALTF
 40
25.4
  9
$DIMLFAC
 40
1.0
  9
$DIMTOFL
 70
     0
  9
$DIMTVP
 40
0.0
  9
$DIMTIX
 70
     0
  9
$DIMSOXD
 70
     0
  9
$DIMSAH
 70
     0
  9
$DIMBLK1
  1

  9
$DIMBLK2
  1

  9
$DIMSTYLE
  2
Standard
  9
$DIMCLRD
 70
     0
  9
$DIMCLRE
 70
     0
  9
$DIMCLRT
 70
     0
  9
$DIMTFAC
 40
1.0
  9
$DIMGAP
 40
0.09
  9
$DIMJUST
 70
     0
  9
$DIMSD1
 70
     0
  9
$DIMSD2
 70
     0
  9
$DIMTOLJ
 70
     1
  9
$DIMTZIN
 70
     0
  9
$DIMALTZ
 70
     0
  9
$DIMALTTZ
 70
     0
  9
$DIMUPT
 70
     0
  9
$DIMDEC
 70
     4
  9
$DIMTDEC
 70
     4
  9
$DIMALTU
 70
     2
  9
$DIMALTTD
 70
     2
  9
$DIMTXSTY
  7
Standard
  9
$DIMAUNIT
 70
     0
  9
$DIMADEC
 70
     0
  9
$DIMALTRND
 40
0.0
  9
$DIMAZIN
 70
     0
  9
$DIMDSEP
 70
    46
  9
$DIMATFIT
 70
     3
  9
$DIMFRAC
 70
     0
  9
$DIMLDRBLK
  1

  9
$DIMLUNIT
 70
     2
  9
$DIMLWD
 70
    -2
  9
$DIMLWE
 70
    -2
  9
$DIMTMOVE
 70
     0
  9
$DIMFXL
 40
1.0
  9
$DIMFXLON
 70
     0
  9
$DIMJOGANG
 40
0.7853981633974483
  9
$DIMTFILL
 70
     0
  9
$DIMTFILLCLR
 70
     0
  9
$DIMARCSYM
 70
     0
  9
$DIMLTYPE
  6

  9
$DIMLTEX1
  6

  9
$DIMLTEX2
  6

  9
$DIMTXTDIRECTION
 70
     0
  9
$LUNITS
 70
     2
  9
$LUPREC
 70
     4
  9
$SKETCHINC
 40
0.1
  9
$FILLETRAD
 40
0.5
  9
$AUNITS
 70
     0
  9
$AUPREC
 70
     0
  9
$MENU
  1
.
  9
$ELEVATION
 40
0.0
  9
$PELEVATION
 40
0.0
  9
$THICKNESS
 40
0.0
  9
$LIMCHECK
 70
     0
  9
$CHAMFERA
 40
0.5
  9
$CHAMFERB
 40
0.5
  9
$CHAMFERC
 40
1.0
  9
$CHAMFERD
 40
0.0
  9
$SKPOLY
 70
     0
  9
$TDCREATE
 40
2458164.581047303
  9
$TDUCREATE
 40
2458164.539380637
  9
$TDUPDATE
 40
2458164.581047326
  9
$TDUUPDATE
 40
2458164.53938066
  9
$TDINDWG
 40
0.0000000116
  9
$TDUSRTIMER
 40
0.0000000116
  9
$USRTIMER
 70
     1
  9
$ANGBASE
 50
0.0
  9
$ANGDIR
 70
     0
  9
$PDMODE
 70
     0
  9
$PDSIZE
 40
0.0
  9
$PLINEWID
 40
0.0
  9
$SPLFRAME
 70
     0
  9
$SPLINETYPE
 70
     6
  9
$SPLINESEGS
 70
     8
  9
$HANDSEED
  5
45
  9
$SURFTAB1
 70
     6
  9
$SURFTAB2
 70
     6
  9
$SURFTYPE
 70
     6
  9
$SURFU
 70
     6
  9
$SURFV
 70
     6
  9
$UCSBASE
  2

  9
$UCSNAME
  2

  9
$UCSORG
 10
0.0
 20
0.0
 30
0.0
  9
$UCSXDIR
 10
1.0
 20
0.0
 30
0.0
  9
$UCSYDIR
 10
0.0
 20
1.0
 30
0.0
  9
$UCSORTHOREF
  2

  9
$UCSORTHOVIEW
 70
     0
  9
$UCSORGTOP
 10
0.0
 20
0.0
 30
0.0
  9
$UCSORGBOTTOM
 10
0.0
 20
0.0
 30
0.0
  9
$UCSORGLEFT
 10
0.0
 20
0.0
 30
0.0
  9
$UCSORGRIGHT
 10
0.0
 20
0.0
 30
0.0
  9
$UCSORGFRONT
 10
0.0
 20
0.0
 30
0.0
  9
$UCSORGBACK
 10
0.0
 20
0.0
 30
0.0
  9
$PUCSBASE
  2

  9
$PUCSNAME
  2

  9
$PUCSORG
 10
0.0
 20
0.0
 30
0.0
  9
$PUCSXDIR
 10
1.0
 20
0.0
 30
0.0
  9
$PUCSYDIR
 10
0.0
 20
1.0
 30
0.0
  9
$PUCSORTHOREF
  2

  9
$PUCSORTHOVIEW
 70
     0
  9
$PUCSORGTOP
 10
0.0
 20
0.0
 30
0.0
  9
$PUCSORGBOTTOM
 10
0.0
 20
0.0
 30
0.0
  9
$PUCSORGLEFT
 10
0.0
 20
0.0
 30
0.0
  9
$PUCSORGRIGHT
 10
0.0
 20
0.0
 30
0.0
  9
$PUCSORGFRONT
 10
0.0
 20
0.0
 30
0.0
  9
$PUCSORGBACK
 10
0.0
 20
0.0
 30
0.0
  9
$USERI1
 70
     0
  9
$USERI2
 70
     0
  9
$USERI3
 70
     0
  9
$USERI4
 70
     0
  9
$USERI5
 70
     0
  9
$USERR1
 40
0.0
  9
$USERR2
 40
0.0
  9
$USERR3
 40
0.0
  9
$USERR4
 40
0.0
  9
$USERR5
 40
0.0
  9
$WORLDVIEW
 70
     1
  9
$SHADEDGE
 70
     3
  9
$SHADEDIF
 70
    70
  9
$TILEMODE
 70
     1
  9
$MAXACTVP
 70
    64
  9
$PINSBASE
 10
0.0
 20
0.0
 30
0.0
  9
$PLIMCHECK
 70
     0
  9
$PEXTMIN
 10
1.000000000000000E+20
 20
1.000000000000000E+20
 30
1.000000000000000E+20
  9
$PEXTMAX
 10
-1.000000000000000E+20
 20
-1.000000000000000E+20
 30
-1.000000000000000E+20
  9
$PLIMMIN
 10
0.0
 20
0.0
  9
$PLIMMAX
 10
12.0
 20
9.0
  9
$UNITMODE
 70
     0
  9
$VISRETAIN
 70
     1
  9
$PLINEGEN
 70
     0
  9
$PSLTSCALE
 70
     1
  9
$TREEDEPTH
 70
  3020
  9
$CMLSTYLE
  2
Standard
  9
$CMLJUST
 70
     0
  9
$CMLSCALE
 40
1.0
  9
$PROXYGRAPHICS
 70
     1
  9
$MEASUREMENT
 70
     0
  9
$CELWEIGHT
370
    -1
  9
$ENDCAPS
280
     0
  9
$JOINSTYLE
280
     0
  9
$LWDISPLAY
290
     1
  9
$INSUNITS
 70
     1
  9
$HYPERLINKBASE
  1

  9
$STYLESHEET
  1

  9
$XEDIT
290
     1
  9
$CEPSNTYPE
380
     0
  9
$PSTYLEMODE
290
     1
  9
$FINGERPRINTGUID
  2
{C2F16571-C7F0-4ABB-85BF-6E324B3DA677}
  9
$VERSIONGUID
  2
{FAEB1C32-E019-11D5-929B-00C0DF256EC4}
  9
$EXTNAMES
290
     1
  9
$PSVPSCALE
 40
0.0
  9
$OLESTARTUP
290
     0
  9
$SORTENTS
280
   127
  9
$INDEXCTL
280
     0
  9
$HIDETEXT
280
     1
  9
$XCLIPFRAME
280
     2
  9
$HALOGAP
280
     0
  9
$OBSCOLOR
 70
   257
  9
$OBSLTYPE
280
     0
  9
$INTERSECTIONDISPLAY
280
     0
  9
$INTERSECTIONCOLOR
 70
   257
  9
$DIMASSOC
280
     2
  9
$PROJECTNAME
  1

  9
$CAMERADISPLAY
290
     0
  9
$LENSLENGTH
 40
50.0
  9
$CAMERAHEIGHT
 40
0.0
  9
$STEPSPERSEC
 40
2.0
  9
$STEPSIZE
 40
6.0
  9
$3DDWFPREC
 40
2.0
  9
$PSOLWIDTH
 40
0.25
  9
$PSOLHEIGHT
 40
4.0
  9
$LOFTANG1
 40
1.570796326794897
  9
$LOFTANG2
 40
1.570796326794897
  9
$LOFTMAG1
 40
0.0
  9
$LOFTMAG2
 40
0.0
  9
$LOFTPARAM
 70
     7
  9
$LOFTNORMALS
280
     1
  9
$LATITUDE
 40
37.795
  9
$LONGITUDE
 40
-122.394
  9
$NORTHDIRECTION
 40
0.0
  9
$TIMEZONE
 70
 -8000
  9
$LIGHTGLYPHDISPLAY
280
     1
  9
$TILEMODELIGHTSYNCH
280
     1
  9
$CMATERIAL
347
3C
  9
$SOLIDHIST
280
     1
  9
$SHOWHIST
280
     1
  9
$DWFFRAME
280
     2
  9
$DGNFRAME
280
     2
  9
$REALWORLDSCALE
290
     1
  9
$INTERFERECOLOR
 62
   256
  9
$CSHADOW
280
     0
  9
$SHADOWPLANELOCATION
 40
0.0
  0
ENDSEC
  0
SECTION
  2
CLASSES
  0
CLASS
  1
ACDBDICTIONARYWDFLT
  2
AcDbDictionaryWithDefault
  3
ObjectDBX Classes
 90
        0
 91
        4
280
     0
281
     0
  0
CLASS
  1
VISUALSTYLE
  2
AcDbVisualStyle
  3
ObjectDBX Classes
 90
     4095
 91
        4
280
     0
281
     0
  0
CLASS
  1
MATERIAL
  2
AcDbMaterial
  3
ObjectDBX Classes
 90
     1153
 91
        4
280
     0
281
     0
  0
CLASS
  1
SUN
  2
AcDbSun
  3
SCENEOE
 90
     1024
 91
        4
280
     0
281
     0
  0
ENDSEC
  0
SECTION
  2
TABLES
  0
TABLE
  2
VPORT
  5
8
330
0
100
AcDbSymbolTable
 70
     1
  0
VPORT
  5
29
330
8
100
AcDbSymbolTableRecord
100
AcDbViewportTableRecord
  2
*Active
 70
     0
 10
0.0
 20
0.0
 11
1.0
 21
1.0
 12
0.0
 22
0.0
 13
0.0
 23
0.0
 14
0.5
 24
0.5
 15
0.5
 25
0.5
 16
0.0
 26
0.0
 36
1.0
 17
6.0
 27
-6.0
 37
0.0
 40
12.0
 41
1.0
 42
50.0
 43
0.0
 44
0.0
 50
0.0
 51
0.0
 71
     0
 72
   100
 73
     1
 74
     3
 75
     0
 76
     0
 77
     0
 78
     0
281
     0
 65
     1
110
0.0
120
0.0
130
0.0
111
1.0
121
0.0
131
0.0
112
0.0
122
1.0
132
0.0
 79
     0
146
0.0
 60
     3
 61
     5
292
     1
282
     1
141
0.0
142
0.0
 63
   250
361
3F
  0
ENDTAB
  0
TABLE
  2
LTYPE
  5
5
330
0
100
AcDbSymbolTable
 70
     1
  0
LTYPE
  5
14
330
5
100
AcDbSymbolTableRecord
100
AcDbLinetypeTableRecord
  2
ByBlock
 70
     0
  3

 72
    65
 73
     0
 40
0.0
  0
LTYPE
  5
15
330
5
100
AcDbSymbolTableRecord
100
AcDbLinetypeTableRecord
  2
ByLayer
 70
     0
  3

 72
    65
 73
     0
 40
0.0
  0
LTYPE
  5
16
330
5
100
AcDbSymbolTableRecord
100
AcDbLinetypeTableRecord
  2
Continuous
 70
     0
  3
Solid line
 72
    65
 73
     0
 40
0.0
  0
ENDTAB
  0
TABLE
  2
LAYER
  5
2
330
0
100
AcDbSymbolTable
 70
     2
  0
LAYER
  5
10
330
2
100
AcDbSymbolTableRecord
100
AcDbLayerTableRecord
  2
0
 70
     0
 62
     7
  6
Continuous
370
    -3
390
F
347
3E
  0
LAYER
  5
40
330
2
100
AcDbSymbolTableRecord
100
AcDbLayerTableRecord
  2
Layer 1
 70
     0
 62
     7
  6
Continuous
370
    -3
390
F
347
3E
  0
ENDTAB
  0
TABLE
  2
STYLE
  5
3
330
0
100
AcDbSymbolTable
 70
     1
  0
STYLE
  5
11
330
3
100
AcDbSymbolTableRecord
100
AcDbTextStyleTableRecord
  2
Standard
 70
     0
 40
0.0
 41
1.0
 50
0.0
 71
     0
 42
0.2
  3
txt
  4

  0
ENDTAB
  0
TABLE
  2
VIEW
  5
6
330
0
100
AcDbSymbolTable
 70
     0
  0
ENDTAB
  0
TABLE
  2
UCS
  5
7
330
0
100
AcDbSymbolTable
 70
     0
  0
ENDTAB
  0
TABLE
  2
APPID
  5
9
330
0
100
AcDbSymbolTable
 70
     1
  0
APPID
  5
12
330
9
100
AcDbSymbolTableRecord
100
AcDbRegAppTableRecord
  2
ACAD
 70
     0
  0
ENDTAB
  0
TABLE
  2
DIMSTYLE
  5
A
330
0
100
AcDbSymbolTable
 70
     1
100
AcDbDimStyleTable
  0
DIMSTYLE
105
27
330
A
100
AcDbSymbolTableRecord
100
AcDbDimStyleTableRecord
  2
Standard
 70
     0
178
     0
340
11
  0
ENDTAB
  0
TABLE
  2
BLOCK_RECORD
  5
1
330
0
100
AcDbSymbolTable
 70
     1
  0
BLOCK_RECORD
  5
1F
330
1
100
AcDbSymbolTableRecord
100
AcDbBlockTableRecord
  2
*Model_Space
340
22
 70
     0
280
     1
281
     0
  0
BLOCK_RECORD
  5
1B
330
1
100
AcDbSymbolTableRecord
100
AcDbBlockTableRecord
  2
*Paper_Space
340
1E
 70
     0
280
     1
281
     0
  0
BLOCK_RECORD
  5
23
330
1
100
AcDbSymbolTableRecord
100
AcDbBlockTableRecord
  2
*Paper_Space0
340
26
 70
     0
280
     1
281
     0
  0
ENDTAB
  0
ENDSEC
  0
SECTION
  2
BLOCKS
  0
BLOCK
  5
20
330
1F
100
AcDbEntity
  8
0
100
AcDbBlockBegin
  2
*Model_Space
 70
     0
 10
0.0
 20
0.0
 30
0.0
  3
*Model_Space
  1

  0
ENDBLK
  5
21
330
1F
100
AcDbEntity
  8
0
100
AcDbBlockEnd
  0
BLOCK
  5
1C
330
1B
100
AcDbEntity
 67
     1
  8
0
100
AcDbBlockBegin
  2
*Paper_Space
 70
     0
 10
0.0
 20
0.0
 30
0.0
  3
*Paper_Space
  1

  0
ENDBLK
  5
1D
330
1B
100
AcDbEntity
 67
     1
  8
0
100
AcDbBlockEnd
  0
BLOCK
  5
24
330
23
100
AcDbEntity
  8
0
100
AcDbBlockBegin
  2
*Paper_Space0
 70
     0
 10
0.0
 20
0.0
 30
0.0
  3
*Paper_Space0
  1

  0
ENDBLK
  5
25
330
23
100
AcDbEntity
  8
0
100
AcDbBlockEnd
  0
ENDSEC
  0
SECTION
  2
ENTITIES
  0
SPLINE
  5
41
330
1F
100
AcDbEntity
  8
Layer 1
 62
     7
420
 16777215
370
    18
100
AcDbSpline
210
0.0
220
0.0
230
1.0
 70
    11
 71
     3
 72
   251
 73
   247
 74
     0
 42
0.0000000001
 43
0.0000000001
 12
1.0
 22
0.0
 32
0.0
 13
1.0
 23
0.0
 33
0.0
 40
0.0
 40
0.0
 40
0.0
 40
0.0
 40
1.0
 40
1.0
 40
1.0
 40
2.0
 40
2.0
 40
2.0
 40
3.0
 40
3.0
 40
3.0
 40
4.0
 40
4.0
 40
4.0
 40
5.0
 40
5.0
 40
5.0
 40
6.0
 40
6.0
 40
6.0
 40
7.0
 40
7.0
 40
7.0
 40
8.0
 40
8.0
 40
8.0
 40
9.0
 40
9.0
 40
9.0
 40
10.0
 40
10.0
 40
10.0
 40
11.0
 40
11.0
 40
11.0
 40
12.0
 40
12.0
 40
12.0
 40
13.0
 40
13.0
 40
13.0
 40
14.0
 40
14.0
 40
14.0
 40
15.0
 40
15.0
 40
15.0
 40
16.0
 40
16.0
 40
16.0
 40
17.0
 40
17.0
 40
17.0
 40
18.0
 40
18.0
 40
18.0
 40
19.0
 40
19.0
 40
19.0
 40
20.0
 40
20.0
 40
20.0
 40
21.0
 40
21.0
 40
21.0
 40
22.0
 40
22.0
 40
22.0
 40
23.0
 40
23.0
 40
23.0
 40
24.0
 40
24.0
 40
24.0
 40
25.0
 40
25.0
 40
25.0
 40
26.0
 40
26.0
 40
26.0
 40
27.0
 40
27.0
 40
27.0
 40
28.0
 40
28.0
 40
28.0
 40
29.0
 40
29.0
 40
29.0
 40
30.0
 40
30.0
 40
30.0
 40
31.0
 40
31.0
 40
31.0
 40
32.0
 40
32.0
 40
32.0
 40
33.0
 40
33.0
 40
33.0
 40
34.0
 40
34.0
 40
34.0
 40
35.0
 40
35.0
 40
35.0
 40
36.0
 40
36.0
 40
36.0
 40
37.0
 40
37.0
 40
37.0
 40
38.0
 40
38.0
 40
38.0
 40
39.0
 40
39.0
 40
39.0
 40
40.0
 40
40.0
 40
40.0
 40
41.0
 40
41.0
 40
41.0
 40
42.0
 40
42.0
 40
42.0
 40
43.0
 40
43.0
 40
43.0
 40
44.0
 40
44.0
 40
44.0
 40
45.0
 40
45.0
 40
45.0
 40
46.0
 40
46.0
 40
46.0
 40
47.0
 40
47.0
 40
47.0
 40
48.0
 40
48.0
 40
48.0
 40
49.0
 40
49.0
 40
49.0
 40
50.0
 40
50.0
 40
50.0
 40
51.0
 40
51.0
 40
51.0
 40
52.0
 40
52.0
 40
52.0
 40
53.0
 40
53.0
 40
53.0
 40
54.0
 40
54.0
 40
54.0
 40
55.0
 40
55.0
 40
55.0
 40
56.0
 40
56.0
 40
56.0
 40
57.0
 40
57.0
 40
57.0
 40
58.0
 40
58.0
 40
58.0
 40
59.0
 40
59.0
 40
59.0
 40
60.0
 40
60.0
 40
60.0
 40
61.0
 40
61.0
 40
61.0
 40
62.0
 40
62.0
 40
62.0
 40
63.0
 40
63.0
 40
63.0
 40
64.0
 40
64.0
 40
64.0
 40
65.0
 40
65.0
 40
65.0
 40
66.0
 40
66.0
 40
66.0
 40
67.0
 40
67.0
 40
67.0
 40
68.0
 40
68.0
 40
68.0
 40
69.0
 40
69.0
 40
69.0
 40
70.0
 40
70.0
 40
70.0
 40
71.0
 40
71.0
 40
71.0
 40
72.0
 40
72.0
 40
72.0
 40
73.0
 40
73.0
 40
73.0
 40
74.0
 40
74.0
 40
74.0
 40
75.0
 40
75.0
 40
75.0
 40
76.0
 40
76.0
 40
76.0
 40
77.0
 40
77.0
 40
77.0
 40
78.0
 40
78.0
 40
78.0
 40
79.0
 40
79.0
 40
79.0
 40
80.0
 40
80.0
 40
80.0
 40
81.0
 40
81.0
 40
81.0
 40
82.0
 40
82.0
 40
82.0
 40
82.0
 10
4.029635806042291
 20
-4.393570977637447
 30
0.0
 10
4.056288144451577
 20
-4.353093244056759
 30
0.0
 10
4.067248263827777
 20
-4.305077901512921
 30
0.0
 10
4.182460476202272
 20
-4.338689520212559
 30
0.0
 10
4.297681477766294
 20
-4.372318717291313
 30
0.0
 10
4.567193186308246
 20
-4.501788752963358
 30
0.0
 10
4.740308579476946
 20
-4.530095216847081
 30
0.0
 10
4.913413425618185
 20
-4.558419259109908
 30
0.0
 10
5.035199951780479
 20
-4.5312624212201
 30
0.0
 10
5.035199951780479
 20
-4.5312624212201
 30
0.0
 10
4.904838692287462
 20
-4.502595600564606
 30
0.0
 10
4.637309824909342
 20
-4.386481617341701
 30
0.0
 10
4.612425871438695
 20
-4.377435783450766
 30
0.0
 10
4.587570043374626
 20
-4.368405770101011
 30
0.0
 10
4.959377371319698
 20
-4.209787266185812
 30
0.0
 10
5.092751564992479
 20
-4.183591965633418
 30
0.0
 10
5.226125758665249
 20
-4.157379086701907
 30
0.0
 10
5.295442581016762
 20
-4.173206659254169
 30
0.0
 10
5.336118950281452
 20
-4.169583755319246
 30
0.0
 10
5.376793561708218
 20
-4.16596260922222
 30
0.0
 10
5.366821347238101
 20
-4.145722863512889
 30
0.0
 10
5.39028672551443
 20
-4.143799788838073
 30
0.0
 10
5.413727494060001
 20
-4.141878472001155
 30
0.0
 10
5.443665231525276
 20
-4.145895131628182
 30
0.0
 10
5.464223145896514
 20
-4.132075009970523
 30
0.0
 10
5.484779302429855
 20
-4.118256646150725
 30
0.0
 10
5.498135354878981
 20
-4.116265015797378
 30
0.0
 10
5.5203737622933
 20
-4.119647095938477
 30
0.0
 10
5.542596349166425
 20
-4.123062574999886
 30
0.0
 10
5.59540878662771
 20
-4.122788352285763
 30
0.0
 10
5.611466635540674
 20
-4.116351149855013
 30
0.0
 10
5.627535077034584
 20
-4.109913947424275
 30
0.0
 10
5.584988323753489
 20
-4.079976209958974
 30
0.0
 10
5.600720972661103
 20
-4.077400977419125
 30
0.0
 10
5.616471199947378
 20
-4.074843323258341
 30
0.0
 10
5.654245377866446
 20
-4.105897287797246
 30
0.0
 10
5.664031261270767
 20
-4.109827813366628
 30
0.0
 10
5.673790777107077
 20
-4.113742518394828
 30
0.0
 10
5.712723370180356
 20
-4.103012675785004
 30
0.0
 10
5.722224483850255
 20
-4.100678267038928
 30
0.0
 10
5.731734386709491
 20
-4.098361436672008
 30
0.0
 10
5.696646185050857
 20
-4.062844321676632
 30
0.0
 10
5.709367657692686
 20
-4.068560810563781
 30
0.0
 10
5.722104950875316
 20
-4.074259721071838
 30
0.0
 10
5.745167783687369
 20
-4.086276301032663
 30
0.0
 10
5.75551969088479
 20
-4.092576392106303
 30
0.0
 10
5.765854019703536
 20
-4.098876483179993
 30
0.0
 10
5.810056610701395
 20
-4.099407350229159
 30
0.0
 10
5.82342145200246
 20
-4.09741747771371
 30
0.0
 10
5.836784535465654
 20
-4.095408268981234
 30
0.0
 10
5.785105860020419
 20
-4.05386528562633
 30
0.0
 10
5.810881036660905
 20
-4.061469692430099
 30
0.0
 10
5.836638634922716
 20
-4.069023121934442
 30
0.0
 10
5.851102124890518
 20
-4.081864127875595
 30
0.0
 10
5.865307212691897
 20
-4.088456020042511
 30
0.0
 10
5.87950356322296
 20
-4.095083068967672
 30
0.0
 10
5.913373531320922
 20
-4.089331423322291
 30
0.0
 10
5.93327752948638
 20
-4.083236999284243
 30
0.0
 10
5.953199106030511
 20
-4.077109176325848
 30
0.0
 10
5.888215355771674
 20
-4.027497716958654
 30
0.0
 10
5.913079972397163
 20
-4.036527730308371
 30
0.0
 10
5.93795513604986
 20
-4.045573564199306
 30
0.0
 10
5.937895369562384
 20
-4.055668827323201
 30
0.0
 10
5.96868214196104
 20
-4.068302408390839
 30
0.0
 10
5.999470672197554
 20
-4.08095356783762
 30
0.0
 10
6.018850834678712
 20
-4.062380252468099
 30
0.0
 10
6.033108657616089
 20
-4.058912038269315
 30
0.0
 10
6.04736472271563
 20
-4.055428003529388
 30
0.0
 10
6.009316322089338
 20
-4.018107346837129
 30
0.0
 10
6.020886466419066
 20
-4.019068884174557
 30
0.0
 10
6.032447710578203
 20
-4.020030421511946
 30
0.0
 10
6.052506398475922
 20
-4.040321144520691
 30
0.0
 10
6.059896348867849
 20
-4.044819451735394
 30
0.0
 10
6.067295088449074
 20
-4.049316001112212
 30
0.0
 10
6.121900563942492
 20
-4.046072790166098
 30
0.0
 10
6.135274194432895
 20
-4.044063581433597
 30
0.0
 10
6.148637277896088
 20
-4.04207195108025
 30
0.0
 10
6.110253130237248
 20
-4.008650178874985
 30
0.0
 10
6.125359988864298
 20
-4.013747908817423
 30
0.0
 10
6.14046684749135
 20
-4.01889837389716
 30
0.0
 10
6.152861362289943
 20
-4.028459254296081
 30
0.0
 10
6.17297981667515
 20
-4.038656472018817
 30
0.0
 10
6.193098271060358
 20
-4.048887088661874
 30
0.0
 10
6.205621108023252
 20
-4.038260958488814
 30
0.0
 10
6.227587050006427
 20
-4.035429081613882
 30
0.0
 10
6.249567054692559
 20
-4.032597204738989
 30
0.0
 10
6.207458048594011
 20
-3.978642127893257
 30
0.0
 10
6.242881997285217
 20
-4.010297272997781
 30
0.0
 10
6.27827782057054
 20
-4.041985817022603
 30
0.0
 10
6.323709203377852
 20
-4.037179888173442
 30
0.0
 10
6.333802645268254
 20
-4.037230865472856
 30
0.0
 10
6.34388918259818
 20
-4.037299421151387
 30
0.0
 10
6.309744876223627
 20
-3.990247373782861
 30
0.0
 10
6.317134889590029
 20
-3.99472810261846
 30
0.0
 10
6.324524777007455
 20
-3.999224651995266
 30
0.0
 10
6.351398602314652
 20
-4.02162653833534
 30
0.0
 10
6.367904699883638
 20
-4.037745911980829
 30
0.0
 10
6.384435407182764
 20
-4.05386528562633
 30
0.0
 10
6.436080683708546
 20
-4.048818532983343
 30
0.0
 10
6.445006984396008
 20
-4.044132137112127
 30
0.0
 10
6.453950863462144
 20
-4.039428162861832
 30
0.0
 10
6.423652769990465
 20
-3.992685494965662
 30
0.0
 10
6.43696487615552
 20
-4.00076979151917
 30
0.0
 10
6.450268193131251
 20
-4.008873424289719
 30
0.0
 10
6.454061607247745
 20
-4.019276309048084
 30
0.0
 10
6.473536692973716
 20
-4.037179888173442
 30
0.0
 10
6.493013536537546
 20
-4.055085225136698
 30
0.0
 10
6.561249286849917
 20
-4.056080161394422
 30
0.0
 10
6.569850387532015
 20
-4.055273313793211
 30
0.0
 10
6.578467308754928
 20
-4.054415488892547
 30
0.0
 10
6.543430084394433
 20
-4.008820689152381
 30
0.0
 10
6.549343450978262
 20
-4.01240843632911
 30
0.0
 10
6.555258575399951
 20
-4.016013761884917
 30
0.0
 10
6.576210244933994
 20
-4.034810322669172
 30
0.0
 10
6.593625214639385
 20
-4.049453112469274
 30
0.0
 10
6.611048833615566
 20
-4.064113480648517
 30
0.0
 10
6.653449640799963
 20
-4.067616851605496
 30
0.0
 10
6.67124247568745
 20
-4.068319986769956
 30
0.0
 10
6.68902652138556
 20
-4.069040700313558
 30
0.0
 10
6.666737137234905
 20
-4.029128990540231
 30
0.0
 10
6.666737137234905
 20
-4.029128990540231
 30
0.0
 10
6.737890972009786
 20
-4.088593131399572
 30
0.0
 10
6.732569923183392
 20
-4.133947107345926
 30
0.0
 10
6.754361913237542
 20
-4.161395746328973
 30
0.0
 10
6.776155513089988
 20
-4.188810986391723
 30
0.0
 10
6.931202086452887
 20
-4.210200358094918
 30
0.0
 10
7.170879763911544
 20
-4.268875229732164
 30
0.0
 10
7.410555683532316
 20
-4.327565921910592
 30
0.0
 10
7.541595465148703
 20
-4.395082718241079
 30
0.0
 10
7.694935177942979
 20
-4.502527044886051
 30
0.0
 10
7.848282023743245
 20
-4.609953793151931
 30
0.0
 10
7.924037702795102
 20
-4.745087582573799
 30
0.0
 10
8.060535570987819
 20
-4.840241106543809
 30
0.0
 10
8.19705101755921
 20
-4.935410451055051
 30
0.0
 10
8.264824456512617
 20
-4.913850569074421
 30
0.0
 10
8.30120818467905
 20
-4.933935625047575
 30
0.0
 10
8.337576206319858
 20
-4.954018923182793
 30
0.0
 10
8.325953268329613
 20
-4.963168469510479
 30
0.0
 10
8.310083621389014
 20
-4.985914892081142
 30
0.0
 10
8.294229568347975
 20
-5.008677135192973
 30
0.0
 10
8.281399109758416
 20
-5.023114257957483
 30
0.0
 10
8.281399109758416
 20
-5.023114257957483
 30
0.0
 10
8.332536371140678
 20
-4.997673069868989
 30
0.0
 10
8.351900713081047
 20
-4.988695791656621
 30
0.0
 10
8.361162760801056
 20
-5.002273331682558
 30
0.0
 10
8.37044062906188
 20
-5.015887786304638
 30
0.0
 10
8.350304596297999
 20
-5.034666768709775
 30
0.0
 10
8.350304596297999
 20
-5.034666768709775
 30
0.0
 10
8.312152483237595
 20
-5.087368507124804
 30
0.0
 10
8.23110912622792
 20
-5.095813160450107
 30
0.0
 10
8.133355762456732
 20
-5.22162689326693
 30
0.0
 10
8.035593609496193
 20
-5.347421289866689
 30
0.0
 10
7.810335476058677
 20
-5.508115800354997
 30
0.0
 10
7.810335476058677
 20
-5.508115800354997
 30
0.0
 10
7.666790435858072
 20
-5.624280760877355
 30
0.0
 10
7.236111369309583
 20
-5.903012329263421
 30
0.0
 10
7.236111369309583
 20
-5.903012329263421
 30
0.0
 10
7.236111369309583
 20
-5.903012329263421
 30
0.0
 10
6.963766032934851
 20
-6.126139968843063
 30
0.0
 10
6.650909565082479
 20
-6.276037838880939
 30
0.0
 10
6.338051339392248
 20
-6.425933951080879
 30
0.0
 10
5.952193622770715
 20
-6.501106131514562
 30
0.0
 10
5.725915943370473
 20
-6.533601523140582
 30
0.0
 10
5.49964533764469
 20
-6.566063515846331
 30
0.0
 10
5.126792096142455
 20
-6.624806943162108
 30
0.0
 10
4.717836379620445
 20
-6.767923074538658
 30
0.0
 10
4.308891210125895
 20
-6.911039205915181
 30
0.0
 10
3.943847515111656
 20
-6.932015485709295
 30
0.0
 10
3.868186655738706
 20
-6.931570752717739
 30
0.0
 10
3.868186655738706
 20
-6.931570752717739
 30
0.0
 10
3.85661656660731
 20
-6.930711169979177
 30
0.0
 10
3.860101304482441
 20
-6.922231359895679
 30
0.0
 10
3.862315828682944
 20
-6.916806672101757
 30
0.0
 10
3.87049557583503
 20
-6.917785787818275
 30
0.0
 10
3.87049557583503
 20
-6.917785787818275
 30
0.0
 10
3.946147821802229
 20
-6.918214700268613
 30
0.0
 10
4.391564084926535
 20
-6.855008122496352
 30
0.0
 10
4.705202798552793
 20
-6.723804858643866
 30
0.0
 10
5.104896467120814
 20
-6.556569433288056
 30
0.0
 10
5.487002967387475
 20
-6.521911901031267
 30
0.0
 10
5.713271815594781
 20
-6.489432329946415
 30
0.0
 10
5.939542463643559
 20
-6.456970337240667
 30
0.0
 10
6.325391391075755
 20
-6.381815735186137
 30
0.0
 10
6.638258405955336
 20
-6.231902044607068
 30
0.0
 10
6.697103786383397
 20
-6.20371511370134
 30
0.0
 10
6.754525318139359
 20
-6.172919551335377
 30
0.0
 10
6.808969072549037
 20
-6.141503472186792
 30
0.0
 10
6.991309594469309
 20
-5.938786088593815
 30
0.0
 10
6.908026752017374
 20
-5.96975391907506
 30
0.0
 10
6.908026752017374
 20
-5.96975391907506
 30
0.0
 10
6.891469677150249
 20
-5.979471247048044
 30
0.0
 10
6.875281748235137
 20
-5.988415126340126
 30
0.0
 10
6.859575466895522
 20
-5.996791223986898
 30
0.0
 10
6.825336300926538
 20
-6.046557373090283
 30
0.0
 10
6.738319810845597
 20
-6.135925852494615
 30
0.0
 10
6.530710369590476
 20
-6.202118996877971
 30
0.0
 10
6.227560682438429
 20
-6.298764925234586
 30
0.0
 10
5.649704882656565
 20
-6.37503575436272
 30
0.0
 10
5.437528619377367
 20
-6.377370163108758
 30
0.0
 10
5.225343520794783
 20
-6.379704571854795
 30
0.0
 10
4.903748832782526
 20
-6.416269358245219
 30
0.0
 10
4.285501418879739
 20
-6.584053229029349
 30
0.0
 10
4.285501418879739
 20
-6.584053229029349
 30
0.0
 10
4.249787426038324
 20
-6.593976224037962
 30
0.0
 10
4.253572051061092
 20
-6.57746133686242
 30
0.0
 10
4.256507640372774
 20
-6.564500797943285
 30
0.0
 10
4.278034123433056
 20
-6.561187273480729
 30
0.0
 10
4.278034123433056
 20
-6.561187273480729
 30
0.0
 10
4.807985339057331
 20
-6.413024389461194
 30
0.0
 10
5.195560473065673
 20
-6.343243497901135
 30
0.0
 10
5.407745571648257
 20
-6.34094248807542
 30
0.0
 10
5.619939414058522
 20
-6.338608079329333
 30
0.0
 10
6.197768846272386
 20
-6.262339008039135
 30
0.0
 10
6.500934421582896
 20
-6.165691321844583
 30
0.0
 10
6.603924316741541
 20
-6.132853151825858
 30
0.0
 10
6.677173420649928
 20
-6.094314313461179
 30
0.0
 10
6.729101782453906
 20
-6.057714370312523
 30
0.0
 10
6.707592804934418
 20
-6.06638402689047
 30
0.0
 10
6.694692032830188
 20
-6.070847177346953
 30
0.0
 10
6.694692032830188
 20
-6.070847177346953
 30
0.0
 10
6.662882198793063
 20
-6.079859612317553
 30
0.0
 10
6.377140380035674
 20
-6.183492946371112
 30
0.0
 10
5.990440713797448
 20
-6.203458469366296
 30
0.0
 10
5.603725117575411
 20
-6.22340465614444
 30
0.0
 10
5.374235907547459
 20
-6.098039171994969
 30
0.0
 10
5.374235907547459
 20
-6.098039171994969
 30
0.0
 10
4.713810930803839
 20
-6.198548828080371
 30
0.0
 10
4.193610442072869
 20
-5.562327521535773
 30
0.0
 10
4.18331830110291
 20
-5.545951503555228
 30
0.0
 10
4.173027917970873
 20
-5.529556149357669
 30
0.0
 10
4.16543933170831
 20
-5.508767958220068
 30
0.0
 10
4.222750121126473
 20
-5.501094995737781
 30
0.0
 10
4.375033377209825
 20
-5.480700560292285
 30
0.0
 10
4.7835584234436
 20
-5.291390206447873
 30
0.0
 10
4.7835584234436
 20
-5.291390206447873
 30
0.0
 10
4.472015052607465
 20
-5.294274818460116
 30
0.0
 10
4.179343829585743
 20
-5.415983999754316
 30
0.0
 10
4.11548509394845
 20
-5.427759755921291
 30
0.0
 10
4.051635147500696
 20
-5.439535512088292
 30
0.0
 10
4.03246944075512
 20
-5.417769963072083
 30
0.0
 10
4.019860469418227
 20
-5.39186470577503
 30
0.0
 10
4.007260287270898
 20
-5.366012183615326
 30
0.0
 10
3.892082352735681
 20
-5.125889767110366
 30
0.0
 10
3.895953287599885
 20
-4.873132011699883
 30
0.0
 10
3.899832835869852
 20
-4.620374256289399
 30
0.0
 10
4.002985225470903
 20
-4.434066289597277
 30
0.0
 10
4.029635806042291
 20
-4.393570977637447
 30
0.0
  0
HATCH
  5
42
330
1F
100
AcDbEntity
  8
Layer 1
 62
     7
420
 16777215
100
AcDbHatch
 10
0.0
 20
0.0
 30
0.0
210
0.0
220
0.0
230
1.0
  2
SOLID
 70
     1
 71
     0
 91
        1
 92
        1
 93
        1
 72
     4
 94
        3
 73
     0
 74
     1
 95
      251
 96
      247
 40
0.0
 40
0.0
 40
0.0
 40
0.0
 40
1.0
 40
1.0
 40
1.0
 40
2.0
 40
2.0
 40
2.0
 40
3.0
 40
3.0
 40
3.0
 40
4.0
 40
4.0
 40
4.0
 40
5.0
 40
5.0
 40
5.0
 40
6.0
 40
6.0
 40
6.0
 40
7.0
 40
7.0
 40
7.0
 40
8.0
 40
8.0
 40
8.0
 40
9.0
 40
9.0
 40
9.0
 40
10.0
 40
10.0
 40
10.0
 40
11.0
 40
11.0
 40
11.0
 40
12.0
 40
12.0
 40
12.0
 40
13.0
 40
13.0
 40
13.0
 40
14.0
 40
14.0
 40
14.0
 40
15.0
 40
15.0
 40
15.0
 40
16.0
 40
16.0
 40
16.0
 40
17.0
 40
17.0
 40
17.0
 40
18.0
 40
18.0
 40
18.0
 40
19.0
 40
19.0
 40
19.0
 40
20.0
 40
20.0
 40
20.0
 40
21.0
 40
21.0
 40
21.0
 40
22.0
 40
22.0
 40
22.0
 40
23.0
 40
23.0
 40
23.0
 40
24.0
 40
24.0
 40
24.0
 40
25.0
 40
25.0
 40
25.0
 40
26.0
 40
26.0
 40
26.0
 40
27.0
 40
27.0
 40
27.0
 40
28.0
 40
28.0
 40
28.0
 40
29.0
 40
29.0
 40
29.0
 40
30.0
 40
30.0
 40
30.0
 40
31.0
 40
31.0
 40
31.0
 40
32.0
 40
32.0
 40
32.0
 40
33.0
 40
33.0
 40
33.0
 40
34.0
 40
34.0
 40
34.0
 40
35.0
 40
35.0
 40
35.0
 40
36.0
 40
36.0
 40
36.0
 40
37.0
 40
37.0
 40
37.0
 40
38.0
 40
38.0
 40
38.0
 40
39.0
 40
39.0
 40
39.0
 40
40.0
 40
40.0
 40
40.0
 40
41.0
 40
41.0
 40
41.0
 40
42.0
 40
42.0
 40
42.0
 40
43.0
 40
43.0
 40
43.0
 40
44.0
 40
44.0
 40
44.0
 40
45.0
 40
45.0
 40
45.0
 40
46.0
 40
46.0
 40
46.0
 40
47.0
 40
47.0
 40
47.0
 40
48.0
 40
48.0
 40
48.0
 40
49.0
 40
49.0
 40
49.0
 40
50.0
 40
50.0
 40
50.0
 40
51.0
 40
51.0
 40
51.0
 40
52.0
 40
52.0
 40
52.0
 40
53.0
 40
53.0
 40
53.0
 40
54.0
 40
54.0
 40
54.0
 40
55.0
 40
55.0
 40
55.0
 40
56.0
 40
56.0
 40
56.0
 40
57.0
 40
57.0
 40
57.0
 40
58.0
 40
58.0
 40
58.0
 40
59.0
 40
59.0
 40
59.0
 40
60.0
 40
60.0
 40
60.0
 40
61.0
 40
61.0
 40
61.0
 40
62.0
 40
62.0
 40
62.0
 40
63.0
 40
63.0
 40
63.0
 40
64.0
 40
64.0
 40
64.0
 40
65.0
 40
65.0
 40
65.0
 40
66.0
 40
66.0
 40
66.0
 40
67.0
 40
67.0
 40
67.0
 40
68.0
 40
68.0
 40
68.0
 40
69.0
 40
69.0
 40
69.0
 40
70.0
 40
70.0
 40
70.0
 40
71.0
 40
71.0
 40
71.0
 40
72.0
 40
72.0
 40
72.0
 40
73.0
 40
73.0
 40
73.0
 40
74.0
 40
74.0
 40
74.0
 40
75.0
 40
75.0
 40
75.0
 40
76.0
 40
76.0
 40
76.0
 40
77.0
 40
77.0
 40
77.0
 40
78.0
 40
78.0
 40
78.0
 40
79.0
 40
79.0
 40
79.0
 40
80.0
 40
80.0
 40
80.0
 40
81.0
 40
81.0
 40
81.0
 40
82.0
 40
82.0
 40
82.0
 40
82.0
 10
4.029635806042291
 20
-4.393570977637447
 10
4.056288144451577
 20
-4.353093244056759
 10
4.067248263827777
 20
-4.305077901512921
 10
4.182460476202272
 20
-4.338689520212559
 10
4.297681477766294
 20
-4.372318717291313
 10
4.567193186308246
 20
-4.501788752963358
 10
4.740308579476946
 20
-4.530095216847081
 10
4.913413425618185
 20
-4.558419259109908
 10
5.035199951780479
 20
-4.5312624212201
 10
5.035199951780479
 20
-4.5312624212201
 10
4.904838692287462
 20
-4.502595600564606
 10
4.637309824909342
 20
-4.386481617341701
 10
4.612425871438695
 20
-4.377435783450766
 10
4.587570043374626
 20
-4.368405770101011
 10
4.959377371319698
 20
-4.209787266185812
 10
5.092751564992479
 20
-4.183591965633418
 10
5.226125758665249
 20
-4.157379086701907
 10
5.295442581016762
 20
-4.173206659254169
 10
5.336118950281452
 20
-4.169583755319246
 10
5.376793561708218
 20
-4.16596260922222
 10
5.366821347238101
 20
-4.145722863512889
 10
5.39028672551443
 20
-4.143799788838073
 10
5.413727494060001
 20
-4.141878472001155
 10
5.443665231525276
 20
-4.145895131628182
 10
5.464223145896514
 20
-4.132075009970523
 10
5.484779302429855
 20
-4.118256646150725
 10
5.498135354878981
 20
-4.116265015797378
 10
5.5203737622933
 20
-4.119647095938477
 10
5.542596349166425
 20
-4.123062574999886
 10
5.59540878662771
 20
-4.122788352285763
 10
5.611466635540674
 20
-4.116351149855013
 10
5.627535077034584
 20
-4.109913947424275
 10
5.584988323753489
 20
-4.079976209958974
 10
5.600720972661103
 20
-4.077400977419125
 10
5.616471199947378
 20
-4.074843323258341
 10
5.654245377866446
 20
-4.105897287797246
 10
5.664031261270767
 20
-4.109827813366628
 10
5.673790777107077
 20
-4.113742518394828
 10
5.712723370180356
 20
-4.103012675785004
 10
5.722224483850255
 20
-4.100678267038928
 10
5.731734386709491
 20
-4.098361436672008
 10
5.696646185050857
 20
-4.062844321676632
 10
5.709367657692686
 20
-4.068560810563781
 10
5.722104950875316
 20
-4.074259721071838
 10
5.745167783687369
 20
-4.086276301032663
 10
5.75551969088479
 20
-4.092576392106303
 10
5.765854019703536
 20
-4.098876483179993
 10
5.810056610701395
 20
-4.099407350229159
 10
5.82342145200246
 20
-4.09741747771371
 10
5.836784535465654
 20
-4.095408268981234
 10
5.785105860020419
 20
-4.05386528562633
 10
5.810881036660905
 20
-4.061469692430099
 10
5.836638634922716
 20
-4.069023121934442
 10
5.851102124890518
 20
-4.081864127875595
 10
5.865307212691897
 20
-4.088456020042511
 10
5.87950356322296
 20
-4.095083068967672
 10
5.913373531320922
 20
-4.089331423322291
 10
5.93327752948638
 20
-4.083236999284243
 10
5.953199106030511
 20
-4.077109176325848
 10
5.888215355771674
 20
-4.027497716958654
 10
5.913079972397163
 20
-4.036527730308371
 10
5.93795513604986
 20
-4.045573564199306
 10
5.937895369562384
 20
-4.055668827323201
 10
5.96868214196104
 20
-4.068302408390839
 10
5.999470672197554
 20
-4.08095356783762
 10
6.018850834678712
 20
-4.062380252468099
 10
6.033108657616089
 20
-4.058912038269315
 10
6.04736472271563
 20
-4.055428003529388
 10
6.009316322089338
 20
-4.018107346837129
 10
6.020886466419066
 20
-4.019068884174557
 10
6.032447710578203
 20
-4.020030421511946
 10
6.052506398475922
 20
-4.040321144520691
 10
6.059896348867849
 20
-4.044819451735394
 10
6.067295088449074
 20
-4.049316001112212
 10
6.121900563942492
 20
-4.046072790166098
 10
6.135274194432895
 20
-4.044063581433597
 10
6.148637277896088
 20
-4.04207195108025
 10
6.110253130237248
 20
-4.008650178874985
 10
6.125359988864298
 20
-4.013747908817423
 10
6.14046684749135
 20
-4.01889837389716
 10
6.152861362289943
 20
-4.028459254296081
 10
6.17297981667515
 20
-4.038656472018817
 10
6.193098271060358
 20
-4.048887088661874
 10
6.205621108023252
 20
-4.038260958488814
 10
6.227587050006427
 20
-4.035429081613882
 10
6.249567054692559
 20
-4.032597204738989
 10
6.207458048594011
 20
-3.978642127893257
 10
6.242881997285217
 20
-4.010297272997781
 10
6.27827782057054
 20
-4.041985817022603
 10
6.323709203377852
 20
-4.037179888173442
 10
6.333802645268254
 20
-4.037230865472856
 10
6.34388918259818
 20
-4.037299421151387
 10
6.309744876223627
 20
-3.990247373782861
 10
6.317134889590029
 20
-3.99472810261846
 10
6.324524777007455
 20
-3.999224651995266
 10
6.351398602314652
 20
-4.02162653833534
 10
6.367904699883638
 20
-4.037745911980829
 10
6.384435407182764
 20
-4.05386528562633
 10
6.436080683708546
 20
-4.048818532983343
 10
6.445006984396008
 20
-4.044132137112127
 10
6.453950863462144
 20
-4.039428162861832
 10
6.423652769990465
 20
-3.992685494965662
 10
6.43696487615552
 20
-4.00076979151917
 10
6.450268193131251
 20
-4.008873424289719
 10
6.454061607247745
 20
-4.019276309048084
 10
6.473536692973716
 20
-4.037179888173442
 10
6.493013536537546
 20
-4.055085225136698
 10
6.561249286849917
 20
-4.056080161394422
 10
6.569850387532015
 20
-4.055273313793211
 10
6.578467308754928
 20
-4.054415488892547
 10
6.543430084394433
 20
-4.008820689152381
 10
6.549343450978262
 20
-4.01240843632911
 10
6.555258575399951
 20
-4.016013761884917
 10
6.576210244933994
 20
-4.034810322669172
 10
6.593625214639385
 20
-4.049453112469274
 10
6.611048833615566
 20
-4.064113480648517
 10
6.653449640799963
 20
-4.067616851605496
 10
6.67124247568745
 20
-4.068319986769956
 10
6.68902652138556
 20
-4.069040700313558
 10
6.666737137234905
 20
-4.029128990540231
 10
6.666737137234905
 20
-4.029128990540231
 10
6.737890972009786
 20
-4.088593131399572
 10
6.732569923183392
 20
-4.133947107345926
 10
6.754361913237542
 20
-4.161395746328973
 10
6.776155513089988
 20
-4.188810986391723
 10
6.931202086452887
 20
-4.210200358094918
 10
7.170879763911544
 20
-4.268875229732164
 10
7.410555683532316
 20
-4.327565921910592
 10
7.541595465148703
 20
-4.395082718241079
 10
7.694935177942979
 20
-4.502527044886051
 10
7.848282023743245
 20
-4.609953793151931
 10
7.924037702795102
 20
-4.745087582573799
 10
8.060535570987819
 20
-4.840241106543809
 10
8.19705101755921
 20
-4.935410451055051
 10
8.264824456512617
 20
-4.913850569074421
 10
8.30120818467905
 20
-4.933935625047575
 10
8.337576206319858
 20
-4.954018923182793
 10
8.325953268329613
 20
-4.963168469510479
 10
8.310083621389014
 20
-4.985914892081142
 10
8.294229568347975
 20
-5.008677135192973
 10
8.281399109758416
 20
-5.023114257957483
 10
8.281399109758416
 20
-5.023114257957483
 10
8.332536371140678
 20
-4.997673069868989
 10
8.351900713081047
 20
-4.988695791656621
 10
8.361162760801056
 20
-5.002273331682558
 10
8.37044062906188
 20
-5.015887786304638
 10
8.350304596297999
 20
-5.034666768709775
 10
8.350304596297999
 20
-5.034666768709775
 10
8.312152483237595
 20
-5.087368507124804
 10
8.23110912622792
 20
-5.095813160450107
 10
8.133355762456732
 20
-5.22162689326693
 10
8.035593609496193
 20
-5.347421289866689
 10
7.810335476058677
 20
-5.508115800354997
 10
7.810335476058677
 20
-5.508115800354997
 10
7.666790435858072
 20
-5.624280760877355
 10
7.236111369309583
 20
-5.903012329263421
 10
7.236111369309583
 20
-5.903012329263421
 10
7.236111369309583
 20
-5.903012329263421
 10
6.963766032934851
 20
-6.126139968843063
 10
6.650909565082479
 20
-6.276037838880939
 10
6.338051339392248
 20
-6.425933951080879
 10
5.952193622770715
 20
-6.501106131514562
 10
5.725915943370473
 20
-6.533601523140582
 10
5.49964533764469
 20
-6.566063515846331
 10
5.126792096142455
 20
-6.624806943162108
 10
4.717836379620445
 20
-6.767923074538658
 10
4.308891210125895
 20
-6.911039205915181
 10
3.943847515111656
 20
-6.932015485709295
 10
3.868186655738706
 20
-6.931570752717739
 10
3.868186655738706
 20
-6.931570752717739
 10
3.85661656660731
 20
-6.930711169979177
 10
3.860101304482441
 20
-6.922231359895679
 10
3.862315828682944
 20
-6.916806672101757
 10
3.87049557583503
 20
-6.917785787818275
 10
3.87049557583503
 20
-6.917785787818275
 10
3.946147821802229
 20
-6.918214700268613
 10
4.391564084926535
 20
-6.855008122496352
 10
4.705202798552793
 20
-6.723804858643866
 10
5.104896467120814
 20
-6.556569433288056
 10
5.487002967387475
 20
-6.521911901031267
 10
5.713271815594781
 20
-6.489432329946415
 10
5.939542463643559
 20
-6.456970337240667
 10
6.325391391075755
 20
-6.381815735186137
 10
6.638258405955336
 20
-6.231902044607068
 10
6.697103786383397
 20
-6.20371511370134
 10
6.754525318139359
 20
-6.172919551335377
 10
6.808969072549037
 20
-6.141503472186792
 10
6.991309594469309
 20
-5.938786088593815
 10
6.908026752017374
 20
-5.96975391907506
 10
6.908026752017374
 20
-5.96975391907506
 10
6.891469677150249
 20
-5.979471247048044
 10
6.875281748235137
 20
-5.988415126340126
 10
6.859575466895522
 20
-5.996791223986898
 10
6.825336300926538
 20
-6.046557373090283
 10
6.738319810845597
 20
-6.135925852494615
 10
6.530710369590476
 20
-6.202118996877971
 10
6.227560682438429
 20
-6.298764925234586
 10
5.649704882656565
 20
-6.37503575436272
 10
5.437528619377367
 20
-6.377370163108758
 10
5.225343520794783
 20
-6.379704571854795
 10
4.903748832782526
 20
-6.416269358245219
 10
4.285501418879739
 20
-6.584053229029349
 10
4.285501418879739
 20
-6.584053229029349
 10
4.249787426038324
 20
-6.593976224037962
 10
4.253572051061092
 20
-6.57746133686242
 10
4.256507640372774
 20
-6.564500797943285
 10
4.278034123433056
 20
-6.561187273480729
 10
4.278034123433056
 20
-6.561187273480729
 10
4.807985339057331
 20
-6.413024389461194
 10
5.195560473065673
 20
-6.343243497901135
 10
5.407745571648257
 20
-6.34094248807542
 10
5.619939414058522
 20
-6.338608079329333
 10
6.197768846272386
 20
-6.262339008039135
 10
6.500934421582896
 20
-6.165691321844583
 10
6.603924316741541
 20
-6.132853151825858
 10
6.677173420649928
 20
-6.094314313461179
 10
6.729101782453906
 20
-6.057714370312523
 10
6.707592804934418
 20
-6.06638402689047
 10
6.694692032830188
 20
-6.070847177346953
 10
6.694692032830188
 20
-6.070847177346953
 10
6.662882198793063
 20
-6.079859612317553
 10
6.377140380035674
 20
-6.183492946371112
 10
5.990440713797448
 20
-6.203458469366296
 10
5.603725117575411
 20
-6.22340465614444
 10
5.374235907547459
 20
-6.098039171994969
 10
5.374235907547459
 20
-6.098039171994969
 10
4.713810930803839
 20
-6.198548828080371
 10
4.193610442072869
 20
-5.562327521535773
 10
4.18331830110291
 20
-5.545951503555228
 10
4.173027917970873
 20
-5.529556149357669
 10
4.16543933170831
 20
-5.508767958220068
 10
4.222750121126473
 20
-5.501094995737781
 10
4.375033377209825
 20
-5.480700560292285
 10
4.7835584234436
 20
-5.291390206447873
 10
4.7835584234436
 20
-5.291390206447873
 10
4.472015052607465
 20
-5.294274818460116
 10
4.179343829585743
 20
-5.415983999754316
 10
4.11548509394845
 20
-5.427759755921291
 10
4.051635147500696
 20
-5.439535512088292
 10
4.03246944075512
 20
-5.417769963072083
 10
4.019860469418227
 20
-5.39186470577503
 10
4.007260287270898
 20
-5.366012183615326
 10
3.892082352735681
 20
-5.125889767110366
 10
3.895953287599885
 20
-4.873132011699883
 10
3.899832835869852
 20
-4.620374256289399
 10
4.002985225470903
 20
-4.434066289597277
 10
4.029635806042291
 20
-4.393570977637447
 97
        0
 97
        0
 75
     2
 76
     1
 98
        0
  0
ENDSEC
  0
SECTION
  2
OBJECTS
  0
DICTIONARY
  5
C
330
0
100
AcDbDictionary
281
     1
  3
ACAD_GROUP
350
D
  3
ACAD_LAYOUT
350
1A
  3
ACAD_MATERIAL
350
3B
  3
ACAD_MLEADERSTYLE
350
44
  3
ACAD_MLINESTYLE
350
17
  3
ACAD_PLOTSETTINGS
350
19
  3
ACAD_PLOTSTYLENAME
350
E
  3
ACAD_TABLESTYLE
350
43
  3
ACAD_VISUALSTYLE
350
2A
  0
SUN
  5
3F
330
29
100
AcDbSun
 90
        1
290
     0
 63
     7
421
 16777215
 40
1.0
291
     1
 91
  2455826
 92
 54000000
292
     0
 70
     2
 71
   256
280
     1
  0
DICTIONARY
  5
D
102
{ACAD_REACTORS
330
C
102
}
330
C
100
AcDbDictionary
281
     1
  0
DICTIONARY
  5
1A
102
{ACAD_REACTORS
330
C
102
}
330
C
100
AcDbDictionary
281
     1
  3
Layout1
350
1E
  3
Layout2
350
26
  3
Model
350
22
  0
DICTIONARY
  5
3B
102
{ACAD_REACTORS
330
C
102
}
330
C
100
AcDbDictionary
281
     1
  3
ByBlock
350
3D
  3
ByLayer
350
3C
  3
Global
350
3E
  0
DICTIONARY
  5
44
102
{ACAD_REACTORS
330
C
102
}
330
C
100
AcDbDictionary
281
     1
  0
DICTIONARY
  5
17
102
{ACAD_REACTORS
330
C
102
}
330
C
100
AcDbDictionary
281
     1
  3
Standard
350
18
  0
DICTIONARY
  5
19
102
{ACAD_REACTORS
330
C
102
}
330
C
100
AcDbDictionary
281
     1
  0
ACDBDICTIONARYWDFLT
  5
E
102
{ACAD_REACTORS
330
C
102
}
330
C
100
AcDbDictionary
281
     1
  3
Normal
350
F
100
AcDbDictionaryWithDefault
340
F
  0
DICTIONARY
  5
43
102
{ACAD_REACTORS
330
C
102
}
330
C
100
AcDbDictionary
281
     1
  0
DICTIONARY
  5
2A
102
{ACAD_REACTORS
330
C
102
}
330
C
100
AcDbDictionary
281
     1
  3
2dWireframe
350
2F
  3
3D Hidden
350
31
  3
3dWireframe
350
30
  3
Basic
350
32
  3
Brighten
350
36
  3
ColorChange
350
3A
  3
Conceptual
350
34
  3
Dim
350
35
  3
Facepattern
350
39
  3
Flat
350
2B
  3
FlatWithEdges
350
2C
  3
Gouraud
350
2D
  3
GouraudWithEdges
350
2E
  3
Linepattern
350
38
  3
Realistic
350
33
  3
Thicken
350
37
  0
LAYOUT
  5
1E
102
{ACAD_REACTORS
330
1A
102
}
330
1A
100
AcDbPlotSettings
  1

  2
none_device
  4

  6

 40
0.0
 41
0.0
 42
0.0
 43
0.0
 44
0.0
 45
0.0
 46
0.0
 47
0.0
 48
0.0
 49
0.0
140
0.0
141
0.0
142
1.0
143
1.0
 70
   688
 72
     0
 73
     0
 74
     5
  7

 75
    16
 76
     0
 77
     2
 78
   300
147
1.0
148
0.0
149
0.0
100
AcDbLayout
  1
Layout1
 70
     1
 71
     1
 10
0.0
 20
0.0
 11
12.0
 21
9.0
 12
0.0
 22
0.0
 32
0.0
 14
1.000000000000000E+20
 24
1.000000000000000E+20
 34
1.000000000000000E+20
 15
-1.000000000000000E+20
 25
-1.000000000000000E+20
 35
-1.000000000000000E+20
146
0.0
 13
0.0
 23
0.0
 33
0.0
 16
1.0
 26
0.0
 36
0.0
 17
0.0
 27
1.0
 37
0.0
 76
     0
330
1B
  0
LAYOUT
  5
26
102
{ACAD_REACTORS
330
1A
102
}
330
1A
100
AcDbPlotSettings
  1

  2
none_device
  4

  6

 40
0.0
 41
0.0
 42
0.0
 43
0.0
 44
0.0
 45
0.0
 46
0.0
 47
0.0
 48
0.0
 49
0.0
140
0.0
141
0.0
142
1.0
143
1.0
 70
   688
 72
     0
 73
     0
 74
     5
  7

 75
    16
 76
     0
 77
     2
 78
   300
147
1.0
148
0.0
149
0.0
100
AcDbLayout
  1
Layout2
 70
     1
 71
     2
 10
0.0
 20
0.0
 11
0.0
 21
0.0
 12
0.0
 22
0.0
 32
0.0
 14
0.0
 24
0.0
 34
0.0
 15
0.0
 25
0.0
 35
0.0
146
0.0
 13
0.0
 23
0.0
 33
0.0
 16
1.0
 26
0.0
 36
0.0
 17
0.0
 27
1.0
 37
0.0
 76
     0
330
23
  0
LAYOUT
  5
22
102
{ACAD_REACTORS
330
1A
102
}
330
1A
100
AcDbPlotSettings
  1

  2
none_device
  4

  6

 40
0.0
 41
0.0
 42
0.0
 43
0.0
 44
0.0
 45
0.0
 46
0.0
 47
0.0
 48
0.0
 49
0.0
140
0.0
141
0.0
142
1.0
143
1.0
 70
  1712
 72
     0
 73
     0
 74
     0
  7

 75
     0
 76
     0
 77
     2
 78
   300
147
1.0
148
0.0
149
0.0
100
AcDbLayout
  1
Model
 70
     1
 71
     0
 10
0.0
 20
0.0
 11
12.0
 21
9.0
 12
0.0
 22
0.0
 32
0.0
 14
1.000000000000000E+20
 24
1.000000000000000E+20
 34
1.000000000000000E+20
 15
-1.000000000000000E+20
 25
-1.000000000000000E+20
 35
-1.000000000000000E+20
146
0.0
 13
0.0
 23
0.0
 33
0.0
 16
1.0
 26
0.0
 36
0.0
 17
0.0
 27
1.0
 37
0.0
 76
     0
330
1F
331
29
  0
MATERIAL
  5
3D
102
{ACAD_REACTORS
330
3B
102
}
330
3B
100
AcDbMaterial
  1
ByBlock
 72
     1
 94
      127
  0
MATERIAL
  5
3C
102
{ACAD_REACTORS
330
3B
102
}
330
3B
100
AcDbMaterial
  1
ByLayer
 72
     1
 94
      127
  0
MATERIAL
  5
3E
102
{ACAD_REACTORS
330
3B
102
}
330
3B
100
AcDbMaterial
  1
Global
 72
     1
 94
      127
  0
MLINESTYLE
  5
18
102
{ACAD_REACTORS
330
17
102
}
330
17
100
AcDbMlineStyle
  2
Standard
 70
     0
  3

 62
   256
 51
90.0
 52
90.0
 71
     2
 49
0.5
 62
   256
  6
BYLAYER
 49
-0.5
 62
   256
  6
BYLAYER
  0
ACDBPLACEHOLDER
  5
F
102
{ACAD_REACTORS
330
E
102
}
330
E
  0
VISUALSTYLE
  5
2F
102
{ACAD_REACTORS
330
2A
102
}
330
2A
100
AcDbVisualStyle
  2
2dWireframe
 70
     4
177
     2
291
     0
 71
     0
176
     1
 72
     2
176
     1
 73
     0
176
     1
 90
        0
176
     1
 40
-0.6
176
     1
 41
-30.0
176
     1
 62
     5
 63
     7
421
 16777215
176
     1
 74
     1
176
     1
 91
        4
176
     1
 64
     7
176
     1
 65
   257
176
     1
 75
     1
176
     1
175
     1
176
     1
 42
1.0
176
     1
 92
        0
176
     1
 66
   257
176
     1
 43
1.0
176
     1
 76
     1
176
     1
 77
     6
176
     1
 78
     2
176
     1
 67
     7
176
     1
 79
     5
176
     1
170
     0
176
     1
171
     0
176
     1
290
     0
176
     1
 93
        1
176
     1
 44
0.0
176
     1
173
     0
176
     1
  0
VISUALSTYLE
  5
31
102
{ACAD_REACTORS
330
2A
102
}
330
2A
100
AcDbVisualStyle
  2
3D Hidden
 70
     6
177
     2
291
     0
 71
     1
176
     1
 72
     2
176
     1
 73
     2
176
     1
 90
        0
176
     1
 40
-0.6
176
     1
 41
-30.0
176
     1
 62
     5
 63
     7
421
 16777215
176
     1
 74
     2
176
     1
 91
        2
176
     1
 64
     7
176
     1
 65
   257
176
     1
 75
     2
176
     1
175
     1
176
     1
 42
40.0
176
     1
 92
        0
176
     1
 66
   257
176
     1
 43
1.0
176
     1
 76
     1
176
     1
 77
     6
176
     1
 78
     2
176
     1
 67
     7
176
     1
 79
     3
176
     1
170
     0
176
     1
171
     0
176
     1
290
     0
176
     1
 93
        1
176
     1
 44
0.0
176
     1
173
     0
176
     1
  0
VISUALSTYLE
  5
30
102
{ACAD_REACTORS
330
2A
102
}
330
2A
100
AcDbVisualStyle
  2
3dWireframe
 70
     5
177
     2
291
     0
 71
     0
176
     1
 72
     2
176
     1
 73
     0
176
     1
 90
        0
176
     1
 40
-0.6
176
     1
 41
-30.0
176
     1
 62
     5
 63
     7
421
 16777215
176
     1
 74
     1
176
     1
 91
        4
176
     1
 64
     7
176
     1
 65
   257
176
     1
 75
     1
176
     1
175
     1
176
     1
 42
1.0
176
     1
 92
        0
176
     1
 66
   257
176
     1
 43
1.0
176
     1
 76
     1
176
     1
 77
     6
176
     1
 78
     2
176
     1
 67
     7
176
     1
 79
     5
176
     1
170
     0
176
     1
171
     0
176
     1
290
     0
176
     1
 93
        1
176
     1
 44
0.0
176
     1
173
     0
176
     1
  0
VISUALSTYLE
  5
32
102
{ACAD_REACTORS
330
2A
102
}
330
2A
100
AcDbVisualStyle
  2
Basic
 70
     7
177
     2
291
     1
 71
     1
176
     1
 72
     0
176
     1
 73
     1
176
     1
 90
        0
176
     1
 40
-0.6
176
     1
 41
-30.0
176
     1
 62
     5
 63
     7
421
 16777215
176
     1
 74
     0
176
     1
 91
        4
176
     1
 64
     7
176
     1
 65
   257
176
     1
 75
     1
176
     1
175
     1
176
     1
 42
1.0
176
     1
 92
        8
176
     1
 66
     7
176
     1
 43
1.0
176
     1
 76
     1
176
     1
 77
     6
176
     1
 78
     2
176
     1
 67
     7
176
     1
 79
     5
176
     1
170
     0
176
     1
171
     0
176
     1
290
     0
176
     1
 93
        1
176
     1
 44
0.0
176
     1
173
     0
176
     1
  0
VISUALSTYLE
  5
36
102
{ACAD_REACTORS
330
2A
102
}
330
2A
100
AcDbVisualStyle
  2
Brighten
 70
    12
177
     2
291
     1
 71
     2
176
     1
 72
     2
176
     1
 73
     0
176
     1
 90
        0
176
     1
 40
-0.6
176
     1
 41
-30.0
176
     1
 62
     5
 63
     7
421
 16777215
176
     1
 74
     1
176
     1
 91
        4
176
     1
 64
     7
176
     1
 65
   257
176
     1
 75
     1
176
     1
175
     1
176
     1
 42
1.0
176
     1
 92
        8
176
     1
 66
     7
176
     1
 43
1.0
176
     1
 76
     1
176
     1
 77
     6
176
     1
 78
     2
176
     1
 67
     7
176
     1
 79
     5
176
     1
170
     0
176
     1
171
     0
176
     1
290
     0
176
     1
 93
        1
176
     1
 44
50.0
176
     1
173
     0
176
     1
  0
VISUALSTYLE
  5
3A
102
{ACAD_REACTORS
330
2A
102
}
330
2A
100
AcDbVisualStyle
  2
ColorChange
 70
    16
177
     2
291
     1
 71
     2
176
     1
 72
     2
176
     1
 73
     3
176
     1
 90
        0
176
     1
 40
-0.6
176
     1
 41
-30.0
176
     1
 62
     5
 63
     8
421
  8421504
176
     1
 74
     1
176
     1
 91
        4
176
     1
 64
     7
176
     1
 65
   257
176
     1
 75
     1
176
     1
175
     1
176
     1
 42
1.0
176
     1
 92
        8
176
     1
 66
     8
424
  8421504
176
     1
 43
1.0
176
     1
 76
     1
176
     1
 77
     6
176
     1
 78
     2
176
     1
 67
     7
176
     1
 79
     5
176
     1
170
     0
176
     1
171
     0
176
     1
290
     0
176
     1
 93
        1
176
     1
 44
0.0
176
     1
173
     0
176
     1
  0
VISUALSTYLE
  5
34
102
{ACAD_REACTORS
330
2A
102
}
330
2A
100
AcDbVisualStyle
  2
Conceptual
 70
     9
177
     2
291
     0
 71
     3
176
     1
 72
     2
176
     1
 73
     0
176
     1
 90
        0
176
     1
 40
-0.6
176
     1
 41
-30.0
176
     1
 62
     5
 63
     7
421
 16777215
176
     1
 74
     2
176
     1
 91
        2
176
     1
 64
     7
176
     1
 65
   257
176
     1
 75
     1
176
     1
175
     1
176
     1
 42
40.0
176
     1
 92
        8
176
     1
 66
     7
176
     1
 43
1.0
176
     1
 76
     1
176
     1
 77
     6
176
     1
 78
     2
176
     1
 67
     7
176
     1
 79
     3
176
     1
170
     0
176
     1
171
     0
176
     1
290
     0
176
     1
 93
        1
176
     1
 44
0.0
176
     1
173
     0
176
     1
  0
VISUALSTYLE
  5
35
102
{ACAD_REACTORS
330
2A
102
}
330
2A
100
AcDbVisualStyle
  2
Dim
 70
    11
177
     2
291
     1
 71
     2
176
     1
 72
     2
176
     1
 73
     0
176
     1
 90
        0
176
     1
 40
-0.6
176
     1
 41
-30.0
176
     1
 62
     5
 63
     7
421
 16777215
176
     1
 74
     1
176
     1
 91
        4
176
     1
 64
     7
176
     1
 65
   257
176
     1
 75
     1
176
     1
175
     1
176
     1
 42
1.0
176
     1
 92
        8
176
     1
 66
     7
176
     1
 43
1.0
176
     1
 76
     1
176
     1
 77
     6
176
     1
 78
     2
176
     1
 67
     7
176
     1
 79
     5
176
     1
170
     0
176
     1
171
     0
176
     1
290
     0
176
     1
 93
        1
176
     1
 44
-50.0
176
     1
173
     0
176
     1
  0
VISUALSTYLE
  5
39
102
{ACAD_REACTORS
330
2A
102
}
330
2A
100
AcDbVisualStyle
  2
Facepattern
 70
    15
177
     2
291
     1
 71
     2
176
     1
 72
     2
176
     1
 73
     0
176
     1
 90
        0
176
     1
 40
-0.6
176
     1
 41
-30.0
176
     1
 62
     5
 63
     7
421
 16777215
176
     1
 74
     1
176
     1
 91
        4
176
     1
 64
     7
176
     1
 65
   257
176
     1
 75
     1
176
     1
175
     1
176
     1
 42
1.0
176
     1
 92
        8
176
     1
 66
     7
176
     1
 43
1.0
176
     1
 76
     1
176
     1
 77
     6
176
     1
 78
     2
176
     1
 67
     7
176
     1
 79
     5
176
     1
170
     0
176
     1
171
     0
176
     1
290
     0
176
     1
 93
        1
176
     1
 44
0.0
176
     1
173
     0
176
     1
  0
VISUALSTYLE
  5
2B
102
{ACAD_REACTORS
330
2A
102
}
330
2A
100
AcDbVisualStyle
  2
Flat
 70
     0
177
     2
291
     1
 71
     2
176
     1
 72
     1
176
     1
 73
     1
176
     1
 90
        2
176
     1
 40
-0.6
176
     1
 41
30.0
176
     1
 62
     5
 63
     7
421
 16777215
176
     1
 74
     0
176
     1
 91
        4
176
     1
 64
     7
176
     1
 65
   257
176
     1
 75
     1
176
     1
175
     1
176
     1
 42
1.0
176
     1
 92
        8
176
     1
 66
     7
176
     1
 43
1.0
176
     1
 76
     1
176
     1
 77
     6
176
     1
 78
     2
176
     1
 67
     7
176
     1
 79
     5
176
     1
170
     0
176
     1
171
     0
176
     1
290
     0
176
     1
 93
       13
176
     1
 44
0.0
176
     1
173
     0
176
     1
  0
VISUALSTYLE
  5
2C
102
{ACAD_REACTORS
330
2A
102
}
330
2A
100
AcDbVisualStyle
  2
FlatWithEdges
 70
     1
177
     2
291
     1
 71
     2
176
     1
 72
     1
176
     1
 73
     1
176
     1
 90
        2
176
     1
 40
-0.6
176
     1
 41
30.0
176
     1
 62
     5
 63
     7
421
 16777215
176
     1
 74
     1
176
     1
 91
        4
176
     1
 64
     7
176
     1
 65
   257
176
     1
 75
     1
176
     1
175
     1
176
     1
 42
1.0
176
     1
 92
        0
176
     1
 66
   257
176
     1
 43
1.0
176
     1
 76
     1
176
     1
 77
     6
176
     1
 78
     2
176
     1
 67
     7
176
     1
 79
     5
176
     1
170
     0
176
     1
171
     0
176
     1
290
     0
176
     1
 93
       13
176
     1
 44
0.0
176
     1
173
     0
176
     1
  0
VISUALSTYLE
  5
2D
102
{ACAD_REACTORS
330
2A
102
}
330
2A
100
AcDbVisualStyle
  2
Gouraud
 70
     2
177
     2
291
     1
 71
     2
176
     1
 72
     2
176
     1
 73
     1
176
     1
 90
        2
176
     1
 40
-0.6
176
     1
 41
30.0
176
     1
 62
     5
 63
     7
421
 16777215
176
     1
 74
     0
176
     1
 91
        4
176
     1
 64
     7
176
     1
 65
   257
176
     1
 75
     1
176
     1
175
     1
176
     1
 42
1.0
176
     1
 92
        0
176
     1
 66
     7
176
     1
 43
1.0
176
     1
 76
     1
176
     1
 77
     6
176
     1
 78
     2
176
     1
 67
     7
176
     1
 79
     5
176
     1
170
     0
176
     1
171
     0
176
     1
290
     0
176
     1
 93
       13
176
     1
 44
0.0
176
     1
173
     0
176
     1
  0
VISUALSTYLE
  5
2E
102
{ACAD_REACTORS
330
2A
102
}
330
2A
100
AcDbVisualStyle
  2
GouraudWithEdges
 70
     3
177
     2
291
     1
 71
     2
176
     1
 72
     2
176
     1
 73
     1
176
     1
 90
        2
176
     1
 40
-0.6
176
     1
 41
30.0
176
     1
 62
     5
 63
     7
421
 16777215
176
     1
 74
     1
176
     1
 91
        4
176
     1
 64
     7
176
     1
 65
   257
176
     1
 75
     1
176
     1
175
     1
176
     1
 42
1.0
176
     1
 92
        0
176
     1
 66
   257
176
     1
 43
1.0
176
     1
 76
     1
176
     1
 77
     6
176
     1
 78
     2
176
     1
 67
     7
176
     1
 79
     5
176
     1
170
     0
176
     1
171
     0
176
     1
290
     0
176
     1
 93
       13
176
     1
 44
0.0
176
     1
173
     0
176
     1
  0
VISUALSTYLE
  5
38
102
{ACAD_REACTORS
330
2A
102
}
330
2A
100
AcDbVisualStyle
  2
Linepattern
 70
    14
177
     2
291
     1
 71
     2
176
     1
 72
     2
176
     1
 73
     0
176
     1
 90
        0
176
     1
 40
-0.6
176
     1
 41
-30.0
176
     1
 62
     5
 63
     7
421
 16777215
176
     1
 74
     1
176
     1
 91
        4
176
     1
 64
     7
176
     1
 65
   257
176
     1
 75
     7
176
     1
175
     7
176
     1
 42
1.0
176
     1
 92
        8
176
     1
 66
     7
176
     1
 43
1.0
176
     1
 76
     1
176
     1
 77
     6
176
     1
 78
     2
176
     1
 67
     7
176
     1
 79
     5
176
     1
170
     0
176
     1
171
     0
176
     1
290
     0
176
     1
 93
        1
176
     1
 44
0.0
176
     1
173
     0
176
     1
  0
VISUALSTYLE
  5
33
102
{ACAD_REACTORS
330
2A
102
}
330
2A
100
AcDbVisualStyle
  2
Realistic
 70
     8
177
     2
291
     0
 71
     2
176
     1
 72
     2
176
     1
 73
     0
176
     1
 90
        0
176
     1
 40
-0.6
176
     1
 41
-30.0
176
     1
 62
     5
 63
     7
421
 16777215
176
     1
 74
     1
176
     1
 91
        0
176
     1
 64
     7
176
     1
 65
   257
176
     1
 75
     1
176
     1
175
     1
176
     1
 42
1.0
176
     1
 92
        8
176
     1
 66
     8
424
  7895160
176
     1
 43
1.0
176
     1
 76
     1
176
     1
 77
     6
176
     1
 78
     2
176
     1
 67
     7
176
     1
 79
     5
176
     1
170
     0
176
     1
171
     0
176
     1
290
     0
176
     1
 93
       13
176
     1
 44
0.0
176
     1
173
     0
176
     1
  0
VISUALSTYLE
  5
37
102
{ACAD_REACTORS
330
2A
102
}
330
2A
100
AcDbVisualStyle
  2
Thicken
 70
    13
177
     2
291
     1
 71
     2
176
     1
 72
     2
176
     1
 73
     0
176
     1
 90
        0
176
     1
 40
-0.6
176
     1
 41
-30.0
176
     1
 62
     5
 63
     7
421
 16777215
176
     1
 74
     1
176
     1
 91
        4
176
     1
 64
     7
176
     1
 65
   257
176
     1
 75
     1
176
     1
175
     1
176
     1
 42
1.0
176
     1
 92
       12
176
     1
 66
     7
176
     1
 43
1.0
176
     1
 76
     1
176
     1
 77
     6
176
     1
 78
     2
176
     1
 67
     7
176
     1
 79
     5
176
     1
170
     0
176
     1
171
     0
176
     1
290
     0
176
     1
 93
        1
176
     1
 44
0.0
176
     1
173
     0
176
     1
  0
ENDSEC
  0
EOF
