  0
SECTION
  2
HEADER
  9
$ACADVER
  1
AC1024
  9
$ACADMAINTVER
 70
     6
  9
$DWGCODEPAGE
  3
ANSI_1252
  9
$INSBASE
 10
0.0
 20
0.0
 30
0.0
  9
$EXTMIN
 10
1.000000000000000E+20
 20
1.000000000000000E+20
 30
1.000000000000000E+20
  9
$EXTMAX
 10
-1.000000000000000E+20
 20
-1.000000000000000E+20
 30
-1.000000000000000E+20
  9
$LIMMIN
 10
0.0
 20
0.0
  9
$LIMMAX
 10
12.0
 20
9.0
  9
$ORTHOMODE
 70
     0
  9
$REGENMODE
 70
     1
  9
$FILLMODE
 70
     1
  9
$QTEXTMODE
 70
     0
  9
$MIRRTEXT
 70
     1
  9
$LTSCALE
 40
1.0
  9
$ATTMODE
 70
     1
  9
$TEXTSIZE
 40
0.2
  9
$TRACEWID
 40
0.05
  9
$TEXTSTYLE
  7
Standard
  9
$CLAYER
  8
0
  9
$CELTYPE
  6
ByLayer
  9
$CECOLOR
 62
   256
  9
$CELTSCALE
 40
1.0
  9
$DISPSILH
 70
     0
  9
$DIMSCALE
 40
1.0
  9
$DIMASZ
 40
0.18
  9
$DIMEXO
 40
0.0625
  9
$DIMDLI
 40
0.38
  9
$DIMRND
 40
0.0
  9
$DIMDLE
 40
0.0
  9
$DIMEXE
 40
0.18
  9
$DIMTP
 40
0.0
  9
$DIMTM
 40
0.0
  9
$DIMTXT
 40
0.18
  9
$DIMCEN
 40
0.09
  9
$DIMTSZ
 40
0.0
  9
$DIMTOL
 70
     0
  9
$DIMLIM
 70
     0
  9
$DIMTIH
 70
     1
  9
$DIMTOH
 70
     1
  9
$DIMSE1
 70
     0
  9
$DIMSE2
 70
     0
  9
$DIMTAD
 70
     0
  9
$DIMZIN
 70
     0
  9
$DIMBLK
  1

  9
$DIMASO
 70
     1
  9
$DIMSHO
 70
     1
  9
$DIMPOST
  1

  9
$DIMAPOST
  1

  9
$DIMALT
 70
     0
  9
$DIMALTD
 70
     2
  9
$DIMALTF
 40
25.4
  9
$DIMLFAC
 40
1.0
  9
$DIMTOFL
 70
     0
  9
$DIMTVP
 40
0.0
  9
$DIMTIX
 70
     0
  9
$DIMSOXD
 70
     0
  9
$DIMSAH
 70
     0
  9
$DIMBLK1
  1

  9
$DIMBLK2
  1

  9
$DIMSTYLE
  2
Standard
  9
$DIMCLRD
 70
     0
  9
$DIMCLRE
 70
     0
  9
$DIMCLRT
 70
     0
  9
$DIMTFAC
 40
1.0
  9
$DIMGAP
 40
0.09
  9
$DIMJUST
 70
     0
  9
$DIMSD1
 70
     0
  9
$DIMSD2
 70
     0
  9
$DIMTOLJ
 70
     1
  9
$DIMTZIN
 70
     0
  9
$DIMALTZ
 70
     0
  9
$DIMALTTZ
 70
     0
  9
$DIMUPT
 70
     0
  9
$DIMDEC
 70
     4
  9
$DIMTDEC
 70
     4
  9
$DIMALTU
 70
     2
  9
$DIMALTTD
 70
     2
  9
$DIMTXSTY
  7
Standard
  9
$DIMAUNIT
 70
     0
  9
$DIMADEC
 70
     0
  9
$DIMALTRND
 40
0.0
  9
$DIMAZIN
 70
     0
  9
$DIMDSEP
 70
    46
  9
$DIMATFIT
 70
     3
  9
$DIMFRAC
 70
     0
  9
$DIMLDRBLK
  1

  9
$DIMLUNIT
 70
     2
  9
$DIMLWD
 70
    -2
  9
$DIMLWE
 70
    -2
  9
$DIMTMOVE
 70
     0
  9
$DIMFXL
 40
1.0
  9
$DIMFXLON
 70
     0
  9
$DIMJOGANG
 40
0.7853981633974483
  9
$DIMTFILL
 70
     0
  9
$DIMTFILLCLR
 70
     0
  9
$DIMARCSYM
 70
     0
  9
$DIMLTYPE
  6

  9
$DIMLTEX1
  6

  9
$DIMLTEX2
  6

  9
$DIMTXTDIRECTION
 70
     0
  9
$LUNITS
 70
     2
  9
$LUPREC
 70
     4
  9
$SKETCHINC
 40
0.1
  9
$FILLETRAD
 40
0.5
  9
$AUNITS
 70
     0
  9
$AUPREC
 70
     0
  9
$MENU
  1
.
  9
$ELEVATION
 40
0.0
  9
$PELEVATION
 40
0.0
  9
$THICKNESS
 40
0.0
  9
$LIMCHECK
 70
     0
  9
$CHAMFERA
 40
0.5
  9
$CHAMFERB
 40
0.5
  9
$CHAMFERC
 40
1.0
  9
$CHAMFERD
 40
0.0
  9
$SKPOLY
 70
     0
  9
$TDCREATE
 40
2458164.581505845
  9
$TDUCREATE
 40
2458164.539839178
  9
$TDUPDATE
 40
2458164.581505868
  9
$TDUUPDATE
 40
2458164.539839202
  9
$TDINDWG
 40
0.0000000116
  9
$TDUSRTIMER
 40
0.0000000116
  9
$USRTIMER
 70
     1
  9
$ANGBASE
 50
0.0
  9
$ANGDIR
 70
     0
  9
$PDMODE
 70
     0
  9
$PDSIZE
 40
0.0
  9
$PLINEWID
 40
0.0
  9
$SPLFRAME
 70
     0
  9
$SPLINETYPE
 70
     6
  9
$SPLINESEGS
 70
     8
  9
$HANDSEED
  5
45
  9
$SURFTAB1
 70
     6
  9
$SURFTAB2
 70
     6
  9
$SURFTYPE
 70
     6
  9
$SURFU
 70
     6
  9
$SURFV
 70
     6
  9
$UCSBASE
  2

  9
$UCSNAME
  2

  9
$UCSORG
 10
0.0
 20
0.0
 30
0.0
  9
$UCSXDIR
 10
1.0
 20
0.0
 30
0.0
  9
$UCSYDIR
 10
0.0
 20
1.0
 30
0.0
  9
$UCSORTHOREF
  2

  9
$UCSORTHOVIEW
 70
     0
  9
$UCSORGTOP
 10
0.0
 20
0.0
 30
0.0
  9
$UCSORGBOTTOM
 10
0.0
 20
0.0
 30
0.0
  9
$UCSORGLEFT
 10
0.0
 20
0.0
 30
0.0
  9
$UCSORGRIGHT
 10
0.0
 20
0.0
 30
0.0
  9
$UCSORGFRONT
 10
0.0
 20
0.0
 30
0.0
  9
$UCSORGBACK
 10
0.0
 20
0.0
 30
0.0
  9
$PUCSBASE
  2

  9
$PUCSNAME
  2

  9
$PUCSORG
 10
0.0
 20
0.0
 30
0.0
  9
$PUCSXDIR
 10
1.0
 20
0.0
 30
0.0
  9
$PUCSYDIR
 10
0.0
 20
1.0
 30
0.0
  9
$PUCSORTHOREF
  2

  9
$PUCSORTHOVIEW
 70
     0
  9
$PUCSORGTOP
 10
0.0
 20
0.0
 30
0.0
  9
$PUCSORGBOTTOM
 10
0.0
 20
0.0
 30
0.0
  9
$PUCSORGLEFT
 10
0.0
 20
0.0
 30
0.0
  9
$PUCSORGRIGHT
 10
0.0
 20
0.0
 30
0.0
  9
$PUCSORGFRONT
 10
0.0
 20
0.0
 30
0.0
  9
$PUCSORGBACK
 10
0.0
 20
0.0
 30
0.0
  9
$USERI1
 70
     0
  9
$USERI2
 70
     0
  9
$USERI3
 70
     0
  9
$USERI4
 70
     0
  9
$USERI5
 70
     0
  9
$USERR1
 40
0.0
  9
$USERR2
 40
0.0
  9
$USERR3
 40
0.0
  9
$USERR4
 40
0.0
  9
$USERR5
 40
0.0
  9
$WORLDVIEW
 70
     1
  9
$SHADEDGE
 70
     3
  9
$SHADEDIF
 70
    70
  9
$TILEMODE
 70
     1
  9
$MAXACTVP
 70
    64
  9
$PINSBASE
 10
0.0
 20
0.0
 30
0.0
  9
$PLIMCHECK
 70
     0
  9
$PEXTMIN
 10
1.000000000000000E+20
 20
1.000000000000000E+20
 30
1.000000000000000E+20
  9
$PEXTMAX
 10
-1.000000000000000E+20
 20
-1.000000000000000E+20
 30
-1.000000000000000E+20
  9
$PLIMMIN
 10
0.0
 20
0.0
  9
$PLIMMAX
 10
12.0
 20
9.0
  9
$UNITMODE
 70
     0
  9
$VISRETAIN
 70
     1
  9
$PLINEGEN
 70
     0
  9
$PSLTSCALE
 70
     1
  9
$TREEDEPTH
 70
  3020
  9
$CMLSTYLE
  2
Standard
  9
$CMLJUST
 70
     0
  9
$CMLSCALE
 40
1.0
  9
$PROXYGRAPHICS
 70
     1
  9
$MEASUREMENT
 70
     0
  9
$CELWEIGHT
370
    -1
  9
$ENDCAPS
280
     0
  9
$JOINSTYLE
280
     0
  9
$LWDISPLAY
290
     1
  9
$INSUNITS
 70
     1
  9
$HYPERLINKBASE
  1

  9
$STYLESHEET
  1

  9
$XEDIT
290
     1
  9
$CEPSNTYPE
380
     0
  9
$PSTYLEMODE
290
     1
  9
$FINGERPRINTGUID
  2
{5CA2C5D2-ECF3-4353-813D-9DE5F5F5E3B2}
  9
$VERSIONGUID
  2
{FAEB1C32-E019-11D5-929B-00C0DF256EC4}
  9
$EXTNAMES
290
     1
  9
$PSVPSCALE
 40
0.0
  9
$OLESTARTUP
290
     0
  9
$SORTENTS
280
   127
  9
$INDEXCTL
280
     0
  9
$HIDETEXT
280
     1
  9
$XCLIPFRAME
280
     2
  9
$HALOGAP
280
     0
  9
$OBSCOLOR
 70
   257
  9
$OBSLTYPE
280
     0
  9
$INTERSECTIONDISPLAY
280
     0
  9
$INTERSECTIONCOLOR
 70
   257
  9
$DIMASSOC
280
     2
  9
$PROJECTNAME
  1

  9
$CAMERADISPLAY
290
     0
  9
$LENSLENGTH
 40
50.0
  9
$CAMERAHEIGHT
 40
0.0
  9
$STEPSPERSEC
 40
2.0
  9
$STEPSIZE
 40
6.0
  9
$3DDWFPREC
 40
2.0
  9
$PSOLWIDTH
 40
0.25
  9
$PSOLHEIGHT
 40
4.0
  9
$LOFTANG1
 40
1.570796326794897
  9
$LOFTANG2
 40
1.570796326794897
  9
$LOFTMAG1
 40
0.0
  9
$LOFTMAG2
 40
0.0
  9
$LOFTPARAM
 70
     7
  9
$LOFTNORMALS
280
     1
  9
$LATITUDE
 40
37.795
  9
$LONGITUDE
 40
-122.394
  9
$NORTHDIRECTION
 40
0.0
  9
$TIMEZONE
 70
 -8000
  9
$LIGHTGLYPHDISPLAY
280
     1
  9
$TILEMODELIGHTSYNCH
280
     1
  9
$CMATERIAL
347
3C
  9
$SOLIDHIST
280
     1
  9
$SHOWHIST
280
     1
  9
$DWFFRAME
280
     2
  9
$DGNFRAME
280
     2
  9
$REALWORLDSCALE
290
     1
  9
$INTERFERECOLOR
 62
   256
  9
$CSHADOW
280
     0
  9
$SHADOWPLANELOCATION
 40
0.0
  0
ENDSEC
  0
SECTION
  2
CLASSES
  0
CLASS
  1
ACDBDICTIONARYWDFLT
  2
AcDbDictionaryWithDefault
  3
ObjectDBX Classes
 90
        0
 91
        4
280
     0
281
     0
  0
CLASS
  1
VISUALSTYLE
  2
AcDbVisualStyle
  3
ObjectDBX Classes
 90
     4095
 91
        4
280
     0
281
     0
  0
CLASS
  1
MATERIAL
  2
AcDbMaterial
  3
ObjectDBX Classes
 90
     1153
 91
        4
280
     0
281
     0
  0
CLASS
  1
SUN
  2
AcDbSun
  3
SCENEOE
 90
     1024
 91
        4
280
     0
281
     0
  0
ENDSEC
  0
SECTION
  2
TABLES
  0
TABLE
  2
VPORT
  5
8
330
0
100
AcDbSymbolTable
 70
     1
  0
VPORT
  5
29
330
8
100
AcDbSymbolTableRecord
100
AcDbViewportTableRecord
  2
*Active
 70
     0
 10
0.0
 20
0.0
 11
1.0
 21
1.0
 12
0.0
 22
0.0
 13
0.0
 23
0.0
 14
0.5
 24
0.5
 15
0.5
 25
0.5
 16
0.0
 26
0.0
 36
1.0
 17
6.0
 27
-6.0
 37
0.0
 40
12.0
 41
1.0
 42
50.0
 43
0.0
 44
0.0
 50
0.0
 51
0.0
 71
     0
 72
   100
 73
     1
 74
     3
 75
     0
 76
     0
 77
     0
 78
     0
281
     0
 65
     1
110
0.0
120
0.0
130
0.0
111
1.0
121
0.0
131
0.0
112
0.0
122
1.0
132
0.0
 79
     0
146
0.0
 60
     3
 61
     5
292
     1
282
     1
141
0.0
142
0.0
 63
   250
361
3F
  0
ENDTAB
  0
TABLE
  2
LTYPE
  5
5
330
0
100
AcDbSymbolTable
 70
     1
  0
LTYPE
  5
14
330
5
100
AcDbSymbolTableRecord
100
AcDbLinetypeTableRecord
  2
ByBlock
 70
     0
  3

 72
    65
 73
     0
 40
0.0
  0
LTYPE
  5
15
330
5
100
AcDbSymbolTableRecord
100
AcDbLinetypeTableRecord
  2
ByLayer
 70
     0
  3

 72
    65
 73
     0
 40
0.0
  0
LTYPE
  5
16
330
5
100
AcDbSymbolTableRecord
100
AcDbLinetypeTableRecord
  2
Continuous
 70
     0
  3
Solid line
 72
    65
 73
     0
 40
0.0
  0
ENDTAB
  0
TABLE
  2
LAYER
  5
2
330
0
100
AcDbSymbolTable
 70
     2
  0
LAYER
  5
10
330
2
100
AcDbSymbolTableRecord
100
AcDbLayerTableRecord
  2
0
 70
     0
 62
     7
  6
Continuous
370
    -3
390
F
347
3E
  0
LAYER
  5
40
330
2
100
AcDbSymbolTableRecord
100
AcDbLayerTableRecord
  2
Layer 1
 70
     0
 62
     7
  6
Continuous
370
    -3
390
F
347
3E
  0
ENDTAB
  0
TABLE
  2
STYLE
  5
3
330
0
100
AcDbSymbolTable
 70
     1
  0
STYLE
  5
11
330
3
100
AcDbSymbolTableRecord
100
AcDbTextStyleTableRecord
  2
Standard
 70
     0
 40
0.0
 41
1.0
 50
0.0
 71
     0
 42
0.2
  3
txt
  4

  0
ENDTAB
  0
TABLE
  2
VIEW
  5
6
330
0
100
AcDbSymbolTable
 70
     0
  0
ENDTAB
  0
TABLE
  2
UCS
  5
7
330
0
100
AcDbSymbolTable
 70
     0
  0
ENDTAB
  0
TABLE
  2
APPID
  5
9
330
0
100
AcDbSymbolTable
 70
     1
  0
APPID
  5
12
330
9
100
AcDbSymbolTableRecord
100
AcDbRegAppTableRecord
  2
ACAD
 70
     0
  0
ENDTAB
  0
TABLE
  2
DIMSTYLE
  5
A
330
0
100
AcDbSymbolTable
 70
     1
100
AcDbDimStyleTable
  0
DIMSTYLE
105
27
330
A
100
AcDbSymbolTableRecord
100
AcDbDimStyleTableRecord
  2
Standard
 70
     0
178
     0
340
11
  0
ENDTAB
  0
TABLE
  2
BLOCK_RECORD
  5
1
330
0
100
AcDbSymbolTable
 70
     1
  0
BLOCK_RECORD
  5
1F
330
1
100
AcDbSymbolTableRecord
100
AcDbBlockTableRecord
  2
*Model_Space
340
22
 70
     0
280
     1
281
     0
  0
BLOCK_RECORD
  5
1B
330
1
100
AcDbSymbolTableRecord
100
AcDbBlockTableRecord
  2
*Paper_Space
340
1E
 70
     0
280
     1
281
     0
  0
BLOCK_RECORD
  5
23
330
1
100
AcDbSymbolTableRecord
100
AcDbBlockTableRecord
  2
*Paper_Space0
340
26
 70
     0
280
     1
281
     0
  0
ENDTAB
  0
ENDSEC
  0
SECTION
  2
BLOCKS
  0
BLOCK
  5
20
330
1F
100
AcDbEntity
  8
0
100
AcDbBlockBegin
  2
*Model_Space
 70
     0
 10
0.0
 20
0.0
 30
0.0
  3
*Model_Space
  1

  0
ENDBLK
  5
21
330
1F
100
AcDbEntity
  8
0
100
AcDbBlockEnd
  0
BLOCK
  5
1C
330
1B
100
AcDbEntity
 67
     1
  8
0
100
AcDbBlockBegin
  2
*Paper_Space
 70
     0
 10
0.0
 20
0.0
 30
0.0
  3
*Paper_Space
  1

  0
ENDBLK
  5
1D
330
1B
100
AcDbEntity
 67
     1
  8
0
100
AcDbBlockEnd
  0
BLOCK
  5
24
330
23
100
AcDbEntity
  8
0
100
AcDbBlockBegin
  2
*Paper_Space0
 70
     0
 10
0.0
 20
0.0
 30
0.0
  3
*Paper_Space0
  1

  0
ENDBLK
  5
25
330
23
100
AcDbEntity
  8
0
100
AcDbBlockEnd
  0
ENDSEC
  0
SECTION
  2
ENTITIES
  0
SPLINE
  5
41
330
1F
100
AcDbEntity
  8
Layer 1
 62
     7
420
 16777215
370
    18
100
AcDbSpline
210
0.0
220
0.0
230
1.0
 70
    11
 71
     3
 72
   206
 73
   202
 74
     0
 42
0.0000000001
 43
0.0000000001
 12
1.0
 22
0.0
 32
0.0
 13
1.0
 23
0.0
 33
0.0
 40
0.0
 40
0.0
 40
0.0
 40
0.0
 40
1.0
 40
1.0
 40
1.0
 40
2.0
 40
2.0
 40
2.0
 40
3.0
 40
3.0
 40
3.0
 40
4.0
 40
4.0
 40
4.0
 40
5.0
 40
5.0
 40
5.0
 40
6.0
 40
6.0
 40
6.0
 40
7.0
 40
7.0
 40
7.0
 40
8.0
 40
8.0
 40
8.0
 40
9.0
 40
9.0
 40
9.0
 40
10.0
 40
10.0
 40
10.0
 40
11.0
 40
11.0
 40
11.0
 40
12.0
 40
12.0
 40
12.0
 40
13.0
 40
13.0
 40
13.0
 40
14.0
 40
14.0
 40
14.0
 40
15.0
 40
15.0
 40
15.0
 40
16.0
 40
16.0
 40
16.0
 40
17.0
 40
17.0
 40
17.0
 40
18.0
 40
18.0
 40
18.0
 40
19.0
 40
19.0
 40
19.0
 40
20.0
 40
20.0
 40
20.0
 40
21.0
 40
21.0
 40
21.0
 40
22.0
 40
22.0
 40
22.0
 40
23.0
 40
23.0
 40
23.0
 40
24.0
 40
24.0
 40
24.0
 40
25.0
 40
25.0
 40
25.0
 40
26.0
 40
26.0
 40
26.0
 40
27.0
 40
27.0
 40
27.0
 40
28.0
 40
28.0
 40
28.0
 40
29.0
 40
29.0
 40
29.0
 40
30.0
 40
30.0
 40
30.0
 40
31.0
 40
31.0
 40
31.0
 40
32.0
 40
32.0
 40
32.0
 40
33.0
 40
33.0
 40
33.0
 40
34.0
 40
34.0
 40
34.0
 40
35.0
 40
35.0
 40
35.0
 40
36.0
 40
36.0
 40
36.0
 40
37.0
 40
37.0
 40
37.0
 40
38.0
 40
38.0
 40
38.0
 40
39.0
 40
39.0
 40
39.0
 40
40.0
 40
40.0
 40
40.0
 40
41.0
 40
41.0
 40
41.0
 40
42.0
 40
42.0
 40
42.0
 40
43.0
 40
43.0
 40
43.0
 40
44.0
 40
44.0
 40
44.0
 40
45.0
 40
45.0
 40
45.0
 40
46.0
 40
46.0
 40
46.0
 40
47.0
 40
47.0
 40
47.0
 40
48.0
 40
48.0
 40
48.0
 40
49.0
 40
49.0
 40
49.0
 40
50.0
 40
50.0
 40
50.0
 40
51.0
 40
51.0
 40
51.0
 40
52.0
 40
52.0
 40
52.0
 40
53.0
 40
53.0
 40
53.0
 40
54.0
 40
54.0
 40
54.0
 40
55.0
 40
55.0
 40
55.0
 40
56.0
 40
56.0
 40
56.0
 40
57.0
 40
57.0
 40
57.0
 40
58.0
 40
58.0
 40
58.0
 40
59.0
 40
59.0
 40
59.0
 40
60.0
 40
60.0
 40
60.0
 40
61.0
 40
61.0
 40
61.0
 40
62.0
 40
62.0
 40
62.0
 40
63.0
 40
63.0
 40
63.0
 40
64.0
 40
64.0
 40
64.0
 40
65.0
 40
65.0
 40
65.0
 40
66.0
 40
66.0
 40
66.0
 40
67.0
 40
67.0
 40
67.0
 40
67.0
 10
4.315314548006035
 20
-6.24278102377712
 30
0.0
 10
4.315314548006035
 20
-6.24278102377712
 30
0.0
 10
3.870791276842687
 20
-6.015063270834944
 30
0.0
 10
3.59388345302831
 20
-6.024165908479214
 30
0.0
 10
3.340800978645082
 20
-6.03249734200022
 30
0.0
 10
2.063623189493632
 20
-6.395792172570737
 30
0.0
 10
2.063623189493632
 20
-6.395792172570737
 30
0.0
 10
2.063623189493632
 20
-6.395792172570737
 30
0.0
 10
2.023550330201879
 20
-6.414012629042822
 30
0.0
 10
2.078196518434589
 20
-6.31017636993786
 30
0.0
 10
2.132843010290975
 20
-6.206352255779771
 30
0.0
 10
2.313207919191655
 20
-5.780064622272044
 30
0.0
 10
2.329606633640196
 20
-5.703566638467034
 30
0.0
 10
2.346002311852026
 20
-5.627053473478441
 30
0.0
 10
2.302283539523867
 20
-5.555993389613655
 30
0.0
 10
2.274945264223965
 20
-5.501332020197411
 30
0.0
 10
2.247622170107623
 20
-5.446685831964727
 30
0.0
 10
2.023550330201879
 20
-4.987618986980124
 30
0.0
 10
2.012609251232195
 20
-4.943885033468417
 30
0.0
 10
2.001682746198677
 20
-4.900163224903533
 30
0.0
 10
1.96343338994777
 20
-4.79632696579861
 30
0.0
 10
2.110990303847605
 20
-4.829121358458981
 30
0.0
 10
2.25854654977541
 20
-4.861915751119341
 30
0.0
 10
3.236828088888412
 20
-5.228070716666821
 30
0.0
 10
3.570206879195729
 20
-5.320997777287466
 30
0.0
 10
3.903585669503059
 20
-5.41389143930433
 30
0.0
 10
4.029288905363829
 20
-5.25540899196671
 30
0.0
 10
4.029288905363829
 20
-5.25540899196671
 30
0.0
 10
4.029288905363829
 20
-5.25540899196671
 30
0.0
 10
3.728704507716871
 20
-5.189823242882666
 30
0.0
 10
3.537427667718867
 20
-5.162500148766298
 30
0.0
 10
3.537427667718867
 20
-5.162500148766298
 30
0.0
 10
3.449974941878963
 20
-5.129720937289449
 30
0.0
 10
3.504621130111673
 20
-4.976691571075599
 30
0.0
 10
3.542513364201252
 20
-4.870587243151375
 30
0.0
 10
3.717764946865549
 20
-4.189686871960652
 30
0.0
 10
4.788958365415598
 20
-3.867235497557847
 30
0.0
 10
4.788958365415598
 20
-3.867235497557847
 30
0.0
 10
4.808080584189345
 20
-3.861764199013818
 30
0.0
 10
4.851802392754229
 20
-3.861764199013818
 30
0.0
 10
4.895521165082439
 20
-3.861764199013818
 30
0.0
 10
5.048550452749181
 20
-3.856308081653335
 30
0.0
 10
4.977505551862678
 20
-3.80439147021923
 30
0.0
 10
4.906448580986939
 20
-3.752471822548411
 30
0.0
 10
5.073143969445659
 20
-3.79344887313117
 30
0.0
 10
5.08134180834448
 20
-3.79344887313117
 30
0.0
 10
5.089542683479938
 20
-3.79344887313117
 30
0.0
 10
5.27236663587021
 20
-3.765354574891514
 30
0.0
 10
5.24531073126746
 20
-3.684156496665764
 30
0.0
 10
5.242569009591294
 20
-3.67595865755983
 30
0.0
 10
5.234371170692484
 20
-3.65136210400538
 30
0.0
 10
5.31088433374815
 20
-3.662289519909879
 30
0.0
 10
5.387397496803841
 20
-3.673232116997939
 30
0.0
 10
5.562278654172145
 20
-3.624039009889013
 30
0.0
 10
5.485765491116467
 20
-3.569392821656316
 30
0.0
 10
5.409264473007308
 20
-3.514731452240072
 30
0.0
 10
5.55682262833659
 20
-3.552997143444486
 30
0.0
 10
5.575947791476779
 20
-3.55846844198849
 30
0.0
 10
5.595073046004068
 20
-3.563924559348985
 30
0.0
 10
5.698909302485857
 20
-3.55025542169906
 30
0.0
 10
5.685240165181236
 20
-3.51200491167818
 30
0.0
 10
5.671586209059746
 20
-3.473754401657301
 30
0.0
 10
5.693453280101898
 20
-3.465541381367858
 30
0.0
 10
5.739901533216615
 20
-3.479210519017808
 30
0.0
 10
5.786365062353171
 20
-3.492864475484225
 30
0.0
 10
5.917524412261084
 20
-3.4819400958164
 30
0.0
 10
5.922995710666883
 20
-3.427293907583678
 30
0.0
 10
5.928463972836059
 20
-3.372632538167446
 30
0.0
 10
5.996779296992915
 20
-3.421837790223195
 30
0.0
 10
5.996779296992915
 20
-3.421837790223195
 30
0.0
 10
5.996779296992915
 20
-3.421837790223195
 30
0.0
 10
6.13340994530664
 20
-3.473754401657301
 30
0.0
 10
6.147063901428131
 20
-3.375374259912885
 30
0.0
 10
6.147063901428131
 20
-3.375374259912885
 30
0.0
 10
6.163447434279255
 20
-3.334382028146579
 30
0.0
 10
6.242702319011086
 20
-3.383556917835259
 30
0.0
 10
6.321945058796422
 20
-3.432762169891021
 30
0.0
 10
6.420325198055555
 20
-3.413624769933765
 30
0.0
 10
6.442180029312516
 20
-3.372632538167446
 30
0.0
 10
6.464047005515946
 20
-3.331655487584688
 30
0.0
 10
6.518693192368168
 20
-3.367176420806964
 30
0.0
 10
6.535088870165837
 20
-3.378100800474777
 30
0.0
 10
6.551487584200104
 20
-3.389028216379289
 30
0.0
 10
6.584278939795417
 20
-3.520187569600555
 30
0.0
 10
6.726365705331773
 20
-3.563924559348985
 30
0.0
 10
6.868467652051296
 20
-3.60764333167717
 30
0.0
 10
6.838418141895115
 20
-3.539328005794535
 30
0.0
 10
6.835673260219386
 20
-3.492864475484225
 30
0.0
 10
6.832946719726376
 20
-3.446416126357437
 30
0.0
 10
6.893064204984411
 20
-3.522932327582692
 30
0.0
 10
6.917657721680875
 20
-3.566651099910902
 30
0.0
 10
6.942254274613965
 20
-3.610385053422596
 30
0.0
 10
7.005098300365034
 20
-3.818060607869155
 30
0.0
 10
7.046090531095766
 20
-3.864508956995956
 30
0.0
 10
7.087082761826523
 20
-3.910969451069579
 30
0.0
 10
7.174523340510682
 20
-3.949903114349265
 30
0.0
 10
7.174523340510682
 20
-3.790737513752813
 30
0.0
 10
7.174523340510682
 20
-3.774338799304259
 30
0.0
 10
7.215515571241414
 20
-3.760669661654308
 30
0.0
 10
7.223713410140236
 20
-3.864508956995956
 30
0.0
 10
7.231911249039058
 20
-3.968360397284401
 30
0.0
 10
7.179964408941309
 20
-4.093693212267062
 30
0.0
 10
7.259234342465182
 20
-4.143238522833864
 30
0.0
 10
7.281101453614686
 20
-4.156907660483802
 30
0.0
 10
7.639061472304067
 20
-4.301724006408209
 30
0.0
 10
7.890470973911205
 20
-4.476602131957671
 30
0.0
 10
8.141877439281693
 20
-4.651513656110902
 30
0.0
 10
8.188325787235094
 20
-4.68429286758774
 30
0.0
 10
8.314032056157
 20
-4.725285099354033
 30
0.0
 10
8.439720107659088
 20
-4.76627733112035
 30
0.0
 10
8.568152917074006
 20
-4.826391781660353
 30
0.0
 10
8.614616614844028
 20
-4.859170993137241
 30
0.0
 10
8.661076939110469
 20
-4.891965385797587
 30
0.0
 10
8.710254863793528
 20
-4.889238845235695
 30
0.0
 10
8.81681766076834
 20
-4.932957617563905
 30
0.0
 10
8.923398675162893
 20
-4.976691571075599
 30
0.0
 10
9.207599532365343
 20
-5.105109202551463
 30
0.0
 10
9.281370973744869
 20
-5.140645316957286
 30
0.0
 10
9.355157596307537
 20
-5.176169286416249
 30
0.0
 10
9.410025428433704
 20
-5.222644961673394
 30
0.0
 10
9.41361426012938
 20
-5.359099511709738
 30
0.0
 10
9.417203091825108
 20
-5.495714982291512
 30
0.0
 10
9.131071188126498
 20
-5.711749296389396
 30
0.0
 10
9.120146808734665
 20
-5.864775626366521
 30
0.0
 10
9.10921957423443
 20
-6.017820173763893
 30
0.0
 10
9.453522554383527
 20
-6.129839090791241
 30
0.0
 10
9.505442200742714
 20
-6.143508228441154
 30
0.0
 10
9.557361847101951
 20
-6.157162184907571
 30
0.0
 10
9.557361847101951
 20
-6.209097013761922
 30
0.0
 10
9.554632270372293
 20
-6.220009248482913
 30
0.0
 10
9.55189054869614
 20
-6.230948809334247
 30
0.0
 10
9.56283010927114
 20
-6.29105111492744
 30
0.0
 10
9.412545504835936
 20
-6.307461974322804
 30
0.0
 10
9.262245904211541
 20
-6.323845507587824
 30
0.0
 10
8.942715212597856
 20
-6.192209465203732
 30
0.0
 10
8.133664419199729
 20
-6.515122347585828
 30
0.0
 10
7.483305569463052
 20
-6.774729694650002
 30
0.0
 10
7.018767437669667
 20
-6.769258396105998
 30
0.0
 10
7.018767437669667
 20
-6.769258396105998
 30
0.0
 10
7.018767437669667
 20
-6.769258396105998
 30
0.0
 10
6.890334628254777
 20
-7.468822514327863
 30
0.0
 10
6.791954488995644
 20
-7.567190511125469
 30
0.0
 10
6.693586494683005
 20
-7.665570652869897
 30
0.0
 10
6.464951804031468
 20
-7.923249989625851
 30
0.0
 10
6.226306641213467
 20
-7.949744191121529
 30
0.0
 10
6.177116571583888
 20
-7.955215489665508
 30
0.0
 10
6.062352899473631
 20
-7.993493325816744
 30
0.0
 10
6.037756346540517
 20
-7.862303610228436
 30
0.0
 10
6.013162829844052
 20
-7.731144257007145
 30
0.0
 10
6.004964990945218
 20
-7.48794776933831
 30
0.0
 10
5.991311034823752
 20
-7.422362020254241
 30
0.0
 10
5.977641897519106
 20
-7.356773234933522
 30
0.0
 10
5.955935943326582
 20
-7.147734410206011
 30
0.0
 10
6.0678090166963
 20
-7.061644954647059
 30
0.0
 10
6.103345235397783
 20
-7.03432186053068
 30
0.0
 10
6.111527787920042
 20
-6.998800927308391
 30
0.0
 10
6.649867842458989
 20
-6.802052788766382
 30
0.0
 10
6.649867842458989
 20
-6.802052788766382
 30
0.0
 10
5.873802604800681
 20
-6.886778974044368
 30
0.0
 10
5.368272328900477
 20
-6.692745231117442
 30
0.0
 10
5.368272328900477
 20
-6.692745231117442
 30
0.0
 10
5.371001819006197
 20
-6.91954300433771
 30
0.0
 10
5.256238146895927
 20
-7.058930559031952
 30
0.0
 10
5.256238146895927
 20
-7.058930559031952
 30
0.0
 10
5.237097711185495
 20
-7.053459260487974
 30
0.0
 10
5.250766848490116
 20
-6.998800927308391
 30
0.0
 10
5.264420804611606
 20
-6.944154739075657
 30
0.0
 10
5.264420804611606
 20
-6.87036811464903
 30
0.0
 10
5.157858007636794
 20
-6.976946095499392
 30
0.0
 10
5.051292174425346
 20
-7.083511931402906
 30
0.0
 10
4.965111710381557
 20
-7.247511220835122
 30
0.0
 10
4.895521165082439
 20
-7.293929207594829
 30
0.0
 10
4.879125486870596
 20
-7.304868768446213
 30
0.0
 10
4.857273691298259
 20
-7.304868768446213
 30
0.0
 10
4.884596785414626
 20
-7.252936975828561
 30
0.0
 10
4.911919879530993
 20
-7.201032509341328
 30
0.0
 10
5.01848260141028
 20
-7.053459260487974
 30
0.0
 10
4.821749721839283
 20
-7.039793159074684
 30
0.0
 10
4.821749721839283
 20
-7.039793159074684
 30
0.0
 10
4.644126838307683
 20
-7.157298555829558
 30
0.0
 10
4.540275398019237
 20
-7.206473445518263
 30
0.0
 10
4.540275398019237
 20
-7.206473445518263
 30
0.0
 10
4.499298347436453
 20
-7.201032509341328
 30
0.0
 10
4.532092740096838
 20
-7.168238116680893
 30
0.0
 10
4.564871951573688
 20
-7.135431579073711
 30
0.0
 10
4.709670080077848
 20
-7.061939469607473
 30
0.0
 10
4.608590723901898
 20
-7.047990998180618
 30
0.0
 10
4.529351018351425
 20
-7.037078763459653
 30
0.0
 10
4.450108276564277
 20
-7.099922790798246
 30
0.0
 10
4.370865534777092
 20
-7.086253653148333
 30
0.0
 10
4.291610648043084
 20
-7.07258451549842
 30
0.0
 10
3.91809888095722
 20
-6.913968473745676
 30
0.0
 10
3.772411135098246
 20
-6.651752999351124
 30
0.0
 10
3.731434084515462
 20
-6.577966374924446
 30
0.0
 10
3.611539169473089
 20
-6.371951641956027
 30
0.0
 10
3.715035370066946
 20
-6.255530181705176
 30
0.0
 10
3.736905383059504
 20
-6.230948809334247
 30
0.0
 10
3.783350695949606
 20
-6.225477510790243
 30
0.0
 10
3.851666021832241
 20
-6.222766151411861
 30
0.0
 10
3.919981347714901
 20
-6.220009248482913
 30
0.0
 10
4.23788443953227
 20
-6.238241849901796
 30
0.0
 10
4.315314548006035
 20
-6.24278102377712
 30
0.0
  0
HATCH
  5
42
330
1F
100
AcDbEntity
  8
Layer 1
 62
     7
420
 16777215
100
AcDbHatch
 10
0.0
 20
0.0
 30
0.0
210
0.0
220
0.0
230
1.0
  2
SOLID
 70
     1
 71
     0
 91
        1
 92
        1
 93
        1
 72
     4
 94
        3
 73
     0
 74
     1
 95
      206
 96
      202
 40
0.0
 40
0.0
 40
0.0
 40
0.0
 40
1.0
 40
1.0
 40
1.0
 40
2.0
 40
2.0
 40
2.0
 40
3.0
 40
3.0
 40
3.0
 40
4.0
 40
4.0
 40
4.0
 40
5.0
 40
5.0
 40
5.0
 40
6.0
 40
6.0
 40
6.0
 40
7.0
 40
7.0
 40
7.0
 40
8.0
 40
8.0
 40
8.0
 40
9.0
 40
9.0
 40
9.0
 40
10.0
 40
10.0
 40
10.0
 40
11.0
 40
11.0
 40
11.0
 40
12.0
 40
12.0
 40
12.0
 40
13.0
 40
13.0
 40
13.0
 40
14.0
 40
14.0
 40
14.0
 40
15.0
 40
15.0
 40
15.0
 40
16.0
 40
16.0
 40
16.0
 40
17.0
 40
17.0
 40
17.0
 40
18.0
 40
18.0
 40
18.0
 40
19.0
 40
19.0
 40
19.0
 40
20.0
 40
20.0
 40
20.0
 40
21.0
 40
21.0
 40
21.0
 40
22.0
 40
22.0
 40
22.0
 40
23.0
 40
23.0
 40
23.0
 40
24.0
 40
24.0
 40
24.0
 40
25.0
 40
25.0
 40
25.0
 40
26.0
 40
26.0
 40
26.0
 40
27.0
 40
27.0
 40
27.0
 40
28.0
 40
28.0
 40
28.0
 40
29.0
 40
29.0
 40
29.0
 40
30.0
 40
30.0
 40
30.0
 40
31.0
 40
31.0
 40
31.0
 40
32.0
 40
32.0
 40
32.0
 40
33.0
 40
33.0
 40
33.0
 40
34.0
 40
34.0
 40
34.0
 40
35.0
 40
35.0
 40
35.0
 40
36.0
 40
36.0
 40
36.0
 40
37.0
 40
37.0
 40
37.0
 40
38.0
 40
38.0
 40
38.0
 40
39.0
 40
39.0
 40
39.0
 40
40.0
 40
40.0
 40
40.0
 40
41.0
 40
41.0
 40
41.0
 40
42.0
 40
42.0
 40
42.0
 40
43.0
 40
43.0
 40
43.0
 40
44.0
 40
44.0
 40
44.0
 40
45.0
 40
45.0
 40
45.0
 40
46.0
 40
46.0
 40
46.0
 40
47.0
 40
47.0
 40
47.0
 40
48.0
 40
48.0
 40
48.0
 40
49.0
 40
49.0
 40
49.0
 40
50.0
 40
50.0
 40
50.0
 40
51.0
 40
51.0
 40
51.0
 40
52.0
 40
52.0
 40
52.0
 40
53.0
 40
53.0
 40
53.0
 40
54.0
 40
54.0
 40
54.0
 40
55.0
 40
55.0
 40
55.0
 40
56.0
 40
56.0
 40
56.0
 40
57.0
 40
57.0
 40
57.0
 40
58.0
 40
58.0
 40
58.0
 40
59.0
 40
59.0
 40
59.0
 40
60.0
 40
60.0
 40
60.0
 40
61.0
 40
61.0
 40
61.0
 40
62.0
 40
62.0
 40
62.0
 40
63.0
 40
63.0
 40
63.0
 40
64.0
 40
64.0
 40
64.0
 40
65.0
 40
65.0
 40
65.0
 40
66.0
 40
66.0
 40
66.0
 40
67.0
 40
67.0
 40
67.0
 40
67.0
 10
4.315314548006035
 20
-6.24278102377712
 10
4.315314548006035
 20
-6.24278102377712
 10
3.870791276842687
 20
-6.015063270834944
 10
3.59388345302831
 20
-6.024165908479214
 10
3.340800978645082
 20
-6.03249734200022
 10
2.063623189493632
 20
-6.395792172570737
 10
2.063623189493632
 20
-6.395792172570737
 10
2.063623189493632
 20
-6.395792172570737
 10
2.023550330201879
 20
-6.414012629042822
 10
2.078196518434589
 20
-6.31017636993786
 10
2.132843010290975
 20
-6.206352255779771
 10
2.313207919191655
 20
-5.780064622272044
 10
2.329606633640196
 20
-5.703566638467034
 10
2.346002311852026
 20
-5.627053473478441
 10
2.302283539523867
 20
-5.555993389613655
 10
2.274945264223965
 20
-5.501332020197411
 10
2.247622170107623
 20
-5.446685831964727
 10
2.023550330201879
 20
-4.987618986980124
 10
2.012609251232195
 20
-4.943885033468417
 10
2.001682746198677
 20
-4.900163224903533
 10
1.96343338994777
 20
-4.79632696579861
 10
2.110990303847605
 20
-4.829121358458981
 10
2.25854654977541
 20
-4.861915751119341
 10
3.236828088888412
 20
-5.228070716666821
 10
3.570206879195729
 20
-5.320997777287466
 10
3.903585669503059
 20
-5.41389143930433
 10
4.029288905363829
 20
-5.25540899196671
 10
4.029288905363829
 20
-5.25540899196671
 10
4.029288905363829
 20
-5.25540899196671
 10
3.728704507716871
 20
-5.189823242882666
 10
3.537427667718867
 20
-5.162500148766298
 10
3.537427667718867
 20
-5.162500148766298
 10
3.449974941878963
 20
-5.129720937289449
 10
3.504621130111673
 20
-4.976691571075599
 10
3.542513364201252
 20
-4.870587243151375
 10
3.717764946865549
 20
-4.189686871960652
 10
4.788958365415598
 20
-3.867235497557847
 10
4.788958365415598
 20
-3.867235497557847
 10
4.808080584189345
 20
-3.861764199013818
 10
4.851802392754229
 20
-3.861764199013818
 10
4.895521165082439
 20
-3.861764199013818
 10
5.048550452749181
 20
-3.856308081653335
 10
4.977505551862678
 20
-3.80439147021923
 10
4.906448580986939
 20
-3.752471822548411
 10
5.073143969445659
 20
-3.79344887313117
 10
5.08134180834448
 20
-3.79344887313117
 10
5.089542683479938
 20
-3.79344887313117
 10
5.27236663587021
 20
-3.765354574891514
 10
5.24531073126746
 20
-3.684156496665764
 10
5.242569009591294
 20
-3.67595865755983
 10
5.234371170692484
 20
-3.65136210400538
 10
5.31088433374815
 20
-3.662289519909879
 10
5.387397496803841
 20
-3.673232116997939
 10
5.562278654172145
 20
-3.624039009889013
 10
5.485765491116467
 20
-3.569392821656316
 10
5.409264473007308
 20
-3.514731452240072
 10
5.55682262833659
 20
-3.552997143444486
 10
5.575947791476779
 20
-3.55846844198849
 10
5.595073046004068
 20
-3.563924559348985
 10
5.698909302485857
 20
-3.55025542169906
 10
5.685240165181236
 20
-3.51200491167818
 10
5.671586209059746
 20
-3.473754401657301
 10
5.693453280101898
 20
-3.465541381367858
 10
5.739901533216615
 20
-3.479210519017808
 10
5.786365062353171
 20
-3.492864475484225
 10
5.917524412261084
 20
-3.4819400958164
 10
5.922995710666883
 20
-3.427293907583678
 10
5.928463972836059
 20
-3.372632538167446
 10
5.996779296992915
 20
-3.421837790223195
 10
5.996779296992915
 20
-3.421837790223195
 10
5.996779296992915
 20
-3.421837790223195
 10
6.13340994530664
 20
-3.473754401657301
 10
6.147063901428131
 20
-3.375374259912885
 10
6.147063901428131
 20
-3.375374259912885
 10
6.163447434279255
 20
-3.334382028146579
 10
6.242702319011086
 20
-3.383556917835259
 10
6.321945058796422
 20
-3.432762169891021
 10
6.420325198055555
 20
-3.413624769933765
 10
6.442180029312516
 20
-3.372632538167446
 10
6.464047005515946
 20
-3.331655487584688
 10
6.518693192368168
 20
-3.367176420806964
 10
6.535088870165837
 20
-3.378100800474777
 10
6.551487584200104
 20
-3.389028216379289
 10
6.584278939795417
 20
-3.520187569600555
 10
6.726365705331773
 20
-3.563924559348985
 10
6.868467652051296
 20
-3.60764333167717
 10
6.838418141895115
 20
-3.539328005794535
 10
6.835673260219386
 20
-3.492864475484225
 10
6.832946719726376
 20
-3.446416126357437
 10
6.893064204984411
 20
-3.522932327582692
 10
6.917657721680875
 20
-3.566651099910902
 10
6.942254274613965
 20
-3.610385053422596
 10
7.005098300365034
 20
-3.818060607869155
 10
7.046090531095766
 20
-3.864508956995956
 10
7.087082761826523
 20
-3.910969451069579
 10
7.174523340510682
 20
-3.949903114349265
 10
7.174523340510682
 20
-3.790737513752813
 10
7.174523340510682
 20
-3.774338799304259
 10
7.215515571241414
 20
-3.760669661654308
 10
7.223713410140236
 20
-3.864508956995956
 10
7.231911249039058
 20
-3.968360397284401
 10
7.179964408941309
 20
-4.093693212267062
 10
7.259234342465182
 20
-4.143238522833864
 10
7.281101453614686
 20
-4.156907660483802
 10
7.639061472304067
 20
-4.301724006408209
 10
7.890470973911205
 20
-4.476602131957671
 10
8.141877439281693
 20
-4.651513656110902
 10
8.188325787235094
 20
-4.68429286758774
 10
8.314032056157
 20
-4.725285099354033
 10
8.439720107659088
 20
-4.76627733112035
 10
8.568152917074006
 20
-4.826391781660353
 10
8.614616614844028
 20
-4.859170993137241
 10
8.661076939110469
 20
-4.891965385797587
 10
8.710254863793528
 20
-4.889238845235695
 10
8.81681766076834
 20
-4.932957617563905
 10
8.923398675162893
 20
-4.976691571075599
 10
9.207599532365343
 20
-5.105109202551463
 10
9.281370973744869
 20
-5.140645316957286
 10
9.355157596307537
 20
-5.176169286416249
 10
9.410025428433704
 20
-5.222644961673394
 10
9.41361426012938
 20
-5.359099511709738
 10
9.417203091825108
 20
-5.495714982291512
 10
9.131071188126498
 20
-5.711749296389396
 10
9.120146808734665
 20
-5.864775626366521
 10
9.10921957423443
 20
-6.017820173763893
 10
9.453522554383527
 20
-6.129839090791241
 10
9.505442200742714
 20
-6.143508228441154
 10
9.557361847101951
 20
-6.157162184907571
 10
9.557361847101951
 20
-6.209097013761922
 10
9.554632270372293
 20
-6.220009248482913
 10
9.55189054869614
 20
-6.230948809334247
 10
9.56283010927114
 20
-6.29105111492744
 10
9.412545504835936
 20
-6.307461974322804
 10
9.262245904211541
 20
-6.323845507587824
 10
8.942715212597856
 20
-6.192209465203732
 10
8.133664419199729
 20
-6.515122347585828
 10
7.483305569463052
 20
-6.774729694650002
 10
7.018767437669667
 20
-6.769258396105998
 10
7.018767437669667
 20
-6.769258396105998
 10
7.018767437669667
 20
-6.769258396105998
 10
6.890334628254777
 20
-7.468822514327863
 10
6.791954488995644
 20
-7.567190511125469
 10
6.693586494683005
 20
-7.665570652869897
 10
6.464951804031468
 20
-7.923249989625851
 10
6.226306641213467
 20
-7.949744191121529
 10
6.177116571583888
 20
-7.955215489665508
 10
6.062352899473631
 20
-7.993493325816744
 10
6.037756346540517
 20
-7.862303610228436
 10
6.013162829844052
 20
-7.731144257007145
 10
6.004964990945218
 20
-7.48794776933831
 10
5.991311034823752
 20
-7.422362020254241
 10
5.977641897519106
 20
-7.356773234933522
 10
5.955935943326582
 20
-7.147734410206011
 10
6.0678090166963
 20
-7.061644954647059
 10
6.103345235397783
 20
-7.03432186053068
 10
6.111527787920042
 20
-6.998800927308391
 10
6.649867842458989
 20
-6.802052788766382
 10
6.649867842458989
 20
-6.802052788766382
 10
5.873802604800681
 20
-6.886778974044368
 10
5.368272328900477
 20
-6.692745231117442
 10
5.368272328900477
 20
-6.692745231117442
 10
5.371001819006197
 20
-6.91954300433771
 10
5.256238146895927
 20
-7.058930559031952
 10
5.256238146895927
 20
-7.058930559031952
 10
5.237097711185495
 20
-7.053459260487974
 10
5.250766848490116
 20
-6.998800927308391
 10
5.264420804611606
 20
-6.944154739075657
 10
5.264420804611606
 20
-6.87036811464903
 10
5.157858007636794
 20
-6.976946095499392
 10
5.051292174425346
 20
-7.083511931402906
 10
4.965111710381557
 20
-7.247511220835122
 10
4.895521165082439
 20
-7.293929207594829
 10
4.879125486870596
 20
-7.304868768446213
 10
4.857273691298259
 20
-7.304868768446213
 10
4.884596785414626
 20
-7.252936975828561
 10
4.911919879530993
 20
-7.201032509341328
 10
5.01848260141028
 20
-7.053459260487974
 10
4.821749721839283
 20
-7.039793159074684
 10
4.821749721839283
 20
-7.039793159074684
 10
4.644126838307683
 20
-7.157298555829558
 10
4.540275398019237
 20
-7.206473445518263
 10
4.540275398019237
 20
-7.206473445518263
 10
4.499298347436453
 20
-7.201032509341328
 10
4.532092740096838
 20
-7.168238116680893
 10
4.564871951573688
 20
-7.135431579073711
 10
4.709670080077848
 20
-7.061939469607473
 10
4.608590723901898
 20
-7.047990998180618
 10
4.529351018351425
 20
-7.037078763459653
 10
4.450108276564277
 20
-7.099922790798246
 10
4.370865534777092
 20
-7.086253653148333
 10
4.291610648043084
 20
-7.07258451549842
 10
3.91809888095722
 20
-6.913968473745676
 10
3.772411135098246
 20
-6.651752999351124
 10
3.731434084515462
 20
-6.577966374924446
 10
3.611539169473089
 20
-6.371951641956027
 10
3.715035370066946
 20
-6.255530181705176
 10
3.736905383059504
 20
-6.230948809334247
 10
3.783350695949606
 20
-6.225477510790243
 10
3.851666021832241
 20
-6.222766151411861
 10
3.919981347714901
 20
-6.220009248482913
 10
4.23788443953227
 20
-6.238241849901796
 10
4.315314548006035
 20
-6.24278102377712
 97
        0
 97
        0
 75
     2
 76
     1
 98
        0
  0
ENDSEC
  0
SECTION
  2
OBJECTS
  0
DICTIONARY
  5
C
330
0
100
AcDbDictionary
281
     1
  3
ACAD_GROUP
350
D
  3
ACAD_LAYOUT
350
1A
  3
ACAD_MATERIAL
350
3B
  3
ACAD_MLEADERSTYLE
350
44
  3
ACAD_MLINESTYLE
350
17
  3
ACAD_PLOTSETTINGS
350
19
  3
ACAD_PLOTSTYLENAME
350
E
  3
ACAD_TABLESTYLE
350
43
  3
ACAD_VISUALSTYLE
350
2A
  0
SUN
  5
3F
330
29
100
AcDbSun
 90
        1
290
     0
 63
     7
421
 16777215
 40
1.0
291
     1
 91
  2455826
 92
 54000000
292
     0
 70
     2
 71
   256
280
     1
  0
DICTIONARY
  5
D
102
{ACAD_REACTORS
330
C
102
}
330
C
100
AcDbDictionary
281
     1
  0
DICTIONARY
  5
1A
102
{ACAD_REACTORS
330
C
102
}
330
C
100
AcDbDictionary
281
     1
  3
Layout1
350
1E
  3
Layout2
350
26
  3
Model
350
22
  0
DICTIONARY
  5
3B
102
{ACAD_REACTORS
330
C
102
}
330
C
100
AcDbDictionary
281
     1
  3
ByBlock
350
3D
  3
ByLayer
350
3C
  3
Global
350
3E
  0
DICTIONARY
  5
44
102
{ACAD_REACTORS
330
C
102
}
330
C
100
AcDbDictionary
281
     1
  0
DICTIONARY
  5
17
102
{ACAD_REACTORS
330
C
102
}
330
C
100
AcDbDictionary
281
     1
  3
Standard
350
18
  0
DICTIONARY
  5
19
102
{ACAD_REACTORS
330
C
102
}
330
C
100
AcDbDictionary
281
     1
  0
ACDBDICTIONARYWDFLT
  5
E
102
{ACAD_REACTORS
330
C
102
}
330
C
100
AcDbDictionary
281
     1
  3
Normal
350
F
100
AcDbDictionaryWithDefault
340
F
  0
DICTIONARY
  5
43
102
{ACAD_REACTORS
330
C
102
}
330
C
100
AcDbDictionary
281
     1
  0
DICTIONARY
  5
2A
102
{ACAD_REACTORS
330
C
102
}
330
C
100
AcDbDictionary
281
     1
  3
2dWireframe
350
2F
  3
3D Hidden
350
31
  3
3dWireframe
350
30
  3
Basic
350
32
  3
Brighten
350
36
  3
ColorChange
350
3A
  3
Conceptual
350
34
  3
Dim
350
35
  3
Facepattern
350
39
  3
Flat
350
2B
  3
FlatWithEdges
350
2C
  3
Gouraud
350
2D
  3
GouraudWithEdges
350
2E
  3
Linepattern
350
38
  3
Realistic
350
33
  3
Thicken
350
37
  0
LAYOUT
  5
1E
102
{ACAD_REACTORS
330
1A
102
}
330
1A
100
AcDbPlotSettings
  1

  2
none_device
  4

  6

 40
0.0
 41
0.0
 42
0.0
 43
0.0
 44
0.0
 45
0.0
 46
0.0
 47
0.0
 48
0.0
 49
0.0
140
0.0
141
0.0
142
1.0
143
1.0
 70
   688
 72
     0
 73
     0
 74
     5
  7

 75
    16
 76
     0
 77
     2
 78
   300
147
1.0
148
0.0
149
0.0
100
AcDbLayout
  1
Layout1
 70
     1
 71
     1
 10
0.0
 20
0.0
 11
12.0
 21
9.0
 12
0.0
 22
0.0
 32
0.0
 14
1.000000000000000E+20
 24
1.000000000000000E+20
 34
1.000000000000000E+20
 15
-1.000000000000000E+20
 25
-1.000000000000000E+20
 35
-1.000000000000000E+20
146
0.0
 13
0.0
 23
0.0
 33
0.0
 16
1.0
 26
0.0
 36
0.0
 17
0.0
 27
1.0
 37
0.0
 76
     0
330
1B
  0
LAYOUT
  5
26
102
{ACAD_REACTORS
330
1A
102
}
330
1A
100
AcDbPlotSettings
  1

  2
none_device
  4

  6

 40
0.0
 41
0.0
 42
0.0
 43
0.0
 44
0.0
 45
0.0
 46
0.0
 47
0.0
 48
0.0
 49
0.0
140
0.0
141
0.0
142
1.0
143
1.0
 70
   688
 72
     0
 73
     0
 74
     5
  7

 75
    16
 76
     0
 77
     2
 78
   300
147
1.0
148
0.0
149
0.0
100
AcDbLayout
  1
Layout2
 70
     1
 71
     2
 10
0.0
 20
0.0
 11
0.0
 21
0.0
 12
0.0
 22
0.0
 32
0.0
 14
0.0
 24
0.0
 34
0.0
 15
0.0
 25
0.0
 35
0.0
146
0.0
 13
0.0
 23
0.0
 33
0.0
 16
1.0
 26
0.0
 36
0.0
 17
0.0
 27
1.0
 37
0.0
 76
     0
330
23
  0
LAYOUT
  5
22
102
{ACAD_REACTORS
330
1A
102
}
330
1A
100
AcDbPlotSettings
  1

  2
none_device
  4

  6

 40
0.0
 41
0.0
 42
0.0
 43
0.0
 44
0.0
 45
0.0
 46
0.0
 47
0.0
 48
0.0
 49
0.0
140
0.0
141
0.0
142
1.0
143
1.0
 70
  1712
 72
     0
 73
     0
 74
     0
  7

 75
     0
 76
     0
 77
     2
 78
   300
147
1.0
148
0.0
149
0.0
100
AcDbLayout
  1
Model
 70
     1
 71
     0
 10
0.0
 20
0.0
 11
12.0
 21
9.0
 12
0.0
 22
0.0
 32
0.0
 14
1.000000000000000E+20
 24
1.000000000000000E+20
 34
1.000000000000000E+20
 15
-1.000000000000000E+20
 25
-1.000000000000000E+20
 35
-1.000000000000000E+20
146
0.0
 13
0.0
 23
0.0
 33
0.0
 16
1.0
 26
0.0
 36
0.0
 17
0.0
 27
1.0
 37
0.0
 76
     0
330
1F
331
29
  0
MATERIAL
  5
3D
102
{ACAD_REACTORS
330
3B
102
}
330
3B
100
AcDbMaterial
  1
ByBlock
 72
     1
 94
      127
  0
MATERIAL
  5
3C
102
{ACAD_REACTORS
330
3B
102
}
330
3B
100
AcDbMaterial
  1
ByLayer
 72
     1
 94
      127
  0
MATERIAL
  5
3E
102
{ACAD_REACTORS
330
3B
102
}
330
3B
100
AcDbMaterial
  1
Global
 72
     1
 94
      127
  0
MLINESTYLE
  5
18
102
{ACAD_REACTORS
330
17
102
}
330
17
100
AcDbMlineStyle
  2
Standard
 70
     0
  3

 62
   256
 51
90.0
 52
90.0
 71
     2
 49
0.5
 62
   256
  6
BYLAYER
 49
-0.5
 62
   256
  6
BYLAYER
  0
ACDBPLACEHOLDER
  5
F
102
{ACAD_REACTORS
330
E
102
}
330
E
  0
VISUALSTYLE
  5
2F
102
{ACAD_REACTORS
330
2A
102
}
330
2A
100
AcDbVisualStyle
  2
2dWireframe
 70
     4
177
     2
291
     0
 71
     0
176
     1
 72
     2
176
     1
 73
     0
176
     1
 90
        0
176
     1
 40
-0.6
176
     1
 41
-30.0
176
     1
 62
     5
 63
     7
421
 16777215
176
     1
 74
     1
176
     1
 91
        4
176
     1
 64
     7
176
     1
 65
   257
176
     1
 75
     1
176
     1
175
     1
176
     1
 42
1.0
176
     1
 92
        0
176
     1
 66
   257
176
     1
 43
1.0
176
     1
 76
     1
176
     1
 77
     6
176
     1
 78
     2
176
     1
 67
     7
176
     1
 79
     5
176
     1
170
     0
176
     1
171
     0
176
     1
290
     0
176
     1
 93
        1
176
     1
 44
0.0
176
     1
173
     0
176
     1
  0
VISUALSTYLE
  5
31
102
{ACAD_REACTORS
330
2A
102
}
330
2A
100
AcDbVisualStyle
  2
3D Hidden
 70
     6
177
     2
291
     0
 71
     1
176
     1
 72
     2
176
     1
 73
     2
176
     1
 90
        0
176
     1
 40
-0.6
176
     1
 41
-30.0
176
     1
 62
     5
 63
     7
421
 16777215
176
     1
 74
     2
176
     1
 91
        2
176
     1
 64
     7
176
     1
 65
   257
176
     1
 75
     2
176
     1
175
     1
176
     1
 42
40.0
176
     1
 92
        0
176
     1
 66
   257
176
     1
 43
1.0
176
     1
 76
     1
176
     1
 77
     6
176
     1
 78
     2
176
     1
 67
     7
176
     1
 79
     3
176
     1
170
     0
176
     1
171
     0
176
     1
290
     0
176
     1
 93
        1
176
     1
 44
0.0
176
     1
173
     0
176
     1
  0
VISUALSTYLE
  5
30
102
{ACAD_REACTORS
330
2A
102
}
330
2A
100
AcDbVisualStyle
  2
3dWireframe
 70
     5
177
     2
291
     0
 71
     0
176
     1
 72
     2
176
     1
 73
     0
176
     1
 90
        0
176
     1
 40
-0.6
176
     1
 41
-30.0
176
     1
 62
     5
 63
     7
421
 16777215
176
     1
 74
     1
176
     1
 91
        4
176
     1
 64
     7
176
     1
 65
   257
176
     1
 75
     1
176
     1
175
     1
176
     1
 42
1.0
176
     1
 92
        0
176
     1
 66
   257
176
     1
 43
1.0
176
     1
 76
     1
176
     1
 77
     6
176
     1
 78
     2
176
     1
 67
     7
176
     1
 79
     5
176
     1
170
     0
176
     1
171
     0
176
     1
290
     0
176
     1
 93
        1
176
     1
 44
0.0
176
     1
173
     0
176
     1
  0
VISUALSTYLE
  5
32
102
{ACAD_REACTORS
330
2A
102
}
330
2A
100
AcDbVisualStyle
  2
Basic
 70
     7
177
     2
291
     1
 71
     1
176
     1
 72
     0
176
     1
 73
     1
176
     1
 90
        0
176
     1
 40
-0.6
176
     1
 41
-30.0
176
     1
 62
     5
 63
     7
421
 16777215
176
     1
 74
     0
176
     1
 91
        4
176
     1
 64
     7
176
     1
 65
   257
176
     1
 75
     1
176
     1
175
     1
176
     1
 42
1.0
176
     1
 92
        8
176
     1
 66
     7
176
     1
 43
1.0
176
     1
 76
     1
176
     1
 77
     6
176
     1
 78
     2
176
     1
 67
     7
176
     1
 79
     5
176
     1
170
     0
176
     1
171
     0
176
     1
290
     0
176
     1
 93
        1
176
     1
 44
0.0
176
     1
173
     0
176
     1
  0
VISUALSTYLE
  5
36
102
{ACAD_REACTORS
330
2A
102
}
330
2A
100
AcDbVisualStyle
  2
Brighten
 70
    12
177
     2
291
     1
 71
     2
176
     1
 72
     2
176
     1
 73
     0
176
     1
 90
        0
176
     1
 40
-0.6
176
     1
 41
-30.0
176
     1
 62
     5
 63
     7
421
 16777215
176
     1
 74
     1
176
     1
 91
        4
176
     1
 64
     7
176
     1
 65
   257
176
     1
 75
     1
176
     1
175
     1
176
     1
 42
1.0
176
     1
 92
        8
176
     1
 66
     7
176
     1
 43
1.0
176
     1
 76
     1
176
     1
 77
     6
176
     1
 78
     2
176
     1
 67
     7
176
     1
 79
     5
176
     1
170
     0
176
     1
171
     0
176
     1
290
     0
176
     1
 93
        1
176
     1
 44
50.0
176
     1
173
     0
176
     1
  0
VISUALSTYLE
  5
3A
102
{ACAD_REACTORS
330
2A
102
}
330
2A
100
AcDbVisualStyle
  2
ColorChange
 70
    16
177
     2
291
     1
 71
     2
176
     1
 72
     2
176
     1
 73
     3
176
     1
 90
        0
176
     1
 40
-0.6
176
     1
 41
-30.0
176
     1
 62
     5
 63
     8
421
  8421504
176
     1
 74
     1
176
     1
 91
        4
176
     1
 64
     7
176
     1
 65
   257
176
     1
 75
     1
176
     1
175
     1
176
     1
 42
1.0
176
     1
 92
        8
176
     1
 66
     8
424
  8421504
176
     1
 43
1.0
176
     1
 76
     1
176
     1
 77
     6
176
     1
 78
     2
176
     1
 67
     7
176
     1
 79
     5
176
     1
170
     0
176
     1
171
     0
176
     1
290
     0
176
     1
 93
        1
176
     1
 44
0.0
176
     1
173
     0
176
     1
  0
VISUALSTYLE
  5
34
102
{ACAD_REACTORS
330
2A
102
}
330
2A
100
AcDbVisualStyle
  2
Conceptual
 70
     9
177
     2
291
     0
 71
     3
176
     1
 72
     2
176
     1
 73
     0
176
     1
 90
        0
176
     1
 40
-0.6
176
     1
 41
-30.0
176
     1
 62
     5
 63
     7
421
 16777215
176
     1
 74
     2
176
     1
 91
        2
176
     1
 64
     7
176
     1
 65
   257
176
     1
 75
     1
176
     1
175
     1
176
     1
 42
40.0
176
     1
 92
        8
176
     1
 66
     7
176
     1
 43
1.0
176
     1
 76
     1
176
     1
 77
     6
176
     1
 78
     2
176
     1
 67
     7
176
     1
 79
     3
176
     1
170
     0
176
     1
171
     0
176
     1
290
     0
176
     1
 93
        1
176
     1
 44
0.0
176
     1
173
     0
176
     1
  0
VISUALSTYLE
  5
35
102
{ACAD_REACTORS
330
2A
102
}
330
2A
100
AcDbVisualStyle
  2
Dim
 70
    11
177
     2
291
     1
 71
     2
176
     1
 72
     2
176
     1
 73
     0
176
     1
 90
        0
176
     1
 40
-0.6
176
     1
 41
-30.0
176
     1
 62
     5
 63
     7
421
 16777215
176
     1
 74
     1
176
     1
 91
        4
176
     1
 64
     7
176
     1
 65
   257
176
     1
 75
     1
176
     1
175
     1
176
     1
 42
1.0
176
     1
 92
        8
176
     1
 66
     7
176
     1
 43
1.0
176
     1
 76
     1
176
     1
 77
     6
176
     1
 78
     2
176
     1
 67
     7
176
     1
 79
     5
176
     1
170
     0
176
     1
171
     0
176
     1
290
     0
176
     1
 93
        1
176
     1
 44
-50.0
176
     1
173
     0
176
     1
  0
VISUALSTYLE
  5
39
102
{ACAD_REACTORS
330
2A
102
}
330
2A
100
AcDbVisualStyle
  2
Facepattern
 70
    15
177
     2
291
     1
 71
     2
176
     1
 72
     2
176
     1
 73
     0
176
     1
 90
        0
176
     1
 40
-0.6
176
     1
 41
-30.0
176
     1
 62
     5
 63
     7
421
 16777215
176
     1
 74
     1
176
     1
 91
        4
176
     1
 64
     7
176
     1
 65
   257
176
     1
 75
     1
176
     1
175
     1
176
     1
 42
1.0
176
     1
 92
        8
176
     1
 66
     7
176
     1
 43
1.0
176
     1
 76
     1
176
     1
 77
     6
176
     1
 78
     2
176
     1
 67
     7
176
     1
 79
     5
176
     1
170
     0
176
     1
171
     0
176
     1
290
     0
176
     1
 93
        1
176
     1
 44
0.0
176
     1
173
     0
176
     1
  0
VISUALSTYLE
  5
2B
102
{ACAD_REACTORS
330
2A
102
}
330
2A
100
AcDbVisualStyle
  2
Flat
 70
     0
177
     2
291
     1
 71
     2
176
     1
 72
     1
176
     1
 73
     1
176
     1
 90
        2
176
     1
 40
-0.6
176
     1
 41
30.0
176
     1
 62
     5
 63
     7
421
 16777215
176
     1
 74
     0
176
     1
 91
        4
176
     1
 64
     7
176
     1
 65
   257
176
     1
 75
     1
176
     1
175
     1
176
     1
 42
1.0
176
     1
 92
        8
176
     1
 66
     7
176
     1
 43
1.0
176
     1
 76
     1
176
     1
 77
     6
176
     1
 78
     2
176
     1
 67
     7
176
     1
 79
     5
176
     1
170
     0
176
     1
171
     0
176
     1
290
     0
176
     1
 93
       13
176
     1
 44
0.0
176
     1
173
     0
176
     1
  0
VISUALSTYLE
  5
2C
102
{ACAD_REACTORS
330
2A
102
}
330
2A
100
AcDbVisualStyle
  2
FlatWithEdges
 70
     1
177
     2
291
     1
 71
     2
176
     1
 72
     1
176
     1
 73
     1
176
     1
 90
        2
176
     1
 40
-0.6
176
     1
 41
30.0
176
     1
 62
     5
 63
     7
421
 16777215
176
     1
 74
     1
176
     1
 91
        4
176
     1
 64
     7
176
     1
 65
   257
176
     1
 75
     1
176
     1
175
     1
176
     1
 42
1.0
176
     1
 92
        0
176
     1
 66
   257
176
     1
 43
1.0
176
     1
 76
     1
176
     1
 77
     6
176
     1
 78
     2
176
     1
 67
     7
176
     1
 79
     5
176
     1
170
     0
176
     1
171
     0
176
     1
290
     0
176
     1
 93
       13
176
     1
 44
0.0
176
     1
173
     0
176
     1
  0
VISUALSTYLE
  5
2D
102
{ACAD_REACTORS
330
2A
102
}
330
2A
100
AcDbVisualStyle
  2
Gouraud
 70
     2
177
     2
291
     1
 71
     2
176
     1
 72
     2
176
     1
 73
     1
176
     1
 90
        2
176
     1
 40
-0.6
176
     1
 41
30.0
176
     1
 62
     5
 63
     7
421
 16777215
176
     1
 74
     0
176
     1
 91
        4
176
     1
 64
     7
176
     1
 65
   257
176
     1
 75
     1
176
     1
175
     1
176
     1
 42
1.0
176
     1
 92
        0
176
     1
 66
     7
176
     1
 43
1.0
176
     1
 76
     1
176
     1
 77
     6
176
     1
 78
     2
176
     1
 67
     7
176
     1
 79
     5
176
     1
170
     0
176
     1
171
     0
176
     1
290
     0
176
     1
 93
       13
176
     1
 44
0.0
176
     1
173
     0
176
     1
  0
VISUALSTYLE
  5
2E
102
{ACAD_REACTORS
330
2A
102
}
330
2A
100
AcDbVisualStyle
  2
GouraudWithEdges
 70
     3
177
     2
291
     1
 71
     2
176
     1
 72
     2
176
     1
 73
     1
176
     1
 90
        2
176
     1
 40
-0.6
176
     1
 41
30.0
176
     1
 62
     5
 63
     7
421
 16777215
176
     1
 74
     1
176
     1
 91
        4
176
     1
 64
     7
176
     1
 65
   257
176
     1
 75
     1
176
     1
175
     1
176
     1
 42
1.0
176
     1
 92
        0
176
     1
 66
   257
176
     1
 43
1.0
176
     1
 76
     1
176
     1
 77
     6
176
     1
 78
     2
176
     1
 67
     7
176
     1
 79
     5
176
     1
170
     0
176
     1
171
     0
176
     1
290
     0
176
     1
 93
       13
176
     1
 44
0.0
176
     1
173
     0
176
     1
  0
VISUALSTYLE
  5
38
102
{ACAD_REACTORS
330
2A
102
}
330
2A
100
AcDbVisualStyle
  2
Linepattern
 70
    14
177
     2
291
     1
 71
     2
176
     1
 72
     2
176
     1
 73
     0
176
     1
 90
        0
176
     1
 40
-0.6
176
     1
 41
-30.0
176
     1
 62
     5
 63
     7
421
 16777215
176
     1
 74
     1
176
     1
 91
        4
176
     1
 64
     7
176
     1
 65
   257
176
     1
 75
     7
176
     1
175
     7
176
     1
 42
1.0
176
     1
 92
        8
176
     1
 66
     7
176
     1
 43
1.0
176
     1
 76
     1
176
     1
 77
     6
176
     1
 78
     2
176
     1
 67
     7
176
     1
 79
     5
176
     1
170
     0
176
     1
171
     0
176
     1
290
     0
176
     1
 93
        1
176
     1
 44
0.0
176
     1
173
     0
176
     1
  0
VISUALSTYLE
  5
33
102
{ACAD_REACTORS
330
2A
102
}
330
2A
100
AcDbVisualStyle
  2
Realistic
 70
     8
177
     2
291
     0
 71
     2
176
     1
 72
     2
176
     1
 73
     0
176
     1
 90
        0
176
     1
 40
-0.6
176
     1
 41
-30.0
176
     1
 62
     5
 63
     7
421
 16777215
176
     1
 74
     1
176
     1
 91
        0
176
     1
 64
     7
176
     1
 65
   257
176
     1
 75
     1
176
     1
175
     1
176
     1
 42
1.0
176
     1
 92
        8
176
     1
 66
     8
424
  7895160
176
     1
 43
1.0
176
     1
 76
     1
176
     1
 77
     6
176
     1
 78
     2
176
     1
 67
     7
176
     1
 79
     5
176
     1
170
     0
176
     1
171
     0
176
     1
290
     0
176
     1
 93
       13
176
     1
 44
0.0
176
     1
173
     0
176
     1
  0
VISUALSTYLE
  5
37
102
{ACAD_REACTORS
330
2A
102
}
330
2A
100
AcDbVisualStyle
  2
Thicken
 70
    13
177
     2
291
     1
 71
     2
176
     1
 72
     2
176
     1
 73
     0
176
     1
 90
        0
176
     1
 40
-0.6
176
     1
 41
-30.0
176
     1
 62
     5
 63
     7
421
 16777215
176
     1
 74
     1
176
     1
 91
        4
176
     1
 64
     7
176
     1
 65
   257
176
     1
 75
     1
176
     1
175
     1
176
     1
 42
1.0
176
     1
 92
       12
176
     1
 66
     7
176
     1
 43
1.0
176
     1
 76
     1
176
     1
 77
     6
176
     1
 78
     2
176
     1
 67
     7
176
     1
 79
     5
176
     1
170
     0
176
     1
171
     0
176
     1
290
     0
176
     1
 93
        1
176
     1
 44
0.0
176
     1
173
     0
176
     1
  0
ENDSEC
  0
EOF
